<svg width="225" height="290" viewBox="0 0 225 290" fill="none" xmlns="http://www.w3.org/2000/svg">
<path fill-rule="evenodd" clip-rule="evenodd" d="M-85.2716 314.653C-85.2716 318.156 -82.4316 320.996 -78.9283 320.996H-59.2639C-52.5992 320.996 -46.5891 318.193 -42.3483 313.701C-38.1076 318.193 -32.0975 320.996 -25.4328 320.996H-5.97985C6.86584 320.996 17.2791 310.583 17.2791 297.737C17.2791 294.234 14.4389 291.394 10.9357 291.394C7.43252 291.394 4.59239 294.234 4.59239 297.737C4.59239 303.576 -0.141014 308.309 -5.97985 308.309H-25.4328C-31.2716 308.309 -36.005 303.576 -36.005 297.737V255.025C-36.005 242.414 -46.2292 232.189 -58.841 232.189V244.876C-53.2356 244.876 -48.6917 249.42 -48.6917 255.025V297.737C-48.6917 303.576 -53.4251 308.309 -59.2639 308.309H-78.9283C-82.4316 308.309 -85.2716 311.149 -85.2716 314.653Z" fill="#B4D51E"/>
<path d="M-2.92295 263.527C2.92174 263.527 7.65988 258.788 7.65988 252.941C7.65988 247.095 2.92174 242.355 -2.92295 242.355C-8.76764 242.355 -13.5058 247.095 -13.5058 252.941C-13.5058 256.449 -16.3488 259.293 -19.8555 259.293C-23.3622 259.293 -26.2052 256.449 -26.2052 252.941C-26.2052 240.079 -15.7815 229.652 -2.92295 229.652C9.93562 229.652 20.3593 240.079 20.3593 252.941C20.3593 265.803 9.93562 276.23 -2.92295 276.23C-6.42968 276.23 -9.27266 273.386 -9.27266 269.879C-9.27266 266.371 -6.42968 263.527 -2.92295 263.527Z" fill="#4484AB"/>
<path d="M178.282 150.875C184.127 150.875 188.865 146.135 188.865 140.289C188.865 134.443 184.127 129.703 178.282 129.703C172.438 129.703 167.699 134.443 167.699 140.289C167.699 143.797 164.856 146.641 161.35 146.641C157.843 146.641 155 143.797 155 140.289C155 127.427 165.424 117 178.282 117C191.141 117 201.564 127.427 201.564 140.289C201.564 153.151 191.141 163.578 178.282 163.578C174.776 163.578 171.933 160.734 171.933 157.227C171.933 153.719 174.776 150.875 178.282 150.875Z" fill="#E53855"/>
<path fill-rule="evenodd" clip-rule="evenodd" d="M38.4612 297.81C38.4612 291.984 33.7231 287.26 27.8784 287.26C22.0337 287.26 17.2955 291.984 17.2955 297.81C17.2955 301.307 14.4525 304.141 10.9458 304.141C7.43905 304.141 4.59607 301.307 4.59607 297.81C4.59607 284.991 15.0198 274.599 27.8784 274.599C40.737 274.599 51.1607 284.991 51.1607 297.81C51.1607 301.307 48.3177 304.141 44.811 304.141C41.3042 304.141 38.4612 301.307 38.4612 297.81Z" fill="#E53855"/>
<path fill-rule="evenodd" clip-rule="evenodd" d="M83.1656 202.586C83.1656 196.74 78.4275 192 72.5828 192C66.7377 192 62 196.74 62 202.586C62 208.432 66.7377 213.172 72.5828 213.172C78.4275 213.172 83.1656 208.432 83.1656 202.586ZM232.166 134.586C232.166 128.74 227.427 124 221.583 124C215.738 124 211 128.74 211 134.586C211 140.432 215.738 145.172 221.583 145.172C227.427 145.172 232.166 140.432 232.166 134.586Z" fill="#FFC735"/>
<path fill-rule="evenodd" clip-rule="evenodd" d="M93.5653 185.234C112.266 185.234 127.425 170.071 127.425 151.365C127.425 147.858 130.268 145.014 133.774 145.014C137.28 145.014 140.123 147.858 140.123 151.365C140.123 177.085 119.278 197.936 93.5653 197.936C90.0591 197.936 87.2166 195.092 87.2166 191.585C87.2166 188.078 90.0591 185.234 93.5653 185.234Z" fill="#44AB96"/>
<path fill-rule="evenodd" clip-rule="evenodd" d="M214.952 198.298C214.952 201.801 217.791 204.641 221.293 204.641C224.796 204.641 227.635 201.801 227.635 198.298C227.635 194.795 224.796 191.955 221.293 191.955C217.791 191.955 214.952 194.795 214.952 198.298Z" fill="#FD6234"/>
<path d="M155.708 283.48C159.212 283.48 162.052 286.327 162.052 289.839C162.052 295.693 166.787 300.438 172.627 300.438H214.924C220.764 300.438 225.498 295.693 225.498 289.839C225.498 286.327 228.339 283.48 231.843 283.48C235.347 283.48 238.187 286.327 238.187 289.839C238.187 297.644 234.362 304.554 228.487 308.786C229.978 314.257 235 318.245 241.148 318.245H265.681C269.185 318.245 272.025 321.092 272.025 324.605C272.025 328.117 269.185 330.964 265.681 330.964H241.148C229.673 330.964 219.816 323.592 216.52 313.104C215.992 313.139 215.46 313.157 214.924 313.157H172.627C159.778 313.157 149.363 302.718 149.363 289.839C149.363 286.327 152.204 283.48 155.708 283.48Z" fill="#E5E0D5"/>
<path fill-rule="evenodd" clip-rule="evenodd" d="M103.614 207.722C116.472 207.722 126.896 218.136 126.896 230.981V273.27C126.896 286.116 116.472 296.529 103.614 296.529C90.7551 296.529 80.3314 286.116 80.3314 273.27V230.981C80.3314 218.136 90.7551 207.722 103.614 207.722ZM114.196 230.981C114.196 225.142 109.458 220.409 103.614 220.409C97.769 220.409 93.0308 225.142 93.0308 230.981V273.27C93.0308 279.109 97.769 283.842 103.614 283.842C109.458 283.842 114.196 279.109 114.196 273.27V230.981Z" fill="#44AB96"/>
<path fill-rule="evenodd" clip-rule="evenodd" d="M155.705 296.166C159.207 296.166 162.046 293.322 162.046 289.814C162.046 283.966 166.778 279.226 172.615 279.226H214.892C220.729 279.226 225.461 283.966 225.461 289.814C225.461 293.322 228.3 296.166 231.802 296.166C235.304 296.166 238.144 293.322 238.144 289.814C238.144 283.139 235.341 277.121 230.851 272.874C235.341 268.627 238.144 262.608 238.144 255.933V236.452C238.144 223.588 227.733 213.159 214.892 213.159C211.389 213.159 208.55 216.004 208.55 219.512C208.55 223.02 211.389 225.865 214.892 225.865C220.729 225.865 225.461 230.605 225.461 236.452V255.933C225.461 261.781 220.729 266.521 214.892 266.521H172.616C172.615 266.521 172.616 266.521 172.616 266.521C159.774 266.521 149.363 276.949 149.363 289.814C149.363 293.322 152.202 296.166 155.705 296.166Z" fill="#44AB96"/>
<path fill-rule="evenodd" clip-rule="evenodd" d="M184.134 237.717C184.134 231.871 179.396 227.131 173.551 227.131C167.707 227.131 162.968 231.871 162.968 237.717C162.968 243.564 167.707 248.303 173.551 248.303C177.058 248.303 179.901 251.147 179.901 254.655C179.901 258.162 177.058 261.006 173.551 261.006C160.693 261.006 150.269 250.58 150.269 237.717C150.269 224.855 160.693 214.428 173.551 214.428C186.41 214.428 196.834 224.855 196.834 237.717C196.834 241.225 193.991 244.069 190.484 244.069C186.977 244.069 184.134 241.225 184.134 237.717Z" fill="#E53855"/>
<path fill-rule="evenodd" clip-rule="evenodd" d="M97.363 272.043C97.363 264.235 91.0887 257.957 83.4117 257.957C75.7348 257.957 69.4605 264.235 69.4605 272.043C69.4605 276.356 71.3723 280.205 74.3984 282.795C77.0627 285.075 77.3793 289.089 75.1057 291.76C72.8321 294.432 68.8293 294.749 66.1655 292.469C60.4269 287.558 56.7776 280.223 56.7776 272.043C56.7776 257.267 68.6738 245.239 83.4117 245.239C98.1497 245.239 110.046 257.267 110.046 272.043C110.046 275.555 107.207 278.402 103.704 278.402C100.202 278.402 97.363 275.555 97.363 272.043Z" fill="#FD6234"/>
<path fill-rule="evenodd" clip-rule="evenodd" d="M162.046 289.823C162.046 293.326 159.207 296.166 155.704 296.166C152.202 296.166 149.363 293.326 149.363 289.823C149.363 286.32 152.202 283.48 155.704 283.48C159.207 283.48 162.046 286.32 162.046 289.823Z" fill="#FD6234"/>
<path fill-rule="evenodd" clip-rule="evenodd" d="M202.282 296.183C196.457 296.183 191.734 300.922 191.734 306.769C191.734 312.615 196.457 317.355 202.282 317.355C205.777 317.355 208.61 320.198 208.61 323.706C208.61 327.214 205.777 330.058 202.282 330.058C189.466 330.058 179.077 319.631 179.077 306.769C179.077 293.906 189.466 283.48 202.282 283.48C205.777 283.48 208.61 286.324 208.61 289.831C208.61 293.339 205.777 296.183 202.282 296.183Z" fill="#FFC735"/>
<path fill-rule="evenodd" clip-rule="evenodd" d="M215.303 182.712C207.234 182.712 200.48 189.408 200.48 197.936C200.48 206.463 207.234 213.159 215.303 213.159C218.811 213.159 221.656 216 221.656 219.503C221.656 223.006 218.811 225.846 215.303 225.846C199.981 225.846 187.774 213.231 187.774 197.936C187.774 182.64 199.981 170.025 215.303 170.025C218.811 170.025 221.656 172.865 221.656 176.368C221.656 179.871 218.811 182.712 215.303 182.712Z" fill="#FFB017"/>
<path fill-rule="evenodd" clip-rule="evenodd" d="M173.456 261.03C157.333 261.03 144.264 274.118 144.264 290.263C144.264 303.133 133.846 313.565 120.995 313.565C108.143 313.565 97.7253 303.133 97.7253 290.263C97.7253 286.753 100.567 283.908 104.071 283.908C107.576 283.908 110.418 286.753 110.418 290.263C110.418 296.113 115.153 300.855 120.995 300.855C126.836 300.855 131.571 296.113 131.571 290.263C131.571 267.098 150.324 248.32 173.456 248.32C176.961 248.32 179.802 251.165 179.802 254.675C179.802 258.184 176.961 261.03 173.456 261.03Z" fill="#FFB017"/>
<path d="M104.973 207.722C131.59 207.722 153.168 186.138 153.168 159.513C153.168 156.01 156.007 153.17 159.509 153.17C163.012 153.17 165.851 156.01 165.851 159.513C165.851 193.145 138.595 220.409 104.973 220.409C101.471 220.409 98.6312 217.569 98.6312 214.066C98.6312 210.562 101.471 207.722 104.973 207.722Z" fill="#4484AB"/>
<path fill-rule="evenodd" clip-rule="evenodd" d="M69.4704 241.594C58.7469 241.594 50.0538 250.29 50.0538 261.016C50.0538 264.514 47.2189 267.35 43.7223 267.35C40.2256 267.35 37.3907 264.514 37.3907 261.016C37.3907 243.294 51.7531 228.927 69.4704 228.927C72.9671 228.927 75.8019 231.763 75.8019 235.261C75.8019 238.758 72.9671 241.594 69.4704 241.594Z" fill="#FFB017"/>
<path fill-rule="evenodd" clip-rule="evenodd" d="M208.61 289.823C208.61 293.326 205.771 296.166 202.269 296.166C198.767 296.166 195.928 293.326 195.928 289.823C195.928 286.32 198.767 283.48 202.269 283.48C205.771 283.48 208.61 286.32 208.61 289.823Z" fill="#FD6234"/>
<path fill-rule="evenodd" clip-rule="evenodd" d="M179.983 254.663C179.983 258.166 177.144 261.006 173.642 261.006C170.14 261.006 167.3 258.166 167.3 254.663C167.3 251.16 170.14 248.32 173.642 248.32C177.144 248.32 179.983 251.16 179.983 254.663Z" fill="#FD6234"/>
<path fill-rule="evenodd" clip-rule="evenodd" d="M178.683 193.343C178.683 196.847 175.844 199.687 172.341 199.687C168.839 199.687 166 196.847 166 193.343C166 189.84 168.839 187 172.341 187C175.844 187 178.683 189.84 178.683 193.343Z" fill="#FD6234"/>
<path fill-rule="evenodd" clip-rule="evenodd" d="M221.656 219.503C221.656 223.006 218.816 225.846 215.314 225.846C211.812 225.846 208.973 223.006 208.973 219.503C208.973 216 211.812 213.159 215.314 213.159C218.816 213.159 221.656 216 221.656 219.503Z" fill="#FD6234"/>
<path fill-rule="evenodd" clip-rule="evenodd" d="M213.683 249.343C213.683 252.847 210.844 255.687 207.341 255.687C203.839 255.687 201 252.847 201 249.343C201 245.84 203.839 243 207.341 243C210.844 243 213.683 245.84 213.683 249.343Z" fill="#44AB96"/>
<path fill-rule="evenodd" clip-rule="evenodd" d="M110.046 214.066C110.046 217.569 107.207 220.409 103.704 220.409C100.202 220.409 97.3629 217.569 97.3629 214.066C97.3629 210.563 100.202 207.722 103.704 207.722C107.207 207.722 110.046 210.563 110.046 214.066Z" fill="#FD6234"/>
<path fill-rule="evenodd" clip-rule="evenodd" d="M110.408 290.185C110.408 293.689 107.569 296.529 104.067 296.529C100.565 296.529 97.7253 293.689 97.7253 290.185C97.7253 286.682 100.565 283.842 104.067 283.842C107.569 283.842 110.408 286.682 110.408 290.185Z" fill="#FD6234"/>
<path fill-rule="evenodd" clip-rule="evenodd" d="M202.341 115.007C205.844 115.007 208.683 112.163 208.683 108.654C208.683 102.807 213.415 98.0668 219.252 98.0668H261.529C267.366 98.0668 272.098 102.807 272.098 108.654C272.098 112.163 274.937 115.007 278.439 115.007C281.941 115.007 284.781 112.163 284.781 108.654C284.781 101.98 281.978 95.9611 277.487 91.7142C281.978 87.4673 284.781 81.4484 284.781 74.774V55.2928C284.781 42.4284 274.37 32 261.529 32C258.026 32 255.187 34.8443 255.187 38.3526C255.187 41.8609 258.026 44.7051 261.529 44.7051C267.366 44.7051 272.098 49.4454 272.098 55.2928V74.774C272.098 80.6213 267.366 85.3616 261.529 85.3616H219.252C219.252 85.3616 219.252 85.3616 219.252 85.3616C206.411 85.3616 196 95.79 196 108.654C196 112.163 198.839 115.007 202.341 115.007Z" fill="#44AB96"/>
</svg>
