<svg width="330" height="398" viewBox="0 0 330 398" fill="none" xmlns="http://www.w3.org/2000/svg">
<mask id="mask0" mask-type="alpha" maskUnits="userSpaceOnUse" x="-215" y="0" width="553" height="415">
<rect x="-215" width="553" height="415" fill="white"/>
</mask>
<g mask="url(#mask0)">
<path d="M130.625 346.072C130.625 384.271 99.6764 415.239 61.5 415.239L61.5 346.072H130.625Z" fill="#3699FF"/>
<path d="M268.875 276.905C230.699 276.905 199.75 245.938 199.75 207.739H268.875V276.905Z" fill="#D6DA34"/>
<path d="M62 430C15.6076 430 -22 392.392 -22 346H62V430Z" fill="#6ED47C"/>
<path d="M61.5 381.371C42.0164 381.371 26.2224 365.567 26.2224 346.072H61.5V381.371Z" fill="#D5E155"/>
<path d="M336.963 34.9292H302.401C283.312 34.9292 267.838 50.4127 267.838 69.5125H302.401C321.489 69.5125 336.963 54.029 336.963 34.9292Z" fill="#6ED47C"/>
<path d="M130.625 311.489H165.013C184.197 311.489 199.75 326.972 199.75 346.072H165.362C146.177 346.072 130.625 330.588 130.625 311.489Z" fill="#6ED47C"/>
<path d="M199.75 415.239V346.072C199.75 307.873 230.699 276.905 268.875 276.905V346.072C268.875 384.271 237.926 415.239 199.75 415.239Z" fill="#6ED47C"/>
<path d="M234.312 345.833V311.543C234.312 292.413 249.787 276.905 268.875 276.905V311.195C268.875 330.325 253.401 345.833 234.312 345.833Z" fill="#2D3652"/>
<path d="M179.251 276.667C179.251 265.207 188.535 255.917 199.988 255.917C211.442 255.917 220.726 265.207 220.726 276.667C220.726 288.127 211.442 297.417 199.988 297.417C188.535 297.417 179.251 288.127 179.251 276.667Z" fill="#FF743C"/>
<path d="M189.739 276.786C189.739 271.056 194.381 266.411 200.108 266.411C205.834 266.411 210.476 271.056 210.476 276.786C210.476 282.516 205.834 287.161 200.108 287.161C194.381 287.161 189.739 282.516 189.739 276.786Z" fill="#FFC700"/>
<path d="M268.875 172.917C268.875 153.817 253.401 138.333 234.312 138.333C215.224 138.333 199.75 153.817 199.75 172.917C199.75 192.016 215.224 207.5 234.312 207.5H268.875V172.917Z" fill="#FF743C"/>
<path d="M268 69V94C268 107.807 256.807 119 243 119V94C243 80.193 254.193 69 268 69Z" fill="#A04AE3"/>
<path d="M268.875 189.612C268.875 179.733 260.871 171.724 250.997 171.724C241.124 171.724 233.121 179.733 233.121 189.612C233.121 199.491 241.124 207.5 250.997 207.5H268.875V189.612Z" fill="#FFC700"/>
<path d="M130.625 380.655C130.625 361.556 146.099 346.072 165.188 346.072C184.276 346.072 199.75 361.556 199.75 380.655C199.75 399.755 184.276 415.239 165.188 415.239C146.099 415.239 130.625 399.755 130.625 380.655Z" fill="#FF743C"/>
<path d="M146.119 380.298C146.119 369.694 154.71 361.098 165.307 361.098C175.904 361.098 184.495 369.694 184.495 380.298C184.495 390.901 175.904 399.497 165.307 399.497C154.71 399.497 146.119 390.901 146.119 380.298Z" fill="#2D3652"/>
<path d="M268.637 138.333C268.637 100.134 299.585 69.1667 337.762 69.1667V138.333H268.637Z" fill="#FF743C"/>
<path d="M337.762 276.667C299.585 276.667 268.637 245.699 268.637 207.5H337.762V276.667Z" fill="#3699FF"/>
<path d="M268.637 207.5C268.637 169.3 299.585 138.333 337.762 138.333V207.5H268.637Z" fill="#6ED47C"/>
<path d="M302.484 207.5C302.484 188.004 318.278 172.201 337.762 172.201V207.5H302.484Z" fill="#D5E155"/>
<path d="M268.875 380.762C268.875 399.862 284.349 415.346 303.438 415.346C322.526 415.346 338 399.862 338 380.762C338 361.663 322.526 346.179 303.438 346.179H268.875V380.762Z" fill="#FFC700"/>
<path d="M268.875 364.067C268.875 373.946 276.879 381.955 286.753 381.955C296.626 381.955 304.629 373.946 304.629 364.067C304.629 354.188 296.626 346.179 286.753 346.179H268.875V364.067Z" fill="#FF743C"/>
<path d="M303.199 276.667C322.287 276.667 337.762 292.15 337.762 311.25C337.762 330.35 322.287 345.833 303.199 345.833C284.111 345.833 268.637 330.35 268.637 311.25C268.637 292.15 284.111 276.667 303.199 276.667Z" fill="#FF743C"/>
<path d="M303.557 292.169C314.154 292.169 322.745 300.766 322.745 311.369C322.745 321.973 314.154 330.569 303.557 330.569C292.96 330.569 284.369 321.973 284.369 311.369C284.369 300.766 292.96 292.169 303.557 292.169Z" fill="#2D3652"/>
<path d="M31 296H81C108.614 296 131 318.386 131 346H81C53.386 346 31 323.614 31 296Z" fill="#A04AE3"/>
<path d="M81 321H105.874C119.75 321 131 332.193 131 346H106.126C92.2491 346 81 334.807 81 321Z" fill="#6ED47C"/>
</g>
</svg>
