<svg width="535" height="235" viewBox="0 0 535 235" fill="none" xmlns="http://www.w3.org/2000/svg">
<path d="M224.375 248.221C188.96 248.221 160.25 219.493 160.25 184.055H224.375V248.221Z" fill="#8950FC"/>
<path d="M352.625 184.055C352.625 219.493 323.915 248.221 288.5 248.221V184.055H352.625Z" fill="#663259"/>
<path d="M288.5 248.221C253.084 248.221 224.375 219.493 224.375 184.055H288.5V248.221Z" fill="#6ED47C"/>
<path d="M288.5 216.802C270.426 216.802 255.774 202.141 255.774 184.055H288.5V216.802Z" fill="#D5E155"/>
<path d="M225 184H260.5C280.106 184 296 168.33 296 149H260.5C240.894 149 225 164.67 225 184Z" fill="#FFC700"/>
<path d="M416.904 89H385.113C367.378 89 353 103.364 353 121.083H384.79C402.527 121.083 416.904 106.719 416.904 89Z" fill="#8950FC"/>
<path d="M160 184H108C79.2814 184 56 207.281 56 236H108C136.719 236 160 212.719 160 184Z" fill="#663259"/>
<path d="M119.904 204H88.1135C70.3778 204 56 218.364 56 236.083H87.7904C105.527 236.083 119.904 221.719 119.904 204Z" fill="#6ED47C"/>
<path d="M288.5 119.888H352.625C388.04 119.888 416.75 148.617 416.75 184.055H352.625C317.21 184.055 288.5 155.326 288.5 119.888Z" fill="#F64E60"/>
<path d="M352.625 151.971H384.525C402.322 151.971 416.75 166.336 416.75 184.055H384.85C367.052 184.055 352.625 169.69 352.625 151.971Z" fill="#6ED47C"/>
<path d="M416.75 248.222V184.055C416.75 148.617 445.46 119.888 480.875 119.888V184.055C480.875 219.493 452.165 248.222 416.75 248.222Z" fill="#6ED47C"/>
<path d="M448.812 183.834V152.022C448.812 134.275 463.168 119.888 480.875 119.888V151.7C480.875 169.447 466.52 183.834 448.812 183.834Z" fill="#8950FC"/>
<path d="M398 130.25C398 119.618 406.613 111 417.238 111C427.862 111 436.475 119.618 436.475 130.25C436.475 140.882 427.862 149.5 417.238 149.5C406.613 149.5 398 140.882 398 130.25Z" fill="#FF743C"/>
<path d="M407.729 129.361C407.729 124.045 412.036 119.736 417.348 119.736C422.66 119.736 426.967 124.045 426.967 129.361C426.967 134.676 422.66 138.986 417.348 138.986C412.036 138.986 407.729 134.676 407.729 129.361Z" fill="#FFC700"/>
<path d="M167.237 227.625C167.237 232.941 162.931 237.25 157.619 237.25C152.306 237.25 148 232.941 148 227.625C148 222.309 152.306 218 157.619 218C162.931 218 167.237 222.309 167.237 227.625Z" fill="#6ED47C"/>
<path d="M481.125 88.0833C481.125 70.3643 466.77 56 449.062 56C431.355 56 417 70.3643 417 88.0833C417 105.802 431.355 120.167 449.062 120.167H481.125V88.0833Z" fill="#6ED47C"/>
<path d="M481.168 103.595C481.168 94.4297 473.743 87 464.584 87C455.425 87 448 94.4297 448 103.595C448 112.76 455.425 120.19 464.584 120.19H481.168V103.595Z" fill="#F64E60"/>
<path d="M352.625 216.138C352.625 198.419 366.98 184.055 384.688 184.055C402.395 184.055 416.75 198.419 416.75 216.138C416.75 233.857 402.395 248.221 384.688 248.221C366.98 248.221 352.625 233.857 352.625 216.138Z" fill="#FFC700"/>
<path d="M366.998 215.806C366.998 205.969 374.967 197.995 384.798 197.995C394.629 197.995 402.598 205.969 402.598 215.806C402.598 225.643 394.629 233.618 384.798 233.618C374.967 233.618 366.998 225.643 366.998 215.806Z" fill="#8950FC"/>
<path d="M544.779 119.667C509.364 119.667 480.654 90.938 480.654 55.5L544.779 55.5V119.667Z" fill="#663259"/>
<path d="M480.654 55.4999C480.654 20.0613 509.364 -8.66675 544.779 -8.66675V55.4999H480.654Z" fill="#F64E60"/>
<path d="M512.053 55.4998C512.053 37.4138 526.705 22.7527 544.779 22.7527V55.4998H512.053Z" fill="#D5E155"/>
<path d="M480.875 216.238C480.875 233.956 495.23 248.321 512.938 248.321C530.645 248.321 545 233.956 545 216.238C545 198.519 530.645 184.154 512.938 184.154H480.875V216.238Z" fill="#FFC700"/>
<path d="M480.875 200.749C480.875 209.914 488.3 217.344 497.459 217.344C506.618 217.344 514.043 209.914 514.043 200.749C514.043 191.584 506.618 184.154 497.459 184.154H480.875V200.749Z" fill="#FF743C"/>
<path d="M512.716 119.667C530.424 119.667 544.779 134.031 544.779 151.75C544.779 169.469 530.424 183.833 512.716 183.833C495.009 183.833 480.654 169.469 480.654 151.75C480.654 134.031 495.009 119.667 512.716 119.667Z" fill="#FF743C"/>
<path d="M513.048 134.049C522.878 134.049 530.848 142.024 530.848 151.861C530.848 161.697 522.878 169.672 513.048 169.672C503.217 169.672 495.248 161.697 495.248 151.861C495.248 142.024 503.217 134.049 513.048 134.049Z" fill="#2D3652"/>
<path d="M57.9039 220H26.1135C8.37786 220 -6 234.364 -6 252.083H25.7904C43.5267 252.083 57.9039 237.719 57.9039 220Z" fill="#F64E60"/>
</svg>
