<svg id="sb-whitw" xmlns="http://www.w3.org/2000/svg" viewBox="0 0 84.55 96.98"><defs><style>.cls-1{fill:#fff;}</style></defs><path class="cls-1" d="M92.19,25.77,49.91,2,8.2,26.76l.57,48.49L51.05,99,92.76,74.26ZM47.69,59.1a9.51,9.51,0,0,1-.75,3.75,9.41,9.41,0,0,1-2.09,3.06A10,10,0,0,1,41.76,68a9.59,9.59,0,0,1-3.78.76H14.19V63.1H38a3.82,3.82,0,0,0,2.86-1.19A3.9,3.9,0,0,0,42,59.1V57.38a3.8,3.8,0,0,0-1.14-2.78A3.87,3.87,0,0,0,38,53.44H21a9.48,9.48,0,0,1-6.84-2.84,10.22,10.22,0,0,1-2.06-3.07,9.23,9.23,0,0,1-.75-3.72V42.1a9.44,9.44,0,0,1,.75-3.75,9.57,9.57,0,0,1,5.13-5.13A9.5,9.5,0,0,1,21,32.47H44.85V38.1H21a4,4,0,0,0-4,4v1.71a3.75,3.75,0,0,0,1.18,2.79A3.85,3.85,0,0,0,21,47.75H38a9.59,9.59,0,0,1,3.78.76,10,10,0,0,1,3.09,2.06,9.41,9.41,0,0,1,2.09,3.06,9.51,9.51,0,0,1,.75,3.75ZM87.55,43.33a9.65,9.65,0,0,1-2.84,6.92,9.5,9.5,0,0,1,2.1,3.16,9.7,9.7,0,0,1,.74,3.79v1.72a9.48,9.48,0,0,1-.77,3.84,10.3,10.3,0,0,1-2.1,3.14A9.85,9.85,0,0,1,81.56,68a9.44,9.44,0,0,1-3.85.79h-19v0H57V31.75h20.7a9.77,9.77,0,0,1,3.85.77,10.08,10.08,0,0,1,3.12,2.1,9.79,9.79,0,0,1,2.1,3.13,9.56,9.56,0,0,1,.77,3.85Z" transform="translate(-8.2 -2.02)"/><path class="cls-1" d="M77.71,37.5H62.16V63H77.71a4,4,0,0,0,2.9-1.18,3.91,3.91,0,0,0,1.2-2.9V57.2a3.84,3.84,0,0,0-1.2-2.86,4.07,4.07,0,0,0-2.9-1.16H69.07V47.35h8.64a4,4,0,0,0,2.9-1.18,3.82,3.82,0,0,0,1.2-2.84V41.61a4.11,4.11,0,0,0-4.1-4.11Z" transform="translate(-8.2 -2.02)"/></svg>