<svg id="Layer_1" data-name="Layer 1" xmlns="http://www.w3.org/2000/svg" viewBox="0 0 84.59 97"><defs><style>.cls-1{fill:#ff5d3d;}.cls-2{fill:#e04022;}.cls-3{fill:#fff;}</style></defs><polygon class="cls-1" points="84.56 72.26 42.85 97 0.57 73.25 0 24.76 41.71 0.02 83.98 23.77 84.56 72.26"/><polygon class="cls-2" points="84.59 72.24 42.85 97 41.74 0 84.04 23.74 84.59 72.24"/><path class="cls-3" d="M44.85,32.47V38.1H21a4,4,0,0,0-4,4v1.71a3.75,3.75,0,0,0,1.18,2.79A3.85,3.85,0,0,0,21,47.75H38a9.59,9.59,0,0,1,3.78.76,10,10,0,0,1,3.09,2.06,9.41,9.41,0,0,1,2.09,3.06,9.51,9.51,0,0,1,.75,3.75V59.1a9.51,9.51,0,0,1-.75,3.75,9.41,9.41,0,0,1-2.09,3.06A10,10,0,0,1,41.76,68a9.59,9.59,0,0,1-3.78.76H14.19V63.1H38a3.82,3.82,0,0,0,2.86-1.19A3.9,3.9,0,0,0,42,59.1V57.38a3.82,3.82,0,0,0-1.14-2.78A3.87,3.87,0,0,0,38,53.44H21a9.48,9.48,0,0,1-6.84-2.84,10.22,10.22,0,0,1-2.06-3.07,9.23,9.23,0,0,1-.75-3.72V42.1a9.44,9.44,0,0,1,.75-3.75,9.57,9.57,0,0,1,5.13-5.13A9.5,9.5,0,0,1,21,32.47Z" transform="translate(-8.2 -2)"/><path class="cls-3" d="M87.55,43.33V41.61a9.56,9.56,0,0,0-.77-3.85,9.79,9.79,0,0,0-2.1-3.13,10.08,10.08,0,0,0-3.12-2.1,9.77,9.77,0,0,0-3.85-.77H57V68.81h1.66v0h19A9.44,9.44,0,0,0,81.56,68a9.85,9.85,0,0,0,3.12-2.14,10.3,10.3,0,0,0,2.1-3.14,9.48,9.48,0,0,0,.77-3.84V57.2a9.7,9.7,0,0,0-.74-3.79,9.5,9.5,0,0,0-2.1-3.16,9.65,9.65,0,0,0,2.84-6.92Zm-5.74,0a3.82,3.82,0,0,1-1.2,2.84,4,4,0,0,1-2.9,1.18H69.07v5.83h8.64a4.07,4.07,0,0,1,2.9,1.16,3.84,3.84,0,0,1,1.2,2.86v1.72a3.91,3.91,0,0,1-1.2,2.9A4,4,0,0,1,77.71,63H62.16V37.5H77.71a4.11,4.11,0,0,1,4.1,4.11Z" transform="translate(-8.2 -2)"/></svg>