<svg id="Layer_1" data-name="Layer 1" xmlns="http://www.w3.org/2000/svg" viewBox="0 0 3793.67 753.15"><defs><style>.cls-1{fill:#ff5d3d;}.cls-2{fill:#e04022;}.cls-3{fill:#fff;}.cls-4{fill:#0e4399;stroke:#0e4399;stroke-miterlimit:10;stroke-width:10px;}</style></defs><polygon class="cls-1" points="656.52 561.09 332.69 753.15 4.42 568.73 0 192.25 323.84 0.18 652.1 184.59 656.52 561.09"/><polygon class="cls-2" points="656.79 560.91 332.69 753.15 324.13 0 652.51 184.34 656.79 560.91"/><path class="cls-3" d="M562.46,330.72v43.7H377.3a30.13,30.13,0,0,0-22,9,29.8,29.8,0,0,0-9.08,22.09v13.34a29.27,29.27,0,0,0,9.08,21.62,30.13,30.13,0,0,0,22,9H509.09a73.65,73.65,0,0,1,29.33,5.86,78,78,0,0,1,24,16,73.8,73.8,0,0,1,22.08,52.9V537.5a73.8,73.8,0,0,1-22.08,52.9,78,78,0,0,1-24,16,73.65,73.65,0,0,1-29.33,5.86H324.4v-43.7H509.09q13.35,0,22.2-9.2a30.44,30.44,0,0,0,8.86-21.85V524.16a29.68,29.68,0,0,0-8.86-21.62q-8.85-9-22.2-9H377.3a73.8,73.8,0,0,1-53.13-22.08,78.74,78.74,0,0,1-16-23.81,71.43,71.43,0,0,1-5.87-28.86V405.48a73.07,73.07,0,0,1,5.87-29.1A74.35,74.35,0,0,1,348,336.59a73.65,73.65,0,0,1,29.33-5.87Z" transform="translate(-277.92 -94.16)"/><path class="cls-3" d="M894,415.08V401.71a75.22,75.22,0,0,0-6-29.91,75.87,75.87,0,0,0-40.58-40.58,75.12,75.12,0,0,0-29.91-6H696.84v-.11h-40V612.89h12.94V613H817.55A74,74,0,0,0,847.46,607a76.37,76.37,0,0,0,24.27-16.66A79.83,79.83,0,0,0,888,565.9a74.39,74.39,0,0,0,6-29.79V522.74a76.62,76.62,0,0,0-5.75-29.44A74.33,74.33,0,0,0,872,468.79a74.85,74.85,0,0,0,22-53.71Zm-44.57,0a29.66,29.66,0,0,1-9.38,22,31.11,31.11,0,0,1-22.52,9.15H750.47v45.27h67.08a31.33,31.33,0,0,1,22.52,9,29.59,29.59,0,0,1,9.38,22.17v13.37a30.24,30.24,0,0,1-9.38,22.52,31.1,31.1,0,0,1-22.52,9.14H696.84v-198H817.55a32,32,0,0,1,31.9,31.91Z" transform="translate(-277.92 -94.16)"/><path class="cls-4" d="M1037.61,535.6h16.45q2.91,47,31.35,74.31t74.19,27.35q44.78,0,73-23.23t28.2-60q0-33.16-18.51-50.95t-86-36.67l-6.78-1.94q-60.75-16.94-77.7-32.43A73.94,73.94,0,0,1,1053,405.87a82.24,82.24,0,0,1-6.42-32.68q0-42.12,29.17-67.65T1153.55,280q50.58,0,81.44,28.2t32.56,76.36l-15.73-.24q-.73-40.9-27.84-65.71t-71.4-24.81q-41.64,0-65.84,21.42t-24.2,58a62.39,62.39,0,0,0,5.44,25.9,66.88,66.88,0,0,0,16.34,22q14.76,14,70.44,29.05,4.59,1.21,6.77,1.69,70.68,19.13,93.31,39.94t22.63,57.85q0,46.47-32.19,74.55t-86.17,28.08q-52.52,0-85-31T1037.61,535.6Z" transform="translate(-277.92 -94.16)"/><path class="cls-4" d="M1325.16,466.38q0-87.13,42.11-136.76T1483,280q73.58,0,115.82,49.74T1641,466.38q0,86.65-42.12,136.27T1483,652.27q-73.58,0-115.7-49.5T1325.16,466.38Zm17.42,0q0,79.88,37.28,125.38T1483,637.26q65.6,0,103.11-45.5t37.52-125.38q0-80.11-37.52-125.87T1483,294.77q-65.6,0-103,45.62T1342.58,466.38Z" transform="translate(-277.92 -94.16)"/><path class="cls-4" d="M1978.2,526.41q-3.39,57.6-40.66,91.49t-97.06,33.89q-70,0-109.17-48.78T1692.1,466.86q0-88.1,40.06-137.48T1843.38,280q54.46,0,91.62,30.86t42.23,80.72h-16.94q-7.26-46-38.73-71.4t-81.08-25.41q-60,0-95.49,46.23t-35.46,125.86q0,79.64,34.49,125t94,45.38q54.45,0,87.86-29.89t36.06-81Z" transform="translate(-277.92 -94.16)"/><path class="cls-4" d="M2047.67,644.28V287.75h16.94V644.28Z" transform="translate(-277.92 -94.16)"/><path class="cls-4" d="M2132.87,466.38q0-87.13,42.12-136.76T2290.68,280q73.59,0,115.82,49.74t42.24,136.64q0,86.65-42.12,136.27t-115.94,49.62q-73.57,0-115.69-49.5T2132.87,466.38Zm17.43,0q0,79.88,37.27,125.38t103.11,45.5q65.59,0,103.12-45.5t37.51-125.38q0-80.11-37.51-125.87t-103.12-45.74q-65.59,0-103,45.62T2150.3,466.38Z" transform="translate(-277.92 -94.16)"/><path class="cls-4" d="M2515.3,644.28V287.75h97.55q36.8,0,57.49,3.63t34.73,11.86a73.78,73.78,0,0,1,28.32,29.89q9.92,19,9.92,43,0,28.82-15.73,49.74t-45.26,31.59q40.17,7.75,59.78,30.38t19.61,61.36q0,24.93-10.77,45.5a80.46,80.46,0,0,1-29.9,32.19q-14.76,9.45-36.3,13.44t-61,4Zm16.95-191.94H2615q57.36,0,84.35-18.73t27-58.36q0-38.91-25-55.58T2613.82,303h-81.57Zm0,176.69h88.1q35.58,0,52-2a112.23,112.23,0,0,0,28.32-6.88,65.69,65.69,0,0,0,32.2-28.11q11.37-19.43,11.37-46.22,0-42-29.29-61.18t-94.15-19.18h-88.59Z" transform="translate(-277.92 -94.16)"/><path class="cls-4" d="M2815.93,466.38q0-87.13,42.11-136.76T2973.74,280q73.58,0,115.82,49.74t42.24,136.64q0,86.65-42.12,136.27t-115.94,49.62q-73.57,0-115.7-49.5T2815.93,466.38Zm17.42,0q0,79.88,37.28,125.38t103.11,45.5q65.6,0,103.11-45.5t37.52-125.38q0-80.11-37.52-125.87t-103.11-45.74q-65.59,0-103,45.62T2833.35,466.38Z" transform="translate(-277.92 -94.16)"/><path class="cls-4" d="M3154.79,644.28l137.73-356.53h18.88l135.3,356.53h-16.46l-46-121h-166l-46.72,121ZM3224,508H3378.2L3302,307.11Z" transform="translate(-277.92 -94.16)"/><path class="cls-4" d="M3483,644.28V287.75h118.36q65.36,0,93.67,21.89t28.32,71.48q0,34.11-15.85,55.88T3659,468.68q22.51,4.36,35,19.63t15.13,41.9q1.7,16.95,2.91,46,2.41,53.78,13.31,68.06h-18.15q-8.47-10.39-10.9-60.51-.48-8.22-.48-12.35c-.16-1.93-.33-4.75-.48-8.47q-2.91-50.58-16.46-66.8-9.21-10.89-24.93-15.61t-44.06-4.72H3500V644.28ZM3500,460.57h109.89q47.68,0,72.25-19.85t24.57-58.33a92.78,92.78,0,0,0-5.2-31.95,70.18,70.18,0,0,0-15.13-24.69,68.25,68.25,0,0,0-28.56-17.55q-16.47-5.2-56.4-5.2H3500Z" transform="translate(-277.92 -94.16)"/><path class="cls-4" d="M3791.38,644.28V287.75h81.81q45,0,70.56,4.11t43.93,13.31q38.71,19.13,58.82,60.15t20.08,101.06q0,60.27-20.21,101.41t-58.69,59.06q-19.12,9.21-45.87,13.32t-68.62,4.11ZM3808.32,629h68.74q40.18,0,64.14-4.23t42.12-13.66q31.95-16.93,48.89-54.18t16.95-91q0-45.22-11.86-78.36T4002,333.71Q3983.32,317,3956.21,310t-79.15-7h-68.74Z" transform="translate(-277.92 -94.16)"/></svg>