<svg id="Layer_1" data-name="Layer 1" xmlns="http://www.w3.org/2000/svg" viewBox="0 0 3117.87 753.15"><defs><style>.cls-1{fill:#ff5d3d;}.cls-2{fill:#e04022;}.cls-3{fill:#fff;}.cls-4{fill:#0e4399;stroke:#0e4399;stroke-miterlimit:10;stroke-width:10px;}</style></defs><polygon class="cls-1" points="656.52 561.09 332.69 753.15 4.42 568.73 0 192.25 323.84 0.18 652.1 184.59 656.52 561.09"/><polygon class="cls-2" points="656.79 560.91 332.69 753.15 324.13 0 652.51 184.34 656.79 560.91"/><path class="cls-3" d="M562.46,330.72v43.7H377.3a30.13,30.13,0,0,0-22,9,29.8,29.8,0,0,0-9.08,22.09v13.34a29.27,29.27,0,0,0,9.08,21.62,30.13,30.13,0,0,0,22,9H509.09a73.65,73.65,0,0,1,29.33,5.86,78,78,0,0,1,24,16,73.8,73.8,0,0,1,22.08,52.9V537.5a73.8,73.8,0,0,1-22.08,52.9,78,78,0,0,1-24,16,73.65,73.65,0,0,1-29.33,5.86H324.4v-43.7H509.09q13.35,0,22.2-9.2a30.44,30.44,0,0,0,8.86-21.85V524.16a29.68,29.68,0,0,0-8.86-21.62q-8.85-9-22.2-9H377.3a73.8,73.8,0,0,1-53.13-22.08,78.74,78.74,0,0,1-16-23.81,71.43,71.43,0,0,1-5.87-28.86V405.48a73.07,73.07,0,0,1,5.87-29.1A74.35,74.35,0,0,1,348,336.59a73.65,73.65,0,0,1,29.33-5.87Z" transform="translate(-277.92 -94.16)"/><path class="cls-3" d="M894,415.08V401.71a75.22,75.22,0,0,0-6-29.91,75.87,75.87,0,0,0-40.58-40.58,75.12,75.12,0,0,0-29.91-6H696.84v-.11h-40V612.89h12.94V613H817.55A74,74,0,0,0,847.46,607a76.37,76.37,0,0,0,24.27-16.66A79.83,79.83,0,0,0,888,565.9a74.39,74.39,0,0,0,6-29.79V522.74a76.62,76.62,0,0,0-5.75-29.44A74.33,74.33,0,0,0,872,468.79a74.85,74.85,0,0,0,22-53.71Zm-44.57,0a29.66,29.66,0,0,1-9.38,22,31.11,31.11,0,0,1-22.52,9.15H750.47v45.27h67.08a31.33,31.33,0,0,1,22.52,9,29.59,29.59,0,0,1,9.38,22.17v13.37a30.24,30.24,0,0,1-9.38,22.52,31.1,31.1,0,0,1-22.52,9.14H696.84v-198H817.55a32,32,0,0,1,31.9,31.91Z" transform="translate(-277.92 -94.16)"/><path class="cls-4" d="M1037.61,535.6h16.45q2.91,47,31.35,74.31t74.19,27.35q44.78,0,73-23.23t28.2-60q0-33.16-18.51-50.95t-86-36.67l-6.78-1.94q-60.75-16.94-77.7-32.43A73.94,73.94,0,0,1,1053,405.87a82.24,82.24,0,0,1-6.42-32.68q0-42.12,29.17-67.65T1153.55,280q50.58,0,81.44,28.2t32.56,76.36l-15.73-.24q-.73-40.9-27.84-65.71t-71.4-24.81q-41.64,0-65.84,21.42t-24.2,58a62.39,62.39,0,0,0,5.44,25.9,66.88,66.88,0,0,0,16.34,22q14.76,14,70.44,29.05,4.59,1.21,6.77,1.69,70.68,19.13,93.31,39.94t22.63,57.85q0,46.47-32.19,74.55t-86.17,28.08q-52.52,0-85-31T1037.61,535.6Z" transform="translate(-277.92 -94.16)"/><path class="cls-4" d="M1321.28,516.48q0-62.69,30.26-98.75t82.78-36.07q52.52,0,83,36.07t30.5,98.75q0,62.44-30.5,98.64t-83,36.18q-52.53,0-82.78-36.06T1321.28,516.48Zm16,0q0,56.16,26,88.47t71,32.31q45,0,71.4-32.31t26.39-88.47q0-56.4-26.39-88.71t-71.4-32.31q-45,0-71,32.31T1337.26,516.48Z" transform="translate(-277.92 -94.16)"/><path class="cls-4" d="M1804.65,561.5q-4.59,41.38-31.83,65.6T1703,651.3q-51.08,0-81.32-36.43t-30.26-98.39q0-62.69,30.26-98.75t82.78-36.07q40.65,0,66.56,21.3t31.22,59.3h-16q-5.33-30.74-27.35-48.77t-54.46-18q-45,0-71,32.31t-26,88.71q0,56.16,26,88.47t71,32.31q33.88,0,57.36-20.81t27.84-55Z" transform="translate(-277.92 -94.16)"/><path class="cls-4" d="M1862.5,330.1V288.47H1878V330.1Zm0,314.18V387H1878V644.28Z" transform="translate(-277.92 -94.16)"/><path class="cls-4" d="M1935.36,516.48q0-62.69,30.25-98.75t82.78-36.07q52.53,0,83,36.07t30.5,98.75q0,62.44-30.5,98.64t-83,36.18q-52.51,0-82.78-36.06T1935.36,516.48Zm16,0q0,56.16,26,88.47t71,32.31q45,0,71.41-32.31t26.38-88.47q0-56.4-26.38-88.71t-71.41-32.31q-45,0-71,32.31T1951.33,516.48Z" transform="translate(-277.92 -94.16)"/><path class="cls-4" d="M2224.36,644.28V287.75h97.55q36.78,0,57.48,3.63t34.74,11.86a73.78,73.78,0,0,1,28.32,29.89q9.91,19,9.92,43,0,28.82-15.73,49.74t-45.26,31.59q40.17,7.75,59.78,30.38t19.61,61.36a96.69,96.69,0,0,1-10.77,45.5,80.53,80.53,0,0,1-29.9,32.19q-14.76,9.45-36.3,13.44t-61,4Zm16.95-191.94h82.78q57.36,0,84.35-18.73t27-58.36q0-38.91-25-55.58T2322.88,303h-81.57Zm0,176.69h88.1q35.58,0,52-2a112.34,112.34,0,0,0,28.32-6.88A65.62,65.62,0,0,0,2442,592q11.39-19.43,11.38-46.22,0-42-29.29-61.18t-94.15-19.18h-88.59Z" transform="translate(-277.92 -94.16)"/><path class="cls-4" d="M2511.92,516.48q0-62.69,30.25-98.75T2625,381.66q52.52,0,83,36.07t30.5,98.75q0,62.44-30.5,98.64t-83,36.18q-52.53,0-82.78-36.06T2511.92,516.48Zm16,0q0,56.16,26,88.47t71,32.31q45,0,71.41-32.31t26.38-88.47q0-56.4-26.38-88.71T2625,395.46q-45,0-71,32.31T2527.89,516.48Z" transform="translate(-277.92 -94.16)"/><path class="cls-4" d="M3005.21,645.73c-1.78.16-4.2.45-7.26.85a59,59,0,0,1-6.78.61q-17.67,0-25.66-10.9t-8-35.58q-15.48,24-42.23,37t-61.36,13.07q-34.38,0-55.55-20t-21.18-52.41q0-34.12,23.24-52t79.39-25.9q9.91-1.45,26.86-3.39,50.83-5.82,50.83-26.39V449q0-26.15-17.91-40.06T2888.06,395q-38.49,0-60.64,16.7t-24.08,47.2h-14.76q1.44-36.06,27.71-56.88t70.31-20.81q26.88,0,46.11,7.5t29.41,22a56.48,56.48,0,0,1,8.35,19.24q2.55,10.77,2.55,34V589.34q0,27.35,4.84,35.94t17.91,8.59a71.38,71.38,0,0,0,8-.72,6.54,6.54,0,0,1,1.45-.24Zm-47.69-148.61q-6,8.22-54.21,13.79-7.76,1-12.11,1.46-54.94,7-76.36,21.42t-21.42,42q0,28.58,16.94,44.05t48.17,15.5a121.66,121.66,0,0,0,40.06-6.66,103.37,103.37,0,0,0,33.28-18.52q14.28-12.58,20-28.2t5.68-46.83Z" transform="translate(-277.92 -94.16)"/><path class="cls-4" d="M3045.63,644.28V387h16v46.23q9.69-25.67,29.05-38.61t47.68-12.95v15.25q-41.62,1.69-59.18,29t-17.55,93.43V644.28Z" transform="translate(-277.92 -94.16)"/><path class="cls-4" d="M3390.79,288.47V644.28h-15.25V587.16q-12.35,31.47-37.15,47.8t-60.15,16.34q-52.77,0-83.15-36.06t-30.37-98.76q0-62.69,30.49-98.75t83-36.07q34.85,0,60.39,16.22t36.91,45.74V288.47Zm-15.25,228q0-56.4-26.14-88.71t-71.16-32.31q-45,0-71.29,32.31t-26.26,88.71q0,56.16,26.26,88.47t71.29,32.31q45,0,71.16-32.31T3375.54,516.48Z" transform="translate(-277.92 -94.16)"/></svg>