<?xml version="1.0" encoding="utf-8"?>
<!-- Generator: Adobe Illustrator 26.0.1, SVG Export Plug-In . SVG Version: 6.00 Build 0)  -->
<svg version="1.1" id="Layer_1" xmlns="http://www.w3.org/2000/svg" xmlns:xlink="http://www.w3.org/1999/xlink" x="0px" y="0px"
	 viewBox="0 0 305 590" style="enable-background:new 0 0 305 590;" xml:space="preserve">
<style type="text/css">
	.st0{fill:#A0A0A0;}
</style>
<path d="M41.1,0h222.8c22.8,0,41.2,18.5,41.2,41.2v507.6c0,22.8-18.5,41.2-41.2,41.2H41.1c-22.8,0-41.2-18.5-41.2-41.2V41.2
	C-0.1,18.4,18.3,0,41.1,0z"/>
<path d="M263.9,0H41.1C18.4,0.1-0.1,18.5-0.1,41.2v507.6c0.2,17.4,11.1,32.9,27.4,38.9c4.4,1.6,9.1,2.4,13.8,2.4h222.3
	c17,0,32.3-10.2,38.8-25.9c2-4.9,3-10.1,3-15.4V41.2C305.1,18.5,286.6,0.1,263.9,0z M295.8,529.9H9.2V41.2
	c0-17.6,14.3-31.9,31.9-31.9h9.1V9.1h190.3v0.2h23.5c17.6,0,31.9,14.3,31.9,31.9V529.9z"/>
<rect x="229.6" y="33.6" class="st0" width="3" height="4.7"/>
<rect x="233.8" y="31.5" class="st0" width="3" height="6.8"/>
<rect x="238.1" y="29.6" class="st0" width="3" height="8.7"/>
<rect x="242.3" y="27.6" class="st0" width="3" height="10.7"/>
<path class="st0" d="M271.9,38.6H255c-1.1,0-2-0.9-2-2v-6.5c0-1.1,0.9-2,2-2h16.9c1.1,0,2,0.9,2,2v6.4
	C273.9,37.7,273,38.6,271.9,38.6C271.9,38.6,271.9,38.6,271.9,38.6z M255,28.6c-0.8,0-1.5,0.7-1.5,1.5v6.4c0,0.9,0.7,1.5,1.5,1.6
	c0,0,0,0,0,0h16.9c0.9,0,1.5-0.7,1.5-1.5c0,0,0,0,0,0v-6.4c0-0.8-0.7-1.5-1.5-1.5L255,28.6z"/>
<rect x="273.6" y="31.3" class="st0" width="1.7" height="4"/>
<path class="st0" d="M265.1,37.2h-9.6c-0.5,0-0.9-0.4-0.9-0.8v0v-6c0-0.5,0.4-0.9,0.9-0.9l0,0h9.6V37.2z"/>
</svg>
