<svg id="Layer_1" data-name="Layer 1" xmlns="http://www.w3.org/2000/svg" viewBox="0 0 305 590"><defs><style>.cls-1{fill:#fff;}.cls-2{fill:#a0a0a0;}</style></defs><rect class="cls-1" x="-0.14" y="-0.03" width="305.28" height="590.06" rx="41.24"/><path class="cls-1" d="M263.9,0H41.1A41.36,41.36,0,0,0-.14,41.21V548.79A41.74,41.74,0,0,0,27.3,587.64,41,41,0,0,0,41.1,590H263.41a41.87,41.87,0,0,0,38.75-25.88,41.25,41.25,0,0,0,3-15.36V41.21A41.36,41.36,0,0,0,263.9,0Zm31.93,529.91H9.17V41.21A31.94,31.94,0,0,1,41.1,9.28h9.06V9.1H240.43v.18H263.9a31.94,31.94,0,0,1,31.93,31.93Z"/><path class="cls-2" d="M43.1,38.18V30.85a5.72,5.72,0,0,1-1.83.95v-.58A7,7,0,0,0,43.21,30h.52v8.17Z"/><path class="cls-2" d="M51,34.06c0,1.86-.49,4.26-2.65,4.26s-2.64-2.2-2.64-4.2.57-4.2,2.67-4.2S51,32.14,51,34.06Zm-4.6.08c0,1.57.33,3.59,2,3.59s2-1.93,2-3.67c0-1.55-.32-3.55-1.92-3.55S46.44,32.34,46.44,34.14Z"/><path class="cls-2" d="M52.77,33.61V32h.59v1.59Zm0,4.57V36.57h.59v1.61Z"/><path class="cls-2" d="M58.68,38.18V35.91H54.77v-.6l3.9-5.24h.64v5.25H60.4l-.08.59h-1v2.27Zm0-5.31c0-.46,0-1.47,0-2-.33.59-2.26,3.16-3.2,4.46h3.18Z"/><path class="cls-2" d="M65.31,38.18V35.91h-3.9v-.6l3.89-5.24h.64v5.25H67l-.09.59h-1v2.27Zm0-5.31c0-.46,0-1.47,0-2-.34.59-2.27,3.16-3.21,4.46h3.18Z"/><rect class="cls-2" x="229.57" y="33.62" width="3.03" height="4.71"/><rect class="cls-2" x="233.82" y="31.52" width="3.03" height="6.81"/><rect class="cls-2" x="238.06" y="29.6" width="3.03" height="8.72"/><rect class="cls-2" x="242.3" y="27.6" width="3.03" height="10.72"/><path class="cls-2" d="M271.88,38.56H255a2,2,0,0,1-2-2V30.11a2,2,0,0,1,2-2h16.9a2,2,0,0,1,2,2v6.44A2,2,0,0,1,271.88,38.56Zm-16.9-10a1.54,1.54,0,0,0-1.54,1.53v6.44A1.54,1.54,0,0,0,255,38.09h16.9a1.54,1.54,0,0,0,1.54-1.54V30.11a1.54,1.54,0,0,0-1.54-1.53Z"/><rect class="cls-2" x="273.65" y="31.32" width="1.68" height="4.03"/><path class="cls-2" d="M265.12,37.2h-9.56a.85.85,0,0,1-.85-.85v-6a.85.85,0,0,1,.85-.85h9.56Z"/></svg>