<svg width="245" height="245" viewBox="0 0 245 245" fill="none" xmlns="http://www.w3.org/2000/svg">
<g clip-path="url(#clip0)">
<path fill-rule="evenodd" clip-rule="evenodd" d="M244.146 246.445C238.168 234.387 230.482 230.273 221.086 234.106C211.691 237.938 206.026 235.188 204.091 225.855C203.269 222.514 202.326 220.316 201.263 219.26C193.976 212.023 183.519 213.447 173.395 222.133C166.152 228.148 162.023 236.252 161.007 246.445H244.146Z" fill="#71C900"/>
<path d="M188.648 222.536C186.218 223.825 182.154 220.939 179.57 216.089C176.986 211.238 176.861 206.261 179.291 204.972C181.721 203.682 185.785 206.569 188.369 211.419C190.953 216.269 191.078 221.246 188.648 222.536Z" fill="#57A100"/>
<path d="M183.603 212.44C188.724 220.696 191.752 229.819 192.687 239.807L192.403 239.834C191.473 229.889 188.459 220.808 183.361 212.589L183.603 212.44Z" fill="#3F3643"/>
<path d="M195.071 210.525C192.346 210.908 189.516 206.808 188.75 201.368C187.984 195.928 189.572 191.209 192.297 190.826C195.022 190.444 197.852 194.544 198.618 199.984C199.384 205.423 197.796 210.143 195.071 210.525Z" fill="#57A100"/>
<path d="M194.071 200.178C194.82 207.693 195.183 213.886 195.16 218.757C195.137 223.628 194.71 230.93 193.88 240.665L193.596 240.641C194.426 230.913 194.852 223.617 194.875 218.756C194.898 213.896 194.536 207.712 193.788 200.206L194.071 200.178Z" fill="#3F3643"/>
<path d="M205.622 202.658C203.396 201.044 204.214 196.132 207.449 191.688C210.684 187.244 215.111 184.95 217.337 186.565C219.563 188.179 218.746 193.09 215.511 197.535C212.276 201.979 207.848 204.273 205.622 202.658Z" fill="#57A100"/>
<path d="M212.821 193.411C203.48 203.629 197.345 219.382 194.423 240.673L194.141 240.634C197.07 219.291 203.225 203.485 212.611 193.22L212.821 193.411Z" fill="#3F3643"/>
<path d="M203.534 225.044C201.622 223.069 203.282 218.374 207.241 214.558C211.2 210.742 215.959 209.25 217.871 211.226C219.782 213.202 218.123 217.897 214.164 221.713C210.205 225.528 205.446 227.02 203.534 225.044Z" fill="#57A100"/>
<path d="M211.572 217.092C203.616 223.949 198.457 231.842 196.094 240.771L195.818 240.698C198.197 231.712 203.388 223.771 211.386 216.877L211.572 217.092Z" fill="#3F3643"/>
<path fill-rule="evenodd" clip-rule="evenodd" d="M213.396 246.398C208.298 236.294 202.764 233.007 196.793 236.537C190.822 240.068 186.963 239.324 185.215 234.306C184.202 231.995 183.199 230.509 182.206 229.846C177.448 226.671 171.361 227.632 166.971 231.984C161.207 237.699 157.226 242.519 155.027 246.445L213.396 246.398Z" fill="#57A100"/>
<path d="M21.2293 205.045C23.4555 203.43 22.6378 198.519 19.4029 194.075C16.1679 189.631 11.7407 187.337 9.51442 188.951C7.28815 190.566 8.10585 195.477 11.3408 199.921C14.5758 204.365 19.003 206.659 21.2293 205.045Z" fill="#54A300"/>
<path d="M13.9943 195.798C23.3355 206.015 29.4701 221.768 32.3927 243.059L32.6748 243.021C29.745 221.677 23.5901 205.872 14.2046 195.607L13.9943 195.798Z" fill="#3F3643"/>
<path d="M23.3166 227.431C25.2282 225.455 23.5684 220.76 19.6094 216.944C15.6504 213.128 10.8914 211.637 8.97978 213.612C7.0682 215.588 8.72796 220.283 12.687 224.099C16.646 227.915 21.405 229.407 23.3166 227.431Z" fill="#54A300"/>
<path d="M15.2344 219.479C23.191 226.336 28.3494 234.228 30.713 243.157L30.9883 243.085C28.6095 234.098 23.4191 226.157 15.4205 219.264L15.2344 219.479Z" fill="#3F3643"/>
<path fill-rule="evenodd" clip-rule="evenodd" d="M0.139479 246.445H83.2783C82.816 241.82 76.7622 228.43 67.3339 223.711C56.0352 218.056 45.9289 228.687 43.906 231.509C37.3646 240.636 32.5939 237.958 23.1986 234.135C13.8032 230.312 6.11686 234.415 0.139479 246.445Z" fill="#6ECB00"/>
<path d="M52.0473 215.545C49.6175 216.834 45.5533 213.948 42.9694 209.097C40.3856 204.247 40.2607 199.27 42.6904 197.981C45.1202 196.691 49.1844 199.578 51.7683 204.428C54.3521 209.278 54.477 214.255 52.0473 215.545Z" fill="#54A300"/>
<path d="M47.0022 205.449C52.1238 213.705 55.1519 222.828 56.0859 232.816L55.8024 232.843C54.8724 222.898 51.8584 213.817 46.7601 205.598L47.0022 205.449Z" fill="#3F3643"/>
<path d="M66.9343 218.053C65.0227 216.077 66.6825 211.382 70.6415 207.566C74.6005 203.751 79.3596 202.259 81.2712 204.235C83.1828 206.21 81.523 210.905 77.564 214.721C73.605 218.537 68.8459 220.029 66.9343 218.053Z" fill="#54A300"/>
<path d="M74.9717 210.101C67.0151 216.958 61.8567 224.85 59.4931 233.779L59.2178 233.707C61.5966 224.72 66.787 216.779 74.7856 209.886L74.9717 210.101Z" fill="#3F3643"/>
<path fill-rule="evenodd" clip-rule="evenodd" d="M94.0977 246.398C89.6405 238.729 84.4265 236.659 78.4556 240.19C69.4994 245.486 69.6731 238.814 63.0819 231.477C60.0448 228.097 52.0628 227.631 47.6732 231.984C41.9093 237.698 37.9281 242.519 35.7296 246.445L94.0977 246.398Z" fill="#54A300"/>
<path fill-rule="evenodd" clip-rule="evenodd" d="M102.732 92.178L89.9179 95.11L88.5127 71.3377L78.9637 66.5596L80.7464 103.254C80.8253 104.878 82.1391 106.171 83.7676 106.227L103.066 106.885L102.732 92.178Z" fill="#F7F7F7"/>
<path d="M141.501 87.1745C141.96 86.7625 142.205 86.2522 142.237 85.6435C142.269 85.0348 142.078 84.5016 141.665 84.0441L136.588 78.4159C132.625 74.0232 128.326 71.4659 123.69 70.7438C119.054 70.0217 113.265 70.0459 106.323 70.8163C100.261 71.4584 95.3436 71.5281 91.5697 71.0255C87.7958 70.523 84.4642 68.6702 81.5746 65.4672C78.3549 61.8981 77.0128 57.9259 77.5483 53.5505C78.0838 49.1751 80.3687 45.1747 84.4031 41.5491C88.6208 37.7586 93.0452 35.8538 97.6764 35.8345C102.308 35.8151 106.233 37.59 109.453 41.159L112.053 44.0417C112.962 45.0484 113.966 45.0573 115.066 44.0685L127.224 32.1483C127.682 31.7363 127.907 31.203 127.897 30.5486C127.888 29.8941 127.677 29.3381 127.264 28.8805L125.407 26.8215C120.701 21.6051 115.228 18.1144 108.986 16.3492C102.745 14.584 96.3213 14.6404 89.7142 16.5183C83.1071 18.3962 76.8237 22.0131 70.8639 27.3691C61.97 35.3619 56.99 44.1043 55.9237 53.5965C54.8574 63.0887 57.833 71.7241 64.8503 79.5028C68.4829 83.5295 72.3306 86.3684 76.3936 88.0197C80.4567 89.6709 84.2535 90.5671 87.7843 90.7082C91.3151 90.8493 95.7169 90.6218 100.99 90.0256C106.263 89.4295 110.443 89.2775 113.529 89.5697C116.615 89.862 119.272 91.2435 121.501 93.7144L125.712 98.3816C126.124 98.8392 126.636 99.0839 127.246 99.1158C127.855 99.1477 128.39 98.9577 128.848 98.5457L141.501 87.1745ZM162.212 122.003C165.054 119.448 166.567 116.432 166.749 112.954C166.932 109.475 165.744 106.318 163.184 103.481C160.625 100.644 157.624 99.1571 154.18 99.0206C150.736 98.884 147.593 100.093 144.751 102.647C141.909 105.202 140.398 108.175 140.22 111.566C140.042 114.957 141.233 118.071 143.792 120.908C146.351 123.745 149.374 125.255 152.858 125.437C156.343 125.619 159.461 124.475 162.212 122.003Z" fill="#3699FF"/>
<path fill-rule="evenodd" clip-rule="evenodd" d="M112.143 91.929L109.253 79.406C109.473 77.8479 109.722 76.0815 110 74.1067C110.417 71.1445 107.653 63.7868 99.135 66.7408C94.1129 68.4824 91.9154 72.4154 93.0604 77.7024C93.2101 78.3936 95.3336 85.5117 102.582 82.1861L102.933 96.4085L112.143 91.929Z" fill="#F5B7B3"/>
<path fill-rule="evenodd" clip-rule="evenodd" d="M102.582 82.1861C104.434 81.2917 105.468 80.1561 105.683 78.7793C105.352 82.2799 104.369 85.2576 102.732 87.7122L102.582 82.1861Z" fill="#DD9995"/>
<path fill-rule="evenodd" clip-rule="evenodd" d="M69.7051 130.312C68.2786 124.769 70.1082 120.553 75.1938 117.665L76.0566 121.323L72.4321 129.143L69.7051 130.312Z" fill="#B2B2B2"/>
<path fill-rule="evenodd" clip-rule="evenodd" d="M149.093 140.989C139.614 153.488 124.15 155.144 102.701 145.958C113.635 140.704 121.856 137.589 127.363 136.613C131.278 135.919 137.191 136.529 145.101 138.442L149.093 140.989Z" fill="#B2B2B2"/>
<path fill-rule="evenodd" clip-rule="evenodd" d="M75.3804 118.286C71.5982 113.955 67.9392 111.79 64.4034 111.79C63.9451 112.409 64.1973 113.066 65.16 113.762C66.1228 114.458 67.3496 115.452 68.8406 116.744L64.5027 115.799C63.5746 115.597 62.8696 114.841 62.7339 113.902C62.4984 112.274 62.1993 111.46 61.8364 111.46C61.1404 111.46 60.4134 113.747 60.9999 115.453C61.3411 116.446 61.8744 117.667 62.5999 119.117C62.8091 119.535 63.159 119.866 63.5884 120.053L74.5685 124.816C75.5817 123.331 76.1105 122.208 76.1552 121.447C76.1999 120.686 75.9416 119.632 75.3804 118.286Z" fill="#F4B7B4"/>
<path fill-rule="evenodd" clip-rule="evenodd" d="M105.023 128.194L98.7461 181.652L107.288 239.664H117.987L115.507 186.199L137.513 131.783L105.023 128.194Z" fill="#8E614F"/>
<path fill-rule="evenodd" clip-rule="evenodd" d="M137.513 131.783L145.101 189.632L162.328 239.299L151.738 239.664L127.711 189.632L112.697 138.818L137.513 131.783Z" fill="#AA7762"/>
<path fill-rule="evenodd" clip-rule="evenodd" d="M110.259 83.8093C108.752 86.1665 107.351 87.8002 106.056 88.7104C104.76 89.6207 103.66 89.7419 102.754 89.0741C99.0645 95.1443 97.4741 100.936 97.9828 106.449C98.4914 111.961 98.7458 115.337 98.7458 116.575C97.8195 117.131 95.5096 117.494 91.8161 117.665C88.1225 117.836 82.5814 117.836 75.1928 117.665C75.226 120.308 74.9058 122.407 74.2321 123.964C73.5584 125.521 72.049 127.637 69.7041 130.312C88.488 131.572 98.9519 132.063 101.096 131.783C102.145 138.612 102.669 143.217 102.669 145.596C102.669 147.383 107.928 149.238 115.485 145.596C123.031 141.96 136.858 132.897 149.092 140.989C139.195 130.504 133.059 123.142 130.684 118.902C125.167 109.056 122.839 101.25 121.618 98.4896C120.29 95.4857 116.503 90.5923 110.259 83.8093Z" fill="white"/>
<path fill-rule="evenodd" clip-rule="evenodd" d="M107.288 239.664L94.7461 244.686L93.7715 247.014H120.787L117.987 239.664H107.288Z" fill="#151E5C" stroke="#151E5C"/>
<path fill-rule="evenodd" clip-rule="evenodd" d="M151.738 239.664L162.328 239.299L164.989 247.014H138.488L139.169 244.367L151.738 239.664Z" fill="#141B5E"/>
<path d="M94.6233 76.2331C95.1484 76.4834 95.6565 76.5988 96.1476 76.5794C96.6387 76.5599 97.0435 76.4058 97.3621 76.1168" stroke="#0A0F43"/>
<path fill-rule="evenodd" clip-rule="evenodd" d="M88.6291 66.317C88.7109 65.3148 91.3113 58.4746 94.2143 59.11C97.1174 59.7454 96.5119 60.5093 99.6422 62.4723C101.779 63.8126 106.883 64.0025 108.586 65.459C112.169 68.5226 112.169 78.7697 109.306 79.73C106.104 78.0426 105.146 76.3621 106.43 74.6884C106.536 74.532 106.609 74.4199 106.649 74.3521C107.386 73.1088 106.448 72.2158 105.112 72.8896C103.764 73.5735 103.055 73.265 102.984 71.9641C102.923 71.9787 102.573 72.0425 101.935 72.1553C99.6333 72.5619 97.9736 72.7425 96.9552 72.6969C92.4881 72.4971 88.275 70.6597 88.6291 66.317Z" fill="#211177"/>
<path d="M100.92 132.46C112.637 131.577 117.562 124.325 115.637 110.851L115.073 110.932C116.955 124.099 112.243 131.037 100.877 131.893L100.92 132.46Z" fill="#0042AD"/>
<path fill-rule="evenodd" clip-rule="evenodd" d="M62.1644 106.061L64.202 113.762L51.5728 106.061H33.7368C32.4788 106.061 31.459 105.043 31.459 103.787V86.4521C31.459 85.1966 32.4788 84.1787 33.7368 84.1787H65.3409C66.5989 84.1787 67.6187 85.1966 67.6187 86.4521V103.787C67.6187 105.043 66.5989 106.061 65.3409 106.061H62.1644Z" fill="#F64E60"/>
<path d="M143.443 35.5904V24.8829H152.894V15.6914H151.47V23.462H142.019V34.1695H132.304V46.6226H133.727V35.5904H143.443Z" fill="#1BC5BD"/>
<path d="M149.761 129.505C157.151 129.505 163.143 123.525 163.143 116.149C163.143 108.772 157.151 102.792 149.761 102.792C142.37 102.792 136.379 108.772 136.379 116.149C136.379 123.525 142.37 129.505 149.761 129.505ZM149.761 128.084C143.156 128.084 137.802 122.741 137.802 116.149C137.802 109.557 143.156 104.213 149.761 104.213C156.365 104.213 161.719 109.557 161.719 116.149C161.719 122.741 156.365 128.084 149.761 128.084Z" fill="#3699FF"/>
<path fill-rule="evenodd" clip-rule="evenodd" d="M56.2305 49.9351L42.279 56.8975V42.9727L56.2305 49.9351Z" fill="#FFA801"/>
<path d="M41.5318 170.007V159.3H32.0808V150.108H33.5045V157.879H42.9554V168.587H52.6709V181.04H51.2473V170.007H41.5318Z" fill="#8950FC"/>
<path d="M169.265 52.9189H185.209V68.833H169.265V52.9189Z" fill="#FFA800"/>
<path d="M179.514 166.307C177.47 166.307 175.813 164.653 175.813 162.612C175.813 160.572 177.47 158.918 179.514 158.918C181.559 158.918 183.216 160.572 183.216 162.612C183.216 164.653 181.559 166.307 179.514 166.307Z" fill="#FFA800"/>
</g>
<defs>
<clipPath id="clip0">
<rect width="245" height="245" fill="white"/>
</clipPath>
</defs>
</svg>
