<svg xmlns="http://www.w3.org/2000/svg" viewBox="0 0 677.68 458.37"><defs><style>.cls-1{fill:#f5f5f5;}.cls-2{fill:#e0e0e0;}.cls-3{fill:#ebebeb;}.cls-4,.cls-7{fill:#263238;}.cls-5{fill:#fafafa;}.cls-6{fill:#e8505b;}.cls-7{fill-rule:evenodd;}.cls-8{opacity:0.62;}.cls-9{fill:#455a64;}.cls-10{fill:none;}.cls-11{opacity:0.8;}.cls-12{fill:#fff;}.cls-13{opacity:0.3;}.cls-14{opacity:0.5;}.cls-15{fill:#a36957;}.cls-16{fill:#7c3b29;}</style></defs><g id="Background_Complete" data-name="Background Complete"><rect class="cls-1" x="14.36" y="336.2" width="153.6" height="70.84"/><path class="cls-2" d="M204.67,416.39H58.24V352.62H204.67Zm-145.48-1H203.71V353.57H59.19Z" transform="translate(-40.36 -12.68)"/><rect class="cls-2" x="167.97" y="336.2" width="37.52" height="70.84"/><path class="cls-2" d="M58.71,372.35H204.19a.19.19,0,0,0,0-.38H58.71a.19.19,0,0,0,0,.38Z" transform="translate(-40.36 -12.68)"/><path class="cls-2" d="M131.93,372.16a160.4,160.4,0,0,0,0-19.24.2.2,0,0,0-.39,0,158.34,158.34,0,0,0,0,19.24.15.15,0,0,0,.29,0Z" transform="translate(-40.36 -12.68)"/><path class="cls-2" d="M171.08,362.54a2,2,0,1,1-2-2A2,2,0,0,1,171.08,362.54Z" transform="translate(-40.36 -12.68)"/><path class="cls-2" d="M94.74,362.54a2,2,0,1,1-2-2A2,2,0,0,1,94.74,362.54Z" transform="translate(-40.36 -12.68)"/><path class="cls-2" d="M133.43,384.5a2,2,0,1,1-2-2A2,2,0,0,1,133.43,384.5Z" transform="translate(-40.36 -12.68)"/><polygon class="cls-2" points="32.73 407.05 24.82 451.52 29.27 451.52 43.85 407.05 32.73 407.05"/><polygon class="cls-2" points="157.1 407.05 163.71 451.6 159.26 451.6 145.98 407.05 157.1 407.05"/><polygon class="cls-2" points="186.79 407.05 194.29 451.6 189.84 451.6 175.67 407.05 186.79 407.05"/><path class="cls-2" d="M133.3,404.55a2,2,0,1,1-2-2A2,2,0,0,1,133.3,404.55Z" transform="translate(-40.36 -12.68)"/><path class="cls-2" d="M58.71,394.29H204.19a.2.2,0,0,0,0-.39H58.71a.2.2,0,0,0,0,.39Z" transform="translate(-40.36 -12.68)"/><rect class="cls-2" x="133.99" y="297.02" width="9.45" height="46.44" transform="translate(417.87 167.15) rotate(89.7)"/><rect class="cls-1" x="134.28" y="315.6" width="14.69" height="51.76" transform="translate(442 185.37) rotate(89.7)"/><path class="cls-2" d="M157.57,348.59a53.86,53.86,0,0,1-.25-7.35,53.77,53.77,0,0,1,.25-7.34,53.77,53.77,0,0,1,.25,7.34A53.86,53.86,0,0,1,157.57,348.59Z" transform="translate(-40.36 -12.68)"/><path class="cls-2" d="M159.75,348.59a53.86,53.86,0,0,1-.25-7.35,53.77,53.77,0,0,1,.25-7.34,53.77,53.77,0,0,1,.25,7.34A53.86,53.86,0,0,1,159.75,348.59Z" transform="translate(-40.36 -12.68)"/><path class="cls-2" d="M123.57,348.59a53.86,53.86,0,0,1-.25-7.35,53.77,53.77,0,0,1,.25-7.34,53.77,53.77,0,0,1,.25,7.34A53.86,53.86,0,0,1,123.57,348.59Z" transform="translate(-40.36 -12.68)"/><path class="cls-2" d="M125.74,348.59a55.86,55.86,0,0,1-.25-7.35,55.76,55.76,0,0,1,.25-7.34,52.73,52.73,0,0,1,.26,7.34A52.82,52.82,0,0,1,125.74,348.59Z" transform="translate(-40.36 -12.68)"/><path class="cls-2" d="M130.49,341.48c0-.14,5.22-.25,11.66-.25s11.67.11,11.67.25-5.23.26-11.67.26S130.49,341.62,130.49,341.48Z" transform="translate(-40.36 -12.68)"/><rect class="cls-3" x="150.29" y="297.42" width="9.45" height="63.88" transform="translate(443.2 159.92) rotate(89.7)"/><path class="cls-2" d="M177.84,332.74a3.06,3.06,0,1,1,3-3.05A3,3,0,0,1,177.84,332.74Z" transform="translate(-40.36 -12.68)"/><rect class="cls-2" x="147.21" y="308.31" width="1.89" height="42.76" transform="translate(437.49 168.85) rotate(90)"/><rect class="cls-2" x="662.26" y="86.65" width="9.03" height="44.91" transform="translate(-40.93 -9.11) rotate(-0.31)"/><rect class="cls-3" x="584.01" y="86.81" width="23.37" height="24.79" transform="translate(-40.88 -9.49) rotate(-0.31)"/><rect class="cls-1" x="607.28" y="86.68" width="23.37" height="24.79" transform="translate(-40.88 -9.37) rotate(-0.31)"/><path class="cls-2" d="M584,93.72q23.31.19,46.64-.22a.25.25,0,0,0,0-.49q-23.31-.14-46.64.28a.22.22,0,0,0,0,.43Z" transform="translate(-40.36 -12.68)"/><rect class="cls-3" x="569.43" y="111.24" width="42.46" height="20.2" transform="translate(-41 -9.52) rotate(-0.31)"/><rect class="cls-1" x="611.69" y="111.01" width="42.46" height="20.2" transform="translate(-41 -9.29) rotate(-0.31)"/><path class="cls-2" d="M569.41,117c28.21.32,56.51,0,84.72-.42a.25.25,0,0,0,0-.49c-28.21-.15-56.52-.13-84.73.49a.21.21,0,0,0,0,.42Z" transform="translate(-40.36 -12.68)"/><rect class="cls-2" x="513.17" y="118.87" width="164.52" height="7.24"/><rect class="cls-2" x="540.1" y="122.35" width="6.68" height="24.7"/><rect class="cls-2" x="639.8" y="122.35" width="6.68" height="24.7"/><rect class="cls-3" x="671.11" y="69.91" width="9.03" height="61.77" transform="translate(-40.89 -9.06) rotate(-0.31)"/><rect class="cls-1" x="680.18" y="81.42" width="14.02" height="50.05" transform="translate(-40.92 -8.99) rotate(-0.31)"/><path class="cls-2" d="M694,91a98.55,98.55,0,0,1-14,0,102.64,102.64,0,0,1,14,0Z" transform="translate(-40.36 -12.68)"/><path class="cls-2" d="M694,88.92a102.64,102.64,0,0,1-14,0,102.64,102.64,0,0,1,14,0Z" transform="translate(-40.36 -12.68)"/><path class="cls-2" d="M694,123.9a98.55,98.55,0,0,1-14,0,102.64,102.64,0,0,1,14,0Z" transform="translate(-40.36 -12.68)"/><path class="cls-2" d="M694,121.8a102.64,102.64,0,0,1-14,0,102.64,102.64,0,0,1,14,0Z" transform="translate(-40.36 -12.68)"/><path class="cls-2" d="M687.19,117.21c-.13,0-.24-5-.24-11.27s.11-11.28.24-11.28.24,5,.24,11.28S687.32,117.21,687.19,117.21Z" transform="translate(-40.36 -12.68)"/><rect class="cls-3" x="653.77" y="80.99" width="15.26" height="37.78"/><path class="cls-2" d="M677.92,80.43a2.6,2.6,0,1,1-2.6-2.6A2.59,2.59,0,0,1,677.92,80.43Z" transform="translate(-40.36 -12.68)"/><rect class="cls-2" x="634.16" y="74.88" width="1.6" height="36.74"/><path class="cls-3" d="M695.43,266.24s-10.41-5.62-20.29,19-13.21,38.56-13.21,38.56-2.73,5.21-6.4,2.29-9.13-11.64-14.73-9.48c-5.82,2.24-7.19,9.07-5.17,18.75s5.64,31.06,6,33-.53,4.82-3.35,3.23-19.62-17.24-26.58-8.82,3.09,34.47,4.13,37.34.58,4.17-.75,5-6.48-4.94-11.44-9.19-11.47-8.33-15.07-3.13-3.1,25.37,18.9,56.24l11.14,13.64,17.5-2.55c37.11-7.73,51.18-22.21,52.06-28.47s-6.66-7.68-13.19-7.93-14.25.52-14.65-1,.15-2.8,2.86-4.2,27.77-13.72,28.38-24.62S669.17,383.05,666,382.3s-1.79-3.46-.27-4.64,18.72-14.44,26.77-20.18,11.68-11.69,8.94-17.28c-2.66-5.39-12.58-2.69-17.26-3s-3.14-6-3.14-6,7-12.51,16.47-37.27-2.33-27.72-2.33-27.72" transform="translate(-40.36 -12.68)"/><path class="cls-2" d="M619.13,459c7-18.16,16.87-43.16,27.87-70.75s20.94-52.55,28-70.67l8.38-21.47c1-2.51,1.75-4.47,2.29-5.83.26-.65.46-1.15.61-1.51s.22-.51.22-.51,0,.18-.17.53-.31.88-.55,1.53l-2.18,5.88c-1.9,5.1-4.71,12.46-8.21,21.53-7,18.16-16.87,43.17-27.87,70.74s-20.94,52.57-28,70.69" transform="translate(-40.36 -12.68)"/><path class="cls-2" d="M647.93,329.08a4.71,4.71,0,0,1,.56,1.14c.33.75.77,1.85,1.29,3.22,1.05,2.73,2.4,6.54,3.82,10.77s2.6,7.94,3.56,10.85l1.09,3.28a5.25,5.25,0,0,1,.35,1.23,5.22,5.22,0,0,1-.57-1.14c-.32-.76-.76-1.86-1.27-3.23-1-2.74-2.33-6.57-3.74-10.8s-2.66-7.91-3.64-10.82c-.43-1.28-.8-2.38-1.11-3.28A5.49,5.49,0,0,1,647.93,329.08Z" transform="translate(-40.36 -12.68)"/><path class="cls-2" d="M660.24,359.73c-.06-.15,7.67-3.29,17.26-7s17.42-6.59,17.48-6.44-7.66,3.29-17.26,7S660.3,359.89,660.24,359.73Z" transform="translate(-40.36 -12.68)"/><path class="cls-2" d="M641.43,401.33a5.41,5.41,0,0,1,1.29-.19l3.52-.31c3-.26,7.07-.64,11.58-1.22s8.58-1.23,11.52-1.72l3.49-.58a5.12,5.12,0,0,1,1.29-.15,5.8,5.8,0,0,1-1.25.38c-.81.2-2,.47-3.45.77-2.93.6-7,1.32-11.52,1.9s-8.65.89-11.63,1.05c-1.49.07-2.7.11-3.54.12A5.41,5.41,0,0,1,641.43,401.33Z" transform="translate(-40.36 -12.68)"/><path class="cls-2" d="M624.2,376.05a4.48,4.48,0,0,1,.78.91c.48.61,1.14,1.51,2,2.62,1.62,2.23,3.84,5.33,6.25,8.77s4.57,6.59,6.11,8.88c.77,1.15,1.38,2.08,1.8,2.73a4.74,4.74,0,0,1,.59,1.05,4.66,4.66,0,0,1-.79-.91c-.47-.62-1.13-1.51-1.95-2.62-1.63-2.23-3.84-5.33-6.25-8.78s-4.58-6.59-6.11-8.88c-.77-1.14-1.39-2.07-1.8-2.72A5.32,5.32,0,0,1,624.2,376.05Z" transform="translate(-40.36 -12.68)"/><path class="cls-2" d="M602.93,410.66a6.69,6.69,0,0,1,1,1.18l2.51,3.35c2.1,2.84,5,6.79,8.11,11.18s6,8.38,8,11.29l2.36,3.46a6.66,6.66,0,0,1,.79,1.32,8.73,8.73,0,0,1-1-1.18l-2.51-3.35c-2.1-2.85-5-6.8-8.1-11.19s-5.95-8.38-8-11.28L603.73,412A8.73,8.73,0,0,1,602.93,410.66Z" transform="translate(-40.36 -12.68)"/><path class="cls-2" d="M625.32,441.52a9.65,9.65,0,0,1,1.63-.27l4.45-.55c3.75-.47,8.94-1.14,14.64-2s10.85-1.81,14.57-2.51l4.4-.82a8.46,8.46,0,0,1,1.64-.23,9.45,9.45,0,0,1-1.59.46c-1,.26-2.52.61-4.37,1-3.7.8-8.84,1.8-14.56,2.69s-10.92,1.49-14.69,1.85c-1.88.17-3.41.3-4.47.36A8.31,8.31,0,0,1,625.32,441.52Z" transform="translate(-40.36 -12.68)"/></g><g id="Floor"><path class="cls-4" d="M709.64,464.1c0,.14-149.83.26-334.62.26s-334.66-.12-334.66-.26,149.8-.26,334.66-.26S709.64,464,709.64,464.1Z" transform="translate(-40.36 -12.68)"/></g><g id="Dasboard"><rect class="cls-5" x="93.56" y="54.3" width="504.96" height="356.24" rx="8.69"/><path class="cls-2" d="M621.9,351.4H532a7.23,7.23,0,0,1-7.22-7.22v-189a7.23,7.23,0,0,1,7.22-7.22H621.9a7.23,7.23,0,0,1,7.22,7.22v189A7.23,7.23,0,0,1,621.9,351.4ZM532,148.92a6.23,6.23,0,0,0-6.22,6.22v189A6.23,6.23,0,0,0,532,350.4H621.9a6.23,6.23,0,0,0,6.22-6.22v-189a6.23,6.23,0,0,0-6.22-6.22Z" transform="translate(-40.36 -12.68)"/><rect class="cls-6" x="93.36" y="54.66" width="46.9" height="356.16" rx="9.65"/><path class="cls-5" d="M178.1,220.87h-36a2.79,2.79,0,0,0-2.79,2.8v28.42a2.79,2.79,0,0,0,2.79,2.8h39a2.8,2.8,0,0,0,2.78-3.09l3.51-31.11Z" transform="translate(-40.36 -12.68)"/><path class="cls-4" d="M575.73,100.58l.25-.15a2,2,0,0,0,.58-.53,4.8,4.8,0,0,0,.8-2.79,9,9,0,0,1,.38-2.1,2.82,2.82,0,0,1,4.42-1.53,4.16,4.16,0,0,1,1.31,2.67,11.77,11.77,0,0,1,.12,1.32,3,3,0,0,0,.14,1.15,4.38,4.38,0,0,0,1.35,1.76l.54.44h-.69c-2.76,0-5.15-.12-6.75-.17l-2.45-.07,2.72-.07c1.66-.06,3.87-.17,6.48-.18l-.14.44a4.84,4.84,0,0,1-1.54-2,3.4,3.4,0,0,1-.18-1.32,10.37,10.37,0,0,0-.11-1.25,3.78,3.78,0,0,0-1.11-2.35,2.49,2.49,0,0,0-2.28-.31,2.45,2.45,0,0,0-1.42,1.58,9.58,9.58,0,0,0-.43,2,7.2,7.2,0,0,1-.33,1.72,3.51,3.51,0,0,1-.67,1.16,1.81,1.81,0,0,1-.69.49.4.4,0,0,1-.2,0Z" transform="translate(-40.36 -12.68)"/><circle class="cls-6" cx="542.6" cy="81.77" r="1.97"/><path class="cls-7" d="M579.1,101.83h2.71a1.33,1.33,0,0,1-1.48,1.38A1.12,1.12,0,0,1,579.1,101.83Z" transform="translate(-40.36 -12.68)"/><rect class="cls-6" x="555.43" y="75.13" width="20.92" height="20.92" rx="4.51"/><path class="cls-6" d="M373,269.54c-9,0-13-7.06-16.84-13.89-3.2-5.63-6.5-11.45-11.91-11.45-6,0-9,2.27-12.44,4.9-3.74,2.87-8,6.12-16.3,6.12-9.13,0-12.91-8.56-16.92-17.62-3.08-7-6.58-14.88-11.82-14.88s-8.74,7.9-11.82,14.87c-4,9.07-7.8,17.63-16.92,17.63-8.6,0-12.83-4.56-16.58-8.57-3.42-3.68-6.39-6.86-12.17-6.86v-.85c6.15,0,9.23,3.3,12.8,7.13s7.73,8.29,15.95,8.29c8.57,0,12.24-8.31,16.14-17.11,3.18-7.21,6.8-15.38,12.6-15.38s9.41,8.17,12.6,15.38c3.89,8.8,7.57,17.11,16.14,17.11,8,0,12.14-3.15,15.77-5.93s6.63-5.08,13-5.08c5.91,0,9.33,6,12.65,11.88,3.75,6.62,7.63,13.45,16.1,13.45s12.32-6.4,16.08-12.6c3.46-5.7,6.72-11.08,12.66-11.08,6.13,0,9.21,3.42,12.78,7.38s7.73,8.59,16,8.59c8.59,0,12.26-8.85,16.15-18.23,3.2-7.72,6.82-16.47,12.6-16.47s9.3,6.72,12.62,13.22c3.75,7.32,7.61,14.87,16.13,14.87,8.22,0,12.33-4.4,16-8.29s6.65-7.13,12.8-7.13v.85c-5.78,0-8.74,3.18-12.17,6.86-3.75,4-8,8.57-16.58,8.57-9,0-13-7.8-16.88-15.34-3.22-6.27-6.53-12.76-11.87-12.76s-8.72,8.47-11.81,15.94c-4,9.65-7.78,18.76-16.94,18.76-8.62,0-12.86-4.71-16.6-8.86-3.44-3.82-6.4-7.11-12.15-7.11-5.46,0-8.6,5.18-11.93,10.67C386,262.92,381.94,269.54,373,269.54Z" transform="translate(-40.36 -12.68)"/><path class="cls-2" d="M230.4,281.36l.22-.26a.92.92,0,0,0,.78.44c.44,0,.66-.26.66-.79v-2.16h-1.31v-.33h1.68v2.48c0,.76-.35,1.13-1,1.13A1.2,1.2,0,0,1,230.4,281.36Z" transform="translate(-40.36 -12.68)"/><path class="cls-2" d="M235.52,280.17v1.67h-.34v-.42a1,1,0,0,1-.93.44c-.61,0-1-.31-1-.78s.26-.76,1-.76h.85v-.16c0-.46-.26-.71-.76-.71a1.4,1.4,0,0,0-.9.31l-.16-.27a1.7,1.7,0,0,1,1.09-.36A1,1,0,0,1,235.52,280.17Zm-.36.86v-.44h-.84c-.52,0-.69.21-.69.48s.25.51.68.51A.86.86,0,0,0,235.16,281Z" transform="translate(-40.36 -12.68)"/><path class="cls-2" d="M239,280.28v1.56h-.37v-1.53a.74.74,0,0,0-.8-.85.88.88,0,0,0-.94,1v1.41h-.37v-2.69h.35v.49a1.14,1.14,0,0,1,1-.51A1,1,0,0,1,239,280.28Z" transform="translate(-40.36 -12.68)"/><path class="cls-2" d="M269.45,278.59V280h1.86v.33h-1.86v1.52h-.37v-3.58h2.45v.33Z" transform="translate(-40.36 -12.68)"/><path class="cls-2" d="M274.49,280.61h-2.25a1,1,0,0,0,1.06.93,1.09,1.09,0,0,0,.82-.35l.2.23a1.3,1.3,0,0,1-1,.44,1.33,1.33,0,0,1-1.41-1.37,1.29,1.29,0,0,1,1.31-1.36,1.28,1.28,0,0,1,1.3,1.36Zm-2.25-.27h1.91a1,1,0,0,0-1.91,0Z" transform="translate(-40.36 -12.68)"/><path class="cls-2" d="M278,280.49a1.3,1.3,0,0,1-1.34,1.37,1.17,1.17,0,0,1-1-.55v.53h-.34v-3.79h.36v1.61a1.16,1.16,0,0,1,1-.53A1.3,1.3,0,0,1,278,280.49Zm-.36,0a1,1,0,1,0-1,1.05A1,1,0,0,0,277.6,280.49Z" transform="translate(-40.36 -12.68)"/><path class="cls-2" d="M312.7,278.26v3.58h-.37V279l-1.4,2.4h-.18L309.34,279v2.85H309v-3.58h.31l1.56,2.65,1.54-2.65Z" transform="translate(-40.36 -12.68)"/><path class="cls-2" d="M315.82,280.17v1.67h-.35v-.42a1,1,0,0,1-.92.44c-.61,0-1-.31-1-.78s.26-.76,1-.76h.86v-.16c0-.46-.26-.71-.76-.71a1.4,1.4,0,0,0-.9.31l-.16-.27a1.7,1.7,0,0,1,1.09-.36A1,1,0,0,1,315.82,280.17Zm-.36.86v-.44h-.85c-.52,0-.69.21-.69.48s.25.51.68.51A.88.88,0,0,0,315.46,281Z" transform="translate(-40.36 -12.68)"/><path class="cls-2" d="M318.16,279.13v.35h-.08a.87.87,0,0,0-.91,1v1.37h-.36v-2.69h.35v.53A1,1,0,0,1,318.16,279.13Z" transform="translate(-40.36 -12.68)"/><path class="cls-2" d="M349.3,280.88h-2l-.43,1h-.39l1.64-3.58h.37l1.64,3.58h-.4Zm-.14-.3-.86-1.93-.86,1.93Z" transform="translate(-40.36 -12.68)"/><path class="cls-2" d="M353.37,280.49a1.3,1.3,0,0,1-1.34,1.37,1.16,1.16,0,0,1-1-.53v1.5h-.37v-3.68H351v.53a1.16,1.16,0,0,1,1-.55A1.3,1.3,0,0,1,353.37,280.49Zm-.36,0a1,1,0,1,0-1,1.05A1,1,0,0,0,353,280.49Z" transform="translate(-40.36 -12.68)"/><path class="cls-2" d="M355.47,279.13v.35h-.09c-.56,0-.9.35-.9,1v1.37h-.37v-2.69h.35v.53A1,1,0,0,1,355.47,279.13Z" transform="translate(-40.36 -12.68)"/><path class="cls-2" d="M392.51,278.26v3.58h-.36V279l-1.41,2.4h-.18L389.15,279v2.85h-.36v-3.58h.31l1.56,2.65,1.54-2.65Z" transform="translate(-40.36 -12.68)"/><path class="cls-2" d="M395.63,280.17v1.67h-.35v-.42a1,1,0,0,1-.92.44c-.61,0-1-.31-1-.78s.26-.76,1-.76h.86v-.16c0-.46-.26-.71-.76-.71a1.4,1.4,0,0,0-.9.31l-.16-.27a1.7,1.7,0,0,1,1.09-.36A1,1,0,0,1,395.63,280.17Zm-.36.86v-.44h-.85c-.52,0-.69.21-.69.48s.25.51.68.51A.88.88,0,0,0,395.27,281Z" transform="translate(-40.36 -12.68)"/><path class="cls-2" d="M398.83,279.15l-1.35,3c-.22.53-.51.7-.89.7a.92.92,0,0,1-.65-.25l.16-.27a.7.7,0,0,0,.49.2c.24,0,.41-.11.56-.45l.12-.26-1.2-2.68h.38l1,2.28,1-2.28Z" transform="translate(-40.36 -12.68)"/><path class="cls-2" d="M426.26,281.36l.22-.26a.9.9,0,0,0,.77.44c.44,0,.67-.26.67-.79v-2.16h-1.31v-.33h1.68v2.48c0,.76-.36,1.13-1,1.13A1.18,1.18,0,0,1,426.26,281.36Z" transform="translate(-40.36 -12.68)"/><path class="cls-2" d="M431.77,279.15v2.69h-.34v-.49a1.09,1.09,0,0,1-1,.51,1,1,0,0,1-1.14-1.15v-1.56h.37v1.52c0,.58.29.87.81.87a.88.88,0,0,0,.91-1v-1.41Z" transform="translate(-40.36 -12.68)"/><path class="cls-2" d="M435.27,280.28v1.56h-.37v-1.53a.74.74,0,0,0-.8-.85.88.88,0,0,0-.94,1v1.41h-.37v-2.69h.35v.49a1.15,1.15,0,0,1,1-.51A1,1,0,0,1,435.27,280.28Z" transform="translate(-40.36 -12.68)"/><path class="cls-2" d="M466.16,281.36l.23-.26a.89.89,0,0,0,.77.44c.44,0,.66-.26.66-.79v-2.16h-1.31v-.33h1.68v2.48c0,.76-.35,1.13-1,1.13A1.2,1.2,0,0,1,466.16,281.36Z" transform="translate(-40.36 -12.68)"/><path class="cls-2" d="M471.68,279.15v2.69h-.35v-.49a1.09,1.09,0,0,1-1,.51,1,1,0,0,1-1.13-1.15v-1.56h.36v1.52c0,.58.3.87.81.87a.88.88,0,0,0,.92-1v-1.41Z" transform="translate(-40.36 -12.68)"/><path class="cls-2" d="M472.7,278.05h.36v3.79h-.36Z" transform="translate(-40.36 -12.68)"/><path class="cls-2" d="M507.08,280.88h-2l-.43,1h-.39l1.63-3.58h.38l1.63,3.58h-.4Zm-.13-.3-.86-1.93-.86,1.93Z" transform="translate(-40.36 -12.68)"/><path class="cls-2" d="M510.8,279.15v2.69h-.34v-.49a1.09,1.09,0,0,1-1,.51,1,1,0,0,1-1.13-1.15v-1.56h.36v1.52c0,.58.29.87.81.87a.88.88,0,0,0,.91-1v-1.41Z" transform="translate(-40.36 -12.68)"/><path class="cls-2" d="M514.31,279.15v2.36a1.18,1.18,0,0,1-1.34,1.35,1.85,1.85,0,0,1-1.25-.42l.18-.27a1.6,1.6,0,0,0,1.06.36c.68,0,1-.31,1-1v-.35a1.2,1.2,0,0,1-1.05.53,1.31,1.31,0,1,1,0-2.61,1.22,1.22,0,0,1,1.07.54v-.52Zm-.35,1.28a1,1,0,1,0-1,1A1,1,0,0,0,514,280.43Z" transform="translate(-40.36 -12.68)"/><path class="cls-2" d="M211.66,279.69c0-.78.41-1.25,1-1.25s1,.47,1,1.25-.41,1.25-1,1.25S211.66,280.48,211.66,279.69Zm1.7,0c0-.65-.29-1-.72-1s-.73.36-.73,1,.3,1,.73,1S213.36,280.35,213.36,279.69Z" transform="translate(-40.36 -12.68)"/><path class="cls-2" d="M209.43,266.84v2.46h-.25v-2.24h-.58v-.22Z" transform="translate(-40.36 -12.68)"/><path class="cls-2" d="M210,268.07c0-.78.41-1.25,1-1.25s1,.47,1,1.25-.41,1.25-1,1.25S210,268.85,210,268.07Zm1.7,0c0-.66-.29-1-.72-1s-.73.36-.73,1,.3,1,.73,1S211.72,268.72,211.72,268.07Z" transform="translate(-40.36 -12.68)"/><path class="cls-2" d="M210.43,259.46v.22h-1.72v-.18l1-1c.27-.27.33-.44.33-.6s-.2-.46-.58-.46a.81.81,0,0,0-.67.27l-.18-.15a1.09,1.09,0,0,1,.87-.35c.5,0,.82.25.82.66a1,1,0,0,1-.41.77l-.83.82Z" transform="translate(-40.36 -12.68)"/><path class="cls-2" d="M210.73,258.45c0-.78.41-1.24,1-1.24s1,.46,1,1.24-.41,1.25-1,1.25S210.73,259.24,210.73,258.45Zm1.7,0c0-.65-.29-1-.72-1s-.72.36-.72,1,.29,1,.72,1S212.43,259.11,212.43,258.45Z" transform="translate(-40.36 -12.68)"/><path class="cls-2" d="M210.38,249c0,.41-.3.73-.9.73a1.29,1.29,0,0,1-.88-.32l.12-.2a1.07,1.07,0,0,0,.76.29c.41,0,.64-.19.64-.5s-.21-.49-.67-.49h-.17v-.18l.68-.86H208.7v-.22h1.58v.18l-.69.87C210.11,248.36,210.38,248.64,210.38,249Z" transform="translate(-40.36 -12.68)"/><path class="cls-2" d="M210.73,248.51c0-.78.41-1.25,1-1.25s1,.47,1,1.25-.41,1.25-1,1.25S210.73,249.29,210.73,248.51Zm1.7,0c0-.66-.29-1-.72-1s-.72.36-.72,1,.29,1,.72,1S212.43,249.16,212.43,248.51Z" transform="translate(-40.36 -12.68)"/><path class="cls-2" d="M210.84,239.48h-.49v.64h-.25v-.64h-1.39v-.18l1.3-1.63h.28L209,239.25h1.06v-.56h.25v.56h.49Z" transform="translate(-40.36 -12.68)"/><path class="cls-2" d="M211.07,238.9c0-.79.41-1.25,1-1.25s1,.46,1,1.25-.41,1.25-1,1.25S211.07,239.68,211.07,238.9Zm1.7,0c0-.66-.29-1-.72-1s-.72.36-.72,1,.29,1,.72,1S212.77,239.55,212.77,238.9Z" transform="translate(-40.36 -12.68)"/><path class="cls-2" d="M210.42,230.18c0,.42-.29.74-.89.74a1.27,1.27,0,0,1-.88-.31l.12-.2a1.09,1.09,0,0,0,.75.28c.42,0,.64-.2.64-.5s-.19-.51-.82-.51h-.52l.12-1.24h1.35v.23h-1.12l-.09.78h.32C210.14,229.45,210.42,229.74,210.42,230.18Z" transform="translate(-40.36 -12.68)"/><path class="cls-2" d="M210.74,229.67c0-.78.41-1.25,1-1.25s1,.47,1,1.25-.42,1.25-1,1.25S210.74,230.46,210.74,229.67Zm1.7,0c0-.65-.3-1-.72-1s-.73.36-.73,1,.3,1,.73,1S212.44,230.33,212.44,229.67Z" transform="translate(-40.36 -12.68)"/><path class="cls-2" d="M210.6,220.56a.76.76,0,0,1-.84.75c-.65,0-1-.45-1-1.23s.46-1.27,1.12-1.27a1.2,1.2,0,0,1,.59.13l-.1.21a.84.84,0,0,0-.48-.12c-.53,0-.87.34-.87,1a1.41,1.41,0,0,0,0,.2.78.78,0,0,1,.75-.42A.75.75,0,0,1,210.6,220.56Zm-.25,0c0-.32-.24-.53-.62-.53a.57.57,0,0,0-.63.54c0,.27.22.53.65.53A.54.54,0,0,0,210.35,220.56Z" transform="translate(-40.36 -12.68)"/><path class="cls-2" d="M210.89,220.06c0-.78.41-1.25,1-1.25s1,.47,1,1.25-.41,1.25-1,1.25S210.89,220.84,210.89,220.06Zm1.7,0c0-.66-.29-1-.72-1s-.73.36-.73,1,.3,1,.73,1S212.59,220.72,212.59,220.06Z" transform="translate(-40.36 -12.68)"/><g class="cls-8"><rect class="cls-2" x="183.11" y="207.97" width="294.25" height="0.25"/><rect class="cls-2" x="183.11" y="217.57" width="294.25" height="0.25"/><rect class="cls-2" x="183.11" y="227.16" width="294.25" height="0.25"/><rect class="cls-2" x="183.11" y="236.75" width="294.25" height="0.25"/><rect class="cls-2" x="183.11" y="246.34" width="294.25" height="0.25"/><rect class="cls-2" x="183.11" y="255.93" width="294.25" height="0.25"/></g><path class="cls-6" d="M289.63,222.72a2.93,2.93,0,1,0-2.93,2.92A2.93,2.93,0,0,0,289.63,222.72Z" transform="translate(-40.36 -12.68)"/><path class="cls-9" d="M375.68,268.83a2.92,2.92,0,1,0-2.92,2.93A2.92,2.92,0,0,0,375.68,268.83Z" transform="translate(-40.36 -12.68)"/><path class="cls-5" d="M164.14,143.46a.38.38,0,0,1-.25-.09l-6.72-6.09-6.73,6.09a.39.39,0,0,1-.53,0,.37.37,0,0,1,0-.53l7-6.31a.38.38,0,0,1,.51,0l7,6.31a.37.37,0,0,1,0,.53A.38.38,0,0,1,164.14,143.46Z" transform="translate(-40.36 -12.68)"/><path class="cls-5" d="M162.23,148.79H152.1a.37.37,0,0,1-.37-.37v-7a.37.37,0,0,1,.37-.38.38.38,0,0,1,.38.38V148h9.38v-6.67a.37.37,0,0,1,.37-.38.38.38,0,0,1,.38.38v7A.38.38,0,0,1,162.23,148.79Z" transform="translate(-40.36 -12.68)"/><path class="cls-5" d="M163.46,192.46h-13.2a.38.38,0,0,1-.38-.37v-8.43a1.89,1.89,0,0,1,1.89-1.89h3.44a2.13,2.13,0,0,1,2,1.31l.59,1.41h4.17a1.89,1.89,0,0,1,1.89,1.89v5.71A.37.37,0,0,1,163.46,192.46Zm-12.83-.75h12.45v-5.33a1.14,1.14,0,0,0-1.14-1.14h-4.42a.38.38,0,0,1-.35-.23l-.69-1.64a1.36,1.36,0,0,0-1.27-.85h-3.44a1.14,1.14,0,0,0-1.14,1.14Z" transform="translate(-40.36 -12.68)"/><path class="cls-5" d="M153.12,347.12a1,1,0,0,1-.58-.19,1,1,0,0,1-.4-1l.55-3.51a.23.23,0,0,0-.07-.21l-2.51-2.52a1,1,0,0,1,.55-1.69l3.51-.56a.23.23,0,0,0,.18-.13l1.62-3.17a1,1,0,0,1,1.78,0l1.61,3.17a.26.26,0,0,0,.18.13l3.51.56a1,1,0,0,1,.55,1.69l-2.51,2.52a.26.26,0,0,0-.07.21l.56,3.51a1,1,0,0,1-.4,1,1,1,0,0,1-1,.08l-3.17-1.6a.24.24,0,0,0-.23,0l-3.16,1.6A1,1,0,0,1,153.12,347.12Zm3.74-2.49a1,1,0,0,1,.45.11l3.17,1.61a.25.25,0,0,0,.36-.26l-.56-3.51a1,1,0,0,1,.28-.86l2.51-2.52a.25.25,0,0,0-.13-.42l-3.51-.56a1,1,0,0,1-.74-.53l-1.61-3.17h0a.24.24,0,0,0-.22-.13.23.23,0,0,0-.22.13L155,337.69a1,1,0,0,1-.73.53l-3.51.56a.23.23,0,0,0-.2.17.24.24,0,0,0,.06.25l2.51,2.52a1,1,0,0,1,.28.86l-.55,3.51a.25.25,0,0,0,.1.24.26.26,0,0,0,.26,0l3.16-1.61A1.07,1.07,0,0,1,156.86,344.63Z" transform="translate(-40.36 -12.68)"/><path class="cls-5" d="M164.27,294.42H149.44a.38.38,0,0,1-.37-.38v-9.35a.37.37,0,0,1,.37-.37h14.83a.37.37,0,0,1,.38.37V294A.38.38,0,0,1,164.27,294.42Zm-14.45-.75H163.9v-8.6H149.82Z" transform="translate(-40.36 -12.68)"/><path class="cls-5" d="M157,291.79a.35.35,0,0,1-.25-.1l-7.6-6.72a.38.38,0,1,1,.5-.56l7.34,6.5,7-6.49a.37.37,0,0,1,.53,0,.38.38,0,0,1,0,.53l-7.24,6.72A.39.39,0,0,1,157,291.79Z" transform="translate(-40.36 -12.68)"/><path class="cls-5" d="M149.66,294a.39.39,0,0,1-.27-.11.37.37,0,0,1,0-.53l4.51-4.51a.37.37,0,1,1,.53.53l-4.51,4.51A.38.38,0,0,1,149.66,294Z" transform="translate(-40.36 -12.68)"/><path class="cls-5" d="M164.37,294.32a.4.4,0,0,1-.27-.11l-4.82-4.82a.37.37,0,0,1,.53-.53l4.82,4.82a.37.37,0,0,1,0,.53A.38.38,0,0,1,164.37,294.32Z" transform="translate(-40.36 -12.68)"/><rect class="cls-6" x="115.71" y="221.75" width="2.19" height="2.19"/><rect class="cls-6" x="119.84" y="221.75" width="2.19" height="2.19"/><rect class="cls-6" x="111.58" y="221.75" width="2.19" height="2.19"/><rect class="cls-6" x="119.84" y="225.2" width="2.19" height="2.19"/><rect class="cls-6" x="115.71" y="225.2" width="2.19" height="2.19"/><rect class="cls-6" x="111.58" y="225.2" width="2.19" height="2.19"/><path class="cls-6" d="M164.94,243.81H149.39a.37.37,0,0,1-.38-.37V230.65a.38.38,0,0,1,.38-.37h15.55a.38.38,0,0,1,.38.37v12.79A.37.37,0,0,1,164.94,243.81Zm-15.18-.75h14.81V231H149.76Z" transform="translate(-40.36 -12.68)"/><path class="cls-6" d="M153.59,232.57a.38.38,0,0,1-.37-.38v-4.12a.38.38,0,1,1,.75,0v4.12A.38.38,0,0,1,153.59,232.57Z" transform="translate(-40.36 -12.68)"/><path class="cls-6" d="M160.35,232.57a.38.38,0,0,1-.37-.38v-4.12a.38.38,0,1,1,.75,0v4.12A.38.38,0,0,1,160.35,232.57Z" transform="translate(-40.36 -12.68)"/><rect class="cls-6" x="226.91" y="355.58" width="4.98" height="16.7"/><rect class="cls-6" x="185.27" y="353.16" width="4.98" height="19.12"/><rect class="cls-6" x="195.68" y="349.17" width="4.98" height="23.1"/><rect class="cls-6" x="206.09" y="350.44" width="4.98" height="21.83"/><rect class="cls-6" x="216.5" y="343.05" width="4.98" height="29.22"/><rect class="cls-6" x="237.32" y="343.19" width="4.98" height="29.08"/><rect class="cls-6" x="247.73" y="352.74" width="4.98" height="19.53"/><rect class="cls-6" x="258.14" y="344.48" width="4.98" height="27.8"/><rect class="cls-6" x="268.54" y="338.21" width="4.98" height="34.06"/><rect class="cls-6" x="278.95" y="344.33" width="4.98" height="27.94"/><path class="cls-2" d="M334.72,405.66H212.1A10.13,10.13,0,0,1,202,395.54V322.23a10.13,10.13,0,0,1,10.12-10.12H334.72a10.13,10.13,0,0,1,10.12,10.12v73.31A10.13,10.13,0,0,1,334.72,405.66ZM212.1,313.11a9.13,9.13,0,0,0-9.12,9.12v73.31a9.13,9.13,0,0,0,9.12,9.12H334.72a9.13,9.13,0,0,0,9.12-9.12V322.23a9.13,9.13,0,0,0-9.12-9.12Z" transform="translate(-40.36 -12.68)"/><path class="cls-2" d="M281.9,336.48c0,.15-14.18.26-31.67.26s-31.68-.11-31.68-.26,14.18-.26,31.68-.26S281.9,336.34,281.9,336.48Z" transform="translate(-40.36 -12.68)"/><path class="cls-10" d="M393.77,350.79a16.67,16.67,0,0,0-3.5,2.68,17,17,0,0,0-2.69,3.5,16.81,16.81,0,0,0-1.69,4.08,17.11,17.11,0,0,0,0,8.76,16.81,16.81,0,0,0,1.69,4.08,17,17,0,0,0,2.69,3.5,16.72,16.72,0,0,0,3.5,2.69,17.32,17.32,0,0,0,4.07,1.69,16.87,16.87,0,0,0,8.77,0,17,17,0,0,0,4.07-1.69,16.34,16.34,0,0,0,3.46-2.66l0,0a16.64,16.64,0,0,0,2.69-3.5,16.84,16.84,0,0,0,1.7-4.08,16.83,16.83,0,0,0,0-8.76,16.84,16.84,0,0,0-1.7-4.08,16.64,16.64,0,0,0-2.69-3.5,16.42,16.42,0,0,0-3.5-2.68,16.83,16.83,0,0,0-12.84-1.7A16.93,16.93,0,0,0,393.77,350.79Z" transform="translate(-40.36 -12.68)"/><path class="cls-6" d="M410.68,380.08a17,17,0,0,1-4.07,1.69,16.87,16.87,0,0,1-8.77,0,17.32,17.32,0,0,1-4.07-1.69,16.72,16.72,0,0,1-3.5-2.69,17,17,0,0,1-2.69-3.5,16.81,16.81,0,0,1-1.69-4.08,17.11,17.11,0,0,1,0-8.76,16.81,16.81,0,0,1,1.69-4.08,17,17,0,0,1,2.69-3.5,16.67,16.67,0,0,1,3.5-2.68,16.93,16.93,0,0,1,4.07-1.7,16.73,16.73,0,0,1,4.39-.58v-3.33a20.26,20.26,0,0,0-14.33,5.93,20.26,20.26,0,0,0-3.21,4.19,20,20,0,0,0-2,4.88,20.57,20.57,0,0,0,0,10.49,20,20,0,0,0,2,4.89A20.42,20.42,0,0,0,397,385a20.53,20.53,0,0,0,10.48,0,20,20,0,0,0,4.88-2,19.78,19.78,0,0,0,4.16-3.18l-2.37-2.36A16.34,16.34,0,0,1,410.68,380.08Z" transform="translate(-40.36 -12.68)"/><path class="cls-2" d="M421.79,360.18a20.32,20.32,0,0,0-14.32-14.32,20.62,20.62,0,0,0-5.24-.68v3.33a16.77,16.77,0,0,1,8.45,2.28,16.42,16.42,0,0,1,3.5,2.68,16.64,16.64,0,0,1,2.69,3.5,16.84,16.84,0,0,1,1.7,4.08,16.83,16.83,0,0,1,0,8.76,16.84,16.84,0,0,1-1.7,4.08,16.64,16.64,0,0,1-2.69,3.5l0,0,2.37,2.36,0,0a20.26,20.26,0,0,0,5.93-14.32A20.65,20.65,0,0,0,421.79,360.18Z" transform="translate(-40.36 -12.68)"/><path class="cls-4" d="M399,367.58a1.82,1.82,0,0,1-2,1.79c-1.56,0-2.4-1.07-2.4-2.92s1.09-3,2.67-3a2.65,2.65,0,0,1,1.39.32l-.25.48a2,2,0,0,0-1.13-.28c-1.26,0-2.07.81-2.07,2.4a4.55,4.55,0,0,0,0,.48,1.85,1.85,0,0,1,1.78-1A1.77,1.77,0,0,1,399,367.58Zm-.59,0c0-.76-.57-1.26-1.47-1.26a1.35,1.35,0,0,0-1.5,1.28c0,.64.53,1.25,1.54,1.25A1.28,1.28,0,0,0,398.39,367.59Z" transform="translate(-40.36 -12.68)"/><path class="cls-4" d="M403.64,367.6c0,1-.69,1.77-2.12,1.77a3,3,0,0,1-2.09-.75l.29-.48a2.48,2.48,0,0,0,1.79.68c1,0,1.52-.48,1.52-1.19s-.46-1.22-1.95-1.22h-1.24l.3-2.93h3.19V364h-2.67l-.2,1.86h.75C403,365.87,403.64,366.57,403.64,367.6Z" transform="translate(-40.36 -12.68)"/><path class="cls-4" d="M404.24,365c0-.95.53-1.58,1.31-1.58s1.32.62,1.32,1.58-.54,1.59-1.32,1.59S404.24,366,404.24,365Zm2.22,0c0-.76-.36-1.21-.91-1.21s-.9.46-.9,1.21.35,1.21.9,1.21S406.46,365.78,406.46,365Zm2.63-1.54h.5l-4,5.84h-.5Zm-1.27,4.3c0-.95.54-1.59,1.32-1.59s1.31.64,1.31,1.59-.53,1.58-1.31,1.58S407.82,368.73,407.82,367.78Zm2.22,0c0-.75-.35-1.21-.9-1.21s-.91.45-.91,1.21.36,1.21.91,1.21S410,368.53,410,367.78Z" transform="translate(-40.36 -12.68)"/><path class="cls-2" d="M480.8,365.44a20.49,20.49,0,0,1-.68,5.23A20.24,20.24,0,0,1,470.68,383a19.9,19.9,0,0,1-4.89,2,20.53,20.53,0,0,1-10.48,0,19.83,19.83,0,0,1-4.88-2,20,20,0,0,1-7.41-7.41,19.8,19.8,0,0,1-2-4.88,21.13,21.13,0,0,1-.64-3.83h3.35a18.25,18.25,0,0,0,.51,3,16.64,16.64,0,0,0,1.69,4.07,16.82,16.82,0,0,0,2.7,3.51,17.34,17.34,0,0,0,3.5,2.69,17,17,0,0,0,4.07,1.69,17.11,17.11,0,0,0,8.76,0,16.88,16.88,0,0,0,4.08-1.69,17.34,17.34,0,0,0,3.5-2.69,16.78,16.78,0,0,0,2.69-3.51,16.26,16.26,0,0,0,1.69-4.07,16.83,16.83,0,0,0,0-8.76A16.26,16.26,0,0,0,475.2,357a16.78,16.78,0,0,0-2.69-3.51,16.86,16.86,0,0,0-7.58-4.38,16.65,16.65,0,0,0-4.38-.57v-3.34a20.45,20.45,0,0,1,5.24.68,19.9,19.9,0,0,1,4.89,2,20.32,20.32,0,0,1,9.44,12.29A20.53,20.53,0,0,1,480.8,365.44Z" transform="translate(-40.36 -12.68)"/><path class="cls-4" d="M456,363.15v.42L453.54,369h-.65l2.4-5.31h-3v1.09h-.59v-1.62Z" transform="translate(-40.36 -12.68)"/><path class="cls-4" d="M460.58,367.27c0,1-.69,1.77-2.12,1.77a3,3,0,0,1-2.09-.75l.29-.48a2.51,2.51,0,0,0,1.8.68c1,0,1.51-.49,1.51-1.19s-.46-1.22-2-1.22h-1.24l.3-2.93h3.2v.53H457.6l-.2,1.86h.75C459.92,365.54,460.58,366.24,460.58,367.27Z" transform="translate(-40.36 -12.68)"/><path class="cls-4" d="M461.18,364.69c0-.95.53-1.59,1.32-1.59s1.32.63,1.32,1.59-.55,1.59-1.32,1.59S461.18,365.64,461.18,364.69Zm2.22,0c0-.76-.36-1.21-.9-1.21s-.9.46-.9,1.21.35,1.21.9,1.21S463.4,365.45,463.4,364.69Zm2.64-1.54h.49l-4,5.84h-.49Zm-1.28,4.3c0-1,.54-1.59,1.32-1.59s1.32.63,1.32,1.59-.54,1.58-1.32,1.58S464.76,368.4,464.76,367.45Zm2.22,0c0-.76-.35-1.21-.9-1.21s-.9.45-.9,1.21.36,1.21.9,1.21S467,368.2,467,367.45Z" transform="translate(-40.36 -12.68)"/><path class="cls-6" d="M477.47,365.44a16.63,16.63,0,0,1-.58,4.37,16.26,16.26,0,0,1-1.69,4.07,16.78,16.78,0,0,1-2.69,3.51,17.34,17.34,0,0,1-3.5,2.69,16.88,16.88,0,0,1-4.08,1.69,17.11,17.11,0,0,1-8.76,0,17,17,0,0,1-4.07-1.69,17.34,17.34,0,0,1-3.5-2.69,16.82,16.82,0,0,1-2.7-3.51,16.64,16.64,0,0,1-1.69-4.07,18.25,18.25,0,0,1-.51-3h0c0-.47-.06-.93-.06-1.41a17.13,17.13,0,0,1,.57-4.38,17.11,17.11,0,0,1,4.38-7.58,16.93,16.93,0,0,1,12-5v-3.33a20.26,20.26,0,0,0-14.32,5.93,20.13,20.13,0,0,0-5.24,9.08,20.13,20.13,0,0,0-.69,5.24c0,.47,0,.94.05,1.41h0a21.13,21.13,0,0,0,.64,3.83,19.8,19.8,0,0,0,2,4.88,20,20,0,0,0,7.41,7.41,19.83,19.83,0,0,0,4.88,2,20.53,20.53,0,0,0,10.48,0,19.9,19.9,0,0,0,4.89-2,20.32,20.32,0,0,0,9.44-12.29,20.49,20.49,0,0,0,.68-5.23Z" transform="translate(-40.36 -12.68)"/><path class="cls-2" d="M496.75,404.38H366a8.8,8.8,0,0,1-8.79-8.8V322.19A8.8,8.8,0,0,1,366,313.4H496.75a8.8,8.8,0,0,1,8.8,8.79v73.39A8.81,8.81,0,0,1,496.75,404.38ZM366,314.4a7.8,7.8,0,0,0-7.79,7.79v73.39a7.81,7.81,0,0,0,7.79,7.8H496.75a7.81,7.81,0,0,0,7.8-7.8V322.19a7.8,7.8,0,0,0-7.8-7.79Z" transform="translate(-40.36 -12.68)"/><path class="cls-2" d="M432.76,334c0,.15-13.67.26-30.53.26s-30.53-.11-30.53-.26,13.67-.26,30.53-.26S432.76,333.87,432.76,334Z" transform="translate(-40.36 -12.68)"/><path class="cls-2" d="M540.79,233.88h0a2.09,2.09,0,0,1-2.09-2.08V192.74a2.09,2.09,0,0,1,2.09-2.08h0a2.08,2.08,0,0,1,2.08,2.08V231.8A2.08,2.08,0,0,1,540.79,233.88Z" transform="translate(-40.36 -12.68)"/><path class="cls-6" d="M540.79,234.07h0A2.09,2.09,0,0,1,538.7,232V206.81a2.1,2.1,0,0,1,2.09-2.09h0a2.09,2.09,0,0,1,2.08,2.09V232A2.08,2.08,0,0,1,540.79,234.07Z" transform="translate(-40.36 -12.68)"/><path class="cls-4" d="M539.48,235.7v3.47h-.36V236h-.82v-.32Z" transform="translate(-40.36 -12.68)"/><path class="cls-4" d="M540.3,237.43c0-1.1.58-1.76,1.39-1.76s1.39.66,1.39,1.76-.59,1.77-1.39,1.77S540.3,238.54,540.3,237.43Zm2.41,0c0-.92-.42-1.43-1-1.43s-1,.51-1,1.43.41,1.44,1,1.44S542.71,238.36,542.71,237.43Z" transform="translate(-40.36 -12.68)"/><path class="cls-2" d="M549.11,233.88h0A2.08,2.08,0,0,1,547,231.8V192.74a2.08,2.08,0,0,1,2.08-2.08h0a2.08,2.08,0,0,1,2.08,2.08V231.8A2.08,2.08,0,0,1,549.11,233.88Z" transform="translate(-40.36 -12.68)"/><path class="cls-6" d="M549.11,234.07h0A2.08,2.08,0,0,1,547,232V198.88a2.09,2.09,0,0,1,2.08-2.09h0a2.09,2.09,0,0,1,2.08,2.09V232A2.08,2.08,0,0,1,549.11,234.07Z" transform="translate(-40.36 -12.68)"/><path class="cls-4" d="M548.61,238.85v.32h-2.43v-.25l1.44-1.42c.39-.38.47-.62.47-.85,0-.41-.29-.65-.82-.65a1.17,1.17,0,0,0-.94.38l-.26-.22a1.59,1.59,0,0,1,1.23-.49c.71,0,1.15.36,1.15.94a1.4,1.4,0,0,1-.57,1.08l-1.18,1.16Z" transform="translate(-40.36 -12.68)"/><path class="cls-4" d="M549,237.43c0-1.1.58-1.76,1.38-1.76s1.39.66,1.39,1.76-.59,1.77-1.39,1.77S549,238.54,549,237.43Zm2.4,0c0-.92-.41-1.43-1-1.43s-1,.51-1,1.43.42,1.44,1,1.44S551.44,238.36,551.44,237.43Z" transform="translate(-40.36 -12.68)"/><path class="cls-2" d="M557.43,233.88h0a2.08,2.08,0,0,1-2.08-2.08V192.74a2.08,2.08,0,0,1,2.08-2.08h0a2.08,2.08,0,0,1,2.08,2.08V231.8A2.08,2.08,0,0,1,557.43,233.88Z" transform="translate(-40.36 -12.68)"/><path class="cls-6" d="M557.43,234.07h0a2.08,2.08,0,0,1-2.08-2.08V212.75a2.08,2.08,0,0,1,2.08-2.08h0a2.08,2.08,0,0,1,2.08,2.08V232A2.08,2.08,0,0,1,557.43,234.07Z" transform="translate(-40.36 -12.68)"/><path class="cls-4" d="M556.89,238.17c0,.58-.42,1-1.26,1a1.78,1.78,0,0,1-1.25-.45l.17-.28a1.56,1.56,0,0,0,1.08.4c.58,0,.89-.27.89-.7s-.29-.69-.93-.69h-.25v-.26l1-1.2h-1.78v-.32h2.24V236l-1,1.24C556.52,237.23,556.89,237.62,556.89,238.17Z" transform="translate(-40.36 -12.68)"/><path class="cls-4" d="M557.39,237.43c0-1.1.58-1.76,1.38-1.76s1.39.66,1.39,1.76-.58,1.77-1.39,1.77S557.39,238.54,557.39,237.43Zm2.4,0c0-.92-.41-1.43-1-1.43s-1,.51-1,1.43.42,1.44,1,1.44S559.79,238.36,559.79,237.43Z" transform="translate(-40.36 -12.68)"/><path class="cls-2" d="M565.75,233.88h0a2.08,2.08,0,0,1-2.08-2.08V192.74a2.08,2.08,0,0,1,2.08-2.08h0a2.08,2.08,0,0,1,2.08,2.08V231.8A2.08,2.08,0,0,1,565.75,233.88Z" transform="translate(-40.36 -12.68)"/><path class="cls-6" d="M565.75,234.07h0a2.08,2.08,0,0,1-2.08-2.08V198.88a2.09,2.09,0,0,1,2.08-2.09h0a2.09,2.09,0,0,1,2.08,2.09V232A2.08,2.08,0,0,1,565.75,234.07Z" transform="translate(-40.36 -12.68)"/><path class="cls-4" d="M565.77,238.26h-.69v.91h-.36v-.91h-2V238l1.84-2.3h.4l-1.78,2.24h1.51v-.8h.35v.8h.69Z" transform="translate(-40.36 -12.68)"/><path class="cls-4" d="M566.1,237.43c0-1.1.58-1.76,1.38-1.76s1.39.66,1.39,1.76-.59,1.77-1.39,1.77S566.1,238.54,566.1,237.43Zm2.4,0c0-.92-.42-1.43-1-1.43s-1,.51-1,1.43.41,1.44,1,1.44S568.5,238.36,568.5,237.43Z" transform="translate(-40.36 -12.68)"/><path class="cls-2" d="M574.08,233.88h0A2.09,2.09,0,0,1,572,231.8V192.74a2.09,2.09,0,0,1,2.09-2.08h0a2.08,2.08,0,0,1,2.08,2.08V231.8A2.08,2.08,0,0,1,574.08,233.88Z" transform="translate(-40.36 -12.68)"/><path class="cls-6" d="M574.08,234.07h0A2.09,2.09,0,0,1,572,232V205.22a2.09,2.09,0,0,1,2.09-2.08h0a2.08,2.08,0,0,1,2.08,2.08V232A2.08,2.08,0,0,1,574.08,234.07Z" transform="translate(-40.36 -12.68)"/><path class="cls-4" d="M573.89,238.15c0,.59-.41,1-1.26,1a1.74,1.74,0,0,1-1.24-.45l.17-.28a1.51,1.51,0,0,0,1.07.4c.59,0,.9-.29.9-.71s-.28-.72-1.16-.72h-.74l.18-1.74h1.9V236h-1.59l-.12,1.1h.45C573.49,237.12,573.89,237.53,573.89,238.15Z" transform="translate(-40.36 -12.68)"/><path class="cls-4" d="M574.34,237.43c0-1.1.58-1.76,1.38-1.76s1.39.66,1.39,1.76-.58,1.77-1.39,1.77S574.34,238.54,574.34,237.43Zm2.41,0c0-.92-.42-1.43-1-1.43s-1,.51-1,1.43.42,1.44,1,1.44S576.75,238.36,576.75,237.43Z" transform="translate(-40.36 -12.68)"/><path class="cls-2" d="M582.4,233.88h0a2.08,2.08,0,0,1-2.08-2.08V192.74a2.08,2.08,0,0,1,2.08-2.08h0a2.08,2.08,0,0,1,2.08,2.08V231.8A2.08,2.08,0,0,1,582.4,233.88Z" transform="translate(-40.36 -12.68)"/><path class="cls-6" d="M582.4,233.88h0a2,2,0,0,1-2.08-1.89V212.75a2.12,2.12,0,0,1,2.08-2.26h0a2.08,2.08,0,0,1,2.08,2.08V231.8A2.08,2.08,0,0,1,582.4,233.88Z" transform="translate(-40.36 -12.68)"/><path class="cls-4" d="M582.12,238.13a1.08,1.08,0,0,1-1.18,1.07c-.92,0-1.42-.64-1.42-1.74s.64-1.79,1.58-1.79a1.55,1.55,0,0,1,.83.19l-.15.28a1.28,1.28,0,0,0-.67-.16c-.75,0-1.23.48-1.23,1.42,0,.08,0,.18,0,.29a1.1,1.1,0,0,1,1.06-.6A1.05,1.05,0,0,1,582.12,238.13Zm-.35,0c0-.45-.33-.75-.87-.75a.77.77,0,1,0,0,1.51A.76.76,0,0,0,581.77,238.14Z" transform="translate(-40.36 -12.68)"/><path class="cls-4" d="M582.53,237.43c0-1.1.58-1.76,1.39-1.76s1.39.66,1.39,1.76-.59,1.77-1.39,1.77S582.53,238.54,582.53,237.43Zm2.41,0c0-.92-.42-1.43-1-1.43s-1,.51-1,1.43.41,1.44,1,1.44S584.94,238.36,584.94,237.43Z" transform="translate(-40.36 -12.68)"/><path class="cls-2" d="M590.72,233.88h0a2.08,2.08,0,0,1-2.08-2.08V192.74a2.08,2.08,0,0,1,2.08-2.08h0a2.08,2.08,0,0,1,2.08,2.08V231.8A2.08,2.08,0,0,1,590.72,233.88Z" transform="translate(-40.36 -12.68)"/><path class="cls-6" d="M590.72,234.07h0a2.08,2.08,0,0,1-2.08-2.08v-35.1a2.08,2.08,0,0,1,2.08-2.08h0a2.08,2.08,0,0,1,2.08,2.08V232A2.08,2.08,0,0,1,590.72,234.07Z" transform="translate(-40.36 -12.68)"/><path class="cls-4" d="M590.28,235.7V236l-1.46,3.22h-.38l1.42-3.15h-1.78v.64h-.35v-1Z" transform="translate(-40.36 -12.68)"/><path class="cls-4" d="M590.65,237.43c0-1.1.58-1.76,1.38-1.76s1.39.66,1.39,1.76-.59,1.77-1.39,1.77S590.65,238.54,590.65,237.43Zm2.4,0c0-.92-.41-1.43-1-1.43s-1,.51-1,1.43.42,1.44,1,1.44S593.05,238.36,593.05,237.43Z" transform="translate(-40.36 -12.68)"/><path class="cls-2" d="M599,233.88h0A2.08,2.08,0,0,1,597,231.8V192.74a2.08,2.08,0,0,1,2.08-2.08h0a2.08,2.08,0,0,1,2.08,2.08V231.8A2.08,2.08,0,0,1,599,233.88Z" transform="translate(-40.36 -12.68)"/><path class="cls-6" d="M599,234.07h0A2.08,2.08,0,0,1,597,232V216.72a2.08,2.08,0,0,1,2.08-2.08h0a2.08,2.08,0,0,1,2.08,2.08V232A2.08,2.08,0,0,1,599,234.07Z" transform="translate(-40.36 -12.68)"/><path class="cls-4" d="M598.63,238.2c0,.62-.52,1-1.35,1s-1.34-.38-1.34-1a.87.87,0,0,1,.67-.85.79.79,0,0,1-.55-.76c0-.57.49-.92,1.22-.92s1.22.35,1.22.92a.78.78,0,0,1-.55.76A.87.87,0,0,1,598.63,238.2Zm-.37,0c0-.43-.37-.7-1-.7s-1,.27-1,.7.36.7,1,.7S598.26,238.63,598.26,238.2Zm-1-1c.54,0,.86-.24.86-.62s-.34-.63-.86-.63-.86.24-.86.63S596.74,237.22,597.28,237.22Z" transform="translate(-40.36 -12.68)"/><path class="cls-4" d="M599.12,237.43c0-1.1.58-1.76,1.39-1.76s1.38.66,1.38,1.76-.58,1.77-1.38,1.77S599.12,238.54,599.12,237.43Zm2.41,0c0-.92-.42-1.43-1-1.43s-1,.51-1,1.43.42,1.44,1,1.44S601.53,238.36,601.53,237.43Z" transform="translate(-40.36 -12.68)"/><path class="cls-2" d="M607.36,233.88h0a2.08,2.08,0,0,1-2.08-2.08V192.74a2.08,2.08,0,0,1,2.08-2.08h0a2.09,2.09,0,0,1,2.09,2.08V231.8A2.09,2.09,0,0,1,607.36,233.88Z" transform="translate(-40.36 -12.68)"/><path class="cls-6" d="M607.36,233.88h0a2,2,0,0,1-2.08-1.89v-5.36a2.12,2.12,0,0,1,2.08-2.26h0a2.09,2.09,0,0,1,2.09,2.08v5.35A2.09,2.09,0,0,1,607.36,233.88Z" transform="translate(-40.36 -12.68)"/><path class="cls-4" d="M606.74,237.4c0,1.18-.65,1.8-1.59,1.8a1.53,1.53,0,0,1-.82-.19l.14-.29a1.23,1.23,0,0,0,.68.17c.74,0,1.23-.48,1.23-1.43,0-.08,0-.18,0-.28a1.11,1.11,0,0,1-1.06.6,1.05,1.05,0,0,1-1.17-1.05,1.07,1.07,0,0,1,1.18-1.06C606.24,235.67,606.74,236.31,606.74,237.4Zm-.49-.69c0-.38-.32-.74-.92-.74a.76.76,0,0,0-.85.75c0,.46.34.75.87.75A.8.8,0,0,0,606.25,236.71Z" transform="translate(-40.36 -12.68)"/><path class="cls-4" d="M607.25,237.43c0-1.1.58-1.76,1.39-1.76s1.38.66,1.38,1.76-.58,1.77-1.38,1.77S607.25,238.54,607.25,237.43Zm2.41,0c0-.92-.42-1.43-1-1.43s-1,.51-1,1.43.42,1.44,1,1.44S609.66,238.36,609.66,237.43Z" transform="translate(-40.36 -12.68)"/><path class="cls-2" d="M615.69,233.88h0a2.08,2.08,0,0,1-2.08-2.08V192.74a2.08,2.08,0,0,1,2.08-2.08h0a2.08,2.08,0,0,1,2.08,2.08V231.8A2.08,2.08,0,0,1,615.69,233.88Z" transform="translate(-40.36 -12.68)"/><path class="cls-6" d="M615.69,233.88h0a2,2,0,0,1-2.08-1.89V212.75a2.12,2.12,0,0,1,2.08-2.26h0a2.08,2.08,0,0,1,2.08,2.08V231.8A2.08,2.08,0,0,1,615.69,233.88Z" transform="translate(-40.36 -12.68)"/><path class="cls-4" d="M612.7,235.7v3.47h-.35V236h-.82v-.32Z" transform="translate(-40.36 -12.68)"/><path class="cls-4" d="M613.53,237.43c0-1.1.58-1.76,1.39-1.76s1.38.66,1.38,1.76-.58,1.77-1.38,1.77S613.53,238.54,613.53,237.43Zm2.41,0c0-.92-.42-1.43-1-1.43s-1,.51-1,1.43.42,1.44,1,1.44S615.94,238.36,615.94,237.43Z" transform="translate(-40.36 -12.68)"/><path class="cls-4" d="M616.81,237.43c0-1.1.58-1.76,1.39-1.76s1.38.66,1.38,1.76-.58,1.77-1.38,1.77S616.81,238.54,616.81,237.43Zm2.41,0c0-.92-.42-1.43-1-1.43s-1,.51-1,1.43.42,1.44,1,1.44S619.22,238.36,619.22,237.43Z" transform="translate(-40.36 -12.68)"/><path class="cls-2" d="M599,171.14c0,.14-13.55.26-30.26.26s-30.26-.12-30.26-.26,13.55-.26,30.26-.26S599,171,599,171.14Z" transform="translate(-40.36 -12.68)"/><path class="cls-2" d="M617.77,262.52c0,.14-17.76.26-39.67.26s-39.67-.12-39.67-.26,17.76-.26,39.67-.26S617.77,262.37,617.77,262.52Z" transform="translate(-40.36 -12.68)"/><path class="cls-2" d="M617.77,276.15c0,.14-17.76.26-39.67.26s-39.67-.12-39.67-.26,17.76-.26,39.67-.26S617.77,276,617.77,276.15Z" transform="translate(-40.36 -12.68)"/><path class="cls-2" d="M617.77,289.78c0,.14-17.76.26-39.67.26s-39.67-.12-39.67-.26,17.76-.26,39.67-.26S617.77,289.63,617.77,289.78Z" transform="translate(-40.36 -12.68)"/><path class="cls-2" d="M617.77,303.41c0,.14-17.76.26-39.67.26s-39.67-.12-39.67-.26,17.76-.26,39.67-.26S617.77,303.26,617.77,303.41Z" transform="translate(-40.36 -12.68)"/><path class="cls-2" d="M617.77,317c0,.14-17.76.26-39.67.26s-39.67-.12-39.67-.26,17.76-.26,39.67-.26S617.77,316.9,617.77,317Z" transform="translate(-40.36 -12.68)"/><path class="cls-6" d="M614.62,363.43A13.38,13.38,0,0,1,628,376.79v11.12a13.38,13.38,0,0,1-13.37,13.36H540a13.37,13.37,0,0,1-13.36-13.36V376.79A13.37,13.37,0,0,1,540,363.43h74.66m0-1H540a14.36,14.36,0,0,0-14.36,14.36v11.12A14.36,14.36,0,0,0,540,402.27h74.66A14.36,14.36,0,0,0,629,387.91V376.79a14.36,14.36,0,0,0-14.37-14.36Z" transform="translate(-40.36 -12.68)"/><path class="cls-6" d="M608.36,383.47c0,.14-13.91.26-31.07.26s-31.07-.12-31.07-.26,13.91-.26,31.07-.26S608.36,383.33,608.36,383.47Z" transform="translate(-40.36 -12.68)"/><path class="cls-6" d="M316.41,111.27c7.7-6,14.5-13.46,23.34-17.66,15.19-7.22,33.12-3.56,49.34.91s33.35,9.65,49.53,5c15-4.25,26.93-17.44,30.26-32.59H190.52c3.71,30.78,26.91,56.15,57.75,61.49l1.93.31A87.82,87.82,0,0,0,316.41,111.27Z" transform="translate(-40.36 -12.68)"/><path class="cls-6" d="M505.31,95.53c7.84,7.11,19.27,9,29.78,7.83,7.08-.82,14.27-3.07,19.38-8,5.8-5.62,8.18-14.35,6.62-22.27a26.4,26.4,0,0,0-2-6.08h-58C494.72,75.37,497.49,88.43,505.31,95.53Z" transform="translate(-40.36 -12.68)"/><g class="cls-11"><path class="cls-12" d="M316.41,111.27c7.7-6,14.5-13.46,23.34-17.66,15.19-7.22,33.12-3.56,49.34.91s33.35,9.65,49.53,5c15-4.25,26.93-17.44,30.26-32.59H190.52c3.71,30.78,26.91,56.15,57.75,61.49l1.93.31A87.82,87.82,0,0,0,316.41,111.27Z" transform="translate(-40.36 -12.68)"/><path class="cls-12" d="M505.31,95.53c7.84,7.11,19.27,9,29.78,7.83,7.08-.82,14.27-3.07,19.38-8,5.8-5.62,8.18-14.35,6.62-22.27a26.4,26.4,0,0,0-2-6.08h-58C494.72,75.37,497.49,88.43,505.31,95.53Z" transform="translate(-40.36 -12.68)"/></g><path class="cls-10" d="M563.15,94.26a4.08,4.08,0,0,1,1,.27l.76-.64,1.3,1-.41.9a4,4,0,0,1,.54.92l1,.09.22,1.63-.93.35a4,4,0,0,1-.27,1l.63.76-1,1.31-.9-.41a3.87,3.87,0,0,1-.93.53l-.08,1-1.63.22-.35-.93a3.56,3.56,0,0,1-1-.27l-.76.64-1.31-1,.41-.9a4,4,0,0,1-.54-.92l-1-.09-.22-1.63.93-.34a4.1,4.1,0,0,1,.28-1l-.64-.76,1-1.31.91.42a4,4,0,0,1,.92-.54l.09-1,1.62-.22.35.93Zm-.49,2.24a1.76,1.76,0,1,0,1.77,1.35A1.76,1.76,0,0,0,562.66,96.5Z" transform="translate(-40.36 -12.68)"/><path class="cls-4" d="M562.66,96.5s.16-.09.46-.06a1.81,1.81,0,0,1,1.11.59,1.94,1.94,0,0,1,.39,1.85,2,2,0,0,1-3.76.12,1.93,1.93,0,0,1,.28-1.87,1.75,1.75,0,0,1,1.07-.66c.29,0,.45,0,.45,0s-.7.07-1.22.85a1.56,1.56,0,0,0-.13,1.47,1.54,1.54,0,0,0,1.46.94,1.57,1.57,0,0,0,1.4-1,1.59,1.59,0,0,0-.23-1.46A2.48,2.48,0,0,0,562.66,96.5Z" transform="translate(-40.36 -12.68)"/><path class="cls-4" d="M563.15,94.26a5.47,5.47,0,0,1-.42-.9l.09,0-1.62.27.11-.12c0,.31,0,.64-.07,1v.09l-.09,0a3.68,3.68,0,0,0-.88.53l-.08.06-.1,0-.9-.4.22,0-1,1.31v-.25l.64.75.08.1,0,.12a3.81,3.81,0,0,0-.25,1l0,.14-.13,0-.93.35.15-.25c.08.51.15,1.06.23,1.63L558,99.5l1,.08h.15l.06.14a4.11,4.11,0,0,0,.51.87l.09.12-.06.14-.41.9-.08-.31,1.31,1h-.32l.76-.64.12-.1.15.06a4.1,4.1,0,0,0,1,.26h0l.22.16h0v0l0,.06,0,.12.09.23.17.46-.28-.16,1.63-.22-.22.23.09-1v-.15l.14-.06a3.72,3.72,0,0,0,.87-.5l.12-.1.14.07.9.41-.3.08,1-1.3v.3l-.63-.77-.09-.11,0-.13a3.8,3.8,0,0,0,.27-1l0-.14.12,0,.93-.33-.14.23c-.07-.57-.13-1.11-.2-1.63l.18.17-1-.1h-.11l0-.1a4,4,0,0,0-.5-.89l-.07-.09.05-.09.42-.9,0,.19-1.28-1H565l-.78.61,0,0-.05,0c-.65-.29-1-.31-1-.35a.48.48,0,0,1,.27,0,3.24,3.24,0,0,1,.8.19l-.09,0,.74-.67.07-.06.08.06,1.33,1,.09.08-.05.11-.39.91,0-.17a4.2,4.2,0,0,1,.57,1l-.15-.11,1,.07h.15l0,.16c.07.52.15,1.06.23,1.63l0,.17-.16.06-.93.36.14-.19a4,4,0,0,1-.28,1.1l0-.24.64.76.12.14-.11.16c-.33.42-.66.86-1,1.31l-.12.16-.18-.09-.91-.4.26,0a3.84,3.84,0,0,1-1,.58l.16-.21q0,.48-.09,1v.2l-.21,0-1.63.22-.2,0-.07-.2-.18-.46-.09-.23,0-.12,0-.06v0h0l.21.16h0a4.23,4.23,0,0,1-1.1-.29l.26,0-.76.64-.16.13-.16-.13-1.3-1-.17-.13.09-.18.41-.9,0,.26a4.76,4.76,0,0,1-.57-1l.21.15-1-.09-.19,0,0-.19c-.07-.56-.14-1.11-.21-1.63l0-.18.17-.06.93-.34-.14.18a4.06,4.06,0,0,1,.3-1.09l0,.22-.63-.77L558,96l.1-.12,1-1.3.09-.12.13.07.9.42-.18,0a3.93,3.93,0,0,1,1-.54l-.09.12c0-.35.07-.68.11-1v-.11h.1l1.63-.17h.07l0,.06A5.26,5.26,0,0,1,563.15,94.26Z" transform="translate(-40.36 -12.68)"/><path class="cls-4" d="M630.19,423.22l.28,0c.18,0,.46,0,.83-.07a8.64,8.64,0,0,0,7.52-8.29c0-1.25,0-2.59,0-4,0-11.38,0-28.15-.05-49.75,0-43.21,0-105.72-.09-183q0-29,0-60.63,0-15.81,0-32.25V77a11.08,11.08,0,0,0-.46-4,8.34,8.34,0,0,0-2.17-3.4,8.42,8.42,0,0,0-3.51-2,14.39,14.39,0,0,0-4.12-.34h-8.48l-145,0-332.27,0a8.48,8.48,0,0,0-8.09,5.9c-.55,1.7-.34,3.55-.38,5.39v70.76q0,43.05,0,84.78c0,55.58,0,109.2,0,160.27q0,9.59,0,19a17.81,17.81,0,0,0,.09,2.33,8.43,8.43,0,0,0,3.47,5.71,8.31,8.31,0,0,0,4.23,1.54c1.52.07,3.11,0,4.65,0H253.8l126.35,0,250,.18-250,.18-126.35,0H146.59c-1.56,0-3.09,0-4.69,0a8.92,8.92,0,0,1-4.47-1.62,8.87,8.87,0,0,1-3.66-6,17.49,17.49,0,0,1-.09-2.39v-19c0-51.07,0-104.69,0-160.27V75.77a9.87,9.87,0,0,1,.41-2.79,9,9,0,0,1,8.58-6.26l332.27,0,145,0h8.48a14.49,14.49,0,0,1,4.24.35,8.87,8.87,0,0,1,6,5.69,11.42,11.42,0,0,1,.48,4.17v8.26q0,16.42,0,32.25,0,31.62,0,60.63c0,77.24-.06,139.75-.08,183,0,21.6,0,38.37-.05,49.75,0,1.42,0,2.76,0,4a8.72,8.72,0,0,1-4.48,7.31,8.47,8.47,0,0,1-3.13,1A10.22,10.22,0,0,1,630.19,423.22Z" transform="translate(-40.36 -12.68)"/><rect class="cls-2" x="376.31" y="131.95" width="98.28" height="46.41" rx="9.57"/><path class="cls-4" d="M443.57,166.9v8.54h-.88v-7.76h-2v-.78Z" transform="translate(-40.36 -12.68)"/><path class="cls-4" d="M451.41,172.93c0,1.45-1,2.59-3.1,2.59a4.42,4.42,0,0,1-3.07-1.1l.43-.7a3.69,3.69,0,0,0,2.63,1c1.45,0,2.22-.71,2.22-1.74s-.69-1.79-2.86-1.79h-1.82l.44-4.28H451v.78h-3.91l-.29,2.72h1.1C450.43,170.4,451.41,171.42,451.41,172.93Z" transform="translate(-40.36 -12.68)"/><path class="cls-4" d="M452.52,171.17c0-2.72,1.43-4.34,3.41-4.34s3.42,1.62,3.42,4.34-1.45,4.35-3.42,4.35S452.52,173.89,452.52,171.17Zm5.92,0c0-2.28-1-3.54-2.51-3.54s-2.52,1.26-2.52,3.54,1,3.54,2.52,3.54S458.44,173.45,458.44,171.17Z" transform="translate(-40.36 -12.68)"/><path class="cls-4" d="M460.6,171.17c0-2.72,1.43-4.34,3.41-4.34s3.42,1.62,3.42,4.34-1.44,4.35-3.42,4.35S460.6,173.89,460.6,171.17Zm5.92,0c0-2.28-1-3.54-2.51-3.54s-2.52,1.26-2.52,3.54,1,3.54,2.52,3.54S466.52,173.45,466.52,171.17Z" transform="translate(-40.36 -12.68)"/><path class="cls-4" d="M476,173.2h-1.71v2.24h-.88V173.2h-4.82v-.64l4.53-5.66h1l-4.36,5.52h3.71v-2h.85v2H476Z" transform="translate(-40.36 -12.68)"/><path class="cls-4" d="M482.54,174.66v.78h-6v-.62l3.55-3.48c1-1,1.15-1.52,1.15-2.11,0-1-.7-1.6-2-1.6a2.92,2.92,0,0,0-2.33,1l-.63-.53a3.84,3.84,0,0,1,3-1.22c1.73,0,2.83.87,2.83,2.3a3.52,3.52,0,0,1-1.4,2.68l-2.91,2.85Z" transform="translate(-40.36 -12.68)"/><path class="cls-4" d="M483.59,171.17c0-2.72,1.43-4.34,3.41-4.34s3.42,1.62,3.42,4.34-1.44,4.35-3.42,4.35S483.59,173.89,483.59,171.17Zm5.93,0c0-2.28-1-3.54-2.52-3.54s-2.51,1.26-2.51,3.54,1,3.54,2.51,3.54S489.52,173.45,489.52,171.17Z" transform="translate(-40.36 -12.68)"/><path class="cls-4" d="M474.35,158.11c0,.14-9.5.26-21.22.26s-21.23-.12-21.23-.26,9.5-.26,21.23-.26S474.35,158,474.35,158.11Z" transform="translate(-40.36 -12.68)"/><rect class="cls-2" x="269.14" y="132.21" width="98.28" height="46.41" rx="9.57"/><path class="cls-4" d="M332.54,177.92v1.4h-.61v-1.39a4.58,4.58,0,0,1-2.92-1.11l.35-.69a4.18,4.18,0,0,0,2.57,1v-3.21c-1.34-.33-2.71-.74-2.71-2.35,0-1.18.84-2.19,2.71-2.34v-1.4h.61v1.39A4.87,4.87,0,0,1,335,170l-.31.72a4.53,4.53,0,0,0-2.17-.71v3.24c1.38.32,2.83.72,2.83,2.35C335.37,176.79,334.48,177.81,332.54,177.92Zm-.61-4.83V170c-1.26.1-1.82.75-1.82,1.52C330.11,172.49,330.93,172.83,331.93,173.09Zm2.55,2.56c0-1-.89-1.29-1.94-1.55v3.05C333.88,177.05,334.48,176.43,334.48,175.65Z" transform="translate(-40.36 -12.68)"/><path class="cls-4" d="M345.61,177.08v.78h-6v-.62l3.55-3.48c1-.95,1.15-1.53,1.15-2.11,0-1-.7-1.6-2-1.6A2.89,2.89,0,0,0,340,171l-.63-.54a3.86,3.86,0,0,1,3-1.22c1.74,0,2.83.88,2.83,2.31a3.49,3.49,0,0,1-1.4,2.67l-2.9,2.86Z" transform="translate(-40.36 -12.68)"/><path class="cls-4" d="M352.37,175.41c0,1.42-1,2.52-3.1,2.52a4.4,4.4,0,0,1-3.08-1.1l.43-.69a3.75,3.75,0,0,0,2.65,1c1.41,0,2.19-.66,2.19-1.72s-.72-1.7-2.3-1.7h-.61v-.65l2.36-3h-4.37v-.79H352v.63l-2.42,3C351.45,173.07,352.37,174,352.37,175.41Z" transform="translate(-40.36 -12.68)"/><path class="cls-4" d="M359.28,175.35c0,1.45-1,2.58-3.1,2.58a4.38,4.38,0,0,1-3.07-1.1l.43-.69a3.72,3.72,0,0,0,2.62,1c1.46,0,2.23-.71,2.23-1.75s-.69-1.78-2.86-1.78h-1.82l.44-4.29h4.68v.79h-3.91l-.29,2.72h1.1C358.3,172.82,359.28,173.83,359.28,175.35Z" transform="translate(-40.36 -12.68)"/><path class="cls-4" d="M360.39,173.59c0-2.72,1.43-4.35,3.4-4.35s3.42,1.63,3.42,4.35-1.44,4.34-3.42,4.34S360.39,176.31,360.39,173.59Zm5.92,0c0-2.28-1-3.54-2.52-3.54s-2.51,1.26-2.51,3.54,1,3.54,2.51,3.54S366.31,175.87,366.31,173.59Z" transform="translate(-40.36 -12.68)"/><path class="cls-4" d="M369.66,177.25a1.87,1.87,0,0,1-.18.71l-.51,1.68h-.58l.41-1.77a.61.61,0,0,1-.44-.62.65.65,0,1,1,1.3,0Z" transform="translate(-40.36 -12.68)"/><path class="cls-4" d="M370.79,173.59c0-2.72,1.43-4.35,3.41-4.35s3.42,1.63,3.42,4.35-1.44,4.34-3.42,4.34S370.79,176.31,370.79,173.59Zm5.92,0c0-2.28-1-3.54-2.51-3.54s-2.52,1.26-2.52,3.54,1,3.54,2.52,3.54S376.71,175.87,376.71,173.59Z" transform="translate(-40.36 -12.68)"/><path class="cls-4" d="M378.87,173.59c0-2.72,1.43-4.35,3.41-4.35s3.42,1.63,3.42,4.35-1.44,4.34-3.42,4.34S378.87,176.31,378.87,173.59Zm5.92,0c0-2.28-1-3.54-2.51-3.54s-2.51,1.26-2.51,3.54,1,3.54,2.51,3.54S384.79,175.87,384.79,173.59Z" transform="translate(-40.36 -12.68)"/><path class="cls-4" d="M366.06,159.34c0,.14-8.61.26-19.23.26s-19.24-.12-19.24-.26,8.61-.26,19.24-.26S366.06,159.19,366.06,159.34Z" transform="translate(-40.36 -12.68)"/><rect class="cls-6" x="161.59" y="132.21" width="98.28" height="46.41" rx="9.57"/><path class="cls-12" d="M224.18,177.92v1.41h-.61v-1.4a4.55,4.55,0,0,1-2.91-1.11l.35-.69a4.15,4.15,0,0,0,2.56,1v-3.21c-1.34-.33-2.71-.74-2.71-2.35,0-1.18.85-2.19,2.71-2.34v-1.4h.61v1.39a4.81,4.81,0,0,1,2.48.76l-.3.72a4.6,4.6,0,0,0-2.18-.71v3.24c1.38.33,2.84.72,2.84,2.35C227,176.79,226.12,177.81,224.18,177.92Zm-.61-4.83V170c-1.25.11-1.81.75-1.81,1.52C221.76,172.49,222.57,172.83,223.57,173.09Zm2.55,2.56c0-1-.89-1.29-1.94-1.55v3.05C225.53,177.05,226.12,176.43,226.12,175.65Z" transform="translate(-40.36 -12.68)"/><path class="cls-12" d="M237.26,177.08v.78h-6v-.62l3.55-3.48c1-.95,1.15-1.53,1.15-2.11,0-1-.7-1.6-2-1.6a2.89,2.89,0,0,0-2.33.95l-.62-.54a3.84,3.84,0,0,1,3-1.22c1.73,0,2.83.88,2.83,2.31a3.52,3.52,0,0,1-1.4,2.67l-2.91,2.86Z" transform="translate(-40.36 -12.68)"/><path class="cls-12" d="M240.73,169.32v8.54h-.88V170.1h-2v-.78Z" transform="translate(-40.36 -12.68)"/><path class="cls-12" d="M242.77,173.59c0-2.72,1.43-4.35,3.4-4.35s3.42,1.63,3.42,4.35-1.44,4.34-3.42,4.34S242.77,176.31,242.77,173.59Zm5.92,0c0-2.28-1-3.54-2.52-3.54s-2.51,1.26-2.51,3.54,1,3.54,2.51,3.54S248.69,175.87,248.69,173.59Z" transform="translate(-40.36 -12.68)"/><path class="cls-12" d="M250.85,173.59c0-2.72,1.43-4.35,3.41-4.35s3.41,1.63,3.41,4.35-1.44,4.34-3.41,4.34S250.85,176.31,250.85,173.59Zm5.92,0c0-2.28-1-3.54-2.51-3.54s-2.52,1.26-2.52,3.54,1,3.54,2.52,3.54S256.77,175.87,256.77,173.59Z" transform="translate(-40.36 -12.68)"/><path class="cls-12" d="M260.12,177.25a2,2,0,0,1-.17.71l-.52,1.68h-.58l.41-1.77a.62.62,0,0,1-.44-.62.65.65,0,1,1,1.3,0Z" transform="translate(-40.36 -12.68)"/><path class="cls-12" d="M267.55,173.51c0,2.91-1.59,4.42-3.9,4.42a3.93,3.93,0,0,1-2-.46l.35-.71a3,3,0,0,0,1.66.4c1.85,0,3-1.18,3-3.5a6,6,0,0,0,0-.69,2.71,2.71,0,0,1-2.61,1.46,2.59,2.59,0,0,1-2.88-2.56,2.67,2.67,0,0,1,2.92-2.63C266.32,169.24,267.55,170.82,267.55,173.51Zm-1.21-1.69c0-.94-.78-1.83-2.25-1.83a1.87,1.87,0,0,0-2.09,1.85c0,1.13.83,1.85,2.15,1.85A2,2,0,0,0,266.34,171.82Z" transform="translate(-40.36 -12.68)"/><path class="cls-12" d="M268.82,173.59c0-2.72,1.43-4.35,3.41-4.35s3.42,1.63,3.42,4.35-1.44,4.34-3.42,4.34S268.82,176.31,268.82,173.59Zm5.92,0c0-2.28-1-3.54-2.51-3.54s-2.52,1.26-2.52,3.54,1,3.54,2.52,3.54S274.74,175.87,274.74,173.59Z" transform="translate(-40.36 -12.68)"/><path class="cls-12" d="M254.6,159.34c0,.14-7.91.26-17.67.26s-17.66-.12-17.66-.26,7.9-.26,17.66-.26S254.6,159.19,254.6,159.34Z" transform="translate(-40.36 -12.68)"/><path class="cls-12" d="M157.17,106.89h0a8.56,8.56,0,0,1-8.56-8.56h0a8.55,8.55,0,0,1,8.56-8.55h0a8.55,8.55,0,0,1,8.55,8.55h0A8.55,8.55,0,0,1,157.17,106.89Z" transform="translate(-40.36 -12.68)"/></g><g id="Character"><path class="cls-6" d="M608.23,319.08s9.58,3.16,13.67,27c3.88,22.62,12.3,33.86,12.3,33.86l32.28,5.63-15.2,26.85L607.38,397l-2.29-44.9Z" transform="translate(-40.36 -12.68)"/><path class="cls-6" d="M550,318.5s-14.46,1.89-18.52,16.55S523,384.2,523,384.2L496.53,429l17.55,10.9,26.21-35.49a30.66,30.66,0,0,0,5.79-13.81,29.5,29.5,0,0,0,.24-5.77l-.63-11Z" transform="translate(-40.36 -12.68)"/><path class="cls-6" d="M546.46,319.27l-5.22,36.23a37,37,0,0,0,1.1,15.66l6.44,22.07s-5.52,12.4,1.7,16.73c1.42.85,36.86,1.42,36.86,1.42h15.59l5.66-54.95-.36-37.35s-13-4.74-18.11-5.31a192.61,192.61,0,0,0-28.41.23Z" transform="translate(-40.36 -12.68)"/><path class="cls-4" d="M532.09,390.81a28.8,28.8,0,0,0-4.09-4,14.67,14.67,0,0,0-3.5-1.94,5.57,5.57,0,0,1-1.53-.74,5.35,5.35,0,0,1,1.66.39,11.87,11.87,0,0,1,3.68,1.86A10.7,10.7,0,0,1,532.09,390.81Z" transform="translate(-40.36 -12.68)"/><path class="cls-4" d="M544.56,338.17a10.33,10.33,0,0,1-.45,1.67c-.17.54-.37,1.19-.56,2s-.46,1.63-.64,2.61a57.09,57.09,0,0,0-1.11,6.9,66.21,66.21,0,0,0-.19,8.56,90.26,90.26,0,0,0,2.16,15.41c.43,2,.8,3.52,1.08,4.61a9.93,9.93,0,0,1,.35,1.7,11.69,11.69,0,0,1-.55-1.65c-.33-1.07-.76-2.63-1.24-4.58a80.42,80.42,0,0,1-2.32-15.47,61.73,61.73,0,0,1,.24-8.62,51.82,51.82,0,0,1,1.22-6.94c.21-1,.5-1.85.72-2.61a20.07,20.07,0,0,1,.64-1.94A11.51,11.51,0,0,1,544.56,338.17Z" transform="translate(-40.36 -12.68)"/><path class="cls-4" d="M608.08,340.26a12.09,12.09,0,0,1,.11,1.69c0,1.09.07,2.66.08,4.61,0,3.9,0,9.28-.31,15.22s-.7,11.31-1.08,15.19c-.2,1.94-.37,3.51-.51,4.59a11.18,11.18,0,0,1-.27,1.67,9.77,9.77,0,0,1,.07-1.69c.08-1.18.2-2.73.34-4.6.29-3.88.65-9.25.93-15.18s.4-11.31.47-15.2c0-1.88.06-3.43.08-4.61A9.43,9.43,0,0,1,608.08,340.26Z" transform="translate(-40.36 -12.68)"/><g class="cls-13"><path d="M593.91,383.32c.73,1.21-.42,3.49-3.28,5.92a26.59,26.59,0,0,1-5.48,3.49,35.66,35.66,0,0,1-15.37,3.5,26.85,26.85,0,0,1-6.45-.78c-3.63-.95-5.66-2.51-5.52-3.92s2.32-2.5,5.5-3.45,7.41-1.85,12-2.89,8.83-2.07,12.11-2.6S593.15,382.07,593.91,383.32Z" transform="translate(-40.36 -12.68)"/></g><path class="cls-4" d="M595.37,384.73a11.5,11.5,0,0,1-1.12,1.24,14.77,14.77,0,0,1-1.42,1.35,22.3,22.3,0,0,1-2,1.64l-1.22.89c-.43.31-.91.57-1.39.87a34.45,34.45,0,0,1-3.17,1.74,39.51,39.51,0,0,1-7.83,2.68A38.61,38.61,0,0,1,569,396a33.82,33.82,0,0,1-3.61-.24c-.56-.08-1.11-.12-1.62-.22l-1.48-.29a24,24,0,0,1-2.52-.65,14.44,14.44,0,0,1-1.85-.64,8.6,8.6,0,0,1-1.53-.66c0-.11,2.22.86,6,1.59l1.47.26c.51.08,1.05.11,1.61.18,1.11.15,2.31.15,3.57.19A37.06,37.06,0,0,0,584.84,392a33,33,0,0,0,3.15-1.67c.48-.29,1-.54,1.39-.84l1.22-.85C593.7,386.43,595.28,384.64,595.37,384.73Z" transform="translate(-40.36 -12.68)"/><path class="cls-4" d="M610.19,320.23c.14.1-1.35,2-2.39,4.85s-1.25,5.24-1.41,5.22a14.33,14.33,0,0,1,3.8-10.07Z" transform="translate(-40.36 -12.68)"/><g class="cls-14"><path class="cls-12" d="M613.69,356.68c-2.09.76-1.23.51-2.13,2.27a6.26,6.26,0,0,0-.23,5.72,7.11,7.11,0,0,0,4,3c1.93.68,4.25.9,5.88-.33a5.27,5.27,0,0,0,1.48-5.66,7.38,7.38,0,0,0-9.41-4.89" transform="translate(-40.36 -12.68)"/><path class="cls-12" d="M588,377.8c-.74-1.36-4.14-2.15-5.39-1.23a3.72,3.72,0,0,0,0,4.33,3.37,3.37,0,0,0,4.17.91A3.07,3.07,0,0,0,588,377.8Z" transform="translate(-40.36 -12.68)"/><path class="cls-12" d="M541,381.4c-.74-1.36-4.15-2.15-5.39-1.24a3.74,3.74,0,0,0,0,4.34,3.37,3.37,0,0,0,4.17.91A3.09,3.09,0,0,0,541,381.4Z" transform="translate(-40.36 -12.68)"/><path class="cls-12" d="M553.45,322.24a12.22,12.22,0,0,0-9.14,6.49,6.79,6.79,0,0,0-.85,3.56,3.65,3.65,0,0,0,1.87,3c1.64.82,3.59-.05,5.17-1a17.06,17.06,0,0,0,3.84-2.84,7.29,7.29,0,0,0,2.13-4.19,4.68,4.68,0,0,0-1.7-4.25,3.46,3.46,0,0,0-4.39.18" transform="translate(-40.36 -12.68)"/><path class="cls-12" d="M525.79,398.21a12.24,12.24,0,0,0-9.15,6.49,6.88,6.88,0,0,0-.84,3.56,3.67,3.67,0,0,0,1.86,3c1.64.82,3.59,0,5.17-1a17.62,17.62,0,0,0,3.85-2.83,7.41,7.41,0,0,0,2.13-4.2,4.71,4.71,0,0,0-1.7-4.25,3.48,3.48,0,0,0-4.39.18" transform="translate(-40.36 -12.68)"/><path class="cls-12" d="M595.28,322.73c-2.09.76-1.22.51-2.13,2.28a6.24,6.24,0,0,0-.23,5.71,7.11,7.11,0,0,0,4,3c1.93.68,4.25.9,5.88-.33a5.27,5.27,0,0,0,1.48-5.66,7.37,7.37,0,0,0-9.41-4.89" transform="translate(-40.36 -12.68)"/><path class="cls-12" d="M586.91,348.49c.16,1.55.14.92,1.18,1.84a4.41,4.41,0,0,0,3.86,1.13,5,5,0,0,0,2.73-2.23,4.47,4.47,0,0,0,.78-4.06,3.71,3.71,0,0,0-3.6-2,5.17,5.17,0,0,0-4.94,5.57" transform="translate(-40.36 -12.68)"/><path class="cls-12" d="M528.48,364.64c.16,1.55.14.92,1.19,1.84a4.39,4.39,0,0,0,3.85,1.13,5,5,0,0,0,2.73-2.22,4.45,4.45,0,0,0,.78-4.06,3.68,3.68,0,0,0-3.6-2,5.19,5.19,0,0,0-4.94,5.58" transform="translate(-40.36 -12.68)"/><path class="cls-12" d="M572.92,345.18a1.78,1.78,0,0,0-1.73-.86,5.38,5.38,0,0,0-1.93.65l-.74,1.42a2.62,2.62,0,0,0,3.73.89A1.77,1.77,0,0,0,572.92,345.18Z" transform="translate(-40.36 -12.68)"/><path class="cls-12" d="M540.05,344.54a1.8,1.8,0,0,0-1.74-.85,5.26,5.26,0,0,0-1.93.65l-.74,1.42a2.63,2.63,0,0,0,3.73.89A1.79,1.79,0,0,0,540.05,344.54Z" transform="translate(-40.36 -12.68)"/><path class="cls-12" d="M603.66,371.74a1.78,1.78,0,0,0-1.73-.86,5.43,5.43,0,0,0-1.94.65l-.74,1.42a2.63,2.63,0,0,0,3.74.89A1.77,1.77,0,0,0,603.66,371.74Z" transform="translate(-40.36 -12.68)"/><path class="cls-12" d="M554.71,402.46a1.78,1.78,0,0,0-1.74-.85,5.24,5.24,0,0,0-1.93.64l-.74,1.42a2.61,2.61,0,0,0,3.73.89A1.78,1.78,0,0,0,554.71,402.46Z" transform="translate(-40.36 -12.68)"/><path class="cls-12" d="M580.07,360.59a10.74,10.74,0,0,0-6.42-3.51c-2.92.1-5,2-7,4.12a4,4,0,0,0,.83,6.84,11.68,11.68,0,0,0,9.6,1.5,6.53,6.53,0,0,0,3.39-2.05C582,365.55,581.6,362.54,580.07,360.59Z" transform="translate(-40.36 -12.68)"/><path class="cls-12" d="M595.5,359.58c-.56-1-3.13-1.63-4.07-.94a2.81,2.81,0,0,0,0,3.28,2.55,2.55,0,0,0,3.15.69A2.33,2.33,0,0,0,595.5,359.58Z" transform="translate(-40.36 -12.68)"/><path class="cls-12" d="M577.82,403.65c-.56-1-3.13-1.63-4.08-.94a2.82,2.82,0,0,0,0,3.28,2.55,2.55,0,0,0,3.15.69A2.34,2.34,0,0,0,577.82,403.65Z" transform="translate(-40.36 -12.68)"/><path class="cls-12" d="M617.9,340.11c-.56-1-3.14-1.62-4.08-.93a2.82,2.82,0,0,0,0,3.28,2.55,2.55,0,0,0,3.15.69A2.34,2.34,0,0,0,617.9,340.11Z" transform="translate(-40.36 -12.68)"/><path class="cls-12" d="M557.83,376.68a3.61,3.61,0,0,0-2.68-.82h0c-1.86,0-3.4.73-3.56,2.47a5.66,5.66,0,0,0,1.86,4.71,3.59,3.59,0,0,0,3.72.85,3.66,3.66,0,0,0,1.87-2.45A4.78,4.78,0,0,0,557.83,376.68Z" transform="translate(-40.36 -12.68)"/><path class="cls-12" d="M601.85,394.87a4.76,4.76,0,0,0-2.46-3.09,4.16,4.16,0,0,0-3.93.59,8,8,0,0,0-2.49,3.26,9.68,9.68,0,0,0-1,4.63c.1,1.59,2.48,3.39,4.33,2.87h0A5.27,5.27,0,0,0,600,402,6.78,6.78,0,0,0,601.85,394.87Z" transform="translate(-40.36 -12.68)"/><path class="cls-12" d="M550.87,346.56c-2.09.76-1.22.51-2.13,2.28a6.24,6.24,0,0,0-.23,5.71,7.11,7.11,0,0,0,4,3c1.93.68,4.25.9,5.88-.33a5.27,5.27,0,0,0,1.48-5.66,7.37,7.37,0,0,0-9.41-4.89" transform="translate(-40.36 -12.68)"/></g><path class="cls-6" d="M586,443.53s38.29,10.6,39.83,11.14c2.3.81,1.92,9.27-1.67,9.13-1.7-.06-29.42,1-32.92.82s-14.06-4.38-14.06-4.38Z" transform="translate(-40.36 -12.68)"/><path class="cls-4" d="M601.9,458.14c.19,0,.45-2,1.69-4.11s2.82-3.37,2.71-3.52-2,.93-3.27,3.2S601.74,458.16,601.9,458.14Z" transform="translate(-40.36 -12.68)"/><path class="cls-4" d="M597.91,456.33c.19,0,.57-1.77,1.59-3.77s2.23-3.4,2.09-3.54-1.6,1.13-2.66,3.25S597.74,456.32,597.91,456.33Z" transform="translate(-40.36 -12.68)"/><path class="cls-4" d="M594.16,455.33c.2,0,.05-1.92.9-4s2.22-3.45,2.08-3.59-1.79,1-2.68,3.35S594,455.39,594.16,455.33Z" transform="translate(-40.36 -12.68)"/><path class="cls-4" d="M594.84,450.39a6.77,6.77,0,0,0,.41-2.85,13.16,13.16,0,0,0-1-4.9,2.14,2.14,0,0,0-.62-.94,1,1,0,0,0-1.31.06,1.72,1.72,0,0,0-.51,1.09,7,7,0,0,0-.05,1,8.55,8.55,0,0,0,.23,1.87,11.67,11.67,0,0,0,1.18,2.93,7.62,7.62,0,0,0,1.72,2.3c.09-.06-.55-.95-1.32-2.51a13.1,13.1,0,0,1-1-2.85,8.24,8.24,0,0,1-.18-1.75c0-.59,0-1.32.35-1.6a.38.38,0,0,1,.5-.05,1.58,1.58,0,0,1,.42.67,14.12,14.12,0,0,1,.58,1.69,14.85,14.85,0,0,1,.51,3C594.91,449.29,594.74,450.37,594.84,450.39Z" transform="translate(-40.36 -12.68)"/><path class="cls-4" d="M594.8,450a5.38,5.38,0,0,0-2.47-.4,11.28,11.28,0,0,0-2.72.33,5.7,5.7,0,0,0-1.57.58,1.61,1.61,0,0,0-.86,1.75,1.88,1.88,0,0,0,1.38,1.36,3.57,3.57,0,0,0,1.72,0,8.2,8.2,0,0,0,4.26-3,18.45,18.45,0,0,0-2,1.38,6.71,6.71,0,0,1-2.34,1,3,3,0,0,1-1.42,0,1.29,1.29,0,0,1-.94-.91,1,1,0,0,1,.57-1.07,6,6,0,0,1,1.39-.54,13.23,13.23,0,0,1,2.58-.45C593.84,450,594.78,450.1,594.8,450Z" transform="translate(-40.36 -12.68)"/><path class="cls-4" d="M607.78,458.55c.19,0,0-1.65.76-3.45s2-2.85,1.87-3-1.66.75-2.46,2.76S607.63,458.62,607.78,458.55Z" transform="translate(-40.36 -12.68)"/><path class="cls-4" d="M581.07,460.32a7.75,7.75,0,0,0,1.48.7,33,33,0,0,0,4.26,1.32,60.47,60.47,0,0,0,14.62,1.38c5.73-.06,10.91-.32,14.66-.47l4.43-.24a7,7,0,0,0,1.63-.17,8.13,8.13,0,0,0-1.63-.07l-4.45,0-14.65.28a68.45,68.45,0,0,1-14.51-1.18C583.25,461.14,581.11,460.2,581.07,460.32Z" transform="translate(-40.36 -12.68)"/><path class="cls-4" d="M579.93,461.19a30.17,30.17,0,0,0,2.87-1.3,13.39,13.39,0,0,1,7.25-1.2c2.88.44,4.93,2.38,6.26,3.73a21.14,21.14,0,0,0,2.21,2.25,11.69,11.69,0,0,0-1.88-2.56,15.12,15.12,0,0,0-2.53-2.38,9.1,9.1,0,0,0-4-1.67,12.74,12.74,0,0,0-7.54,1.42A10.47,10.47,0,0,0,579.93,461.19Z" transform="translate(-40.36 -12.68)"/><g class="cls-13"><path d="M586,443.53s38.29,10.6,39.83,11.14c2.3.81,1.92,9.27-1.67,9.13-1.7-.06-29.42,1-32.92.82s-14.06-4.38-14.06-4.38Z" transform="translate(-40.36 -12.68)"/></g><path class="cls-4" d="M552,410.21l-12.47,14.51s-41.5-12.62-52-12-19,4.77-21,13.26-2.31,20.21,9.89,28.34,72.82,12.63,72.82,12.63h24l39.21-51.7L609,412.37Z" transform="translate(-40.36 -12.68)"/><path class="cls-9" d="M560.31,443.76a4.33,4.33,0,0,1-.79,0c-.52,0-1.28,0-2.25-.17a46.48,46.48,0,0,1-8.14-1.68,77.45,77.45,0,0,1-11.47-4.49c-4.19-2-8.67-4.41-13.37-6.94a139.43,139.43,0,0,0-13.55-6.5,60.45,60.45,0,0,0-11.72-3.5,41.45,41.45,0,0,0-8.22-.72c-1,0-1.73.09-2.24.09a3.64,3.64,0,0,1-.79,0,3.66,3.66,0,0,1,.78-.11c.51,0,1.27-.18,2.25-.19a38.45,38.45,0,0,1,8.28.56,58.61,58.61,0,0,1,11.84,3.42A132.19,132.19,0,0,1,524.53,430c4.71,2.53,9.17,5,13.34,7a81.41,81.41,0,0,0,11.37,4.57,52.05,52.05,0,0,0,8,1.83c1,.16,1.73.19,2.24.27A4.19,4.19,0,0,1,560.31,443.76Z" transform="translate(-40.36 -12.68)"/><path class="cls-4" d="M588.66,462.69c7.71-3,50.1-16.52,65.11-33.86,12.49-14.44-7.38-27.36-7.38-27.36s-13.94-.45-18.59,0-71.17,45.4-71.17,45.4S568.25,469.52,568,470.4Z" transform="translate(-40.36 -12.68)"/><path class="cls-9" d="M609.54,412.41s-.06.06-.18.15-.34.22-.56.38l-2.17,1.41-8.06,5.13-26.66,16.76-14.49,9,.09-.3,7.6,18.27,2.13,5.25.55,1.4a3.09,3.09,0,0,1,.17.5,2.86,2.86,0,0,1-.24-.47l-.62-1.37-2.26-5.19c-1.92-4.51-4.61-10.81-7.77-18.2L557,445l.17-.11,14.47-9.07,26.75-16.63,8.14-5,2.23-1.33.58-.34A.84.84,0,0,1,609.54,412.41Z" transform="translate(-40.36 -12.68)"/><path class="cls-9" d="M551,432.41a7,7,0,0,1-2-.74,27.41,27.41,0,0,1-4.35-2.61,28.08,28.08,0,0,1-3.81-3.36,6.89,6.89,0,0,1-1.3-1.66c.12-.11,2.25,2.3,5.41,4.6S551,432.26,551,432.41Z" transform="translate(-40.36 -12.68)"/><path class="cls-9" d="M569.09,411a16.5,16.5,0,0,1,.1,2.65c0,1.63.09,3.89.31,6.37s.57,4.71.84,6.33a17.08,17.08,0,0,1,.38,2.63,11.15,11.15,0,0,1-.74-2.56,49.33,49.33,0,0,1-1-6.35,50.85,50.85,0,0,1-.16-6.43A11,11,0,0,1,569.09,411Z" transform="translate(-40.36 -12.68)"/><path class="cls-9" d="M575,413.23s.2-.05.52.07a2.39,2.39,0,0,1,1.11.93,2.56,2.56,0,0,1,.31,2.13,2.32,2.32,0,0,1-2.15,1.52,2.25,2.25,0,0,1-2.27-1.33,2.35,2.35,0,0,1,.29-2.14,2,2,0,0,1,1.16-.86c.34-.08.53,0,.53,0a2.48,2.48,0,0,0-1.37,1.06,2,2,0,0,0-.17,1.76,1.81,1.81,0,0,0,1.8,1,1.88,1.88,0,0,0,1.73-1.15,2.26,2.26,0,0,0-.18-1.79A3.13,3.13,0,0,0,575,413.23Z" transform="translate(-40.36 -12.68)"/><path class="cls-9" d="M558.51,411.39a2.21,2.21,0,0,1,.36.78,7.18,7.18,0,0,1,.35,2.35,8.49,8.49,0,0,1-.77,3.44,8.07,8.07,0,0,1-2.77,3.32,8,8,0,0,1-4.12,1.31,8.3,8.3,0,0,1-3.48-.58,7,7,0,0,1-2-1.2c-.43-.37-.62-.62-.6-.64a13.2,13.2,0,0,0,2.76,1.5,8.7,8.7,0,0,0,3.33.45,8,8,0,0,0,3.86-1.27,7.83,7.83,0,0,0,2.62-3.09,8.46,8.46,0,0,0,.84-3.25A13.07,13.07,0,0,0,558.51,411.39Z" transform="translate(-40.36 -12.68)"/><path class="cls-9" d="M598.06,419.28a2.74,2.74,0,0,1-1.57-.22,6,6,0,0,1-3-2.37,6.07,6.07,0,0,1-1-3.72,2.74,2.74,0,0,1,.43-1.53c.08,0-.08.6-.06,1.54a6.27,6.27,0,0,0,3.74,5.74C597.48,419.11,598.07,419.2,598.06,419.28Z" transform="translate(-40.36 -12.68)"/><path class="cls-15" d="M642.13,390.48s6.48-9.35,7.9-10.14,13.4-3.23,14.33-2.77,14.32,4.89,12.49,6.29S665.7,382,665.7,382l-1.39.45s8.09,2.58,9.68,3.85.62,3.06-.87,2.67-8.49-2.88-9-2.65,7.54,3.14,8.35,3.8c1.09.89.88,3-.61,2.7-.88-.2-8.37-3.4-8.37-3.4s5.82,3.32,6.3,3.95c.8,1-.14,2.26-1.44,1.76-.88-.34-4.93-3.08-6.12-3.54,0,0-1.2.13-2.6,2.3s-9.8,6.92-9.8,6.92Z" transform="translate(-40.36 -12.68)"/><path class="cls-15" d="M645.25,391.1a2.78,2.78,0,0,0,3.2.49c1.07-.45,2-1.24,3-1.75,3.09-1.55,7-.47,10.07-2.16.43-.24.87-.66.73-1.12s-.66-.56-1.11-.61l-11.37-1.45" transform="translate(-40.36 -12.68)"/><path class="cls-16" d="M649.77,384.5a4.38,4.38,0,0,1,1.24,0c.8.06,2,.17,3.37.32l5,.57,1.43.17a2.3,2.3,0,0,1,1.62.6,1,1,0,0,1,0,1.08,1.91,1.91,0,0,1-.68.65,7.94,7.94,0,0,1-1.56.66c-2.18.63-4.3.49-6.12.79a8.51,8.51,0,0,0-2.49.7c-.73.35-1.36.81-2,1.17a4,4,0,0,1-3.36.65c-.81-.29-1-.79-1-.79a3.49,3.49,0,0,0,1.06.54,3.9,3.9,0,0,0,3.05-.79c.59-.38,1.21-.86,2-1.27a9.08,9.08,0,0,1,2.63-.81c1.9-.33,4-.22,6-.82a6.86,6.86,0,0,0,1.41-.59c.42-.24.66-.61.48-.79s-.69-.3-1.17-.36l-1.44-.2-5-.7c-1.41-.21-2.55-.39-3.34-.53A4.77,4.77,0,0,1,649.77,384.5Z" transform="translate(-40.36 -12.68)"/><path class="cls-16" d="M676.82,383.89a6.67,6.67,0,0,1-2.61.31,15,15,0,0,1-2.85-.31c-1-.28-2.16-.62-3.35-1l-2.51-.76h.16c-3.58.7-6.18,1.11-6.21,1a38,38,0,0,1,6.09-1.57h.07l.09,0,2.49.73,3.3,1a19.25,19.25,0,0,0,2.74.44C675.82,383.87,676.81,383.79,676.82,383.89Z" transform="translate(-40.36 -12.68)"/><path class="cls-4" d="M618,287.21c-2.67-3.2-5.94-6.47-6-10.64-.06-2.21.74-4.7-.58-6.47-1.16-1.55-3.45-1.79-4.75-3.22-1.73-1.9-1-4.9-1.58-7.41a8.7,8.7,0,0,0-5.61-5.79,18.12,18.12,0,0,0-8.29-.62l-2.61,57.36c1.27-1.4,4.58-2,6.35-1.31s3.41,1.76,5.29,1.91c4.22.35,7.2-3.87,10.8-6.09s8.17-2.79,10.07-6.36S620.68,290.41,618,287.21Z" transform="translate(-40.36 -12.68)"/><path class="cls-9" d="M610.12,305.37a4.44,4.44,0,0,0,1.41-.58,3,3,0,0,0,1.15-3.57,4.14,4.14,0,0,0-1.91-2,5.13,5.13,0,0,1-1.28-1.12,2.68,2.68,0,0,1-.54-1.77,12.84,12.84,0,0,1,1.16-3.6,5.24,5.24,0,0,0,.38-1.82,3.24,3.24,0,0,0-.55-1.78,10.6,10.6,0,0,0-2.84-2.62,16.28,16.28,0,0,1-2.87-2.44,12.15,12.15,0,0,1-2.75-5.72,11.18,11.18,0,0,1,0-4.27,6,6,0,0,1,.3-1.13c.08-.25.13-.38.15-.37s-.13.54-.25,1.53a12.21,12.21,0,0,0,2.92,9.64,14.92,14.92,0,0,0,2.81,2.34,11,11,0,0,1,3,2.77,3.82,3.82,0,0,1,.62,2,5.77,5.77,0,0,1-.42,2,12.93,12.93,0,0,0-1.16,3.44,2.24,2.24,0,0,0,.42,1.48,5.24,5.24,0,0,0,1.16,1,8.83,8.83,0,0,1,1.23,1,3.24,3.24,0,0,1,.78,1.26,3.32,3.32,0,0,1-.11,2.48,3.25,3.25,0,0,1-1.27,1.38,3,3,0,0,1-1.11.41A1.12,1.12,0,0,1,610.12,305.37Z" transform="translate(-40.36 -12.68)"/><path class="cls-15" d="M589.21,318.12l-.17-9.63s9.56-1.41,11.75-13.82c1.1-6.17,1-16.31.59-24.62-.34-7.47-8.24-15.06-15.69-14.41l-24.2,4.16v4l.67,54.71a13.52,13.52,0,0,0,13.53,13.36h0A13.52,13.52,0,0,0,589.21,318.12Z" transform="translate(-40.36 -12.68)"/><path class="cls-4" d="M597.54,278.67a1.6,1.6,0,0,1-1.57,1.59,1.53,1.53,0,0,1-1.61-1.47,1.59,1.59,0,0,1,1.56-1.58A1.51,1.51,0,0,1,597.54,278.67Z" transform="translate(-40.36 -12.68)"/><path class="cls-4" d="M599.09,275.29c-.2.21-1.4-.71-3.11-.74s-3,.81-3.18.6.12-.47.68-.85a4.36,4.36,0,0,1,2.54-.74,4.11,4.11,0,0,1,2.47.85C599,274.82,599.19,275.2,599.09,275.29Z" transform="translate(-40.36 -12.68)"/><path class="cls-4" d="M581.78,278.23a1.6,1.6,0,0,1-1.57,1.58,1.53,1.53,0,0,1-1.62-1.47,1.6,1.6,0,0,1,1.57-1.58A1.53,1.53,0,0,1,581.78,278.23Z" transform="translate(-40.36 -12.68)"/><path class="cls-4" d="M582.21,275.31c-.21.21-1.4-.71-3.11-.73s-3,.81-3.18.59.12-.46.68-.85a4.36,4.36,0,0,1,2.54-.74,4.25,4.25,0,0,1,2.47.85C582.13,274.84,582.31,275.22,582.21,275.31Z" transform="translate(-40.36 -12.68)"/><path class="cls-4" d="M588.21,288.15a12,12,0,0,1,2.8-.45c.44,0,.85-.12.93-.41a2.19,2.19,0,0,0-.27-1.31l-1.23-3.36c-1.72-4.78-3-8.72-2.76-8.78s1.74,3.75,3.46,8.54l1.18,3.38a2.54,2.54,0,0,1,.2,1.72,1.1,1.1,0,0,1-.74.63,3,3,0,0,1-.74.09A11.14,11.14,0,0,1,588.21,288.15Z" transform="translate(-40.36 -12.68)"/><path class="cls-16" d="M589,308.49a31.7,31.7,0,0,1-16.59-4.74s4.17,8.69,16.64,7.75Z" transform="translate(-40.36 -12.68)"/><path class="cls-16" d="M587.41,292.28a3.08,3.08,0,0,0-2.75-1.2,2.82,2.82,0,0,0-2,1,1.81,1.81,0,0,0-.17,2.05,2.09,2.09,0,0,0,2.24.61,6.67,6.67,0,0,0,2.22-1.27,1.94,1.94,0,0,0,.49-.5.57.57,0,0,0,0-.64" transform="translate(-40.36 -12.68)"/><path class="cls-4" d="M583.14,289.25c.28,0,.25,1.85,1.82,3.21s3.56,1.18,3.57,1.44-.45.35-1.29.36a4.64,4.64,0,0,1-3-1.1,4,4,0,0,1-1.41-2.68C582.79,289.7,583,289.24,583.14,289.25Z" transform="translate(-40.36 -12.68)"/><path class="cls-4" d="M582.77,268.59c-.18.47-1.89.21-3.91.42s-3.65.73-3.91.31c-.12-.21.17-.64.84-1.08a6.85,6.85,0,0,1,6-.55C582.48,268,582.85,268.37,582.77,268.59Z" transform="translate(-40.36 -12.68)"/><path class="cls-4" d="M598.54,270.31c-.3.39-1.48,0-2.9-.08s-2.63.21-2.9-.2c-.12-.2.08-.59.61-.95a4.24,4.24,0,0,1,4.68.23C598.52,269.72,598.68,270.12,598.54,270.31Z" transform="translate(-40.36 -12.68)"/><path class="cls-9" d="M567.83,274.46c4.09-5,15.72-14,21.4-16.52.9-.4,1.75-1.24,2.3-1.24a17.49,17.49,0,0,1,3.34,2.25c3,2.64,5.42,8.86,6.58,12.7,1.68-4.78,1.13-11.65-2.19-15.48s-6.86-5.94-11.92-6.19a21.27,21.27,0,0,0-13.19,3.54c-1.71,1-7.87,6.18-9.6,9.13Z" transform="translate(-40.36 -12.68)"/><path class="cls-4" d="M589.61,250.23c.83.1-4.81-4.53-8.33-5.17A14.13,14.13,0,0,0,571,247.21c-2,1.34-3.69,3.22-5.92,4.17-1.7.72-3.59.84-5.36,1.37a12.44,12.44,0,0,0-8.63,10.72c-.15,2.06.22,4.13.25,6.2a8.21,8.21,0,0,1-1.75,5.8c-1.21,1.32-3,1.93-4.51,2.88a11.19,11.19,0,0,0-5,11c.37,2.26,1.44,4.59.66,6.74-.52,1.42-1.75,2.44-2.58,3.7a7.53,7.53,0,0,0,.27,8.46c2.11.23,3.77,1.81,5.41,3.16s3.73,2.59,5.76,2c2.64-.78,3.89-4.31,6.61-4.69s4.62,2.45,7.14,3.4c2.87,1.09,6.23-.55,8-3.08s2.16-5.74,2.22-8.81c.08-3.86-.41-7.93-2.7-11-1.64-2.23-4.24-4.15-4.28-6.91s2.38-4.76,2.79-7.38c.36-2.3-.88-4.5-1.84-6.62s-2.72-5.26-1.38-7.16C566.2,261.12,575.37,248.65,589.61,250.23Z" transform="translate(-40.36 -12.68)"/><path class="cls-4" d="M590.73,252.32s.43.2.77.85a3.2,3.2,0,0,1-2.07,4.55c-.71.18-1.16,0-1.15,0s.43-.08,1-.33a3.31,3.31,0,0,0,1.78-1.64,3.39,3.39,0,0,0,.07-2.42C590.94,252.7,590.66,252.37,590.73,252.32Z" transform="translate(-40.36 -12.68)"/><path class="cls-4" d="M594.21,257.63c0,.13-.86,0-1.66-.65s-1.14-1.39-1-1.46.63.49,1.35,1S594.26,257.49,594.21,257.63Z" transform="translate(-40.36 -12.68)"/><path class="cls-4" d="M586,254.37c0-.15.76-.12,1.6-.35s1.47-.61,1.57-.49-.46.73-1.44,1S586,254.5,586,254.37Z" transform="translate(-40.36 -12.68)"/><path class="cls-4" d="M586.09,252.09c0-.14.74-.15,1.61,0s1.56.36,1.54.5-.75.15-1.62,0S586.06,252.23,586.09,252.09Z" transform="translate(-40.36 -12.68)"/><path class="cls-4" d="M594.5,252.86c0,.14-.28.28-.65.31s-.68-.07-.69-.21.28-.28.65-.31S594.49,252.72,594.5,252.86Z" transform="translate(-40.36 -12.68)"/><path class="cls-4" d="M594.59,254.28c0,.15-.43.26-1,.26s-1-.11-1-.26.43-.26,1-.26S594.59,254.14,594.59,254.28Z" transform="translate(-40.36 -12.68)"/><path class="cls-4" d="M572.68,262.65c.11.11-1.2,1.45-2.51,3.32s-2.15,3.54-2.29,3.47a13.64,13.64,0,0,1,4.8-6.79Z" transform="translate(-40.36 -12.68)"/><path class="cls-4" d="M573.14,259c.11.1-1.4,2-2.95,4.5s-2.56,4.71-2.7,4.65a21.73,21.73,0,0,1,5.65-9.15Z" transform="translate(-40.36 -12.68)"/><path class="cls-4" d="M539.59,276.68a1.87,1.87,0,0,1-.3-.32,3.72,3.72,0,0,1-.57-1.11,5.07,5.07,0,0,1,.69-4.44,5.74,5.74,0,0,1,6.25-1.95,11.89,11.89,0,0,1,3.5,2,5.69,5.69,0,0,0,1.79.86,2.21,2.21,0,0,0,1.83-.38,3.08,3.08,0,0,0,1-1.66,5.53,5.53,0,0,0,.11-2c-.16-1.32-.48-2.65-.51-3.93a9.48,9.48,0,0,1,1.76-6.48,6.25,6.25,0,0,1,3.88-2.32,4.63,4.63,0,0,1,1.25,0,1.5,1.5,0,0,1,.42.11,8.3,8.3,0,0,0-1.63.09,6.16,6.16,0,0,0-3.63,2.35,9.24,9.24,0,0,0-1.57,6.22c0,1.25.36,2.51.53,3.91a4.42,4.42,0,0,1-1.32,4.11,2.75,2.75,0,0,1-2.26.48,6.3,6.3,0,0,1-2-.94,11.45,11.45,0,0,0-3.34-1.93,5.37,5.37,0,0,0-5.82,1.71,5,5,0,0,0-.8,4.17A6.59,6.59,0,0,0,539.59,276.68Z" transform="translate(-40.36 -12.68)"/><path class="cls-4" d="M616,277.61s-.15,0-.42,0a1.38,1.38,0,0,0-1,.59,1.29,1.29,0,0,0,0,1.66,2,2,0,0,0,2.2.47,2.93,2.93,0,0,0,1.55-2.37,7.9,7.9,0,0,0-.64-3.44,6.08,6.08,0,0,0-2.17-3.1,3.06,3.06,0,0,0-1.89-.39,12.91,12.91,0,0,0-2.09.46,6,6,0,0,1-2.25.3,2.89,2.89,0,0,1-2-1.05,5.37,5.37,0,0,1-.94-4c.15-1.3.44-2.48.46-3.59a7.37,7.37,0,0,0-.6-3,8.19,8.19,0,0,0-2.8-3.45c-.89-.59-1.47-.78-1.45-.83s.15,0,.42.11a6.07,6.07,0,0,1,1.14.56,7.92,7.92,0,0,1,3,3.46,7.65,7.65,0,0,1,.69,3.16c0,1.17-.29,2.38-.41,3.63a4.93,4.93,0,0,0,.85,3.62,2.41,2.41,0,0,0,1.66.87,6.09,6.09,0,0,0,2.07-.29,12.89,12.89,0,0,1,2.17-.48,3.58,3.58,0,0,1,2.2.48,6.37,6.37,0,0,1,2.36,3.36,8,8,0,0,1,.61,3.66,3.3,3.3,0,0,1-1.82,2.66,2.26,2.26,0,0,1-2.57-.63,1.44,1.44,0,0,1-.32-1.1,1.67,1.67,0,0,1,.39-.87,1.42,1.42,0,0,1,1.14-.56A.72.72,0,0,1,616,277.61Z" transform="translate(-40.36 -12.68)"/><path class="cls-4" d="M534.31,294s.13.07.39.07a1.11,1.11,0,0,0,.89-.58,1,1,0,0,0,.14-.74,1.11,1.11,0,0,0-.55-.69,1.72,1.72,0,0,0-2.09.32,3.83,3.83,0,0,0-1,2.61,2.67,2.67,0,0,0,.39,1.48,2.2,2.2,0,0,0,1.28.91,3.06,3.06,0,0,0,3.19-1,5.73,5.73,0,0,0,1.23-3.65,29.88,29.88,0,0,0-.38-4.05,10.83,10.83,0,0,1,.09-3.9,6.63,6.63,0,0,1,1.78-3.06,9.39,9.39,0,0,1,2.5-1.78,17.62,17.62,0,0,1,4.18-1.35,9,9,0,0,1,1.59-.26,9.58,9.58,0,0,1-1.54.45,19.68,19.68,0,0,0-4.06,1.49A9.19,9.19,0,0,0,540,282a6.17,6.17,0,0,0-1.62,2.88,10.49,10.49,0,0,0-.06,3.72,28.07,28.07,0,0,1,.4,4.12,6.27,6.27,0,0,1-1.36,4,3.78,3.78,0,0,1-1.73,1.14,3.6,3.6,0,0,1-2,0,2.67,2.67,0,0,1-1.54-1.14,3,3,0,0,1-.43-1.73,4.17,4.17,0,0,1,1.17-2.87,2,2,0,0,1,2.49-.3,1.38,1.38,0,0,1,.64.89,1.29,1.29,0,0,1-1.28,1.47A.55.55,0,0,1,534.31,294Z" transform="translate(-40.36 -12.68)"/><path class="cls-4" d="M569,246.53s-.06-.15-.17-.4a1.72,1.72,0,0,0-.83-.79,2.83,2.83,0,0,0-1.83-.11,2,2,0,0,0-1.53,1.65c-.32,1.77,1.73,4,4.18,3.58a6.83,6.83,0,0,0,3.4-1.64,19.38,19.38,0,0,0,2.78-3.15,18.92,18.92,0,0,1,2.88-3.22,7.05,7.05,0,0,1,3.69-1.69,5.55,5.55,0,0,1,3.56.93,7.55,7.55,0,0,1,2.22,2.3,12,12,0,0,1,1.51,4.31c.09.53.13.94.16,1.22a1.23,1.23,0,0,1,0,.44s-.13-.58-.36-1.62a12.78,12.78,0,0,0-1.62-4.16,7.36,7.36,0,0,0-2.14-2.13,5.17,5.17,0,0,0-3.28-.81,6.56,6.56,0,0,0-3.41,1.61,18.51,18.51,0,0,0-2.8,3.13,19.27,19.27,0,0,1-2.86,3.23,7.34,7.34,0,0,1-3.67,1.73,4.14,4.14,0,0,1-3.49-1.13,3.41,3.41,0,0,1-1.11-3,2.14,2.14,0,0,1,.68-1.28,2.61,2.61,0,0,1,1.14-.59,2.87,2.87,0,0,1,2,.21,1.69,1.69,0,0,1,.84.93A1.13,1.13,0,0,1,569,246.53Z" transform="translate(-40.36 -12.68)"/><path class="cls-9" d="M584.3,250a.75.75,0,0,1-.09-.2,1.73,1.73,0,0,0-.26-.55,3.72,3.72,0,0,0-1.86-1.35,9.89,9.89,0,0,0-3.68-.52,8.9,8.9,0,0,0-2.28.35A7.37,7.37,0,0,0,573.9,249a17.36,17.36,0,0,0-3.95,4.48,10.42,10.42,0,0,0-.72,1.46,4.3,4.3,0,0,1-.92,1.54,7.13,7.13,0,0,1-3.15,1.89,13.63,13.63,0,0,1-1.84.37,8.05,8.05,0,0,0-1.75.6,7.28,7.28,0,0,0-2.88,2.41,6.27,6.27,0,0,0-1.05,3.71,25.83,25.83,0,0,0,.49,4.12,13,13,0,0,1,.19,4.26,6,6,0,0,1-2,3.65c-2.06,1.87-4.64,2.62-6.45,4.22a6.48,6.48,0,0,0-2,2.75,4.19,4.19,0,0,0,.27,3.13c.44,1,1.06,1.84,1.48,2.79a4.65,4.65,0,0,1,.44,3,3.94,3.94,0,0,1-1.65,2.15,19.15,19.15,0,0,0-1.86,1.42,4,4,0,0,0-1.14,3.35,11.8,11.8,0,0,0,.45,2.33,5.22,5.22,0,0,1,.21.81s0-.06-.09-.19-.13-.33-.22-.59a11.09,11.09,0,0,1-.55-2.34,5,5,0,0,1,.09-1.75,3.74,3.74,0,0,1,1-1.83,19,19,0,0,1,1.87-1.47,3.58,3.58,0,0,0,1.49-2,4.3,4.3,0,0,0-.45-2.7c-.4-.9-1-1.77-1.5-2.78a4.6,4.6,0,0,1-.31-3.45,6.93,6.93,0,0,1,2.14-3c1.91-1.68,4.49-2.45,6.42-4.22a5.64,5.64,0,0,0,1.83-3.36,12.6,12.6,0,0,0-.19-4.09,25.88,25.88,0,0,1-.5-4.21,6.73,6.73,0,0,1,1.15-4,7.74,7.74,0,0,1,3.09-2.57,8.87,8.87,0,0,1,1.86-.63,13.51,13.51,0,0,0,1.81-.35,6.86,6.86,0,0,0,3-1.74,3.93,3.93,0,0,0,.83-1.39,10.3,10.3,0,0,1,.77-1.52,17.65,17.65,0,0,1,4.09-4.55,7.6,7.6,0,0,1,2.36-1.32,8.88,8.88,0,0,1,2.38-.32,9.67,9.67,0,0,1,3.75.62,3.62,3.62,0,0,1,1.88,1.49,1.79,1.79,0,0,1,.23.58A.6.6,0,0,1,584.3,250Z" transform="translate(-40.36 -12.68)"/><g class="cls-13"><path d="M543.83,398.32c-5.55-14.56-5.73-31.2-2.33-46.4-.82,8.11.44,16.16,2.13,24.14,1.58,7.48,3.49,7.56,2.13,15.88a20,20,0,0,1-.86,3.32Z" transform="translate(-40.36 -12.68)"/></g><path class="cls-6" d="M559,449.92s-38.29,10.59-39.83,11.13c-2.31.82-1.92,9.27,1.67,9.14,1.7-.07,29.41,1,32.91.81s12.93-3.94,12.93-3.94Z" transform="translate(-40.36 -12.68)"/><path class="cls-4" d="M543,464.53c-.2,0-.46-2-1.69-4.11s-2.83-3.38-2.71-3.53,2,.93,3.26,3.21S543.17,464.54,543,464.53Z" transform="translate(-40.36 -12.68)"/><path class="cls-4" d="M547,462.72c-.19,0-.58-1.78-1.6-3.78s-2.22-3.4-2.08-3.53,1.6,1.12,2.66,3.24S547.16,462.71,547,462.72Z" transform="translate(-40.36 -12.68)"/><path class="cls-4" d="M550.74,461.71c-.19,0,0-1.92-.89-4s-2.22-3.44-2.09-3.58,1.8,1,2.68,3.34S550.9,461.77,550.74,461.71Z" transform="translate(-40.36 -12.68)"/><path class="cls-4" d="M550.06,456.77a7.14,7.14,0,0,1-.41-2.85,13.89,13.89,0,0,1,.39-3.12,13.08,13.08,0,0,1,.57-1.78,2.11,2.11,0,0,1,.61-.94,1,1,0,0,1,1.32.07,1.68,1.68,0,0,1,.51,1.08,7,7,0,0,1,.05,1,8.54,8.54,0,0,1-.24,1.87,11.31,11.31,0,0,1-1.18,2.93,7.75,7.75,0,0,1-1.72,2.31c-.08-.07.56-1,1.32-2.52a12.58,12.58,0,0,0,1-2.85,8.92,8.92,0,0,0,.18-1.74c0-.59,0-1.33-.35-1.61a.38.38,0,0,0-.51,0,1.61,1.61,0,0,0-.42.67,13.41,13.41,0,0,0-.58,1.68,14.88,14.88,0,0,0-.5,3C550,455.67,550.17,456.75,550.06,456.77Z" transform="translate(-40.36 -12.68)"/><path class="cls-4" d="M550.11,456.38a5.34,5.34,0,0,1,2.47-.4,11.33,11.33,0,0,1,2.72.33,6,6,0,0,1,1.56.58,1.6,1.6,0,0,1,.87,1.75,2,2,0,0,1-1.38,1.37,3.56,3.56,0,0,1-1.72,0,6.66,6.66,0,0,1-2.49-1.22,7,7,0,0,1-1.78-1.76,16.86,16.86,0,0,1,2,1.39,6.84,6.84,0,0,0,2.35,1,3,3,0,0,0,1.42,0,1.28,1.28,0,0,0,.93-.91,1,1,0,0,0-.57-1.07,5.91,5.91,0,0,0-1.38-.54,13.35,13.35,0,0,0-2.58-.45C551.07,456.33,550.13,456.48,550.11,456.38Z" transform="translate(-40.36 -12.68)"/><path class="cls-4" d="M537.12,464.94c-.19,0,0-1.66-.75-3.46s-2-2.85-1.88-3,1.67.75,2.47,2.75S537.28,465,537.12,464.94Z" transform="translate(-40.36 -12.68)"/><path class="cls-4" d="M563.84,466.7a7.75,7.75,0,0,1-1.48.7,33,33,0,0,1-4.26,1.32,60.92,60.92,0,0,1-14.62,1.39c-5.74-.07-10.91-.33-14.66-.48l-4.44-.23a7.23,7.23,0,0,1-1.62-.18,8,8,0,0,1,1.63-.07l4.44,0,14.65.29A68.47,68.47,0,0,0,558,468.28C561.66,467.53,563.8,466.59,563.84,466.7Z" transform="translate(-40.36 -12.68)"/><path class="cls-4" d="M565,467.58c-.05.08-1.1-.53-2.87-1.3a13.35,13.35,0,0,0-7.24-1.21c-2.89.44-4.93,2.38-6.26,3.73a22.39,22.39,0,0,1-2.21,2.25,11.66,11.66,0,0,1,1.87-2.56,15.18,15.18,0,0,1,2.54-2.37,9.06,9.06,0,0,1,4-1.68,12.65,12.65,0,0,1,7.53,1.43A9.65,9.65,0,0,1,565,467.58Z" transform="translate(-40.36 -12.68)"/><path class="cls-4" d="M526.56,469.23c-.07,0,.26-.55.56-1.44a7,7,0,0,0-1.27-6.86c-.6-.73-1.08-1.09-1-1.16s.61.2,1.32.91a6.54,6.54,0,0,1,1.33,7.24C527.05,468.83,526.61,469.27,526.56,469.23Z" transform="translate(-40.36 -12.68)"/><path class="cls-9" d="M566.52,410.36h0a1.24,1.24,0,0,1,1.22-1.24l35.56-.45,14-43.53a3.49,3.49,0,0,1,3.4-2.4l54,1.52a3.47,3.47,0,0,1,3.14,4.69l-17,45-93.19-2.33A1.24,1.24,0,0,1,566.52,410.36Z" transform="translate(-40.36 -12.68)"/><path class="cls-12" d="M646.28,387.11c-.64-1.17-3.31-1.57-4.59-.6a3.62,3.62,0,0,0-1.68,2.16,3.06,3.06,0,0,0,1.86,3.58,3.68,3.68,0,0,0,3.8-1.43A3.5,3.5,0,0,0,646.28,387.11Z" transform="translate(-40.36 -12.68)"/></g><g id="Plant"><path class="cls-4" d="M58.2,180.44s0-.16.08-.46l.28-1.35c.27-1.21.66-3,1.15-5.19,1-4.52,2.5-11,4.32-19.07L78.5,91.31l.26-1.11L79,91.32l.32,1.4c5.63,25,10.72,47.64,14.42,64.06C95.57,165,97,171.59,98.06,176.2c.49,2.28.88,4.06,1.15,5.29l.28,1.38c.06.31.08.47.08.47s0-.15-.13-.46l-.33-1.37c-.29-1.23-.71-3-1.25-5.26-1.06-4.61-2.59-11.22-4.47-19.39-3.73-16.41-8.88-39-14.57-64l-.32-1.4H79l-14.62,63c-1.89,8-3.42,14.52-4.48,19-.54,2.22-.95,4-1.24,5.16-.15.57-.26,1-.34,1.34S58.2,180.44,58.2,180.44Z" transform="translate(-40.36 -12.68)"/><path class="cls-9" d="M58.19,199.17V183.34h42.23v15.83A18.43,18.43,0,0,1,82,217.6H76.62A18.43,18.43,0,0,1,58.19,199.17Z" transform="translate(-40.36 -12.68)"/><path class="cls-4" d="M58.19,183.34a5.6,5.6,0,0,1,.48.66c.32.49.75,1.15,1.29,2l4.65,7.27L79.8,217.29l.11.17h-.45L94.2,193.27c1.88-3.05,3.41-5.53,4.51-7.29.52-.83.93-1.48,1.25-2a5.63,5.63,0,0,1,.46-.67,3.62,3.62,0,0,1-.38.72c-.29.5-.67,1.18-1.16,2-1.06,1.79-2.54,4.3-4.37,7.38l-14.6,24.27-.22.36-.22-.36-.11-.17L64.3,193.42l-4.52-7.35-1.2-2A4.19,4.19,0,0,1,58.19,183.34Z" transform="translate(-40.36 -12.68)"/><circle class="cls-4" cx="38.53" cy="78.49" r="4.61"/><path class="cls-4" d="M78.89,12.68c.14,0,.26,17.77.26,39.68S79,92,78.89,92s-.26-17.76-.26-39.68S78.74,12.68,78.89,12.68Z" transform="translate(-40.36 -12.68)"/><path class="cls-4" d="M81.28,219.32a2,2,0,1,1-2-2A2,2,0,0,1,81.28,219.32Z" transform="translate(-40.36 -12.68)"/><path class="cls-4" d="M78.43,220.05l.32-.15a4.36,4.36,0,0,0-2,3.26,11.36,11.36,0,0,0,.34,3.93c.09.42.31.93.73.9s.55-.47.62-.84a8.57,8.57,0,0,0,.06-2.37,4.15,4.15,0,0,0,.91,2.79c.13.15.3.31.49.26s.26-.25.31-.43a10.06,10.06,0,0,0,.3-2,3.2,3.2,0,0,0,.62,1.65,1.11,1.11,0,0,0,1.58.1,1.52,1.52,0,0,0,.17-1.15,13.61,13.61,0,0,0-2.77-6.49" transform="translate(-40.36 -12.68)"/><path class="cls-6" d="M60.85,183.34s-19-21.87-16.87-22.66S63,172,63,172,48.46,139.6,51.36,137.22,69.54,166,69.54,166s-2.37-45.33,0-45.85,11.07,45.32,11.07,45.32,12.91-41.9,16.6-41.9-3.95,40.32-3.95,40.32,15.28-25.83,17.65-22.4-10.8,31.36-10.8,31.36,19.24-16.08,20-14-20.82,24.51-20.82,24.51Z" transform="translate(-40.36 -12.68)"/><path class="cls-4" d="M58.2,150.4c.13-.06,3.5,7.16,7.52,16.11s7.17,16.27,7,16.33-3.5-7.15-7.52-16.11S58.07,150.46,58.2,150.4Z" transform="translate(-40.36 -12.68)"/><path class="cls-4" d="M73.53,154.43c.14,0,.7,6.35,1.25,14.2s.87,14.23.73,14.24-.71-6.35-1.25-14.2S73.38,154.44,73.53,154.43Z" transform="translate(-40.36 -12.68)"/><path class="cls-4" d="M94.67,134.13a1.84,1.84,0,0,1-.11.52l-.42,1.44c-.4,1.32-.93,3.1-1.59,5.28-1.33,4.46-3.13,10.63-5,17.49S84.24,172,83.18,176.5c-.52,2.21-.94,4-1.26,5.37l-.35,1.46a2.1,2.1,0,0,1-.16.5,1.86,1.86,0,0,1,0-.52l.27-1.48c.23-1.28.6-3.13,1.09-5.41,1-4.55,2.43-10.82,4.26-17.7s3.69-13,5.12-17.46c.72-2.22,1.31-4,1.75-5.24l.51-1.41A1.94,1.94,0,0,1,94.67,134.13Z" transform="translate(-40.36 -12.68)"/><path class="cls-4" d="M103.81,157.5c.12.08-3.58,5.6-8.27,12.33s-8.58,12.12-8.7,12,3.59-5.6,8.27-12.33S103.69,157.41,103.81,157.5Z" transform="translate(-40.36 -12.68)"/><path class="cls-4" d="M67.25,182.88a7.41,7.41,0,0,1-1.66-1.19A47.38,47.38,0,0,1,62,178.36a44.75,44.75,0,0,1-3.24-3.7A7.46,7.46,0,0,1,57.59,173c.13-.09,2.1,2.3,4.76,5S67.35,182.76,67.25,182.88Z" transform="translate(-40.36 -12.68)"/><path class="cls-4" d="M78.77,174.19a19.37,19.37,0,0,1,.68,4.51,20.83,20.83,0,0,1,.15,4.56,20.69,20.69,0,0,1-.67-4.52A20.4,20.4,0,0,1,78.77,174.19Z" transform="translate(-40.36 -12.68)"/><path class="cls-12" d="M100.42,193.2a9,9,0,0,1-1.63.34c-1.06.19-2.59.43-4.49.69-3.8.52-9.07,1.12-14.92,1.33a95.78,95.78,0,0,1-15-.63c-1.9-.24-3.44-.5-4.48-.72a10.09,10.09,0,0,1-1.63-.39A12.11,12.11,0,0,1,60,194c1.06.16,2.59.36,4.49.56a112.6,112.6,0,0,0,14.92.47c5.83-.21,11.09-.75,14.9-1.18l4.5-.52A11.79,11.79,0,0,1,100.42,193.2Z" transform="translate(-40.36 -12.68)"/><path class="cls-12" d="M100.42,197.92a11.2,11.2,0,0,1-1.63.33c-1.06.19-2.59.43-4.49.69a145.06,145.06,0,0,1-14.92,1.33,94.57,94.57,0,0,1-15-.63c-1.9-.24-3.44-.49-4.48-.72a11,11,0,0,1-1.63-.38,9.49,9.49,0,0,1,1.66.18c1.06.17,2.59.36,4.49.56a112.6,112.6,0,0,0,14.92.47c5.83-.2,11.09-.74,14.9-1.17l4.5-.53A9.27,9.27,0,0,1,100.42,197.92Z" transform="translate(-40.36 -12.68)"/></g></svg>