<svg xmlns="http://www.w3.org/2000/svg" viewBox="0 0 692.72 417.2"><defs><style>.cls-1{fill:#e0e0e0;}.cls-2{fill:#fafafa;}.cls-3{fill:#ebebeb;}.cls-4{fill:#f5f5f5;}.cls-5{fill:#fff;}.cls-6{fill:#455a64;}.cls-7,.cls-9{fill:#e8505b;}.cls-10,.cls-8{fill:#263238;}.cls-10,.cls-9{fill-rule:evenodd;}.cls-11{opacity:0.8;}.cls-12{fill:none;}.cls-13{fill:#ffbe9d;}.cls-14{fill:#eb996e;}.cls-15{opacity:0.3;}</style></defs><g id="Background_Complete" data-name="Background Complete"><rect class="cls-1" x="39.14" y="62.13" width="74.89" height="78.06"/><rect class="cls-2" x="34.07" y="62.13" width="74.89" height="78.06"/><path class="cls-1" d="M137.35,192.46H62.42v-78.1h74.93Zm-74.89,0H137.3v-78H62.46Z" transform="translate(-28.37 -52.25)"/><rect class="cls-2" x="44.13" y="72.63" width="54.75" height="57.08"/><path class="cls-1" d="M72.51,182.33a9.11,9.11,0,0,1-1.36,1.57c-.87.92-2.1,2.17-3.48,3.53S65,190,64.1,190.85a8.57,8.57,0,0,1-1.59,1.32,9.15,9.15,0,0,1,1.35-1.57c.87-.92,2.1-2.17,3.49-3.53s2.65-2.57,3.58-3.43A8,8,0,0,1,72.51,182.33Z" transform="translate(-28.37 -52.25)"/><path class="cls-1" d="M127.26,182.19a8.22,8.22,0,0,1,1.57,1.35c.92.87,2.17,2.1,3.53,3.48s2.56,2.64,3.42,3.58a8.36,8.36,0,0,1,1.32,1.58,8.39,8.39,0,0,1-1.56-1.35c-.93-.87-2.18-2.1-3.54-3.48s-2.57-2.65-3.43-3.59A8.54,8.54,0,0,1,127.26,182.19Z" transform="translate(-28.37 -52.25)"/><path class="cls-1" d="M127.11,125a9.76,9.76,0,0,1,1.35-1.57c.87-.92,2.1-2.17,3.48-3.52s2.64-2.57,3.58-3.43a8.88,8.88,0,0,1,1.58-1.32,8.75,8.75,0,0,1-1.34,1.57c-.88.92-2.11,2.17-3.49,3.53s-2.65,2.58-3.59,3.43A8,8,0,0,1,127.11,125Z" transform="translate(-28.37 -52.25)"/><path class="cls-1" d="M72.36,125.16a8.07,8.07,0,0,1-1.58-1.35c-.92-.87-2.17-2.1-3.52-3.48s-2.57-2.64-3.43-3.57a9.12,9.12,0,0,1-1.32-1.59,8.72,8.72,0,0,1,1.57,1.35c.92.87,2.17,2.1,3.53,3.49s2.58,2.65,3.43,3.58A8.93,8.93,0,0,1,72.36,125.16Z" transform="translate(-28.37 -52.25)"/><path class="cls-1" d="M127.11,182a1.3,1.3,0,0,1,0-.28c0-.19,0-.46,0-.8,0-.71,0-1.74,0-3.08,0-2.7,0-6.63,0-11.63,0-10-.07-24.24-.11-41.29l.21.21-54.6,0h0l.24-.24c0,20.95,0,40.55,0,57.08l-.2-.21,39.53.11,11.11.05,2.94,0,.75,0h-.71l-2.9,0-11.06.05-39.66.11H72.3V182c0-16.53,0-36.13,0-57.08v-.24h.25l54.6,0h.21v.21c0,17.11-.08,31.4-.11,41.43,0,5,0,8.89,0,11.58,0,1.32,0,2.33,0,3,0,.33,0,.59,0,.77A2.39,2.39,0,0,1,127.11,182Z" transform="translate(-28.37 -52.25)"/><rect class="cls-3" x="62.38" y="92.03" width="18.27" height="18.27"/><polygon class="cls-4" points="216.37 340.32 216.37 365.6 253.35 365.6 294.13 365.6 294.13 340.32 216.37 340.32"/><polygon class="cls-1" points="213.11 333.25 213.11 340.32 296.85 340.32 296.85 333.25 253.35 333.25 213.11 333.25"/><polygon class="cls-1" points="254.98 365.6 294.13 365.6 294.13 340.32 296.85 340.32 296.85 333.25 253.35 333.25 253.35 339.67 254.98 365.6"/><rect class="cls-1" x="227.25" y="344.4" width="15.77" height="3.81"/><rect class="cls-5" x="225.22" y="352.96" width="20.25" height="8.04"/><polygon class="cls-4" points="182 376.39 182 414.96 238.41 414.96 300.63 414.96 300.63 376.39 182 376.39"/><polygon class="cls-1" points="177.02 365.6 177.02 376.39 304.78 376.39 304.78 365.6 238.41 365.6 177.02 365.6"/><polygon class="cls-1" points="240.9 414.96 300.63 414.96 300.63 376.39 304.78 376.39 304.78 365.6 238.41 365.6 238.41 375.39 240.9 414.96"/><rect class="cls-1" x="198.59" y="382.61" width="24.06" height="5.81"/><rect class="cls-5" x="195.49" y="395.68" width="30.89" height="12.26"/><rect class="cls-4" x="458.01" y="285.08" width="172.99" height="79.78"/><path class="cls-1" d="M655.26,413.35H490.34V341.52H655.26Zm-163.84-1.08H654.19V342.6H491.42Z" transform="translate(-28.37 -52.25)"/><rect class="cls-1" x="631.01" y="285.08" width="42.26" height="79.78"/><path class="cls-1" d="M490.88,363.75H654.72a.22.22,0,0,0,0-.44H490.88a.22.22,0,0,0,0,.44Z" transform="translate(-28.37 -52.25)"/><path class="cls-1" d="M573.34,363.53a178,178,0,0,0,0-21.67.22.22,0,0,0-.44,0,180.08,180.08,0,0,0,.06,21.67.17.17,0,0,0,.33,0Z" transform="translate(-28.37 -52.25)"/><path class="cls-1" d="M617.44,352.7a2.24,2.24,0,1,1-2.23-2.24A2.23,2.23,0,0,1,617.44,352.7Z" transform="translate(-28.37 -52.25)"/><path class="cls-1" d="M531.45,352.7a2.23,2.23,0,1,1-2.23-2.24A2.23,2.23,0,0,1,531.45,352.7Z" transform="translate(-28.37 -52.25)"/><path class="cls-1" d="M575,377.43a2.23,2.23,0,1,1-2.23-2.23A2.22,2.22,0,0,1,575,377.43Z" transform="translate(-28.37 -52.25)"/><polygon class="cls-1" points="478.7 364.86 469.79 414.95 474.8 414.95 491.22 364.86 478.7 364.86"/><polygon class="cls-1" points="618.77 364.86 626.22 415.04 621.21 415.04 606.24 364.86 618.77 364.86"/><polygon class="cls-1" points="652.21 364.86 660.65 415.04 655.64 415.04 639.69 364.86 652.21 364.86"/><path class="cls-1" d="M574.88,400a2.23,2.23,0,1,1-2.23-2.23A2.22,2.22,0,0,1,574.88,400Z" transform="translate(-28.37 -52.25)"/><path class="cls-1" d="M490.88,388.45H654.72a.22.22,0,0,0,0-.43H490.88a.22.22,0,0,0,0,.43Z" transform="translate(-28.37 -52.25)"/><rect class="cls-1" x="639.97" y="278.91" width="10.65" height="52.31" transform="translate(918.57 -394.08) rotate(89.7)"/><rect class="cls-4" x="640.29" y="299.83" width="16.54" height="58.3" transform="translate(945.74 -373.56) rotate(89.7)"/><path class="cls-1" d="M666.52,337a62.43,62.43,0,0,1-.28-8.28,62.21,62.21,0,0,1,.28-8.27,59.21,59.21,0,0,1,.29,8.27A59.42,59.42,0,0,1,666.52,337Z" transform="translate(-28.37 -52.25)"/><path class="cls-1" d="M669,337a62.43,62.43,0,0,1-.28-8.28,62.21,62.21,0,0,1,.28-8.27,59.21,59.21,0,0,1,.29,8.27A59.42,59.42,0,0,1,669,337Z" transform="translate(-28.37 -52.25)"/><path class="cls-1" d="M628.23,337a60.45,60.45,0,0,1-.28-8.28,60.24,60.24,0,0,1,.28-8.27,60.24,60.24,0,0,1,.28,8.27A60.45,60.45,0,0,1,628.23,337Z" transform="translate(-28.37 -52.25)"/><path class="cls-1" d="M630.68,337a60.45,60.45,0,0,1-.28-8.28,60.24,60.24,0,0,1,.28-8.27,62.21,62.21,0,0,1,.28,8.27A62.43,62.43,0,0,1,630.68,337Z" transform="translate(-28.37 -52.25)"/><path class="cls-1" d="M636,329c0-.16,5.88-.29,13.14-.29s13.13.13,13.13.29-5.88.29-13.13.29S636,329.14,636,329Z" transform="translate(-28.37 -52.25)"/><rect class="cls-3" x="658.33" y="279.36" width="10.65" height="71.94" transform="translate(947.1 -402.23) rotate(89.7)"/><path class="cls-1" d="M689.35,319.14a3.45,3.45,0,1,1,3.4-3.44A3.42,3.42,0,0,1,689.35,319.14Z" transform="translate(-28.37 -52.25)"/><rect class="cls-1" x="654.86" y="291.62" width="2.13" height="48.15" transform="translate(943.25 -392.47) rotate(90)"/><path class="cls-3" d="M689.35,120.74h0a8.48,8.48,0,0,1-8.48-8.48h0a8.47,8.47,0,0,1,8.48-8.48h0a8.48,8.48,0,0,1,8.48,8.48h0A8.48,8.48,0,0,1,689.35,120.74Z" transform="translate(-28.37 -52.25)"/><path class="cls-5" d="M684.83,115.1a5.27,5.27,0,0,0,8.11-4.68,4,4,0,0,0,.93-1,4.23,4.23,0,0,1-1.07.29,1.91,1.91,0,0,0,.82-1,3.75,3.75,0,0,1-1.18.45,1.86,1.86,0,0,0-3.16,1.69,5.23,5.23,0,0,1-3.82-1.93,1.85,1.85,0,0,0,.57,2.47,1.85,1.85,0,0,1-.84-.23,1.86,1.86,0,0,0,1.49,1.84,1.82,1.82,0,0,1-.84,0,1.86,1.86,0,0,0,1.73,1.29A3.74,3.74,0,0,1,684.83,115.1Z" transform="translate(-28.37 -52.25)"/><path class="cls-1" d="M662.5,108.66h0a12.08,12.08,0,0,1-12.08-12.08h0A12.08,12.08,0,0,1,662.5,84.5h0a12.07,12.07,0,0,1,12.07,12.08h0A12.07,12.07,0,0,1,662.5,108.66Z" transform="translate(-28.37 -52.25)"/><path class="cls-5" d="M660.66,103.88h2.94V96.52h2l.22-2.47H663.6v-1.4c0-.58.11-.81.67-.81h1.6V89.28h-2c-2.19,0-3.17,1-3.17,2.81v2h-1.53v2.5h1.53Z" transform="translate(-28.37 -52.25)"/><path class="cls-4" d="M689.35,83.07h0a15.41,15.41,0,0,1-15.41-15.41h0a15.41,15.41,0,0,1,15.41-15.41h0a15.41,15.41,0,0,1,15.41,15.41h0A15.41,15.41,0,0,1,689.35,83.07Z" transform="translate(-28.37 -52.25)"/><path class="cls-5" d="M684.42,69.09a.36.36,0,0,0,.52-.26l.22-.85a.51.51,0,0,0-.15-.58,3,3,0,0,1-.7-2.07,5,5,0,0,1,5.18-5c2.82,0,4.37,1.72,4.37,4,0,3-1.34,5.59-3.33,5.59a1.63,1.63,0,0,1-1.66-2,22.17,22.17,0,0,0,.93-3.73,1.41,1.41,0,0,0-1.42-1.58c-1.12,0-2,1.17-2,2.73a4,4,0,0,0,.34,1.66s-1.15,4.87-1.35,5.73a11.87,11.87,0,0,0,0,4,.14.14,0,0,0,.25.06,10.91,10.91,0,0,0,1.9-3.44c.13-.46.74-2.89.74-2.89a3,3,0,0,0,2.57,1.31c3.38,0,5.67-3.08,5.67-7.2,0-3.12-2.64-6-6.65-6-5,0-7.52,3.58-7.52,6.56C682.26,66.88,683,68.49,684.42,69.09Z" transform="translate(-28.37 -52.25)"/></g><g id="Floor"><path class="cls-6" d="M695.67,467.21c0,.14-143.58.26-320.65.26s-320.69-.12-320.69-.26S197.88,467,375,467,695.67,467.07,695.67,467.21Z" transform="translate(-28.37 -52.25)"/></g><g id="Dashboard"><rect class="cls-2" x="87.29" y="15.41" width="466.9" height="329.39" rx="8.69"/><rect class="cls-7" x="87.1" y="15.75" width="43.36" height="329.31" rx="9.65"/><path class="cls-8" d="M524.18,98.72l.22-.13a1.83,1.83,0,0,0,.54-.5,4.4,4.4,0,0,0,.74-2.58,8.14,8.14,0,0,1,.35-1.94,2.68,2.68,0,0,1,1.53-1.74,2.73,2.73,0,0,1,2.56.33,3.88,3.88,0,0,1,1.21,2.46,10.4,10.4,0,0,1,.11,1.23,2.73,2.73,0,0,0,.13,1.06,4.06,4.06,0,0,0,1.25,1.63l.49.41h-.63c-2.56,0-4.77-.11-6.24-.16l-2.26-.07,2.51-.06c1.53,0,3.57-.16,6-.16l-.13.4a4.39,4.39,0,0,1-1.42-1.82,3.08,3.08,0,0,1-.17-1.22,8.93,8.93,0,0,0-.11-1.16,3.49,3.49,0,0,0-1-2.17,2.18,2.18,0,0,0-3.42,1.18,8.58,8.58,0,0,0-.4,1.84,6.16,6.16,0,0,1-.3,1.59,3.09,3.09,0,0,1-.63,1.07,1.66,1.66,0,0,1-.63.46.33.33,0,0,1-.19,0Z" transform="translate(-28.37 -52.25)"/><path class="cls-9" d="M529,93.06a1.83,1.83,0,1,0,1.83-1.83A1.83,1.83,0,0,0,529,93.06Z" transform="translate(-28.37 -52.25)"/><path class="cls-10" d="M527.29,99.88h2.51a1.24,1.24,0,0,1-1.37,1.28A1,1,0,0,1,527.29,99.88Z" transform="translate(-28.37 -52.25)"/><rect class="cls-7" x="514.34" y="34.67" width="19.34" height="19.34" rx="4.51"/><path class="cls-2" d="M143.41,138.38a.36.36,0,0,1-.24-.09L137,132.66l-6.21,5.63a.36.36,0,0,1-.49,0,.35.35,0,0,1,0-.49l6.45-5.84a.35.35,0,0,1,.47,0l6.45,5.84a.35.35,0,0,1,0,.49A.33.33,0,0,1,143.41,138.38Z" transform="translate(-28.37 -52.25)"/><path class="cls-2" d="M141.64,143.3h-9.37a.34.34,0,0,1-.34-.34v-6.52a.35.35,0,0,1,.34-.35.35.35,0,0,1,.35.35v6.17h8.67v-6.17a.35.35,0,0,1,.35-.35.35.35,0,0,1,.34.35V143A.34.34,0,0,1,141.64,143.3Z" transform="translate(-28.37 -52.25)"/><path class="cls-2" d="M143.06,187.75H130.85a.35.35,0,0,1-.35-.35v-7.78a1.75,1.75,0,0,1,1.76-1.75h3.17a2,2,0,0,1,1.82,1.21l.55,1.3h3.85a1.75,1.75,0,0,1,1.75,1.75v5.27A.34.34,0,0,1,143.06,187.75Zm-11.86-.69h11.51v-4.93a1.06,1.06,0,0,0-1.06-1.06h-4.09a.34.34,0,0,1-.31-.21l-.64-1.52a1.28,1.28,0,0,0-1.18-.78h-3.17a1.05,1.05,0,0,0-1.06,1.06Z" transform="translate(-28.37 -52.25)"/><rect class="cls-2" x="92.86" y="157.8" width="42.97" height="35.99" rx="3.18"/><path class="cls-7" d="M133.5,234.26a.9.9,0,0,1-.54-.18.92.92,0,0,1-.37-.89l.51-3.24a.24.24,0,0,0-.06-.2l-2.32-2.33a.89.89,0,0,1-.23-.93.91.91,0,0,1,.73-.63l3.25-.52a.26.26,0,0,0,.17-.12l1.49-2.93a1,1,0,0,1,1.65,0l1.49,2.93a.24.24,0,0,0,.17.12l3.24.52a.91.91,0,0,1,.74.62.93.93,0,0,1-.23.94l-2.32,2.33a.23.23,0,0,0-.06.2l.51,3.24a.92.92,0,0,1-.37.89.9.9,0,0,1-1,.08l-2.93-1.49a.26.26,0,0,0-.21,0l-2.93,1.49A.87.87,0,0,1,133.5,234.26ZM137,232a1,1,0,0,1,.42.1l2.93,1.49a.21.21,0,0,0,.24,0,.22.22,0,0,0,.09-.22l-.51-3.24a.94.94,0,0,1,.26-.8l2.32-2.33a.23.23,0,0,0,.06-.23.25.25,0,0,0-.19-.16l-3.24-.51a.94.94,0,0,1-.68-.5l-1.49-2.92h0a.23.23,0,0,0-.41,0l-1.5,2.92a.91.91,0,0,1-.67.5l-3.25.51a.23.23,0,0,0-.12.39l2.32,2.33a.93.93,0,0,1,.26.79l-.51,3.25a.2.2,0,0,0,.09.22.21.21,0,0,0,.24,0l2.93-1.49A1,1,0,0,1,137,232Z" transform="translate(-28.37 -52.25)"/><path class="cls-2" d="M143.76,278H130.05a.35.35,0,0,1-.34-.35V269a.35.35,0,0,1,.34-.35h13.71a.35.35,0,0,1,.35.35v8.64A.35.35,0,0,1,143.76,278Zm-13.36-.69h13v-7.95h-13Z" transform="translate(-28.37 -52.25)"/><path class="cls-2" d="M137.08,275.52a.32.32,0,0,1-.23-.09l-7-6.21a.36.36,0,0,1,0-.49.35.35,0,0,1,.49,0l6.79,6,6.46-6a.35.35,0,0,1,.47.51l-6.69,6.22A.33.33,0,0,1,137.08,275.52Z" transform="translate(-28.37 -52.25)"/><path class="cls-2" d="M130.25,277.57a.31.31,0,0,1-.24-.1.34.34,0,0,1,0-.49l4.17-4.17a.34.34,0,0,1,.49,0,.36.36,0,0,1,0,.49l-4.17,4.17A.35.35,0,0,1,130.25,277.57Z" transform="translate(-28.37 -52.25)"/><path class="cls-2" d="M143.85,277.86a.34.34,0,0,1-.24-.1l-4.46-4.46a.36.36,0,0,1,0-.49.34.34,0,0,1,.49,0l4.46,4.46a.36.36,0,0,1,0,.49A.35.35,0,0,1,143.85,277.86Z" transform="translate(-28.37 -52.25)"/><path class="cls-7" d="M284.39,108.61C291.52,103,297.81,96.16,306,92.28c14-6.68,30.63-3.29,45.62.84s30.83,8.92,45.8,4.67c13.86-3.93,24.9-16.12,28-30.13H168c3.43,28.45,24.88,51.92,53.39,56.85l1.79.29A81.17,81.17,0,0,0,284.39,108.61Z" transform="translate(-28.37 -52.25)"/><path class="cls-7" d="M459.06,94.05c7.25,6.58,17.82,8.37,27.54,7.25,6.54-.76,13.19-2.85,17.92-7.43a23,23,0,0,0,6.12-20.59,25,25,0,0,0-1.85-5.62H455.2C449.27,75.41,451.83,87.49,459.06,94.05Z" transform="translate(-28.37 -52.25)"/><g class="cls-11"><path class="cls-5" d="M284.39,108.61C291.52,103,297.81,96.16,306,92.28c14-6.68,30.63-3.29,45.62.84s30.83,8.92,45.8,4.67c13.86-3.93,24.9-16.12,28-30.13H168c3.43,28.45,24.88,51.92,53.39,56.85l1.79.29A81.17,81.17,0,0,0,284.39,108.61Z" transform="translate(-28.37 -52.25)"/><path class="cls-5" d="M459.06,94.05c7.25,6.58,17.82,8.37,27.54,7.25,6.54-.76,13.19-2.85,17.92-7.43a23,23,0,0,0,6.12-20.59,25,25,0,0,0-1.85-5.62H455.2C449.27,75.41,451.83,87.49,459.06,94.05Z" transform="translate(-28.37 -52.25)"/></g><path class="cls-12" d="M512.54,92.88a3.88,3.88,0,0,1,1,.25l.7-.59,1.21.92-.38.84a3.59,3.59,0,0,1,.5.85l.91.08.21,1.51-.86.32a3.82,3.82,0,0,1-.26,1l.59.71-.92,1.2-.83-.38a3.87,3.87,0,0,1-.86.5l-.08.92-1.5.2-.32-.86a3.88,3.88,0,0,1-1-.25l-.7.59-1.21-.92.38-.84a3.8,3.8,0,0,1-.5-.85l-.91-.08-.21-1.51.86-.32a3.43,3.43,0,0,1,.26-1l-.59-.71.92-1.21.83.38a3.83,3.83,0,0,1,.86-.49l.08-.92,1.5-.2.32.86ZM512.09,95a1.63,1.63,0,1,0,1.64,1.25A1.63,1.63,0,0,0,512.09,95Z" transform="translate(-28.37 -52.25)"/><path class="cls-8" d="M512.09,95s.14-.08.42,0a1.64,1.64,0,0,1,1,.55,1.78,1.78,0,0,1,.36,1.7,1.84,1.84,0,0,1-3.47.12,1.77,1.77,0,0,1,.25-1.73,1.58,1.58,0,0,1,1-.61c.27-.05.42,0,.42,0s-.65.07-1.13.79a1.46,1.46,0,0,0-.12,1.36,1.41,1.41,0,0,0,2.64-.08,1.48,1.48,0,0,0-.21-1.36A2.31,2.31,0,0,0,512.09,95Z" transform="translate(-28.37 -52.25)"/><path class="cls-8" d="M512.54,92.88a4.82,4.82,0,0,1-.39-.83l.08,0-1.5.25.11-.11-.06.92v.08l-.08,0a3.65,3.65,0,0,0-.81.49l-.07.06-.09,0-.85-.37.21,0-.9,1.22v-.24l.6.7.08.09-.05.11a3.57,3.57,0,0,0-.23.91v.12l-.12,0-.86.32.14-.23c.06.48.14,1,.21,1.51l-.2-.2.91.08h.14l.05.13a4.08,4.08,0,0,0,.47.8l.09.11-.06.13-.38.84-.07-.29,1.21.92h-.3c.23-.18.47-.38.71-.59l.11-.09.13.06a3.6,3.6,0,0,0,.9.23h0l.19.16h0v0l0,0,0,.11.08.22.16.43-.25-.16,1.5-.2-.2.21c0-.3,0-.61.08-.91v-.14l.13-.06a3.6,3.6,0,0,0,.81-.46l.11-.09.13.06.83.39-.28.06.93-1.2v.28l-.58-.71-.09-.1.05-.12a3.27,3.27,0,0,0,.25-.9l0-.13.11,0,.86-.31-.12.21c-.07-.53-.13-1-.19-1.5l.16.15-.91-.09h-.1l0-.09a3.67,3.67,0,0,0-.47-.83l0-.08,0-.08c.15-.3.28-.57.4-.83l0,.17-1.18-.94h.13l-.72.57,0,0,0,0c-.6-.26-.94-.29-.93-.32a.54.54,0,0,1,.25,0,3.06,3.06,0,0,1,.74.18h-.08l.68-.61.06-.06.08.06,1.23.89.09.06-.05.11c-.12.26-.24.54-.37.84l0-.16a3.63,3.63,0,0,1,.54.88l-.15-.1.92.07h.14l0,.15c.07.47.15,1,.22,1.5l0,.15-.15.06-.86.33.13-.17a3.83,3.83,0,0,1-.26,1l0-.23.59.7.12.14-.11.14-.91,1.21-.11.15-.17-.08-.84-.37.24,0a4.09,4.09,0,0,1-.91.53l.15-.2c0,.3,0,.61-.08.92l0,.19-.18,0-1.51.21-.19,0-.07-.18-.16-.42-.08-.22,0-.11,0,0v0h0l.2.16h0a4.13,4.13,0,0,1-1-.27l.25,0-.71.59-.15.12-.15-.11-1.2-.92-.15-.12.08-.17.38-.83,0,.24a4.06,4.06,0,0,1-.53-.91l.19.14-.91-.09-.18,0,0-.17c-.07-.52-.14-1-.2-1.51l0-.17.16-.06.86-.31-.13.17a3.83,3.83,0,0,1,.27-1l0,.2-.58-.71-.1-.11.1-.12.93-1.2.09-.11.12.06.83.39-.17,0a3.69,3.69,0,0,1,.9-.5l-.08.11c0-.32.06-.63.09-.91l0-.1h.09l1.51-.16h.06l0,0A4.59,4.59,0,0,1,512.54,92.88Z" transform="translate(-28.37 -52.25)"/><path class="cls-8" d="M574.53,397.05l.26,0c.17,0,.42,0,.76-.07a7.86,7.86,0,0,0,2.87-.95,8,8,0,0,0,3.34-3.61,7.82,7.82,0,0,0,.74-3.11c0-1.15,0-2.39,0-3.7,0-10.52,0-26,0-46,0-39.95-.05-97.75-.08-169.17q0-26.79,0-56.06V76.91a10.17,10.17,0,0,0-.43-3.74,7.79,7.79,0,0,0-2-3.14,7.92,7.92,0,0,0-3.25-1.87,13,13,0,0,0-3.81-.3H565L431,67.88l-307.23,0a7.73,7.73,0,0,0-4.63,1.51,7.81,7.81,0,0,0-2.84,3.94,17.47,17.47,0,0,0-.36,5V222.15c0,51.4,0,101,0,148.19v17.6a15.17,15.17,0,0,0,.08,2.15,8,8,0,0,0,.57,2,7.83,7.83,0,0,0,6.55,4.67c1.4.06,2.87,0,4.3,0h34l65.09,0,116.83,0,231.19.17-231.19.17-116.83,0-65.09,0h-34c-1.44,0-2.86,0-4.34,0a8.24,8.24,0,0,1-6.91-4.93,8,8,0,0,1-.6-2.15,15,15,0,0,1-.09-2.21v-17.6c0-47.22,0-96.79,0-148.19q0-38.53,0-78.39v-68a9,9,0,0,1,.38-2.58,8.32,8.32,0,0,1,7.93-5.79l307.23,0,134.08,0h7.84a13,13,0,0,1,3.92.33,8.21,8.21,0,0,1,5.51,5.26,10.38,10.38,0,0,1,.44,3.86v37.45q0,29.24,0,56.06c0,71.42-.06,129.22-.08,169.17,0,20,0,35.48,0,46,0,1.31,0,2.55,0,3.71a7.93,7.93,0,0,1-.76,3.13,8.06,8.06,0,0,1-3.39,3.62,7.87,7.87,0,0,1-2.89.94A8.71,8.71,0,0,1,574.53,397.05Z" transform="translate(-28.37 -52.25)"/><path class="cls-5" d="M137.16,104.55h0a7.91,7.91,0,0,1-7.91-7.9h0a7.91,7.91,0,0,1,7.91-7.91h0a7.91,7.91,0,0,1,7.9,7.91h0A7.9,7.9,0,0,1,137.16,104.55Z" transform="translate(-28.37 -52.25)"/><path class="cls-8" d="M236.63,306.48h0a17.73,17.73,0,0,1-17.73-17.74h0A17.73,17.73,0,0,1,236.63,271h0a17.74,17.74,0,0,1,17.74,17.74h0A17.74,17.74,0,0,1,236.63,306.48Z" transform="translate(-28.37 -52.25)"/><path class="cls-5" d="M231,290.39a.42.42,0,0,0,.6-.3c.06-.22.19-.75.25-1a.59.59,0,0,0-.17-.67,3.49,3.49,0,0,1-.8-2.37,5.74,5.74,0,0,1,6-5.8c3.25,0,5,2,5,4.64,0,3.49-1.54,6.43-3.84,6.43a1.88,1.88,0,0,1-1.91-2.33,25.42,25.42,0,0,0,1.07-4.29,1.62,1.62,0,0,0-1.63-1.82c-1.29,0-2.33,1.34-2.33,3.13a4.77,4.77,0,0,0,.38,1.92L232,294.54a13.5,13.5,0,0,0,0,4.6.16.16,0,0,0,.29.07,12.91,12.91,0,0,0,2.18-4c.15-.54.85-3.33.85-3.33a3.45,3.45,0,0,0,3,1.51c3.89,0,6.53-3.55,6.53-8.29,0-3.59-3-6.93-7.66-6.93-5.75,0-8.65,4.12-8.65,7.55C228.48,287.85,229.27,289.7,231,290.39Z" transform="translate(-28.37 -52.25)"/><path class="cls-8" d="M224.87,315.81v15h-1.55V317.18h-3.54v-1.37Z" transform="translate(-28.37 -52.25)"/><path class="cls-8" d="M238.64,326.41c0,2.55-1.78,4.55-5.45,4.55a7.72,7.72,0,0,1-5.38-1.94l.75-1.22a6.49,6.49,0,0,0,4.61,1.74c2.55,0,3.9-1.24,3.9-3.07s-1.2-3.13-5-3.13h-3.19l.77-7.53h8.22v1.37H231l-.51,4.79h1.93C236.92,322,238.64,323.75,238.64,326.41Z" transform="translate(-28.37 -52.25)"/><path class="cls-8" d="M240.59,323.32c0-4.79,2.51-7.64,6-7.64s6,2.85,6,7.64-2.54,7.64-6,7.64S240.59,328.1,240.59,323.32Zm10.41,0c0-4-1.8-6.22-4.42-6.22s-4.42,2.21-4.42,6.22,1.8,6.22,4.42,6.22S251,327.33,251,323.32Z" transform="translate(-28.37 -52.25)"/><path class="cls-8" d="M232,340.87V346h-.53v-4.7h-1.22v-.47Z" transform="translate(-28.37 -52.25)"/><path class="cls-8" d="M236.74,344.52c0,.88-.61,1.56-1.87,1.56a2.66,2.66,0,0,1-1.86-.66l.26-.42a2.22,2.22,0,0,0,1.59.6c.88,0,1.34-.43,1.34-1.06s-.41-1.08-1.73-1.08h-1.1l.27-2.59h2.83v.47H234.1l-.17,1.65h.66C236.15,343,236.74,343.6,236.74,344.52Z" transform="translate(-28.37 -52.25)"/><path class="cls-8" d="M237.27,342.24c0-.85.47-1.41,1.17-1.41s1.16.56,1.16,1.41-.48,1.4-1.16,1.4S237.27,343.08,237.27,342.24Zm2,0c0-.68-.31-1.07-.79-1.07s-.8.4-.8,1.07.31,1.07.8,1.07S239.23,342.91,239.23,342.24Zm2.34-1.37H242L238.47,346H238Zm-1.13,3.8c0-.84.48-1.4,1.16-1.4s1.17.56,1.17,1.4-.47,1.41-1.17,1.41S240.44,345.52,240.44,344.67Zm2,0c0-.66-.31-1.07-.8-1.07s-.79.4-.79,1.07.31,1.08.79,1.08S242.4,345.34,242.4,344.67Z" transform="translate(-28.37 -52.25)"/><path class="cls-7" d="M322.74,306.27h0a17.64,17.64,0,0,1-17.64-17.64h0A17.64,17.64,0,0,1,322.74,271h0a17.63,17.63,0,0,1,17.63,17.63h0A17.63,17.63,0,0,1,322.74,306.27Z" transform="translate(-28.37 -52.25)"/><path class="cls-5" d="M322.74,277.39A11.25,11.25,0,1,0,334,288.63,11.24,11.24,0,0,0,322.74,277.39Zm0,2a9.24,9.24,0,0,1,5.66,1.94,11.37,11.37,0,0,1-4.67,3.45,42.28,42.28,0,0,0-3.27-5.1A9.49,9.49,0,0,1,322.74,279.35Zm-4.19,1a40.82,40.82,0,0,1,3.31,5,30.09,30.09,0,0,1-8.13,1A9.29,9.29,0,0,1,318.55,280.36Zm-5.1,8.27c0-.08,0-.16,0-.24a31.19,31.19,0,0,0,9.32-1.23c.22.44.43.89.63,1.34a14.47,14.47,0,0,0-7.81,6.07A9.26,9.26,0,0,1,313.45,288.63Zm9.29,9.29a9.22,9.22,0,0,1-5.7-2,12.63,12.63,0,0,1,7.12-5.65,37.67,37.67,0,0,1,1.91,7A9.25,9.25,0,0,1,322.74,297.92Zm5.15-1.57a38.23,38.23,0,0,0-1.8-6.46,18.6,18.6,0,0,1,5.81.19A9.27,9.27,0,0,1,327.89,296.35ZM325.34,288c-.22-.53-.46-1.05-.71-1.57a13.3,13.3,0,0,0,5.19-3.82,9.19,9.19,0,0,1,2.18,5.46A20.19,20.19,0,0,0,325.34,288Z" transform="translate(-28.37 -52.25)"/><path class="cls-8" d="M312.32,328.17c0,2.51-1.82,4.44-5.45,4.44a7.81,7.81,0,0,1-5.4-1.93l.75-1.23a6.55,6.55,0,0,0,4.65,1.74c2.49,0,3.86-1.16,3.86-3s-1.26-3-4.05-3h-1.07v-1.13l4.16-5.22h-7.68v-1.37h9.65v1.1l-4.24,5.34C310.71,324.07,312.32,325.76,312.32,328.17Z" transform="translate(-28.37 -52.25)"/><path class="cls-8" d="M314.49,325c0-4.78,2.51-7.64,6-7.64s6,2.86,6,7.64-2.53,7.64-6,7.64S314.49,329.75,314.49,325Zm10.41,0c0-4-1.81-6.22-4.42-6.22s-4.42,2.21-4.42,6.22,1.8,6.22,4.42,6.22S324.9,329,324.9,325Z" transform="translate(-28.37 -52.25)"/><path class="cls-8" d="M328.69,325c0-4.78,2.51-7.64,6-7.64s6,2.86,6,7.64-2.54,7.64-6,7.64S328.69,329.75,328.69,325Zm10.41,0c0-4-1.8-6.22-4.42-6.22s-4.42,2.21-4.42,6.22,1.8,6.22,4.42,6.22S339.1,329,339.1,325Z" transform="translate(-28.37 -52.25)"/><path class="cls-8" d="M318.1,342.52v5.17h-.53V343h-1.22v-.48Z" transform="translate(-28.37 -52.25)"/><path class="cls-8" d="M322.84,346.17c0,.88-.61,1.57-1.87,1.57a2.62,2.62,0,0,1-1.85-.67l.25-.42a2.26,2.26,0,0,0,1.59.6c.88,0,1.35-.43,1.35-1.06s-.42-1.07-1.73-1.07h-1.1l.26-2.6h2.83V343h-2.36l-.18,1.64h.67C322.25,344.64,322.84,345.26,322.84,346.17Z" transform="translate(-28.37 -52.25)"/><path class="cls-8" d="M323.37,343.89c0-.84.48-1.4,1.17-1.4s1.17.55,1.17,1.4-.48,1.4-1.17,1.4S323.37,344.73,323.37,343.89Zm2,0c0-.67-.32-1.07-.8-1.07s-.8.4-.8,1.07.31,1.07.8,1.07S325.34,344.56,325.34,343.89Zm2.33-1.37h.44l-3.53,5.17h-.44Zm-1.13,3.81c0-.85.48-1.41,1.17-1.41s1.16.56,1.16,1.41-.47,1.4-1.16,1.4S326.54,347.17,326.54,346.33Zm2,0c0-.67-.31-1.07-.8-1.07s-.8.39-.8,1.07.32,1.07.8,1.07S328.51,347,328.51,346.33Z" transform="translate(-28.37 -52.25)"/><path class="cls-8" d="M400.1,307.74h0a18.36,18.36,0,0,1-18.37-18.37h0A18.37,18.37,0,0,1,400.1,271h0a18.38,18.38,0,0,1,18.37,18.37h0A18.37,18.37,0,0,1,400.1,307.74Z" transform="translate(-28.37 -52.25)"/><path class="cls-5" d="M400.1,281.11c2.69,0,3,0,4.07.06a5.61,5.61,0,0,1,1.87.35,3.29,3.29,0,0,1,1.91,1.91,5.61,5.61,0,0,1,.35,1.87c.05,1.06.06,1.38.06,4.07s0,3-.06,4.07a5.61,5.61,0,0,1-.35,1.87,3.29,3.29,0,0,1-1.91,1.91,5.61,5.61,0,0,1-1.87.35c-1.06.05-1.38.06-4.07.06s-3,0-4.07-.06a5.61,5.61,0,0,1-1.87-.35,3.29,3.29,0,0,1-1.91-1.91,5.61,5.61,0,0,1-.35-1.87c0-1.06-.06-1.38-.06-4.07s0-3,.06-4.07a5.61,5.61,0,0,1,.35-1.87,3.29,3.29,0,0,1,1.91-1.91,5.61,5.61,0,0,1,1.87-.35c1.06-.05,1.38-.06,4.07-.06m0-1.81c-2.74,0-3.08,0-4.15.06a7.43,7.43,0,0,0-2.45.47,5.15,5.15,0,0,0-2.94,2.94,7.43,7.43,0,0,0-.47,2.45c0,1.07-.06,1.41-.06,4.15s0,3.08.06,4.15a7.38,7.38,0,0,0,.47,2.45,5.15,5.15,0,0,0,2.94,2.94,7.43,7.43,0,0,0,2.45.47c1.07.05,1.41.06,4.15.06s3.08,0,4.15-.06a7.43,7.43,0,0,0,2.45-.47,5.15,5.15,0,0,0,2.94-2.94,7.38,7.38,0,0,0,.47-2.45c.05-1.07.06-1.41.06-4.15s0-3.08-.06-4.15a7.43,7.43,0,0,0-.47-2.45,5.15,5.15,0,0,0-2.94-2.94,7.43,7.43,0,0,0-2.45-.47c-1.07-.05-1.41-.06-4.15-.06" transform="translate(-28.37 -52.25)"/><path class="cls-5" d="M400.1,284.2a5.17,5.17,0,1,0,5.17,5.17,5.16,5.16,0,0,0-5.17-5.17m0,8.53a3.36,3.36,0,1,1,3.36-3.36,3.37,3.37,0,0,1-3.36,3.36" transform="translate(-28.37 -52.25)"/><path class="cls-5" d="M406.69,284a1.21,1.21,0,1,1-1.21-1.2,1.21,1.21,0,0,1,1.21,1.2" transform="translate(-28.37 -52.25)"/><path class="cls-8" d="M398.06,329.44c0,2.55-1.78,4.55-5.45,4.55a7.81,7.81,0,0,1-5.39-1.93l.76-1.23a6.49,6.49,0,0,0,4.61,1.74c2.55,0,3.9-1.24,3.9-3.07s-1.2-3.13-5-3.13h-3.19l.77-7.53h8.22v1.37H390.4l-.52,4.79h1.94C396.34,325,398.06,326.78,398.06,329.44Z" transform="translate(-28.37 -52.25)"/><path class="cls-8" d="M400,326.35c0-4.79,2.51-7.64,6-7.64s6,2.85,6,7.64-2.53,7.64-6,7.64S400,331.13,400,326.35Zm10.41,0c0-4-1.81-6.22-4.42-6.22s-4.42,2.21-4.42,6.22,1.8,6.22,4.42,6.22S410.42,330.36,410.42,326.35Z" transform="translate(-28.37 -52.25)"/><path class="cls-8" d="M395.46,343.9v5.17h-.53v-4.7h-1.22v-.47Z" transform="translate(-28.37 -52.25)"/><path class="cls-8" d="M400.21,347.55c0,.88-.62,1.56-1.88,1.56a2.65,2.65,0,0,1-1.85-.66l.26-.42a2.21,2.21,0,0,0,1.58.6c.88,0,1.35-.43,1.35-1.06s-.42-1.08-1.73-1.08h-1.1l.27-2.59h2.82v.47h-2.36l-.18,1.65h.67C399.62,346,400.21,346.63,400.21,347.55Z" transform="translate(-28.37 -52.25)"/><path class="cls-8" d="M400.74,345.27c0-.84.47-1.41,1.16-1.41s1.17.56,1.17,1.41-.48,1.4-1.17,1.4S400.74,346.11,400.74,345.27Zm2,0c0-.67-.32-1.07-.8-1.07s-.79.4-.79,1.07.3,1.07.79,1.07S402.7,345.94,402.7,345.27ZM405,343.9h.44l-3.53,5.17h-.44Zm-1.13,3.8c0-.84.48-1.4,1.17-1.4s1.17.56,1.17,1.4-.47,1.41-1.17,1.41S403.9,348.55,403.9,347.7Zm2,0c0-.66-.31-1.07-.8-1.07s-.8.4-.8,1.07.32,1.07.8,1.07S405.87,348.37,405.87,347.7Z" transform="translate(-28.37 -52.25)"/><path class="cls-7" d="M238.26,193.49h0A19.31,19.31,0,0,1,219,174.18h0a19.3,19.3,0,0,1,19.31-19.31h0a19.31,19.31,0,0,1,19.31,19.31h0A19.32,19.32,0,0,1,238.26,193.49Z" transform="translate(-28.37 -52.25)"/><path class="cls-5" d="M235.32,185.85H240V174.08h3.28l.35-3.94H240v-2.25c0-.93.18-1.29,1.08-1.29h2.55v-4.09h-3.26c-3.5,0-5.07,1.54-5.07,4.49v3.14h-2.45v4h2.45Z" transform="translate(-28.37 -52.25)"/><path class="cls-8" d="M229.7,222.49V224H218.27V222.8l6.78-6.64c1.83-1.81,2.18-2.91,2.18-4,0-1.89-1.32-3-3.81-3A5.55,5.55,0,0,0,219,210.9l-1.18-1a7.31,7.31,0,0,1,5.77-2.33c3.3,0,5.4,1.68,5.4,4.4,0,1.56-.49,3-2.68,5.1l-5.54,5.44Z" transform="translate(-28.37 -52.25)"/><path class="cls-8" d="M242.85,219.19c0,2.77-1.94,4.93-5.91,4.93a8.44,8.44,0,0,1-5.85-2.09l.82-1.33a7.08,7.08,0,0,0,5,1.89c2.77,0,4.24-1.35,4.24-3.33s-1.31-3.4-5.45-3.4h-3.46l.83-8.17H242v1.49h-7.45l-.56,5.19h2.09C241,214.37,242.85,216.3,242.85,219.19Z" transform="translate(-28.37 -52.25)"/><path class="cls-8" d="M245,215.84c0-5.19,2.73-8.29,6.49-8.29s6.52,3.1,6.52,8.29-2.75,8.28-6.52,8.28S245,221,245,215.84Zm11.29,0c0-4.35-2-6.75-4.8-6.75s-4.79,2.4-4.79,6.75,2,6.75,4.79,6.75S256.25,220.19,256.25,215.84Z" transform="translate(-28.37 -52.25)"/><path class="cls-8" d="M233.23,234.87v5.61h-.57v-5.09h-1.33v-.52Z" transform="translate(-28.37 -52.25)"/><path class="cls-8" d="M238.38,238.83c0,.95-.67,1.7-2,1.7a2.89,2.89,0,0,1-2-.72l.28-.46a2.41,2.41,0,0,0,1.72.65c1,0,1.46-.46,1.46-1.15s-.45-1.17-1.87-1.17h-1.2l.29-2.81h3.07v.52h-2.56l-.2,1.78h.73C237.74,237.17,238.38,237.84,238.38,238.83Z" transform="translate(-28.37 -52.25)"/><path class="cls-8" d="M239,236.36c0-.92.51-1.53,1.26-1.53s1.27.6,1.27,1.53-.52,1.52-1.27,1.52S239,237.27,239,236.36Zm2.13,0c0-.73-.34-1.17-.87-1.17s-.86.44-.86,1.17.34,1.16.86,1.16S241.08,237.08,241.08,236.36Zm2.53-1.49h.47l-3.83,5.61h-.47ZM242.39,239c0-.91.52-1.52,1.26-1.52s1.27.61,1.27,1.52-.52,1.52-1.27,1.52S242.39,239.91,242.39,239Zm2.13,0c0-.72-.34-1.16-.87-1.16s-.86.43-.86,1.16.34,1.16.86,1.16S244.52,239.72,244.52,239Z" transform="translate(-28.37 -52.25)"/><path class="cls-8" d="M323.78,191.87h0a19.23,19.23,0,0,1-19.24-19.23h0a19.23,19.23,0,0,1,19.24-19.23h0A19.23,19.23,0,0,1,343,172.64h0A19.23,19.23,0,0,1,323.78,191.87Z" transform="translate(-28.37 -52.25)"/><rect class="cls-5" x="286.68" y="116.11" width="3.98" height="12.86"/><path class="cls-5" d="M317,166.67a2.37,2.37,0,1,0-2.36-2.37A2.36,2.36,0,0,0,317,166.67Z" transform="translate(-28.37 -52.25)"/><path class="cls-5" d="M325.4,174.46c0-1.8.83-2.88,2.42-2.88s2.17,1,2.17,2.88v6.75h4v-8.14c0-3.44-1.95-5.11-4.68-5.11a4.48,4.48,0,0,0-3.87,2.13v-1.73h-3.82v12.85h3.82Z" transform="translate(-28.37 -52.25)"/><path class="cls-8" d="M317.88,206.24v16.28H316.2v-14.8h-3.84v-1.48Z" transform="translate(-28.37 -52.25)"/><path class="cls-8" d="M334.28,218c0,2.88-2.44,4.67-6.33,4.67s-6.28-1.79-6.28-4.67a4.08,4.08,0,0,1,3.14-4,3.67,3.67,0,0,1-2.56-3.58c0-2.65,2.26-4.3,5.7-4.3s5.75,1.65,5.75,4.3a3.68,3.68,0,0,1-2.61,3.58A4.11,4.11,0,0,1,334.28,218Zm-1.72,0c0-2-1.72-3.25-4.61-3.25s-4.58,1.25-4.58,3.25,1.7,3.28,4.58,3.28S332.56,220,332.56,218ZM328,213.38c2.54,0,4.05-1.14,4.05-2.91s-1.6-2.95-4.05-2.95-4,1.11-4,2.93S325.42,213.38,328,213.38Z" transform="translate(-28.37 -52.25)"/><path class="cls-8" d="M316.84,236.6h2.1v.5h-2.1Z" transform="translate(-28.37 -52.25)"/><path class="cls-8" d="M324.67,237.55h-1.12V239H323v-1.47h-3.16v-.42l3-3.71h.64L320.55,237H323v-1.3h.56V237h1.12Z" transform="translate(-28.37 -52.25)"/><path class="cls-8" d="M324.88,234.9c0-.92.51-1.52,1.27-1.52s1.26.6,1.26,1.52-.52,1.52-1.26,1.52S324.88,235.81,324.88,234.9Zm2.13,0c0-.73-.34-1.16-.86-1.16s-.87.44-.87,1.16.34,1.16.87,1.16S327,235.63,327,234.9Zm2.53-1.48H330l-3.83,5.6h-.48Zm-1.22,4.12c0-.91.52-1.52,1.26-1.52s1.27.61,1.27,1.52-.51,1.52-1.27,1.52S328.32,238.45,328.32,237.54Zm2.13,0c0-.72-.34-1.16-.87-1.16s-.86.43-.86,1.16.34,1.16.86,1.16S330.45,238.26,330.45,237.54Z" transform="translate(-28.37 -52.25)"/><path class="cls-7" d="M400.1,191.31h0a17.49,17.49,0,0,1-17.49-17.5h0a17.49,17.49,0,0,1,17.49-17.49h0a17.49,17.49,0,0,1,17.49,17.49h0A17.49,17.49,0,0,1,400.1,191.31Z" transform="translate(-28.37 -52.25)"/><path class="cls-5" d="M390.78,179.67A10.87,10.87,0,0,0,407.51,170a7.65,7.65,0,0,0,1.91-2,7.39,7.39,0,0,1-2.2.6,3.85,3.85,0,0,0,1.69-2.11,7.61,7.61,0,0,1-2.43.93,3.83,3.83,0,0,0-6.52,3.49,10.86,10.86,0,0,1-7.88-4,3.84,3.84,0,0,0,1.18,5.11,3.85,3.85,0,0,1-1.73-.48,3.84,3.84,0,0,0,3.07,3.8,3.86,3.86,0,0,1-1.73.06,3.82,3.82,0,0,0,3.57,2.66A7.68,7.68,0,0,1,390.78,179.67Z" transform="translate(-28.37 -52.25)"/><path class="cls-8" d="M391.54,219.71v1.49H380.11V220l6.78-6.63c1.83-1.82,2.18-2.91,2.18-4,0-1.88-1.32-3-3.81-3a5.55,5.55,0,0,0-4.45,1.82l-1.18-1a7.31,7.31,0,0,1,5.77-2.33c3.3,0,5.39,1.67,5.39,4.4,0,1.56-.48,3-2.67,5.09l-5.54,5.45Z" transform="translate(-28.37 -52.25)"/><path class="cls-8" d="M404.69,216.4c0,2.77-1.94,4.94-5.91,4.94a8.42,8.42,0,0,1-5.85-2.1l.82-1.32a7.08,7.08,0,0,0,5,1.88c2.77,0,4.24-1.35,4.24-3.33s-1.31-3.39-5.45-3.39h-3.47l.84-8.17h8.91v1.49h-7.44l-.56,5.19h2.09C402.82,211.59,404.69,213.52,404.69,216.4Z" transform="translate(-28.37 -52.25)"/><path class="cls-8" d="M406.8,213.05c0-5.19,2.72-8.28,6.49-8.28s6.52,3.09,6.52,8.28-2.75,8.29-6.52,8.29S406.8,218.24,406.8,213.05Zm11.29,0c0-4.35-2-6.75-4.8-6.75s-4.79,2.4-4.79,6.75,1.95,6.75,4.79,6.75S418.09,217.4,418.09,213.05Z" transform="translate(-28.37 -52.25)"/><path class="cls-8" d="M398.68,236.08c0,.94-.68,1.66-2,1.66a2.92,2.92,0,0,1-2-.72l.28-.45a2.48,2.48,0,0,0,1.74.64c.93,0,1.44-.43,1.44-1.13s-.47-1.11-1.51-1.11h-.4v-.42l1.55-2h-2.87v-.51h3.61v.41l-1.59,2C398.08,234.56,398.68,235.19,398.68,236.08Z" transform="translate(-28.37 -52.25)"/><path class="cls-8" d="M399.34,233.57c0-.91.51-1.52,1.26-1.52s1.27.6,1.27,1.52-.52,1.52-1.27,1.52S399.34,234.48,399.34,233.57Zm2.13,0c0-.73-.35-1.16-.87-1.16s-.86.44-.86,1.16.33,1.16.86,1.16S401.47,234.3,401.47,233.57Zm2.53-1.48h.47l-3.83,5.61h-.47Zm-1.23,4.12c0-.91.52-1.52,1.27-1.52s1.26.61,1.26,1.52-.51,1.53-1.26,1.53S402.77,237.13,402.77,236.21Zm2.13,0c0-.72-.33-1.16-.86-1.16s-.87.43-.87,1.16.35,1.16.87,1.16S404.9,236.93,404.9,236.21Z" transform="translate(-28.37 -52.25)"/><rect class="cls-7" x="476.38" y="204.47" width="3.95" height="13.22"/><rect class="cls-7" x="443.42" y="202.56" width="3.95" height="15.13"/><rect class="cls-7" x="451.66" y="199.4" width="3.95" height="18.29"/><rect class="cls-7" x="459.9" y="200.41" width="3.95" height="17.29"/><rect class="cls-7" x="468.14" y="194.56" width="3.95" height="23.13"/><rect class="cls-7" x="484.62" y="194.67" width="3.95" height="23.02"/><rect class="cls-7" x="492.86" y="202.23" width="3.95" height="15.46"/><rect class="cls-7" x="501.1" y="195.69" width="3.95" height="22.01"/><rect class="cls-7" x="509.34" y="190.73" width="3.95" height="26.96"/><rect class="cls-7" x="517.58" y="195.57" width="3.95" height="22.12"/><path class="cls-1" d="M558.15,286.33H461.08a8,8,0,0,1-8-8v-58a8,8,0,0,1,8-8h97.07a8,8,0,0,1,8,8v58A8,8,0,0,1,558.15,286.33Zm-97.07-73.27a7.23,7.23,0,0,0-7.22,7.22v58a7.23,7.23,0,0,0,7.22,7.22h97.07a7.23,7.23,0,0,0,7.22-7.22v-58a7.23,7.23,0,0,0-7.22-7.22Z" transform="translate(-28.37 -52.25)"/><path class="cls-1" d="M516.34,231.57c0,.11-11.23.2-25.08.2s-25.08-.09-25.08-.2,11.23-.21,25.08-.21S516.34,231.45,516.34,231.57Z" transform="translate(-28.37 -52.25)"/><path class="cls-1" d="M558.15,197H461.08a8,8,0,0,1-8-8V131a8,8,0,0,1,8-8h97.07a8,8,0,0,1,8,8v58A8,8,0,0,1,558.15,197Zm-97.07-73.27a7.23,7.23,0,0,0-7.22,7.22v58a7.23,7.23,0,0,0,7.22,7.23h97.07a7.23,7.23,0,0,0,7.22-7.23V131a7.23,7.23,0,0,0-7.22-7.22Z" transform="translate(-28.37 -52.25)"/><path class="cls-1" d="M474.34,178h0a1.92,1.92,0,0,1-1.93-1.92V139.93a1.92,1.92,0,0,1,1.93-1.93h0a1.92,1.92,0,0,1,1.92,1.93V176A1.92,1.92,0,0,1,474.34,178Z" transform="translate(-28.37 -52.25)"/><path class="cls-7" d="M474.34,178.13h0a1.92,1.92,0,0,1-1.93-1.92V152.93a1.92,1.92,0,0,1,1.93-1.93h0a1.92,1.92,0,0,1,1.92,1.93v23.28A1.92,1.92,0,0,1,474.34,178.13Z" transform="translate(-28.37 -52.25)"/><path class="cls-8" d="M473.12,179.64v3.21h-.33v-2.91H472v-.3Z" transform="translate(-28.37 -52.25)"/><path class="cls-8" d="M473.89,181.25c0-1,.54-1.64,1.28-1.64s1.28.61,1.28,1.64-.54,1.63-1.28,1.63S473.89,182.27,473.89,181.25Zm2.22,0c0-.86-.38-1.33-.94-1.33s-.95.47-.95,1.33.39,1.33.95,1.33S476.11,182.1,476.11,181.25Z" transform="translate(-28.37 -52.25)"/><path class="cls-1" d="M482,178h0a1.92,1.92,0,0,1-1.92-1.92V139.93A1.92,1.92,0,0,1,482,138h0a1.93,1.93,0,0,1,1.93,1.93V176A1.93,1.93,0,0,1,482,178Z" transform="translate(-28.37 -52.25)"/><path class="cls-7" d="M482,178.13h0a1.92,1.92,0,0,1-1.92-1.92V145.59a1.92,1.92,0,0,1,1.92-1.92h0a1.93,1.93,0,0,1,1.93,1.92v30.62A1.93,1.93,0,0,1,482,178.13Z" transform="translate(-28.37 -52.25)"/><path class="cls-8" d="M481.57,182.56v.29h-2.25v-.23l1.33-1.31c.37-.36.44-.57.44-.79,0-.37-.27-.6-.76-.6a1.09,1.09,0,0,0-.87.35l-.24-.2a1.47,1.47,0,0,1,1.14-.46c.65,0,1.06.33,1.06.87a1.33,1.33,0,0,1-.52,1l-1.09,1.07Z" transform="translate(-28.37 -52.25)"/><path class="cls-8" d="M482,181.25c0-1,.54-1.64,1.28-1.64s1.29.61,1.29,1.64-.54,1.63-1.29,1.63S482,182.27,482,181.25Zm2.23,0c0-.86-.39-1.33-.95-1.33s-.94.47-.94,1.33.38,1.33.94,1.33S484.19,182.1,484.19,181.25Z" transform="translate(-28.37 -52.25)"/><path class="cls-1" d="M489.73,178h0A1.92,1.92,0,0,1,487.8,176V139.93a1.92,1.92,0,0,1,1.93-1.93h0a1.92,1.92,0,0,1,1.92,1.93V176A1.92,1.92,0,0,1,489.73,178Z" transform="translate(-28.37 -52.25)"/><path class="cls-7" d="M489.73,178.13h0a1.92,1.92,0,0,1-1.93-1.92V158.43a1.92,1.92,0,0,1,1.93-1.93h0a1.92,1.92,0,0,1,1.92,1.93v17.78A1.92,1.92,0,0,1,489.73,178.13Z" transform="translate(-28.37 -52.25)"/><path class="cls-8" d="M489.23,181.93c0,.54-.39.95-1.17.95a1.7,1.7,0,0,1-1.16-.41l.17-.26a1.4,1.4,0,0,0,1,.37c.53,0,.83-.25.83-.65s-.27-.64-.87-.64h-.23v-.24l.89-1.11H487v-.3h2.06v.24l-.91,1.14C488.88,181.05,489.23,181.42,489.23,181.93Z" transform="translate(-28.37 -52.25)"/><path class="cls-8" d="M489.69,181.25c0-1,.53-1.64,1.28-1.64s1.28.61,1.28,1.64-.54,1.63-1.28,1.63S489.69,182.27,489.69,181.25Zm2.22,0c0-.86-.38-1.33-.94-1.33s-1,.47-1,1.33.39,1.33,1,1.33S491.91,182.1,491.91,181.25Z" transform="translate(-28.37 -52.25)"/><path class="cls-1" d="M497.42,178h0A1.92,1.92,0,0,1,495.5,176V139.93a1.92,1.92,0,0,1,1.92-1.93h0a1.93,1.93,0,0,1,1.93,1.93V176A1.93,1.93,0,0,1,497.42,178Z" transform="translate(-28.37 -52.25)"/><path class="cls-7" d="M497.42,178.13h0a1.92,1.92,0,0,1-1.92-1.92V145.59a1.92,1.92,0,0,1,1.92-1.92h0a1.93,1.93,0,0,1,1.93,1.92v30.62A1.93,1.93,0,0,1,497.42,178.13Z" transform="translate(-28.37 -52.25)"/><path class="cls-8" d="M497.44,182h-.65v.84h-.33V182h-1.81v-.24l1.7-2.13h.37l-1.64,2.07h1.39V181h.32v.74h.65Z" transform="translate(-28.37 -52.25)"/><path class="cls-8" d="M497.74,181.25c0-1,.53-1.64,1.28-1.64s1.28.61,1.28,1.64-.54,1.63-1.28,1.63S497.74,182.27,497.74,181.25Zm2.22,0c0-.86-.38-1.33-.94-1.33s-.95.47-.95,1.33.39,1.33.95,1.33S500,182.1,500,181.25Z" transform="translate(-28.37 -52.25)"/><path class="cls-1" d="M505.12,178h0a1.92,1.92,0,0,1-1.93-1.92V139.93a1.92,1.92,0,0,1,1.93-1.93h0a1.92,1.92,0,0,1,1.92,1.93V176A1.92,1.92,0,0,1,505.12,178Z" transform="translate(-28.37 -52.25)"/><path class="cls-7" d="M505.12,178.13h0a1.92,1.92,0,0,1-1.93-1.92V151.46a1.92,1.92,0,0,1,1.93-1.92h0a1.92,1.92,0,0,1,1.92,1.92v24.75A1.92,1.92,0,0,1,505.12,178.13Z" transform="translate(-28.37 -52.25)"/><path class="cls-8" d="M504.94,181.91c0,.54-.38,1-1.16,1a1.67,1.67,0,0,1-1.15-.41l.16-.26a1.42,1.42,0,0,0,1,.37c.54,0,.83-.27.83-.66s-.26-.67-1.07-.67h-.69l.17-1.61h1.76v.3h-1.47l-.11,1h.41C504.58,181,504.94,181.34,504.94,181.91Z" transform="translate(-28.37 -52.25)"/><path class="cls-8" d="M505.36,181.25c0-1,.54-1.64,1.28-1.64s1.28.61,1.28,1.64-.54,1.63-1.28,1.63S505.36,182.27,505.36,181.25Zm2.22,0c0-.86-.38-1.33-.94-1.33s-.95.47-.95,1.33.39,1.33.95,1.33S507.58,182.1,507.58,181.25Z" transform="translate(-28.37 -52.25)"/><path class="cls-1" d="M512.81,178h0a1.92,1.92,0,0,1-1.92-1.92V139.93a1.92,1.92,0,0,1,1.92-1.93h0a1.93,1.93,0,0,1,1.93,1.93V176A1.93,1.93,0,0,1,512.81,178Z" transform="translate(-28.37 -52.25)"/><path class="cls-7" d="M512.81,178h0a1.89,1.89,0,0,1-1.92-1.75V158.43a2,2,0,0,1,1.92-2.1h0a1.93,1.93,0,0,1,1.93,1.93V176A1.93,1.93,0,0,1,512.81,178Z" transform="translate(-28.37 -52.25)"/><path class="cls-8" d="M512.56,181.89a1,1,0,0,1-1.1,1c-.85,0-1.31-.59-1.31-1.61s.59-1.66,1.46-1.66a1.4,1.4,0,0,1,.76.18l-.13.26a1.1,1.1,0,0,0-.62-.15c-.69,0-1.14.45-1.14,1.32,0,.07,0,.16,0,.26a1,1,0,0,1,1-.55A1,1,0,0,1,512.56,181.89Zm-.33,0c0-.42-.31-.69-.8-.69a.74.74,0,0,0-.83.7c0,.36.29.69.85.69A.7.7,0,0,0,512.23,181.9Z" transform="translate(-28.37 -52.25)"/><path class="cls-8" d="M512.94,181.25c0-1,.53-1.64,1.28-1.64s1.28.61,1.28,1.64-.54,1.63-1.28,1.63S512.94,182.27,512.94,181.25Zm2.22,0c0-.86-.38-1.33-.94-1.33s-1,.47-1,1.33.39,1.33,1,1.33S515.16,182.1,515.16,181.25Z" transform="translate(-28.37 -52.25)"/><path class="cls-1" d="M520.51,178h0a1.92,1.92,0,0,1-1.93-1.92V139.93a1.92,1.92,0,0,1,1.93-1.93h0a1.92,1.92,0,0,1,1.92,1.93V176A1.92,1.92,0,0,1,520.51,178Z" transform="translate(-28.37 -52.25)"/><path class="cls-7" d="M520.51,178.13h0a1.92,1.92,0,0,1-1.93-1.92V143.76a1.92,1.92,0,0,1,1.93-1.92h0a1.92,1.92,0,0,1,1.92,1.92v32.45A1.92,1.92,0,0,1,520.51,178.13Z" transform="translate(-28.37 -52.25)"/><path class="cls-8" d="M520.1,179.64v.24l-1.35,3h-.36l1.32-2.91h-1.65v.6h-.32v-.9Z" transform="translate(-28.37 -52.25)"/><path class="cls-8" d="M520.44,181.25c0-1,.53-1.64,1.28-1.64s1.28.61,1.28,1.64-.54,1.63-1.28,1.63S520.44,182.27,520.44,181.25Zm2.22,0c0-.86-.38-1.33-.94-1.33s-1,.47-1,1.33.39,1.33,1,1.33S522.66,182.1,522.66,181.25Z" transform="translate(-28.37 -52.25)"/><path class="cls-1" d="M528.2,178h0a1.92,1.92,0,0,1-1.92-1.92V139.93A1.92,1.92,0,0,1,528.2,138h0a1.93,1.93,0,0,1,1.93,1.93V176A1.93,1.93,0,0,1,528.2,178Z" transform="translate(-28.37 -52.25)"/><path class="cls-7" d="M528.2,178.13h0a1.92,1.92,0,0,1-1.92-1.92V162.09a1.92,1.92,0,0,1,1.92-1.92h0a1.93,1.93,0,0,1,1.93,1.92v14.12A1.93,1.93,0,0,1,528.2,178.13Z" transform="translate(-28.37 -52.25)"/><path class="cls-8" d="M527.82,182c0,.57-.48.92-1.25.92s-1.24-.35-1.24-.92a.8.8,0,0,1,.62-.79.73.73,0,0,1-.5-.71c0-.52.44-.85,1.12-.85s1.13.33,1.13.85a.73.73,0,0,1-.51.71A.81.81,0,0,1,527.82,182Zm-.34,0c0-.39-.34-.64-.91-.64s-.9.25-.9.64.33.65.9.65S527.48,182.35,527.48,182Zm-.91-.9c.5,0,.8-.22.8-.57s-.32-.59-.8-.59-.79.22-.79.58S526.07,181.05,526.57,181.05Z" transform="translate(-28.37 -52.25)"/><path class="cls-8" d="M528.27,181.25c0-1,.54-1.64,1.28-1.64s1.29.61,1.29,1.64-.54,1.63-1.29,1.63S528.27,182.27,528.27,181.25Zm2.23,0c0-.86-.39-1.33-1-1.33s-.94.47-.94,1.33.38,1.33.94,1.33S530.5,182.1,530.5,181.25Z" transform="translate(-28.37 -52.25)"/><path class="cls-1" d="M535.9,178h0A1.92,1.92,0,0,1,534,176V139.93A1.92,1.92,0,0,1,535.9,138h0a1.92,1.92,0,0,1,1.92,1.93V176A1.92,1.92,0,0,1,535.9,178Z" transform="translate(-28.37 -52.25)"/><path class="cls-7" d="M535.9,178h0a1.9,1.9,0,0,1-1.93-1.75v-5a2,2,0,0,1,1.93-2.09h0a1.92,1.92,0,0,1,1.92,1.92V176A1.92,1.92,0,0,1,535.9,178Z" transform="translate(-28.37 -52.25)"/><path class="cls-8" d="M535.32,181.22c0,1.09-.6,1.66-1.47,1.66a1.5,1.5,0,0,1-.76-.17l.13-.27a1.14,1.14,0,0,0,.62.15c.7,0,1.14-.44,1.14-1.32a2.54,2.54,0,0,0,0-.26,1,1,0,0,1-1,.55,1,1,0,0,1-1.09-1,1,1,0,0,1,1.1-1C534.85,179.61,535.32,180.21,535.32,181.22Zm-.46-.64c0-.35-.29-.69-.85-.69a.7.7,0,0,0-.78.7c0,.42.31.69.81.69A.74.74,0,0,0,534.86,180.58Z" transform="translate(-28.37 -52.25)"/><path class="cls-8" d="M535.79,181.25c0-1,.54-1.64,1.28-1.64s1.28.61,1.28,1.64-.54,1.63-1.28,1.63S535.79,182.27,535.79,181.25Zm2.23,0c0-.86-.39-1.33-.95-1.33s-.94.47-.94,1.33.38,1.33.94,1.33S538,182.1,538,181.25Z" transform="translate(-28.37 -52.25)"/><path class="cls-1" d="M543.59,178h0a1.92,1.92,0,0,1-1.92-1.92V139.93a1.92,1.92,0,0,1,1.92-1.93h0a1.93,1.93,0,0,1,1.93,1.93V176A1.93,1.93,0,0,1,543.59,178Z" transform="translate(-28.37 -52.25)"/><path class="cls-7" d="M543.59,178h0a1.89,1.89,0,0,1-1.92-1.75V158.43a2,2,0,0,1,1.92-2.1h0a1.93,1.93,0,0,1,1.93,1.93V176A1.93,1.93,0,0,1,543.59,178Z" transform="translate(-28.37 -52.25)"/><path class="cls-8" d="M540.83,179.64v3.21h-.33v-2.91h-.75v-.3Z" transform="translate(-28.37 -52.25)"/><path class="cls-8" d="M541.6,181.25c0-1,.53-1.64,1.28-1.64s1.28.61,1.28,1.64-.54,1.63-1.28,1.63S541.6,182.27,541.6,181.25Zm2.22,0c0-.86-.38-1.33-.94-1.33s-1,.47-1,1.33.39,1.33,1,1.33S543.82,182.1,543.82,181.25Z" transform="translate(-28.37 -52.25)"/><path class="cls-8" d="M544.63,181.25c0-1,.54-1.64,1.28-1.64s1.28.61,1.28,1.64-.54,1.63-1.28,1.63S544.63,182.27,544.63,181.25Zm2.23,0c0-.86-.39-1.33-1-1.33s-.94.47-.94,1.33.38,1.33.94,1.33S546.86,182.1,546.86,181.25Z" transform="translate(-28.37 -52.25)"/><path class="cls-12" d="M480.8,327a13.16,13.16,0,0,0-2.69,2.06,13.46,13.46,0,0,0-2.06,2.68,13,13,0,0,0,0,13,13.18,13.18,0,0,0,2.06,2.68,12.81,12.81,0,0,0,2.69,2.06,13.19,13.19,0,0,0,3.12,1.3,13,13,0,0,0,6.71,0,13.19,13.19,0,0,0,3.12-1.3,12.52,12.52,0,0,0,2.65-2l0,0a13.26,13.26,0,0,0,3.36-5.8,13,13,0,0,0,0-6.71,12.88,12.88,0,0,0-1.31-3.13,13,13,0,0,0-2.05-2.68,12.89,12.89,0,0,0-2.69-2.06,13,13,0,0,0-12.95,0Z" transform="translate(-28.37 -52.25)"/><path class="cls-7" d="M493.75,349.45a13.19,13.19,0,0,1-3.12,1.3,13,13,0,0,1-6.71,0,13.19,13.19,0,0,1-3.12-1.3,12.81,12.81,0,0,1-2.69-2.06,13.18,13.18,0,0,1-2.06-2.68,13,13,0,0,1,0-13,13.46,13.46,0,0,1,2.06-2.68A13.16,13.16,0,0,1,480.8,327a13.1,13.1,0,0,1,6.48-1.74v-2.55a15.6,15.6,0,0,0-4,.52,15.5,15.5,0,0,0-9.42,7.23,15.15,15.15,0,0,0-1.55,3.74,15.72,15.72,0,0,0-.53,4,15.52,15.52,0,0,0,.53,4,14.91,14.91,0,0,0,1.55,3.75,15.79,15.79,0,0,0,2.46,3.22,15.39,15.39,0,0,0,3.22,2.45,15,15,0,0,0,3.74,1.56,15.47,15.47,0,0,0,8,0,14.86,14.86,0,0,0,3.74-1.56,15.12,15.12,0,0,0,3.19-2.43l-1.82-1.81A12.52,12.52,0,0,1,493.75,349.45Z" transform="translate(-28.37 -52.25)"/><path class="cls-1" d="M502.26,334.21a15.54,15.54,0,0,0-1.55-3.74,15.45,15.45,0,0,0-13.43-7.75v2.55a13,13,0,0,1,9.16,3.8,13,13,0,0,1,2.05,2.68,12.88,12.88,0,0,1,1.31,3.13,13,13,0,0,1,0,6.71,13.26,13.26,0,0,1-3.36,5.8l0,0,1.82,1.81,0,0a15.79,15.79,0,0,0,2.46-3.22,15.28,15.28,0,0,0,1.55-3.75,15.52,15.52,0,0,0,.53-4A15.72,15.72,0,0,0,502.26,334.21Z" transform="translate(-28.37 -52.25)"/><path class="cls-8" d="M484.79,339.88a1.4,1.4,0,0,1-1.53,1.37c-1.19,0-1.83-.82-1.83-2.24s.83-2.31,2-2.31a2.08,2.08,0,0,1,1.06.24l-.18.37a1.6,1.6,0,0,0-.87-.21c-1,0-1.59.62-1.59,1.84,0,.1,0,.23,0,.36a1.44,1.44,0,0,1,1.37-.77A1.36,1.36,0,0,1,484.79,339.88Zm-.46,0c0-.59-.43-1-1.12-1a1,1,0,0,0-1.15,1c0,.5.41,1,1.18,1A1,1,0,0,0,484.33,339.89Z" transform="translate(-28.37 -52.25)"/><path class="cls-8" d="M488.36,339.9c0,.76-.53,1.35-1.63,1.35a2.32,2.32,0,0,1-1.6-.57l.22-.37a2,2,0,0,0,1.38.52c.76,0,1.16-.37,1.16-.91s-.36-.94-1.49-.94h-1l.23-2.24h2.45v.41h-2l-.16,1.42h.58C487.85,338.57,488.36,339.1,488.36,339.9Z" transform="translate(-28.37 -52.25)"/><path class="cls-8" d="M488.81,337.92c0-.73.41-1.21,1-1.21s1,.47,1,1.21-.41,1.22-1,1.22S488.81,338.65,488.81,337.92Zm1.7,0c0-.58-.27-.93-.69-.93s-.69.36-.69.93.27.93.69.93S490.51,338.5,490.51,337.92Zm2-1.18h.37l-3.05,4.47h-.38Zm-1,3.29c0-.73.41-1.21,1-1.21s1,.48,1,1.21-.41,1.22-1,1.22S491.56,340.76,491.56,340Zm1.7,0c0-.57-.27-.93-.69-.93s-.69.35-.69.93.27.93.69.93S493.26,340.61,493.26,340Z" transform="translate(-28.37 -52.25)"/><path class="cls-1" d="M547.47,338.24a16.09,16.09,0,0,1-.52,4,15.24,15.24,0,0,1-1.56,3.74,15.73,15.73,0,0,1-2.46,3.21,15.1,15.1,0,0,1-3.22,2.46,14.86,14.86,0,0,1-3.74,1.56,15.47,15.47,0,0,1-8,0,14.86,14.86,0,0,1-3.74-1.56,15.42,15.42,0,0,1-5.67-5.67,14.86,14.86,0,0,1-1.56-3.74,15,15,0,0,1-.49-2.94h2.57a13.25,13.25,0,0,0,.39,2.28,13.41,13.41,0,0,0,1.29,3.12,12.88,12.88,0,0,0,2.07,2.68,12.77,12.77,0,0,0,5.8,3.36,13,13,0,0,0,6.71,0,12.87,12.87,0,0,0,5.81-3.36,12.83,12.83,0,0,0,2.06-2.68,13,13,0,0,0,1.3-3.12,13.3,13.3,0,0,0,0-6.71,13,13,0,0,0-9.17-9.17,13.22,13.22,0,0,0-3.36-.44v-2.55a16,16,0,0,1,4,.52,15.24,15.24,0,0,1,3.74,1.56,15.28,15.28,0,0,1,5.68,5.68,15.24,15.24,0,0,1,1.56,3.74A16,16,0,0,1,547.47,338.24Z" transform="translate(-28.37 -52.25)"/><path class="cls-8" d="M528.46,336.48v.33L526.58,341h-.5l1.85-4.07h-2.31v.84h-.45v-1.25Z" transform="translate(-28.37 -52.25)"/><path class="cls-8" d="M532,339.64c0,.76-.53,1.36-1.62,1.36a2.34,2.34,0,0,1-1.61-.58l.23-.36a1.93,1.93,0,0,0,1.37.52c.76,0,1.16-.38,1.16-.92s-.35-.93-1.49-.93h-.95l.23-2.25h2.44v.41h-2l-.16,1.43h.58C531.47,338.32,532,338.85,532,339.64Z" transform="translate(-28.37 -52.25)"/><path class="cls-8" d="M532.44,337.67c0-.73.41-1.22,1-1.22s1,.48,1,1.22-.42,1.21-1,1.21S532.44,338.4,532.44,337.67Zm1.7,0c0-.59-.28-.93-.69-.93s-.69.35-.69.93.27.92.69.92S534.14,338.25,534.14,337.67Zm2-1.19h.38L533.48,341h-.38Zm-1,3.3c0-.73.42-1.22,1-1.22s1,.49,1,1.22-.41,1.21-1,1.21S535.18,340.51,535.18,339.78Zm1.7,0c0-.58-.27-.93-.69-.93s-.69.34-.69.93.27.92.69.92S536.88,340.35,536.88,339.78Z" transform="translate(-28.37 -52.25)"/><path class="cls-7" d="M544.91,338.24a13.26,13.26,0,0,1-.43,3.35,13,13,0,0,1-1.3,3.12,12.83,12.83,0,0,1-2.06,2.68,12.87,12.87,0,0,1-5.81,3.36,13,13,0,0,1-6.71,0,12.77,12.77,0,0,1-5.8-3.36,12.88,12.88,0,0,1-2.07-2.68,13.41,13.41,0,0,1-1.29-3.12,13.25,13.25,0,0,1-.39-2.28h0c0-.36,0-.71,0-1.08a12.77,12.77,0,0,1,.44-3.35,13,13,0,0,1,9.16-9.17,13.28,13.28,0,0,1,3.36-.44v-2.55a15.25,15.25,0,0,0-7.76,2.08,15.47,15.47,0,0,0-5.68,5.68,15.21,15.21,0,0,0-1.55,3.74,15.58,15.58,0,0,0-.53,4c0,.37,0,.72,0,1.08h0a15,15,0,0,0,.49,2.94,14.86,14.86,0,0,0,1.56,3.74,15.42,15.42,0,0,0,5.67,5.67,14.86,14.86,0,0,0,3.74,1.56,15.47,15.47,0,0,0,8,0,14.86,14.86,0,0,0,3.74-1.56,15.1,15.1,0,0,0,3.22-2.46,15.73,15.73,0,0,0,2.46-3.21,15.24,15.24,0,0,0,1.56-3.74,16.09,16.09,0,0,0,.52-4Z" transform="translate(-28.37 -52.25)"/><path class="cls-1" d="M559.69,368.07H459.54a6.75,6.75,0,0,1-6.74-6.74V305.11a6.75,6.75,0,0,1,6.74-6.74H559.69a6.74,6.74,0,0,1,6.74,6.74v56.22A6.74,6.74,0,0,1,559.69,368.07ZM459.54,299.14a6,6,0,0,0-6,6v56.22a6,6,0,0,0,6,6H559.69a6,6,0,0,0,6-6V305.11a6,6,0,0,0-6-6Z" transform="translate(-28.37 -52.25)"/><path class="cls-1" d="M510.67,314.16c0,.11-10.48.2-23.39.2s-23.39-.09-23.39-.2,10.47-.19,23.39-.19S510.67,314.05,510.67,314.16Z" transform="translate(-28.37 -52.25)"/><path class="cls-8" d="M219.76,115.57h3a3.7,3.7,0,1,1,0,7.38h-3Zm3,6.7a3,3,0,1,0,0-6h-2.18v6Z" transform="translate(-28.37 -52.25)"/><path class="cls-8" d="M232.49,119.51V123h-.72v-.87a2.07,2.07,0,0,1-1.9.92c-1.26,0-2-.65-2-1.61s.55-1.57,2.14-1.57h1.76v-.34c0-1-.53-1.47-1.57-1.47a2.83,2.83,0,0,0-1.84.66l-.34-.56a3.49,3.49,0,0,1,2.26-.75A2,2,0,0,1,232.49,119.51Zm-.75,1.77v-.91H230c-1.07,0-1.42.43-1.42,1s.52,1,1.4,1A1.76,1.76,0,0,0,231.74,121.28Z" transform="translate(-28.37 -52.25)"/><path class="cls-8" d="M233.76,122.31l.33-.59a3.38,3.38,0,0,0,2,.63c1.05,0,1.48-.36,1.48-.91,0-1.44-3.59-.31-3.59-2.5,0-.91.78-1.58,2.19-1.58a3.7,3.7,0,0,1,2,.52l-.33.6a2.8,2.8,0,0,0-1.63-.48c-1,0-1.44.39-1.44.92,0,1.5,3.59.37,3.59,2.5,0,1-.84,1.58-2.29,1.58A3.69,3.69,0,0,1,233.76,122.31Z" transform="translate(-28.37 -52.25)"/><path class="cls-8" d="M244.78,119.73V123H244v-3.14a1.56,1.56,0,0,0-1.67-1.78,1.82,1.82,0,0,0-1.94,2V123h-.75v-7.83h.75v3.25a2.35,2.35,0,0,1,2.08-1A2.12,2.12,0,0,1,244.78,119.73Z" transform="translate(-28.37 -52.25)"/><path class="cls-8" d="M252.44,120.17a2.69,2.69,0,0,1-2.76,2.83,2.39,2.39,0,0,1-2.14-1.15V123h-.72v-7.83h.75v3.34a2.41,2.41,0,0,1,2.11-1.1A2.68,2.68,0,0,1,252.44,120.17Zm-.75,0a2.07,2.07,0,1,0-2.07,2.17A2,2,0,0,0,251.69,120.17Z" transform="translate(-28.37 -52.25)"/><path class="cls-8" d="M253.41,120.17a2.82,2.82,0,1,1,2.82,2.83A2.72,2.72,0,0,1,253.41,120.17Zm4.88,0a2.06,2.06,0,1,0-2.06,2.17A2,2,0,0,0,258.29,120.17Z" transform="translate(-28.37 -52.25)"/><path class="cls-8" d="M264.73,119.51V123H264v-.87a2.1,2.1,0,0,1-1.91.92c-1.26,0-2-.65-2-1.61s.55-1.57,2.14-1.57H264v-.34c0-1-.53-1.47-1.57-1.47a2.83,2.83,0,0,0-1.84.66l-.34-.56a3.49,3.49,0,0,1,2.26-.75A2,2,0,0,1,264.73,119.51Zm-.75,1.77v-.91h-1.74c-1.07,0-1.42.43-1.42,1s.52,1,1.4,1A1.76,1.76,0,0,0,264,121.28Z" transform="translate(-28.37 -52.25)"/><path class="cls-8" d="M269.56,117.36v.73h-.18a1.78,1.78,0,0,0-1.86,2V123h-.75V117.4h.71v1.09A2.1,2.1,0,0,1,269.56,117.36Z" transform="translate(-28.37 -52.25)"/><path class="cls-8" d="M275.92,115.12V123h-.72v-1.1a2.39,2.39,0,0,1-2.14,1.15,2.82,2.82,0,0,1,0-5.64,2.41,2.41,0,0,1,2.11,1.1v-3.34Zm-.74,5a2.06,2.06,0,1,0-2.06,2.17A2,2,0,0,0,275.18,120.17Z" transform="translate(-28.37 -52.25)"/><path class="cls-3" d="M440.19,250.32c0,.15-57.11.26-127.54.26s-127.55-.11-127.55-.26,57.1-.26,127.55-.26S440.19,250.18,440.19,250.32Z" transform="translate(-28.37 -52.25)"/><path class="cls-3" d="M279.07,380.54c-.14,0-.26-55-.26-122.75s.12-122.75.26-122.75.26,55,.26,122.75S279.22,380.54,279.07,380.54Z" transform="translate(-28.37 -52.25)"/><path class="cls-3" d="M361.84,380.54c-.14,0-.26-55-.26-122.75S361.7,135,361.84,135s.26,55,.26,122.75S362,380.54,361.84,380.54Z" transform="translate(-28.37 -52.25)"/></g><g id="Character"><path class="cls-7" d="M625.23,149.79s13.86,4.4,19.57,17.08c5.61,12.45,14.27,34.44,14.27,34.44s3.34-.57,2.5,2.65l16.88-13.86,9,8.17-3.75,4.55s1,9.5-6.67,15.19-28.13,19.56-34.38,10.64-8.73-38.37-8.73-38.37Z" transform="translate(-28.37 -52.25)"/><path class="cls-8" d="M683.67,202.83a42.1,42.1,0,0,1-4.9-4.45,42.32,42.32,0,0,1-4.53-4.81,43.51,43.51,0,0,1,4.9,4.44A42.86,42.86,0,0,1,683.67,202.83Z" transform="translate(-28.37 -52.25)"/><path class="cls-8" d="M685.33,196.52a6.46,6.46,0,0,1-1.78,2.27,6.57,6.57,0,0,1-2.32,1.72,10.47,10.47,0,0,1,2-2.09A10.85,10.85,0,0,1,685.33,196.52Z" transform="translate(-28.37 -52.25)"/><path class="cls-8" d="M682.82,194.45a7.53,7.53,0,0,1-2,1.8,7.16,7.16,0,0,1-2.35,1.37,7.53,7.53,0,0,1,2-1.8A7.16,7.16,0,0,1,682.82,194.45Z" transform="translate(-28.37 -52.25)"/><path class="cls-8" d="M679.79,191.41c.1.11-.8,1-2,2a7.81,7.81,0,0,1-2.34,1.57c-.09-.11.81-1,2-2A8,8,0,0,1,679.79,191.41Z" transform="translate(-28.37 -52.25)"/><path class="cls-8" d="M653.43,211.93a17.82,17.82,0,0,1,8.06-7.86c.08.14-2.09,1.47-4.31,3.65S653.56,212,653.43,211.93Z" transform="translate(-28.37 -52.25)"/><path class="cls-8" d="M652.28,207.88a9.52,9.52,0,0,1,2.51-4.07,9.34,9.34,0,0,1,3.93-2.72c.08.14-1.78,1.19-3.55,3.08S652.43,208,652.28,207.88Z" transform="translate(-28.37 -52.25)"/><path class="cls-7" d="M570.61,153.78s2.24-8.06,6.58-8.69c0,0,2.11-7,10.95-8.3,5.08-.74,24.18-2.63,27.28,1.56s3.46,6.55,3.46,6.55,9.28,1.28,8,12.56L575.55,160Z" transform="translate(-28.37 -52.25)"/><path class="cls-7" d="M636,437.18l-.34,19.12s19.22,5.17,19.5,8.71l-37,2.27-.7-29.81Z" transform="translate(-28.37 -52.25)"/><path class="cls-3" d="M624.2,454.9a1.52,1.52,0,0,0-1,1.75,1.45,1.45,0,0,0,1.72,1,1.59,1.59,0,0,0,1.07-1.85,1.51,1.51,0,0,0-1.91-.87" transform="translate(-28.37 -52.25)"/><path class="cls-8" d="M618.21,467.28l-.07-3,35.06-1.48s2.07,1.1,2.07,2.26Z" transform="translate(-28.37 -52.25)"/><path class="cls-8" d="M636.3,456.1c0,.18-.91.28-1.79.88s-1.34,1.37-1.51,1.3.09-1.12,1.17-1.83S636.34,455.93,636.3,456.1Z" transform="translate(-28.37 -52.25)"/><path class="cls-8" d="M640.22,457.64c0,.17-.73.5-1.33,1.27s-.77,1.59-.95,1.59-.31-1,.45-2S640.21,457.47,640.22,457.64Z" transform="translate(-28.37 -52.25)"/><path class="cls-8" d="M642.52,462.26c-.17,0-.44-.86,0-1.86s1.29-1.41,1.37-1.26-.44.68-.79,1.51S642.7,462.23,642.52,462.26Z" transform="translate(-28.37 -52.25)"/><path class="cls-8" d="M635.89,451.73c-.07.17-.9-.06-1.93,0s-1.81.43-1.91.28.66-.82,1.87-.9S636,451.59,635.89,451.73Z" transform="translate(-28.37 -52.25)"/><path class="cls-8" d="M635.89,447.88a3.53,3.53,0,0,1-1.86,0,8.4,8.4,0,0,1-1.95-.56,7.86,7.86,0,0,1-1.08-.55,2.24,2.24,0,0,1-.57-.43.8.8,0,0,1-.1-1,1,1,0,0,1,.79-.43,2.48,2.48,0,0,1,.7.09,6.84,6.84,0,0,1,1.16.37,6.44,6.44,0,0,1,1.73,1.1c.88.78,1.18,1.45,1.12,1.49s-.51-.5-1.4-1.15a7.82,7.82,0,0,0-1.67-.9,7.91,7.91,0,0,0-1.07-.31c-.4-.09-.73-.09-.83.09s0,.09,0,.2a1.41,1.41,0,0,0,.41.31,11.14,11.14,0,0,0,1,.55,10.22,10.22,0,0,0,1.8.65A12.31,12.31,0,0,1,635.89,447.88Z" transform="translate(-28.37 -52.25)"/><path class="cls-8" d="M635.66,448.14a3,3,0,0,1-.52-1.79,5.85,5.85,0,0,1,.67-3.17,1.52,1.52,0,0,1,1.16-1,.88.88,0,0,1,.79.5,2.24,2.24,0,0,1,.2.68,4.06,4.06,0,0,1,0,1.25,4.46,4.46,0,0,1-.76,1.94c-.71,1-1.46,1.2-1.48,1.14s.57-.45,1.1-1.39a4.2,4.2,0,0,0,.56-1.75,4,4,0,0,0,0-1.08c-.07-.39-.22-.7-.37-.66s-.49.3-.64.62a6.41,6.41,0,0,0-.44,1,6.77,6.77,0,0,0-.33,1.86C635.55,447.44,635.76,448.11,635.66,448.14Z" transform="translate(-28.37 -52.25)"/><path class="cls-7" d="M583.26,439l-3.15,18.87s18.25,7.93,18,11.47l-36.93-3.18,3.7-29.6Z" transform="translate(-28.37 -52.25)"/><path class="cls-3" d="M568.94,454.8a1.52,1.52,0,0,0-1.26,1.58,1.45,1.45,0,0,0,1.55,1.27,1.59,1.59,0,0,0,1.33-1.68,1.51,1.51,0,0,0-1.76-1.14" transform="translate(-28.37 -52.25)"/><path class="cls-8" d="M561.19,466.17l.37-2.95,34.9,3.69s1.89,1.39,1.72,2.53Z" transform="translate(-28.37 -52.25)"/><path class="cls-8" d="M580.73,457.77c0,.18-.94.14-1.9.6s-1.52,1.16-1.68,1.07.25-1.1,1.42-1.64S580.79,457.61,580.73,457.77Z" transform="translate(-28.37 -52.25)"/><path class="cls-8" d="M584.38,459.87c0,.17-.8.38-1.5,1.06s-1,1.46-1.17,1.43-.16-1.06.74-1.89S584.4,459.69,584.38,459.87Z" transform="translate(-28.37 -52.25)"/><path class="cls-8" d="M586,464.77c-.16,0-.3-.91.29-1.84s1.48-1.2,1.54-1-.53.61-1,1.38S586.16,464.77,586,464.77Z" transform="translate(-28.37 -52.25)"/><path class="cls-8" d="M581,453.39c-.09.15-.89-.2-1.91-.27s-1.86.16-1.93,0,.77-.71,2-.61S581.08,453.26,581,453.39Z" transform="translate(-28.37 -52.25)"/><path class="cls-8" d="M581.54,449.57a3.48,3.48,0,0,1-1.85-.25,8.38,8.38,0,0,1-1.85-.84,8.49,8.49,0,0,1-1-.7,2.21,2.21,0,0,1-.5-.51.77.77,0,0,1,0-1,1,1,0,0,1,.84-.31,2.79,2.79,0,0,1,.68.18,6.53,6.53,0,0,1,1.09.55,6.64,6.64,0,0,1,1.56,1.33,3.16,3.16,0,0,1,.89,1.64c-.09.05-.43-.57-1.22-1.33a7.43,7.43,0,0,0-1.52-1.14,6,6,0,0,0-1-.47c-.37-.15-.7-.2-.83,0s0,.08,0,.21a2,2,0,0,0,.36.37,10.74,10.74,0,0,0,.91.68,9.83,9.83,0,0,0,1.69.91A14.81,14.81,0,0,1,581.54,449.57Z" transform="translate(-28.37 -52.25)"/><path class="cls-8" d="M581.27,449.8A3,3,0,0,1,581,448a6.12,6.12,0,0,1,.52-2,6.4,6.4,0,0,1,.61-1.06,1.53,1.53,0,0,1,1.3-.77.86.86,0,0,1,.7.61,2.27,2.27,0,0,1,.1.7,4.28,4.28,0,0,1-1.19,3c-.84.86-1.62,1-1.63.92s.62-.37,1.29-1.21a4.3,4.3,0,0,0,.81-1.66,4.14,4.14,0,0,0,.11-1.07c0-.4-.12-.73-.27-.71s-.53.23-.72.52a6.36,6.36,0,0,0-.59.94,6.79,6.79,0,0,0-.59,1.79C581.27,449.09,581.37,449.78,581.27,449.8Z" transform="translate(-28.37 -52.25)"/><path class="cls-8" d="M572.24,250.2c-.25,0-10.36,202-10.36,202h28l8.27-93.13L605,283.41l4.27,70,5.1,98.61,25.72-.92-2.32-202h-33.3Z" transform="translate(-28.37 -52.25)"/><path class="cls-13" d="M585.8,106.51l3.83,44.43,10.43,6.15,11.62-5.62c.14-2.6.15-15,.15-15s9.26-1.44,9.38-10.69c0-4.5-.59-13.79-1.27-22.15a17.13,17.13,0,0,0-18.07-15.73h0A17.13,17.13,0,0,0,585.8,106.51Z" transform="translate(-28.37 -52.25)"/><path class="cls-14" d="M611.85,136.38A21.59,21.59,0,0,1,599.78,133s2.86,6.66,12.09,5.83Z" transform="translate(-28.37 -52.25)"/><path class="cls-8" d="M617.31,110.74a1.31,1.31,0,0,1-1.27,1.33,1.27,1.27,0,0,1-1.37-1.19,1.32,1.32,0,0,1,1.28-1.33A1.25,1.25,0,0,1,617.31,110.74Z" transform="translate(-28.37 -52.25)"/><path class="cls-8" d="M618,108.33c-.16.17-1.16-.57-2.58-.57s-2.47.72-2.62.55.09-.39.54-.72a3.66,3.66,0,0,1,2.1-.65,3.47,3.47,0,0,1,2.06.67C617.9,107.94,618,108.25,618,108.33Z" transform="translate(-28.37 -52.25)"/><path class="cls-8" d="M604,110.92a1.33,1.33,0,0,1-1.28,1.34,1.27,1.27,0,0,1-1.36-1.2,1.33,1.33,0,0,1,1.28-1.33A1.27,1.27,0,0,1,604,110.92Z" transform="translate(-28.37 -52.25)"/><path class="cls-8" d="M604,108.6c-.16.17-1.16-.57-2.58-.57s-2.47.72-2.62.54.09-.39.54-.72a3.59,3.59,0,0,1,2.1-.64,3.5,3.5,0,0,1,2.06.66C603.91,108.21,604.06,108.52,604,108.6Z" transform="translate(-28.37 -52.25)"/><path class="cls-8" d="M609.15,119.14a9.36,9.36,0,0,1,2.31-.41c.36,0,.7-.11.76-.36a1.79,1.79,0,0,0-.24-1.08l-1.07-2.76a49.62,49.62,0,0,1-2.42-7.24c.16-.06,1.5,3.09,3,7,.36,1,.71,1.89,1,2.78a2,2,0,0,1,.19,1.42.9.9,0,0,1-.6.53,2,2,0,0,1-.61.09A9,9,0,0,1,609.15,119.14Z" transform="translate(-28.37 -52.25)"/><path class="cls-8" d="M605,120.13c.23,0,.23,1.53,1.55,2.62s3,.93,3,1.15-.36.29-1.06.31a3.78,3.78,0,0,1-2.48-.86,3.33,3.33,0,0,1-1.21-2.2C604.68,120.5,604.85,120.12,605,120.13Z" transform="translate(-28.37 -52.25)"/><path class="cls-8" d="M604.35,103c-.14.39-1.56.2-3.23.41s-3,.65-3.24.31c-.1-.17.14-.53.68-.91A5.44,5.44,0,0,1,601,102a5.39,5.39,0,0,1,2.53.3C604.1,102.53,604.41,102.84,604.35,103Z" transform="translate(-28.37 -52.25)"/><path class="cls-8" d="M617.44,104.21c-.25.33-1.23,0-2.41,0s-2.17.21-2.4-.13c-.1-.16,0-.48.49-.79a3.41,3.41,0,0,1,2-.53,3.36,3.36,0,0,1,1.92.65C617.41,103.72,617.55,104.06,617.44,104.21Z" transform="translate(-28.37 -52.25)"/><path class="cls-8" d="M616.66,94.85" transform="translate(-28.37 -52.25)"/><path class="cls-8" d="M579.27,94.66c-.06-1.72,1.17-3.57,2.9-3.68a4.27,4.27,0,0,1,6.11-5.37,5.55,5.55,0,0,1,9.77-2A5.9,5.9,0,0,1,608,85.19a6.47,6.47,0,0,1,9.53,1.36,8.6,8.6,0,0,1,3.17-.5A3.82,3.82,0,0,1,624,88.16a2.52,2.52,0,0,1-.95,3,3.07,3.07,0,1,1,1.39,6,1.74,1.74,0,0,1,1,1.61,3.28,3.28,0,0,1-2.17,2.39c-2.64,1.16-5.71.79-8.44-.13s-5.27-2.35-8-3.34-7.24-2.75-10-1.8a5.45,5.45,0,0,0-1.09.58,7.3,7.3,0,0,0-2.69,4.69,1.11,1.11,0,0,1,0,.19c-.36,2.64-.3,5.33-.69,8a11.93,11.93,0,0,1-3.25,7.14c-.8.74-2.22,1.26-2.88.38a2.26,2.26,0,0,1-.32-1.21c-.36-4.6-1.36-8.82-1.89-13.32a12.91,12.91,0,0,0-2.51-3A7.2,7.2,0,0,1,579.27,94.66Z" transform="translate(-28.37 -52.25)"/><path class="cls-6" d="M606.86,90a2.39,2.39,0,0,0,.13-1.23,4.8,4.8,0,0,0-1.48-3,4.86,4.86,0,0,0-4.87-1,3.73,3.73,0,0,0-2.28,2,2.6,2.6,0,0,0-.07,1.7,2,2,0,0,0,1.2,1.33,1.9,1.9,0,0,0,1.8-.2A1.8,1.8,0,0,0,602,88a2.32,2.32,0,0,0-.76-1.48,3.55,3.55,0,0,0-1.35-.75,5.67,5.67,0,0,0-4.93.81,3.49,3.49,0,0,0-1.2,1.58,2.66,2.66,0,0,0-.07,1.49c.21.82.67,1.07.67,1a3.24,3.24,0,0,1-.45-1.09A2.58,2.58,0,0,1,594,88.3,3.19,3.19,0,0,1,595.16,87a5.34,5.34,0,0,1,4.52-.63,2.2,2.2,0,0,1,1.69,1.76,1.22,1.22,0,0,1-.43,1.11,1.32,1.32,0,0,1-1.24.12,1.74,1.74,0,0,1-.81-2.27,3.25,3.25,0,0,1,1.94-1.75,4.46,4.46,0,0,1,4.4.76,4.73,4.73,0,0,1,1.53,2.76C606.88,89.57,606.81,90,606.86,90Z" transform="translate(-28.37 -52.25)"/><path class="cls-6" d="M595.61,84.11a2.05,2.05,0,0,0-.84-.16,8.89,8.89,0,0,0-2.32.06,5.46,5.46,0,0,0-3.12,1.58,3.49,3.49,0,0,0-.49,4.19,2.87,2.87,0,0,0,.51.58l.3-.5a2.47,2.47,0,0,0-2.21.29,2.76,2.76,0,0,0-1.18,1.67A4,4,0,0,0,587,95a6.13,6.13,0,0,0,1.59,1.49c.42.28.68.39.7.36s-.2-.21-.57-.53a7.6,7.6,0,0,1-1.39-1.54,3.6,3.6,0,0,1-.53-2.84,2.26,2.26,0,0,1,1-1.33,1.89,1.89,0,0,1,1.68-.22L591,91l-1.22-1.11a2.21,2.21,0,0,1-.4-.45A2.78,2.78,0,0,1,589,87.6a3.07,3.07,0,0,1,.78-1.64,5.13,5.13,0,0,1,2.79-1.54C594.38,84.06,595.61,84.23,595.61,84.11Z" transform="translate(-28.37 -52.25)"/><path class="cls-6" d="M582.21,93.9c-.07,0-.23.31-.23.88a3.13,3.13,0,0,0,2.76,3.08c.57.06.91-.07.9-.14a5.7,5.7,0,0,1-2.42-1.27C582.2,95.31,582.38,93.9,582.21,93.9Z" transform="translate(-28.37 -52.25)"/><path class="cls-6" d="M621.75,89.07a2.39,2.39,0,0,0-.87-.7,6,6,0,0,0-7.14.94,3.45,3.45,0,0,0-1.09,2.55,2.12,2.12,0,0,0,2.18,2,1.63,1.63,0,0,0,1.32-1,2.31,2.31,0,0,0,.09-1.55,3,3,0,0,0-2-1.95,3.84,3.84,0,0,0-2.49,0,5.4,5.4,0,0,0-1.84,1.12A9.28,9.28,0,0,0,608.09,93a3.93,3.93,0,0,0-.45,1,4.45,4.45,0,0,0,.65-.89,10.3,10.3,0,0,1,1.9-2.24,4.07,4.07,0,0,1,3.88-1,2.44,2.44,0,0,1,1.62,1.58c.22.75-.13,1.76-.92,1.82a1.58,1.58,0,0,1-1.55-1.47,3,3,0,0,1,.91-2.14A5.67,5.67,0,0,1,617.94,88a6.33,6.33,0,0,1,2.84.55A8.58,8.58,0,0,0,621.75,89.07Z" transform="translate(-28.37 -52.25)"/><path class="cls-13" d="M588.92,110.7c-.16-.07-6.36-1.88-6.15,4.45s6.51,4.82,6.51,4.64S588.92,110.7,588.92,110.7Z" transform="translate(-28.37 -52.25)"/><path class="cls-14" d="M587.27,117.45s-.1.08-.29.17a1.1,1.1,0,0,1-.82,0,2.74,2.74,0,0,1-1.34-2.41,3.55,3.55,0,0,1,.26-1.59,1.26,1.26,0,0,1,.8-.87.55.55,0,0,1,.66.28c.09.17.05.3.09.31s.13-.11.07-.37a.74.74,0,0,0-.26-.39.85.85,0,0,0-.62-.14,1.56,1.56,0,0,0-1.12,1,3.8,3.8,0,0,0-.32,1.78,2.87,2.87,0,0,0,1.69,2.68,1.23,1.23,0,0,0,1-.2C587.27,117.6,587.3,117.46,587.27,117.45Z" transform="translate(-28.37 -52.25)"/><path class="cls-7" d="M640.66,234l-2.83-29.85L641,179.56A32.32,32.32,0,0,0,625.23,150h0l-24.69,6.79L576.35,150l-10.44,7,8.78,49.7-3.8,32.76c-.89,6,1.11,14.46,1.11,14.46l65.87.57,1.25-.61A54.75,54.75,0,0,0,640.66,234Z" transform="translate(-28.37 -52.25)"/><path class="cls-7" d="M584,144.13s4.56-.84,7.53,1.52,12.39,9.6,12.39,9.6,8.44-15.53,15.28-13.1,8,16.72,8,16.72l-30.48,1.91-18.78-.39Z" transform="translate(-28.37 -52.25)"/><path class="cls-8" d="M631.47,246.49s.39-.52,1-1.56a16.59,16.59,0,0,0,1.91-4.77,16.82,16.82,0,0,0-.09-7.85c-.69-3-2.72-5.85-5-8.76l.16.09a9,9,0,0,1-4.36-1.56,9.92,9.92,0,0,1-3.21-3.74l.26.15-8.75.76-9.88.86.22-.18a8.8,8.8,0,0,1-1.41,2.68,9.86,9.86,0,0,1-2.17,2,13.46,13.46,0,0,1-5.09,1.95l.18-.3a21.34,21.34,0,0,1,.63,9.16,17.4,17.4,0,0,1-2.33,6.69,9.56,9.56,0,0,1-3.18,3.26,6.25,6.25,0,0,1-1.08.54,1.52,1.52,0,0,1-.39.14s.52-.24,1.39-.8a9.9,9.9,0,0,0,3-3.28,17.47,17.47,0,0,0,2.19-6.61,21.1,21.1,0,0,0-.69-9l-.08-.25.27,0a13.11,13.11,0,0,0,4.88-1.91,9.52,9.52,0,0,0,2-1.86,8.59,8.59,0,0,0,1.32-2.53l0-.16.17,0,9.88-.86,8.74-.76h.18l.08.16a9.51,9.51,0,0,0,3,3.55,8.53,8.53,0,0,0,4.11,1.49h.1l.06.07a43,43,0,0,1,3.14,4.42,15.93,15.93,0,0,1,1.92,4.55,16.93,16.93,0,0,1,0,8,15.79,15.79,0,0,1-2,4.78A9,9,0,0,1,631.47,246.49Z" transform="translate(-28.37 -52.25)"/><g class="cls-15"><path d="M594.56,226.08c-.62,3.5-1.72,7.12-4.32,9.55-1.38,1.29-3.17,2.07-4.63,3.27s-2.63,3.13-2.06,4.93,2.88,2.77,4.78,2.34a8.08,8.08,0,0,0,4.55-3.47,17.15,17.15,0,0,0,1.68-16.62" transform="translate(-28.37 -52.25)"/></g><path class="cls-8" d="M640.65,247.41a2.69,2.69,0,0,1-.67.13l-2,.27c-1.69.23-4.14.51-7.18.8-6.07.58-14.49,1.11-23.8,1.15s-17.73-.44-23.81-1c-3-.27-5.49-.53-7.18-.75l-1.95-.25a3.21,3.21,0,0,1-.67-.13,3.17,3.17,0,0,1,.68,0l2,.16c1.69.16,4.15.36,7.19.58,6.07.45,14.48.86,23.78.83s17.7-.51,23.77-1c3-.24,5.49-.46,7.19-.63l2-.17A5.74,5.74,0,0,1,640.65,247.41Z" transform="translate(-28.37 -52.25)"/><path class="cls-8" d="M580.59,255.19a6,6,0,0,1-1.4-3.14,5.93,5.93,0,0,1,.08-3.44c.15,0,.06,1.53.44,3.34S580.72,255.12,580.59,255.19Z" transform="translate(-28.37 -52.25)"/><path class="cls-8" d="M585.84,254.18a14.53,14.53,0,0,1-.7-5.34,6.91,6.91,0,0,1,.61,2.64A7,7,0,0,1,585.84,254.18Z" transform="translate(-28.37 -52.25)"/><path class="cls-8" d="M594.2,255.76a12.73,12.73,0,0,1-.34-6.48,14.24,14.24,0,0,1,.27,3.23A15.37,15.37,0,0,1,594.2,255.76Z" transform="translate(-28.37 -52.25)"/><path class="cls-8" d="M600.89,255.07a7.45,7.45,0,0,1-.55-2.7,7.22,7.22,0,0,1,0-2.75,7.45,7.45,0,0,1,.55,2.7A7.24,7.24,0,0,1,600.89,255.07Z" transform="translate(-28.37 -52.25)"/><path class="cls-8" d="M609.67,255.3a10.16,10.16,0,0,1-.34-5.57,10.19,10.19,0,0,1,.3,2.77A11.08,11.08,0,0,1,609.67,255.3Z" transform="translate(-28.37 -52.25)"/><path class="cls-8" d="M615.73,254.07a4.89,4.89,0,0,1-.29-2.17,4.8,4.8,0,0,1,.22-2.17c.15,0,.28,1,.3,2.17A4.6,4.6,0,0,1,615.73,254.07Z" transform="translate(-28.37 -52.25)"/><path class="cls-8" d="M623.83,254.62a5.89,5.89,0,0,1-.63-2.75,5.76,5.76,0,0,1,.25-2.81,11.65,11.65,0,0,1,.27,2.77A11.44,11.44,0,0,1,623.83,254.62Z" transform="translate(-28.37 -52.25)"/><path class="cls-8" d="M630,253.84a8.43,8.43,0,0,1-.56-2.86,8,8,0,0,1,0-2.92,8.43,8.43,0,0,1,.56,2.86A8,8,0,0,1,630,253.84Z" transform="translate(-28.37 -52.25)"/><path class="cls-8" d="M635.32,254.41a19.84,19.84,0,0,1,1-6.24,9.37,9.37,0,0,1-.24,3.16A9.93,9.93,0,0,1,635.32,254.41Z" transform="translate(-28.37 -52.25)"/><path class="cls-8" d="M575,256.3a8.89,8.89,0,0,1-2.15-3.92,8.77,8.77,0,0,1-.46-4.44c.15,0,.23,2,1,4.29S575.1,256.21,575,256.3Z" transform="translate(-28.37 -52.25)"/><g class="cls-15"><path d="M570.05,231.87c1.5,2.17,4.64,2.38,7.24,1.92,6.15-1.07,11.67-4.57,16.16-8.92s8-9.53,11.59-14.68c-5.11,4.75-10.25,9.52-16,13.44s-12.26,7-19.17,7.93" transform="translate(-28.37 -52.25)"/></g><path class="cls-8" d="M632,171.66a3.08,3.08,0,0,1,.16.57c.09.44.21,1,.35,1.69.3,1.46.69,3.59,1.15,6.22.91,5.26,2,12.55,3.18,20.61s2.06,15.39,2.64,20.7c.3,2.65.51,4.8.63,6.29.05.7.09,1.26.13,1.71a2.26,2.26,0,0,1,0,.6,3.72,3.72,0,0,1-.11-.59c-.06-.44-.13-1-.22-1.7-.2-1.55-.46-3.68-.79-6.27-.68-5.29-1.66-12.6-2.79-20.67s-2.22-15.35-3-20.62c-.4-2.59-.73-4.7-1-6.25-.1-.69-.19-1.25-.26-1.7A2.39,2.39,0,0,1,632,171.66Z" transform="translate(-28.37 -52.25)"/><path class="cls-13" d="M644.05,170.21c-3.17.58-3.51-3.09-9.41-2.16-4.4.7-12.31,2.36-22.72,9.35l6,14,11.24-7.71,6.62,5.27a3.1,3.1,0,0,0,4.4-.56l4.05-5.38s5.38,6.63,6,6.68a1.78,1.78,0,0,0,1.67-2.72c-.73-.9-8-13.48-8-13.48s4.69-1,3.58-2.46C647.48,171.07,647.23,169.62,644.05,170.21Z" transform="translate(-28.37 -52.25)"/><path class="cls-14" d="M639.53,189.59a8.32,8.32,0,0,1-.09-1,5.38,5.38,0,0,0-2.56-3.93,9,9,0,0,1-.91-.49,2.2,2.2,0,0,1,1,.29,4.78,4.78,0,0,1,1.89,1.69,4.72,4.72,0,0,1,.79,2.42A2.1,2.1,0,0,1,639.53,189.59Z" transform="translate(-28.37 -52.25)"/><path class="cls-14" d="M642,186a9.32,9.32,0,0,0-1.27-2.62,9.62,9.62,0,0,0-2.22-1.87,1.79,1.79,0,0,1,.84.29,5.17,5.17,0,0,1,2.58,3.31A1.68,1.68,0,0,1,642,186Z" transform="translate(-28.37 -52.25)"/><path class="cls-14" d="M641.28,178.89s.29.06.66.33a4.43,4.43,0,0,1,1.72,3.07c0,.46,0,.74-.06.74a9.65,9.65,0,0,0-.77-2.29A9.23,9.23,0,0,0,641.28,178.89Z" transform="translate(-28.37 -52.25)"/><path class="cls-7" d="M565.91,156.75s-5.68,3.66-7.8,13.93c-1.47,7.08.19,28.81-1.83,40.83A18.92,18.92,0,0,0,561,227.38h0c8.57,5.5,15.29,5,20.82,1.91,16.89-9.33,30.13-26,35.91-35.39l3.62-4-5.9-17.23-6.76,5c-10.92,3.36-22.35,12.86-34,24.38Z" transform="translate(-28.37 -52.25)"/><path class="cls-8" d="M579.3,197.49a18.16,18.16,0,0,1-.34-3.11c-.14-1.93-.31-4.6-.44-7.55s-.2-5.62-.17-7.56a14.41,14.41,0,0,1,.21-3.13,29.13,29.13,0,0,1,.16,3.13c.09,2.08.2,4.67.32,7.54s.24,5.61.29,7.55A18.59,18.59,0,0,1,579.3,197.49Z" transform="translate(-28.37 -52.25)"/><path class="cls-8" d="M561,227.38l.33.21c.22.13.52.36,1,.62a23.54,23.54,0,0,0,3.87,2,18.12,18.12,0,0,0,6.7,1.27,18.81,18.81,0,0,0,8.7-2.28,54.07,54.07,0,0,0,9.26-6,105.28,105.28,0,0,0,9.36-8.58A194.66,194.66,0,0,0,619,192.44c.7-1,1.39-1.93,2.07-2.88l0,.23c-2-5.88-4-11.56-5.81-16.87l.36.14c-13.27,8-24.12,15.9-31.85,21.44l-9,6.54-2.41,1.73-.63.44c-.15.1-.22.15-.23.14l.2-.17.6-.48c.57-.42,1.36-1,2.37-1.8,2.07-1.57,5.1-3.84,8.93-6.66,7.67-5.61,18.5-13.53,31.77-21.61l.27-.16.1.29c1.83,5.31,3.8,11,5.83,16.86l.05.13-.08.11-2.08,2.89a190.85,190.85,0,0,1-19,22.18,104.59,104.59,0,0,1-9.44,8.58,53.25,53.25,0,0,1-9.36,6,19,19,0,0,1-8.86,2.24,18.17,18.17,0,0,1-6.77-1.37,21.52,21.52,0,0,1-3.86-2.08c-.42-.26-.71-.51-.92-.66Z" transform="translate(-28.37 -52.25)"/><path class="cls-8" d="M579.3,197.49c0,.09-.85-.05-2.19,0a13.47,13.47,0,0,0-9.26,4.17c-.91,1-1.36,1.69-1.44,1.64a5.61,5.61,0,0,1,1.17-1.88,12.08,12.08,0,0,1,9.53-4.29A5.65,5.65,0,0,1,579.3,197.49Z" transform="translate(-28.37 -52.25)"/><path class="cls-8" d="M616.58,195.56a16.63,16.63,0,0,1-1.22-2.65c-.77-1.81-1.71-4-2.76-6.48L609.77,180a18.33,18.33,0,0,1-1.1-2.71,14.74,14.74,0,0,1,1.44,2.55c.81,1.62,1.88,3.87,3,6.4s2,4.86,2.62,6.55A15.69,15.69,0,0,1,616.58,195.56Z" transform="translate(-28.37 -52.25)"/><path class="cls-8" d="M620.25,186.32a9.67,9.67,0,0,1-2.51,2.41,9.53,9.53,0,0,1-3,1.79,15.41,15.41,0,0,1,2.66-2.21A15.21,15.21,0,0,1,620.25,186.32Z" transform="translate(-28.37 -52.25)"/><path class="cls-8" d="M618.48,181.66a24.86,24.86,0,0,1-5.9,4.13,12.61,12.61,0,0,1,2.8-2.28A13.45,13.45,0,0,1,618.48,181.66Z" transform="translate(-28.37 -52.25)"/><path class="cls-8" d="M616.89,176.55a30.08,30.08,0,0,1-6.45,4.53,15,15,0,0,1,3.07-2.48A14.78,14.78,0,0,1,616.89,176.55Z" transform="translate(-28.37 -52.25)"/><path class="cls-8" d="M604.16,161.39c-.06.08-1.44-1.14-3.94-2.7a35.64,35.64,0,0,0-4.56-2.42,42.63,42.63,0,0,0-6-2.06,39.67,39.67,0,0,0-11.41-1.16c-2.94.14-4.74.52-4.76.41a6.91,6.91,0,0,1,1.25-.31,13.11,13.11,0,0,1,1.49-.25c.59-.07,1.26-.19,2-.22a35,35,0,0,1,5.23,0,37.63,37.63,0,0,1,6.33,1,39.1,39.1,0,0,1,6,2.12,33.34,33.34,0,0,1,4.57,2.55c.64.39,1.17.81,1.64,1.16a12.62,12.62,0,0,1,1.17,1A5.73,5.73,0,0,1,604.16,161.39Z" transform="translate(-28.37 -52.25)"/><path class="cls-8" d="M625.73,149.67c0,.08-1.38.35-3.57,1a47.61,47.61,0,0,0-8.25,3.22,48.76,48.76,0,0,0-7.51,4.71c-1.81,1.38-2.85,2.33-2.91,2.27s.21-.29.66-.74,1.14-1.08,2-1.82a41,41,0,0,1,7.5-4.89,39.6,39.6,0,0,1,8.4-3.1c1.11-.27,2-.44,2.66-.53A3.29,3.29,0,0,1,625.73,149.67Z" transform="translate(-28.37 -52.25)"/><path class="cls-6" d="M639.73,196.86l73.72-13.54a2.48,2.48,0,0,0,2-2.12l5.61-43.67a2.48,2.48,0,0,0-2.79-2.77L672,141a2.47,2.47,0,0,0-2.13,2.15l-5.63,44.09a2.48,2.48,0,0,1-1.92,2.11L637,195A2.29,2.29,0,0,0,639.73,196.86Z" transform="translate(-28.37 -52.25)"/><path class="cls-8" d="M674.83,142s-.24.13-.64.45a4.52,4.52,0,0,0-1.28,1.81c-.78,1.81-.89,4.72-1.39,8.22-.92,7.07-2.18,16.76-3.58,27.45-.38,2.69-.65,5.28-1.1,7.84a4.64,4.64,0,0,1-.8,1.82,3.75,3.75,0,0,1-1.59,1.15,21,21,0,0,1-3.56.79l-12.25,2.15-8.27,1.4-2.26.36a7.4,7.4,0,0,1-.79.09,3.93,3.93,0,0,1,.77-.2l2.24-.45,8.24-1.57,12.24-2.25a22.12,22.12,0,0,0,3.45-.78,3.16,3.16,0,0,0,1.38-1,4.29,4.29,0,0,0,.71-1.63c.42-2.46.7-5.12,1.08-7.79,1.45-10.69,2.77-20.36,3.73-27.43.24-1.74.47-3.33.67-4.73a12.87,12.87,0,0,1,.89-3.52,4.5,4.5,0,0,1,1.4-1.82A2.34,2.34,0,0,1,674.83,142Z" transform="translate(-28.37 -52.25)"/><path class="cls-8" d="M720.49,135.61a2.31,2.31,0,0,1-.46.1l-1.33.2-4.89.68c-4.13.57-9.83,1.43-16.12,2.4s-12,1.81-16.14,2.33c-2.07.26-3.74.46-4.91.57l-1.33.12a1.78,1.78,0,0,1-.48,0,1.44,1.44,0,0,1,.46-.11l1.33-.22,4.88-.74,16.11-2.48c6.29-1,12-1.76,16.15-2.25,2.08-.24,3.76-.41,4.92-.51l1.34-.1A1.4,1.4,0,0,1,720.49,135.61Z" transform="translate(-28.37 -52.25)"/><path class="cls-5" d="M697,146.42a1.4,1.4,0,0,1,1.35,1.33,1.34,1.34,0,1,1-1.35-1.33" transform="translate(-28.37 -52.25)"/><path class="cls-13" d="M678.91,190.53s2.27-4,4.2-4.23,6.71-1.42,6.71-1.42a16.45,16.45,0,0,0,3.26-3.87c1-1.93,2.44-4.17,3.25-3.86s1.12.51.61,2.24-1.83,5.22-1.83,5.22h1.73s1.94-8.78,4.27-8.68c0,0,1.12.61,1,1.52,0,0,1.22-2.54,1.93-2s.72,2.64.51,4.78-.4,3.53-.4,3.53l1.73-.58s4.17-8.85,5.39-8.65,1.22,1.63.81,2.75-2.75,6.61-2.75,6.61-7.76,4.37-9.35,5.09-14.22,7.81-14.22,7.81Z" transform="translate(-28.37 -52.25)"/><path class="cls-6" d="M571.24,267.83a1.8,1.8,0,0,1,2.49-1.46c5,2.12,17.57,6.92,26,6,10.76-1.14,18.95-8.2,26-6.3s11.65,5.62,13.2,4.1-1-15.8-1-15.8L572,253.84s-1.41,9.84-2.16,13c-.4,1.69,1.4,1,1.4,1Z" transform="translate(-28.37 -52.25)"/><path class="cls-2" d="M639.17,268.4a3.35,3.35,0,0,1-.68-.22l-1.93-.73a65.53,65.53,0,0,0-7.18-2.34,31,31,0,0,0-5.12-.86,25.65,25.65,0,0,0-5.93.29c-4.15.67-8.52,2.32-13.25,3.58a33.87,33.87,0,0,1-13.73.91,33.46,33.46,0,0,1-10.71-3.46c-1.43-.72-2.71-1.38-3.87-1.89a15.63,15.63,0,0,0-5.78-1.47,8.11,8.11,0,0,1,2.77.21,18.2,18.2,0,0,1,3.12,1c1.18.49,2.49,1.13,3.92,1.83A33.4,33.4,0,0,0,605,267.61c4.69-1.24,9.08-2.89,13.31-3.54a25.32,25.32,0,0,1,6-.25,30,30,0,0,1,5.18.93,58.35,58.35,0,0,1,7.16,2.51l1.9.82A2.91,2.91,0,0,1,639.17,268.4Z" transform="translate(-28.37 -52.25)"/><path class="cls-2" d="M639.17,264.57a3.61,3.61,0,0,1-.7-.16l-2-.56-7.26-2.14a41.57,41.57,0,0,0-10.91-2.23,21.54,21.54,0,0,0-6.49.75,67,67,0,0,0-6.68,2.37,38.46,38.46,0,0,1-6.84,2.12,16.84,16.84,0,0,1-6.68-.06,32.2,32.2,0,0,1-5.74-1.87l-4.82-2a38.43,38.43,0,0,0-4.05-1.42,22.21,22.21,0,0,0-3.18-.59l-1.18-.08-.86,0a3.61,3.61,0,0,1-.72,0,4.42,4.42,0,0,1,.71-.09c.24,0,.53-.06.87-.07l1.2,0a19.26,19.26,0,0,1,3.23.51,37.63,37.63,0,0,1,4.12,1.35c3,1.12,6.41,2.9,10.52,3.77a16.28,16.28,0,0,0,6.49,0,38.73,38.73,0,0,0,6.74-2.11,69.55,69.55,0,0,1,6.74-2.37,21.51,21.51,0,0,1,6.63-.74,40.71,40.71,0,0,1,11,2.35l7.22,2.31,2,.65A3.17,3.17,0,0,1,639.17,264.57Z" transform="translate(-28.37 -52.25)"/><path class="cls-2" d="M638.47,259.1a8.68,8.68,0,0,1-2.6.6,19.51,19.51,0,0,1-7.2-1c-1.48-.42-3.08-.94-4.82-1.39a46.05,46.05,0,0,0-5.62-1.06,44.44,44.44,0,0,0-13.06.32c-4.58.8-9,2-13.09,1.85a22.75,22.75,0,0,1-5.72-.9c-1.75-.47-3.35-1-4.82-1.41a19.58,19.58,0,0,0-7.11-.91,15.43,15.43,0,0,0-2.6.49,2.39,2.39,0,0,1,.64-.27,9.88,9.88,0,0,1,1.94-.42,18.86,18.86,0,0,1,7.23.75c3,.74,6.42,2.15,10.45,2.19s8.37-1.07,13-1.88a44.06,44.06,0,0,1,13.21-.29,46.65,46.65,0,0,1,5.67,1.12c1.75.47,3.35,1,4.81,1.45a20.43,20.43,0,0,0,7.08,1.16A23.38,23.38,0,0,0,638.47,259.1Z" transform="translate(-28.37 -52.25)"/></g><g id="Plant"><path class="cls-8" d="M138.75,384.91c1.13-3.9,3.54-7.68,7.27-9.29,3.89-1.67,8.38-.72,12.36.73s7.87,3.37,12.09,3.63,9-1.74,10.24-5.77c1.19-3.8-1.1-7.84-4-10.6a25,25,0,0,0-41,9.84" transform="translate(-28.37 -52.25)"/><path class="cls-6" d="M105.33,401.86c-6.19-5.88-5.88-16.12-2.8-24.08s9.83-14.07,17.36-18.1a55,55,0,0,1,47.9-1.55,22.72,22.72,0,0,0-18.38,10.79c-3.4,5.64-4.15,12.47-6.95,18.42a29,29,0,0,1-37.13,14.52" transform="translate(-28.37 -52.25)"/><path class="cls-6" d="M102.35,366.53c-6.85-8.09-7.76-21.08-6.75-31.63s3.45-21.18,1.79-31.65c-1-6.2-3.4-12.12-4.21-18.35s.34-13.27,5.17-17.29c5.54-4.62,14.28-3.53,20.05.81s9.11,11.15,11.55,17.94c5.37,14.93,7.34,31.48,2.93,46.71S118.13,361.93,103,366.53" transform="translate(-28.37 -52.25)"/><path class="cls-8" d="M99.06,432.9a1.1,1.1,0,0,1,0-.24V432c0-.61,0-1.51.06-2.67.09-2.32.31-5.68.83-9.8a134.05,134.05,0,0,1,2.64-14.34,66.2,66.2,0,0,1,6.55-16.61,69.44,69.44,0,0,1,10.69-14.3A68.61,68.61,0,0,1,131,364.92c1.71-1.18,3.37-2.08,4.79-2.91s2.74-1.4,3.78-1.91l2.47-1,.64-.26.23-.07-.21.12-.62.31-2.42,1.12c-1,.54-2.28,1.19-3.72,2s-3,1.77-4.73,3a69.07,69.07,0,0,0-11.07,9.36,70.09,70.09,0,0,0-10.59,14.22A66.72,66.72,0,0,0,103,405.27a138,138,0,0,0-2.74,14.28c-.57,4.1-.85,7.45-1,9.76-.07,1.12-.12,2-.15,2.66,0,.28,0,.51-.05.7A.89.89,0,0,1,99.06,432.9Z" transform="translate(-28.37 -52.25)"/><path class="cls-8" d="M40,334.62c-12.68,7.65-12.64,14.61-10.52,21.18s9.9,11.14,16.35,8.68c3.65-1.39,6.29-4.56,8.55-7.75s4.37-6.59,7.54-8.88,7.74-3.16,10.92-.89" transform="translate(-28.37 -52.25)"/><path class="cls-6" d="M30.46,343c3.31-4.59,11.51-5.91,16.68-3.63s9,6.82,12.35,11.35,6.69,9.3,11.39,12.45,11.26,4.29,15.94,1.12a13.74,13.74,0,0,0,5.41-9.38,31.3,31.3,0,0,0-.74-11.06c-1.12-5.31-2.95-10.87-7.2-14.25-4.75-3.76-11.33-3.94-17.38-3.74-6.95.23-14,.75-20.51,3.15s-13.17,7.61-15.94,14" transform="translate(-28.37 -52.25)"/><path class="cls-8" d="M88.52,422.75l0-.28c0-.22,0-.48,0-.82,0-.76-.06-1.81-.1-3.15-.08-2.77-.19-6.71-.33-11.57s-.35-10.7-.7-17.15-.84-13.55-1.81-20.93a66.9,66.9,0,0,0-2.11-10.63,56.13,56.13,0,0,0-3.88-9.3,54,54,0,0,0-4.91-7.69,50.36,50.36,0,0,0-5.36-5.88,39.1,39.1,0,0,0-9.5-6.47c-.62-.28-1.15-.56-1.64-.75l-1.24-.48-.76-.31c-.17-.07-.26-.11-.25-.12a1.49,1.49,0,0,1,.27.07l.77.26,1.27.43c.49.19,1,.45,1.67.72a38.06,38.06,0,0,1,9.66,6.38A49.9,49.9,0,0,1,75,341a54,54,0,0,1,5,7.74,55.5,55.5,0,0,1,4,9.37A66.36,66.36,0,0,1,86,368.78c1,7.41,1.45,14.51,1.78,21s.49,12.28.59,17.17.14,8.85.16,11.58c0,1.34,0,2.39,0,3.15,0,.33,0,.6,0,.82A1.07,1.07,0,0,1,88.52,422.75Z" transform="translate(-28.37 -52.25)"/><path class="cls-8" d="M93.09,428.48a2.47,2.47,0,0,1-.13-.35c-.07-.26-.17-.6-.3-1a37.86,37.86,0,0,1-1-4.06,57.4,57.4,0,0,1-.58-15.29A101.81,101.81,0,0,1,96,385.55c2.6-8.16,6.14-16.88,9.15-26.26a119.45,119.45,0,0,0,3.64-13.9,120.36,120.36,0,0,0,1.8-13.26,193.15,193.15,0,0,0,.4-22.67c-.22-6.45-.57-11.67-.78-15.28-.11-1.78-.19-3.18-.25-4.16,0-.45,0-.81-.05-1.08s0-.37,0-.37a1.74,1.74,0,0,1,.06.37c0,.26.06.62.1,1.07.08,1,.2,2.37.35,4.15.28,3.61.68,8.83,1,15.29a187.69,187.69,0,0,1-.29,22.72,121.76,121.76,0,0,1-1.77,13.32,120.44,120.44,0,0,1-3.65,14c-3,9.4-6.57,18.12-9.19,26.24a103,103,0,0,0-4.93,22.08A58.76,58.76,0,0,0,91.91,423c.31,1.77.6,3.15.85,4.06.11.44.19.79.26,1.05A2.27,2.27,0,0,1,93.09,428.48Z" transform="translate(-28.37 -52.25)"/><polygon class="cls-8" points="96.15 381.96 36.62 381.96 35.26 370.5 96.15 370.5 96.15 381.96"/><polygon class="cls-8" points="43 380.65 50.45 415.03 82.8 415.03 89.76 380.65 43 380.65"/><path class="cls-6" d="M124.52,434.21c0,.14-13.09.22-29.23.17s-29.24-.19-29.23-.34,13.08-.22,29.23-.18S124.52,434.06,124.52,434.21Z" transform="translate(-28.37 -52.25)"/><path class="cls-6" d="M114.3,451.17a24.21,24.21,0,0,0-5.23-3,18.61,18.61,0,0,0-6.39-1.28,22.21,22.21,0,0,0-7.84,1.44c-2.72.91-5.25,2-7.71,2.57a18.37,18.37,0,0,1-6.67.21,14,14,0,0,1-4.28-1.35,9.4,9.4,0,0,1-1-.66,1.33,1.33,0,0,1-.32-.27s.5.3,1.45.74a14.7,14.7,0,0,0,4.25,1.17,18.57,18.57,0,0,0,6.5-.31c2.39-.59,4.92-1.67,7.65-2.6a22.31,22.31,0,0,1,8-1.42,18.15,18.15,0,0,1,6.51,1.42,17.18,17.18,0,0,1,3.88,2.26,9.17,9.17,0,0,1,.92.79C114.22,451.05,114.32,451.16,114.3,451.17Z" transform="translate(-28.37 -52.25)"/><path class="cls-5" d="M113.85,453.47a25.12,25.12,0,0,0-5-3,16.87,16.87,0,0,0-6.15-1.27,22.05,22.05,0,0,0-7.59,1.36c-2.63.88-5.09,1.89-7.44,2.53a19,19,0,0,1-6.4.72,10.94,10.94,0,0,1-4.19-1.11,9.1,9.1,0,0,1-1-.63,1.79,1.79,0,0,1-.31-.27c0-.05.49.29,1.4.71a11.27,11.27,0,0,0,4.14.93,19.55,19.55,0,0,0,6.25-.81c2.3-.65,4.74-1.68,7.39-2.56a21.91,21.91,0,0,1,7.77-1.35,16.79,16.79,0,0,1,10,3.65,9.64,9.64,0,0,1,.89.78C113.77,453.35,113.86,453.46,113.85,453.47Z" transform="translate(-28.37 -52.25)"/><path class="cls-5" d="M114.89,448.9s-.48-.37-1.37-1a22,22,0,0,0-4-2.21,19.62,19.62,0,0,0-6.54-1.58,21.24,21.24,0,0,0-8.1,1.42,69.81,69.81,0,0,1-8,2.61,20.33,20.33,0,0,1-6.88,0,15.35,15.35,0,0,1-4.42-1.39,8.58,8.58,0,0,1-1.07-.66c-.24-.17-.35-.27-.34-.29s.52.32,1.5.77a17.37,17.37,0,0,0,4.39,1.21,20.78,20.78,0,0,0,6.73-.13,79.44,79.44,0,0,0,7.91-2.63,21.2,21.2,0,0,1,8.29-1.41,19.35,19.35,0,0,1,6.66,1.72,19.74,19.74,0,0,1,4,2.38,11.56,11.56,0,0,1,1,.82C114.8,448.77,114.91,448.88,114.89,448.9Z" transform="translate(-28.37 -52.25)"/></g></svg>