<?xml version="1.0" encoding="utf-8"?>
<!-- Generator: Adobe Illustrator 22.1.0, SVG Export Plug-In . SVG Version: 6.00 Build 0)  -->
<svg version="1.1" xmlns="http://www.w3.org/2000/svg" xmlns:xlink="http://www.w3.org/1999/xlink" x="0px" y="0px"
	 viewBox="0 0 3001 3001" style="enable-background:new 0 0 3001 3001;" xml:space="preserve">
<style type="text/css">
	.st0{fill:none;stroke:#000000;stroke-width:5;stroke-linecap:round;}
	.st1{fill:none;stroke:#2039D2;stroke-width:4.7644;stroke-linecap:round;}
	.st2{fill:none;stroke:#000000;stroke-width:4.7644;stroke-linecap:round;}
	.st3{fill:none;stroke:#2039D2;stroke-width:5;stroke-linecap:round;}
	.st4{fill:none;stroke:#7432FF;stroke-width:4.7644;stroke-linecap:round;}
	.st5{fill:none;stroke:#7432FF;stroke-width:5;stroke-linecap:round;}
	.st6{fill:none;stroke:#000000;stroke-width:6;}
	.st7{fill:none;stroke:#000000;stroke-width:18;}
	.st8{fill:none;stroke:#000000;stroke-width:10;}
	.st9{fill:none;stroke:#000000;stroke-width:14.2933;}
	.st10{fill:none;stroke:#000000;stroke-width:5;}
	.st11{fill:none;stroke:#000000;stroke-width:11;}
	.st12{fill:none;stroke:#000000;stroke-width:16.0108;}
	.st13{fill:none;stroke:#FF7A00;stroke-width:29.5395;}
	.st14{fill:none;stroke:#FF7A00;stroke-width:73;}
	.st15{fill:none;stroke:#FF7A00;stroke-width:8;}
	.st16{fill:none;stroke:#FF7A00;stroke-width:48;}
	.st17{fill:none;stroke:#FF7A00;stroke-width:35;}
	.st18{fill:none;}
	.st19{fill:#6322EE;}
	.st20{fill:#7432FF;}
	.st21{fill:#FF6B6B;}
	.st22{fill:#E34545;}
	.st23{fill:none;stroke:#000000;stroke-width:4.4332;stroke-linecap:round;}
	.st24{fill:#2039D2;}
	.st25{fill:#FFFFFF;}
	.st26{fill:#FFB905;}
	.st27{fill:#FF7D05;}
</style>
<g id="Background_Details">
	<g id="Layer_1">
	</g>
	<g id="Waves">
		<path class="st0" d="M2549.6,1719.7c-27.3-68.2-59.9-262.5,162.9-226.7c183,29.4,186.1-143.4,163-231.5"/>
		<path class="st1" d="M2234.3,696.2c-10.6-27.3-22.7-105,66-89.7c72.9,12.5,74.9-56.4,66-91.7"/>
		<path class="st2" d="M1770.7,786.9c-3.6-9.3-7.8-35.9,22.6-30.7c24.9,4.3,25.6-19.3,22.6-31.3"/>
		<path class="st2" d="M1829.9,1203.4c-5.6-14.3-11.9-54.9,34.5-47c38.1,6.6,39.2-29.5,34.5-48"/>
		<path class="st1" d="M2213,2149c-9.6-24.8-20.6-95.3,59.9-81.4c66.2,11.4,67.9-51.2,59.9-83.2"/>
		<path class="st2" d="M2109.8,1652.2c-4.9-9.9-11.9-38.7,21.9-35.8c27.8,2.4,26.3-23.6,21.9-36.5"/>
		<path class="st0" d="M2162.6,2453.1c-8-16.4-19.6-63.9,36.2-59.1c45.8,4,43.4-38.9,36.1-60.3"/>
		<path class="st3" d="M1197.2,2476.6c-3.5-7.1-8.5-27.7,15.7-25.6c19.9,1.7,18.8-16.8,15.7-26.1"/>
		<path class="st0" d="M991.3,2484.6c-7.7-15.8-18.9-61.6,34.9-57c44.2,3.8,41.9-37.5,34.9-58.2"/>
		<path class="st1" d="M594.7,1201.2c-7.8-15.8-21-59,25.2-41.5c38,14.4,32.7-22.6,25.1-42.5"/>
	</g>
	<g id="Lines">
		<path class="st0" d="M1494.9,2369.1l-219.2,263.1"/>
		<path class="st0" d="M1228,2025.6l-219.2,263"/>
		<path class="st0" d="M1727.4,2266.5L1447,2603.3"/>
		<path class="st0" d="M1093.3,2044.6L813,2381.4"/>
		<path class="st0" d="M1615.2,2453.2l-154.7,191.1"/>
		<path class="st4" d="M499.9,867.7l-177.3,212.6l-177.3,212.6"/>
		<path class="st5" d="M953.1,442.5l-664.4,795.3"/>
		<path class="st4" d="M823.6,701.8l-547.5,668.8"/>
		<path class="st0" d="M2916,1719.8l-618.6,748.5"/>
		<path class="st2" d="M2831.9,1960.6l-549,662.2"/>
	</g>
	<g id="Black_Elipses">
		<circle class="st6" cx="2623.1" cy="1359.8" r="57.6"/>
		<circle class="st7" cx="302.4" cy="733.4" r="28.1"/>
		<circle class="st8" cx="1107.2" cy="1220.4" r="13"/>
		<circle class="st8" cx="1959" cy="980.1" r="13"/>
		<circle class="st8" cx="1672.5" cy="2140.6" r="13"/>
		<circle class="st9" cx="2506.3" cy="2023.6" r="13.8"/>
		<circle class="st6" cx="1638.4" cy="466.7" r="68"/>
		<circle class="st10" cx="572.5" cy="2438.9" r="104.1"/>
		<circle class="st11" cx="516" cy="1482.7" r="44.6"/>
		<circle class="st12" cx="2094.9" cy="817.6" r="26.2"/>
	</g>
	<g id="Color_Elipses">
		<circle class="st13" cx="2372.2" cy="1151.5" r="296.7"/>
		<circle class="st14" cx="1715.6" cy="1067.1" r="500.6"/>
		<circle class="st15" cx="336.2" cy="1976.2" r="184.7"/>
		<circle class="st16" cx="1739" cy="2392.4" r="99.8"/>
		<circle class="st17" cx="1083.8" cy="639.2" r="39.6"/>
	</g>
	<rect x="0.6" y="0.5" class="st18" width="3000" height="3000"/>
</g>
<g id="Paper_plane">
	<path class="st19" d="M1334.1,2340.6l281.1-327.2l-151.9-44.4L1334.1,2340.6z"/>
	<path class="st20" d="M2324.2,998.1l-615.8,252l-895.5,400.8l297.9,131.8l148.1,70.2l75.4,488.5l127.3-371.5l576.8,166.3
		L2324.2,998.1z"/>
	<path class="st19" d="M1211.8,1830.6l253.2-176.9c-35.7,8.1-131.6,27.5-229.9,40.3c-98.3,12.7-149,53.3-162.1,72L1211.8,1830.6z"/>
	<path d="M2287.8,1034.5l-1008.1,802.8l-20.4,15.3l75,486.2l129.9-371.5L2287.8,1034.5z"/>
</g>
<g id="Girl">
	<g id="Hand">
		<path class="st21" d="M1738.6,1709.1c-3.4-5.9-32.3-73.4-48.1-107l110.6-39l14.4,42c28,12.1,93.7,34.2,110.6,41.7
			c20.8,9.3,17.5,17.5,12.3,20.4c25.9,6.6,23.4,19.1,19,24.6c4,1.9,15,8.9,11.2,17.2c-3.9,8.5-15.8,6.8-23.3,4.3
			c4.6,3.5,12.5,13.1,3.4,16.8c-12.4,5.1-67.4-6.3-111-21.2c18.4,7.2,35.2,15.7,44.1,18.1c11.2,3,16,19.4,0,22
			C1800.3,1753.6,1742.9,1716.5,1738.6,1709.1z"/>
		<path class="st0" d="M1941,1712.2c0,0-37.4-15.1-72.6-23.7"/>
		<path class="st0" d="M1947.5,1688.6c0,0-35.2-14.1-68.3-22.1"/>
		<path class="st0" d="M1931.2,1664.4c0,0-35.2-14.1-68.3-22.1"/>
		<path class="st22" d="M1691.4,1604.5l109.5-41.2l-92,79.1L1691.4,1604.5z"/>
	</g>
	<g id="Head">
		<path d="M1605.8,1040.6c120.2-84.2-21.3-198.4-47.3-224.7c-9.2-20-17.6-35.3-52.5-48.5c-127.3-48.2-169.4,75.1-176.4,91.7
			c-22.4,52.8-188-42.1-242.9,68.6c-33.6,67.7,64.3,128.1,118.1,121c-12.3,6.2-48.6,17.1-10.8,54.6
			c45.6,34.2,425.6,131.9,438.7,29.3C1641.9,1060.3,1601.2,1039.2,1605.8,1040.6z"/>
		<path d="M1658.4,760.4c-48.6-50.9-105.7-9.4-128.1,17.7c-10.4,35.5,37.1,78.4,54.9,83.6C1634,876.1,1719.2,824.1,1658.4,760.4z"/>
		<path class="st21" d="M1369.5,987.1c-55.5-21.4-44.2-108.5-16.4-142c67.4,0.4,107.2-44.6,106-40.6
			c-31.6,107.4,37.2,137.4,35.8,142c25.1,85.7,40.5,96.3,40.3,96.4c-35.4,45.3-83.4,34.5-117.3,20.7l-17.6-76.7
			C1395.7,988.4,1380.8,991.5,1369.5,987.1z"/>
		<path class="st0" d="M1397.8,880.1c4.8,5.5,19,16.7,37.4,17.9"/>
		<path class="st0" d="M1325.1,853.2c4.8,5.5,19,16.7,37.4,17.9"/>
		<path class="st0" d="M1371.4,922.3c0,0-14.9-5.1-14.9-12.7c0-4.9,16.9-30.8,16.9-30.8"/>
		<path class="st22" d="M1453.2,959.7c-19.3,21.8-50.6,25.8-52.8,27.3l8.7,37.7L1453.2,959.7z"/>
		<path class="st23" d="M1474.7,940.6c-7.3,9.4-29.8,31.3-61,44.1"/>
		<circle class="st22" cx="1407.2" cy="922.3" r="15.7"/>
		<path class="st22" d="M1348.7,895.9c-1.4,8.6-9.7,14.3-18.3,12.9c0,0,0.4-7.2,2-15.8c1.4-8.6,3.8-15.2,3.8-15.2
			C1344.8,879.3,1350.1,887.4,1348.7,895.9z"/>
	</g>
	<g id="Body">
		<path class="st24" d="M1498.4,1069.4c-34.8,11.8-81.7-15.6-89-18.5c-7.3-2.9-35.6-31.7-85.5,0c-88.4,56.1-184.2,336.7-184.2,340.3
			c25.8,19.2,100.4,25.8,100.4,22.2c22.4-105.1,75.3-162.9,98.9-178.7c-10.1,52.2-29.4,156.5-25.8,156.5
			c116.3-10,207,43.1,237.7,70.9c3-59.8,10.3-179.4,16.2-179.4c21.8,18.3,59.4,271.3,84.3,330.2l149.7-49.7
			c-2.5-14-19.9-59.9-87.8-253.2c-68-193.3-96.8-262.4-177.9-267.2C1530.9,1048.7,1517.3,1062.3,1498.4,1069.4z"/>
		<path class="st0" d="M1549.1,1230.6c6.5,41.4,12.4,99,10.3,163.6"/>
		<path class="st0" d="M1361,1195c-12.3,18.5-27.1,45.5-37,79.9"/>
		<path class="st0" d="M1580.9,1219.6c-5.1,10.5-11.2,25.6-14.7,43.8"/>
		<path class="st0" d="M1617.9,1391.9c-3.3,14.6-6.6,35-6.9,58.2"/>
		<path class="st0" d="M1773.6,1575.1c-24.1,7.7-55.6,17.5-86.3,29"/>
		<path class="st0" d="M1423,1058.4c23,12.7,73.9,23.4,110.3-11"/>
		<path class="st0" d="M1300.8,1390.7c19-6,128.6-15.3,218.4,40.5"/>
		<circle class="st25" cx="1343.8" cy="1072.6" r="17.3"/>
		<circle class="st25" cx="1487.6" cy="1202.3" r="17.3"/>
		<circle class="st25" cx="1359.4" cy="1270.9" r="17.3"/>
		<circle class="st25" cx="1571.2" cy="1107.1" r="17.3"/>
		<circle class="st25" cx="1247.9" cy="1247.8" r="17.3"/>
		<circle class="st25" cx="1410" cy="1364.1" r="17.3"/>
		<circle class="st25" cx="1528.7" cy="1329.6" r="17.3"/>
		<circle class="st25" cx="1715.6" cy="1540.3" r="17.3"/>
		<circle class="st25" cx="1681.1" cy="1329.6" r="17.3"/>
		<circle class="st25" cx="1213.3" cy="1376.9" r="17.3"/>
	</g>
	<g id="Legs">
		<path d="M768.9,2302.3c33.2-41.3,61.6-123.9,68.7-152.3l-169.9-179.5c-2.4,2.4-8.6,11.1-19.7,16.2c-24.6,11.3-67.3,13.3-156.8,5.1
			c-71.6-6.6-137.8,23.4-162.7,40.6C476.7,2117.9,768.9,2302.3,768.9,2302.3z"/>
		<path class="st26" d="M1319,1705.1c196.8-12.6,228.4-164.5,232.1-243.2c-85.1-76.9-194.9-75.8-240.8-67.5
			c0,20.2,16.9,66.6-17.9,92.9c-34.8,26.3-243.9,49.4-308.3,67.5c-51.5,14.5-97.8,88-115,118.9c-56.5,103.3-123,228.8-208,295.7
			l211.3,220.5c32.7-77.2,79.7-191.9,111.7-253.3C1031.7,1845.2,1073,1720.8,1319,1705.1z"/>
		<path class="st27" d="M1506.8,1567.7c-37.8-39-58.6-122.5-53.6-150c-8.3,15.5-18.5,71.1-5.5,111.4
			C1458.5,1562.8,1484.3,1573.7,1506.8,1567.7z"/>
		<path class="st26" d="M1284.1,1495.3c17.4-5.1,93.1-56.7,102.5-99.9c-32.6-6.4-7.5,0-83.7,0c-158.2-21.8-362.2-90.5-402.9-92.9
			c-63.5-3.8-99.3-20.1-159,81.9c-47.8,81.6-16.4,376-0.4,501.1l33.1-43.2l138.8-232.5c-1.6-46.6-12.6-73.3-12.6-73.3
			s93.9,11.3,161.4,11.3C1115.8,1540.1,1264.2,1501.1,1284.1,1495.3z"/>
		<path class="st27" d="M739.9,1882.7c63.2-96.9,168.3-268.8,172.9-275.5c-4.9-36.7-14.2-71.9-14.2-71.9s84.4,37,357.4-35.2
			c-244.8,26.4-383.2-43.9-387.9-51.6c-11.4-18.9-4.5,121.6-66.3,184C749.3,1685.6,735.5,1793.5,739.9,1882.7z"/>
		<path class="st0" d="M881.2,1483.7c11,19.2,24.7,46.5,35.8,78.7"/>
		<path class="st0" d="M1057.7,1802.4c16.9-22.7,42.8-34.9,82-28.3"/>
		<path d="M1039.6,1927.6l-20.2-60.5c-4.6,7.9-14.3,24.7-16.4,28.7c-2,4-28.9,59.7-42,87L1039.6,1927.6z"/>
		<path class="st0" d="M712,1904.9c55.2-46.2,131.9-195.3,152.7-226.3c43-64,70.6-121.8,187.5-136.3
			c68.2-12.3,208.9-38.7,226.5-45.8"/>
		<path class="st0" d="M730.7,1449.1c0.1-54.3,18.4-161.8,111.4-165.1"/>
		<path class="st0" d="M864.7,1810.1l53.8,11.8"/>
		<path class="st0" d="M1451.4,1420.5c-26.4,103.3,18.9,146,18.9,146"/>
		<path class="st0" d="M1325.5,1460.3l50.3-22.4"/>
		<path class="st0" d="M918.4,1445.2l50.3-22.4"/>
		<path class="st0" d="M1135.5,1476.3l8.2-54.4"/>
		<path class="st0" d="M821.7,1499.4l-43.6-33.5"/>
		<path class="st0" d="M867.3,1610.4l-43.6-33.5"/>
		<path class="st0" d="M797.7,1617.8l-39.2,38.6"/>
		<path class="st0" d="M1301.6,1581.6l-39.2,38.6"/>
		<path class="st0" d="M1083.8,1655.7l-39.2,38.6"/>
		<path class="st0" d="M986.4,1612.5l-50.9,20.9"/>
		<path class="st0" d="M870.9,1982.8l-50.9,21"/>
		<path class="st0" d="M714,1953.1c16.7,9.4,125.2,118.8,186.4,187.6"/>
		<path class="st10" d="M648.9,1999.4c5-49.6,6.3-147-28.2-139.9C586.3,1866.6,625.2,1955.7,648.9,1999.4z"/>
		<path class="st10" d="M654,2002.6c-16.8-48.2-57.4-139.5-84.9-118.8C541.5,1904.4,614.2,1971.6,654,2002.6z"/>
	</g>
</g>
</svg>
