<?xml version="1.0" encoding="utf-8"?>
<!-- Generator: Adobe Illustrator 22.1.0, SVG Export Plug-In . SVG Version: 6.00 Build 0)  -->
<svg version="1.1" xmlns="http://www.w3.org/2000/svg" xmlns:xlink="http://www.w3.org/1999/xlink" x="0px" y="0px"
	 viewBox="0 0 3001 3000" style="enable-background:new 0 0 3001 3000;" xml:space="preserve">
<style type="text/css">
	.st0{fill:none;stroke:#00C471;stroke-width:106;stroke-linecap:round;}
	.st1{fill:none;stroke:#00C471;stroke-width:60;stroke-linecap:round;}
	.st2{fill:none;stroke:#00C471;stroke-width:72;stroke-linecap:round;}
	.st3{fill:none;stroke:#000000;stroke-width:5;stroke-linecap:round;}
	.st4{fill:none;stroke:#000000;stroke-width:4.7644;stroke-linecap:round;}
	.st5{fill:none;stroke:#7432FF;stroke-width:4.7644;stroke-linecap:round;}
	.st6{fill:none;stroke:#000000;stroke-width:18;}
	.st7{fill:none;stroke:#000000;stroke-width:14.2933;}
	.st8{fill:none;stroke:#000000;stroke-width:6;}
	.st9{fill:none;stroke:#000000;stroke-width:5;}
	.st10{fill:none;stroke:#000000;stroke-width:11;}
	.st11{fill:none;stroke:#7432FF;stroke-width:34;}
	.st12{fill:none;stroke:#7432FF;stroke-width:8;}
	.st13{fill:none;stroke:#FF7A00;stroke-width:15;}
	.st14{fill:none;stroke:#FF7A00;stroke-width:27;}
	.st15{fill:#FF6B6B;}
	.st16{fill:#E34545;}
	.st17{fill:#FFB905;}
	.st18{fill:#FF7A00;}
	.st19{fill:#7432FF;}
	.st20{fill:#6322EE;}
</style>
<g id="_x0A_Check_mark">
	<g id="Слой_1">
		<g>
			<defs>
				<rect id="SVGID_1_" x="0.8" y="0" width="3000" height="3000"/>
			</defs>
			<clipPath id="SVGID_2_">
				<use xlink:href="#SVGID_1_"  style="overflow:visible;"/>
			</clipPath>
		</g>
	</g>
	<path class="st0" d="M419.2,1299.9l819.9,931.5L2641,771.9"/>
	<path class="st1" d="M502.5,734.9l163.3,129.9l239.5-257.1"/>
	<path class="st2" d="M2212.4,1885.7l228.9,175.7l324.9-361.3"/>
</g>
<g id="Background_Details">
	<g id="Waves">
		<path class="st3" d="M349.1,1991.9c-18.2-45.4-39.9-175,108.6-151.1c122,19.6,124-95.6,108.7-154.4"/>
		<path class="st4" d="M2269.2,869.8c-10.8-27.8-23.2-106.9,67.2-91.4c74.2,12.8,76.2-57.4,67.2-93.3"/>
		<path class="st4" d="M1400.7,618c-5.4-13.8-11.5-53.1,33.4-45.4c36.9,6.3,37.9-28.5,33.4-46.4"/>
		<path class="st4" d="M1648.2,782.4c-4.4-11.3-9.4-43.4,27.3-37.1c30.2,5.2,31-23.3,27.3-37.9"/>
		<path class="st4" d="M269.6,2351.7c-4.4-11.3-9.4-43.4,27.3-37.1c30.2,5.2,31-23.3,27.3-37.9"/>
		<path class="st4" d="M2213.4,2009.1c-4.4-11.3-9.4-43.4,27.3-37.1c30.2,5.2,31-23.3,27.3-37.9"/>
		<path class="st4" d="M2022.4,1741.8c-9-18.4-22-71.7,40.6-66.3c51.4,4.4,48.8-43.6,40.6-67.6"/>
		<path class="st3" d="M2142.3,2518.1c-8.2-16.7-20-65.1,36.9-60.2c46.7,4,44.2-39.6,36.8-61.4"/>
		<path class="st4" d="M577.8,1187.3c-8-16.1-21.4-60.1,25.7-42.2c38.7,14.7,33.3-23,25.5-43.3"/>
		<g>
			<path class="st4" d="M790.8,2518.1c-9-22.7-19.6-87.4,54.7-75.8c61,9.5,62.3-48,54.7-77.4"/>
		</g>
	</g>
	<g id="Lines">
		<path class="st4" d="M2243.4,2160l-223.2,267.9"/>
		<path class="st4" d="M1370.3,2275l-285.5,343"/>
		<path class="st5" d="M2144.1,401.3l-285.5,343"/>
		<path class="st5" d="M2131.9,508.2l-285.5,343"/>
		<path class="st4" d="M1250.7,1343.2l-285.5,343"/>
		<path class="st4" d="M349.2,1556.2l-285.5,343"/>
		<path class="st4" d="M1242.4,2520.7l-157.6,194.6"/>
		<path class="st4" d="M506.7,812.4L374.6,970.9l-132.1,158.5"/>
		<path class="st3" d="M844.6,495.5l-495.3,592.9"/>
		<path class="st4" d="M748,688.8l-408.2,498.6"/>
		<path class="st3" d="M2933.9,1670.3l-434.5,525.8"/>
		<path class="st4" d="M2874.9,1839.5l-385.7,465.2"/>
	</g>
	<g id="Black_Elipses">
		<circle class="st6" cx="280.2" cy="710.9" r="28.7"/>
		<circle class="st7" cx="2289.6" cy="2088.7" r="14.2"/>
		<circle class="st7" cx="743.6" cy="2165.8" r="14.2"/>
		<circle class="st7" cx="1760.2" cy="910.4" r="14.2"/>
		<circle class="st8" cx="1604.6" cy="403.4" r="33.3"/>
		<circle class="st9" cx="1717.9" cy="1959" r="106.1"/>
		<circle class="st10" cx="2467.2" cy="1227.6" r="23.4"/>
		<circle class="st8" cx="946.1" cy="1328.7" r="58.5"/>
	</g>
	<g id="Color_Elipses">
		<circle class="st11" cx="2568.8" cy="1556.2" r="157.9"/>
		<circle class="st12" cx="935.6" cy="825.8" r="99.9"/>
		<circle class="st13" cx="2073.7" cy="852.2" r="50.6"/>
		<circle class="st14" cx="701.4" cy="1949.9" r="28.7"/>
	</g>
</g>
<g id="Girl">
	<g id="Head">
		<path d="M1688.6,865.7c113.7-84.6,58.8-160.7,32.9-185.4c-9.5-19-18-33.6-52.1-45.4c-124.3-43-161.4,77.3-167.8,93.5
			c-20.1,51.6-182.7-35.4-232.6,73c-30.5,66.3,65.7,121.9,117.4,113.5c-11.8,6.3-32.7,27.3,4.9,62.5c88,68.6,243.8,75.1,225.9,7.1
			C1599.4,916.6,1684.1,864.5,1688.6,865.7z"/>
		<path d="M1914.8,636.2c-78.2-39.8-160.6,2.5-192,28.7c14.8,8.3,77.4,41.4,130.7,57.8C1929.9,746.2,2012.5,686,1914.8,636.2z"/>
		<path d="M1742.4,658.2c-14.4-14.3-30.5-1.8-36.7,6.2c-2.7,10.3,11.3,22.3,16.5,23.6C1736.4,691.7,1760.5,676.1,1742.4,658.2z"/>
		<path class="st15" d="M1543.7,851c-54.2-19.1-45.7-103.6-19.8-136.7c65.1-1.5,102.3-46.1,101.3-42.2
			c-27.5,104.6,39.7,131.6,38.5,136.1c26.6,82,85.7,147.8,84,154.3c-32.3,64.2-97.8,42.2-126.5,23.2l-47.6-135.7
			C1569.1,851.5,1554.8,854.9,1543.7,851z"/>
		<path class="st3" d="M1538.1,777.5c0,0-12.6-8.1-10.9-15.2c1.1-4.5,22.7-24.6,22.7-24.6"/>
		<path class="st16" d="M1572.9,850.7c25.3-5.3,53.4-29.4,64.3-40.8l-41.9,102.6L1572.9,850.7z"/>
		<path class="st3" d="M1570.7,745.9c6.8,21.1,37.2,20.6,37.2,20.6"/>
		<path class="st3" d="M1505.6,737c2.6,0.5,10.4,0.7,20.6-2.9"/>
		<path class="st3" d="M1639.2,807.3c-7,8.5-28.5,28.2-57.8,39.2"/>
		<circle class="st16" cx="1572" cy="788.8" r="13.9"/>
		<path class="st16" d="M1519.2,767.5c-1,7.6-8.1,13-15.7,12c0,0,0.1-6.4,1.3-14c1-7.6,2.9-13.6,2.9-13.6
			C1515.3,752.9,1520.2,759.9,1519.2,767.5z"/>
		<path class="st4" d="M1340.3,726.6c-40.6,10.4-115.4,47.3-89.8,111.3"/>
	</g>
	<g id="Hands">
		<path class="st15" d="M1088,1063.1c17,41.4,60.6,70.8,81.2,85.7l-23.3,115.2c-20.5-10.4-123.5-116-152.2-146.1
			c-29.6-31.1-55.1-61.9-55.1-61.2c0,0.7-1,3-5.1,6.4s-9.8,2.9-12.2,2.3c-2.6,8.9-10.1,25.5-19,21.4c-8.9-4.1-5-31.4-1.9-44.5
			c0,0,7.6-7,9-4.1c1.1-7.1,9.2-43.7,16-47.7c4.5-2.7,6.9-1.1,7.8,0.6c0.7-1.9,2.3-5.6,5.5-12.2c7.1-14.6,12.7-12.7,14.7-10
			c-11.6-16.9-36.8-53.9-43.2-71.3c-3.3-8.9,11-13.5,25.6,1.7c16.4,17.2,85.3,90.8,95.9,87.2c10.6-3.5,13.5-78.8,26.5-68.3
			C1070.9,928.9,1066.8,1011.3,1088,1063.1z"/>
		<path class="st15" d="M2175.9,1567.4c-11.7,4.1,29.5,78,11,80.2c-5.8,0.7-81.1-93.8-130.9-164l-127.1-106c-5.3-3.7-8.3-6-8.3-6.9
			l97.6-87.6c12,16.3,79.9,102.8,157.7,150.3c77.8,47.4,154.7,77.9,151.4,88.4c-3.3,10.5-39.8-2.4-58-10.5
			c23.2,10.9,69,35.3,67.1,45.4c-1.9,10.1-51.8-8.3-76.5-18.8c23.9,11.6,73.3,36.3,80.2,42.3l0.2,0.2c8.3,7.3,11.2,9.9,4.8,16.1
			c-5.1,5.1-63.1-19.7-91.4-32.7c15.2,11.7,47,37.4,52.4,47c5.5,9.5-5.8,10.6-12.2,10C2258.5,1601.7,2185.3,1564.1,2175.9,1567.4z"
			/>
		<path class="st3" d="M2243.5,1497.5l-10.7-6"/>
		<path class="st3" d="M2235.1,1520l-10.7-6.1"/>
		<path class="st3" d="M2228.8,1541.1l-10.6-6.1"/>
		<path class="st3" d="M1910.9,1389.2l106.6-87.6"/>
		<path class="st3" d="M1132.5,1290l25.5-135.6"/>
		<path class="st3" d="M1205.5,1138.2c12.4,10.1,30.7,22.7,54.5,32.2"/>
		<path class="st3" d="M1027.1,1003.5c-1,13.1-0.7,31.5,4.6,52.3"/>
		<path class="st3" d="M938.5,995c-1,13.1-0.7,31.5,4.6,52.3"/>
		<path class="st3" d="M912.4,1033.3c-0.7,9.5-0.5,22.9,3.3,38"/>
		<path class="st3" d="M963.6,971.4c-0.7,9.6-0.5,22.9,3.3,38"/>
	</g>
	<g id="Body">
		<path class="st17" d="M1606.1,943.3c-85.2-6.7-170,57-201.7,89.7c-39.2,38.3-127.6,125.7-170.9,124.7c-52.6-1.2-59.9-5.6-64.8-8.9
			l-23.4,115.3c12.6,7.9,47.9,23.8,88.2,23.8c40.3,0,185.8-86.8,253.5-130.3l-86.9,205.5l351.7,84.3l8.3-299.6
			c0,0,60.8,140.4,161.1,224.1l101.1-83.7c-101.1-127.7-115-239.2-160.8-286.7c-59.7-61.9-129.3-62.2-129.3-62.2
			C1680.9,982.4,1624.8,954,1606.1,943.3z"/>
		<path class="st18" d="M1756.9,1124.5c0.5,99.3,0.2,302.9-5.2,323.7c0.1,0.1,0.1,0.1,0,0.1c0,0,0-0.1,0-0.1
			c-4.2-3.2-181.9-65.9-223.8-68c19.5-16.3,42.2-46.3,136.3-61.5C1726.5,1308.6,1752,1185,1756.9,1124.5z"/>
		<path class="st18" d="M1484,1161.4l39.8-73.9c-23,14.4-73,49.4-88.6,73.9c-15.6,24.6-130.2,93-185.6,124.2
			C1280.8,1282.2,1418.8,1201.4,1484,1161.4z"/>
		<path class="st3" d="M1466.4,1361.2c104.6,18.2,231,46.4,321.2,96.2"/>
		<path class="st3" d="M1775.5,1317c-0.2-69.3-4.3-153.8-26.3-217.4"/>
		<path class="st3" d="M1420.9,1281c28.6-61,65.4-135.1,102.1-190.1"/>
		<path class="st3" d="M1475.1,1142.7c2.8-21.8,7.9-47.8,19.7-65.1"/>
		<path class="st3" d="M1614.8,951c15.5,6.5,69.5,27.2,116.4-8.7"/>
		<circle cx="1493.2" cy="1013.9" r="22.6"/>
		<circle cx="1559.2" cy="1208.3" r="22.6"/>
		<circle cx="1704.3" cy="1044.1" r="22.6"/>
		<circle cx="1692.8" cy="1365.9" r="22.6"/>
		<path d="M1881.9,1299.5c8,9.6,6.7,23.9-2.9,31.9c-13.9-15.6-18.6-20.1-29-34.8C1859.7,1288.6,1873.9,1289.9,1881.9,1299.5z"/>
		<circle cx="1869" cy="1090.3" r="22.6"/>
		<circle cx="1311.6" cy="1221.5" r="22.6"/>
		<path d="M1231,1157.4c-0.7,12.5-11.2,21.3-23.7,20.7c-12.5-0.7-22.1-11.3-21.4-23.8C1185.9,1154.3,1202.8,1157.4,1231,1157.4z"/>
	</g>
	<g id="Legs">
		<path class="st15" d="M1251.5,1958.3c-18.6-78.5,24.6-190.5,49.6-239l352.3,134.6l24,217.6
			C1526.8,2104.9,1272.5,2047.3,1251.5,1958.3z"/>
		<path class="st16" d="M1467.3,1784.2l-173.4-48.1c16.5,11,62.9,33.8,81.6,65.2c32.3,53.9,60.3,130.1,73.4,176.1
			C1441.4,1932.9,1457.4,1828.1,1467.3,1784.2z"/>
		<path d="M1616.5,1927.1l34.4,199.8c35.1-7.4,95.8-17.8,116.3-17.8c10.9,0,78.5,21.1,141.3,76c50.2,43.9,97.3,44.1,114.5,38.6
			l-98-302c-35.8-7.8-53-21.8-64.7-40.3l49.8-16.8l-15.6-50.6C1805.3,1825.8,1677.3,1884.9,1616.5,1927.1z"/>
		<path class="st15" d="M1443.1,2000c-24.5-83.4-3.7-227.8,9.8-289.6l184.1,57.7c-11.5,36-24.8,126.6,13.5,201.2
			c38.3,74.6,91.2,133.3,112.9,153.4l-236.8,58.9C1509.9,2152.2,1464,2048.3,1443.1,2000z"/>
		<path class="st3" d="M1455.3,1863.6c-6.9,43.1-13.3,152.4,16.7,244.5"/>
		<path class="st3" d="M1209.5,1885.5c4.5,55.6,41.4,159.9,153,131.6"/>
		<path d="M1788.5,2165.8l-245.2,70.6c14.2,42.9,35.6,117.3,38.4,143c1.5,13.7-15.5,101.1-75.4,187.2
			c-47.9,68.9-41.6,127.8-32.5,148.6l364.1-164.5c4.8-45.8,20-69.3,41.4-86.5l27.9,60l61.1-26.5
			C1941.4,2387.9,1849.7,2236,1788.5,2165.8z"/>
		<path class="st19" d="M1705.4,1853.4l46.3-406.1c0,0-89-32.8-166-52.6c-109.2-28.1-184.1-35.8-184.1-35.8l-202.8,350.4
			L1705.4,1853.4z"/>
		<path class="st20" d="M1695.9,1571.5c20.1-81.8-30.9-142.2-58.9-162.1l113.9,36.7l-45.3,406.2l-243.2-68.5
			c0-6.8,12.5-30.9,62.7-73.3C1587.8,1657.4,1670.8,1673.8,1695.9,1571.5z"/>
		<path class="st3" d="M1765,1458.1l-46.2,407.7l-455-126.1"/>
		<path class="st3" d="M1595.9,1438.9c9.7,24.1,40.1,77.9,84.6,100.2s-42.3,171.8-91.3,243.9"/>
	</g>
</g>
</svg>
