<svg width="530" height="396" viewBox="0 0 530 396" fill="none" xmlns="http://www.w3.org/2000/svg">
<path d="M530 0H0V530H530V0Z" fill="white"/>
<path d="M320.876 399.386C366.936 399.386 404.275 396.49 404.275 392.919C404.275 389.347 366.936 386.452 320.876 386.452C274.816 386.452 237.477 389.347 237.477 392.919C237.477 396.49 274.816 399.386 320.876 399.386Z" fill="#E9E9E7"/>
<g opacity="0.33">
<path opacity="0.33" d="M108.97 218.292H107.608V288.901H108.97V218.292Z" fill="#EAACAC"/>
<path opacity="0.33" d="M131.11 226.53C131.11 226.53 127.887 229.922 107.608 229.922C87.3291 229.922 84.1067 226.53 84.1067 226.53L96.5087 193.934H118.704L131.11 226.53Z" fill="#FFF0F0"/>
<path opacity="0.33" d="M118.706 193.934H118.433C117.274 215.748 102.427 227.726 86.5733 220.048L84.1067 226.53C84.1067 226.53 87.3301 229.922 107.608 229.922C127.886 229.922 131.11 226.53 131.11 226.53L118.706 193.934Z" fill="#F7D0D0"/>
</g>
<path d="M73.2458 363.543C73.2458 363.543 188.136 357.191 251.035 309.18C323.265 254.045 434.765 187.628 444.683 255.075C454.6 322.522 444.683 365.626 444.683 365.626L73.2458 363.543Z" fill="#FFF0F0"/>
<g opacity="0.32">
<path opacity="0.32" d="M214.395 365.392L215.633 371.045H213.323L210.936 365.392H214.395Z" fill="#BC6969"/>
<path opacity="0.32" d="M84.0686 365.392L82.8306 371.045H85.1414L87.5285 365.392H84.0686Z" fill="#BC6969"/>
<path opacity="0.32" d="M80.5876 365.637H217.876V359.061H81.8607L80.5876 365.637Z" fill="#BC6969"/>
<path opacity="0.32" d="M66.5278 355.682C67.0017 357.395 68.6542 360.325 71.9582 360.325H225.256C229.108 360.325 231.237 357.527 231.237 355.682H66.5278Z" fill="#EAACAC"/>
<path opacity="0.32" d="M66.5278 355.682H231.237L224.732 346.955L73.827 345.89L66.5278 355.682Z" fill="#F7D0D0"/>
<path opacity="0.32" d="M234.238 301.81C235.404 290.581 227.385 283.219 215.633 283.219H86.0412C70.6712 283.219 65.2504 292.305 64.377 301.81C63.5035 311.315 60.5917 322.056 80.5875 324.982C100.583 327.909 212.55 328.586 222.791 324.982C233.031 321.378 233.418 309.67 234.238 301.81Z" fill="#FFF0F0"/>
<path opacity="0.32" d="M72.2688 306.819C72.9048 295.524 76.282 289.003 85.5019 289.003H213.232C220.878 289.003 229.422 293.603 226.724 306.819C224.025 320.035 224.084 321.385 215.392 323.406C206.7 325.428 88.0861 323.406 82.59 323.406C77.0939 323.406 72.978 321.604 72.2678 318.01C71.5576 314.415 72.2688 306.819 72.2688 306.819Z" fill="#EAACAC"/>
<path opacity="0.32" d="M53.476 307.888C54.0325 304.39 56.5002 302.882 60.9618 302.13C64.0421 301.61 70.3671 301.553 72.8624 303.281C75.3576 305.009 76.5088 315.565 78.4284 323.051C76.3169 326.89 74.4004 345.125 74.4004 345.125L66.531 355.682C66.531 355.682 50.0204 336.296 53.476 307.888Z" fill="#E09494"/>
<path opacity="0.32" d="M244.29 307.888C243.733 304.39 241.264 302.882 236.804 302.13C233.723 301.61 227.399 301.553 224.903 303.281C222.408 305.009 221.256 315.565 219.336 323.051C221.448 326.89 223.364 345.125 223.364 345.125L231.234 355.682C231.234 355.682 247.744 336.296 244.29 307.888Z" fill="#E09494"/>
<path opacity="0.32" d="M61.692 302.025C61.4366 302.057 61.1906 302.092 60.967 302.131C56.5054 302.882 54.0377 304.391 53.4812 307.889C50.0256 336.297 66.533 355.683 66.533 355.683L71.9592 348.403C66.3772 341.939 59.43 318.013 61.692 302.025Z" fill="#F7D0D0"/>
<path opacity="0.32" d="M244.29 307.888C243.74 304.432 241.316 302.921 236.955 302.164C238.285 316.424 231.45 341.794 225.81 348.404L231.237 355.686C231.237 355.686 247.744 336.296 244.29 307.888Z" fill="#F7D0D0"/>
<path opacity="0.32" d="M61.5596 306.709C63.8344 306.47 70.4127 304.701 73.4316 303.869C73.2742 303.645 73.0833 303.447 72.8656 303.281C70.3693 301.553 64.0453 301.61 60.965 302.13C57.149 302.772 54.8106 303.978 53.8577 306.491C56.2511 306.885 59.959 306.878 61.5596 306.709Z" fill="#FFF0F0"/>
<path opacity="0.32" d="M243.906 306.491C242.952 303.978 240.609 302.772 236.804 302.13C233.722 301.61 227.398 301.553 224.903 303.281C224.685 303.446 224.494 303.645 224.337 303.869C227.352 304.701 233.93 306.47 236.209 306.709C237.806 306.878 241.514 306.885 243.906 306.491Z" fill="#FFF0F0"/>
<path opacity="0.32" d="M74.2373 360.326L69.5415 381.764H73.7783L82.8307 360.326H74.2373Z" fill="#BC6969"/>
<path opacity="0.32" d="M224.227 360.326L228.922 381.764H224.685L215.633 360.326H224.227Z" fill="#BC6969"/>
<path opacity="0.32" d="M72.8063 326.424C71.3339 327.761 70.293 328.423 69.6994 330.797C69.1058 333.172 70.293 340.294 71.4802 343.656C72.6674 347.019 75.0407 347.416 78.4041 347.416H223.815C227.178 347.416 228.564 343.261 228.761 339.304C228.958 335.347 229.041 331.076 228.612 329.267C228.184 327.457 226.803 325.886 225.517 325.124C224.231 324.362 211.703 320.079 203.982 320.079H85.9153C83.2685 320.079 79.4281 320.871 72.8063 326.424Z" fill="#F7D0D0"/>
<path opacity="0.32" d="M69.7789 330.532C69.7535 330.623 69.7238 330.701 69.6994 330.797C69.1058 333.172 70.293 340.294 71.4802 343.656C72.6674 347.019 75.0407 347.416 78.4041 347.416H223.815C227.178 347.416 228.564 343.261 228.761 339.304C228.922 336.081 229.002 332.672 228.795 330.532H69.7789Z" fill="#FFF0F0"/>
<path opacity="0.32" d="M74.4823 290.85C72.41 289.753 73.1488 287.765 74.9741 289.003C80.2126 286.95 93.38 290.972 98.7446 290.85C104.109 290.729 106.425 289.003 107.766 289.003C108.986 286.95 111.059 287.446 108.986 289.639C109.108 294.756 108.133 302.558 107.766 306.094C107.4 309.631 111.912 315.969 112.642 318.652C115.08 320.082 115.203 321.611 113.252 320.846C108.985 322.553 88.8718 320.278 85.82 321.05C82.7683 321.822 79.672 321.72 79.672 321.72C79.672 321.72 75.6811 323.642 77.8859 320.781C77.2287 317.688 78.0174 309.784 77.4079 306.659C76.7984 303.534 74.4823 295.118 74.4823 290.85Z" fill="white"/>
<path opacity="0.32" d="M112.642 318.649C112.43 317.885 111.917 316.822 111.298 315.617C108.641 321.06 97.2742 315.717 90.098 316.959C81.83 318.389 82.6303 311.397 82.148 305.327C81.7462 300.209 77.6271 291.931 74.7057 288.848C73.0776 287.966 72.5062 289.808 74.4757 290.85C74.4757 295.118 76.7929 303.53 77.4024 306.655C78.0119 309.78 77.2232 317.684 77.8804 320.777C75.6756 323.639 79.6676 321.716 79.6676 321.716C79.6676 321.716 82.767 321.822 85.8156 321.046C88.8641 320.27 108.981 322.549 113.248 320.843C115.203 321.604 115.081 320.079 112.642 318.649Z" fill="#FFF0F0"/>
<path opacity="0.32" d="M87.3801 302.294C95.4955 301.28 99.6252 308.235 102.017 312.801C101.074 306.858 98.8281 305.409 98.8281 305.409C98.8281 305.409 103.538 300.917 103.174 298.164C102.014 301.352 99.4641 303.84 97.5943 304.178C91.9445 299.468 87.3801 302.294 87.3801 302.294Z" fill="#FFF0F0"/>
<path opacity="0.32" d="M222.568 290.85C224.641 289.753 223.902 287.765 222.078 289.003C216.838 286.95 203.671 290.972 198.306 290.85C192.941 290.729 190.625 289.003 189.284 289.003C188.065 286.95 185.992 287.446 188.065 289.639C187.943 294.756 188.913 302.558 189.284 306.094C189.655 309.631 185.139 315.969 184.408 318.652C181.97 320.082 181.848 321.611 183.799 320.846C188.066 322.553 208.179 320.278 211.231 321.05C214.282 321.822 217.379 321.72 217.379 321.72C217.379 321.72 221.37 323.642 219.166 320.781C219.823 317.688 219.033 309.784 219.644 306.659C220.254 303.534 222.568 295.118 222.568 290.85Z" fill="white"/>
<path opacity="0.32" d="M184.408 318.649C184.62 317.885 185.133 316.822 185.754 315.617C188.411 321.06 199.776 315.717 206.954 316.959C215.216 318.389 214.422 311.397 214.898 305.327C215.3 300.209 219.419 291.931 222.342 288.848C223.969 287.966 224.54 289.808 222.571 290.85C222.571 295.118 220.254 303.53 219.644 306.655C219.033 309.78 219.824 317.684 219.167 320.777C221.371 323.639 217.38 321.716 217.38 321.716C217.38 321.716 214.28 321.822 211.232 321.046C208.183 320.27 188.068 322.549 183.8 320.843C181.849 321.604 181.97 320.079 184.408 318.649Z" fill="#F7D0D0"/>
<path opacity="0.32" d="M209.668 302.294C201.553 301.28 197.423 308.235 195.032 312.801C195.974 306.858 198.22 305.409 198.22 305.409C198.22 305.409 193.51 300.917 193.874 298.164C195.033 301.352 197.584 303.84 199.453 304.178C205.11 299.468 209.668 302.294 209.668 302.294Z" fill="#F7D0D0"/>
</g>
<path d="M250.818 135.964H157.667C156 135.964 154.649 137.315 154.649 138.982V297.756C154.649 299.423 156 300.774 157.667 300.774H250.818C252.485 300.774 253.836 299.423 253.836 297.756V138.982C253.836 137.315 252.485 135.964 250.818 135.964Z" fill="white"/>
<path d="M247.298 301.118H161.193C159.366 301.116 157.615 300.39 156.323 299.098C155.032 297.806 154.305 296.055 154.303 294.228V142.507C154.305 140.681 155.032 138.929 156.323 137.638C157.615 136.346 159.366 135.619 161.193 135.617H247.298C249.125 135.619 250.876 136.346 252.168 137.637C253.46 138.929 254.186 140.681 254.188 142.507V294.229C254.186 296.056 253.46 297.807 252.168 299.099C250.876 300.39 249.125 301.117 247.298 301.118ZM161.193 136.309C159.55 136.31 157.974 136.964 156.812 138.126C155.65 139.288 154.996 140.864 154.994 142.507V294.229C154.996 295.873 155.65 297.449 156.812 298.611C157.974 299.773 159.55 300.427 161.193 300.428H247.298C248.942 300.427 250.517 299.773 251.679 298.611C252.842 297.449 253.495 295.873 253.497 294.229V142.507C253.495 140.864 252.842 139.288 251.679 138.126C250.517 136.964 248.942 136.31 247.298 136.309H161.193Z" fill="#51BACD"/>
<path d="M252.087 306.128H156.399C154.603 306.126 152.881 305.411 151.611 304.141C150.341 302.871 149.627 301.149 149.624 299.354V137.388C149.627 135.592 150.342 133.871 151.612 132.601C152.881 131.331 154.603 130.617 156.399 130.614H252.087C253.883 130.617 255.604 131.331 256.874 132.601C258.144 133.871 258.859 135.592 258.861 137.388V299.349C258.86 301.146 258.146 302.869 256.876 304.14C255.606 305.41 253.884 306.125 252.087 306.128ZM156.399 131.073C154.725 131.075 153.119 131.741 151.936 132.925C150.752 134.108 150.086 135.713 150.084 137.388V299.349C150.086 301.024 150.752 302.629 151.936 303.812C153.119 304.996 154.725 305.662 156.399 305.664H252.087C253.761 305.662 255.366 304.996 256.55 303.812C257.734 302.629 258.4 301.024 258.401 299.349V137.388C258.4 135.713 257.734 134.108 256.55 132.925C255.366 131.741 253.761 131.075 252.087 131.073H156.399Z" fill="#B2CED8"/>
<path d="M157.34 135.964H251.15C251.864 135.964 252.548 136.248 253.052 136.752C253.557 137.257 253.84 137.941 253.84 138.654V152.714H154.654V138.654C154.654 137.942 154.937 137.258 155.441 136.754C155.944 136.249 156.627 135.965 157.34 135.964V135.964Z" fill="#51BACD"/>
<path d="M167.352 144.065C167.431 144.672 167.319 145.289 167.03 145.83C166.741 146.37 166.29 146.806 165.741 147.077C165.191 147.348 164.571 147.44 163.966 147.341C163.362 147.241 162.803 146.954 162.37 146.521C161.937 146.088 161.65 145.53 161.55 144.925C161.45 144.321 161.542 143.7 161.812 143.151C162.083 142.601 162.519 142.15 163.06 141.861C163.6 141.572 164.217 141.459 164.825 141.539C165.465 141.623 166.06 141.916 166.517 142.373C166.974 142.829 167.267 143.424 167.352 144.065V144.065Z" fill="#214A81"/>
<path d="M176.702 144.065C176.782 144.672 176.67 145.289 176.381 145.83C176.092 146.37 175.641 146.806 175.091 147.077C174.542 147.348 173.921 147.44 173.317 147.341C172.712 147.241 172.154 146.954 171.721 146.521C171.287 146.088 171 145.53 170.9 144.925C170.8 144.321 170.892 143.7 171.163 143.151C171.434 142.601 171.87 142.15 172.41 141.861C172.95 141.572 173.568 141.459 174.175 141.539C174.816 141.623 175.411 141.916 175.867 142.373C176.324 142.829 176.618 143.424 176.702 144.065V144.065Z" fill="white"/>
<path d="M186.053 144.065C186.133 144.672 186.021 145.289 185.732 145.83C185.443 146.37 184.992 146.806 184.443 147.077C183.893 147.348 183.272 147.44 182.668 147.341C182.063 147.241 181.505 146.954 181.072 146.521C180.639 146.088 180.352 145.53 180.252 144.925C180.152 144.321 180.244 143.7 180.514 143.151C180.785 142.601 181.221 142.15 181.761 141.861C182.302 141.572 182.919 141.459 183.526 141.539C184.167 141.623 184.762 141.916 185.219 142.373C185.675 142.829 185.969 143.424 186.053 144.065V144.065Z" fill="#1A1A1B"/>
<path d="M233.375 234.741C233.095 234.741 232.815 234.721 232.537 234.68C231.101 234.466 229.804 233.703 228.919 232.552C228.033 231.402 227.628 229.953 227.789 228.51C227.949 227.067 228.662 225.742 229.779 224.814C230.896 223.886 232.329 223.427 233.777 223.533C235.225 223.639 236.575 224.303 237.544 225.384C238.514 226.465 239.026 227.88 238.974 229.331C238.922 230.782 238.309 232.156 237.265 233.165C236.221 234.174 234.827 234.739 233.375 234.741ZM233.353 224.413C232.132 224.413 230.959 224.887 230.08 225.735C229.201 226.582 228.685 227.737 228.64 228.957C228.595 230.178 229.025 231.367 229.839 232.277C230.654 233.187 231.789 233.746 233.006 233.836C234.224 233.926 235.429 233.541 236.368 232.761C237.308 231.981 237.908 230.868 238.044 229.655C238.179 228.441 237.839 227.223 237.095 226.255C236.351 225.287 235.261 224.645 234.053 224.465C233.821 224.43 233.587 224.413 233.353 224.413V224.413Z" fill="#F27B8F"/>
<path d="M232.907 231.716C232.863 231.726 232.817 231.729 232.772 231.727C232.706 231.722 232.642 231.704 232.584 231.673C232.526 231.642 232.476 231.6 232.436 231.547L230.713 229.299C230.674 229.251 230.644 229.196 230.627 229.137C230.609 229.077 230.604 229.015 230.611 228.954C230.618 228.892 230.637 228.833 230.668 228.779C230.698 228.725 230.739 228.678 230.788 228.64C230.837 228.602 230.894 228.575 230.954 228.559C231.014 228.544 231.076 228.541 231.137 228.55C231.199 228.559 231.257 228.58 231.31 228.613C231.363 228.645 231.409 228.688 231.444 228.738L232.847 230.569L235.699 227.715C235.741 227.668 235.792 227.631 235.849 227.605C235.906 227.579 235.967 227.565 236.029 227.564C236.092 227.562 236.154 227.573 236.212 227.596C236.27 227.62 236.322 227.654 236.366 227.698C236.411 227.742 236.445 227.795 236.469 227.853C236.492 227.911 236.503 227.973 236.502 228.035C236.5 228.097 236.486 228.159 236.46 228.216C236.434 228.272 236.397 228.323 236.351 228.365L233.127 231.593C233.066 231.654 232.99 231.696 232.907 231.716V231.716Z" fill="#F27B8F"/>
<path d="M233.375 249.349C233.095 249.349 232.815 249.329 232.537 249.288C231.101 249.073 229.804 248.311 228.919 247.16C228.033 246.009 227.628 244.56 227.789 243.117C227.949 241.674 228.662 240.35 229.779 239.422C230.896 238.494 232.329 238.034 233.777 238.141C235.225 238.247 236.575 238.911 237.544 239.992C238.514 241.073 239.026 242.488 238.974 243.939C238.922 245.39 238.309 246.764 237.265 247.773C236.221 248.782 234.827 249.347 233.375 249.349V249.349ZM233.353 239.02C232.452 239.022 231.571 239.283 230.814 239.771C230.058 240.259 229.457 240.954 229.083 241.773C228.709 242.592 228.579 243.501 228.707 244.393C228.835 245.284 229.216 246.12 229.804 246.801C230.393 247.482 231.165 247.98 232.029 248.236C232.892 248.491 233.811 248.493 234.675 248.242C235.54 247.991 236.315 247.497 236.907 246.819C237.499 246.14 237.884 245.306 238.017 244.416V244.416C238.107 243.805 238.077 243.182 237.927 242.583C237.777 241.983 237.51 241.419 237.142 240.923C236.774 240.427 236.312 240.008 235.782 239.691C235.253 239.373 234.665 239.163 234.054 239.072C233.822 239.038 233.587 239.02 233.353 239.02Z" fill="#F27B8F"/>
<path d="M232.907 246.328C232.863 246.338 232.817 246.341 232.772 246.339C232.706 246.334 232.642 246.316 232.584 246.285C232.526 246.254 232.476 246.212 232.436 246.159L230.713 243.911C230.674 243.863 230.644 243.808 230.627 243.749C230.609 243.689 230.604 243.627 230.611 243.566C230.618 243.504 230.637 243.445 230.668 243.391C230.698 243.337 230.739 243.29 230.788 243.252C230.837 243.214 230.894 243.187 230.954 243.171C231.014 243.156 231.076 243.153 231.137 243.162C231.199 243.171 231.257 243.193 231.31 243.225C231.363 243.257 231.409 243.3 231.444 243.351L232.847 245.181L235.699 242.327C235.741 242.28 235.792 242.243 235.849 242.217C235.906 242.191 235.967 242.177 236.029 242.176C236.092 242.174 236.154 242.185 236.212 242.208C236.27 242.232 236.322 242.266 236.366 242.31C236.411 242.354 236.445 242.407 236.469 242.465C236.492 242.523 236.503 242.585 236.502 242.647C236.5 242.709 236.486 242.771 236.46 242.828C236.434 242.884 236.397 242.935 236.351 242.977L233.127 246.205C233.066 246.265 232.99 246.308 232.907 246.328V246.328Z" fill="#F27B8F"/>
<path d="M233.366 263.957C232.219 263.958 231.098 263.607 230.156 262.953C229.213 262.298 228.493 261.371 228.093 260.296C227.692 259.22 227.63 258.048 227.916 256.936C228.201 255.825 228.819 254.827 229.688 254.077C230.557 253.327 231.634 252.861 232.775 252.741C233.917 252.621 235.067 252.853 236.073 253.406C237.078 253.96 237.891 254.807 238.4 255.835C238.91 256.863 239.093 258.023 238.925 259.158C238.725 260.49 238.054 261.707 237.035 262.587C236.015 263.467 234.714 263.953 233.366 263.957V263.957ZM233.353 253.628C232.134 253.629 230.963 254.102 230.086 254.948C229.209 255.794 228.694 256.947 228.649 258.165C228.605 259.383 229.034 260.571 229.847 261.479C230.659 262.387 231.792 262.944 233.008 263.034C234.223 263.125 235.426 262.74 236.364 261.962C237.301 261.184 237.901 260.072 238.036 258.861C238.172 257.65 237.832 256.433 237.09 255.467C236.347 254.501 235.259 253.861 234.053 253.68C233.821 253.645 233.587 253.628 233.353 253.628V253.628Z" fill="#F27B8F"/>
<path d="M232.907 260.936C232.863 260.946 232.817 260.949 232.772 260.947C232.706 260.942 232.642 260.924 232.584 260.893C232.526 260.862 232.476 260.82 232.436 260.767L230.713 258.518C230.676 258.47 230.649 258.415 230.634 258.357C230.618 258.298 230.614 258.238 230.622 258.178C230.63 258.118 230.65 258.06 230.68 258.008C230.711 257.955 230.751 257.909 230.799 257.873C230.847 257.836 230.902 257.809 230.96 257.793C231.019 257.778 231.08 257.774 231.14 257.782C231.2 257.79 231.257 257.81 231.31 257.84C231.362 257.87 231.408 257.91 231.445 257.958L232.847 259.789L235.699 256.934C235.741 256.888 235.792 256.851 235.849 256.825C235.906 256.799 235.967 256.785 236.03 256.784C236.092 256.782 236.154 256.793 236.212 256.816C236.27 256.839 236.322 256.874 236.367 256.918C236.411 256.962 236.445 257.015 236.469 257.073C236.492 257.131 236.503 257.193 236.502 257.255C236.5 257.317 236.486 257.379 236.46 257.436C236.435 257.492 236.397 257.543 236.351 257.585L233.127 260.813C233.066 260.873 232.99 260.916 232.907 260.936V260.936Z" fill="#F27B8F"/>
<path d="M218.481 226.028H172.569C172.396 226.028 172.255 226.169 172.255 226.342V227.22C172.255 227.393 172.396 227.533 172.569 227.533H218.481C218.654 227.533 218.795 227.393 218.795 227.22V226.342C218.795 226.169 218.654 226.028 218.481 226.028Z" fill="#6FA4BC"/>
<path d="M218.481 228.905H172.569C172.396 228.905 172.255 229.045 172.255 229.219V230.096C172.255 230.27 172.396 230.41 172.569 230.41H218.481C218.654 230.41 218.795 230.27 218.795 230.096V229.219C218.795 229.045 218.654 228.905 218.481 228.905Z" fill="#6FA4BC"/>
<path d="M200.531 231.782H172.569C172.396 231.782 172.255 231.922 172.255 232.095V232.973C172.255 233.146 172.396 233.287 172.569 233.287H200.531C200.704 233.287 200.845 233.146 200.845 232.973V232.095C200.845 231.922 200.704 231.782 200.531 231.782Z" fill="#6FA4BC"/>
<path d="M218.481 239.703H172.569C172.396 239.703 172.255 239.844 172.255 240.017V240.895C172.255 241.068 172.396 241.208 172.569 241.208H218.481C218.654 241.208 218.795 241.068 218.795 240.895V240.017C218.795 239.844 218.654 239.703 218.481 239.703Z" fill="#6FA4BC"/>
<path d="M218.481 242.58H172.569C172.396 242.58 172.255 242.72 172.255 242.894V243.771C172.255 243.945 172.396 244.085 172.569 244.085H218.481C218.654 244.085 218.795 243.945 218.795 243.771V242.894C218.795 242.72 218.654 242.58 218.481 242.58Z" fill="#6FA4BC"/>
<path d="M200.531 245.457H172.569C172.396 245.457 172.255 245.597 172.255 245.771V246.648C172.255 246.822 172.396 246.962 172.569 246.962H200.531C200.704 246.962 200.845 246.822 200.845 246.648V245.771C200.845 245.597 200.704 245.457 200.531 245.457Z" fill="#6FA4BC"/>
<path d="M218.481 253.377H172.569C172.396 253.377 172.255 253.518 172.255 253.691V254.569C172.255 254.742 172.396 254.882 172.569 254.882H218.481C218.654 254.882 218.795 254.742 218.795 254.569V253.691C218.795 253.518 218.654 253.377 218.481 253.377Z" fill="#6FA4BC"/>
<path d="M218.481 256.255H172.569C172.396 256.255 172.255 256.395 172.255 256.569V257.446C172.255 257.62 172.396 257.76 172.569 257.76H218.481C218.654 257.76 218.795 257.62 218.795 257.446V256.569C218.795 256.395 218.654 256.255 218.481 256.255Z" fill="#6FA4BC"/>
<path d="M200.531 259.132H172.569C172.396 259.132 172.255 259.272 172.255 259.446V260.323C172.255 260.497 172.396 260.637 172.569 260.637H200.531C200.704 260.637 200.845 260.497 200.845 260.323V259.446C200.845 259.272 200.704 259.132 200.531 259.132Z" fill="#6FA4BC"/>
<path d="M234.172 270.775H174.315C173.671 270.775 173.149 271.297 173.149 271.941V284.087C173.149 284.731 173.671 285.253 174.315 285.253H234.172C234.816 285.253 235.338 284.731 235.338 284.087V271.941C235.338 271.297 234.816 270.775 234.172 270.775Z" fill="#FF473D"/>
<path d="M235.339 287.718H173.147C172.447 287.716 171.775 287.437 171.28 286.941C170.785 286.446 170.506 285.775 170.504 285.074V270.953C170.506 270.253 170.785 269.581 171.28 269.086C171.775 268.59 172.447 268.311 173.147 268.309H235.339C236.04 268.311 236.711 268.59 237.206 269.086C237.701 269.581 237.98 270.253 237.982 270.953V285.074C237.98 285.775 237.701 286.446 237.206 286.941C236.711 287.437 236.04 287.716 235.339 287.718V287.718ZM173.147 268.539C172.507 268.54 171.894 268.795 171.442 269.247C170.989 269.7 170.735 270.313 170.734 270.953V285.074C170.735 285.714 170.989 286.328 171.442 286.78C171.894 287.232 172.507 287.487 173.147 287.488H235.339C235.979 287.487 236.592 287.232 237.045 286.78C237.497 286.328 237.751 285.714 237.752 285.074V270.953C237.751 270.313 237.497 269.7 237.045 269.247C236.592 268.795 235.979 268.54 235.339 268.539H173.147Z" fill="#CE303F"/>
<path d="M187.01 275.058C188.41 275.058 189.212 275.751 189.212 276.958C189.212 278.213 188.41 278.944 187.01 278.944H185.732V280.62H184.794V275.058H187.01ZM185.732 278.102H186.971C187.83 278.102 188.314 277.736 188.314 276.981C188.314 276.251 187.83 275.901 186.971 275.901H185.732V278.102Z" fill="white"/>
<path d="M190.579 279.365L190.049 280.62H189.072L191.527 275.058H192.488L194.919 280.62H193.918L193.388 279.365H190.579ZM191.977 276.06L190.929 278.531H193.026L191.977 276.06Z" fill="white"/>
<path d="M197.548 280.62H196.618V278.801L194.545 275.058H195.49L197.08 277.768L198.637 275.058H199.591L197.549 278.768L197.548 280.62Z" fill="white"/>
<path d="M206.281 280.62L203.313 276.632V280.62H202.376V275.058H203.297L206.277 279.056V275.058H207.199V280.62H206.281Z" fill="white"/>
<path d="M214.108 277.84C214.108 279.43 212.821 280.66 211.16 280.66C209.499 280.66 208.212 279.429 208.212 277.84C208.212 276.251 209.5 275.035 211.16 275.035C212.82 275.035 214.108 276.251 214.108 277.84ZM209.166 277.84C209.171 278.367 209.384 278.872 209.759 279.242C210.134 279.613 210.641 279.82 211.169 279.818C211.557 279.811 211.934 279.691 212.254 279.471C212.574 279.251 212.821 278.941 212.966 278.581C213.11 278.221 213.145 277.826 213.066 277.446C212.987 277.066 212.798 276.718 212.522 276.445C212.246 276.173 211.895 275.988 211.514 275.913C211.134 275.839 210.739 275.879 210.381 276.028C210.022 276.177 209.716 276.428 209.5 276.75C209.284 277.073 209.168 277.452 209.166 277.84V277.84Z" fill="white"/>
<path d="M219.791 280.62L218.471 276.283L217.137 280.62H216.168L214.325 275.058H215.334L216.684 279.579L218.027 275.067L218.948 275.058L220.299 279.579L221.642 275.058H222.612L220.753 280.62H219.791Z" fill="white"/>
<path d="M234.627 172.388H177.989C177.521 172.388 177.141 172.767 177.141 173.236V207.251C177.141 207.719 177.521 208.099 177.989 208.099H234.627C235.095 208.099 235.475 207.719 235.475 207.251V173.236C235.475 172.767 235.095 172.388 234.627 172.388Z" fill="#51BACD"/>
<path d="M235.475 179.235H177.141V185.19H235.475V179.235Z" fill="#1A1A1B"/>
<path d="M190.459 186.948H181.2C180.867 186.948 180.598 187.218 180.598 187.55V189.229C180.598 189.562 180.867 189.831 181.2 189.831H190.459C190.791 189.831 191.061 189.562 191.061 189.229V187.55C191.061 187.218 190.791 186.948 190.459 186.948Z" fill="#89D1F1"/>
<path d="M203.972 186.948H194.712C194.38 186.948 194.11 187.218 194.11 187.55V189.229C194.11 189.562 194.38 189.831 194.712 189.831H203.972C204.304 189.831 204.574 189.562 204.574 189.229V187.55C204.574 187.218 204.304 186.948 203.972 186.948Z" fill="#89D1F1"/>
<path d="M217.483 186.948H208.224C207.892 186.948 207.622 187.218 207.622 187.55V189.229C207.622 189.562 207.892 189.831 208.224 189.831H217.483C217.816 189.831 218.085 189.562 218.085 189.229V187.55C218.085 187.218 217.816 186.948 217.483 186.948Z" fill="#89D1F1"/>
<path d="M230.996 186.948H221.737C221.405 186.948 221.135 187.218 221.135 187.55V189.229C221.135 189.562 221.405 189.831 221.737 189.831H230.996C231.329 189.831 231.598 189.562 231.598 189.229V187.55C231.598 187.218 231.329 186.948 230.996 186.948Z" fill="#89D1F1"/>
<path d="M183.509 190.648H180.73C180.657 190.648 180.598 190.708 180.598 190.781V191.152C180.598 191.225 180.657 191.284 180.73 191.284H183.509C183.583 191.284 183.642 191.225 183.642 191.152V190.781C183.642 190.708 183.583 190.648 183.509 190.648Z" fill="#89D1F1"/>
<path d="M187.259 190.648H184.479C184.406 190.648 184.347 190.708 184.347 190.781V191.152C184.347 191.225 184.406 191.284 184.479 191.284H187.259C187.332 191.284 187.391 191.225 187.391 191.152V190.781C187.391 190.708 187.332 190.648 187.259 190.648Z" fill="#89D1F1"/>
<path d="M191.009 190.648H188.229C188.156 190.648 188.097 190.708 188.097 190.781V191.152C188.097 191.225 188.156 191.284 188.229 191.284H191.009C191.082 191.284 191.141 191.225 191.141 191.152V190.781C191.141 190.708 191.082 190.648 191.009 190.648Z" fill="#89D1F1"/>
<path d="M181.28 177.905H180.342C180.269 177.905 180.209 177.965 180.209 178.038V178.409C180.209 178.482 180.269 178.541 180.342 178.541H181.28C181.353 178.541 181.412 178.482 181.412 178.409V178.038C181.412 177.965 181.353 177.905 181.28 177.905Z" fill="#89D1F1"/>
<path d="M182.984 177.905H182.046C181.973 177.905 181.914 177.965 181.914 178.038V178.409C181.914 178.482 181.973 178.541 182.046 178.541H182.984C183.058 178.541 183.117 178.482 183.117 178.409V178.038C183.117 177.965 183.058 177.905 182.984 177.905Z" fill="#89D1F1"/>
<path d="M184.689 177.905H183.751C183.678 177.905 183.618 177.965 183.618 178.038V178.409C183.618 178.482 183.678 178.541 183.751 178.541H184.689C184.762 178.541 184.821 178.482 184.821 178.409V178.038C184.821 177.965 184.762 177.905 184.689 177.905Z" fill="#89D1F1"/>
<path d="M196.982 190.648H194.203C194.129 190.648 194.07 190.708 194.07 190.781V191.152C194.07 191.225 194.129 191.284 194.203 191.284H196.982C197.055 191.284 197.114 191.225 197.114 191.152V190.781C197.114 190.708 197.055 190.648 196.982 190.648Z" fill="#89D1F1"/>
<path d="M200.731 190.648H197.952C197.879 190.648 197.819 190.708 197.819 190.781V191.152C197.819 191.225 197.879 191.284 197.952 191.284H200.731C200.804 191.284 200.864 191.225 200.864 191.152V190.781C200.864 190.708 200.804 190.648 200.731 190.648Z" fill="#89D1F1"/>
<path d="M204.481 190.648H201.701C201.628 190.648 201.569 190.708 201.569 190.781V191.152C201.569 191.225 201.628 191.284 201.701 191.284H204.481C204.554 191.284 204.613 191.225 204.613 191.152V190.781C204.613 190.708 204.554 190.648 204.481 190.648Z" fill="#89D1F1"/>
<path d="M210.453 190.648H207.674C207.601 190.648 207.542 190.708 207.542 190.781V191.152C207.542 191.225 207.601 191.284 207.674 191.284H210.453C210.527 191.284 210.586 191.225 210.586 191.152V190.781C210.586 190.708 210.527 190.648 210.453 190.648Z" fill="#89D1F1"/>
<path d="M214.204 190.648H211.424C211.351 190.648 211.292 190.708 211.292 190.781V191.152C211.292 191.225 211.351 191.284 211.424 191.284H214.204C214.277 191.284 214.336 191.225 214.336 191.152V190.781C214.336 190.708 214.277 190.648 214.204 190.648Z" fill="#89D1F1"/>
<path d="M217.953 190.648H215.174C215.1 190.648 215.041 190.708 215.041 190.781V191.152C215.041 191.225 215.1 191.284 215.174 191.284H217.953C218.026 191.284 218.085 191.225 218.085 191.152V190.781C218.085 190.708 218.026 190.648 217.953 190.648Z" fill="#89D1F1"/>
<path d="M223.926 190.648H221.146C221.073 190.648 221.014 190.708 221.014 190.781V191.152C221.014 191.225 221.073 191.284 221.146 191.284H223.926C223.999 191.284 224.058 191.225 224.058 191.152V190.781C224.058 190.708 223.999 190.648 223.926 190.648Z" fill="#89D1F1"/>
<path d="M227.676 190.648H224.897C224.824 190.648 224.764 190.708 224.764 190.781V191.152C224.764 191.225 224.824 191.284 224.897 191.284H227.676C227.749 191.284 227.809 191.225 227.809 191.152V190.781C227.809 190.708 227.749 190.648 227.676 190.648Z" fill="#89D1F1"/>
<path d="M231.426 190.648H228.646C228.573 190.648 228.514 190.708 228.514 190.781V191.152C228.514 191.225 228.573 191.284 228.646 191.284H231.426C231.499 191.284 231.558 191.225 231.558 191.152V190.781C231.558 190.708 231.499 190.648 231.426 190.648Z" fill="#89D1F1"/>
<path d="M225.121 204.889C226.548 204.889 227.705 203.732 227.705 202.305C227.705 200.878 226.548 199.721 225.121 199.721C223.693 199.721 222.536 200.878 222.536 202.305C222.536 203.732 223.693 204.889 225.121 204.889Z" fill="#F9AF3D"/>
<path d="M228.514 204.889C229.941 204.889 231.098 203.732 231.098 202.305C231.098 200.878 229.941 199.721 228.514 199.721C227.086 199.721 225.929 200.878 225.929 202.305C225.929 203.732 227.086 204.889 228.514 204.889Z" fill="#BF2830"/>
<path d="M197.576 200.425H181.698C181.563 200.425 181.454 200.534 181.454 200.669V201.348C181.454 201.483 181.563 201.592 181.698 201.592H197.576C197.71 201.592 197.819 201.483 197.819 201.348V200.669C197.819 200.534 197.71 200.425 197.576 200.425Z" fill="#89D1F1"/>
<path d="M197.465 204.021H192.141V204.891H197.465V204.021Z" fill="#89D1F1"/>
<path d="M197.465 205.598H192.141V206.032H197.465V205.598Z" fill="#89D1F1"/>
<path d="M199.944 206.168V200.538H199.726V206.168H199.944Z" fill="#89D1F1"/>
<path d="M312.622 229.702C312.622 229.702 315.505 235.288 309.286 236.501C303.067 237.713 301.802 243.72 301.802 243.72L299 236.448L312.622 229.702Z" fill="#FCAF03"/>
<path d="M279.509 219.844C279.509 219.844 274.714 223.639 277.928 228.276C281.142 232.914 286.677 231.808 286.044 238.028C285.411 244.248 289.623 247.697 298.64 241.022C307.657 234.347 289.736 227.54 289.736 227.54L279.509 219.844Z" fill="#FCAF03"/>
<path d="M293.476 237.82C293.476 237.82 298.166 242.827 296.585 246.991C295.003 251.154 301.697 250.047 304.437 246.567C304.437 246.567 305.017 246.143 303.173 242.772C301.328 239.401 298.324 231.23 298.324 231.23L293.476 237.82Z" fill="#FCC1C0"/>
<path d="M283.357 209.729C283.357 209.729 292.155 210.047 295.003 207.253C297.851 204.459 302.329 208.623 301.433 213.05C300.537 217.478 314.029 214.737 312.5 221.166C310.972 227.595 304.753 230.388 304.753 230.388L295.637 215.157L283.357 209.729Z" fill="#FCAF03"/>
<path d="M321.189 312.717L314.312 340.735L342.909 347.754L349.785 319.735L321.189 312.717Z" fill="#4C8784"/>
<path d="M321.188 312.715L319.945 317.783L348.54 324.802L349.784 319.734L321.188 312.715Z" fill="#4C8784"/>
<path d="M350.106 319.205L320.568 311.956L319.325 317.02L348.863 324.27L350.106 319.205Z" fill="#4C8784"/>
<path d="M337.901 316.181L335.828 324.632L335.494 323.689L334.758 324.369L334.426 323.426L333.693 324.109L333.36 323.165L332.625 323.846L332.291 322.902L331.559 323.585L333.633 315.134L337.901 316.181Z" fill="#4C8784"/>
<path d="M322.416 313.005L315.539 341.023L344.135 348.042L351.012 320.023L322.416 313.005Z" fill="#9BBCBB"/>
<path d="M322.415 313.002L321.171 318.07L349.767 325.089L351.011 320.021L322.415 313.002Z" fill="#6DA5A4"/>
<path d="M351.332 319.492L321.794 312.243L320.551 317.308L350.089 324.557L351.332 319.492Z" fill="#B2D8D6"/>
<path d="M339.128 316.468L337.055 324.92L336.722 323.976L335.986 324.658L335.653 323.714L334.921 324.396L334.587 323.453L333.853 324.134L333.519 323.191L332.786 323.872L334.861 315.421L339.128 316.468Z" fill="#6DA5A4"/>
<path d="M327.26 281.486L320.05 310.865L350.033 318.224L357.244 288.846L327.26 281.486Z" fill="#C98B00"/>
<path d="M327.259 281.485L325.955 286.799L355.939 294.158L357.243 288.844L327.259 281.485Z" fill="#C98B00"/>
<path d="M326.665 280.701L325.361 286.011L356.333 293.613L357.637 288.302L326.665 280.701Z" fill="#C98B00"/>
<path d="M344.784 285.123L342.61 293.985L342.26 292.995L341.488 293.709L341.14 292.72L340.371 293.436L340.022 292.446L339.251 293.16L338.901 292.171L338.133 292.887L340.307 284.025L344.784 285.123Z" fill="#C98B00"/>
<path d="M328.331 282.535L321.121 311.913L351.104 319.272L358.315 289.894L328.331 282.535Z" fill="#FEC435"/>
<path d="M328.332 282.533L327.027 287.847L357.011 295.206L358.315 289.892L328.332 282.533Z" fill="#C98B00"/>
<path d="M358.655 289.344L327.683 281.742L326.38 287.053L357.352 294.655L358.655 289.344Z" fill="#FEC435"/>
<path d="M346.037 285.429L343.68 295.033L343.349 293.973L342.56 294.758L342.228 293.697L341.443 294.484L341.111 293.424L340.322 294.209L339.989 293.148L339.205 293.935L341.561 284.331L346.037 285.429Z" fill="#F8753F"/>
<path d="M359.686 281.476L352.476 310.854L382.459 318.213L389.67 288.835L359.686 281.476Z" fill="#181B4F"/>
<path d="M359.685 281.474L358.381 286.788L388.365 294.147L389.669 288.833L359.685 281.474Z" fill="#181B4F"/>
<path d="M390.007 288.285L359.035 280.684L357.731 285.995L388.703 293.596L390.007 288.285Z" fill="#181B4F"/>
<path d="M377.207 285.111L375.032 293.973L374.684 292.984L373.912 293.697L373.563 292.708L372.795 293.424L372.445 292.435L371.674 293.148L371.325 292.159L370.557 292.875L372.731 284.013L377.207 285.111Z" fill="#181B4F"/>
<path d="M360.973 281.778L353.763 311.156L383.746 318.515L390.957 289.137L360.973 281.778Z" fill="#2D2E75"/>
<path d="M360.972 281.776L359.668 287.09L389.652 294.45L390.956 289.135L360.972 281.776Z" fill="#222666"/>
<path d="M391.293 288.588L360.322 280.986L359.018 286.297L389.99 293.898L391.293 288.588Z" fill="#2D2E75"/>
<path d="M378.493 285.414L376.319 294.275L375.97 293.285L375.199 294L374.849 293.011L374.081 293.726L373.732 292.736L372.961 293.45L372.611 292.462L371.844 293.177L374.018 284.315L378.493 285.414Z" fill="#181B4F"/>
<path d="M350.054 311.1L341.087 347.634L378.373 356.786L387.34 320.252L350.054 311.1Z" fill="#6DA5A4"/>
<path d="M350.054 311.098L348.432 317.706L385.718 326.858L387.34 320.25L350.054 311.098Z" fill="#6DA5A4"/>
<path d="M387.772 319.566L349.257 310.113L347.635 316.718L386.151 326.171L387.772 319.566Z" fill="#6DA5A4"/>
<path d="M371.849 315.626L369.146 326.646L368.711 325.416L367.752 326.304L367.317 325.075L366.362 325.964L365.928 324.733L364.97 325.621L364.534 324.391L363.58 325.28L366.284 314.26L371.849 315.626Z" fill="#6DA5A4"/>
<path d="M351.655 311.475L342.688 348.009L379.975 357.161L388.941 320.627L351.655 311.475Z" fill="#C8D8D8"/>
<path d="M351.654 311.473L350.032 318.081L387.318 327.233L388.94 320.625L351.654 311.473Z" fill="#9BBCBB"/>
<path d="M350.914 310.498L349.292 317.103L387.808 326.556L389.429 319.951L350.914 310.498Z" fill="#C8D8D8"/>
<path d="M373.45 316.002L370.746 327.022L370.311 325.791L369.352 326.679L368.919 325.45L367.963 326.339L367.529 325.108L366.57 325.997L366.135 324.766L365.18 325.655L367.884 314.635L373.45 316.002Z" fill="#6DA5A4"/>
<path d="M291.38 315.369C291.38 309.882 291.353 304.394 291.344 298.905C291.344 297.558 291.95 296.969 293.283 297.053C293.519 297.068 293.755 297.086 293.99 297.102L294.124 297.113C295.507 297.211 296.888 297.325 298.27 297.437C298.27 297.437 298.27 297.437 298.27 297.443L304.042 297.904L304.659 297.952L316.604 298.906C317.089 298.935 317.574 298.976 318.058 299.022H318.069C318.723 299.084 319.377 299.155 320.029 299.223C322.296 299.456 324.57 299.578 326.837 299.786C329.341 300.015 331.85 300.195 334.356 300.398C335.006 300.475 335.655 300.557 336.312 300.469C337.054 300.776 337.845 300.667 338.61 300.735C344.632 301.265 350.659 301.745 356.684 302.251C360.485 302.569 364.289 302.866 368.085 303.252C369.393 303.385 370.707 303.379 372.007 303.547L372.421 303.58V303.572C376.049 303.871 379.676 304.17 383.303 304.468C383.515 304.486 383.727 304.476 383.939 304.478C388.277 304.863 392.614 305.249 396.951 305.637C397.481 305.685 397.856 305.667 398.011 305.021C398.171 304.348 398.458 303.705 398.698 303.051C398.993 302.246 399.371 301.532 400.338 301.355C401.61 301.129 402.87 300.869 404.137 300.628C406.666 300.145 409.193 299.654 411.725 299.187C413.103 298.933 414.49 298.696 415.873 298.46L420.431 297.552C421.425 297.324 422.433 297.161 423.448 297.061C423.188 298.146 423.306 299.146 424.118 299.987C423.952 300.115 423.761 300.205 423.557 300.251V300.251L423.513 300.259C423.474 300.267 423.434 300.275 423.394 300.281L417.749 301.308C412.816 302.262 407.885 303.233 402.936 304.105C401.866 304.293 401.42 304.741 401.088 305.683C399.903 309.07 398.657 312.437 397.411 315.803C395.431 321.149 393.427 326.486 391.443 331.831C390.1 335.443 388.766 339.056 387.438 342.672C385.389 348.225 383.34 353.777 381.29 359.328C381.253 359.426 381.236 359.53 381.241 359.634C381.245 359.739 381.271 359.841 381.317 359.935C382.789 363.702 384.268 367.461 385.694 371.25C385.912 371.83 386.108 371.904 386.656 371.707C388.478 371.051 390.357 371.027 392.216 371.49C397.95 372.922 401.465 378.437 400.185 384.353C399.225 388.787 395.286 392.245 390.776 392.653C384.716 393.202 379.314 388.574 379.099 382.623C379.078 382.028 378.915 381.861 378.315 381.862C360.641 381.879 342.966 381.879 325.292 381.862C324.784 381.862 324.602 381.974 324.583 382.515C324.499 384.904 323.601 386.989 322.115 388.843C319.69 391.868 315.013 393.448 311.361 392.401C307.446 391.28 304.802 388.839 303.585 384.875C302.368 380.912 303.947 375.934 307.286 373.485C310.513 371.117 314.001 370.517 317.774 371.955C320.722 373.082 322.723 375.188 323.876 378.095C324.088 378.635 324.324 378.791 324.885 378.789C332.243 378.77 339.601 378.766 346.959 378.777C357.483 378.777 368.005 378.765 378.529 378.803C379.303 378.803 379.622 378.525 379.855 377.889C380.38 376.454 381.205 375.194 382.375 374.221C383.087 373.629 383.082 373.154 382.741 372.313C381.257 368.668 379.879 364.978 378.483 361.298C378.367 360.994 378.189 360.912 377.904 360.843C377.338 360.705 376.771 360.564 376.2 360.419L357.538 355.803V355.811C357.125 355.705 356.711 355.599 356.298 355.493C351.045 354.178 345.792 352.864 340.54 351.551C336.224 350.476 331.906 349.409 327.587 348.349C322.745 347.159 317.898 345.986 313.058 344.789C309.183 343.835 305.315 342.845 301.442 341.879C298.634 341.178 295.812 340.525 293.016 339.781C291.519 339.381 291.343 339.047 291.346 337.481C291.356 330.11 291.368 322.74 291.38 315.369ZM392.549 308.672H394.621C393.908 308.149 393.227 308.589 392.549 308.672ZM392.577 319.024C392.883 319.063 392.922 318.806 392.99 318.623C393.934 316.098 394.858 313.566 395.815 311.046C395.977 310.622 395.947 310.483 395.461 310.498C394.603 310.526 393.742 310.529 392.886 310.498C392.455 310.481 392.332 310.624 392.34 311.04C392.361 312.3 392.347 313.561 392.347 314.822C392.347 316.056 392.347 317.29 392.356 318.524C392.357 318.694 392.231 318.974 392.577 319.019V319.024ZM383.453 307.734C383.194 307.547 382.89 307.634 382.605 307.592C382.241 307.538 382.053 307.651 382.063 308.055C382.072 308.406 382.169 308.619 382.568 308.585C382.832 308.562 383.098 308.553 383.363 308.537H391.034C391.039 308.453 391.045 308.367 391.051 308.282C388.506 308.229 386.01 307.664 383.453 307.729V307.734ZM391.077 311.093C391.077 310.812 391.163 310.494 390.674 310.501C388.15 310.533 385.625 310.546 383.101 310.565C382.078 310.425 382.079 310.425 382.081 311.446C382.081 313.527 382.081 315.608 382.095 317.688C382.095 317.948 382.017 318.218 382.174 318.469L382.165 318.953C384.382 319.11 386.603 319.023 388.822 319.016C389.564 319.016 390.548 319.364 390.968 318.85C391.329 318.411 391.074 317.463 391.074 316.739C391.081 314.854 391.082 312.97 391.077 311.088V311.093ZM389.106 329.118C389.755 327.392 390.501 325.694 391.023 323.931C391.265 323.115 391.074 322.171 391.082 321.281C391.082 320.833 390.752 320.946 390.509 320.945C389.168 320.937 387.829 320.945 386.488 320.945C385.198 320.945 383.908 320.959 382.618 320.936C382.201 320.929 382.06 321.051 382.063 321.48C382.082 323.98 382.082 326.479 382.063 328.978C382.063 329.427 382.231 329.517 382.629 329.508C384.591 329.496 386.551 329.494 388.515 329.514C388.85 329.519 389.001 329.393 389.106 329.113V329.118ZM385.734 338.328C386.454 336.291 387.233 334.275 387.975 332.245C388.073 331.975 388.222 331.705 388.151 331.34C386.285 331.34 384.413 331.348 382.541 331.334C382.194 331.334 382.068 331.44 382.07 331.794C382.079 334.342 382.079 336.891 382.07 339.441C382.07 339.857 382.249 339.942 382.6 339.919C382.893 339.901 383.19 339.919 383.485 339.919C385.204 339.917 385.176 339.906 385.734 338.328ZM382.055 343.592C382.129 344.996 382.07 346.407 382.07 347.815L382.203 347.831C382.874 346.004 383.541 344.176 384.217 342.352C384.357 341.978 384.368 341.802 383.861 341.767C382.078 341.644 381.959 341.789 382.055 343.592ZM392.88 377.731C392.138 377.255 391.366 376.83 390.464 376.754C389.643 376.684 390.268 377.357 390.079 377.513C389.952 378.149 390.052 378.549 390.741 378.536C390.903 378.544 391.057 378.607 391.177 378.715C391.897 379.351 392.397 379.057 392.928 378.416C393.195 378.094 393.16 377.91 392.88 377.731ZM394.835 380.724C394.703 380.318 394.567 379.913 394.405 379.518C394.243 379.124 393.923 378.55 393.65 378.592C393.287 378.647 392.995 379.154 392.67 379.464C392.484 379.641 392.607 379.782 392.696 379.954C392.857 380.259 393.072 380.573 393.109 380.9C393.189 381.61 393.564 381.791 394.098 381.674C395.136 381.673 395.143 381.668 394.835 380.724ZM394.35 384.534C394.53 384.118 394.684 383.691 394.811 383.255C395.145 382.237 395.141 382.236 394.016 382.238C393.58 382.17 393.196 382.238 393.153 382.889C393.134 383.183 393.025 383.465 392.842 383.696C392.434 384.168 392.619 384.465 393.003 384.817C393.699 385.453 393.919 385.432 394.35 384.534ZM390.91 387.078C391.42 386.923 391.953 386.846 392.371 386.479C392.639 386.244 393.344 386.26 393.031 385.673C392.567 384.801 392.087 384.674 391.419 385.059C391.213 385.176 390.995 385.368 390.783 385.367C390.046 385.367 389.956 385.781 390.063 386.364C389.884 387.144 390.206 387.294 390.91 387.08V387.078ZM311.051 386.368C311.558 386.665 312.101 386.898 312.666 387.061C313.356 387.251 313.782 387.233 313.572 386.357C313.705 385.746 313.555 385.363 312.849 385.361C312.68 385.361 312.491 385.236 312.346 385.123C311.789 384.691 311.444 384.742 310.905 385.314C310.367 385.887 310.467 386.041 311.051 386.37V386.368ZM308.76 383.105C308.921 383.886 309.35 384.535 309.749 385.201C309.855 385.378 310.006 385.53 310.178 385.299C310.407 384.992 310.699 384.761 310.978 384.51C311.11 384.391 311.248 384.185 311.028 384.033C310.392 383.593 310.799 382.536 309.955 382.242C309.81 382.193 309.637 382.235 309.367 382.235C308.66 382.058 308.636 382.505 308.76 383.107V383.105ZM309.693 378.803C309.335 379.425 308.926 380.018 308.777 380.74C308.591 381.636 308.615 381.67 309.615 381.67C310.134 381.824 310.446 381.602 310.487 380.985C310.485 380.851 310.525 380.719 310.602 380.609C311.304 379.858 311.032 379.319 310.316 378.755C310.003 378.511 309.912 378.425 309.693 378.805V378.803ZM312.7 376.83C312.293 376.954 311.899 377.117 311.522 377.316C310.231 377.933 310.227 377.994 311.25 378.967C311.48 379.186 311.647 379.239 311.929 379.036C312.229 378.824 312.58 378.554 312.917 378.541C313.643 378.515 313.659 378.117 313.573 377.555C313.789 376.755 313.436 376.631 312.7 376.83ZM315.094 387.078C315.826 386.921 316.438 386.562 317.049 386.177C317.155 386.109 317.326 385.97 317.31 385.905C317.19 385.443 316.696 385.277 316.462 384.891C316.324 384.666 316.123 384.734 315.905 384.86C315.47 385.112 315.057 385.39 314.518 385.458C313.904 385.543 314.395 386.101 314.266 386.229C314.02 387.242 314.446 387.218 315.094 387.076V387.078ZM317.08 377.763C316.461 377.398 315.851 377.008 315.135 376.855C314.203 376.656 314.202 376.659 314.205 377.718C313.909 378.593 314.795 378.383 315.205 378.672C315.964 379.202 316.532 378.866 317.113 378.372C317.417 378.115 317.374 377.933 317.08 377.761V377.763ZM318.175 382.238C317.63 382.084 317.36 382.371 317.311 382.962C317.307 383.097 317.261 383.227 317.179 383.334C316.409 384.114 316.875 384.638 317.497 385.199C317.79 385.464 317.915 385.44 318.094 385.133C318.458 384.509 318.864 383.911 319.017 383.184C319.205 382.286 319.176 382.236 318.175 382.236V382.238ZM389.112 376.765C388.75 376.814 388.176 376.643 388.037 377.204C387.938 377.607 388.552 378.486 388.848 378.509C389.64 378.572 389.484 378.012 389.484 377.489C389.318 377.301 389.821 376.667 389.112 376.763V376.765ZM386.568 386.139C387.31 386.669 388.121 387.062 389.044 387.16C389.483 387.206 389.484 387.196 389.484 386.261C389.59 385.753 389.464 385.352 388.748 385.373C388.601 385.373 388.445 385.276 388.306 385.204C387.406 384.738 387.05 384.826 386.471 385.618C386.298 385.857 386.37 385.991 386.571 386.137L386.568 386.139ZM384.541 382.528C384.666 383.541 385.07 384.5 385.707 385.297C385.813 385.436 385.926 385.426 386.038 385.32C386.116 385.246 386.168 385.145 386.25 385.08C386.82 384.63 387.23 384.159 386.557 383.467C386.471 383.379 386.457 383.223 386.403 383.101C386.279 382.823 386.403 382.359 386.065 382.277C385.641 382.171 385.162 382.243 384.708 382.252C384.544 382.253 384.5 382.377 384.545 382.525L384.541 382.528ZM350.105 307.966C350.066 307.134 350.076 306.299 350.105 305.466C350.119 305.051 349.959 304.894 349.561 304.862C346.963 304.65 344.366 304.43 341.772 304.201C341.305 304.159 341.163 304.322 341.175 304.78C341.203 305.855 341.203 306.931 341.175 308.006C341.162 308.48 341.342 308.599 341.785 308.591C343.076 308.567 344.367 308.583 345.658 308.583C346.922 308.583 348.186 308.565 349.449 308.589C349.919 308.596 350.133 308.484 350.108 307.964L350.105 307.966ZM350.105 311.053C350.105 310.644 349.974 310.488 349.548 310.491C346.938 310.507 344.328 310.507 341.716 310.491C341.272 310.491 341.174 310.68 341.176 311.072C341.186 313.522 341.196 315.97 341.176 318.42C341.176 318.95 341.378 319.043 341.844 319.034C343.103 319.008 344.362 319.025 345.623 319.025C346.909 319.025 348.196 319.014 349.483 319.03C349.901 319.036 350.119 318.953 350.119 318.459C350.09 315.986 350.096 313.52 350.106 311.051L350.105 311.053ZM360.161 305.921C359.787 305.42 358.956 305.666 358.328 305.603C356.19 305.398 354.046 305.242 351.907 305.042C351.45 304.998 351.349 305.177 351.357 305.58C351.375 306.386 351.388 307.193 351.357 307.998C351.337 308.475 351.529 308.593 351.968 308.585C353.257 308.565 354.548 308.578 355.838 308.578C357.074 308.578 358.311 308.557 359.548 308.591C360.086 308.606 360.35 308.486 360.29 307.889C360.218 307.223 360.538 306.423 360.163 305.916L360.161 305.921ZM351.963 320.939C351.504 320.928 351.351 321.06 351.354 321.521C351.369 323.965 351.369 326.409 351.354 328.852C351.354 329.324 351.478 329.523 351.983 329.52C354.534 329.501 357.085 329.501 359.636 329.52C360.114 329.52 360.297 329.39 360.294 328.884C360.275 326.441 360.277 323.998 360.299 321.553C360.299 321.035 360.081 320.93 359.62 320.938C358.331 320.962 357.042 320.946 355.753 320.946V320.953C354.488 320.949 353.226 320.968 351.965 320.937L351.963 320.939ZM380.795 321.53C380.795 321.067 380.633 320.932 380.187 320.935C377.605 320.951 375.023 320.951 372.443 320.935C371.961 320.935 371.862 321.13 371.864 321.56C371.88 323.98 371.885 326.399 371.864 328.819C371.864 329.34 372.005 329.529 372.548 329.513C373.81 329.477 375.075 329.501 376.338 329.501V329.506C377.603 329.506 378.866 329.49 380.13 329.514C380.613 329.523 380.792 329.364 380.789 328.869C380.778 326.422 380.782 323.975 380.801 321.528L380.795 321.53ZM380.795 311.087C380.795 310.625 380.623 310.486 380.177 310.493C378.887 310.515 377.596 310.502 376.306 310.502V310.494C375.22 310.494 374.133 310.506 373.047 310.494H373.036C372.863 310.494 372.691 310.494 372.517 310.487C372.037 310.476 371.852 310.608 371.858 311.115C371.881 313.562 371.884 316.008 371.866 318.455C371.866 318.931 372.042 319.04 372.479 319.038C375.032 319.023 377.586 319.023 380.14 319.038C380.627 319.038 380.8 318.894 380.796 318.402C380.784 315.962 380.787 313.523 380.805 311.085L380.795 311.087ZM361.637 339.306C361.637 339.819 361.843 339.936 362.309 339.926C363.6 339.902 364.891 339.918 366.182 339.918C367.446 339.918 368.71 339.901 369.974 339.927C370.43 339.937 370.579 339.786 370.577 339.333C370.562 336.859 370.562 334.386 370.577 331.913C370.577 331.516 370.476 331.33 370.036 331.332C367.428 331.348 364.819 331.348 362.21 331.332C361.724 331.332 361.626 331.544 361.629 331.968C361.643 334.411 361.653 336.857 361.637 339.306ZM361.63 328.843C361.63 329.389 361.828 329.519 362.34 329.515C364.837 329.492 367.335 329.492 369.834 329.515C370.378 329.521 370.592 329.387 370.584 328.802C370.556 326.412 370.556 324.022 370.584 321.632C370.592 321.039 370.372 320.915 369.842 320.93C368.608 320.963 367.372 320.94 366.132 320.94V320.949C364.844 320.949 363.552 320.973 362.265 320.936C361.745 320.921 361.629 321.119 361.629 321.588C361.645 324.007 361.652 326.425 361.63 328.842V328.843ZM361.63 318.386C361.63 318.861 361.753 319.048 362.266 319.035C363.556 318.999 364.847 319.023 366.138 319.023C367.402 319.023 368.667 319.005 369.929 319.032C370.416 319.043 370.581 318.9 370.576 318.396C370.555 315.977 370.562 313.555 370.576 311.135C370.576 310.662 370.449 310.478 369.94 310.483C367.385 310.507 364.831 310.507 362.276 310.483C361.776 310.483 361.619 310.635 361.622 311.119C361.644 313.542 361.647 315.964 361.632 318.385L361.63 318.386ZM370.129 352.004L361.627 352.127V353.563L370.247 355.693L370.129 352.004ZM362.55 350.373L369.96 350.335C370.602 350.277 370.596 350.033 370.538 348.929C370.547 346.729 370.551 344.53 370.575 342.33C370.575 341.906 370.422 341.774 370.012 341.776C367.41 341.789 364.808 341.789 362.205 341.776C361.801 341.776 361.624 341.898 361.632 342.326C361.666 344.176 361.676 346.024 361.695 347.873C361.674 348.382 361.701 348.898 361.62 349.396C361.498 350.174 361.783 350.484 362.552 350.372L362.55 350.373ZM362.414 305.916C361.798 305.859 361.632 306.052 361.626 306.653C361.612 308.577 361.589 308.577 363.487 308.577H366.144C367.407 308.577 368.668 308.559 369.929 308.587C370.41 308.598 370.581 308.465 370.582 307.961C370.582 306.627 370.609 306.609 369.31 306.495C367.011 306.294 364.711 306.134 362.414 305.916ZM380.78 307.697C380.755 307.449 380.579 307.42 380.38 307.411C378.862 307.336 377.357 307.115 375.843 306.987L372.077 306.809L371.895 306.8L371.867 306.756L371.846 306.75L371.895 306.8C371.933 307.385 371.755 307.984 372.001 308.558C372.349 308.778 372.735 308.642 373.103 308.664C373.276 308.657 373.448 308.662 373.62 308.678H375.452L375.496 308.619L375.536 308.602C377.232 308.69 378.935 308.761 380.633 308.563L380.784 308.418C380.859 308.313 380.898 308.187 380.898 308.058C380.897 307.929 380.856 307.803 380.781 307.699L380.78 307.697ZM380.115 331.335C377.586 331.335 375.058 331.344 372.528 331.325C372.054 331.325 371.865 331.431 371.869 331.949C371.892 334.396 371.881 336.845 371.878 339.292C371.878 339.636 371.868 339.928 372.361 339.92C374.779 339.875 377.199 339.997 379.617 339.851C380.783 340.004 380.783 340.004 380.783 338.841C380.783 336.916 380.79 334.991 380.774 333.066C380.774 332.797 380.917 332.474 380.615 332.255C380.948 331.443 380.895 331.338 380.116 331.337L380.115 331.335ZM380.805 349.559C380.774 347.307 380.791 345.053 380.792 342.801C380.792 341.741 380.792 341.741 379.706 341.785C379.598 341.797 379.492 341.816 379.388 341.843C377.027 341.697 374.663 341.82 372.302 341.777C371.918 341.769 371.878 341.989 371.878 342.29C371.893 344.546 371.905 346.802 371.913 349.058C371.836 350.35 371.836 350.351 373.095 350.351C375.407 350.351 377.72 350.322 380.033 350.37C380.71 350.387 380.815 350.155 380.806 349.562L380.805 349.559ZM377.868 357.615C378.292 357.702 378.559 357.714 378.744 357.154C379.29 355.507 379.948 353.898 380.597 352.18C377.762 352.18 375.03 352.18 372.298 352.18C371.988 352.18 371.856 352.286 371.882 352.604C371.89 352.752 371.89 352.901 371.882 353.049V356.104L375.486 356.995C376.287 357.185 377.065 357.452 377.869 357.615H377.868ZM357.554 352.556L360.085 353.182V352.182C359.958 352.17 359.83 352.17 359.702 352.182C358.642 352.174 357.574 352.182 356.468 352.182C356.822 352.329 357.185 352.454 357.554 352.556V352.556ZM351.882 350.364C354.513 350.353 357.144 350.353 359.775 350.364C360.149 350.364 360.305 350.275 360.283 349.876C360.244 349.127 360.244 348.376 360.227 347.626C360.244 345.853 360.258 344.079 360.281 342.306C360.281 341.949 360.185 341.776 359.782 341.776C357.125 341.741 354.466 341.873 351.81 341.719C351.5 341.701 351.352 341.909 351.357 342.249C351.382 343.7 351.388 345.151 351.4 346.602C351.388 347.701 351.391 348.802 351.355 349.901C351.341 350.315 351.53 350.364 351.882 350.362V350.364ZM351.352 339.256C351.345 339.803 351.543 339.934 352.045 339.93C354.574 339.912 357.102 339.912 359.63 339.93C360.1 339.93 360.293 339.824 360.289 339.307C360.265 336.86 360.265 334.412 360.289 331.964C360.294 331.457 360.112 331.32 359.634 331.328C358.344 331.353 357.051 331.337 355.761 331.337V331.342C354.523 331.342 353.286 331.367 352.051 331.332C351.535 331.316 351.347 331.446 351.353 331.993C351.378 334.413 351.378 336.833 351.354 339.254L351.352 339.256ZM351.352 318.388C351.352 318.872 351.483 319.049 351.988 319.038C353.277 319.008 354.567 319.027 355.856 319.027C357.118 319.027 358.382 319.013 359.643 319.039C360.127 319.048 360.297 318.901 360.293 318.403C360.27 316.013 360.27 313.622 360.293 311.231C360.298 310.701 360.181 310.483 359.586 310.489C357.074 310.522 354.56 310.514 352.049 310.489C351.535 310.489 351.349 310.617 351.354 311.157C351.378 313.564 351.377 315.974 351.352 318.386V318.388ZM350.118 339.127C350.08 337.031 350.101 334.935 350.099 332.839C350.099 331.336 350.099 331.337 348.558 331.336C346.219 331.336 343.882 331.341 341.544 331.306C341.216 331.301 341.194 331.412 341.193 331.641C341.193 334.248 341.193 336.854 341.181 339.461C341.181 339.895 341.423 339.92 341.747 339.919C343.091 339.912 344.435 339.919 345.775 339.919C346.958 339.919 348.146 339.851 349.321 339.944C350.054 339.999 350.128 339.747 350.118 339.127ZM341.188 346.995C341.188 348.574 341.193 348.544 342.759 348.903C344.531 349.31 346.288 349.779 348.052 350.221C348.104 350.234 348.158 350.244 348.209 350.258C349.832 350.682 350.104 350.488 350.095 348.855C350.095 348.05 350.065 347.245 350.049 346.442C350.067 345.075 350.077 343.706 350.106 342.339C350.116 341.93 349.972 341.772 349.548 341.774C346.943 341.788 344.339 341.788 341.734 341.774C341.319 341.774 341.165 341.902 341.179 342.327C341.213 343.372 341.211 344.419 341.224 345.466C341.214 345.977 341.189 346.485 341.186 346.995H341.188ZM341.862 329.516C344.39 329.492 346.918 329.492 349.445 329.516C349.997 329.521 350.118 329.313 350.114 328.807C350.093 326.413 350.093 324.02 350.114 321.627C350.119 321.112 349.978 320.915 349.435 320.93C348.145 320.965 346.854 320.94 345.563 320.94C344.336 320.94 343.106 320.962 341.879 320.932C341.374 320.92 341.167 321.043 341.173 321.597C341.2 324.008 341.2 326.42 341.173 328.83C341.166 329.361 341.332 329.521 341.861 329.516H341.862ZM329.584 303.796C329.584 303.43 329.536 303.232 329.082 303.179C326.432 302.867 323.782 302.741 321.126 302.543C320.753 302.515 320.667 302.668 320.669 303.003C320.679 304.699 320.687 306.395 320.663 308.091C320.656 308.564 320.886 308.601 321.256 308.598C322.547 308.584 323.839 308.598 325.13 308.598C326.394 308.598 327.659 308.58 328.922 308.598C329.373 308.606 329.605 308.538 329.591 307.997C329.554 306.589 329.572 305.19 329.584 303.796ZM329.584 311.004C329.584 310.624 329.458 310.493 329.072 310.496C326.44 310.512 323.808 310.514 321.176 310.504C320.789 310.504 320.666 310.637 320.668 311.017C320.68 313.514 320.683 316.013 320.668 318.51C320.668 318.957 320.846 319.04 321.242 319.04C322.557 319.022 323.873 319.034 325.19 319.034V319.074C326.478 319.074 327.766 319.069 329.054 319.074C329.408 319.074 329.589 318.974 329.584 318.576C329.572 316.049 329.572 313.523 329.584 310.998V311.004ZM329.59 321.519C329.59 321.049 329.431 320.937 328.984 320.94C326.404 320.959 323.824 320.959 321.246 320.94C320.769 320.94 320.664 321.114 320.667 321.551C320.683 323.998 320.686 326.444 320.667 328.889C320.667 329.39 320.827 329.532 321.316 329.525C322.606 329.495 323.896 329.515 325.187 329.515C326.423 329.515 327.66 329.496 328.897 329.525C329.399 329.538 329.607 329.426 329.6 328.867C329.564 326.406 329.57 323.959 329.59 321.513V321.519ZM321.194 339.921C322.067 339.906 322.941 339.893 323.816 339.882C325.583 339.896 327.35 339.908 329.116 339.93C329.459 339.936 329.585 339.803 329.584 339.458C329.574 336.914 329.574 334.367 329.584 331.818C329.584 331.411 329.398 331.333 329.042 331.334C326.433 331.344 323.825 331.35 321.215 331.334C320.791 331.334 320.657 331.468 320.663 331.887C320.688 334.414 320.693 336.942 320.706 339.469C320.572 339.935 320.884 339.92 321.194 339.914V339.921ZM339.442 304.04C338.264 303.953 337.088 303.844 335.913 303.743L333.945 303.591C333.116 303.52 332.286 303.463 331.459 303.374C331.026 303.328 330.9 303.493 330.906 303.911C330.925 305.28 330.921 306.651 330.906 308.02C330.906 308.42 331.012 308.616 331.45 308.591C332.146 308.553 332.844 308.553 333.541 308.537C334.144 308.616 334.754 308.613 335.356 308.528C336.698 308.546 338.041 308.56 339.384 308.586C339.717 308.594 339.876 308.48 339.873 308.128C339.865 306.945 339.873 305.762 339.873 304.579C339.877 304.275 339.81 304.06 339.442 304.033V304.04ZM339.888 328.508C339.851 326.24 339.851 323.973 339.888 321.706C339.896 321.101 339.722 320.919 339.119 320.936C337.351 320.987 335.583 320.98 333.814 320.996C333.306 320.918 332.789 320.918 332.28 320.996L330.911 320.919V328.887C330.911 329.254 330.896 329.629 331.459 329.466C331.916 329.534 332.38 329.533 332.837 329.461C334.856 329.603 336.885 329.388 338.896 329.547C339.877 329.62 339.901 329.248 339.888 328.501V328.508ZM339.874 331.84C339.874 331.581 339.841 331.341 339.497 331.35C337.226 331.404 334.953 331.211 332.684 331.431C331.048 331.155 331.037 331.171 331.018 332.786C330.992 334.931 330.971 337.078 330.912 339.223C330.894 339.847 331.073 340.071 331.684 339.87C334.264 339.886 336.843 339.903 339.422 339.923C339.784 339.923 339.875 339.749 339.874 339.425C339.869 336.89 339.873 334.362 339.874 331.834V331.84ZM331.618 346.15C333.429 346.607 335.25 347.029 337.066 347.472C337.844 347.663 338.617 347.875 339.392 348.079C339.718 348.164 339.887 348.099 339.87 347.704C339.834 346.874 339.836 346.044 339.822 345.214C339.838 344.226 339.848 343.235 339.874 342.246C339.885 341.889 339.717 341.784 339.391 341.787C336.715 341.807 334.04 341.824 331.365 341.837C330.964 341.698 330.915 341.926 330.917 342.245C330.924 343.317 330.949 344.391 330.907 345.46C330.884 346.012 331.287 346.058 331.618 346.142V346.15ZM331.886 319.036C332.125 319.009 332.365 318.996 332.606 318.996H334.099C335.847 319.009 337.597 319.011 339.341 319.04C339.786 319.047 339.883 318.843 339.881 318.453C339.871 316.005 339.871 313.558 339.881 311.11C339.881 310.667 339.744 310.488 339.281 310.498C337.883 310.531 336.485 310.53 335.088 310.542L333.25 310.551C330.913 310.325 330.913 310.325 330.912 312.64C330.912 314.461 330.956 316.283 330.891 318.101C330.863 318.904 331.144 319.148 331.886 319.027V319.036ZM321.228 343.557C323.262 344.022 325.285 344.538 327.312 345.041C327.883 345.183 328.446 345.359 329.017 345.509C329.369 345.602 329.616 345.608 329.591 345.085C329.548 344.146 329.56 343.204 329.591 342.263C329.603 341.868 329.473 341.766 329.092 341.773C327.748 341.794 326.404 341.781 325.064 341.781C323.861 341.781 322.657 341.76 321.454 341.797C321.192 341.806 320.631 341.497 320.698 342.144C320.742 342.638 320.279 343.34 321.228 343.557ZM295.092 300.323C294.621 300.272 294.5 300.413 294.512 300.874C294.542 302.058 294.522 303.242 294.522 304.426C294.522 305.636 294.541 306.848 294.512 308.058C294.501 308.493 294.64 308.597 295.055 308.588C296.158 308.561 297.261 308.561 298.365 308.588C298.805 308.601 298.895 308.442 298.895 308.037C298.878 305.75 298.878 303.463 298.895 301.176C298.895 300.892 298.868 300.714 298.658 300.635L297.492 300.54C296.694 300.488 295.891 300.413 295.092 300.323ZM300.148 318.429C300.148 318.871 300.254 319.039 300.728 319.035C303.335 319.012 305.942 319.01 308.548 319.029C308.985 319.029 309.098 318.869 309.097 318.471C309.085 315.998 309.078 313.526 309.097 311.051C309.097 310.562 308.896 310.481 308.47 310.489C307.181 310.511 305.891 310.497 304.601 310.497C303.365 310.497 302.128 310.523 300.891 310.485C300.361 310.469 300.133 310.576 300.14 311.17C300.172 313.592 300.164 316.01 300.148 318.429V318.429ZM318.787 342.899C318.966 342.943 319.382 343.251 319.325 342.707C319.291 342.377 319.675 341.774 318.872 341.781C317.564 341.792 316.256 341.781 314.95 341.781C316.192 342.386 317.504 342.586 318.787 342.899V342.899ZM311.734 339.916C314.047 339.916 316.359 339.909 318.671 339.916C319.137 339.916 319.519 339.902 319.259 339.271C319.438 337.449 319.317 335.623 319.328 333.798C319.328 333.003 319.688 331.981 319.163 331.466C318.682 330.997 317.679 331.341 316.905 331.334C314.943 331.314 312.983 331.334 311.017 331.323C310.666 331.323 310.374 331.323 310.386 331.805C310.437 334.007 310.309 336.21 310.454 338.41C310.262 339.917 310.262 339.917 311.734 339.916V339.916ZM319.345 311.094C319.345 310.653 319.218 310.485 318.747 310.489C316.168 310.51 313.589 310.51 311.009 310.489C310.503 310.489 310.373 310.656 310.373 311.138C310.392 313.554 310.392 315.972 310.373 318.39C310.373 318.877 310.505 319.047 311.009 319.035C312.298 319.004 313.588 319.024 314.877 319.024C316.14 319.024 317.402 319.012 318.665 319.032C319.113 319.04 319.355 318.963 319.35 318.427C319.328 315.986 319.333 313.539 319.345 311.094V311.094ZM319.345 321.611C319.35 321.088 319.199 320.913 318.657 320.929C317.367 320.969 316.075 320.943 314.783 320.943C313.546 320.943 312.308 320.962 311.073 320.933C310.566 320.921 310.368 321.039 310.375 321.6C310.404 323.993 310.404 326.387 310.375 328.782C310.369 329.338 310.525 329.524 311.1 329.517C313.603 329.488 316.105 329.493 318.607 329.517C319.151 329.517 319.357 329.383 319.349 328.799C319.322 326.401 319.328 324.006 319.35 321.611H319.345ZM310.576 308.467C311 308.778 311.815 308.573 312.456 308.573C314.71 308.573 316.962 308.553 319.215 308.542C319.337 308.526 319.373 308.458 319.332 308.346L319.338 307.765C319.355 306.056 319.374 304.347 319.38 302.64C319.38 302.557 319.274 302.473 319.222 302.39C318.907 302.321 318.589 302.268 318.268 302.231V302.231L316.835 302.115C316.199 302.077 315.557 302.044 314.927 301.959L310.544 301.602L310.367 306.584L310.38 306.576C310.491 307.223 310.064 308.096 310.58 308.472L310.576 308.467ZM308.485 320.929C305.906 320.948 303.328 320.953 300.747 320.924C300.217 320.917 300.137 321.121 300.14 321.578C300.157 323.995 300.163 326.413 300.134 328.83C300.127 329.375 300.3 329.52 300.821 329.507C302.082 329.476 303.346 329.497 304.608 329.497C305.898 329.497 307.187 329.481 308.476 329.507C308.924 329.516 309.094 329.388 309.091 328.923C309.075 326.45 309.075 323.977 309.091 321.503C309.102 321.049 308.941 320.93 308.491 320.933L308.485 320.929ZM300.985 338.553C302.759 338.948 304.506 339.468 306.285 339.825C307.086 339.987 307.941 339.877 308.771 339.906C309.031 339.914 309.089 339.792 309.08 339.57C309.059 339.146 309.044 338.714 309.026 338.285C309.155 336.112 309.052 333.939 309.081 331.762C309.081 331.387 308.895 331.325 308.577 331.326C305.945 331.333 303.312 331.333 300.679 331.326C300.317 331.326 300.137 331.408 300.143 331.813C300.17 333.692 300.176 335.572 300.19 337.451C299.98 338.174 300.326 338.41 300.99 338.558L300.985 338.553ZM300.391 308.524C303.2 308.539 306.008 308.551 308.815 308.562C308.902 308.562 308.989 308.469 309.076 308.419L309.423 301.51L301.04 300.828L301.015 300.823L300.51 300.781C300.233 300.835 300.121 301.08 300.138 301.602C300.206 303.695 300.16 305.792 300.185 307.888C300.184 308.099 299.94 308.453 300.397 308.528L300.391 308.524ZM294.512 329.008C294.512 329.319 294.55 329.513 294.936 329.505C296.011 329.482 297.088 329.484 298.164 329.49C298.714 329.49 298.86 329.243 298.839 328.706C298.793 327.523 298.825 326.338 298.825 325.154H298.879C298.879 323.917 298.866 322.679 298.887 321.444C298.894 321.07 298.801 320.924 298.402 320.931C297.271 320.954 296.14 320.954 295.01 320.931C294.628 320.924 294.5 321.024 294.503 321.423C294.53 323.953 294.524 326.48 294.517 329.012L294.512 329.008ZM294.998 337.027C296.094 337.28 297.192 337.529 298.269 337.85C298.953 338.052 298.931 337.727 298.836 337.259C298.851 335.437 298.862 333.614 298.883 331.792C298.891 331.125 298.459 331.35 298.108 331.386C297.061 331.369 296.014 331.362 294.966 331.328C294.609 331.316 294.507 331.447 294.51 331.792C294.525 333.351 294.534 334.91 294.51 336.468C294.504 336.868 294.68 336.956 295.003 337.031L294.998 337.027ZM295.051 319.026C296.153 318.997 297.254 318.997 298.355 319.026C298.791 319.038 298.892 318.888 298.885 318.475C298.868 316.002 298.868 313.531 298.885 311.062C298.885 310.681 298.837 310.473 298.375 310.485C297.248 310.515 296.12 310.513 294.992 310.485C294.581 310.475 294.503 310.635 294.508 311.001C294.526 312.259 294.516 313.517 294.516 314.776C294.516 316.012 294.532 317.247 294.507 318.486C294.503 318.913 294.631 319.041 295.056 319.03L295.051 319.026Z" fill="#062051"/>
<path d="M428.721 296.416C428.378 295.954 427.932 295.568 427.532 295.144C427.982 294.774 428.525 294.627 429.083 294.537C430.487 294.308 431.757 295.1 432.5 296.647C433.011 297.713 432.599 299.143 431.506 300.102C430.568 300.926 429.02 301.022 427.913 300.327C429.252 299.728 429.687 297.714 428.721 296.416Z" fill="#0B0504"/>
<path d="M423.456 297.068C424.33 296.739 425.258 296.637 426.16 296.46C426.408 296.411 426.623 296.365 426.723 296.1C426.88 295.689 427.24 295.446 427.532 295.146C427.931 295.57 428.38 295.954 428.721 296.418C429.687 297.716 429.251 299.73 427.912 300.331C427.832 300.347 427.749 300.337 427.674 300.303C427.6 300.27 427.537 300.214 427.496 300.143C427.141 299.502 426.591 299.613 426.02 299.713C425.393 299.825 424.758 299.904 424.126 299.997C423.314 299.153 423.196 298.154 423.456 297.068Z" fill="#FEC435"/>
<path d="M304.659 297.951L304.042 297.903C304.256 297.86 304.472 297.798 304.659 297.951Z" fill="#8B5B2B"/>
<path d="M283.036 283.887L282.294 292.528C282.289 292.581 282.296 292.634 282.313 292.684C282.331 292.733 282.358 292.779 282.395 292.817C282.431 292.856 282.475 292.886 282.524 292.906C282.572 292.926 282.625 292.936 282.678 292.934C285.378 292.848 300.266 292.348 300.745 291.629C301.243 290.887 301.838 279.916 303.301 275.851C303.402 275.573 302.836 274.997 302.54 275.011L286.594 275.761C286.523 275.764 286.455 275.788 286.397 275.829C286.339 275.869 286.294 275.926 286.267 275.991L283.059 283.776C283.046 283.812 283.038 283.849 283.036 283.887Z" fill="#FF473D"/>
<path d="M290.827 304.291C290.827 304.291 271.29 319.088 264.669 321.62C264.669 321.62 280.284 340.208 274.662 362.19L276.181 374.532L271.909 375.486C271.909 375.486 264.409 358.303 251.652 324.482C251.652 324.482 249.573 319.441 253.103 315.389C256.634 311.338 273.539 295.952 273.539 295.952L290.827 304.291Z" fill="#FCDFDE"/>
<path d="M273.128 375.083C272.827 375.045 272.589 374.986 272.353 375.266C272.076 375.598 271.505 375.402 271.425 374.954C271.323 374.358 271.259 373.756 271.234 373.152C271.213 372.712 271.585 372.466 272.002 372.586C272.42 372.706 272.85 372.329 272.826 371.89C272.774 370.804 272.677 369.715 272.697 368.631C272.711 367.905 272.708 367.198 272.503 366.499C272.153 365.307 271.521 364.846 270.354 364.998C269.166 365.154 267.983 365.36 266.796 365.528C266.558 365.562 266.486 365.67 266.488 365.918C266.525 370.153 266.357 374.377 266.039 378.593C265.915 380.235 265.682 381.847 265.102 383.384C264.38 385.299 263.262 386.832 261.455 387.73C260.395 388.26 259.352 388.808 258.289 389.32C257.547 389.677 257.229 390.196 257.262 391.071C257.276 391.424 257.291 391.776 257.308 392.182C258 392.195 258.669 392.219 259.338 392.219C262.324 392.211 265.3 391.871 268.212 391.207C268.964 391.038 269.609 390.677 269.958 389.924C271.08 387.498 272.48 385.25 273.899 383.016C274.261 382.444 274.335 381.948 274.194 381.26C273.798 379.324 273.511 377.365 273.181 375.415C273.162 375.321 273.148 375.216 273.128 375.083Z" fill="black"/>
<path d="M281.484 390.398C281.041 386.553 280.559 382.734 280.562 378.826C280.419 378.869 280.285 378.903 280.158 378.951C279.003 379.38 277.926 379.996 276.97 380.774C276.891 380.828 276.829 380.905 276.794 380.995C276.759 381.085 276.753 381.184 276.775 381.278C277.244 384.274 277.706 387.271 278.161 390.27C278.197 390.503 278.29 390.645 278.5 390.694C278.653 390.733 278.818 390.8 278.962 390.775C279.792 390.665 280.62 390.53 281.484 390.398Z" fill="black"/>
<path d="M273.268 375.098C273.517 377.436 273.964 379.725 274.468 382.087C275.145 381.145 275.952 380.305 276.864 379.589C277.856 378.807 278.965 378.186 280.151 377.749C280.423 377.649 280.533 377.537 280.518 377.219C280.483 376.492 280.502 376.488 279.857 376.276C277.758 375.589 275.604 375.277 273.43 375.099C273.376 375.096 273.322 375.096 273.268 375.098V375.098Z" fill="black"/>
<path d="M265.355 392.803C266.521 392.539 267.793 392.293 269.045 391.947C269.849 391.723 270.417 391.17 270.776 390.324C272.234 386.902 274.099 383.752 276.563 381.035C277.411 380.105 278.493 379.54 279.608 379.045C279.945 378.896 280.3 378.789 280.651 378.672C280.923 378.583 280.983 378.392 280.863 377.976C280.788 377.716 280.635 377.687 280.419 377.764C277.875 378.702 275.732 380.228 274.261 382.64C272.967 384.76 271.742 386.931 270.489 389.081C270.395 389.242 270.315 389.411 270.25 389.585C269.85 390.671 269.039 391.169 267.996 391.393C264.508 392.159 260.935 392.466 257.368 392.306C257.112 392.294 256.944 392.344 256.944 392.648C256.944 393.116 257.066 393.305 257.387 393.299C258.53 393.277 259.676 393.278 260.815 393.204C262.294 393.105 263.765 392.942 265.355 392.803Z" fill="black"/>
<path d="M277.457 369.356C277.152 368.568 276.868 367.833 276.584 367.099L272.768 368.459C272.818 369.623 272.871 370.868 272.927 372.196C273.326 371.949 273.816 371.825 273.97 371.512C274.26 370.92 274.81 370.793 275.242 370.468C275.411 370.342 275.654 370.323 275.865 370.256C275.941 370.248 276.016 370.23 276.089 370.205C276.554 369.926 277.012 369.636 277.457 369.356Z" fill="black"/>
<path d="M272.738 374.865C274.085 375.041 275.417 375.16 276.729 375.402C278.041 375.644 279.317 376.004 280.651 376.322C280.67 375.653 280.517 374.991 280.206 374.398C280.163 374.322 280.038 374.285 279.946 374.25C278.646 373.754 277.304 373.458 275.945 373.252C275.839 373.238 275.733 373.295 275.627 373.315C275.491 373.34 275.354 373.363 275.218 373.386C275.154 373.386 275.089 373.398 275.029 373.421C274.261 373.898 273.5 374.38 272.738 374.865Z" fill="black"/>
<path d="M257.474 393.415C257.457 393.465 257.45 393.475 257.451 393.486C257.517 394.263 257.518 394.275 258.368 394.267C261.109 394.241 263.841 394.108 266.541 393.624C267.19 393.507 267.823 393.299 268.467 393.157C268.785 393.086 268.904 392.929 268.798 392.592C268.768 392.461 268.747 392.329 268.735 392.195C265.014 393.11 261.258 393.405 257.474 393.415Z" fill="black"/>
<path d="M272.314 374.99L275.076 373.244L274.122 371.589C273.474 371.996 272.85 372.388 272.222 372.787C272.192 372.81 272.168 372.84 272.151 372.874C272.134 372.907 272.124 372.944 272.123 372.982C272.182 373.637 272.248 374.292 272.314 374.99Z" fill="black"/>
<path d="M276.041 373.083L279.991 374.057L278.533 371.172C277.985 371.663 277.306 371.8 276.898 372.419C276.701 372.716 276.32 372.876 276.041 373.083Z" fill="black"/>
<path d="M274.305 371.484L275.25 373.132C275.771 372.802 276.292 372.496 276.777 372.142C276.863 372.076 276.856 371.761 276.793 371.604C276.662 371.304 276.501 371.017 276.312 370.749C276.144 370.492 275.938 370.419 275.658 370.617C275.228 370.921 274.772 371.187 274.305 371.484Z" fill="black"/>
<path d="M276.247 370.258L277.193 371.904C277.538 371.686 277.949 371.435 278.349 371.162C278.421 371.091 278.471 371.001 278.493 370.901C278.607 370.559 278.711 370.212 278.835 369.817C278.403 369.696 277.987 369.574 277.563 369.467C277.51 369.454 277.436 369.5 277.381 369.535C276.983 369.792 276.586 370.046 276.247 370.258Z" fill="black"/>
<path d="M271.484 374.089C271.509 374.336 271.55 374.581 271.605 374.822C271.646 374.962 271.734 375.084 271.854 375.167C272.066 375.291 272.218 375.167 272.195 374.911C272.139 374.31 272.078 373.709 272.011 373.109C271.995 372.961 272.028 372.704 271.786 372.782C271.703 372.815 271.629 372.867 271.57 372.934C271.511 373.001 271.467 373.08 271.444 373.167C271.415 373.466 271.489 373.777 271.519 374.082L271.484 374.089Z" fill="black"/>
<path d="M272.42 302.356C272.42 302.356 273.963 304.643 271.305 307.997C268.646 311.351 262.364 321.808 262.364 321.808L283.325 301.731L272.42 302.356Z" fill="#FCC1C0"/>
<path d="M280.794 216.493C280.794 216.493 277.386 219.69 278.545 224.083C279.704 228.476 281.532 228.966 280.267 232.023C279.003 235.08 279.916 234.588 282.411 234.623C284.906 234.658 285.502 235.259 286.837 238.769C288.173 242.28 293.939 242.317 298.256 234.342C302.572 226.366 295.375 216.493 295.375 216.493H280.794Z" fill="#FFE7E5"/>
<path d="M278.717 220.633C278.717 220.633 281.408 216.686 282.831 223.801C284.255 230.916 288.944 219.638 290.737 226.331C292.529 233.024 297.483 223.274 297.166 229.388C296.849 235.502 292.316 236.098 301.908 235.993C301.908 235.993 299.524 234.359 301.177 232.25C302.829 230.142 306.335 231.655 308.021 229.706C309.708 227.758 314.558 225.438 310.131 224.278C305.703 223.118 305.177 219.324 305.809 215.056C306.441 210.788 298.332 211.419 296.009 213.843C293.687 216.268 291.422 213.631 290.789 212.632C290.156 211.632 276.872 207.346 278.717 220.633Z" fill="#FCC1C0"/>
<path d="M279.296 218.525C279.296 218.525 281.986 214.579 283.409 221.694C284.831 228.809 289.523 217.53 291.314 224.223C293.106 230.916 298.06 221.166 297.744 227.28C297.428 233.394 290.945 237.821 300.537 237.715C302.114 237.411 303.529 236.551 304.524 235.29C306.177 233.182 310.761 235.554 312.448 233.604C314.134 231.654 315.136 223.327 310.709 222.168C306.283 221.008 305.755 217.213 306.388 212.946C307.02 208.678 298.909 209.31 296.588 211.734C294.266 214.158 291.999 211.522 291.367 210.521C290.736 209.521 277.448 205.238 279.296 218.525Z" fill="#FEC435"/>
<path d="M296.461 247.363C296.461 247.363 298.89 249.939 304.193 244.907C304.193 244.907 304.332 243.249 305.597 245.567C306.861 247.885 305.439 269.863 302.908 277.136C302.908 277.136 300.484 277.611 298.376 277.4C296.268 277.189 285.675 276.714 285.675 276.714C285.675 276.714 280.3 269.231 283.04 264.066C283.04 264.066 284.147 262.538 287.309 259.798C290.471 257.057 296.232 247.178 296.461 247.363Z" fill="#FF473D"/>
<path d="M255.919 247.569L254.511 248.225C254.233 248.355 254.113 248.685 254.243 248.963L259.507 260.251C259.636 260.529 259.967 260.649 260.245 260.52L261.652 259.863C261.93 259.734 262.05 259.403 261.921 259.125L256.657 247.837C256.527 247.559 256.197 247.439 255.919 247.569Z" fill="#062051"/>
<path d="M303.183 258.279C303.183 258.279 297.218 283.785 285.464 287.206C285.464 287.206 282.794 287.535 282.443 285.674C282.092 283.813 303.183 258.279 303.183 258.279Z" fill="#D82723"/>
<path d="M300.046 252.577C300.046 252.577 296.603 251.804 290.77 262.415C284.936 273.025 283.462 277.454 283.462 277.454C283.462 277.454 273.624 268.247 268.776 264.31C263.927 260.373 267.3 259.742 266.597 255.737C266.597 255.737 265.727 252.311 264.594 255.386C263.847 257.413 265.192 257.423 260.097 257.142C260.097 257.142 258.059 256.791 257.286 255.667C256.514 254.542 256.584 257.634 257.638 259.25C258.693 260.867 259.325 263.572 263.54 266.207C267.756 268.842 276.472 288.307 285.078 286.269C285.078 286.269 291.05 283.353 296.111 273.443C301.171 263.533 307.142 255.388 300.046 252.577Z" fill="#FFE7E5"/>
<path d="M283.462 277.454C283.462 277.454 285.096 278.533 285.149 279.666C285.202 280.799 285.921 271.78 285.921 271.78L283.462 277.454Z" fill="#FCC1C0"/>
<path d="M296.751 306.573C296.751 306.573 279.791 324.262 273.651 327.806C273.651 327.806 284.41 345.306 282.321 367.899L280.613 378.722L276.91 377.109C276.91 377.109 276.435 364.292 261.247 332.68C261.247 332.68 258.398 328.028 261.247 323.471C264.095 318.914 278.366 301.062 278.366 301.062L296.751 306.573Z" fill="#FFE7E5"/>
<path d="M279.934 307.487C279.934 307.487 284.716 311.169 287.626 312.025C290.535 312.88 272.605 324.199 273.079 327.73C273.553 331.261 280.171 344.022 280.171 344.022C280.171 344.022 277.648 333.628 273.651 327.804C273.651 327.804 284.251 320.824 294.003 309.283L279.934 307.487Z" fill="#FCC1C0"/>
<path d="M282.64 288.517C282.64 288.517 286.097 291.787 292.368 291.05C298.639 290.312 301.166 289.297 301.166 289.297C301.166 289.297 303.434 300.534 297.164 308.336C297.164 308.336 289.532 315.483 275.618 304.52L274.68 305.707C274.68 305.707 268.177 303.905 268.019 300.536C268.02 300.536 276.751 292.262 282.64 288.517Z" fill="#062051"/>
<path d="M281.476 297.589L274.677 305.652L272.647 304.942C272.647 304.942 280.843 295.06 281.476 297.589Z" fill="#091742"/>
<path d="M279.535 376.305C279.235 376.267 278.995 376.208 278.76 376.489C278.482 376.82 277.912 376.624 277.831 376.171C277.73 375.575 277.666 374.973 277.641 374.369C277.621 373.929 277.992 373.683 278.409 373.803C278.827 373.922 279.257 373.546 279.233 373.107C279.181 372.021 279.083 370.932 279.103 369.848C279.117 369.122 279.115 368.416 278.911 367.716C278.56 366.524 277.928 366.064 276.762 366.216C275.573 366.371 274.39 366.577 273.204 366.746C272.965 366.78 272.893 366.888 272.895 367.136C272.932 371.376 272.765 375.595 272.447 379.811C272.323 381.453 272.088 383.065 271.51 384.602C270.787 386.517 269.668 388.05 267.862 388.948C266.802 389.478 265.759 390.025 264.697 390.538C263.96 390.895 263.637 391.413 263.669 392.289C263.683 392.642 263.699 392.994 263.716 393.4C264.407 393.414 265.076 393.437 265.744 393.437C268.731 393.429 271.707 393.089 274.619 392.426C275.372 392.256 276.016 391.896 276.366 391.143C277.488 388.716 278.887 386.467 280.306 384.234C280.668 383.663 280.742 383.166 280.602 382.479C280.205 380.542 279.918 378.583 279.588 376.633C279.57 376.543 279.555 376.438 279.535 376.305Z" fill="black"/>
<path d="M287.896 391.62C287.453 387.776 286.972 383.957 286.974 380.048C286.831 380.092 286.698 380.126 286.57 380.173C285.415 380.602 284.338 381.218 283.383 381.998C283.303 382.051 283.241 382.128 283.206 382.218C283.171 382.308 283.165 382.406 283.187 382.5C283.656 385.497 284.118 388.495 284.574 391.493C284.609 391.725 284.702 391.867 284.912 391.917C285.065 391.955 285.23 392.018 285.374 391.998C286.2 391.888 287.027 391.753 287.896 391.62Z" fill="black"/>
<path d="M279.669 376.32C279.919 378.658 280.366 380.947 280.869 383.309C281.547 382.367 282.353 381.527 283.266 380.811C284.258 380.029 285.367 379.408 286.552 378.971C286.825 378.871 286.935 378.759 286.92 378.441C286.885 377.714 286.904 377.71 286.259 377.498C284.161 376.811 282.006 376.499 279.832 376.321C279.778 376.318 279.723 376.318 279.669 376.32V376.32Z" fill="black"/>
<path d="M271.762 394.025C272.922 393.761 274.2 393.515 275.452 393.169C276.255 392.946 276.823 392.392 277.184 391.547C278.641 388.124 280.507 384.975 282.97 382.258C283.813 381.327 284.901 380.762 286.015 380.267C286.352 380.118 286.708 380.011 287.058 379.895C287.33 379.805 287.39 379.615 287.27 379.198C287.195 378.938 287.042 378.91 286.825 378.986C284.281 379.923 282.139 381.449 280.668 383.862C279.374 385.982 278.148 388.153 276.896 390.304C276.802 390.464 276.722 390.633 276.657 390.807C276.256 391.894 275.445 392.392 274.402 392.615C270.914 393.379 267.341 393.683 263.774 393.522C263.517 393.509 263.35 393.559 263.35 393.864C263.35 394.33 263.472 394.521 263.793 394.515C264.936 394.492 266.081 394.493 267.221 394.42C268.7 394.327 270.172 394.167 271.762 394.025Z" fill="black"/>
<path d="M283.868 370.576C283.562 369.788 283.278 369.053 282.993 368.319L279.177 369.679C279.227 370.844 279.28 372.09 279.338 373.416C279.736 373.169 280.226 373.045 280.38 372.733C280.67 372.142 281.22 372.013 281.652 371.688C281.82 371.562 282.064 371.543 282.274 371.476C282.35 371.468 282.425 371.451 282.497 371.425C282.962 371.148 283.418 370.858 283.868 370.576Z" fill="black"/>
<path d="M279.14 376.088C280.488 376.264 281.819 376.384 283.131 376.625C284.444 376.867 285.72 377.227 287.053 377.546C287.072 376.877 286.918 376.215 286.607 375.623C286.566 375.545 286.441 375.508 286.347 375.473C285.053 374.998 283.712 374.664 282.346 374.477C282.24 374.461 282.134 374.518 282.028 374.538C281.891 374.564 281.755 374.586 281.619 374.609C281.554 374.609 281.489 374.621 281.429 374.644C280.669 375.12 279.908 375.602 279.14 376.088Z" fill="black"/>
<path d="M263.876 394.638C263.859 394.688 263.852 394.698 263.853 394.709C263.919 395.486 263.92 395.499 264.771 395.49C267.511 395.464 270.244 395.331 272.944 394.847C273.592 394.73 274.225 394.522 274.871 394.38C275.189 394.309 275.307 394.152 275.2 393.815C275.171 393.685 275.15 393.552 275.137 393.419C271.42 394.332 267.666 394.628 263.876 394.638Z" fill="black"/>
<path d="M278.722 376.212L281.484 374.466C281.166 373.906 280.858 373.372 280.537 372.812C279.887 373.219 279.258 373.61 278.635 374.01C278.605 374.034 278.581 374.063 278.564 374.097C278.547 374.131 278.537 374.168 278.536 374.205C278.589 374.86 278.655 375.514 278.722 376.212Z" fill="black"/>
<path d="M282.448 374.305L286.397 375.28L284.94 372.394C284.392 372.885 283.712 373.022 283.304 373.641C283.109 373.939 282.727 374.098 282.448 374.305Z" fill="black"/>
<path d="M280.711 372.706L281.657 374.354C282.177 374.024 282.699 373.718 283.183 373.364C283.271 373.299 283.263 372.983 283.2 372.826C283.069 372.526 282.908 372.239 282.719 371.971C282.551 371.715 282.345 371.641 282.065 371.84C281.635 372.144 281.18 372.409 280.711 372.706Z" fill="black"/>
<path d="M282.654 371.482L283.6 373.129C283.945 372.91 284.356 372.659 284.756 372.387C284.828 372.315 284.878 372.225 284.901 372.126C285.014 371.784 285.118 371.437 285.242 371.041C284.81 370.921 284.394 370.799 283.97 370.692C283.917 370.678 283.844 370.725 283.789 370.76C283.391 371.014 282.993 371.268 282.654 371.482Z" fill="black"/>
<path d="M277.891 375.311C277.916 375.558 277.957 375.803 278.013 376.045C278.053 376.185 278.141 376.306 278.261 376.389C278.473 376.514 278.624 376.389 278.601 376.134C278.545 375.533 278.484 374.932 278.418 374.332C278.402 374.183 278.435 373.927 278.194 374.005C278.111 374.038 278.036 374.089 277.977 374.156C277.918 374.223 277.875 374.302 277.852 374.389C277.822 374.688 277.895 374.999 277.927 375.306L277.891 375.311Z" fill="black"/>
<path d="M450.404 344.459C449.092 343.548 447.395 342.631 445.308 341.847C443.221 341.062 440.75 340.422 437.917 339.89C433.159 338.997 426.246 338.523 426.257 337.496C426.262 337.019 427.918 336.48 430.303 336.082C432.688 335.685 435.834 335.498 438.645 335.839C441.868 336.229 444.742 337.31 446.924 338.73C449.105 340.151 450.593 341.883 451.455 343.37L450.404 344.459Z" fill="#FFDCDC"/>
<path d="M450.882 343.837C448.247 340.981 444.459 339.192 440.524 338.296C436.559 337.392 432.414 337.334 428.349 337.407" fill="#FFDCDC"/>
<path d="M435.174 337.531C434.807 337.936 434.45 338.344 434.102 338.758Z" fill="#FFDCDC"/>
<path d="M438.301 337.877C438.07 337.453 437.828 337.029 437.577 336.605Z" fill="#FFDCDC"/>
<path d="M440.524 338.296C439.976 338.637 439.451 338.986 438.934 339.356Z" fill="#FFDCDC"/>
<path d="M442.942 338.97C442.686 338.389 442.405 337.804 442.1 337.232Z" fill="#FFDCDC"/>
<path d="M446.634 340.566C446.154 340.672 445.694 340.771 445.234 340.908Z" fill="#FFDCDC"/>
<path d="M453.093 344.971C451.903 344.156 450.712 343.085 449.595 341.874C448.478 340.664 447.418 339.319 446.36 338.014C445.311 336.692 444.173 335.444 442.953 334.278C441.571 332.988 440.107 331.79 438.569 330.69C435.821 328.705 432.215 326.662 429.258 325.096C426.3 323.529 424.087 322.289 424.289 321.598C424.48 320.95 427.045 320.856 430.543 321.503C432.488 321.864 434.399 322.388 436.255 323.071C438.259 323.807 440.182 324.746 441.995 325.875C443.939 327.096 445.705 328.58 447.241 330.287C448.58 331.801 449.713 333.486 450.61 335.298C451.416 336.918 452.037 338.401 452.646 339.744C453.192 340.987 453.823 342.191 454.535 343.348L453.093 344.971Z" fill="#FFE6E6"/>
<path d="M453.733 344.036C451.537 341.81 450.107 339.193 448.55 336.769C448.158 336.16 447.755 335.567 447.339 334.98C446.923 334.394 446.45 333.857 446.001 333.291C445.041 332.206 444.003 331.193 442.895 330.259C440.648 328.399 438.133 326.847 435.483 325.56C432.833 324.273 430.048 323.248 427.226 322.38" fill="#FFE6E6"/>
<path d="M434.506 325.108C434.166 324.427 433.802 323.765 433.423 323.099Z" fill="#FFE6E6"/>
<path d="M436.388 326.017C435.673 326.352 434.984 326.679 434.295 327.051Z" fill="#FFE6E6"/>
<path d="M440.295 328.309C440.257 327.609 440.197 326.906 440.112 326.212Z" fill="#FFE6E6"/>
<path d="M442.896 330.259C441.988 330.316 441.064 330.471 440.199 330.61Z" fill="#FFE6E6"/>
<path d="M445.499 332.741C445.593 331.817 445.634 330.888 445.622 329.959Z" fill="#FFE6E6"/>
<path d="M448.944 337.387C448.272 337.17 447.603 336.958 446.938 336.78Z" fill="#FFE6E6"/>
<path d="M451.721 343.079C451.135 339.534 450.383 334.464 449.919 328.316C449.725 325.729 449.523 322.698 449.429 320.284C449.336 317.87 449.378 316.057 449.875 315.949C450.354 315.843 451.253 317.433 452.115 319.778C453.059 322.436 453.738 325.18 454.141 327.971C454.857 333.006 454.563 338.132 453.276 343.052L451.721 343.079Z" fill="#FFE6E6"/>
<path d="M452.522 342.97C452.867 334.609 452.154 326.237 450.402 318.054Z" fill="#FFE6E6"/>
<path d="M451.626 324.97C451.142 324.687 450.655 324.412 450.163 324.146Z" fill="#FFE6E6"/>
<path d="M452.25 330.493C451.746 330.062 451.247 329.637 450.733 329.221Z" fill="#FFE6E6"/>
<path d="M453.549 344.14C453.823 338.919 454.772 333.757 456.372 328.78C458.047 323.586 461.05 316.972 462.031 317.305C462.993 317.632 461.877 324.685 460.521 330.1C459.271 335.073 457.457 339.888 455.115 344.45L453.549 344.14Z" fill="#FFE6E6"/>
<path d="M454.379 344.203C456.553 335.886 458.902 327.627 461.424 319.428Z" fill="#FFE6E6"/>
<path d="M450.227 346.777C451.217 344.85 453.048 342.855 455.327 341.187C457.875 339.317 460.712 337.879 463.726 336.928C465.171 336.483 466.647 336.145 468.142 335.917C469.547 335.716 470.963 335.603 472.382 335.578C473.417 335.556 474.451 335.478 475.478 335.343C476.275 335.231 476.822 335.131 476.972 335.36C477.108 335.566 476.822 336.122 476.085 336.738C475.349 337.353 474.177 337.954 472.905 338.391C471.613 338.834 470.303 339.258 469.017 339.696C467.684 340.152 466.334 340.663 465.075 341.156C462.187 342.288 459.573 343.403 457.248 344.451C454.941 345.491 453.02 346.515 451.567 347.712L450.227 346.777Z" fill="#FFDCDC"/>
<path d="M450.978 347.172C452.443 345.344 454.3 344.009 456.189 342.873C458.075 341.74 460.044 340.751 462.078 339.913C464.095 339.085 466.17 338.406 468.286 337.882C469.34 337.621 470.397 337.411 471.466 337.222C472.534 337.033 473.647 336.849 474.76 336.48" fill="#FFDCDC"/>
<path d="M469.056 337.699C469.56 337.953 470.05 338.2 470.54 338.471Z" fill="#FFDCDC"/>
<path d="M467.566 338.068C467.792 337.526 468.031 336.99 468.284 336.454Z" fill="#FFDCDC"/>
<path d="M464.351 339.048C464.786 339.338 465.214 339.635 465.634 339.932Z" fill="#FFDCDC"/>
<path d="M462.078 339.913C462.349 339.272 462.642 338.641 462.949 338.005Z" fill="#FFDCDC"/>
<path d="M459.595 341.028C460.231 341.278 460.867 341.558 461.483 341.832Z" fill="#FFDCDC"/>
<path d="M455.71 343.166C455.885 342.66 456.07 342.15 456.269 341.648Z" fill="#FFDCDC"/>
<path d="M440.919 341.687H462.584C462.792 341.687 462.991 341.769 463.138 341.917C463.285 342.064 463.368 342.263 463.368 342.471V368.714C463.368 369.248 463.156 369.76 462.778 370.138C462.401 370.515 461.888 370.728 461.354 370.728H441.895C441.439 370.728 441.002 370.547 440.68 370.225C440.358 369.903 440.177 369.466 440.177 369.01V342.429C440.177 342.232 440.256 342.043 440.395 341.904C440.534 341.765 440.723 341.687 440.919 341.687V341.687Z" fill="#FFDCDC"/>
<path d="M443.949 363.091V344.987C443.949 344.111 444.297 343.272 444.915 342.653C445.534 342.034 446.374 341.687 447.249 341.687H443.477C442.602 341.687 441.763 342.034 441.144 342.653C440.525 343.272 440.177 344.111 440.177 344.987V363.091C440.177 365.117 440.982 367.059 442.414 368.492C443.847 369.924 445.789 370.729 447.815 370.729H451.586C450.583 370.729 449.59 370.531 448.664 370.147C447.737 369.763 446.895 369.201 446.186 368.492C445.477 367.783 444.914 366.941 444.53 366.014C444.147 365.087 443.949 364.094 443.949 363.091V363.091Z" fill="#F7C1C1"/>
<path d="M465.369 340.606H437.697C437.522 340.606 437.379 340.748 437.379 340.924V345.586C437.379 345.761 437.522 345.904 437.697 345.904H465.369C465.544 345.904 465.687 345.761 465.687 345.586V340.924C465.687 340.748 465.544 340.606 465.369 340.606Z" fill="#FFE6E6"/>
</svg>
