<svg width="650" height="688" viewBox="0 0 650 688" fill="none" xmlns="http://www.w3.org/2000/svg">
<path d="M516.125 458.8C547.812 458.8 573.5 484.454 573.5 516.1C573.5 547.746 547.812 573.4 516.125 573.4C484.438 573.4 458.75 547.746 458.75 516.1C458.75 484.454 484.438 458.8 516.125 458.8Z" fill="#FF8B61"/>
<path d="M516.41 482.177C535.013 482.177 550.093 497.237 550.093 515.815C550.093 534.394 535.013 549.454 516.41 549.454C497.808 549.454 482.728 534.394 482.728 515.815C482.728 497.237 497.808 482.177 516.41 482.177Z" fill="#2D374C"/>
<path d="M516.41 498.14C526.184 498.14 534.108 506.053 534.108 515.815C534.108 525.576 526.184 533.489 516.41 533.489C506.636 533.489 498.712 525.576 498.712 515.815C498.712 506.053 506.636 498.14 516.41 498.14Z" fill="#F1E3CF"/>
<path d="M402.221 315.902C402.221 331.453 414.844 344.06 430.415 344.06C445.986 344.06 458.609 331.453 458.609 315.902C458.609 300.352 445.986 287.745 430.415 287.745C414.844 287.745 402.221 300.352 402.221 315.902Z" fill="#D33367"/>
<path d="M344.141 315.902C344.141 331.453 356.764 344.06 372.335 344.06C387.906 344.06 400.529 331.453 400.529 315.902C400.529 300.352 387.906 287.745 372.335 287.745C356.764 287.745 344.141 300.352 344.141 315.902Z" fill="#FF8B61"/>
<path d="M402.221 259.025C402.221 274.576 414.844 287.182 430.415 287.182C445.986 287.182 458.609 274.576 458.609 259.025C458.609 243.474 445.986 230.868 430.415 230.868C414.844 230.868 402.221 243.474 402.221 259.025Z" fill="#FF8B61"/>
<path d="M344 229.6V258.32C344 274.182 356.939 287.041 372.899 287.041C388.859 287.041 401.798 274.182 401.798 258.32C401.798 242.459 388.859 229.6 372.899 229.6H344Z" fill="#36868E"/>
<rect width="58.6437" height="58.567" transform="matrix(-1 0 0 1 545.587 257.757)" fill="#F1E3CF"/>
<path d="M515.836 261.941L490.557 287.188L515.836 312.435L541.116 287.188L515.836 261.941Z" fill="#36868E"/>
<path d="M562.504 240.582H527.825C527.825 259.709 543.351 275.215 562.504 275.215L562.504 240.582Z" fill="#D33367"/>
<path d="M562.504 333.219V298.585C543.351 298.585 527.825 314.091 527.825 333.219H562.504Z" fill="#D33367"/>
<path d="M470.591 333.219H505.27C505.27 314.091 489.744 298.585 470.591 298.585V333.219Z" fill="#D33367"/>
<path d="M470.591 240.582V275.215C489.744 275.215 505.27 259.709 505.27 240.582L470.591 240.582Z" fill="#D33367"/>
<path d="M631.265 589.961L590.564 630.639L631.265 671.317L671.966 630.639L631.265 589.961Z" fill="#2D374C"/>
<path d="M645.757 616.156H616.773V645.123H645.757V616.156Z" fill="#36868E"/>
<path d="M458.75 172.588V229.6H515.837C547.683 229.6 573.5 203.817 573.5 172.012V115H516.413C484.567 115 458.75 140.783 458.75 172.588Z" fill="#36868E"/>
<path d="M483.545 172.3C483.545 190.906 498.648 205.989 517.278 205.989C535.909 205.989 551.012 190.906 551.012 172.3V138.611L517.278 138.611C498.648 138.611 483.545 153.694 483.545 172.3Z" fill="#2D374C"/>
<path d="M458.75 206.968V229.888H481.7C500.712 229.888 516.125 214.495 516.125 195.508V172.588H493.175C474.163 172.588 458.75 187.98 458.75 206.968Z" fill="#FF8B61"/>
<path d="M688.25 172.588V229.6H631.163C599.317 229.6 573.5 203.817 573.5 172.012V115H630.587C662.433 115 688.25 140.783 688.25 172.588Z" fill="#D33367"/>
<path d="M663.455 172.3C663.455 190.906 648.352 205.989 629.722 205.989C611.092 205.989 595.989 190.906 595.989 172.3V138.611L629.722 138.611C648.352 138.611 663.455 153.694 663.455 172.3Z" fill="#2D374C"/>
<path d="M688.25 206.968V229.888H665.3C646.287 229.888 630.875 214.495 630.875 195.508V172.588H653.825C672.837 172.588 688.25 187.98 688.25 206.968Z" fill="#FF8B61"/>
<path d="M630.875 458.8C599.188 458.8 573.5 484.454 573.5 516.1C573.5 547.746 599.188 573.4 630.875 573.4H688.25V516.1C688.25 484.454 662.562 458.8 630.875 458.8Z" fill="#F1E3CF"/>
<path d="M688.25 539.18C688.25 520.231 672.866 504.87 653.918 504.87V504.87C634.994 504.87 619.63 520.211 619.63 539.135V539.135C619.63 558.059 634.971 573.4 653.895 573.4H688.25V539.18Z" fill="#D33367"/>
<path d="M630.875 480.539C611.528 480.539 595.844 496.202 595.844 515.524C595.844 534.845 611.528 550.508 630.875 550.508C650.222 550.508 665.905 534.845 665.905 515.524C665.905 496.202 650.222 480.539 630.875 480.539Z" fill="#36868E"/>
<path d="M630.875 495.044C619.549 495.044 610.368 504.214 610.368 515.524C610.368 526.835 619.549 536.004 630.875 536.004C642.2 536.004 651.381 526.835 651.381 515.524C651.381 504.214 642.2 495.044 630.875 495.044Z" fill="#2D374C"/>
<path d="M401.392 449.379C428.019 449.379 449.604 427.822 449.604 401.23C449.604 374.639 428.019 353.082 401.392 353.082C374.765 353.082 353.18 374.639 353.18 401.23C353.18 427.822 374.765 449.379 401.392 449.379Z" fill="#F1E3CF"/>
<path d="M399.704 458.8C368.939 458.8 344 433.894 344 403.169V401.5H345.671C376.436 401.5 401.375 426.407 401.375 457.132V458.8H399.704Z" fill="#D33367"/>
<path d="M457.079 401.5H458.75V403.169C458.75 433.894 433.811 458.8 403.046 458.8H401.375V457.132C401.375 426.407 426.314 401.5 457.079 401.5Z" fill="#36868E"/>
<path d="M403.046 401.5H401.375V399.831C401.375 369.107 426.314 344.2 457.079 344.2H458.75V345.869C458.75 376.593 433.811 401.5 403.046 401.5Z" fill="#D33367"/>
<path d="M345.671 344.2C376.436 344.2 401.375 369.107 401.375 399.831V401.5H399.704C368.939 401.5 344 376.593 344 345.869V344.2H345.671Z" fill="#36868E"/>
<path d="M688.25 458.8H573.5V344.2C636.875 344.2 688.25 395.508 688.25 458.8Z" fill="#D33367"/>
<path d="M638.628 458.801H573.5V393.597C609.469 393.597 638.628 422.79 638.628 458.801Z" fill="#F1E3CF"/>
<path d="M603.386 458.8H573.5V428.88C590.005 428.88 603.386 442.276 603.386 458.8Z" fill="#2D374C"/>
<path d="M573.5 344.2V458.8H458.75C458.75 395.508 510.125 344.2 573.5 344.2Z" fill="#36868E"/>
<path d="M573.5 393.597V458.801H508.372C508.372 422.79 537.531 393.597 573.5 393.597Z" fill="#F1E3CF"/>
<path d="M573.5 428.88V458.8H543.614C543.614 442.276 556.995 428.88 573.5 428.88Z" fill="#2D374C"/>
<path d="M-57.3379 115C-25.6506 115 0.0370965 140.654 0.0370965 172.3C0.0370965 203.946 -25.6506 229.6 -57.3379 229.6C-89.0252 229.6 -114.713 203.946 -114.713 172.3C-114.713 140.654 -89.0252 115 -57.3379 115Z" fill="#36868E"/>
<path d="M0.0368977 160.051L0.0368977 229.6H-69.6025C-69.6025 191.189 -38.4239 160.051 0.0368977 160.051Z" fill="#D33367"/>
<path d="M516.125 573.4C547.812 573.4 573.5 599.054 573.5 630.7C573.5 662.346 547.812 688 516.125 688C484.438 688 458.75 662.346 458.75 630.7C458.75 599.054 484.438 573.4 516.125 573.4Z" fill="#36868E"/>
<path d="M516.407 596.489C535.481 596.489 550.945 611.932 550.945 630.981C550.945 650.031 535.481 665.474 516.407 665.474C497.332 665.474 481.869 650.031 481.869 630.981C481.869 611.932 497.332 596.489 516.407 596.489Z" fill="#F1E3CF"/>
<path d="M516.971 613.102C527.17 613.102 535.438 621.359 535.438 631.545C535.438 641.73 527.17 649.987 516.971 649.987C506.771 649.987 498.503 641.73 498.503 631.545C498.503 621.359 506.771 613.102 516.971 613.102Z" fill="#2D374C"/>
<path d="M573.5 618.451V688H503.861C503.861 649.589 535.039 618.451 573.5 618.451Z" fill="#D33367"/>
<path d="M172.721 487.098C172.721 471.547 185.344 458.94 200.915 458.94C216.486 458.94 229.109 471.547 229.109 487.098C229.109 502.648 216.486 515.255 200.915 515.255C185.344 515.255 172.721 502.648 172.721 487.098Z" fill="#D33367"/>
<path d="M114.641 487.098C114.641 471.547 127.264 458.94 142.835 458.94C158.406 458.94 171.029 471.547 171.029 487.098C171.029 502.648 158.406 515.255 142.835 515.255C127.264 515.255 114.641 502.648 114.641 487.098Z" fill="#FF8B61"/>
<path d="M172.721 543.975C172.721 528.424 185.344 515.818 200.915 515.818C216.486 515.818 229.109 528.424 229.109 543.975C229.109 559.526 216.486 572.132 200.915 572.132C185.344 572.132 172.721 559.526 172.721 543.975Z" fill="#FF8B61"/>
<path d="M114.5 573.4V544.68C114.5 528.818 127.439 515.959 143.399 515.959C159.359 515.959 172.298 528.818 172.298 544.68C172.298 560.541 159.359 573.4 143.399 573.4H114.5Z" fill="#36868E"/>
<rect x="316.087" y="545.243" width="58.6436" height="58.5671" transform="rotate(-180 316.087 545.243)" fill="#F1E3CF"/>
<path d="M286.336 541.059L261.056 515.812L286.336 490.565L311.616 515.812L286.336 541.059Z" fill="#36868E"/>
<path d="M333.004 562.418H298.325C298.325 543.291 313.851 527.785 333.004 527.785L333.004 562.418Z" fill="#D33367"/>
<path d="M333.004 469.781V504.415C313.851 504.415 298.325 488.909 298.325 469.781H333.004Z" fill="#D33367"/>
<path d="M241.091 469.781H275.77C275.77 488.909 260.244 504.415 241.091 504.415V469.781Z" fill="#D33367"/>
<path d="M241.091 562.418V527.785C260.244 527.785 275.77 543.291 275.77 562.418H241.091Z" fill="#D33367"/>
<path d="M171.875 573.4C203.562 573.4 229.25 599.054 229.25 630.7C229.25 662.346 203.562 688 171.875 688H114.5L114.5 630.7C114.5 599.054 140.188 573.4 171.875 573.4Z" fill="#F1E3CF"/>
<path d="M148.81 619.47C167.758 619.47 183.119 634.811 183.119 653.735C183.119 672.659 167.758 688 148.81 688H114.5L114.5 653.735C114.5 634.811 129.861 619.47 148.81 619.47Z" fill="#2D374C"/>
<path d="M171.875 595.139C191.222 595.139 206.906 610.802 206.906 630.124C206.906 649.445 191.222 665.108 171.875 665.108C152.528 665.108 136.845 649.445 136.845 630.124C136.845 610.802 152.528 595.139 171.875 595.139Z" fill="#36868E"/>
<path d="M171.875 609.645C183.201 609.645 192.382 618.814 192.382 630.125C192.382 641.435 183.201 650.604 171.875 650.604C160.55 650.604 151.369 641.435 151.369 630.125C151.369 618.814 160.55 609.645 171.875 609.645Z" fill="#2D374C"/>
<path d="M229.25 630.412V573.4H286.337C318.183 573.4 344 599.183 344 630.988V688H286.913C255.067 688 229.25 662.217 229.25 630.412Z" fill="#36868E"/>
<path d="M254.045 630.7C254.045 612.094 269.148 597.011 287.778 597.011C306.409 597.011 321.512 612.094 321.512 630.7V664.389H287.778C269.148 664.389 254.045 649.306 254.045 630.7Z" fill="#2D374C"/>
<path d="M229.25 596.032V573.112H252.2C271.212 573.112 286.625 588.505 286.625 607.492V630.412H263.675C244.663 630.412 229.25 615.02 229.25 596.032Z" fill="#FF8B61"/>
<path d="M286.625 458.8C254.938 458.8 229.25 433.146 229.25 401.5C229.25 369.854 254.938 344.2 286.625 344.2H344V401.5C344 433.146 318.312 458.8 286.625 458.8Z" fill="#F1E3CF"/>
<path d="M344 378.42C344 397.368 328.617 412.729 309.668 412.729V412.729C290.744 412.729 275.381 397.389 275.381 378.465V378.465C275.381 359.541 290.722 344.2 309.645 344.2H344V378.42Z" fill="#D33367"/>
<path d="M286.625 437.061C267.278 437.061 251.594 421.397 251.594 402.076C251.594 382.754 267.278 367.091 286.625 367.091C305.972 367.091 321.655 382.754 321.655 402.076C321.655 421.397 305.972 437.061 286.625 437.061Z" fill="#36868E"/>
<path d="M286.625 422.555C275.299 422.555 266.118 413.386 266.118 402.075C266.118 390.765 275.299 381.596 286.625 381.596C297.95 381.596 307.131 390.765 307.131 402.075C307.131 413.386 297.95 422.555 286.625 422.555Z" fill="#2D374C"/>
<path d="M631.016 334.886C657.643 334.886 679.228 313.339 679.228 286.76C679.228 260.18 657.643 238.633 631.016 238.633C604.389 238.633 582.804 260.18 582.804 286.76C582.804 313.339 604.389 334.886 631.016 334.886Z" fill="#F1E3CF"/>
<path d="M688.25 229.6C688.25 261.09 662.752 286.618 631.298 286.618C631.298 255.128 656.797 229.6 688.25 229.6Z" fill="#D33367"/>
<path d="M630.452 284.957V286.618H628.793C598.256 286.618 573.5 261.834 573.5 231.261V229.6H575.159C605.696 229.6 630.452 254.384 630.452 284.957Z" fill="#36868E"/>
<path d="M628.793 287.182H630.452V288.843C630.452 319.416 605.696 344.2 575.159 344.2H573.5V342.539C573.5 311.966 598.256 287.182 628.793 287.182Z" fill="#D33367"/>
<path d="M688.25 342.539V344.2H686.591C656.053 344.2 631.298 319.416 631.298 288.843V287.182H632.957C663.494 287.182 688.25 311.966 688.25 342.539Z" fill="#36868E"/>
<path d="M86.0994 688H28.1506L57.125 659.063L86.0994 688Z" fill="#36868E"/>
<path d="M-0.25 688L-0.25 573.4H114.5L-0.25 688Z" fill="#F1E3CF"/>
<path d="M114.5 688L-0.25 573.4H114.5V688Z" fill="#D33367"/>
<path d="M430.636 573.4H372.687L401.661 544.463L430.636 573.4Z" fill="#FF8B61"/>
<path d="M344.287 573.4V458.8H459.037L344.287 573.4Z" fill="#36868E"/>
<path d="M459.037 573.4L344.287 458.8H459.037V573.4Z" fill="#F1E3CF"/>
<path d="M372.688 573.4H430.636L401.662 602.336L372.688 573.4Z" fill="#FF8B61"/>
<path d="M459.037 573.4V688H344.287L459.037 573.4Z" fill="#36868E"/>
<path d="M344.287 573.4L459.037 688H344.287V573.4Z" fill="#F1E3CF"/>
<path d="M631.375 0L688.75 0V57.3C688.75 88.9459 663.062 114.6 631.375 114.6L574 114.6V57.3C574 25.6541 599.688 0 631.375 0Z" fill="#F1E3CF"/>
<path d="M631.375 24.7627C650.005 24.7627 665.108 39.8457 665.108 58.4516C665.108 77.0575 650.005 92.1406 631.375 92.1406L597.642 92.1406V58.4516C597.642 39.8457 612.745 24.7627 631.375 24.7627Z" fill="#36868E"/>
<path d="M666.089 0L689.039 0V22.92C689.039 41.9075 673.626 57.2999 654.614 57.2999L631.664 57.2999V34.38C631.664 15.3924 647.076 0 666.089 0Z" fill="#D33367"/>
</svg>
