<svg id="Layer_1" data-name="Layer 1" xmlns="http://www.w3.org/2000/svg" xmlns:xlink="http://www.w3.org/1999/xlink" viewBox="0 0 416.56 294.33"><defs><style>.cls-1{fill:#bdbdbd;}.cls-2{opacity:0.02;fill:url(#linear-gradient);}.cls-3{fill:url(#linear-gradient-2);}.cls-4{fill:url(#linear-gradient-3);}.cls-5{fill:#1c2b6b;}.cls-6{fill:#4e9cff;}</style><linearGradient id="linear-gradient" x1="208.28" y1="113.45" x2="208.28" y2="229.23" gradientUnits="userSpaceOnUse"><stop offset="0" stop-color="#e5e5e5"/><stop offset="0.48" stop-color="#f4f4f4"/><stop offset="1" stop-color="#fff"/></linearGradient><linearGradient id="linear-gradient-2" x1="196.08" y1="258.79" x2="214.1" y2="273" gradientUnits="userSpaceOnUse"><stop offset="0" stop-color="#4e9cff"/><stop offset="0.19" stop-color="#4190f5"/><stop offset="0.71" stop-color="#2274dd"/><stop offset="1" stop-color="#176ad4"/></linearGradient><linearGradient id="linear-gradient-3" x1="210.68" y1="193.14" x2="309.84" y2="329.74" xlink:href="#linear-gradient-2"/></defs><path class="cls-1" d="M398.94,285.55a2.89,2.89,0,1,0-5.71.9c.41,2.69.94,11.14-2,14.54a4,4,0,0,1-2.35,1.35l.26-16.09a4.18,4.18,0,1,0-8.36,0l.75,30.52a3.92,3.92,0,0,1-2.45-1.36c-2.91-3.4-2.38-11.85-2-14.54a2.9,2.9,0,0,0-5.72-.9c-.2,1.33-1.88,13.16,3.29,19.2a9.87,9.87,0,0,0,7,3.44l.33,13.28h6.31l.46-27.76a9.77,9.77,0,0,0,6.85-3.42C400.83,298.71,399.15,286.88,398.94,285.55Z" transform="translate(-56.1 -171.73)"/><path class="cls-1" d="M129.28,311.43a1.85,1.85,0,0,0-3.65.57c.27,1.72.6,7.1-1.26,9.27a2.45,2.45,0,0,1-1.49.86l.17-10.26a2.67,2.67,0,1,0-5.34,0l.49,19.46a2.58,2.58,0,0,1-1.57-.87c-1.85-2.17-1.52-7.55-1.25-9.27a1.85,1.85,0,0,0-3.65-.57c-.13.84-1.2,8.38,2.1,12.23a6.2,6.2,0,0,0,4.46,2.19l.21,8.47h4l.3-17.69a6.24,6.24,0,0,0,4.36-2.19C130.48,319.81,129.41,312.28,129.28,311.43Z" transform="translate(-56.1 -171.73)"/><ellipse class="cls-2" cx="208.28" cy="220.6" rx="208.28" ry="73.73"/><path class="cls-3" d="M231.36,285.84h-8.59a13,13,0,0,1-13-13,3.34,3.34,0,0,0-3.33-3.33h-10a4.81,4.81,0,1,1,0-9.62h10a13,13,0,0,1,12.95,12.95,3.34,3.34,0,0,0,3.33,3.33h8.59a4.82,4.82,0,0,1,0,9.63Z" transform="translate(-56.1 -171.73)"/><path class="cls-4" d="M259.65,171.73h0c-25.59,0-47.23,21.48-47.85,47-.59,27.31-.2,54.26,4.32,81.25a259.25,259.25,0,0,0,8.37,31.48,11.89,11.89,0,0,0,10.31,7.42h.76c4.14,0,6-3.25,4.35-7.28h0c-1.11-2.76.3-5,3-4.93h0c2.73,0,5.8,2.29,7,5h0a13,13,0,0,0,10.86,7.19h.76c4.14,0,5.7-3.14,3.8-7.06h0c-1.3-2.68,0-4.84,2.71-4.8h0c2.73,0,5.94,2.24,7.31,4.89h0a14.3,14.3,0,0,0,11.41,7h.76c4.14,0,5.42-3,3.25-6.84h0c-1.49-2.6-.34-4.71,2.4-4.67h0c2.73,0,6.06,2.19,7.62,4.76h0c2.28,3.77,7.82,6.75,12,6.75h.38c4.35,0,5.41-3.06,2.86-6.95a120.21,120.21,0,0,1-12.81-29.25c-6.11-27.64-3.55-55-.42-82.84C305.86,193.65,285.94,171.72,259.65,171.73Z" transform="translate(-56.1 -171.73)"/><path class="cls-5" d="M220.83,228.21c4.51,3.19,11.86-2.46,8.29-15a.73.73,0,0,0-1.37-.11C224.48,220.9,215.46,224.42,220.83,228.21Z" transform="translate(-56.1 -171.73)"/><path class="cls-5" d="M241.21,210.38c-5.4,2.28,4.27,32.47,19.29,23,9.15-5.81.89-11.5-8.39-14.94C246.47,216.29,244.45,209,241.21,210.38Z" transform="translate(-56.1 -171.73)"/><ellipse class="cls-5" cx="182.54" cy="71.59" rx="7.11" ry="10.37"/><path class="cls-6" d="M266.17,285.84h-8.58a13,13,0,0,1-13-13,3.33,3.33,0,0,0-3.33-3.33h-9.94a4.81,4.81,0,1,1,0-9.62h9.94a13,13,0,0,1,13,12.95,3.33,3.33,0,0,0,3.33,3.33h8.58a4.82,4.82,0,0,1,0,9.63Z" transform="translate(-56.1 -171.73)"/></svg>