<svg id="Layer_1" data-name="Layer 1" xmlns="http://www.w3.org/2000/svg" xmlns:xlink="http://www.w3.org/1999/xlink" viewBox="0 0 491.62 405.19"><defs><style>.cls-1{mask:url(#mask);}.cls-2{mix-blend-mode:multiply;fill:url(#linear-gradient);}.cls-3{mask:url(#mask-2);}.cls-4{fill:url(#linear-gradient-2);}.cls-5{fill:url(#linear-gradient-3);}.cls-6{fill:url(#linear-gradient-4);}.cls-7{fill:url(#linear-gradient-5);}.cls-8{fill:url(#linear-gradient-6);}.cls-9{fill:url(#linear-gradient-7);}.cls-10{fill:url(#linear-gradient-8);}.cls-11{fill:#fff;opacity:0.2;}.cls-12{fill:url(#linear-gradient-9);}.cls-13{filter:url(#luminosity-noclip-2);}.cls-14{filter:url(#luminosity-noclip);}</style><filter id="luminosity-noclip" x="4.19" y="-8442" width="395.19" height="32766" filterUnits="userSpaceOnUse" color-interpolation-filters="sRGB"><feFlood flood-color="#fff" result="bg"/><feBlend in="SourceGraphic" in2="bg"/></filter><mask id="mask" x="4.19" y="-8442" width="395.19" height="32766" maskUnits="userSpaceOnUse"><g class="cls-14"/></mask><linearGradient id="linear-gradient" x1="185.41" y1="47.56" x2="312.78" y2="502.41" gradientTransform="translate(62.99 -69.34) rotate(18.63)" gradientUnits="userSpaceOnUse"><stop offset="0" stop-color="#fff"/><stop offset="0.02" stop-color="#f8f8f8"/><stop offset="0.25" stop-color="#a1a1a1"/><stop offset="0.46" stop-color="#5c5c5c"/><stop offset="0.63" stop-color="#2a2a2a"/><stop offset="0.76" stop-color="#0b0b0b"/><stop offset="0.83"/></linearGradient><filter id="luminosity-noclip-2" x="4.19" y="152.51" width="395.19" height="300.09" filterUnits="userSpaceOnUse" color-interpolation-filters="sRGB"><feFlood flood-color="#fff" result="bg"/><feBlend in="SourceGraphic" in2="bg"/></filter><mask id="mask-2" x="0" y="105.1" width="395.19" height="300.09" maskUnits="userSpaceOnUse"><g class="cls-13"><g transform="translate(-4.19 -47.41)"><g class="cls-1"><polygon class="cls-2" points="277.09 152.51 4.19 448.75 399.38 452.6 381.69 187.77 277.09 152.51"/></g></g></g></mask><linearGradient id="linear-gradient-2" x1="185.41" y1="47.56" x2="312.78" y2="502.41" gradientTransform="translate(58.8 -116.74) rotate(18.63)" gradientUnits="userSpaceOnUse"><stop offset="0" stop-color="#4e9cff"/><stop offset="0.83" stop-color="#4e9cff"/></linearGradient><linearGradient id="linear-gradient-3" x1="405.86" y1="173.41" x2="378.63" y2="108.73" gradientTransform="translate(62.99 -69.34) rotate(18.63)" gradientUnits="userSpaceOnUse"><stop offset="0" stop-color="#a50404"/><stop offset="1" stop-color="#e64d4e"/></linearGradient><linearGradient id="linear-gradient-4" x1="419.64" y1="183.24" x2="391.81" y2="154.97" gradientTransform="translate(595.71 -169.67) rotate(94.79)" xlink:href="#linear-gradient-3"/><linearGradient id="linear-gradient-5" x1="256.26" y1="161.8" x2="273.3" y2="128.12" xlink:href="#linear-gradient-3"/><linearGradient id="linear-gradient-6" x1="245.26" y1="179.94" x2="259.8" y2="157.22" gradientTransform="translate(284.89 -129.97) rotate(63.15)" xlink:href="#linear-gradient-3"/><linearGradient id="linear-gradient-7" x1="328.38" y1="119.44" x2="332.37" y2="196.24" xlink:href="#linear-gradient-3"/><linearGradient id="linear-gradient-8" x1="328.94" y1="198.29" x2="328.94" y2="99.65" gradientTransform="translate(448.04 -191.06) rotate(90)" xlink:href="#linear-gradient-3"/><linearGradient id="linear-gradient-9" x1="289.11" y1="23.15" x2="382.99" y2="158.75" gradientTransform="translate(62.99 -69.34) rotate(18.63)" gradientUnits="userSpaceOnUse"><stop offset="0" stop-color="#4e9cff"/><stop offset="0.19" stop-color="#4190f5"/><stop offset="0.71" stop-color="#2274dd"/><stop offset="1" stop-color="#176ad4"/></linearGradient></defs><g class="cls-3"><polygon class="cls-4" points="272.9 105.1 0 401.34 395.19 405.19 377.5 140.37 272.9 105.1"/></g><path class="cls-5" d="M390.33,227.24a6.94,6.94,0,0,0,3.06.33,7.06,7.06,0,0,0,6.21-7.83l-3.87-33.58a7.07,7.07,0,1,0-14,1.61l3.87,33.58A7,7,0,0,0,390.33,227.24Z" transform="translate(-4.19 -47.41)"/><circle class="cls-6" cx="393.38" cy="220.43" r="14.39" transform="translate(81.07 502.26) rotate(-76.16)"/><path class="cls-7" d="M246.32,178.69a6.86,6.86,0,0,1-2.63-1.6,7.06,7.06,0,0,1-.21-10l23.41-24.38a7.07,7.07,0,1,1,10.2,9.79l-23.41,24.38A7.06,7.06,0,0,1,246.32,178.69Z" transform="translate(-4.19 -47.41)"/><circle class="cls-8" cx="248.02" cy="171.42" r="14.39" transform="translate(-53.21 175.68) rotate(-44.52)"/><path class="cls-9" d="M333.73,163.9A861.35,861.35,0,0,1,249.91,131c14.1,22.62,40.72,43.08,74.57,54.49,33.56,11.32,66.87,11.27,91.72,2C391.77,181.94,363.51,173.93,333.73,163.9Z" transform="translate(-4.19 -47.41)"/><ellipse class="cls-10" cx="340.26" cy="137.89" rx="26.73" ry="163.9" transform="translate(96.69 368.86) rotate(-71.37)"/><path class="cls-11" d="M333.65,157.51C253.79,130.59,191.33,98.58,186.9,83A5.22,5.22,0,0,0,185,85.53c-4.72,14,61,48.77,146.76,77.69s159.13,41,163.85,27a5.34,5.34,0,0,0,0-3.19C482.59,196.79,413.51,184.44,333.65,157.51Z" transform="translate(-4.19 -47.41)"/><path class="cls-12" d="M346.16,126.77a486.71,486.71,0,0,0,78.55,18.77A83.33,83.33,0,0,0,268.3,93.21S306.35,113.35,346.16,126.77Z" transform="translate(-4.19 -47.41)"/></svg>