<svg xmlns="http://www.w3.org/2000/svg" viewBox="0 0 701.03 434.19"><defs><style>.cls-1{fill:#e0e0e0;}.cls-2{fill:#fafafa;}.cls-3{fill:#ebebeb;}.cls-4{fill:#f5f5f5;}.cls-5{fill:#263238;}.cls-6{fill:#455a64;}.cls-7{fill:#e8505b;}.cls-8{opacity:0.3;}.cls-13,.cls-9{fill:#fff;}.cls-10{fill:#ffbe9d;}.cls-11{fill:#eb996e;}.cls-12,.cls-13{opacity:0.6;}.cls-14{opacity:0.1;}.cls-15{fill:#b78876;}.cls-16{fill:#aa6550;}.cls-17{opacity:0.4;}</style></defs><g id="Background_Complete" data-name="Background Complete"><rect class="cls-1" x="460.03" y="245.6" width="5.62" height="42.05" transform="translate(196.22 729.46) rotate(-90)"/><path class="cls-2" d="M447.54,264a13,13,0,0,1,0,5.27,13.48,13.48,0,0,1,0-5.27Z"/><path class="cls-2" d="M446.63,263.93a13.43,13.43,0,0,1,0,5.26,12.94,12.94,0,0,1,0-5.26Z"/><path class="cls-2" d="M480.61,264a13.48,13.48,0,0,1,0,5.27,13,13,0,0,1,0-5.27Z"/><ellipse class="cls-2" cx="479.69" cy="266.56" rx="0.26" ry="2.63"/><path class="cls-2" d="M474.2,266.79c0,.14-4.81.26-10.75.26s-10.76-.12-10.76-.26a107.16,107.16,0,0,1,10.76-.27A106.87,106.87,0,0,1,474.2,266.79Z"/><rect class="cls-1" x="457.04" y="273.69" width="11.23" height="42.05" transform="translate(167.94 757.37) rotate(-90)"/><path class="cls-2" d="M484.22,297.17a.86.86,0,0,1-.23.13c-.15.08-.39.19-.7.32a12.1,12.1,0,0,1-2.85.82,7.42,7.42,0,0,1-4.63-.66,6.07,6.07,0,0,1-2.19-2,4.56,4.56,0,0,1-.77-3.23,3.44,3.44,0,0,1,.77-1.68,2.24,2.24,0,0,1,1.78-.8,2.53,2.53,0,0,1,1.78,1A3.49,3.49,0,0,1,478,293a5.08,5.08,0,0,1-1.45,4,6.35,6.35,0,0,1-4,2,10.66,10.66,0,0,1-4.69-.58,8.74,8.74,0,0,1-4.1-2.75,4.51,4.51,0,0,1-.95-2.43,3.15,3.15,0,0,1,.89-2.52,2,2,0,0,1,1.32-.58,2.41,2.41,0,0,1,1.37.39,3.65,3.65,0,0,1,1.55,2.26,5.27,5.27,0,0,1-1.66,4.95,8.27,8.27,0,0,1-4.73,1.93,11.75,11.75,0,0,1-4.91-.48,6.8,6.8,0,0,1-3.73-2.91,5,5,0,0,1-.47-4.46,2.34,2.34,0,0,1,1.72-1.45,2.71,2.71,0,0,1,2.11.51,3.52,3.52,0,0,1,1,3.79,6.54,6.54,0,0,1-2.12,3,9.57,9.57,0,0,1-5.77,2.24,9.22,9.22,0,0,1-4.57-1,9.32,9.32,0,0,1-2.38-1.76,6.92,6.92,0,0,1-.5-.59,1,1,0,0,1-.15-.21,10.85,10.85,0,0,0,3.12,2.38,9.1,9.1,0,0,0,4.47.92,9.28,9.28,0,0,0,5.53-2.22,6.34,6.34,0,0,0,2-2.82,3.1,3.1,0,0,0-.88-3.32,2.27,2.27,0,0,0-1.77-.42,1.88,1.88,0,0,0-1.37,1.2,4.49,4.49,0,0,0,.46,4,6.29,6.29,0,0,0,3.48,2.68,11.11,11.11,0,0,0,4.68.44,7.71,7.71,0,0,0,4.44-1.8,4.79,4.79,0,0,0,1.5-4.44,3.13,3.13,0,0,0-1.32-1.93A1.6,1.6,0,0,0,464,291a2.64,2.64,0,0,0-.73,2.1,3.94,3.94,0,0,0,.85,2.15,8.08,8.08,0,0,0,3.84,2.59,10.19,10.19,0,0,0,4.47.58,5.91,5.91,0,0,0,3.76-1.81,4.66,4.66,0,0,0,1.36-3.62,2.69,2.69,0,0,0-2.18-2.51,1.79,1.79,0,0,0-1.46.65,3,3,0,0,0-.7,1.48,4.29,4.29,0,0,0,.68,3,5.8,5.8,0,0,0,2.05,1.91,7.34,7.34,0,0,0,4.46.72,13.9,13.9,0,0,0,2.84-.71C483.88,297.3,484.21,297.15,484.22,297.17Z"/><rect class="cls-3" x="454.79" y="260.19" width="19.49" height="38.29" transform="translate(185.2 743.87) rotate(-90)"/><path class="cls-1" d="M451.75,270.26a83.84,83.84,0,0,1,.26,9.43,83.84,83.84,0,0,1-.26,9.43,83.84,83.84,0,0,1-.26-9.43A83.84,83.84,0,0,1,451.75,270.26Z"/><path class="cls-1" d="M454.65,270a80.28,80.28,0,0,1,.27,9.31,80.28,80.28,0,0,1-.27,9.31,84.65,84.65,0,0,1-.26-9.31A84.65,84.65,0,0,1,454.65,270Z"/><path class="cls-1" d="M479.35,269.39a90.71,90.71,0,0,1,.26,9.81,90.59,90.59,0,0,1-.26,9.8,90.59,90.59,0,0,1-.26-9.8A90.71,90.71,0,0,1,479.35,269.39Z"/><path class="cls-1" d="M475.94,269.65a89.22,89.22,0,0,1,.26,9.56,89.1,89.1,0,0,1-.26,9.55,84.5,84.5,0,0,1-.27-9.55A84.61,84.61,0,0,1,475.94,269.65Z"/><rect class="cls-1" x="217.41" y="47.68" width="258.14" height="171.23"/><path class="cls-4" d="M11.24,60.19a43.74,43.74,0,1,1,44.43,43.23A43.89,43.89,0,0,1,11.24,60.19Zm64.64-1A20.91,20.91,0,1,0,55.31,80.49,21,21,0,0,0,75.88,59.15Z"/><path class="cls-1" d="M11.24,60.19a43.89,43.89,0,0,1,43-44.64l.36,22.93a21,21,0,0,0,.68,42l.36,22.93A43.88,43.88,0,0,1,11.24,60.19Z"/><path class="cls-3" d="M50.34,12c28.21-.45,50.72,21.44,51.17,49.78l-26.7.44c-.22-13.56-10.53-22.09-24-21.87Z"/><path class="cls-4" d="M220.47,412.6c-1.12-1-3.63-4-1.7-7.57.71-1.31,2.22-1.95,3.58-2.53a14.31,14.31,0,0,0,3.92-2c2.13-1.81,2.72-4.81,4.13-7.23a9,9,0,0,1,7.84-4.7c3.66.17,6.71,3.16,8.1,6.57s1.43,7.19,1.46,10.87c0,2-.08,4.33-1.57,5.7s-3.45,1.29-5.32,1.23l-20-.62"/><path class="cls-1" d="M258.72,357.6H206.13l9.47,56.49a6.3,6.3,0,0,0,4.49,5l.19.05c.15,0,.3.1.46.13a7.62,7.62,0,0,0,1.07.12v.05l.26,0h23.44a6.14,6.14,0,0,0,1.29-.13,6.33,6.33,0,0,0,5.32-5.52l4.57-38.93.21-1.54h0l1.81-15.42Zm-9.92,36h-5.4l.55-16.4h6.25Zm1.93-16.4h5.16L254,393.64h-4.64Zm-15.42,34.57L235,397.57h7.77l-.47,14.24Zm-8.41-14.24h7.55l.33,14.24H228Zm.59,14.24h-6.34c-.6-3.84-1.38-8.84-2.23-14.24h7.46Zm-.89-18.17-1.28-16.4H234l.37,16.4Zm8.29,0-.38-16.4h8.92l-.55,16.4Zm-.47-20.33-.35-15.19h10l-.5,15.19Zm-.52,0H225l-1.18-15.19h9.71Zm-9.41,0H215.1c-.33-2.1-.65-4.09-.94-5.87-1-6.14-1.34-8.45-1.55-9.32h10.7Zm.31,3.93,1.27,16.4H218.3c-.26-1.67-.52-3.35-.79-5l-1.79-11.36Zm-7,16.4H212.7L210,377.24h5.24C216,382.31,216.88,388,217.77,393.64Zm.62,3.93c.78,4.93,1.54,9.79,2.23,14.24h-4.87l-2.39-14.24Zm24.41,14.24.47-14.24h5.2l-1.22,14.24Zm1.28-38.5.5-15.19h7.26l-1.3,15.19Zm-32-15.19c.21,1.1,1.17,7.08,2.46,15.19h-5.28l-2.55-15.19Zm39.73,53.69h-4.07L249,397.57h4.52Zm4.52-38.5h-5.3l1.3-15.19h5.78Z"/><rect class="cls-1" x="628.03" y="74.37" width="11.33" height="45.24"/><rect class="cls-1" x="644.68" y="84.24" width="11.33" height="35.37"/><rect class="cls-1" x="661.59" y="92.32" width="11.33" height="27.29"/><rect class="cls-1" x="677.25" y="103.4" width="11.33" height="16.21"/><path class="cls-4" d="M670.35,175.87a39.19,39.19,0,0,0-55.1,1.86,38.63,38.63,0,0,0,1.88,54.77,39.19,39.19,0,0,0,55.1-1.87A38.62,38.62,0,0,0,670.35,175.87Zm-13,41a18.72,18.72,0,0,1-26.34.89,18.46,18.46,0,0,1-.9-26.18,18.72,18.72,0,0,1,26.34-.89A18.46,18.46,0,0,1,657.36,216.83Z"/><path class="cls-3" d="M615.25,177.73a39.2,39.2,0,0,1,55.1-1.86l-13.89,14.78a18.72,18.72,0,0,0-26.34.89,18.46,18.46,0,0,0,.9,26.18L617.13,232.5A38.63,38.63,0,0,1,615.25,177.73Z"/><path class="cls-2" d="M668.76,169.54c19.24,17.86,21.55,46.91,3.57,66l-19.52-16.9c8.59-9.15,10.46-21.36,1.26-29.9Z"/><rect class="cls-1" x="140.41" y="239.96" width="110.45" height="31.11" rx="3.23"/><ellipse class="cls-4" cx="158.45" cy="256.48" rx="6.73" ry="6.76"/><path class="cls-1" d="M162.23,254.18a26.62,26.62,0,0,1-3.62,3.91l-.89.87-.18.17-.18-.18a19.55,19.55,0,0,1-2.7-3.07,18.26,18.26,0,0,1,3.06,2.72h-.35l.88-.87A27.77,27.77,0,0,1,162.23,254.18Z"/><path class="cls-2" d="M240,253.14c0,.14-14.83.26-33.11.26s-33.11-.12-33.11-.26,14.82-.26,33.11-.26S240,253,240,253.14Z"/><path class="cls-2" d="M240.29,258.77c0,.15-14.83.26-33.11.26s-33.11-.11-33.11-.26,14.82-.26,33.11-.26S240.29,258.63,240.29,258.77Z"/><polygon class="cls-4" points="589.09 262.88 587.07 419.88 677.4 419.88 677.4 265.02 589.09 262.88"/><polygon class="cls-1" points="637.75 264.06 636.96 419.88 677.4 419.88 677.4 265.02 637.75 264.06"/><polygon class="cls-1" points="591.93 265.7 591.93 297.81 634.72 297.81 634.72 267.22 591.93 265.7"/><polygon class="cls-4" points="606.68 274.54 606.68 279.28 619.77 279.28 619.77 274.11 606.68 274.54"/><rect class="cls-4" x="606.68" y="283.27" width="13.52" height="1.94"/><polygon class="cls-1" points="591.93 378.23 591.93 410.34 634.72 410.34 634.72 379.75 591.93 378.23"/><polygon class="cls-4" points="606.68 387.06 606.68 391.81 619.77 391.81 619.77 386.63 606.68 387.06"/><rect class="cls-4" x="606.68" y="395.8" width="13.52" height="1.94"/><polygon class="cls-1" points="591.93 301.9 591.93 334.01 634.72 334.01 634.72 303.42 591.93 301.9"/><polygon class="cls-4" points="606.68 310.74 606.68 315.48 619.77 315.48 619.77 310.31 606.68 310.74"/><rect class="cls-4" x="606.68" y="319.47" width="13.52" height="1.94"/><rect class="cls-1" x="591.37" y="340.35" width="42.79" height="32.11"/><polygon class="cls-4" points="606.41 354.82 606.41 359.28 618.72 359.28 618.72 354.42 606.41 354.82"/><rect class="cls-4" x="606.41" y="363.03" width="12.71" height="1.82"/></g><g id="Floor"><path class="cls-5" d="M680.79,418.52c0,.14-148.1.26-330.76.26s-330.79-.12-330.79-.26,148.07-.26,330.79-.26S680.79,418.37,680.79,418.52Z"/></g><g id="Screens"><rect class="cls-2" x="201.94" y="51.98" width="267.33" height="175.35"/><path class="cls-5" d="M469.27,227.32c0-1.69-.08-68.4-.21-175.34l.21.2L202,52.24h0l.26-.26c0,62.36,0,121.7,0,175.34l-.24-.24,267.33.24-267.33.24h-.24v-.24c0-53.64,0-113,0-175.34v-.26H202l267.31.05h.2V52C469.35,158.92,469.27,225.64,469.27,227.32Z"/><path class="cls-6" d="M283.64,148.81l26.29.36c-.2,14-12,25.43-26.29,25.43h-.16Z"/><path class="cls-5" d="M327.11,184.41a2.44,2.44,0,0,1-.56.05l-1.61,0-5.87.07H319l0-.06-8.68-10.93-7-8.92.14.07-7.74-.08-2.17,0a3.75,3.75,0,0,1-.76-.06,6.42,6.42,0,0,1,.76-.05l2.17-.05,7.74-.07h.08l.05.07,7,8.88,8.6,11-.12-.06,5.87.07,1.61,0A2.44,2.44,0,0,1,327.11,184.41Z"/><path class="cls-5" d="M336.55,187.44c0,.11-3.81.2-8.51.2s-8.51-.09-8.51-.2,3.81-.2,8.51-.2S336.55,187.33,336.55,187.44Z"/><path class="cls-5" d="M336.55,190.59c0,.11-3.81.2-8.51.2s-8.51-.09-8.51-.2,3.81-.2,8.51-.2S336.55,190.48,336.55,190.59Z"/><path class="cls-7" d="M279.48,145.07l-.37,25.79c-14.29-.2-25.93-11.78-25.93-25.79s11.87-25.8,26.3-25.8,26.29,11.65,26.29,25.8Z"/><path class="cls-5" d="M269.21,136.63a1.87,1.87,0,0,1-.46.11l-1.3.21-4.73.66h-.07l-.06-.06c-1.8-1.75-4-3.85-6.3-6.13-3-3-5.75-5.67-7.71-7.64l-2.31-2.35a7.13,7.13,0,0,1-.8-.9,6.79,6.79,0,0,1,.91.79l2.4,2.26c2,1.92,4.76,4.59,7.79,7.56l6.25,6.18-.14-.05,4.74-.52,1.32-.12A1.67,1.67,0,0,1,269.21,136.63Z"/><path class="cls-5" d="M238.81,119.41c0,.11-3.81.2-8.51.2s-8.51-.09-8.51-.2a84.93,84.93,0,0,1,8.51-.21A84.93,84.93,0,0,1,238.81,119.41Z"/><path class="cls-5" d="M238.81,122.56c0,.11-3.81.2-8.51.2s-8.51-.09-8.51-.2a84.93,84.93,0,0,1,8.51-.21A84.93,84.93,0,0,1,238.81,122.56Z"/><path class="cls-7" d="M371.47,94.11l-.11-16a20.41,20.41,0,0,0-13.22,5.15,19,19,0,0,0-6.37,16.6,21.65,21.65,0,0,0,.37,2.33.13.13,0,0,1,0,.06h0l19.31-4.35Z"/><g class="cls-8"><path class="cls-9" d="M371.47,94.11l-.11-16a20.41,20.41,0,0,0-13.22,5.15,19,19,0,0,0-6.37,16.6,21.65,21.65,0,0,0,.37,2.33.13.13,0,0,1,0,.06h0l19.31-4.35Z"/></g><path class="cls-7" d="M391.37,89.17a19,19,0,0,0-15.58-10.91l-.62-.05c-.13,0-.25,0-.38,0-.39,0-.77,0-1.17,0h-.1l.1,16,0,3.77L393,102.15h0a18.66,18.66,0,0,0,.43-4.16A20.76,20.76,0,0,0,391.37,89.17Z"/><g class="cls-8"><path d="M391.37,89.17a19,19,0,0,0-15.58-10.91l-.62-.05c-.13,0-.25,0-.38,0-.39,0-.77,0-1.17,0h-.1l.1,16,0,3.77L393,102.15h0a18.66,18.66,0,0,0,.43-4.16A20.76,20.76,0,0,0,391.37,89.17Z"/></g><path class="cls-7" d="M372.5,99.87l-19.31,4.35a19.8,19.8,0,0,0,38.66-.13l-19.32-4.22"/><path class="cls-5" d="M447.68,97c0,.14-10,.26-22.3.26s-22.3-.12-22.3-.26,10-.26,22.3-.26S447.68,96.84,447.68,97Z"/><path class="cls-5" d="M447.68,91.9c0,.15-10,.26-22.3.26s-22.3-.11-22.3-.26,10-.26,22.3-.26S447.68,91.76,447.68,91.9Z"/><path class="cls-5" d="M447.68,86.82c0,.14-10,.26-22.3.26s-22.3-.12-22.3-.26,10-.26,22.3-.26S447.68,86.68,447.68,86.82Z"/><path class="cls-5" d="M447.68,101.72c0,.14-10,.26-22.3.26s-22.3-.12-22.3-.26,10-.26,22.3-.26S447.68,101.57,447.68,101.72Z"/><path class="cls-5" d="M433.87,106.87c0,.14-6.86.26-15.31.26s-15.32-.12-15.32-.26,6.85-.26,15.32-.26S433.87,106.72,433.87,106.87Z"/><rect class="cls-7" x="356.3" y="143.67" width="4.59" height="51.31"/><rect class="cls-7" x="365.17" y="161.09" width="4.59" height="33.88"/><rect class="cls-7" x="374.04" y="150.05" width="4.59" height="45.19"/><rect class="cls-7" x="382.91" y="145.65" width="4.59" height="49.33"/><rect class="cls-7" x="391.78" y="162.14" width="4.59" height="32.84"/><rect class="cls-7" x="400.65" y="168.58" width="4.59" height="26.4"/><rect class="cls-7" x="409.52" y="148.93" width="4.59" height="46.04"/><rect class="cls-7" x="418.39" y="157.24" width="4.59" height="37.74"/><rect class="cls-7" x="427.26" y="150.6" width="4.59" height="44.37"/><rect class="cls-7" x="436.13" y="164.75" width="4.59" height="30.23"/><rect class="cls-7" x="445" y="158.99" width="4.59" height="35.98"/><path class="cls-5" d="M451.47,198.55c0,.11-21.79.19-48.67.19s-48.67-.08-48.67-.19,21.79-.19,48.67-.19S451.47,198.45,451.47,198.55Z"/><path class="cls-5" d="M362.86,202.59a30.7,30.7,0,0,1-6.82,0,30.7,30.7,0,0,1,6.82,0Z"/><path class="cls-5" d="M374.17,202.8a46.22,46.22,0,0,1-8.15,0,43.79,43.79,0,0,1,8.15,0Z"/><path class="cls-5" d="M383.81,202.8a46.22,46.22,0,0,1-8.15,0,43.79,43.79,0,0,1,8.15,0Z"/><path class="cls-5" d="M393.46,202.8a46.22,46.22,0,0,1-8.15,0,43.79,43.79,0,0,1,8.15,0Z"/><path class="cls-5" d="M403.1,202.8a46.1,46.1,0,0,1-8.14,0,43.69,43.69,0,0,1,8.14,0Z"/><path class="cls-5" d="M412.75,202.8a46.22,46.22,0,0,1-8.15,0,43.79,43.79,0,0,1,8.15,0Z"/><path class="cls-5" d="M422.4,202.8a46.22,46.22,0,0,1-8.15,0,43.79,43.79,0,0,1,8.15,0Z"/><path class="cls-5" d="M432,202.8a46.22,46.22,0,0,1-8.15,0,43.79,43.79,0,0,1,8.15,0Z"/><path class="cls-5" d="M441.69,202.8a46.22,46.22,0,0,1-8.15,0,43.79,43.79,0,0,1,8.15,0Z"/><path class="cls-5" d="M451.34,202.8a46.22,46.22,0,0,1-8.15,0,43.79,43.79,0,0,1,8.15,0Z"/><g class="cls-8"><rect class="cls-9" x="365.17" y="161.09" width="4.59" height="33.88"/></g><g class="cls-8"><rect class="cls-9" x="382.91" y="145.65" width="4.59" height="49.33"/></g><g class="cls-8"><rect class="cls-9" x="400.65" y="168.58" width="4.59" height="26.4"/></g><g class="cls-8"><rect class="cls-9" x="418.39" y="157.24" width="4.59" height="37.74"/></g><g class="cls-8"><rect class="cls-9" x="436.13" y="164.75" width="4.59" height="30.23"/></g><path class="cls-7" d="M234.42,84.94A4.43,4.43,0,1,1,230,80.51,4.42,4.42,0,0,1,234.42,84.94Z"/><path class="cls-7" d="M310.45,81.45c0,.14-14.92.26-33.3.26s-33.31-.12-33.31-.26,14.91-.26,33.31-.26S310.45,81.3,310.45,81.45Z"/><path class="cls-7" d="M270.58,86.79a4,4,0,0,1-1,.11c-.66,0-1.63.06-2.81.08-2.38,0-5.66.08-9.28.08s-6.91,0-9.29-.08c-1.18,0-2.15,0-2.81-.08a4,4,0,0,1-1-.11,4.35,4.35,0,0,1,1-.1c.66,0,1.63-.06,2.81-.08,2.38,0,5.66-.08,9.29-.08s6.9,0,9.28.08c1.18,0,2.15,0,2.81.08A4.35,4.35,0,0,1,270.58,86.79Z"/><rect class="cls-2" x="56.58" y="67.85" width="139.91" height="159.68"/><path class="cls-5" d="M196.49,227.53s0-.26,0-.76,0-1.25,0-2.22c0-2,0-4.85,0-8.62,0-7.54,0-18.57-.06-32.58,0-28-.07-67.89-.12-115.5l.23.23-139.9,0h0l.26-.26c0,58.87,0,113.77,0,159.68l-.22-.22,101.48.11,28.37.06,7.48,0,2.58,0-2.53,0-7.44,0-28.32,0-101.62.12h-.22v-.22c0-45.91,0-100.81,0-159.68v-.26h.27l139.9,0h.23v.23c-.05,47.68-.09,87.62-.11,115.65,0,14-.05,25-.06,32.53,0,3.74,0,6.62,0,8.57,0,1,0,1.69,0,2.19S196.49,227.53,196.49,227.53Z"/><path class="cls-7" d="M184.47,149.38c-.05.1-1.55-.77-4.5-1.71a29,29,0,0,0-12.91-.95,28.22,28.22,0,0,0-8.51,2.73,40.19,40.19,0,0,0-8.36,6c-2.75,2.42-5.47,5.17-8.61,7.71a29.7,29.7,0,0,1-11,5.95,16.6,16.6,0,0,1-6.42.38,20.43,20.43,0,0,1-5.94-1.83,104.37,104.37,0,0,1-10-5.92,31.13,31.13,0,0,0-9.36-4.2,27.69,27.69,0,0,0-8.91-.68,28.7,28.7,0,0,0-12.3,4c-2.64,1.61-3.89,2.83-4,2.74a7.37,7.37,0,0,1,.9-.88,22,22,0,0,1,2.86-2.18,28,28,0,0,1,21.59-3.77,31.58,31.58,0,0,1,9.64,4.21,105.93,105.93,0,0,0,9.89,5.83,17,17,0,0,0,11.74,1.37A28.87,28.87,0,0,0,141,162.45c3.09-2.48,5.83-5.22,8.61-7.64a40.57,40.57,0,0,1,8.6-6.07,28.49,28.49,0,0,1,8.77-2.69,28.19,28.19,0,0,1,13.11,1.27,24,24,0,0,1,3.31,1.42A8.83,8.83,0,0,1,184.47,149.38Z"/><rect class="cls-7" x="95.09" y="170.83" width="11.89" height="32.17"/><rect class="cls-7" x="145.56" y="170.83" width="11.89" height="32.17"/><rect class="cls-7" x="162.39" y="151.94" width="11.89" height="51.06"/><rect class="cls-7" x="79.7" y="192.87" width="11.89" height="10.83"/><rect class="cls-7" x="111.91" y="185.36" width="11.9" height="17.64"/><rect class="cls-7" x="128.74" y="181.31" width="11.89" height="21.69"/><path class="cls-5" d="M107.46,206.79c0,.27-2.87.48-6.42.48s-6.43-.21-6.43-.48,2.88-.48,6.43-.48S107.46,206.53,107.46,206.79Z"/><path class="cls-5" d="M92.66,206.79c0,.27-2.87.48-6.42.48s-6.43-.21-6.43-.48,2.88-.48,6.43-.48S92.66,206.53,92.66,206.79Z"/><path class="cls-5" d="M176.63,206.79c0,.27-3.26.48-7.27.48s-7.26-.21-7.26-.48,3.25-.48,7.26-.48S176.63,206.53,176.63,206.79Z"/><ellipse class="cls-5" cx="151.69" cy="206.79" rx="7.26" ry="0.48"/><path class="cls-5" d="M140.63,206.79c0,.27-2.87.48-6.42.48s-6.43-.21-6.43-.48,2.88-.48,6.43-.48S140.63,206.53,140.63,206.79Z"/><path class="cls-5" d="M123.25,206.79c0,.27-2.88.48-6.42.48s-6.43-.21-6.43-.48,2.88-.48,6.43-.48S123.25,206.53,123.25,206.79Z"/><rect class="cls-1" x="79.42" y="91.13" width="97.21" height="40.37"/><path class="cls-5" d="M99.61,103.89a4.53,4.53,0,1,1-4.53-4.53A4.53,4.53,0,0,1,99.61,103.89Z"/><rect class="cls-5" x="104.15" y="100.76" width="31.58" height="1.75"/><rect class="cls-9" x="104.15" y="104.74" width="61.43" height="1.75"/><path class="cls-7" d="M99.61,117.82a4.53,4.53,0,1,1-4.53-4.53A4.53,4.53,0,0,1,99.61,117.82Z"/><rect class="cls-7" x="104.15" y="114.69" width="16.12" height="1.75"/><rect class="cls-9" x="104.15" y="118.67" width="61.43" height="1.75"/><rect class="cls-2" x="482.38" y="39.19" width="153.64" height="175.35"/><path class="cls-5" d="M636,214.53s0-.28,0-.83,0-1.37,0-2.44c0-2.15,0-5.32,0-9.46,0-8.27,0-20.39-.06-35.77,0-30.75-.07-74.55-.12-126.84l.23.23-153.62,0h0l.26-.26c0,64.64,0,124.93,0,175.34l-.22-.22,111.45.12,31.15,0,8.21,0,2.83,0-2.78,0-8.17,0-31.1.06-111.59.11h-.22v-.22c0-50.41,0-110.7,0-175.34v-.26h.28L636,39h.23v.23c0,52.35-.09,96.21-.11,127,0,15.36,0,27.45-.06,35.72,0,4.12,0,7.28,0,9.42v2.41C636,214.26,636,214.53,636,214.53Z"/><rect class="cls-1" x="494.67" y="53.21" width="124.46" height="99.85"/><rect class="cls-5" x="503.37" y="135.3" width="4.08" height="1.18"/><rect class="cls-5" x="512.61" y="141.59" width="5.22" height="1.18"/><rect class="cls-5" x="530.8" y="141.59" width="5.22" height="1.18"/><rect class="cls-5" x="548.98" y="141.59" width="5.22" height="1.18"/><rect class="cls-5" x="567.17" y="141.59" width="5.22" height="1.18"/><rect class="cls-5" x="585.35" y="141.59" width="5.22" height="1.18"/><rect class="cls-5" x="603.54" y="141.59" width="5.22" height="1.18"/><rect class="cls-5" x="503.37" y="119.58" width="4.08" height="1.18"/><rect class="cls-5" x="503.37" y="89.99" width="4.08" height="1.18"/><rect class="cls-5" x="503.37" y="75.12" width="4.08" height="1.18"/><rect class="cls-5" x="503.58" y="104.78" width="4.08" height="1.18"/><path class="cls-5" d="M608.62,136.48a3.72,3.72,0,0,1-.44,0l-1.29,0-4.94.05-18.18.08-60,.08H509.33v-.25c0-20,.07-37.69.09-50.36,0-6.3.06-11.35.08-14.86,0-1.73,0-3.07,0-4,0-.43,0-.78,0-1a1.65,1.65,0,0,1,0-.36,2.45,2.45,0,0,1,0,.36c0,.25,0,.6,0,1,0,.94,0,2.28.05,4,0,3.51,0,8.56.08,14.86,0,12.67.05,30.31.08,50.36l-.25-.26H523.8l60,.07,18.18.09,4.94,0,1.29,0Z"/><path class="cls-5" d="M609.77,105.37c0,.15-21.55.26-48.11.26s-48.12-.11-48.12-.26,21.54-.26,48.12-.26S609.77,105.23,609.77,105.37Z"/><path class="cls-5" d="M609.77,90.58c0,.14-21.55.26-48.11.26s-48.12-.12-48.12-.26,21.54-.26,48.12-.26S609.77,90.43,609.77,90.58Z"/><path class="cls-5" d="M609.77,75.71c0,.14-21.55.26-48.11.26s-48.12-.12-48.12-.26,21.54-.26,48.12-.26S609.77,75.56,609.77,75.71Z"/><path class="cls-5" d="M609.77,120.17c0,.14-21.55.26-48.11.26s-48.12-.12-48.12-.26,21.54-.26,48.12-.26S609.77,120,609.77,120.17Z"/><path class="cls-6" d="M514.53,133.29V120.17l8.18-12.7,5.55,4.26L539.66,94l6.72,4.74,9.35-16.33,7.6,6.19L574.72,67,587,91.17l9.94-12.12,11.69-3.34v57.58Z"/><path class="cls-7" d="M609.77,71.05l-.21,0-.61,0-2.37,0-9,.07.12,0c-2.62,3.42-5.87,7.67-9.6,12.57l-.06.08H588l-24.07,0,.22-.12C561,89,557.54,94.67,554,100.55s-6.78,11.27-9.93,16.51l-.2.32-.22-.3-13-17.93H531l-11.91,18.51-3.33,5.11-.89,1.34a5.06,5.06,0,0,1-.32.44s.08-.17.27-.48l.83-1.36,3.23-5.18,11.76-18.61.17-.26.18.25,13.09,17.88-.42,0,9.92-16.51,10.13-16.84.07-.12h.14l24.07,0-.17.08L597.5,71l0-.06h.07l9,.07L609,71l.61,0C609.7,71,609.77,71,609.77,71.05Z"/><path class="cls-7" d="M534.74,103.23a.92.92,0,1,1-.92-.89A.91.91,0,0,1,534.74,103.23Z"/><path class="cls-7" d="M562.5,87.46a.93.93,0,1,1-.93-.89A.91.91,0,0,1,562.5,87.46Z"/><path class="cls-7" d="M584.07,83.58a.92.92,0,1,1-.92-.89A.91.91,0,0,1,584.07,83.58Z"/><path class="cls-5" d="M613.53,167.9c0,.14-26.26.26-58.66.26s-58.65-.12-58.65-.26,26.25-.27,58.65-.27S613.53,167.75,613.53,167.9Z"/><path class="cls-5" d="M613.53,174.24c0,.14-26.26.26-58.66.26s-58.65-.12-58.65-.26,26.25-.26,58.65-.26S613.53,174.09,613.53,174.24Z"/><path class="cls-5" d="M613.53,180.58c0,.14-26.26.26-58.66.26s-58.65-.12-58.65-.26,26.25-.26,58.65-.26S613.53,180.44,613.53,180.58Z"/><path class="cls-5" d="M613.53,186.92c0,.15-26.26.26-58.66.26s-58.65-.11-58.65-.26,26.25-.26,58.65-.26S613.53,186.78,613.53,186.92Z"/></g><g id="Character_2" data-name="Character 2"><path class="cls-5" d="M567.2,184.43c3.21-5.39,4.15-12.57,5-18.79.39-2.92,1.07-7.09-1-8.93-2.2-2-2.4-5-4.93-6.51a7.78,7.78,0,0,0-8.36.07"/><path class="cls-10" d="M558.3,203.52h0a8.66,8.66,0,0,1-9.32-8.3c-.18-4.71-.34-9.48-.34-9.48s-7.14-.67-7.66-7.74-.28-23.39-.28-23.39h0a24.61,24.61,0,0,1,24.89,1.6l-.44,24.88v13.39C565.11,199,562.77,203.18,558.3,203.52Z"/><path class="cls-5" d="M548,169.37a3.62,3.62,0,0,1,4.83-1.05,4.1,4.1,0,0,1,1.37,5.13,5.45,5.45,0,0,1-3.47,2.63,2.71,2.71,0,0,0-2.13,2.92c.21,1.77,3.16,2.44,4.49,3.91,2.07,2.28,6.62,3.25,9.68,3.61s2.65.39,4.4-2.09a9.41,9.41,0,0,0,1.72-5.74l.33-15.63a23,23,0,0,0-.36-5.62,7.54,7.54,0,0,0-3-4.64c-1.72-1.13-3.9-1.22-5.86-1.86-2.45-.79-4.53-2.41-6.82-3.59s-5.1-1.87-7.4-.71c-1.65.83-2.75,2.47-4.36,3.39-2.28,1.3-5.4,1-6.51,4.36a5.76,5.76,0,0,0,0,3.6c1.55,4.57,7.22,6.41,11.3,4.44.08.77-.69,2.5.13,4.94.26.79.35,2,1.58,2"/><path class="cls-11" d="M549.29,173.78a1.36,1.36,0,0,0,.88.34,1.65,1.65,0,0,0,1.33-1.61,1.76,1.76,0,0,0-1.22-1.76c-.58-.22-1-.11-1-.19s.38-.32,1.11-.17a2.1,2.1,0,0,1,1.11.64,2.06,2.06,0,0,1,.53,1.5,2,2,0,0,1-1.84,2,1.06,1.06,0,0,1-.79-.4C549.26,173.92,549.26,173.79,549.29,173.78Z"/><path class="cls-6" d="M556.65,152.47s.15-.27.59-.6a4.73,4.73,0,0,1,2.15-.84,6.19,6.19,0,0,1,3.38.52,7.73,7.73,0,0,1,3.12,2.79,15.83,15.83,0,0,1,2.2,7.15,18.08,18.08,0,0,1,.18,3.09,19.34,19.34,0,0,1-.55-3,17,17,0,0,0-2.26-6.91,7.63,7.63,0,0,0-2.89-2.65,6.19,6.19,0,0,0-3.14-.58A5.9,5.9,0,0,0,556.65,152.47Z"/><path class="cls-6" d="M536.74,159.7a.52.52,0,0,1-.27,0,2.14,2.14,0,0,1-.7-.32,2.59,2.59,0,0,1-.82-.92,2.29,2.29,0,0,1-.22-1.64,2.65,2.65,0,0,1,1.14-1.65,3.92,3.92,0,0,1,2.24-.44,3.06,3.06,0,0,0,2.13-.54,15,15,0,0,0,1.73-1.86,8.8,8.8,0,0,1,4.4-2.54,9.31,9.31,0,0,1,4.15-.09,8.11,8.11,0,0,1,2.61,1,3.45,3.45,0,0,1,.81.62,12.49,12.49,0,0,0-3.49-1.26,9.53,9.53,0,0,0-4,.19,8.61,8.61,0,0,0-4.14,2.43,14.79,14.79,0,0,1-1.8,1.92,3,3,0,0,1-1.22.55,5.76,5.76,0,0,1-1.23.06,3.53,3.53,0,0,0-2,.33,2.33,2.33,0,0,0-1,1.37,2.27,2.27,0,0,0,.81,2.31A5.88,5.88,0,0,0,536.74,159.7Z"/><path class="cls-6" d="M555.65,179.37c0-.05.36-.18.94-.57a5.8,5.8,0,0,0,1.93-2.14,5.42,5.42,0,0,0,.32-4.15,5.32,5.32,0,0,0-1.28-2.12,10.5,10.5,0,0,0-2.21-1.62c-.83-.48-1.67-.93-2.44-1.45a8,8,0,0,1-1.95-1.84,8.61,8.61,0,0,1-1.66-4.19,7.89,7.89,0,0,1,.23-3,4.38,4.38,0,0,1,.29-.77c.07-.17.12-.26.14-.25a10.23,10.23,0,0,0-.29,4,8.34,8.34,0,0,0,1.67,3.94,7.69,7.69,0,0,0,1.86,1.72c.74.5,1.57.93,2.41,1.42a10.65,10.65,0,0,1,2.31,1.71,5.68,5.68,0,0,1-1.23,8.95A2.5,2.5,0,0,1,555.65,179.37Z"/><path class="cls-6" d="M567.91,169a2.84,2.84,0,0,1-.91.21,13.6,13.6,0,0,1-2.54.08,15.83,15.83,0,0,1-7.89-2.72,12.46,12.46,0,0,1-5.17-6.5,5.33,5.33,0,0,1-.1-2.57,1.89,1.89,0,0,1,.35-.87,6.13,6.13,0,0,0,.1,3.33,12.82,12.82,0,0,0,5.12,6.18,16.5,16.5,0,0,0,7.62,2.78C566.59,169.14,567.9,168.89,567.91,169Z"/><path class="cls-5" d="M569,164.15a12.46,12.46,0,0,1,9.74-4.41,9,9,0,0,1,8.18,6.33c.68,2.69-.15,5.5-.5,8.26s0,6,2.24,7.6c1.35,1,3.11,1.17,4.73,1.56s3.37,1.21,3.93,2.79c.64,1.81-.67,3.87-2.44,4.63a8.87,8.87,0,0,1-5.65.08,4.75,4.75,0,0,1-2.1,5.67,6.28,6.28,0,0,1-6.28-.27,9.31,9.31,0,0,1-3.83-5.19c-1.21,2.12-4.4,2.57-6.43,1.22A6.77,6.77,0,0,1,568,186a12.73,12.73,0,0,1,3.26-6.46,15.83,15.83,0,0,0,2.28-2.9,3.7,3.7,0,0,0,.14-3.53,2.13,2.13,0,0,0-3.14-.63"/><path class="cls-7" d="M573.29,171.57a2.4,2.4,0,0,1-2.12,0,5.11,5.11,0,0,1-3.09-4,5.25,5.25,0,0,1,.34-2.87,5.55,5.55,0,0,1,1.35-1.92,3.52,3.52,0,0,1,1.86-1A17.92,17.92,0,0,0,570,163a5.24,5.24,0,0,0-1.43,4.45,4.53,4.53,0,0,0,4.69,4.13Z"/><path class="cls-11" d="M548.41,185.62a3.33,3.33,0,0,1-1.62-.16,8.68,8.68,0,0,1-5.73-5.05,3.45,3.45,0,0,1-.36-1.58c.09,0,.26.56.7,1.42a9.95,9.95,0,0,0,5.5,4.86A11.78,11.78,0,0,1,548.41,185.62Z"/><path class="cls-6" d="M575.62,191.42s-.12,0-.34,0a3.39,3.39,0,0,1-.92-.41,5,5,0,0,1-2-3.06,6.26,6.26,0,0,1-.09-2.57,10.7,10.7,0,0,1,.93-2.78c.9-1.87,2.3-3.63,3.34-5.69a10.26,10.26,0,0,0,1.05-3.15,6.16,6.16,0,0,0-.34-3,6.05,6.05,0,0,0-3.59-3.54,6.5,6.5,0,0,0-3.5-.22c-.83.17-1.25.41-1.27.36s.09-.08.29-.19a4.54,4.54,0,0,1,.93-.37,6.39,6.39,0,0,1,8,7,10.37,10.37,0,0,1-1.08,3.31c-1.08,2.13-2.49,3.88-3.38,5.67a7.56,7.56,0,0,0-.91,5.06,5,5,0,0,0,1.76,3A11,11,0,0,0,575.62,191.42Z"/><path class="cls-6" d="M586.29,196.59a1.25,1.25,0,0,1-.44,0,5.19,5.19,0,0,1-1.27-.23,7.11,7.11,0,0,1-3.68-2.87,11,11,0,0,1-1.59-6.74,68.92,68.92,0,0,1,1.37-8.37,19.21,19.21,0,0,0,.29-4.3,11,11,0,0,0-.9-3.87,7.26,7.26,0,0,0-2.16-2.82,7.16,7.16,0,0,0-2.8-1.32,10.41,10.41,0,0,0-4.56,0c-1.06.24-1.63.48-1.64.43a1.59,1.59,0,0,1,.39-.2,8.88,8.88,0,0,1,1.21-.42,9.89,9.89,0,0,1,4.68-.18,7.33,7.33,0,0,1,5.31,4.3,11.1,11.1,0,0,1,1,4,19.49,19.49,0,0,1-.29,4.42,74.5,74.5,0,0,0-1.4,8.32,10.76,10.76,0,0,0,1.42,6.51,7.18,7.18,0,0,0,3.44,2.88A11.57,11.57,0,0,0,586.29,196.59Z"/><polygon class="cls-10" points="588.42 228.79 573.36 240.54 579.68 250.91 597.81 237.55 588.42 228.79"/><path class="cls-10" d="M548.14,189.32s.07-1.25-3.21-1.43-3.65-.13-3.65-.13a8.34,8.34,0,0,1-1.57-3,9.2,9.2,0,0,1,.7-3.09l3.33-.31-.91-2.26-2.34.17-6.61.79-2.64,11.58-18,33.7A8.7,8.7,0,0,0,516.64,238h0c4.66,2.26,10.92-2.53,12.65-7.42l10-37.48,3.51-2.75,5-.92"/><path class="cls-10" d="M507,413.64l24.59-141.42h0c.05-.21.1-.41.16-.61v0h0c4.18-16.58,10.63-21.9,10.63-21.9L579.94,252c3.2,5.75,3.61,19.54,3.61,19.54.43,1.69-7.95,138.72-7.95,138.72L563,409.94,556.19,280.3l-36.6,133.87Z"/><path class="cls-7" d="M506.69,414.91l.05-1.28,12.94.37-.11,4.22-.8,0c-3.56.09-18.11.22-20.47-.52C495.67,416.9,506.69,414.91,506.69,414.91Z"/><g class="cls-12"><path class="cls-9" d="M514.9,418a4.11,4.11,0,0,1,1.72-2.51,4.58,4.58,0,0,1,3-.79l-.1,3.34Z"/></g><g class="cls-12"><path class="cls-9" d="M501.3,416.06s-3.87.93-3.41,1.53,15.17,1,21.68.63l0-.27-17.16-.32S502.05,416.11,501.3,416.06Z"/></g><path class="cls-5" d="M519.76,418h-.23l-.63,0-2.35,0c-2,0-4.71,0-7.73-.07s-5.75-.21-7.73-.32l-2.34-.16-.63,0-.22,0h.22l.63,0,2.35.1c2,.09,4.7.2,7.72.28s5.75.11,7.73.12h3Z"/><path class="cls-5" d="M502.39,417.82a4.88,4.88,0,0,0-.4-1.05,5.49,5.49,0,0,0-.78-.86,1.76,1.76,0,0,1,.91.79A1.5,1.5,0,0,1,502.39,417.82Z"/><path class="cls-5" d="M506.25,416.13s-.22-.19-.4-.48-.29-.52-.25-.54.21.19.39.47A1.28,1.28,0,0,1,506.25,416.13Z"/><path class="cls-5" d="M507.31,415.64s-.23-.1-.45-.29-.37-.37-.34-.4.23.1.45.29S507.33,415.61,507.31,415.64Z"/><path class="cls-5" d="M508,414.53a1.78,1.78,0,0,1-.68.06,1.74,1.74,0,0,1-.67-.08,1.71,1.71,0,0,1,.68-.07A1.64,1.64,0,0,1,508,414.53Z"/><path class="cls-5" d="M508.25,413.74a1.51,1.51,0,0,1-.76.18,1.36,1.36,0,0,1-.77-.12,4.64,4.64,0,0,1,.77,0A4.76,4.76,0,0,1,508.25,413.74Z"/><path class="cls-5" d="M505.84,415.07a2.55,2.55,0,0,1-.83,0,5,5,0,0,1-.87-.2,2.33,2.33,0,0,1-.5-.21.41.41,0,0,1-.2-.24.3.3,0,0,1,.14-.31,1.58,1.58,0,0,1,1.86.47,1.2,1.2,0,0,1,.26.52c0,.13,0,.2,0,.2a2.19,2.19,0,0,0-.36-.66,1.48,1.48,0,0,0-.69-.45,1.35,1.35,0,0,0-1,0c-.13.09-.09.23.06.32a2.34,2.34,0,0,0,.46.19,6.39,6.39,0,0,0,.84.23C505.53,415,505.84,415.05,505.84,415.07Z"/><path class="cls-5" d="M505.63,415.1s-.13-.19-.08-.54a1.23,1.23,0,0,1,.24-.55.85.85,0,0,1,.7-.38.32.32,0,0,1,.25.37.82.82,0,0,1-.16.34,2,2,0,0,1-.4.45,1.22,1.22,0,0,1-.48.3s.16-.13.4-.37a2.45,2.45,0,0,0,.36-.45c.12-.16.21-.45,0-.49s-.42.16-.56.31a1.17,1.17,0,0,0-.24.49A1.73,1.73,0,0,0,505.63,415.1Z"/><path class="cls-5" d="M519.59,414.66s-.36,0-1,0a4.27,4.27,0,0,0-2.1.74,3.92,3.92,0,0,0-1.35,1.67c-.21.51-.24.85-.27.85a.64.64,0,0,1,0-.24,2.86,2.86,0,0,1,.16-.65,3.67,3.67,0,0,1,1.36-1.75,4.17,4.17,0,0,1,2.18-.73,3.46,3.46,0,0,1,.71,0C519.51,414.63,519.6,414.65,519.59,414.66Z"/><path class="cls-5" d="M513.31,416.79a8.41,8.41,0,0,1-1.88.12,7.8,7.8,0,0,1-1.88-.19s.84,0,1.88,0S513.31,416.74,513.31,416.79Z"/><path class="cls-5" d="M515.84,416.85s-.08.16-.17.34-.14.33-.18.33-.07-.19,0-.39S515.81,416.82,515.84,416.85Z"/><path class="cls-5" d="M516.82,415.77s-.05.15-.19.28-.27.19-.3.16,0-.15.19-.27S516.79,415.74,516.82,415.77Z"/><path class="cls-5" d="M518.2,415.31s-.18,0-.37.09-.33.14-.37.12.08-.2.32-.26S518.21,415.27,518.2,415.31Z"/><path class="cls-5" d="M519.18,415.09s-.07.1-.17.14-.21,0-.23,0,.07-.09.17-.13S519.16,415.06,519.18,415.09Z"/><path class="cls-5" d="M569.89,193.3a24.73,24.73,0,0,1,10,3.92c11.9,7.71,31.79,24,30.14,31.57-1.4,6.43-16.92,14.23-16.92,14.23L583,230.9l6.17-3.53L574,217.27Z"/><path class="cls-5" d="M576.67,217.85l-.49,1.81L574.43,228,574,240.26c9,11.62,9.15,21.4,9.15,21.4L537.58,267c0-9,3.29-20.33,3.29-20.33,2.64-4.48,2.51-17.86,2-18.34-2.85-2.83-3.54-4.9-1.26-8.51,0,0-14.13,14.84-15.59,16.17-5,4.58-9.79,3.3-12,1.31-6.24-5.56.17-12.75.17-12.75L538,197.26a11.83,11.83,0,0,1,6.18-3.77,51.34,51.34,0,0,1,5.1-.9l15.88.13a27,27,0,0,1,4.74.58,11.37,11.37,0,0,1,6.94,8.6C578.25,208.73,576.67,217.85,576.67,217.85Z"/><path class="cls-6" d="M577.17,206.93a6.76,6.76,0,0,1,.1,1.32c0,.85,0,2.08-.09,3.6a96.54,96.54,0,0,1-1.57,11.78c-.3,1.56-.61,3.05-.94,4.44v0c-.14,3.54-.28,6.6-.4,8.78-.07,1-.12,1.86-.17,2.55a3.56,3.56,0,0,1-.11.91,3.69,3.69,0,0,1-.06-.92c0-.69,0-1.54,0-2.55,0-2.18.11-5.24.22-8.78v0c.32-1.38.62-2.88.92-4.43.87-4.54,1.44-8.69,1.71-11.71.14-1.51.21-2.73.25-3.58A6.35,6.35,0,0,1,577.17,206.93Z"/><path class="cls-6" d="M577.32,219.18a92.34,92.34,0,0,1,8.32,5.44,93.47,93.47,0,0,1,8,5.87,95,95,0,0,1-8.32-5.45A97.45,97.45,0,0,1,577.32,219.18Z"/><path class="cls-6" d="M547.86,201.32s.09.05.24.17a6.74,6.74,0,0,1,.56.62,6.89,6.89,0,0,1,1.23,2.83,9.4,9.4,0,0,1-.25,4.56,18.67,18.67,0,0,1-2.56,5,17.77,17.77,0,0,1-1.88,2.21c-.66.67-1.37,1.23-2,1.79-1.26,1.13-2.35,2.21-3.25,3.12s-1.6,1.67-2.09,2.2a5.39,5.39,0,0,1-.8.79,4.39,4.39,0,0,1,.64-.92c.45-.57,1.12-1.37,2-2.32s1.93-2.06,3.19-3.22c.62-.59,1.32-1.15,2-1.8a18.8,18.8,0,0,0,4.34-7,9.32,9.32,0,0,0,.35-4.36A8.07,8.07,0,0,0,547.86,201.32Z"/><polygon class="cls-6" points="542.56 241.6 543.08 235.48 574.16 235.48 574 240.26 542.56 241.6"/><path class="cls-6" d="M516,223.33c.06.08-.78.59-1.72,1.8a8.28,8.28,0,0,0,.44,10.86c1,1.13,1.92,1.57,1.86,1.65s-.24,0-.63-.26a6.85,6.85,0,0,1-1.49-1.14A8.2,8.2,0,0,1,514,224.9a7.29,7.29,0,0,1,1.39-1.26C515.8,223.4,516,223.3,516,223.33Z"/><polygon class="cls-7" points="575.6 410.29 579.12 418.49 563.35 418.3 563.02 409.94 575.6 410.29"/><path class="cls-5" d="M563.23,416.88a13.77,13.77,0,0,0,2.21.12c1.37,0,3.25,0,5.34,0l5.32-.11a19,19,0,0,0,2.21-.11,14.72,14.72,0,0,0-2.21-.11c-1.37,0-3.26,0-5.34,0l-5.32.11A18,18,0,0,0,563.23,416.88Z"/><path class="cls-5" d="M569.81,410.11a11.15,11.15,0,0,0-.07,3.33,11,11,0,0,0,.44,3.3,11.79,11.79,0,0,0,.06-3.33A11.14,11.14,0,0,0,569.81,410.11Z"/><polyline class="cls-13" points="579.1 418.66 563.33 418.13 563.23 416.64 578.31 416.77 579.1 418.48"/><path class="cls-7" d="M582.15,253.76c11.86,37.45-3.43,82.91.24,126.55.36,4.29,2.1,9.42-1.91,11.86a6.62,6.62,0,0,1-3.62.88c-3.21-.1-5.88-1.77-8.74-2.91a25.91,25.91,0,0,0-17.2-.66c-3.79,1.18-7.54,3.26-11.46,2.67-5.21-.79-8.58-5.93-13.38-8.12-4.48-2-9.67-1.28-14.6-1.4h-.14a11.07,11.07,0,0,1-10.22-14c7.16-26.24,30.92-111.46,41.44-127L574,240.26C576.89,243.76,580.62,249,582.15,253.76Z"/><path class="cls-5" d="M571.13,271.39a13.24,13.24,0,0,1-1.71,2.15,46.27,46.27,0,0,1-4.64,4.75,31.71,31.71,0,0,1-5.47,3.77,11.94,11.94,0,0,1-2.5,1.15c-.11-.18,3.74-2,7.63-5.32,1.93-1.68,3.53-3.39,4.71-4.6A15.63,15.63,0,0,1,571.13,271.39Z"/><g class="cls-14"><path d="M557.25,285.53A133.88,133.88,0,0,0,552,365.69c.56,2.29,1.14,4.89-.17,6.85-1.69,2.54-5.77,2.37-8.08.37s-3.23-5.13-3.81-8.13c-4.32-22.34,3.5-44.79,11.94-65.92"/></g></g><g id="Character_1" data-name="Character 1"><rect class="cls-5" x="319.35" y="298.15" width="59.59" height="2.9"/><polygon class="cls-5" points="310.11 301.05 298.93 259.16 345.46 259.16 355.58 301.05 310.11 301.05"/><polygon class="cls-4" points="352.79 297.88 311.23 297.88 301.55 261.1 343.33 261.1 352.79 297.88"/><path class="cls-3" d="M302.25,263.74H344l-.71-2.64H301.55Z"/><path class="cls-2" d="M306.76,262.42a.46.46,0,1,0,.46-.46A.47.47,0,0,0,306.76,262.42Z"/><path class="cls-2" d="M305.19,262.42a.46.46,0,1,0,.46-.46A.46.46,0,0,0,305.19,262.42Z"/><path class="cls-2" d="M303.62,262.42a.46.46,0,1,0,.45-.46A.46.46,0,0,0,303.62,262.42Z"/><path class="cls-7" d="M333.65,279.86l4.58,5.23a6.48,6.48,0,0,0,2.81-5.26c0-3.66-3.36-6.66-7.42-6.65s-7.37,3-7.35,6.71Z"/><path class="cls-5" d="M333.07,280.69a11.21,11.21,0,0,1,1.31,1.31c.81.88,2,2.16,3.38,3.72l.16.18-.2.15a7.92,7.92,0,0,1-7.71.76,7.56,7.56,0,0,1-3.18-2.56,6.59,6.59,0,0,1-1.18-3.43v-.24h.22c2.19,0,4,0,5.26,0a12,12,0,0,1,1.94.09,12.11,12.11,0,0,1-2,.16c-1.26.06-3.05.12-5.18.18l.22-.23a6.18,6.18,0,0,0,1.14,3.16,7.23,7.23,0,0,0,3,2.37,7.63,7.63,0,0,0,7.26-.64l0,.32c-1.33-1.55-2.42-2.86-3.18-3.79A11.19,11.19,0,0,1,333.07,280.69Z"/><path class="cls-5" d="M330.08,275.91a.42.42,0,0,0,.42.41.42.42,0,1,0,0-.83A.42.42,0,0,0,330.08,275.91Z"/><path class="cls-5" d="M321.85,272.91a23.1,23.1,0,0,1,4.94-.28h.77l.08.07a20.4,20.4,0,0,1,2.86,3.2,18.67,18.67,0,0,1-3.23-2.83l.18.07h-.65A24.19,24.19,0,0,1,321.85,272.91Z"/><path class="cls-5" d="M312.49,278.15a18,18,0,0,1-.47-1.93c-.28-1.27-.68-3.13-1.13-5.4l-.05-.25h.26l10.34-.09c-.06-.05.48.4.26.21h0v.11l0,.13.05.24.09.49.18,1q.18,1,.36,1.89c.22,1.23.44,2.42.65,3.53l.05.28h-.28c-3.11,0-5.72,0-7.54-.08l-2.1-.06a2.81,2.81,0,0,1-.71-.05,5.4,5.4,0,0,1,.8-.07l2.15-.07c1.82-.05,4.38-.11,7.39-.14l-.23.28c-.21-1.11-.44-2.29-.68-3.52-.12-.62-.24-1.25-.37-1.89l-.18-1-.09-.49,0-.25,0-.12,0-.06v-.05h0l.26.21H311.1l.21-.25c.39,2.2.69,4,.9,5.32A19.39,19.39,0,0,1,312.49,278.15Z"/><path class="cls-5" d="M329.47,284.23a.41.41,0,1,0,.82,0,.41.41,0,1,0-.82,0Z"/><path class="cls-5" d="M322.37,284.26a13.67,13.67,0,0,1,3.75-.27,14,14,0,0,1,3.76.24,13.43,13.43,0,0,1-3.75.28A14.24,14.24,0,0,1,322.37,284.26Z"/><path class="cls-5" d="M312.53,287.52a8.19,8.19,0,0,1-.45-1.38c-.28-.92-.67-2.28-1.13-4l-.06-.24h.25c2.82-.05,6.56-.09,10.66-.11l.26.2h0v.07l0,.09,0,.17.09.36.18.7c.12.47.24.93.35,1.38l.66,2.62.08.31h-.31c-3.17,0-5.86,0-7.74-.08l-2.19-.06a2.29,2.29,0,0,1-.74-.07,5.18,5.18,0,0,1,.84-.06l2.22-.08c1.9-.05,4.53-.11,7.6-.14l-.23.3c-.22-.83-.45-1.71-.68-2.61l-.36-1.38-.18-.7-.09-.36,0-.18,0-.08v-.07h0c-.05-.05.48.37.26.19-4.1,0-7.85,0-10.67,0l.19-.24c.4,1.63.7,3,.91,3.93A13.93,13.93,0,0,1,312.53,287.52Z"/><path class="cls-5" d="M313.31,273a12,12,0,0,1,3.54-.28,12.69,12.69,0,0,1,3.54.25,12.18,12.18,0,0,1-3.54.27A12.48,12.48,0,0,1,313.31,273Z"/><path class="cls-5" d="M313.4,274.2a24,24,0,0,1,7.12,0,12.75,12.75,0,0,1-3.56.27A12.57,12.57,0,0,1,313.4,274.2Z"/><path class="cls-5" d="M313.61,275.31A11.9,11.9,0,0,1,317,275a11.77,11.77,0,0,1,3.44.24,11.3,11.3,0,0,1-3.43.28A11.18,11.18,0,0,1,313.61,275.31Z"/><path class="cls-5" d="M313.52,284.17a10.9,10.9,0,0,1,3.37-.28,11.54,11.54,0,0,1,3.38.25,11.09,11.09,0,0,1-3.37.27A11.36,11.36,0,0,1,313.52,284.17Z"/><path class="cls-5" d="M313.94,285.45a16,16,0,0,1,5.75,0,8.36,8.36,0,0,1-2.87.27A8.46,8.46,0,0,1,313.94,285.45Z"/><polygon class="cls-5" points="248.78 300.91 248.78 306.4 252.38 306.4 252.38 417.61 259.76 417.61 259.76 306.4 298.93 306.4 298.93 417.61 306.31 417.61 306.31 306.4 476.24 306.4 476.24 417.58 483.62 417.58 483.62 306.4 486.82 306.4 486.82 300.91 248.78 300.91"/><path class="cls-5" d="M408.82,342.35a57.7,57.7,0,0,0,9.6,0,57.7,57.7,0,0,0-9.6,0Z"/><ellipse class="cls-6" cx="338.91" cy="343.35" rx="0.26" ry="0.13"/><path class="cls-15" d="M385.94,244.49l-27.57-28-.59-3c-.12-.55-.23-1.17-.34-1.87a7.58,7.58,0,0,1,0-2.47,11.51,11.51,0,0,1,.85-2.94c.47-.81-.28-1.79-1-1.45s-2.1,2.54-2.39,5.56-2.87-1-3.84-2.43-4.16-5.78-4.82-5.83c-1-.08-1.23,1-.23,2.4s3.7,5.9,2.93,6.38h0a3.61,3.61,0,0,0-3.8,1.89c-.7,1.34-1.47,3.23-.84,4.11a50.53,50.53,0,0,0,4.4,4.65l.92.8s23.85,34.56,29.05,35.68c3.23.7,53.21,4.84,53.21,4.84L435.62,249Z"/><path class="cls-15" d="M344.06,216.21l2.55,2.45a3.12,3.12,0,0,0,1,.7,1,1,0,0,0,1.11-.18,1,1,0,0,0,.15-1,3,3,0,0,0-.58-.91l-2.48-3"/><path class="cls-16" d="M345.77,214.27c.05-.05.53.43,1.26,1.23l1.26,1.43a4.59,4.59,0,0,1,.7.95,1.33,1.33,0,0,1-.07,1.42,1.25,1.25,0,0,1-1.39.32,2.73,2.73,0,0,1-1-.71c-.46-.46-.9-.92-1.33-1.36a6,6,0,0,1-1.14-1.34c.05-.06.58.36,1.39,1.08l1.41,1.28a2.52,2.52,0,0,0,.84.56.73.73,0,0,0,.82-.16.84.84,0,0,0,0-.87,4.37,4.37,0,0,0-.61-.86l-1.17-1.5A5.73,5.73,0,0,1,345.77,214.27Z"/><path class="cls-15" d="M345.87,214.42l2.55,2.45a3.15,3.15,0,0,0,1,.71,1,1,0,0,0,1.11-.18,1,1,0,0,0,.15-1,3,3,0,0,0-.58-.9l-2.48-3"/><path class="cls-16" d="M347.58,212.49c.05-.05.53.43,1.26,1.23.41.46.83.93,1.26,1.43a4.59,4.59,0,0,1,.7.95,1.32,1.32,0,0,1-.07,1.41,1.23,1.23,0,0,1-1.39.32,2.71,2.71,0,0,1-1-.7L347,215.77c-.75-.78-1.19-1.29-1.14-1.35a6.06,6.06,0,0,1,1.39,1.09l1.41,1.27a2.41,2.41,0,0,0,.84.57.75.75,0,0,0,.82-.16.84.84,0,0,0,0-.87,4.43,4.43,0,0,0-.61-.87l-1.17-1.5A5.8,5.8,0,0,1,347.58,212.49Z"/><path class="cls-15" d="M347.85,213l2.55,2.45a3.15,3.15,0,0,0,1,.71,1.05,1.05,0,0,0,1.12-.18,1,1,0,0,0,.15-1,3,3,0,0,0-.59-.9c-.82-1-1.65-2-2.48-3"/><path class="cls-16" d="M349.56,211c.06-.05.54.42,1.27,1.23l1.26,1.42a5.07,5.07,0,0,1,.7,1,1.32,1.32,0,0,1-.07,1.41,1.23,1.23,0,0,1-1.39.32,2.83,2.83,0,0,1-1-.7L349,214.31a5.92,5.92,0,0,1-1.14-1.35,6.32,6.32,0,0,1,1.4,1.08c.45.42.92.84,1.41,1.28a2.38,2.38,0,0,0,.83.57.77.77,0,0,0,.82-.16.87.87,0,0,0,0-.87,4.9,4.9,0,0,0-.61-.87c-.41-.51-.8-1-1.18-1.5A6.6,6.6,0,0,1,349.56,211Z"/><path class="cls-16" d="M351.88,217.2c0-.08.64-.21,1.56.07l-.3.25a4.38,4.38,0,0,1-.06-1.75,4.49,4.49,0,0,1,.95-2.13c.4-.46.73-.64.77-.59a9.19,9.19,0,0,0-1.21,2.81,5.24,5.24,0,0,0,0,1.58l.05.4-.35-.15C352.49,217.35,351.88,217.3,351.88,217.2Z"/><path class="cls-15" d="M422.05,202.51l.12,38.36-15,.71-.61-9.19s-7.21,1.1-8.72-4.33c-1-3.47-.72-30.28-.72-30.28Z"/><path class="cls-5" d="M393.44,201.57c1.11,2.29,6.39,6.49,6.39,6.49l2.38,6.39c2.07-1.63,4.86-1.53,5.38,2.11.38,2.63-2.89,3.16-2.89,3.16,1.91,3.24,3.2,5.86,6,8.94,3,3.34,4.68,3.67,7.94,3.73h3.58s7.35-6.14,5.89-22.3-16-11.44-19.44-15.48C403,188,389.74,193.91,393.44,201.57Z"/><path class="cls-6" d="M427.27,223.61a5.38,5.38,0,0,1-1.78-.09,9.22,9.22,0,0,1-4.28-2.2,23.15,23.15,0,0,1-4.34-5.73c-1.39-2.28-2.92-5-5.49-6.72s-5.66-2.1-8.29-2.64a15.64,15.64,0,0,1-6.69-2.54,7.17,7.17,0,0,1-2.68-4,4.1,4.1,0,0,1-.08-1.77,6.47,6.47,0,0,0,.15,1.76,7.21,7.21,0,0,0,2.7,3.87,15.55,15.55,0,0,0,6.64,2.47c2.62.53,5.7.88,8.36,2.65s4.16,4.51,5.55,6.8a23.51,23.51,0,0,0,4.26,5.72,9.44,9.44,0,0,0,4.21,2.24,8,8,0,0,0,1.3.15Z"/><path class="cls-6" d="M428.12,210.46l-.78-.23a11,11,0,0,0-2.25-.5,5.07,5.07,0,0,0-3.46.77,2.84,2.84,0,0,0-1.21,1.82,2.54,2.54,0,0,0,.7,2.29,2,2,0,0,0,1.21.48,2.59,2.59,0,0,0,1.33-.36,4.13,4.13,0,0,0,1.81-2.31,5.73,5.73,0,0,0-4.83-7.51,10,10,0,0,0-3.72.49,26.24,26.24,0,0,1-3.84.92,15.55,15.55,0,0,1-4.09,0,13.58,13.58,0,0,1-3.93-1.09,4.74,4.74,0,0,1-2.69-2.84,3.71,3.71,0,0,1,.91-3.62,3.19,3.19,0,0,1,3.51-.52,2.66,2.66,0,0,1,1.31,1.23,2.85,2.85,0,0,1,.27,1.72,3.9,3.9,0,0,1-1.75,2.74,5.61,5.61,0,0,1-2.95.82,8.85,8.85,0,0,1-2.81-.43,9.94,9.94,0,0,1-4.11-2.54,10.69,10.69,0,0,1-2.11-3,10.57,10.57,0,0,1-.74-2.2c-.09-.52-.13-.8-.13-.8s.07.27.17.79a10.86,10.86,0,0,0,.78,2.17,10.43,10.43,0,0,0,2.11,3,10.08,10.08,0,0,0,4.08,2.48,8.52,8.52,0,0,0,2.75.41,5.46,5.46,0,0,0,2.87-.81,3.71,3.71,0,0,0,1.66-2.62,2.57,2.57,0,0,0-1.48-2.75,3,3,0,0,0-3.29.49,3.51,3.51,0,0,0-.86,3.43,4.53,4.53,0,0,0,2.59,2.7,13.23,13.23,0,0,0,3.87,1.08,16,16,0,0,0,4,0,26.92,26.92,0,0,0,3.82-.92,10.26,10.26,0,0,1,3.79-.49A6,6,0,0,1,424,206.2a5.93,5.93,0,0,1,1.63,6.27,4.23,4.23,0,0,1-1.89,2.4,2.67,2.67,0,0,1-1.42.37,2,2,0,0,1-1.3-.52,2.66,2.66,0,0,1-.73-2.42,3,3,0,0,1,1.27-1.89,5.09,5.09,0,0,1,3.54-.76,11.36,11.36,0,0,1,2.26.54Z"/><path class="cls-7" d="M409.1,408.25,404.21,402l11.7-9.23,7.25,9.1-.69.62c-3.09,2.73-15.88,13.65-18.55,14.7C400.93,418.33,409.1,408.25,409.1,408.25Z"/><g class="cls-17"><path class="cls-9" d="M405.25,413.35s-2.69,3.75-1.8,4,14.23-10.32,19.71-15.49l-.23-.25L407.47,414S406,412.84,405.25,413.35Z"/></g><path class="cls-5" d="M423.11,401.44a1.07,1.07,0,0,1-.19.18l-.54.49-2.06,1.77c-1.74,1.49-4.17,3.5-6.91,5.67s-5.26,4.08-7.11,5.44l-2.19,1.59-.6.42a1.86,1.86,0,0,1-.22.14s.06-.06.19-.17l.59-.45,2.16-1.64c1.82-1.38,4.33-3.3,7.07-5.47s5.18-4.17,6.94-5.62l2.09-1.73.57-.47Z"/><path class="cls-5" d="M407.62,414.21a3.94,3.94,0,0,0-2.57-.94,2.41,2.41,0,0,1,2.57.94Z"/><path class="cls-5" d="M409.68,409.74a1.79,1.79,0,0,1-.72-.16c-.38-.13-.68-.28-.66-.33a1.79,1.79,0,0,1,.72.16C409.4,409.54,409.7,409.69,409.68,409.74Z"/><path class="cls-5" d="M410.23,408.49c0,.05-.28.07-.63.05s-.62-.08-.61-.13.28-.07.63-.05S410.24,408.44,410.23,408.49Z"/><path class="cls-5" d="M410,406.91s-.21.29-.55.56-.63.46-.66.42.21-.29.55-.56S409.93,406.87,410,406.91Z"/><path class="cls-5" d="M409.55,406a1.49,1.49,0,0,1-.52.74,1.6,1.6,0,0,1-.78.46c0-.05.3-.27.65-.6S409.51,405.94,409.55,406Z"/><path class="cls-5" d="M408.48,409a2.78,2.78,0,0,1-.75.59,6.35,6.35,0,0,1-.94.46,3.16,3.16,0,0,1-.61.17.53.53,0,0,1-.37-.09.37.37,0,0,1-.12-.39,1.75,1.75,0,0,1,2-.94,1.59,1.59,0,0,1,.64.31c.13.1.19.18.18.18a3,3,0,0,0-.85-.37,1.86,1.86,0,0,0-1,.09,1.5,1.5,0,0,0-.85.77c-.05.18.11.29.31.26a2.91,2.91,0,0,0,.56-.15,6.41,6.41,0,0,0,.93-.41C408.18,409.23,408.46,409,408.48,409Z"/><path class="cls-5" d="M408.32,409.22s-.27-.09-.5-.45a1.49,1.49,0,0,1-.23-.71,1,1,0,0,1,.32-.88.4.4,0,0,1,.51.16,1,1,0,0,1,.13.44,3.09,3.09,0,0,1,0,.74,1.46,1.46,0,0,1-.19.64s0-.25.06-.65a3.48,3.48,0,0,0,0-.7c0-.24-.18-.59-.39-.47s-.25.47-.25.71a1.6,1.6,0,0,0,.18.66A2.65,2.65,0,0,0,408.32,409.22Z"/><path class="cls-5" d="M420.34,398.43s-.36.24-.84.72a4.65,4.65,0,0,0-1.13,4.86c.22.64.47,1,.44,1a1.18,1.18,0,0,1-.19-.24,4,4,0,0,1-.37-.73,4.53,4.53,0,0,1-.19-2.68,4.58,4.58,0,0,1,1.35-2.32,4.37,4.37,0,0,1,.66-.49A.89.89,0,0,1,420.34,398.43Z"/><path class="cls-5" d="M415.28,394.53a23.84,23.84,0,0,1,2,2.32,25,25,0,0,1,1.86,2.43,27.38,27.38,0,0,1-2-2.32A29.64,29.64,0,0,1,415.28,394.53Z"/><path class="cls-5" d="M416.47,405.12a8.42,8.42,0,0,1-1.57,1.52,8.18,8.18,0,0,1-1.82,1.21s.77-.6,1.71-1.35S416.44,405.08,416.47,405.12Z"/><path class="cls-5" d="M418.76,403.31c.05,0,.07.21.13.44s.14.43.09.46-.2-.14-.27-.41S418.71,403.3,418.76,403.31Z"/><path class="cls-5" d="M418.77,401.55c.05,0,.07.19.05.4s-.08.39-.13.39-.07-.19-.05-.41S418.72,401.54,418.77,401.55Z"/><path class="cls-5" d="M419.62,400.08c0,.05-.13.17-.26.37s-.17.38-.22.38-.08-.24.07-.48S419.6,400,419.62,400.08Z"/><path class="cls-5" d="M420.32,399.15s0,.14-.05.26-.15.18-.2.16,0-.14.05-.25S420.27,399.13,420.32,399.15Z"/><g class="cls-8"><polygon points="420.08 398.13 408.25 407.17 407.15 405.75 419.59 397.32 420.08 398.13"/></g><path class="cls-7" d="M355.33,414.54l0-8,14.9,0,.09,11.63-.92.07c-4.11.24-20.92.94-23.67.12C342.68,417.44,355.33,414.54,355.33,414.54Z"/><g class="cls-17"><path class="cls-9" d="M349.15,416.18s-4.43,1.3-3.87,2,17.56.65,25.06,0l0-.33-19.84.25S350,416.21,349.15,416.18Z"/></g><path class="cls-5" d="M370.55,417.83a.79.79,0,0,1-.25,0l-.74.05-2.71.12c-2.28.1-5.44.18-8.94.2s-6.65,0-8.94-.11l-2.71-.1-.73,0-.26,0h1l2.7.05c2.29,0,5.45.07,8.94.05s6.65-.08,8.94-.14l2.71-.07.74,0Z"/><path class="cls-5" d="M350.48,418.33A5.82,5.82,0,0,0,350,417a6.54,6.54,0,0,0-.93-1,2.07,2.07,0,0,1,1.09.94A2,2,0,0,1,350.48,418.33Z"/><path class="cls-5" d="M354.87,416.08s-.25-.23-.47-.57-.36-.64-.32-.67.25.23.47.57S354.91,416.05,354.87,416.08Z"/><path class="cls-5" d="M356.07,415.43s-.27-.12-.52-.35-.44-.44-.41-.48.27.12.53.35S356.11,415.4,356.07,415.43Z"/><path class="cls-5" d="M356.83,414a1.77,1.77,0,0,1-.78.11,1.86,1.86,0,0,1-.78-.08,1.69,1.69,0,0,1,.78-.1A1.77,1.77,0,0,1,356.83,414Z"/><path class="cls-5" d="M357.09,413a1.49,1.49,0,0,1-.87.26,1.46,1.46,0,0,1-.89-.12,5.09,5.09,0,0,1,.88-.06A4.59,4.59,0,0,1,357.09,413Z"/><path class="cls-5" d="M354.36,414.78a2.71,2.71,0,0,1-1,0,7.31,7.31,0,0,1-1-.22,3.1,3.1,0,0,1-.58-.24.49.49,0,0,1-.24-.3.37.37,0,0,1,.14-.38,1.76,1.76,0,0,1,2.18.5,1.83,1.83,0,0,1,.31.64.58.58,0,0,1,0,.26,3,3,0,0,0-.44-.82,1.79,1.79,0,0,0-.82-.52,1.46,1.46,0,0,0-1.14.08c-.16.11-.1.29.07.39a3.65,3.65,0,0,0,.54.23,7.17,7.17,0,0,0,1,.25C354,414.75,354.36,414.75,354.36,414.78Z"/><path class="cls-5" d="M354.11,414.83a1,1,0,0,1-.11-.67,1.55,1.55,0,0,1,.26-.7,1,1,0,0,1,.79-.49.39.39,0,0,1,.3.44,1.1,1.1,0,0,1-.16.43,2.85,2.85,0,0,1-.45.58,1.29,1.29,0,0,1-.55.39s.19-.17.45-.48a2.6,2.6,0,0,0,.4-.57c.13-.2.22-.57,0-.61s-.48.22-.63.41a1.65,1.65,0,0,0-.27.62A3.34,3.34,0,0,0,354.11,414.83Z"/><path class="cls-5" d="M370.23,413.75s-.42,0-1.1.05a4.66,4.66,0,0,0-3.89,3.13c-.22.63-.24,1.06-.28,1.06a1.17,1.17,0,0,1,0-.3,4.28,4.28,0,0,1,.16-.8,4.52,4.52,0,0,1,1.5-2.23,4.6,4.6,0,0,1,2.5-1,4.08,4.08,0,0,1,.82,0Z"/><path class="cls-5" d="M368.66,407.56a55.15,55.15,0,0,1,.11,6.12,49.35,49.35,0,0,1-.11-6.12Z"/><path class="cls-5" d="M363.06,416.63a8.33,8.33,0,0,1-2.17.23,8.57,8.57,0,0,1-2.18-.17c0-.05,1,0,2.17,0S363.06,416.58,363.06,416.63Z"/><path class="cls-5" d="M366,416.61s-.08.21-.18.43-.15.43-.2.42-.08-.23,0-.49S366,416.58,366,416.61Z"/><path class="cls-5" d="M367.08,415.24s-.06.19-.22.35-.3.25-.34.22.06-.19.21-.35S367,415.21,367.08,415.24Z"/><path class="cls-5" d="M368.65,414.61c0,.05-.21.05-.43.13s-.37.19-.41.16.08-.24.35-.34S368.66,414.56,368.65,414.61Z"/><path class="cls-5" d="M369.77,414.31s-.07.12-.19.17-.24,0-.26,0,.07-.12.19-.17S369.75,414.26,369.77,414.31Z"/><g class="cls-8"><polygon points="370.35 413.16 355.32 413.17 355.34 411.38 370.29 411.28 370.35 413.16"/></g><path class="cls-15" d="M392.11,277.26l-6,18c-1.61,4.85-5.85,5.68-11,5.68H342v-7.45l30.32-4.33,7.23-18.45Z"/><path class="cls-15" d="M338.35,291.92l-2.64-1.25s-2.83-5.49-3.49-5.27-.84,1.84.3,4.36l-3.5-1s-7.58,3.5-7.25,4a1.75,1.75,0,0,0,2.61.74c1.65-.84,3.82-1.84,3.82-1.84l4.09,1.17-5.27.67-5,4.51a2.42,2.42,0,0,0,3-.08L338,300.68l4,.23v-7.45Z"/><path class="cls-16" d="M325.09,297.91c.06,0,.3-.34.76-.85a4.13,4.13,0,0,1,.94-.72,3.73,3.73,0,0,1,1.39-.36,19.87,19.87,0,0,0,3.86-.66,18.74,18.74,0,0,0-3.91.26,3.72,3.72,0,0,0-1.53.44,3.78,3.78,0,0,0-1,.86C325.19,297.47,325.05,297.89,325.09,297.91Z"/><path class="cls-16" d="M327.1,298.43s.09-.26.45-.34,1-.14,1.57-.2a14,14,0,0,0,2.26-.23,4.49,4.49,0,0,0-2.3-.17,6.87,6.87,0,0,0-1.62.33.65.65,0,0,0-.39.4C327,298.36,327.08,298.44,327.1,298.43Z"/><path class="cls-7" d="M394.92,273.34,392.37,282l-16.2-7.33c.58-1.81,3.26-9.88,8.39-22.67a22,22,0,0,1,16.79-13.53,96.22,96.22,0,0,1,15.51-1.53c9.08.1,22.46,5.78,24.25,14.69,1.37,6.79.05,18.79.05,33.37L440,312.85l-46.55,1.58Z"/><g class="cls-8"><path d="M441.11,278.54c-5.66,1.16-11.48,0-17.25-.35-3.5-.21-7.38-.58-10.15,1.57-2.19,1.7-3.08,4.57-3.71,7.28-2.41,10.31-2.85,17.23-3.4,27.81l28,1.7Z"/></g><path class="cls-5" d="M393.73,243.11s.46.07,1.24.37a6.5,6.5,0,0,1,2.68,2.17,9.13,9.13,0,0,1,1.6,4.85,31.31,31.31,0,0,1-.49,6.38,107.5,107.5,0,0,1-2.6,11.41c-.39,1.4-.7,2.55-.94,3.43a7.37,7.37,0,0,0-.3,1.27,10.06,10.06,0,0,0,.45-1.23c.26-.79.63-1.95,1.06-3.39A88.87,88.87,0,0,0,399.16,257a29.92,29.92,0,0,0,.46-6.48,9.13,9.13,0,0,0-1.75-5,6.38,6.38,0,0,0-2.85-2.15,4.51,4.51,0,0,0-.95-.21A1.26,1.26,0,0,0,393.73,243.11Z"/><path class="cls-5" d="M376.68,272.45a14.48,14.48,0,0,0,2.28,1.31c1.44.75,3.45,1.75,5.71,2.76s4.34,1.88,5.85,2.45a16.14,16.14,0,0,0,2.5.85,18.1,18.1,0,0,0-2.39-1.11c-1.49-.65-3.54-1.54-5.79-2.55s-4.29-2-5.75-2.66A20.13,20.13,0,0,0,376.68,272.45Z"/><path class="cls-5" d="M369.26,316.55a16.58,16.58,0,0,0-6.78,22.21L403,408.32,421.69,397l-31.46-62.8L413,319.35"/><path class="cls-5" d="M418.58,313.1l-55.61,2a16.59,16.59,0,0,0-16,16.84l2.31,79.43,23.39-.05-.78-75.1L418.58,335Z"/><path class="cls-6" d="M371.89,338.89a3.64,3.64,0,0,1,.06.74c0,.53.06,1.23.1,2.11.07,1.83.14,4.48.2,7.75.14,6.55.24,15.6.29,25.59s.1,19,.13,25.6c0,3.23,0,5.86,0,7.75v2.11a3.81,3.81,0,0,1,0,.74,3.81,3.81,0,0,1-.07-.73c0-.54-.05-1.24-.09-2.11-.07-1.83-.14-4.48-.21-7.76-.14-6.55-.23-15.6-.28-25.59s-.1-19-.13-25.59c0-3.24,0-5.87-.05-7.76,0-.88,0-1.58,0-2.11A3.91,3.91,0,0,1,371.89,338.89Z"/><path class="cls-6" d="M442.67,262.69H425.85A12.26,12.26,0,0,0,413.59,275v58.7H380a8.5,8.5,0,0,0-8.49,8.5h76.75v0a7,7,0,0,0,6.71-7V275A12.26,12.26,0,0,0,442.67,262.69Z"/><path class="cls-5" d="M418.48,264.63c.14,0,.26,17.25.26,38.52s-.12,38.53-.26,38.53-.26-17.25-.26-38.53S418.33,264.63,418.48,264.63Z"/><path class="cls-6" d="M416.35,403.76V342.18h-5.47v61.58c-3.34,6.58-11.19,11-20.75,14.68h48.76C429,414.42,420.05,411.33,416.35,403.76Z"/></g><g id="Plant"><path class="cls-5" d="M108.29,395.79a1.65,1.65,0,0,1,.15-.37c.12-.26.29-.6.49-1a25.9,25.9,0,0,0,1.44-4.18,36.8,36.8,0,0,0-.12-16.16,85.87,85.87,0,0,0-3-10.85c-1.26-3.85-2.74-7.93-3.94-12.35a47.75,47.75,0,0,1-2-14.2c.19-5,1.67-10,3.31-15s3.32-9.88,3.82-14.8a22.48,22.48,0,0,0-2.71-13.67c-2.16-4-4.89-7.39-6.93-10.93a38,38,0,0,1-4.16-10.51,39.08,39.08,0,0,1-.26-16.28,30,30,0,0,1,1.7-5.75s0,.13-.1.38-.2.64-.35,1.1a40.2,40.2,0,0,0-1.05,4.31,39.56,39.56,0,0,0,.42,16.16A37.48,37.48,0,0,0,99.23,282c2,3.5,4.76,6.89,7,10.93a23,23,0,0,1,2.8,13.94c-.51,5-2.21,9.92-3.84,14.91s-3.1,10-3.29,14.89a47.78,47.78,0,0,0,1.9,14.06c1.19,4.39,2.64,8.48,3.89,12.34a85.49,85.49,0,0,1,3,10.91,36.59,36.59,0,0,1,0,16.28,24.46,24.46,0,0,1-1.54,4.17c-.23.43-.41.77-.54,1A1.83,1.83,0,0,1,108.29,395.79Z"/><path class="cls-7" d="M101.62,285.7s-4.14-13.24,3.29-21a.46.46,0,0,1,.79.23C106.09,267.13,106.59,273.78,101.62,285.7Z"/><path class="cls-5" d="M104.1,269.12a12.36,12.36,0,0,1-.28,2.45l-.94,5.83c-.35,2.18-.66,4.16-.93,5.84a12.46,12.46,0,0,1-.44,2.42,10.59,10.59,0,0,1,.08-2.46c.14-1.52.4-3.6.78-5.88s.77-4.34,1.09-5.82A11.81,11.81,0,0,1,104.1,269.12Z"/><path class="cls-7" d="M106.48,316.91s2.54-13.63,12.72-17a.46.46,0,0,1,.59.57C119.12,302.59,116.44,308.7,106.48,316.91Z"/><path class="cls-5" d="M116.43,303.42a12.48,12.48,0,0,1-1.39,2c-1,1.36-2.23,3-3.57,4.72l-3.54,4.73a14,14,0,0,1-1.52,1.93,10,10,0,0,1,1.21-2.14c.83-1.28,2-3,3.44-4.83s2.71-3.48,3.69-4.64A11,11,0,0,1,116.43,303.42Z"/><path class="cls-7" d="M103.73,351.12s-1.54-13.78,7.23-20a.46.46,0,0,1,.73.37C111.66,333.74,110.88,340.37,103.73,351.12Z"/><path class="cls-5" d="M109.33,335.32a12.8,12.8,0,0,1-.74,2.34l-2,5.55c-.76,2.08-1.44,4-2,5.56a12.28,12.28,0,0,1-.89,2.29,10.81,10.81,0,0,1,.55-2.4c.42-1.46,1.08-3.45,1.88-5.62s1.59-4.12,2.19-5.51A10.84,10.84,0,0,1,109.33,335.32Z"/><path class="cls-7" d="M111.41,385.52s-1-13.83,7.93-19.7a.46.46,0,0,1,.72.4C120,368.44,118.93,375,111.41,385.52Z"/><path class="cls-5" d="M117.56,369.94a11.71,11.71,0,0,1-.82,2.31c-.64,1.58-1.4,3.43-2.24,5.48l-2.22,5.47a14,14,0,0,1-1,2.26,10.08,10.08,0,0,1,.63-2.38c.47-1.45,1.2-3.41,2.08-5.55s1.73-4,2.38-5.43A11.09,11.09,0,0,1,117.56,369.94Z"/><path class="cls-7" d="M95.67,274.07s-12.29-6.42-12.53-17.15a.46.46,0,0,1,.72-.4C85.69,257.79,90.75,262.14,95.67,274.07Z"/><path class="cls-5" d="M85.69,260.61a12,12,0,0,1,1.54,1.92l3.46,4.79,3.48,4.78a13,13,0,0,1,1.4,2,10.83,10.83,0,0,1-1.69-1.79c-1-1.17-2.26-2.83-3.61-4.71s-2.53-3.61-3.35-4.88A11.22,11.22,0,0,1,85.69,260.61Z"/><path class="cls-7" d="M108.87,302.49s-12.66-5.66-13.55-16.35a.46.46,0,0,1,.69-.44C97.91,286.85,103.23,290.88,108.87,302.49Z"/><path class="cls-5" d="M98.09,289.66a11.92,11.92,0,0,1,1.65,1.83l3.75,4.57,3.76,4.56a12.39,12.39,0,0,1,1.52,1.93,10.74,10.74,0,0,1-1.79-1.69c-1-1.1-2.43-2.68-3.89-4.47s-2.74-3.45-3.64-4.68A11.46,11.46,0,0,1,98.09,289.66Z"/><path class="cls-7" d="M101.59,334.2S92.9,323.39,97,313.47a.46.46,0,0,1,.82-.08C99,315.28,101.85,321.29,101.59,334.2Z"/><path class="cls-5" d="M97.84,317.87a11.77,11.77,0,0,1,.63,2.37L99.73,326c.47,2.16.9,4.11,1.27,5.77a12.74,12.74,0,0,1,.47,2.41,10.64,10.64,0,0,1-.83-2.32c-.42-1.46-.93-3.49-1.42-5.75s-.87-4.32-1.11-5.82A11,11,0,0,1,97.84,317.87Z"/><path class="cls-7" d="M110.2,371.51s-12.56-5.87-13.28-16.58a.46.46,0,0,1,.7-.43C99.5,355.68,104.75,359.81,110.2,371.51Z"/><path class="cls-5" d="M99.64,358.5a13,13,0,0,1,1.61,1.85l3.67,4.64,3.69,4.62a13.89,13.89,0,0,1,1.49,1.95,9.93,9.93,0,0,1-1.77-1.71c-1-1.12-2.38-2.73-3.81-4.54s-2.69-3.5-3.56-4.74A10.75,10.75,0,0,1,99.64,358.5Z"/><path class="cls-5" d="M135.22,317a1,1,0,0,1,0,.3c0,.24,0,.54,0,.89,0,.83-.09,2-.15,3.36-.17,3-.39,7.08-.66,12h0v0c-.9,5-3.46,10.58-6.89,16-2.52,4-5.16,7.59-7.43,11a76.78,76.78,0,0,0-5.58,9.21,39.43,39.43,0,0,0-2.6,6.76c-.23.83-.39,1.47-.49,1.92a2.85,2.85,0,0,1-.18.66,3.14,3.14,0,0,1,.08-.68c.06-.45.2-1.11.39-1.95a35.63,35.63,0,0,1,2.47-6.87,73.81,73.81,0,0,1,5.51-9.32c2.26-3.39,4.89-7,7.39-11,3.42-5.37,6-10.85,6.89-15.79v0c.35-4.92.64-9,.85-12q.16-2.11.27-3.36c0-.35.06-.64.09-.88A1,1,0,0,1,135.22,317Z"/><path class="cls-7" d="M127.74,348.53s5.32-12.81-1.37-21.2a.46.46,0,0,0-.8.16C125,329.63,123.88,336.21,127.74,348.53Z"/><path class="cls-5" d="M126.77,331.8a10.47,10.47,0,0,1,.42,2.42c.19,1.5.4,3.59.57,5.89s.24,4.41.24,5.93a9.75,9.75,0,0,1-.15,2.45,14.4,14.4,0,0,1-.21-2.44c-.12-1.7-.25-3.69-.4-5.9s-.29-4.2-.41-5.9A12.82,12.82,0,0,1,126.77,331.8Z"/><g class="cls-8"><path d="M127.74,348.53s5.32-12.81-1.37-21.2a.46.46,0,0,0-.8.16C125,329.63,123.88,336.21,127.74,348.53Z"/></g><path class="cls-7" d="M111.26,379.39s4.27-13.2-3.08-21a.46.46,0,0,0-.79.22C107,360.77,106.41,367.43,111.26,379.39Z"/><path class="cls-5" d="M108.94,362.79a11.15,11.15,0,0,1,.62,2.38c.31,1.48.69,3.54,1,5.83s.6,4.37.72,5.88a10.11,10.11,0,0,1,.05,2.47,14.38,14.38,0,0,1-.41-2.42c-.25-1.69-.55-3.67-.87-5.85s-.64-4.16-.89-5.85A12.13,12.13,0,0,1,108.94,362.79Z"/><g class="cls-8"><path d="M111.26,379.39s4.27-13.2-3.08-21a.46.46,0,0,0-.79.22C107,360.77,106.41,367.43,111.26,379.39Z"/></g><path class="cls-7" d="M134.52,332.88s11.36-8,10.21-18.63a.46.46,0,0,0-.76-.3C142.32,315.44,137.86,320.41,134.52,332.88Z"/><g class="cls-8"><path d="M134.52,332.88s11.36-8,10.21-18.63a.46.46,0,0,0-.76-.3C142.32,315.44,137.86,320.41,134.52,332.88Z"/></g><path class="cls-5" d="M142.68,318.24a11.6,11.6,0,0,1-1,2.27c-.65,1.37-1.59,3.24-2.69,5.28s-2.15,3.84-3,5.12a10.46,10.46,0,0,1-1.44,2,12.21,12.21,0,0,1,1.13-2.18c.81-1.5,1.77-3.25,2.83-5.19s2-3.7,2.82-5.2A11,11,0,0,1,142.68,318.24Z"/><path class="cls-7" d="M115.84,366.3s13.71-2.13,17.38-12.22a.46.46,0,0,0-.56-.6C130.53,354.09,124.34,356.59,115.84,366.3Z"/><g class="cls-8"><path d="M115.84,366.3s13.71-2.13,17.38-12.22a.46.46,0,0,0-.56-.6C130.53,354.09,124.34,356.59,115.84,366.3Z"/></g><path class="cls-5" d="M129.62,356.76a12.57,12.57,0,0,1-1.85,1.62c-1.19.94-2.86,2.21-4.74,3.55s-3.63,2.51-4.93,3.3a9.87,9.87,0,0,1-2.17,1.15,14.18,14.18,0,0,1,2-1.46l4.83-3.41,4.82-3.43A11.73,11.73,0,0,1,129.62,356.76Z"/><polygon class="cls-6" points="102.77 391.52 98.78 418.42 123.68 418.42 120.45 391.52 102.77 391.52"/><path class="cls-5" d="M121.45,399.86a98.46,98.46,0,0,1-10,.26,98.58,98.58,0,0,1-10-.26,95.23,95.23,0,0,1,10-.26A95.11,95.11,0,0,1,121.45,399.86Z"/><path class="cls-5" d="M121.94,402c0,.14-4.64.26-10.37.26s-10.37-.12-10.37-.26a101.33,101.33,0,0,1,10.37-.26A101.33,101.33,0,0,1,121.94,402Z"/></g></svg>