<svg width="127" height="177" viewBox="0 0 127 177" fill="none" xmlns="http://www.w3.org/2000/svg">
<path fill-rule="evenodd" clip-rule="evenodd" d="M110.239 30.4652C114.249 27.7289 117.487 23.9271 118.452 18.9552C119.694 5.27004 100.145 2.64998 94.8956 8.50972C89.1466 14.5782 84.769 32.6996 89.3953 35.2956C91.2403 36.3309 95.7928 36.22 100.776 34.8038L93.0067 52.9745L108.924 57.2294L110.239 30.4652Z" fill="#CFAF92"/>
<path fill-rule="evenodd" clip-rule="evenodd" d="M104.716 16.9502C101.849 25.1943 99.1082 28.9667 96.4934 28.2675C92.5709 27.2187 89.905 23.8628 88.1839 23.4026C86.9293 23.0672 86.792 24.6969 87.3141 26.072C87.7448 27.2065 90.84 29.0167 90.4441 30.4912C90.0482 31.9657 87.7146 30.119 87.4798 30.9935C87.0914 32.44 85.8971 35.0356 88.4323 35.7135C90.998 36.3996 98.6029 37.4407 100.876 34.0069C102.343 31.7908 104.223 26.8884 106.516 19.2999C106.677 19.3232 106.838 19.3561 106.999 19.3991C109.197 19.9869 110.505 22.2281 109.921 24.4051C109.624 25.5102 108.896 26.3863 107.964 26.9042C108.54 28.4378 109.211 30.0586 110.021 31.7626C115.173 30.3107 120.545 23.4643 118.195 14.8788C117.97 10.9208 115.774 8.25137 112.806 6.49094C110.494 4.71831 107.827 3.87499 105.375 3.91143C100.806 3.09637 96.4547 3.37868 95.1091 3.87748C93.9846 8.06566 94.4704 9.5274 101.499 11.2895C102.978 12.6489 103.884 14.5513 104.716 16.9502Z" fill="#191847"/>
<path fill-rule="evenodd" clip-rule="evenodd" d="M101.186 112.609L67.4669 197.505L44.8516 269.277H35.9213L70.4951 112.609L101.186 112.609Z" fill="#997659"/>
<path fill-rule="evenodd" clip-rule="evenodd" d="M107.975 112.609C108.334 142.442 113.57 182.608 114.407 184.467C114.965 185.707 134.218 201.473 172.168 231.764L166.017 238.312C121.24 212.341 97.8155 197.623 95.7435 194.159C92.6354 188.963 82.5165 141.15 74.3924 112.609H107.975Z" fill="#B28B67"/>
<path fill-rule="evenodd" clip-rule="evenodd" d="M78.5145 261.885L36.0554 257.301L67.5227 112.609H105.552L78.5145 261.885Z" fill="#69A1AC"/>
<path fill-rule="evenodd" clip-rule="evenodd" d="M163.386 221.201L135.535 253.994C106.201 222.123 89.0984 201.327 84.2287 191.607C79.3591 181.886 74.9815 155.554 71.096 112.609H113.91C116.032 150.39 117.463 170.159 118.202 171.917C118.941 173.676 134.002 190.103 163.386 221.201Z" fill="#89C5CC"/>
<path fill-rule="evenodd" clip-rule="evenodd" d="M48.6061 96.8623L24.2432 108.819C18.113 109.36 12.8781 110.453 8.5384 112.099C7.46234 112.776 6.04057 114.28 9.93939 114.663C13.8382 115.046 17.9221 115.623 18.2224 117.02C18.5227 118.418 15.9191 119.569 16.681 121.517C17.189 122.817 21.0883 120.469 28.379 114.475L51.3047 109.425L48.6061 96.8623ZM131.363 111.983L117.216 109.551C120.994 139.101 123.08 154.794 123.472 156.631C124.356 160.763 120.006 166.054 118.031 168.961C122.282 171.825 123.134 164.138 128.478 167.854C133.357 171.245 136.611 176.408 143.414 173.723C144.25 173.393 145.385 171.796 143.628 170.082C139.25 165.813 133.127 158.613 132.503 156.488C131.652 153.589 131.272 138.755 131.363 111.983Z" fill="#B28B67"/>
<path fill-rule="evenodd" clip-rule="evenodd" d="M101.591 45.9613L95.9181 43.935C70.9238 58.7538 55.6833 92.9889 25.7317 107.276L30.7398 116.292C77.8895 118.73 97.0448 77.0708 101.591 45.9613Z" fill="#E87613"/>
<path fill-rule="evenodd" clip-rule="evenodd" d="M114.18 123.522C90.7287 119.397 73.4785 116.362 62.4292 114.418C60.0645 114.002 61.11 110.686 61.7545 109.033C69.1934 89.959 88.3601 71.3589 93.3332 43.219L108.672 43.5181C117.53 65.4305 117.504 90.4858 114.18 123.522Z" fill="#DDE3E9"/>
<path fill-rule="evenodd" clip-rule="evenodd" d="M123.888 66.204C126.166 65.9659 128.138 64.823 129.805 62.7754C136.99 53.9488 135.972 48.214 130.454 45.4171C124.937 42.6203 119.093 45.3537 109.803 43.7195C109.298 43.6306 108.83 43.5806 108.398 43.5697L103.679 43.0127C82.289 85.8242 73.2655 115.311 76.6081 131.472L117.338 138.637C118.763 144.656 120.24 149.769 121.77 153.976L132.869 155.928C139.846 122.539 136.853 92.6306 123.888 66.204Z" fill="#FF9B21"/>
<path fill-rule="evenodd" clip-rule="evenodd" d="M112.575 113.876C109.411 124.306 105.963 131.672 102.229 135.976L117.345 138.635C115.683 131.615 114.093 123.362 112.575 113.876Z" fill="black" fill-opacity="0.1"/>
</svg>
