<svg width="154" height="181" viewBox="0 0 154 181" fill="none" xmlns="http://www.w3.org/2000/svg">
<path fill-rule="evenodd" clip-rule="evenodd" d="M89.9097 37.8702C93.2483 33.9569 95.5079 29.1611 95.1303 23.7873C94.0424 8.30388 72.4583 11.71 68.2597 19.5247C64.0611 27.3394 64.56 47.1621 69.9863 48.5588C72.1503 49.1158 76.7602 47.7514 81.4521 44.9274L78.5071 65.7324H95.896L89.9097 37.8702Z" fill="#CFAF92"/>
<path fill-rule="evenodd" clip-rule="evenodd" d="M60.5564 8.69138C60.9165 7.42745 61.885 6.34527 63.1903 6.02421C63.5068 5.94634 63.8337 5.91488 64.1594 5.928C64.2763 5.93265 64.309 5.96629 64.3636 5.88471C64.4041 5.82422 64.405 5.67646 64.4217 5.60538C64.4736 5.38434 64.5384 5.16606 64.6185 4.95343C64.8916 4.22822 65.3506 3.5864 65.9039 3.04574C66.9387 2.03425 68.3371 1.33617 69.7898 1.20988C70.585 1.1408 71.3743 1.2698 72.126 1.52808C72.5152 1.66179 72.8925 1.82828 73.2601 2.01235C73.3708 2.06775 73.7298 2.3391 73.8408 2.32152C73.9635 2.30214 74.21 1.99776 74.3097 1.92136C75.5425 0.97692 77.0647 0.605595 78.6002 0.616951C80.3333 0.629733 82.0021 0.716209 83.4475 1.77121C83.7535 1.99458 84.0449 2.23913 84.3224 2.49661C84.4685 2.63217 84.61 2.77281 84.745 2.9193C84.8264 3.00768 84.9057 3.09805 84.982 3.19084C85.1116 3.34835 85.0908 3.4001 85.2721 3.2902C85.9677 2.86818 86.7738 2.6708 87.5858 2.77044C88.0679 2.82964 88.537 2.97418 88.9824 3.16443C89.134 3.22919 89.485 3.48752 89.6467 3.49004C89.807 3.49251 90.1531 3.25304 90.3183 3.19217C91.2103 2.86333 92.1719 2.78227 93.1095 2.93422C94.0767 3.09102 95.0268 3.47636 95.8463 4.00885C96.2404 4.265 96.5843 4.5488 96.8606 4.92968C96.9798 5.09412 97.0876 5.26807 97.2228 5.42054C97.3019 5.50982 97.4586 5.60143 97.5011 5.71442C97.4757 5.64676 98.5589 5.22977 98.6611 5.20312C99.2056 5.0611 99.7601 5.08989 100.293 5.26513C101.296 5.59464 102.158 6.33358 102.867 7.09119C103.231 7.48033 103.55 7.91048 103.82 8.36875C103.95 8.58827 104.068 8.81406 104.177 9.04464C104.229 9.15635 104.264 9.29609 104.333 9.39672C104.422 9.52639 104.482 9.52886 104.644 9.5854C105.464 9.87248 106.213 10.3584 106.782 11.015C107.358 11.6793 107.732 12.4974 107.889 13.3588C107.898 13.4096 107.904 13.6199 107.934 13.6473C107.974 13.6852 108.139 13.6684 108.202 13.6758C108.418 13.7011 108.633 13.7388 108.844 13.7888C109.235 13.8811 109.615 14.0169 109.974 14.1945C111.376 14.8869 112.378 16.1848 112.868 17.6453C113.383 19.178 113.374 20.934 112.759 22.4381C112.659 22.681 112.541 22.9168 112.402 23.1399C112.317 23.2769 112.289 23.2772 112.345 23.4209C112.406 23.5807 112.519 23.736 112.592 23.8922C112.831 24.4019 112.999 24.9425 113.104 25.4946C113.277 26.4003 113.363 27.352 113.192 28.2646C113.113 28.6883 112.975 29.1025 112.764 29.4799C112.656 29.6724 112.531 29.8549 112.388 30.0237C112.315 30.1114 112.236 30.1951 112.154 30.2753C112.108 30.3211 112.046 30.3612 112.006 30.4124C111.909 30.5371 111.889 30.4345 111.939 30.6178C112.009 30.8739 112.168 31.1266 112.265 31.3759C112.366 31.6328 112.456 31.8931 112.539 32.1561C112.707 32.6885 112.849 33.2306 112.938 33.782C113.108 34.8407 113.078 35.9687 112.577 36.9403C112.363 37.3559 112.055 37.7205 111.682 38.0041C111.499 38.1429 111.301 38.2625 111.094 38.3607C110.987 38.4112 110.851 38.4329 110.803 38.5359C110.75 38.6466 110.828 38.8664 110.846 38.9902C111 40.067 111.077 41.1975 110.757 42.2527C110.461 43.2246 109.811 44.0827 108.968 44.6509C107.33 45.7529 105.123 45.6908 103.403 44.8085C102.955 44.5785 102.535 44.2929 102.161 43.9561C101.208 45.2371 99.2472 45.1966 97.8545 44.8316C96.1194 44.3768 94.7271 43.172 93.9249 41.589C92.828 42.9224 90.526 42.4898 89.7653 41.0433C89.5792 40.6893 89.4687 40.2991 89.4144 39.9042C89.3858 39.6966 89.404 39.4871 89.3825 39.2812C89.3551 39.0187 89.1795 38.7636 89.0786 38.5097C88.8821 38.0156 88.76 37.5051 88.7548 36.9721C88.752 36.6938 88.7873 36.4226 88.8139 36.1466C88.8377 35.8981 88.7687 35.6665 88.7295 35.4213C89.1745 35.4944 89.7166 35.3746 90.1359 35.2457C90.5473 35.1193 90.9327 34.7863 91.2231 34.4821C91.8974 33.7759 92.3093 32.8501 92.591 31.9286C93.2094 29.9062 92.9559 27.4798 90.9188 26.3699C89.9699 25.8528 87.1269 25.8545 85.9966 26.1101C84.8082 26.3788 83.461 28.9973 83.3947 29.2435C83.3536 29.3958 83.3743 29.5843 83.2341 29.6858C82.9262 29.909 82.4182 29.5217 82.1911 29.3306C81.7991 29.0007 81.5195 28.5617 81.2773 28.1168C80.7497 27.1475 80.3243 26.108 80.0238 25.0469C79.7922 24.2288 79.644 23.3852 79.3413 22.588C79.04 21.7947 78.565 21.0856 77.8265 20.6362C77.0232 20.1473 76.1024 19.8899 75.2205 19.5826C74.3463 19.2782 73.4872 18.906 72.8096 18.26C72.6607 18.1179 72.5159 17.967 72.396 17.7997C72.3013 17.6677 72.2078 17.4149 72.0635 17.3312C71.8393 17.2009 71.512 17.5396 71.3181 17.6626C70.3614 18.2693 69.5632 19.1156 68.9194 20.04C68.2793 20.9594 67.754 21.8441 67.3271 22.8707C67.0105 23.6321 66.8129 24.6073 66.256 25.2313C66.0074 25.5099 64.1594 25.6785 63.5609 25.4352C62.9623 25.1919 62.2915 24.5603 62.0906 24.1645C61.8849 23.7593 61.8358 23.3143 61.9236 22.8707C61.9753 22.6098 62.0809 22.366 62.1386 22.1097C62.1872 21.8944 62.2314 21.6909 62.3363 21.4937C62.5352 21.12 62.875 20.8513 63.2847 20.739C62.8583 20.3464 62.505 19.8767 62.2605 19.3517C62.0064 18.8062 61.7911 18.1429 61.73 17.5442C61.6803 17.0579 61.757 16.5541 62.0236 16.1362C62.3032 15.6979 62.7986 15.4119 63.2272 15.1384C62.5725 14.6269 62.0121 14.0048 61.5515 13.316C60.6556 11.9766 60.1014 10.2882 60.5564 8.69138Z" fill="#191847"/>
<path fill-rule="evenodd" clip-rule="evenodd" d="M40.2251 116.453L17.1136 133.4C10.8453 135.089 5.60834 137.19 1.40271 139.704C0.409256 140.608 -0.791412 142.439 3.32863 142.122C7.44868 141.806 11.7966 141.658 12.3651 143.061C12.9336 144.465 10.4404 146.143 11.5895 148.036C12.3556 149.299 15.975 146.134 22.4477 138.541L45.3342 129.064L40.2251 116.453ZM128.962 117.038L113.821 117.097C123.17 147.234 128.217 163.224 128.962 165.068C130.638 169.217 127.09 175.536 125.573 178.932C130.515 181.14 129.988 172.963 136.222 175.859C141.911 178.502 146.239 183.291 152.813 179.241C153.621 178.743 154.506 176.868 152.367 175.403C147.036 171.753 139.353 165.364 138.315 163.261C136.9 160.394 133.782 144.986 128.962 117.038Z" fill="#CFAF92"/>
<path fill-rule="evenodd" clip-rule="evenodd" d="M85.9334 53.5945L79.6682 52.5214C56.4226 72.5737 46.8748 111.097 18.3814 131.504L25.2395 139.993C74.6703 133.881 86.9222 86.8923 85.9334 53.5945Z" fill="#E87613"/>
<path fill-rule="evenodd" clip-rule="evenodd" d="M113.245 132.217C88.1241 132.217 69.6456 132.217 57.8097 132.217C55.2766 132.217 55.7539 128.564 56.1201 126.721C60.3462 105.449 76.8434 82.5199 76.8434 52.2404L92.8336 49.7366C106.06 70.9776 110.633 97.1297 113.245 132.217Z" fill="#DDE3E9"/>
<path fill-rule="evenodd" clip-rule="evenodd" d="M112.799 70.6157C115.122 69.9491 116.961 68.3943 118.317 65.9514C124.161 55.4206 122.05 49.6227 115.804 47.7169C109.559 45.811 103.989 49.7367 94.0373 49.7367C93.496 49.7367 93.0002 49.7706 92.55 49.8383L87.5443 50.1236C73.1822 98.7292 69.2212 131.158 75.6613 147.41H119.293C121.878 153.43 124.352 158.494 126.715 162.604H138.604C139.723 126.477 131.121 95.8144 112.799 70.6157Z" fill="#FF9B21"/>
<path fill-rule="evenodd" clip-rule="evenodd" d="M109.793 122.448C108.421 133.913 106.19 142.234 103.102 147.411H119.294C116.278 140.389 113.111 132.068 109.793 122.448H109.793Z" fill="black" fill-opacity="0.1"/>
</svg>
