<svg width="187" height="338" viewBox="0 0 187 338" fill="none" xmlns="http://www.w3.org/2000/svg">
<path fill-rule="evenodd" clip-rule="evenodd" d="M173.615 173.822C171.801 198.495 54.9147 271.138 54.2327 273.177C53.9296 274.082 66.0571 302.718 90.6151 359.082L80.3974 363.038C42.7296 303.344 24.8631 270.317 26.7978 263.956C29.5678 254.85 59.7981 224.892 117.489 174.084L173.615 173.822Z" fill="#B28B67"/>
<path fill-rule="evenodd" clip-rule="evenodd" d="M87.926 346.353L71.2441 352.403C36.0679 312.858 22.2797 280.229 24.7938 263.605C26.4699 252.521 56.5958 222.614 115.172 173.882L174.812 173.882C172.777 231.023 64.4375 273.394 62.9885 275.829C61.5394 278.264 75.8001 302.112 87.926 346.353Z" fill="#12B1AA"/>
<path fill-rule="evenodd" clip-rule="evenodd" d="M160.176 173.822L212.246 298.373L263.422 403.67H251.348L119.248 173.822H160.176Z" fill="#997659"/>
<path fill-rule="evenodd" clip-rule="evenodd" d="M258.801 381.796L231.972 386.809C211.228 356.422 124.413 231.824 114.894 173.822H174.622C206.409 215.752 239.027 350.906 258.801 381.796Z" fill="#1BC5BD"/>
<path fill-rule="evenodd" clip-rule="evenodd" d="M141.549 52.6211C144.744 46.2635 146.19 39.0881 143.89 32.0259C137.261 11.6777 109.308 23.4902 106.255 35.3562C103.202 47.2222 110.483 73.5734 118.262 73.6178C121.364 73.6356 127.122 70.2605 132.504 64.9054L135.472 93.7285L158.907 87.8831L141.549 52.6211Z" fill="#CFAF92"/>
<path fill-rule="evenodd" clip-rule="evenodd" d="M105.212 40.6017C105.106 39.1887 105.298 37.5424 105.437 36.1462C105.615 34.3462 106.136 32.6333 106.769 30.9838C107.96 27.8782 109.585 24.9369 111.542 22.3439C115.116 17.6076 120.294 14.0984 126.067 13.3788C128.982 13.0154 131.995 13.4002 134.776 14.5979C137.289 15.68 139.911 17.5416 142.689 17.0297C145.711 16.4725 147.789 13.1884 149.775 10.9851C152.014 8.5011 154.548 6.46614 157.565 5.16824C162.619 2.99425 168.008 3.52432 172.707 6.90365C177.707 10.4998 182.183 16.4862 181.151 23.1609C180.959 24.4016 180.589 25.4998 179.913 26.5017C179.294 27.4205 178.265 28.4904 178.228 29.7209C178.189 31.0289 179.609 32.3494 180.282 33.3528C181.247 34.7905 182.129 36.3321 182.39 38.0911C182.82 40.9797 181.703 44.1181 180.277 46.4427C178.826 48.8083 176.731 50.4798 174.329 51.6084C172.726 52.3619 171.048 52.9755 169.303 53.278C168.437 53.4282 167.627 53.3812 166.757 53.4005C165.91 53.4192 165.514 53.742 164.943 54.3475C162.288 57.1605 159.086 58.7912 155.362 59.4001C152.22 59.9138 148.486 60.0593 145.453 58.5944C142.085 56.9675 141.342 53.7507 141.145 50.1649C140.535 50.68 138.664 51.3715 139.474 49.7228C139.795 49.0699 140.601 48.6358 141.106 48.1727C141.695 47.6337 142.267 46.984 142.645 46.2496C144.172 43.2846 140.783 38.871 137.898 38.7239C133.612 38.5055 134.112 44.3135 131.628 46.4677C130.2 47.7063 128.206 46.9975 126.692 46.1437C124.664 44.9999 123.032 43.2213 121.545 41.3683C120.32 39.8424 119.143 38.2785 117.905 36.765C117.327 36.0582 115.452 34.1201 115.884 33.05C112.89 33.1976 110.004 35.1659 107.931 37.3205C107.074 38.2112 106.475 39.107 106.213 40.3672C106.157 40.6372 106.083 41.4169 105.773 41.5254C105.196 41.7275 105.238 40.9568 105.212 40.6017Z" fill="#191847"/>
<path fill-rule="evenodd" clip-rule="evenodd" d="M77.6386 165.11L45.9547 189.126C37.2912 191.616 30.0698 194.651 24.2905 198.232C22.9328 199.508 21.3097 202.07 27.0233 201.533C32.7368 200.995 38.7708 200.685 39.5941 202.613C40.4174 204.542 36.9958 206.925 38.6373 209.518C39.7316 211.246 44.6811 206.778 53.4859 196.112L85.0376 182.441L77.6386 165.11ZM200.874 163.767L179.85 164.217C193.56 205.701 200.954 227.71 202.034 230.244C204.462 235.946 199.688 244.778 197.663 249.514C204.578 252.451 203.65 241.146 212.375 245.003C220.34 248.523 226.466 255.047 235.496 249.282C236.606 248.573 237.791 245.956 234.784 243.981C227.293 239.058 216.471 230.402 214.979 227.517C212.944 223.582 208.242 202.332 200.874 163.767Z" fill="#CFAF92"/>
<path fill-rule="evenodd" clip-rule="evenodd" d="M139.592 77.001L130.866 75.6677C99.0709 103.985 86.7428 157.535 47.6691 186.471L57.3974 198.053C125.89 188.396 141.769 123.063 139.592 77.001Z" fill="#308AE7"/>
<path fill-rule="evenodd" clip-rule="evenodd" d="M179.416 185.157C144.532 185.766 118.872 186.214 102.437 186.501C98.919 186.563 99.4936 181.496 99.9576 178.936C105.312 149.392 127.667 117.256 126.936 75.3478L149.08 71.4945C167.959 100.573 174.941 136.658 179.416 185.157Z" fill="#DDE3E9"/>
<path fill-rule="evenodd" clip-rule="evenodd" d="M177.309 99.9083C180.518 98.9294 183.034 96.7329 184.858 93.3188C192.72 78.6019 189.649 70.6283 180.929 68.142C172.21 65.6557 164.57 71.2241 150.752 71.4654C150 71.4786 149.313 71.5375 148.689 71.6422L141.745 72.1584C122.975 139.78 118.258 184.76 127.593 207.098L188.182 206.04C191.917 214.308 195.474 221.258 198.854 226.889L215.363 226.6C216.045 176.571 203.36 134.341 177.309 99.9083Z" fill="#3699FF"/>
<path fill-rule="evenodd" clip-rule="evenodd" d="M174.386 171.72C172.757 187.621 169.861 199.192 165.697 206.432L188.182 206.04C183.825 196.394 179.226 184.954 174.386 171.72Z" fill="black" fill-opacity="0.1"/>
</svg>
