<svg width="298" height="233" viewBox="0 0 298 233" fill="none" xmlns="http://www.w3.org/2000/svg">
<g opacity="0.504511">
<path opacity="0.504511" fill-rule="evenodd" clip-rule="evenodd" d="M274.212 169.919C278.198 199.74 181.523 219.191 98.312 205.616C15.1014 192.042 -23.0717 139.032 16.635 110.786C56.3417 82.5398 270.225 140.098 274.212 169.919Z" fill="#F2F2F2"/>
</g>
<path fill-rule="evenodd" clip-rule="evenodd" d="M156.674 32.113C154.542 31.0555 151.699 32.282 152.885 35.0775C154.155 38.071 158.851 38.108 161.504 38.0486C161.238 38.0347 160.383 35.2896 160.091 34.8748C159.228 33.6511 157.985 32.7643 156.674 32.113ZM181.243 85.7843C181.78 86.2443 181.286 85.8274 181.243 85.7843V85.7843ZM154.62 45.6529C153.372 46.6069 153.312 48.2912 154.332 49.4312C155.545 50.7885 157.762 50.7391 159.416 50.6068C160.165 50.5469 164.161 50.2269 163.213 49.5729C163.286 49.6005 163.438 49.6673 163.601 49.758C163.689 50.0783 163.781 50.3974 163.877 50.7151C163.853 50.7288 163.833 50.7435 163.808 50.7572C163.835 50.7453 163.854 50.7324 163.878 50.7203C164.839 53.8955 166.207 56.9189 167.998 59.7473C167.328 59.4834 166.634 59.2837 165.93 59.1947C163.845 58.9311 159.46 60.5512 161.792 63.3271C164.028 65.9883 167.509 63.1333 170.046 62.7396C172.508 66.1751 175.221 69.4675 178.065 72.6499C177.891 72.7045 177.738 72.8182 177.651 72.9953C176.51 72.4164 175.321 71.5883 174.265 71.3641C172.741 71.041 169.617 70.8451 168.465 72.2091C167.049 73.8863 168.567 75.2486 170.24 75.5703C172.667 76.0368 175.843 74.8511 178.178 74.05C178.445 74.0972 178.737 74.019 178.911 73.8054C178.963 73.7885 179.014 73.7719 179.065 73.7557C181.945 76.9226 184.935 79.9849 187.907 82.9801C187.875 82.9785 187.844 82.9765 187.811 82.9748C187.035 82.4663 186.204 82.0491 185.302 81.8305C183.217 81.3222 180.764 81.3197 179.072 82.8286C177.386 84.331 176.789 86.9586 178.533 88.6456C182.023 92.0226 187.166 84.3229 188.926 84.0015C191.947 87.0134 195.14 89.8274 198.384 92.5846C198.016 92.4725 197.638 92.39 197.247 92.3529C194.067 92.0484 186.601 95.9484 190.504 99.7855C193.906 103.129 197.843 96.6934 200.585 94.4427C203.642 97.0126 206.715 99.5648 209.702 102.217C208.073 101.784 206.498 101.72 204.752 102.248C202.945 102.795 200.029 104.16 201.171 106.6C202.333 109.081 205.835 107.952 207.659 107.164C208.653 106.735 210.648 105.284 212.399 104.673C217.165 109.174 221.294 114.131 224.42 119.97C226.371 123.616 227.852 127.512 228.894 131.515C229.559 134.071 230.87 138.363 230.608 141.689C231.859 135.031 229.597 127.035 227.16 121.085C224.92 115.613 221.568 110.809 217.641 106.485C218.626 103.521 226.921 99.2455 221.962 96.4915C219.329 95.0354 216.632 97.4516 216.056 100.011C215.661 101.769 216.263 103.979 216.903 105.685C215.667 104.367 214.383 103.092 213.06 101.858C211.231 100.154 209.358 98.4985 207.468 96.8643C210.583 93.9373 213.531 85.5697 209.354 84.2012C203.186 82.1861 206.156 93.5999 206.586 95.7391C206.709 95.7463 206.804 95.7093 206.874 95.6302C206.839 95.8261 206.799 96.0356 206.75 96.2468C203.132 93.1352 199.46 90.0848 195.909 86.8988C196.229 86.6623 196.737 85.7587 197.137 85.2777C198.039 84.1934 198.902 83.0608 199.533 81.7923C200.529 79.7878 201.491 76.5905 198.849 75.4114C195.976 74.1268 194.611 77.7431 194.591 79.9003C194.578 81.3923 194.984 82.8096 195.196 84.272C195.262 84.7281 195.007 86.784 195.628 85.8996C195.599 86.2257 195.595 86.4619 195.609 86.6293C194.972 86.0545 194.339 85.4734 193.71 84.8881C193.74 84.8142 193.761 84.7336 193.766 84.6402C193.8 83.9971 193.153 83.7494 192.699 83.9377C191.869 83.1494 191.048 82.3512 190.241 81.5371C188.531 79.8123 186.797 78.0383 185.074 76.2266C185.448 75.9054 185.299 75.4608 185.649 75.1199C185.998 74.7798 186.685 74.5917 187.095 74.2758C188.128 73.4807 188.983 72.3223 189.602 71.1824C190.624 69.2987 191.945 65.3474 188.96 64.4496C185.883 63.5228 184.321 67.3264 184.123 69.7045C184.085 70.1652 184.429 74.3163 184.694 75.8237C181.506 72.4566 178.371 68.9632 175.531 65.409C176.392 65.401 178.834 63.6364 179.327 63.1549C180.532 61.9805 182.446 59.3855 180.335 58.0123C178.457 56.7943 176.143 58.5584 175.34 60.2729C175.208 60.5553 174.743 63.1829 174.707 64.3619C173.531 62.8547 172.41 61.3386 171.367 59.8177C170.671 58.8065 170.021 57.7685 169.412 56.7086C169.559 56.6256 169.697 56.4808 169.827 56.3008C172.958 55.7694 176.95 50.8836 173.272 49.1837C171.521 48.3754 169.622 50.0439 168.764 51.41C168.588 51.6894 168.304 53.0945 168.072 54.2028C166.322 50.6913 164.985 46.9737 163.967 43.162C164.239 43.0943 164.47 42.8861 164.501 42.5279C166.021 41.6612 167.221 40.9395 168.282 39.2728C168.942 38.2376 170.129 35.8725 168.192 35.2979C165.671 34.5503 164.087 38.401 163.881 40.2977C163.857 40.5178 163.858 41.1581 163.866 41.7449C163.779 41.733 163.69 41.7343 163.604 41.7497C163.025 39.3894 162.562 36.9988 162.195 34.6042C163.571 34.1613 163.809 26.9347 162.893 25.9057C160.845 23.6016 159.4 26.9299 159.51 28.689C159.639 30.7631 160.578 32.6499 161.698 34.3243C161.818 34.5016 161.783 34.493 161.814 34.246C161.832 34.3681 161.873 34.4582 161.933 34.5235C161.875 35.6153 161.763 36.7331 161.817 37.6992C161.972 40.4658 162.294 43.2486 162.762 45.9797C162.876 46.6439 163.006 47.3027 163.152 47.9558C162.046 47.0136 160.555 46.1764 159.972 45.9146C158.457 45.2358 156.124 44.5029 154.62 45.6529ZM230.785 141.698C230.715 142.663 230.541 143.546 230.216 144.275C230.46 143.445 230.647 142.583 230.785 141.698Z" fill="#E1E9D9"/>
<path opacity="0.2" fill-rule="evenodd" clip-rule="evenodd" d="M77.7316 -25.8876C79.2547 -26.6429 81.2852 -25.7669 80.4381 -23.7701C79.5308 -21.6318 76.1763 -21.6054 74.2817 -21.6478C74.4714 -21.6577 75.082 -23.6186 75.291 -23.9148C75.9075 -24.7889 76.7952 -25.4224 77.7316 -25.8876ZM60.1942 13.0729C59.6562 13.5329 60.1504 13.116 60.1942 13.0729V13.0729ZM79.5018 -15.9599C80.4126 -15.2706 80.4554 -14.0527 79.7107 -13.2279C78.824 -12.2461 77.2058 -12.281 75.9979 -12.376C75.4515 -12.419 72.534 -12.649 73.2258 -13.1222C73.1726 -13.1023 73.0615 -13.0539 72.9425 -12.9882C72.8784 -12.7566 72.8111 -12.5258 72.741 -12.2961C72.7581 -12.2862 72.7728 -12.2755 72.7911 -12.2656C72.7712 -12.2742 72.7573 -12.2836 72.7398 -12.2923C72.037 -9.99594 71.0372 -7.80927 69.7284 -5.76336C70.2178 -5.95442 70.7246 -6.09914 71.2386 -6.1637C72.7608 -6.35513 75.9622 -5.18522 74.2586 -3.1771C72.6251 -1.25201 70.0846 -3.31516 68.232 -3.59891C66.4336 -1.11379 64.4509 1.26795 62.3732 3.57019C62.5004 3.6096 62.6121 3.69178 62.676 3.81977C63.5093 3.40077 64.3776 2.8015 65.1487 2.63899C66.2613 2.40482 68.5427 2.26201 69.383 3.24789C70.4166 4.46013 69.3075 5.44578 68.0855 5.67898C66.3136 6.01722 63.9948 5.16103 62.2903 4.58259C62.0952 4.61684 61.8824 4.56045 61.7553 4.40603C61.7176 4.39383 61.68 4.38182 61.6433 4.37015C59.5393 6.66117 57.3549 8.87664 55.1838 11.0436C55.2069 11.0424 55.2299 11.041 55.254 11.0397C55.8203 10.6717 56.4276 10.3697 57.0858 10.2113C58.6084 9.84302 60.3997 9.84031 61.6346 10.9307C62.8648 12.0165 63.2997 13.9163 62.0259 15.1368C59.4762 17.58 55.7243 12.0142 54.4389 11.7825C52.2326 13.9615 49.8998 15.9975 47.5304 17.9924C47.7994 17.9112 48.0752 17.8514 48.3603 17.8245C50.6829 17.6031 56.1327 20.4204 53.2811 23.1964C50.7961 25.6155 47.9237 20.9633 45.9228 19.3368C43.6901 21.1962 41.4451 23.0429 39.2632 24.9615C40.4529 24.648 41.6025 24.6014 42.8774 24.9823C44.1967 25.3772 46.3253 26.3628 45.4903 28.1277C44.641 29.9225 42.0847 29.1073 40.7534 28.5383C40.0272 28.228 38.5716 27.18 37.2932 26.739C33.8113 29.995 30.795 33.581 28.5107 37.8046C27.0846 40.4418 26.002 43.259 25.2395 46.1543C24.7528 48.0024 23.7941 51.1063 23.9844 53.5112C23.0736 48.6977 24.7279 42.9152 26.5091 38.6114C28.1468 34.6538 30.5965 31.1791 33.4653 28.051C32.7469 25.9079 26.6922 22.8195 30.3137 20.8262C32.2369 19.7723 34.2051 21.5185 34.6244 23.3687C34.9125 24.6401 34.4718 26.238 34.0045 27.4724C34.9069 26.5188 35.8451 25.5959 36.8117 24.7036C38.1477 23.4703 39.5156 22.2728 40.8965 21.0904C38.623 18.975 36.4733 12.9256 39.5237 11.9345C44.028 10.4751 41.8553 18.7294 41.5404 20.2764C41.4511 20.2817 41.3816 20.255 41.3305 20.1978C41.3558 20.3395 41.3851 20.4909 41.4206 20.6437C44.0637 18.3923 46.746 16.1852 49.3399 13.8801C49.1064 13.7092 48.7354 13.056 48.4437 12.7083C47.7854 11.9246 47.1556 11.1059 46.6955 10.189C45.9687 8.73988 45.2682 6.42827 47.1972 5.57472C49.2952 4.64476 50.2906 7.25915 50.3044 8.81905C50.3138 9.8979 50.0166 10.9229 49.8616 11.9804C49.8131 12.3103 49.9983 13.7968 49.545 13.1575C49.5663 13.3933 49.5693 13.5641 49.5586 13.6851C50.0243 13.2692 50.4864 12.8488 50.9456 12.4254C50.9244 12.372 50.9087 12.3137 50.9051 12.2461C50.8808 11.7811 51.3533 11.6017 51.6846 11.7378C52.2905 11.1674 52.8906 10.5899 53.4799 10.001C54.7289 8.75315 55.996 7.46975 57.2544 6.15903C56.9817 5.92698 57.0904 5.60541 56.8353 5.35904C56.5806 5.11324 56.0789 4.97746 55.7794 4.74917C55.0262 4.17464 54.4017 3.33736 53.9502 2.51327C53.2048 1.15161 52.2421 -1.70512 54.422 -2.35541C56.6689 -3.02673 57.8078 -0.276899 57.9514 1.4426C57.9794 1.77571 57.726 4.77751 57.5326 5.86758C59.8611 3.43168 62.1514 0.904437 64.2265 -1.66666C63.5977 -1.67211 61.8157 -2.94714 61.4555 -3.29513C60.5766 -4.14389 59.1797 -6.01963 60.7218 -7.0134C62.093 -7.89482 63.7819 -6.62004 64.3675 -5.38056C64.4637 -5.17647 64.8025 -3.27658 64.8285 -2.42408C65.6874 -3.51437 66.5067 -4.61106 67.269 -5.71125C67.7774 -6.44269 68.2525 -7.19346 68.6971 -7.96015C68.5902 -8.02012 68.4896 -8.12473 68.3947 -8.25485C66.1088 -8.63798 63.1959 -12.1694 65.8818 -13.3999C67.1606 -13.9851 68.5465 -12.7793 69.1723 -11.7918C69.3005 -11.5898 69.5078 -10.5739 69.6765 -9.77257C70.9557 -12.3124 71.9335 -15.0011 72.6781 -17.7576C72.4792 -17.8065 72.3107 -17.957 72.2886 -18.2159C71.179 -18.8421 70.3028 -19.3635 69.5286 -20.5683C69.0476 -21.3166 68.1816 -23.0264 69.5962 -23.4426C71.437 -23.9841 72.5918 -21.2003 72.7417 -19.8289C72.7591 -19.6697 72.7583 -19.2067 72.752 -18.7824C72.8159 -18.791 72.8805 -18.7901 72.9438 -18.779C73.3674 -20.4859 73.7057 -22.2147 73.975 -23.9464C72.9705 -24.2661 72.7995 -29.4916 73.4687 -30.236C74.9647 -31.9028 76.0183 -29.4967 75.9378 -28.2247C75.8428 -26.7248 75.1559 -25.3602 74.3382 -24.149C74.2505 -24.0207 74.2755 -24.0269 74.2529 -24.2056C74.2403 -24.1173 74.2104 -24.0521 74.1662 -24.0049C74.2079 -23.2154 74.2897 -22.4072 74.2499 -21.7086C74.1357 -19.708 73.8994 -17.6956 73.5567 -15.7206C73.4734 -15.2403 73.378 -14.7639 73.2711 -14.2915C74.0789 -14.9733 75.1679 -15.5792 75.594 -15.7687C76.6998 -16.2601 78.404 -16.7909 79.5018 -15.9599ZM23.8035 53.3213C23.8569 53.9642 24.0154 54.5509 24.3275 55.0315C24.0984 54.4821 23.9266 53.9099 23.8035 53.3213Z" fill="#C1DEE2"/>
<g opacity="0.7">
<path opacity="0.7" fill-rule="evenodd" clip-rule="evenodd" d="M198.153 97.4591C204.075 97.1518 211.399 100.609 212.031 107.047C212.49 111.725 212.348 116.389 213.058 121.06C213.626 124.793 214.827 128.376 216.466 131.776C218.041 135.046 221.309 137.83 222.159 141.323C222.7 143.548 222.397 146.679 221.65 148.856C220.742 151.504 221.224 151.294 223.035 153.515C226.582 157.868 229.776 162.332 232.035 167.53C235.288 175.018 237.421 183.77 236.214 191.967C236.06 193.008 235.878 196.743 234.445 197.004C232.844 197.296 233.593 195.159 233.678 194.469C234.223 190.067 234.707 186.218 234.05 181.746C231.515 164.493 219.139 153.125 211.08 138.482C210.637 137.727 209.702 135.928 209.052 134.742C208.025 132.869 206.993 129.305 205.603 127.917C202.986 125.3 205.392 130.56 205.902 131.564C206.547 132.834 207.256 134.184 207.917 135.297C210.941 140.456 214.315 146.087 217.438 151.405C203.933 154.483 194.422 138.245 190.798 127.57C187.812 118.775 184.239 98.2116 198.153 97.4591Z" fill="#69A1AC"/>
<path opacity="0.7" fill-rule="evenodd" clip-rule="evenodd" d="M277.528 81.1261C267.628 81.9116 261.272 88.4449 258.314 97.5829C256.719 102.507 256.537 107.566 255.65 112.627C254.317 120.241 251.449 126.011 245.844 131.435C244.108 133.115 242.829 134.84 241.919 136.686C240.114 138.528 238.542 140.613 237.387 143.162C235.912 146.418 235.495 150.324 237.198 153.569C237.656 154.442 238.798 156.194 239.982 156.989C235.55 166.429 233.113 176.768 233.388 187.094C233.554 193.327 233.858 199.562 234.213 205.788C234.308 207.459 234.853 210.22 235.67 207.416C236.418 204.852 235.48 200.827 235.393 198.148C234.971 185.098 234.61 173.233 239.981 161.041C240.544 159.763 241.142 158.495 241.764 157.238C241.8 157.216 241.834 157.191 241.868 157.166C241.892 157.184 241.914 157.204 241.937 157.222C241.977 157.151 242.031 157.067 242.095 156.973C242.273 156.788 242.429 156.556 242.577 156.296C243.054 155.636 243.593 154.86 243.596 154.435C243.596 154.432 243.594 154.427 243.594 154.424C246.919 148.995 250.728 143.866 254.618 138.837C254.589 138.873 258.838 133.088 258.181 136.287C257.864 137.829 254.739 140.766 253.477 142.399C250.684 146.032 247.405 150.636 244.681 155.088C244.314 155.299 243.796 156.333 243.421 157.104C243.214 157.494 243.021 157.888 242.832 158.231C252.486 161.421 259.997 154.995 265.118 147.521C265.124 147.512 265.13 147.503 265.135 147.495C266.694 145.429 268.29 143.379 270.285 141.746C273.612 139.022 277.175 138.541 281.099 137.201C291.797 133.545 296.346 119.678 297.791 109.389C299.421 97.7812 291.448 79.9815 277.528 81.1261Z" fill="#89C5CC"/>
<path opacity="0.7" fill-rule="evenodd" clip-rule="evenodd" d="M257.972 48.6194C247.811 59.1955 242.902 73.8648 239.015 87.6554C234.674 103.058 231.806 118.698 231.696 134.712C231.624 145.234 231.338 155.821 231.952 166.33C232.17 170.062 232.542 173.801 233.133 177.493C233.182 177.797 234.506 186.041 235.772 184.12C236.492 183.027 234.415 175.568 234.258 174.325C233.376 167.327 233.171 160.278 233.214 153.229C233.284 141.624 232.942 130.079 234.118 118.517C234.294 116.79 234.432 114.977 234.842 113.288C235.278 111.493 234.723 112.277 236.141 111.566C237.519 110.875 239.222 110.974 240.651 110.107C246.322 106.668 249.223 97.8344 251.481 92.0386C254.063 85.4107 255.632 78.3431 256.886 71.3682C257.806 66.2436 258.464 61.1501 258.837 55.9595C258.954 54.3236 258.961 52.6129 259.283 51.0044C259.369 50.5705 259.804 49.8029 259.788 49.4187C259.755 48.6055 259.264 48.1272 259.224 47.4438C258.798 47.8266 258.381 48.2188 257.972 48.6194Z" fill="#89C5CC"/>
<path opacity="0.7" fill-rule="evenodd" clip-rule="evenodd" d="M202.568 189.529C202.568 207.02 216.745 221.198 234.234 221.198C251.723 221.198 265.9 207.02 265.9 189.529" fill="#89C5CC"/>
<path opacity="0.7" fill-rule="evenodd" clip-rule="evenodd" d="M236.775 189.63H235.102C235.218 187.531 235.371 185.435 235.722 183.359C237.064 175.419 241.261 163.756 250.466 162.468C250.806 162.42 252.055 162.412 253.568 162.5C254.285 162.1 255.089 161.857 255.935 161.801C263.772 161.224 272.525 167.547 276.305 174.127C279.353 179.433 278.839 186.399 276.957 192.036C275.696 195.809 272.945 201.19 268.358 201.242C262.618 201.308 262.341 194.213 262.23 190.066C262.082 184.551 261.386 179.748 257.041 175.989C256.029 175.114 254.922 174.343 253.899 173.48C252.298 172.129 250.528 170.745 250.321 168.509C250.037 165.424 251.778 164.869 254.436 165.442C254.889 165.54 259.454 167.588 258.778 165.969C258.572 165.475 257.818 165.083 256.867 164.789C254.405 164.521 251.47 164.211 250.626 164.396C241.518 166.394 237.972 179.011 237.03 187.027C236.929 187.893 236.846 188.761 236.775 189.63Z" fill="#69A1AC"/>
</g>
<g opacity="0.5">
<path opacity="0.5" fill-rule="evenodd" clip-rule="evenodd" d="M63.8537 39.6193C65.6766 37.0198 69.0594 30.418 71.6251 29.4891C73.2777 28.8908 72.7958 35.0796 72.8162 36.2596C72.8957 40.8251 72.4513 45.3616 71.9025 49.8887C70.9137 58.0533 67.6805 65.3245 63.246 72.2735C60.9641 75.8491 58.2876 79.4682 54.5805 81.6992C52.8741 82.7266 50.8209 82.8987 49.1358 83.7839C47.1732 84.8144 48.242 83.9813 47.3575 86.0266C46.1292 88.8663 45.7364 92.5298 45.168 95.5598C42.5586 109.469 36.2413 182.998 37.3365 197.146C37.4338 198.401 35.6853 198.7 35.598 197.169C35.1341 189.052 39.1486 132.838 41.174 114.455C43.1994 96.0713 45.249 79.8304 47.3041 73.4702C49.7973 65.7541 54.3002 56.4748 58.0485 49.2791C59.7895 45.9362 61.6873 42.7084 63.8537 39.6193Z" fill="#69A1AC"/>
<path opacity="0.5" fill-rule="evenodd" clip-rule="evenodd" d="M77.3837 129.782C82.1271 126.299 87.2616 132.872 82.9692 136.356C80.5963 138.281 78.1156 137.596 76.719 135.992C75.8124 137.097 74.9639 138.252 74.1485 139.228C71.6644 142.203 69.3165 145.248 67.0726 148.364C62.4112 154.838 58.4164 161.678 54.2397 168.393C50.1178 175.02 46.0288 181.68 42.2927 188.475C39.1278 194.232 34.9093 201.005 33.8257 207.316C35.4698 193.931 41.7083 181.066 49.1374 169.266C56.506 157.563 64.9623 144.782 76.3716 135.546C75.2104 133.838 75.1782 131.4 77.3837 129.782Z" fill="#C1DEE2"/>
<path opacity="0.5" fill-rule="evenodd" clip-rule="evenodd" d="M-12.6266 97.1383C-9.9722 97.6575 -5.63489 103.663 -3.44685 105.951C-0.846515 108.67 1.51264 111.568 3.73642 114.605C8.52376 121.14 12.8052 128.089 16.4459 135.336C22.3811 147.15 27.136 159.277 30.5869 172.141C32.6993 180.015 34.067 188.177 34.8775 196.282C35.0306 197.81 36.633 209.595 34.324 209.913C32.2474 210.199 32.8888 200.964 32.7886 199.708C31.6561 185.537 28.2636 171.749 23.5446 158.392C22.5167 155.483 21.5618 151.919 19.918 149.3C18.7342 147.414 19.9095 148.072 17.8292 147.358C16.0429 146.745 14.0077 146.895 12.1785 146.144C8.20472 144.514 5.02289 141.351 2.2338 138.168C-3.18638 131.983 -7.4816 125.292 -9.72052 117.367C-10.9625 112.973 -12.1038 108.554 -12.7372 104.024C-12.9011 102.853 -14.3363 96.804 -12.6266 97.1383Z" fill="#69A1AC"/>
<path opacity="0.5" fill-rule="evenodd" clip-rule="evenodd" d="M-2.15138 -2.77769C7.8473 14.5641 16.0638 33.6137 21.3693 52.908C24.5837 64.5982 26.8317 76.5941 29.0653 88.5033C32.5235 106.943 35.7946 125.382 36.7251 144.149C37.6612 163.025 39.5123 184.797 33.3319 202.978C36.419 184.519 33.4799 164.872 32.9595 146.299C32.7108 137.432 31.9901 128.652 31.0448 119.838C30.1274 111.287 28.6286 102.777 27.2329 94.2937C26.5531 90.1621 25.8391 86.0367 25.1121 81.9136C24.8951 80.6834 24.8034 77.0331 24.0232 76.1928C23.2379 75.3469 19.2311 75.002 17.9732 74.3814C15.4401 73.1313 13.0574 71.3556 10.9487 69.4794C6.90621 65.8827 3.38946 61.1831 0.613768 56.5505C-5.80848 45.8312 -8.37609 32.7499 -8.24631 20.3356C-8.22137 17.9253 -4.34545 -8.02959 -5.90208 -8.38701C-5.80836 -8.49679 -5.71971 -8.61013 -5.63611 -8.72803C-4.45761 -6.75466 -3.30115 -4.76791 -2.15138 -2.77769Z" fill="#89C5CC"/>
<path opacity="0.5" fill-rule="evenodd" clip-rule="evenodd" d="M105.767 59.7672C105.922 59.5447 106.926 57.9969 106.42 58.0958C107.45 57.8945 105.004 59.8028 107.569 58.6319C106.351 59.7822 107.054 61.2766 107.07 62.8248C107.097 65.3385 106.676 67.8316 106.203 70.2914C105.455 74.1795 104.341 77.9599 102.723 81.5763C99.1978 89.4574 93.2116 97.0443 86.1049 101.971C82.5965 104.404 79.1581 105.232 75.1567 106.352C72.6293 107.06 72.4289 108.367 71.0873 110.82C68.2943 115.929 65.551 121.019 63.0878 126.3C60.1466 132.606 57.2914 138.919 54.5981 145.336C45.5249 166.952 38.1401 189.346 34.2619 212.522C34.1669 198.865 37.326 184.799 41.311 171.781C44.2137 162.296 47.9926 153.154 52.0232 144.103C52.9999 141.911 54.4799 139.091 54.8947 136.67C55.1851 134.974 54.2972 133.343 53.8907 131.556C52.3058 124.599 52.4193 116.804 53.811 109.81C55.3455 102.097 59.7833 98.517 67.2903 97.4245C70.0358 97.0249 73.5253 97.1714 76.0428 96.0006C78.7855 94.7258 79.9169 90.5353 81.4765 87.8453C85.6656 80.6194 90.6429 73.6894 96.3581 67.601C97.9406 65.9151 99.6424 64.3596 101.448 62.918C102.586 62.0084 104.991 60.8877 105.767 59.7672Z" fill="#89C5CC"/>
<path opacity="0.5" fill-rule="evenodd" clip-rule="evenodd" d="M21.5896 197.772H48.2313C49.4292 197.772 50.4003 198.743 50.4003 199.941C50.4003 200.047 50.3925 200.153 50.3771 200.258L48.3179 214.222C47.6902 218.479 44.0376 221.632 39.7351 221.632H30.0859C25.7834 221.632 22.1308 218.479 21.5031 214.222L19.4439 200.258C19.2691 199.072 20.0881 197.97 21.2732 197.795C21.3779 197.78 21.4837 197.772 21.5896 197.772Z" fill="#C1DEE2"/>
</g>
<path fill-rule="evenodd" clip-rule="evenodd" d="M-2.43066 204.911C-2.43066 214.146 -1.70196 221.632 8.07898 221.632C17.8599 221.632 18.5886 214.146 18.5886 204.911" fill="#F2F2F2"/>
<path fill-rule="evenodd" clip-rule="evenodd" d="M10.9887 199.149C10.6302 199.769 10.3105 200.401 10.0281 201.043C10.0182 199.721 10.0913 198.39 10.2908 197.04C10.632 194.728 11.153 192.428 11.6426 190.132C11.9945 188.481 11.9723 185.517 13.3077 184.202C13.6739 183.918 13.7621 184.476 13.7621 184.718C13.7667 184.769 13.7611 183.73 13.4056 183.911C11.2928 185.002 10.6082 188.434 9.9318 190.152C8.9449 192.659 8.1052 195.223 7.75946 197.832C7.67206 198.491 7.62453 199.15 7.61354 199.808C7.54174 199.632 7.47428 199.454 7.39966 199.279C6.18022 196.419 4.53455 193.628 2.48206 191.054C1.97686 190.421 -4.37559 184.171 -4.87287 185.128C-4.8238 185.267 -4.72108 185.382 -4.56443 185.474C-4.55523 185.484 -4.55498 185.478 -4.56034 185.463C-4.18726 186.066 -3.12651 186.996 -2.7961 187.525C-1.96458 188.854 -1.31832 190.264 -0.661582 191.647C0.725996 194.571 2.01315 197.524 3.26095 200.483C3.55149 201.173 3.85431 201.858 4.16325 202.542C0.978468 197.947 -3.27013 193.777 -9.11865 191.389C-7.1211 192.406 -5.81146 194.318 -4.46247 195.782C-2.83545 197.548 -1.12181 199.266 0.508277 201.03C2.43095 203.111 4.69324 205.302 6.54258 207.605C8.33391 211.366 10.0746 215.131 11.1492 219.085C10.7089 217.719 11.1147 215.831 11.0393 214.398C10.9795 213.257 10.8461 212.125 10.6634 210.995C10.8893 211.505 11.084 212.015 11.1722 212.489C11.0917 211.693 10.9989 210.903 10.8993 210.117C11.1551 209.38 11.4063 208.693 11.5759 208.127C12.4455 205.225 13.481 202.372 14.891 199.591C16.1958 197.019 17.6925 194.479 19.3234 192.017C20.0841 190.869 20.8553 189.726 21.6217 188.58C22.1233 187.83 22.6009 186.63 23.2993 185.911C18.785 190.039 13.8528 194.196 10.9887 199.149Z" fill="#F2F2F2"/>
<path fill-rule="evenodd" clip-rule="evenodd" d="M284.828 10.7191C283.534 6.40204 280.495 3.02314 277.341 -0.0727915C271.201 -6.09984 267.899 -9.82632 265.71 -18.6428C264.423 -23.8279 263.113 -29.3227 259.031 -33.0846C256.059 -35.824 250.944 -38.1257 246.969 -36.164C240.854 -32.5138 239.212 -25.023 239.828 -18.3155C240.593 -10.0019 244.476 -4.87581 251.935 -1.81374C256.139 -0.0891611 258.933 2.18637 261.214 6.15151C263.039 9.32213 264.104 13.2924 266.397 16.1667C269.826 20.4633 274.117 22.3734 279.406 21.6597C274.452 12.5444 268.664 3.34351 261.683 -4.33114C261.029 -5.10272 257.175 -8.05594 257.952 -9.37091C258.809 -10.8188 262.766 -5.37997 262.738 -5.41283C264.766 -3.08384 266.644 -0.608932 268.487 1.88973C268.482 1.89216 268.477 1.89349 268.472 1.89606C270.37 4.46003 272.253 7.06175 274.1 9.69612C274.847 10.8104 275.574 11.939 276.27 13.0959C277.291 14.7934 278.912 19.6114 280.583 20.6552C280.941 20.8784 281.272 21.0031 281.581 21.0546C282.721 22.9219 283.831 24.8042 284.886 26.7088C287.642 31.683 290.007 36.935 291.093 42.551C291.41 44.19 291.186 50.3215 292.304 51.5047C294.35 53.6691 293.751 49.5012 293.628 48.2432C292.612 37.8256 288.873 28.9503 283.443 20.1922C285.111 18.0135 285.352 12.4683 284.828 10.7191Z" fill="#E1E9D9"/>
<path fill-rule="evenodd" clip-rule="evenodd" d="M214.77 15.7526C216.927 13.2116 222.11 12.7805 225.281 12.9506C229.204 13.161 233.233 14.1161 236.966 15.271C243.114 17.1732 249.088 20.6445 254.503 24.0043C255.155 24.4092 263.195 29.2443 262.483 30.0928C261.778 30.9335 253.886 25.1901 252.127 24.2002C248.374 22.0873 244.932 19.5884 240.794 18.1931C236.511 16.748 231.98 16.1758 227.475 16.2153C226.897 16.2204 225.011 15.8173 224.971 16.6727C224.931 17.5093 228.051 17.0728 228.602 17.0778C230.874 17.0987 233.161 17.3126 235.401 17.7065C239.599 18.4444 243.545 19.9309 247.14 22.211C246.137 24.5436 243.732 25.6191 241.21 25.0354C239.029 24.5306 236.904 23.2862 234.769 22.9264C233.299 22.6786 231.827 22.826 230.401 23.2403C226.64 24.3334 224.471 26.5727 220.336 25.015C217.094 23.7939 211.673 19.4069 214.77 15.7526Z" fill="#D9DFD1"/>
<path fill-rule="evenodd" clip-rule="evenodd" d="M122.907 40.0962C119.215 35.7716 116.715 30.4718 117.133 24.5332C118.336 7.42236 142.21 11.1865 146.854 19.8226C151.497 28.4587 150.946 50.3648 144.944 51.9083C142.55 52.5238 137.451 51.016 132.262 47.8952L135.519 70.8869H116.286L122.907 40.0962Z" fill="#B28B67"/>
<path fill-rule="evenodd" clip-rule="evenodd" d="M138.372 21.075C135.762 22.5317 133.904 25.2612 131.668 28.8414C131.124 28.6278 130.531 28.5106 129.91 28.5106C127.255 28.5106 125.102 30.6584 125.102 33.3079C125.102 34.6529 125.657 35.8687 126.551 36.7397C125.438 38.3065 124.191 39.9433 122.762 41.6322C117.43 38.4406 113.465 29.1385 118.556 20.1586C122.936 2.17123 147.756 13.3358 152.531 10.3022C153.575 16.8295 150.208 22.0926 138.372 21.075Z" fill="#191847"/>
<path fill-rule="evenodd" clip-rule="evenodd" d="M115.512 140.3L154.845 239.626L181.226 323.598H191.644L151.313 140.3L115.512 140.3Z" fill="#997659"/>
<path fill-rule="evenodd" clip-rule="evenodd" d="M107.592 140.3C107.173 175.204 101.065 222.196 100.089 224.372C99.4382 225.822 76.9786 244.268 32.71 279.708L39.8849 287.369C92.1178 256.983 119.443 239.764 121.86 235.711C125.485 229.632 137.289 173.692 146.766 140.3H107.592Z" fill="#B28B67"/>
<path fill-rule="evenodd" clip-rule="evenodd" d="M141.958 314.949L191.487 309.586L154.78 140.3H110.418L141.958 314.949Z" fill="#69A1AC"/>
<path fill-rule="evenodd" clip-rule="evenodd" d="M42.9551 267.349L75.4432 305.716C109.662 268.428 129.612 244.098 135.292 232.725C140.973 221.352 146.079 190.544 150.612 140.3H100.669C98.1933 184.502 96.5244 207.632 95.6625 209.689C94.8005 211.746 77.2314 230.966 42.9551 267.349Z" fill="#89C5CC"/>
<path fill-rule="evenodd" clip-rule="evenodd" d="M187.816 130.635L211.368 153.411C218.221 156.308 223.835 159.508 228.212 163.009C229.197 164.186 230.268 166.441 225.637 165.432C221.006 164.423 216.089 163.568 215.219 165.061C214.348 166.554 216.913 168.842 215.304 170.796C214.232 172.098 210.625 167.955 204.485 158.366L179.994 144.052L187.816 130.635ZM72.6483 110.022L90.8538 110.09C76.9879 154.622 69.6275 177.939 68.7725 180.039C66.8487 184.765 70.9197 191.963 72.6606 195.831C66.9905 198.347 67.5946 189.032 60.4419 192.331C53.9132 195.342 48.9468 200.797 41.4038 196.184C40.4764 195.616 39.4602 193.481 41.9156 191.812C48.0328 187.654 56.8481 180.376 58.0391 177.981C59.6634 174.715 64.5331 152.062 72.6483 110.022Z" fill="#B28B67"/>
<path fill-rule="evenodd" clip-rule="evenodd" d="M128.124 58.8278L135.313 57.6054C146.638 97.29 204.826 124.341 208.399 139.176C209.709 144.616 205.759 147.366 207.799 149.023L198.454 155.804C196.872 153.974 193.495 157.322 186.443 154.98C179.391 152.638 128.124 105.818 128.124 58.8278Z" fill="#DB2721"/>
<path fill-rule="evenodd" clip-rule="evenodd" d="M140.217 64.0734C139.376 116.638 170.028 130.041 163.202 151.122C157.566 168.527 103.624 187.237 94.2896 170.176C90.5111 163.27 88.7968 154.918 88.6023 145.837C86.2167 152.813 84.3299 158.819 82.9419 163.854C80.5476 172.541 71.2651 173.922 71.2651 177.268L59.0355 173.922C59.865 169.376 54.0997 167.162 55.6456 157.005C62.5718 111.497 81.1815 78.51 111.475 58.0435L111.797 53.5031C111.921 51.7423 113.452 50.4148 115.217 50.5371L115.217 50.5342L137.85 52.1002C139.616 52.2226 140.948 53.7503 140.825 55.5124C140.825 55.5133 140.825 55.5143 140.825 55.5153L140.217 64.0734Z" fill="#FF4133"/>
</svg>
