<svg width="227" height="321" viewBox="0 0 227 321" fill="none" xmlns="http://www.w3.org/2000/svg">
<path fill-rule="evenodd" clip-rule="evenodd" d="M148.519 147.604L113.348 239.654L88.6946 307.5H74.6375L108.525 147.604L148.519 147.604Z" fill="#1F28CF"/>
<path fill-rule="evenodd" clip-rule="evenodd" d="M157.212 147.604C157.594 179.189 157.318 221.712 158.209 223.68C158.803 224.993 177.274 239.948 213.623 268.544L206.378 280.73C163.223 253.205 140.542 237.609 138.336 233.941C135.027 228.44 118.4 177.82 109.75 147.604H157.212Z" fill="#2B44FF"/>
<path fill-rule="evenodd" clip-rule="evenodd" d="M226.368 276.719L214.159 267.533L204.275 279.181C203.501 287.951 200.55 297.79 195.422 308.699L197.657 310.554L215.543 289.476L220.543 281.338L221.661 282.265L226.368 276.719Z" fill="#191847"/>
<path fill-rule="evenodd" clip-rule="evenodd" d="M89.9992 320.523L89.2677 305.329H73.9061C66.622 310.394 57.1125 314.494 45.3774 317.629V320.523H73.1746L82.6842 319.076V320.523H89.9992Z" fill="#191847"/>
<path fill-rule="evenodd" clip-rule="evenodd" d="M137.678 59.87C141.049 55.9568 143.33 51.161 142.949 45.7872C141.851 30.3038 120.059 33.7099 115.82 41.5246C111.581 49.3393 112.085 69.162 117.563 70.5587C119.748 71.1157 124.402 69.7512 129.139 66.9273L126.166 87.7323H143.722L137.678 59.87Z" fill="#CFAF92"/>
<path fill-rule="evenodd" clip-rule="evenodd" d="M108.043 30.6913C108.406 29.4273 109.384 28.3451 110.702 28.0241C111.022 27.9462 111.352 27.9148 111.681 27.9279C111.798 27.9325 111.832 27.9662 111.887 27.8846C111.928 27.8241 111.928 27.6763 111.945 27.6053C111.998 27.3842 112.063 27.1659 112.144 26.9533C112.42 26.2281 112.883 25.5863 113.442 25.0456C114.487 24.0341 115.898 23.3361 117.365 23.2098C118.168 23.1407 118.965 23.2697 119.724 23.528C120.117 23.6617 120.498 23.8282 120.869 24.0122C120.98 24.0676 121.343 24.339 121.455 24.3214C121.579 24.302 121.828 23.9976 121.928 23.9212C123.173 22.9768 124.71 22.6055 126.26 22.6168C128.01 22.6296 129.695 22.7161 131.154 23.7711C131.463 23.9945 131.757 24.239 132.037 24.4965C132.185 24.632 132.328 24.7727 132.464 24.9192C132.546 25.0076 132.626 25.0979 132.703 25.1907C132.834 25.3482 132.813 25.4 132.996 25.2901C133.698 24.8681 134.512 24.6707 135.332 24.7703C135.819 24.8295 136.292 24.9741 136.742 25.1643C136.895 25.2291 137.25 25.4874 137.413 25.4899C137.575 25.4924 137.924 25.2529 138.091 25.1921C138.992 24.8632 139.962 24.7821 140.909 24.9341C141.885 25.0909 142.845 25.4762 143.672 26.0087C144.07 26.2649 144.417 26.5487 144.696 26.9296C144.816 27.094 144.925 27.2679 145.062 27.4204C145.142 27.5097 145.3 27.6013 145.343 27.7143C145.317 27.6466 146.411 27.2297 146.514 27.203C147.064 27.061 147.624 27.0898 148.162 27.265C149.174 27.5945 150.045 28.3335 150.76 29.0911C151.128 29.4802 151.449 29.9104 151.722 30.3686C151.853 30.5881 151.973 30.8139 152.082 31.0445C152.135 31.1562 152.171 31.296 152.24 31.3966C152.331 31.5263 152.391 31.5287 152.554 31.5853C153.383 31.8724 154.138 32.3583 154.713 33.0149C155.295 33.6792 155.672 34.4972 155.831 35.3587C155.84 35.4095 155.845 35.6198 155.876 35.6472C155.917 35.685 156.083 35.6683 156.146 35.6756C156.365 35.701 156.581 35.7386 156.795 35.7887C157.189 35.881 157.573 36.0168 157.936 36.1944C159.351 36.8867 160.362 38.1847 160.858 39.6452C161.377 41.1779 161.368 42.9339 160.747 44.438C160.647 44.6809 160.527 44.9167 160.387 45.1398C160.301 45.2767 160.273 45.2771 160.329 45.4208C160.391 45.5806 160.505 45.7359 160.579 45.8921C160.821 46.4018 160.989 46.9424 161.096 47.4945C161.271 48.4001 161.357 49.3519 161.185 50.2645C161.105 50.6882 160.965 51.1024 160.752 51.4798C160.644 51.6723 160.517 51.8548 160.373 52.0236C160.299 52.1112 160.22 52.195 160.137 52.2752C160.09 52.321 160.028 52.3611 159.988 52.4122C159.889 52.537 159.869 52.4344 159.919 52.6176C159.99 52.8738 160.151 53.1265 160.249 53.3758C160.35 53.6326 160.442 53.893 160.525 54.156C160.695 54.6884 160.838 55.2305 160.928 55.7819C161.1 56.8406 161.07 57.9686 160.564 58.9402C160.347 59.3558 160.037 59.7204 159.66 60.004C159.476 60.1428 159.276 60.2623 159.066 60.3606C158.959 60.4111 158.821 60.4328 158.772 60.5357C158.719 60.6465 158.798 60.8663 158.816 60.9901C158.971 62.0668 159.049 63.1974 158.726 64.2526C158.428 65.2245 157.771 66.0826 156.919 66.6507C155.267 67.7528 153.038 67.6907 151.302 66.8084C150.849 66.5784 150.425 66.2928 150.048 65.956C149.085 67.237 147.106 67.1964 145.7 66.8314C143.948 66.3767 142.542 65.1719 141.732 63.5889C140.625 64.9223 138.301 64.4897 137.533 63.0432C137.345 62.6891 137.233 62.299 137.178 61.9041C137.149 61.6965 137.168 61.487 137.146 61.2811C137.118 61.0186 136.941 60.7635 136.839 60.5096C136.641 60.0155 136.518 59.505 136.512 58.972C136.51 58.6937 136.545 58.4225 136.572 58.1464C136.596 57.8979 136.526 57.6664 136.487 57.4211C136.936 57.4943 137.483 57.3745 137.907 57.2456C138.322 57.1192 138.711 56.7862 139.004 56.482C139.685 55.7758 140.101 54.85 140.385 53.9285C141.01 51.9061 140.754 49.4797 138.697 48.3698C137.739 47.8527 134.869 47.8544 133.728 48.11C132.528 48.3787 131.168 50.9972 131.101 51.2433C131.059 51.3957 131.08 51.5842 130.939 51.6857C130.628 51.9089 130.115 51.5216 129.886 51.3304C129.49 51.0005 129.207 50.5616 128.963 50.1167C128.43 49.1474 128.001 48.1079 127.697 47.0468C127.464 46.2287 127.314 45.3851 127.008 44.5878C126.704 43.7945 126.225 43.0855 125.479 42.6361C124.668 42.1472 123.738 41.8897 122.848 41.5825C121.965 41.278 121.098 40.9059 120.414 40.2599C120.263 40.1178 120.117 39.9668 119.996 39.7996C119.901 39.6675 119.806 39.4148 119.661 39.3311C119.434 39.2008 119.104 39.5395 118.908 39.6625C117.942 40.2692 117.136 41.1154 116.486 42.0399C115.84 42.9593 115.31 43.844 114.879 44.8706C114.559 45.632 114.359 46.6071 113.797 47.2311C113.546 47.5098 111.681 47.6783 111.076 47.4351C110.472 47.1918 109.795 46.5602 109.592 46.1644C109.384 45.7592 109.334 45.3141 109.423 44.8706C109.475 44.6096 109.582 44.3659 109.64 44.1096C109.689 43.8943 109.734 43.6908 109.84 43.4936C110.041 43.1198 110.384 42.8512 110.797 42.7389C110.367 42.3463 110.01 41.8766 109.763 41.3515C109.507 40.8061 109.289 40.1427 109.228 39.5441C109.178 39.0578 109.255 38.554 109.524 38.1361C109.806 37.6978 110.307 37.4118 110.739 37.1383C110.078 36.6268 109.513 36.0047 109.047 35.3159C108.143 33.9765 107.583 32.2881 108.043 30.6913Z" fill="#191847"/>
<path fill-rule="evenodd" clip-rule="evenodd" d="M87.516 138.453L64.1823 155.4C57.8537 157.089 52.5664 159.19 48.3203 161.704C47.3173 162.608 46.1051 164.439 50.2647 164.122C54.4244 163.806 58.8141 163.658 59.3881 165.061C59.962 166.465 57.4448 168.143 58.605 170.036C59.3785 171.298 63.0327 168.133 69.5676 160.541L92.6742 151.064L87.516 138.453ZM177.106 139.037L161.819 139.097C171.258 169.234 176.353 185.224 177.106 187.068C178.798 191.217 175.217 197.536 173.685 200.932C178.674 203.14 178.142 194.963 184.435 197.858C190.18 200.502 194.549 205.291 201.186 201.241C202.002 200.743 202.896 198.868 200.736 197.403C195.354 193.753 187.597 187.364 186.55 185.261C185.12 182.394 181.972 166.986 177.106 139.037Z" fill="#CFAF92"/>
<path fill-rule="evenodd" clip-rule="evenodd" d="M133.664 75.5942L127.338 74.5211C103.869 94.5735 94.2297 133.096 65.4624 153.504L72.3864 161.992C122.293 155.881 134.662 108.892 133.664 75.5942Z" fill="#E87613"/>
<path fill-rule="evenodd" clip-rule="evenodd" d="M161.238 154.217C135.876 154.217 117.219 154.217 105.27 154.217C102.712 154.217 103.194 150.564 103.564 148.721C107.83 127.449 124.486 104.52 124.486 74.2404L140.63 71.7366C153.983 92.9776 158.601 119.13 161.238 154.217Z" fill="#DDE3E9"/>
<path fill-rule="evenodd" clip-rule="evenodd" d="M160.788 92.6156C163.133 91.9489 164.99 90.3942 166.358 87.9513C172.259 77.4205 170.128 71.6226 163.822 69.7167C157.516 67.8109 151.893 71.7366 141.846 71.7366C141.299 71.7366 140.799 71.7705 140.344 71.8382L135.29 72.1235C120.79 120.729 116.791 153.158 123.293 169.41H167.345C169.955 175.43 172.452 180.494 174.837 184.604H186.84C187.97 148.477 179.286 117.814 160.788 92.6156Z" fill="#FF9B21"/>
<path fill-rule="evenodd" clip-rule="evenodd" d="M157.752 144.448C156.367 155.913 154.115 164.234 150.997 169.41H167.345C164.3 162.389 161.103 154.068 157.752 144.448H157.752Z" fill="black" fill-opacity="0.1"/>
</svg>
