<svg width="152" height="334" viewBox="0 0 152 334" fill="none" xmlns="http://www.w3.org/2000/svg">
<path fill-rule="evenodd" clip-rule="evenodd" d="M111.337 32.3538C115.207 27.8059 117.826 22.2324 117.388 15.9872C116.127 -2.00707 91.1094 1.95144 86.2429 11.0334C81.3764 20.1154 81.9546 43.1525 88.2442 44.7757C90.7524 45.423 96.0958 43.8373 101.534 40.5554L98.1205 64.7342H118.276L111.337 32.3538Z" fill="#CFAF92"/>
<path fill-rule="evenodd" clip-rule="evenodd" d="M95.1319 12.3506C97.867 13.8824 99.8135 16.7528 102.157 20.5179C102.727 20.2933 103.349 20.17 103.999 20.17C106.782 20.17 109.038 22.4287 109.038 25.215C109.038 26.6295 108.457 27.908 107.52 28.824C108.686 30.4717 109.993 32.193 111.49 33.9691C117.077 30.6127 121.233 20.8304 115.898 11.3869C111.308 -7.52925 85.2981 4.21177 80.294 1.02149C79.2002 7.88582 82.7282 13.4207 95.1319 12.3506Z" fill="#191847"/>
<path fill-rule="evenodd" clip-rule="evenodd" d="M119.087 137.731L77.8684 242.185L50.2226 330.493H39.3059L81.5702 137.731L119.087 137.731Z" fill="#CFAF92"/>
<path fill-rule="evenodd" clip-rule="evenodd" d="M127.387 137.731C127.826 174.437 134.227 223.856 135.25 226.144C135.932 227.669 159.468 247.067 205.859 284.337L198.34 292.393C143.603 260.439 114.968 242.33 112.435 238.069C108.636 231.676 96.266 172.847 86.3348 137.731H127.387Z" fill="#B28B67"/>
<path fill-rule="evenodd" clip-rule="evenodd" d="M54.6927 326.416C55.6323 328.927 56.1021 330.806 56.1021 332.053C56.1021 333.569 55.8498 335.782 55.3452 338.691C53.5884 338.691 37.7995 338.691 7.97866 338.691C6.74777 334.616 7.45831 332.417 10.1103 332.092C12.7622 331.767 14.9653 331.474 16.7194 331.212L38.7349 321.385C39.1585 321.196 39.655 321.387 39.8439 321.811C39.8471 321.818 39.8502 321.825 39.8533 321.833L41.2684 325.27C43.7234 326.417 45.7184 326.99 47.2533 326.99C48.5004 326.99 50.2226 326.486 52.4199 325.477L52.4199 325.477C53.2632 325.09 54.2601 325.461 54.6467 326.305C54.6634 326.342 54.6787 326.379 54.6927 326.416Z" fill="#E4E4E4"/>
<path fill-rule="evenodd" clip-rule="evenodd" d="M91.3735 321.397L39.4698 315.757L77.9366 137.731H124.425L91.3735 321.397Z" fill="#69A1AC"/>
<path fill-rule="evenodd" clip-rule="evenodd" d="M195.123 271.34L161.077 311.688C125.218 272.475 104.311 246.888 98.3585 234.928C92.4056 222.968 87.0543 190.569 82.3045 137.731H134.642C137.236 184.216 138.985 208.54 139.889 210.703C140.792 212.866 159.203 233.078 195.123 271.34Z" fill="#89C5CC"/>
<path fill-rule="evenodd" clip-rule="evenodd" d="M43.3163 127.567L18.6353 151.518C11.4541 154.566 5.57007 157.93 0.983307 161.613C-0.0481873 162.85 -1.17114 165.222 3.68199 164.161C8.53513 163.099 13.6879 162.2 14.6 163.77C15.5121 165.34 12.8245 167.746 14.5102 169.801C15.634 171.171 19.4136 166.814 25.8488 156.729L51.5137 141.677L43.3163 127.567ZM164.006 105.89L144.928 105.961C159.458 152.793 167.172 177.313 168.068 179.522C170.084 184.492 165.817 192.062 163.993 196.129C169.935 198.774 169.302 188.979 176.798 192.448C183.639 195.614 188.844 201.352 196.748 196.5C197.72 195.903 198.785 193.657 196.212 191.902C189.802 187.529 180.564 179.877 179.316 177.358C177.613 173.922 172.51 150.1 164.006 105.89Z" fill="#CFAF92"/>
<path fill-rule="evenodd" clip-rule="evenodd" d="M105.871 52.0525L98.337 50.767C86.4688 92.5005 25.4906 120.948 21.7472 136.549C20.3744 142.27 24.5137 145.162 22.3756 146.905L32.1681 154.036C33.8264 152.111 37.3652 155.632 44.7553 153.169C52.1454 150.707 105.871 101.468 105.871 52.0525Z" fill="#DB2721"/>
<path fill-rule="evenodd" clip-rule="evenodd" d="M93.1974 57.5688C94.0789 112.847 61.9575 126.942 69.1106 149.112C75.0164 167.415 131.545 187.091 141.327 169.149C145.286 161.887 147.083 153.103 147.287 143.554C149.787 150.89 151.764 157.206 153.219 162.501C155.728 171.637 165.455 173.089 165.455 176.608L178.271 173.089C177.402 168.308 183.444 165.98 181.824 155.299C174.565 107.441 155.063 72.7508 123.318 51.2276L122.98 46.4528C122.85 44.601 121.246 43.205 119.396 43.3337L119.396 43.3306L95.6781 44.9775C93.8273 45.1062 92.4312 46.7128 92.5598 48.5658C92.5599 48.5668 92.5599 48.5678 92.56 48.5688L93.1974 57.5688Z" fill="#FF4133"/>
</svg>
