<svg width="130" height="172" viewBox="0 0 130 172" fill="none" xmlns="http://www.w3.org/2000/svg">
<path fill-rule="evenodd" clip-rule="evenodd" d="M93.1725 36.1286C96.3644 32.3813 98.5247 27.789 98.1637 22.6432C97.1236 7.81671 76.4881 11.0784 72.4741 18.5615C68.4601 26.0446 68.9371 45.0263 74.1248 46.3637C76.1937 46.8971 80.601 45.5905 85.0867 42.8864L82.2711 62.8087H98.8958L93.1725 36.1286Z" fill="#D3CDC6"/>
<path fill-rule="evenodd" clip-rule="evenodd" d="M65.1092 8.18765C65.4534 6.97735 66.3794 5.94108 67.6273 5.63365C67.9299 5.55908 68.2424 5.52896 68.5538 5.54152C68.6655 5.54598 68.6968 5.57819 68.749 5.50007C68.7878 5.44215 68.7886 5.30065 68.8046 5.23258C68.8542 5.02093 68.9162 4.81191 68.9927 4.6083C69.2538 3.91386 69.6926 3.29927 70.2216 2.78154C71.211 1.81298 72.5478 1.14452 73.9368 1.02358C74.6969 0.957427 75.4516 1.08095 76.1702 1.32828C76.5423 1.45631 76.9031 1.61574 77.2545 1.792C77.3603 1.84505 77.7035 2.10489 77.8097 2.08806C77.927 2.0695 78.1627 1.77803 78.258 1.70487C79.4365 0.800502 80.8919 0.444934 82.3599 0.455808C84.0168 0.468047 85.6123 0.550853 86.9942 1.5611C87.2867 1.77498 87.5653 2.00917 87.8306 2.25572C87.9703 2.38553 88.1056 2.5202 88.2346 2.66047C88.3125 2.7451 88.3883 2.83164 88.4612 2.9205C88.5851 3.07132 88.5652 3.12087 88.7386 3.01563C89.4036 2.61152 90.1743 2.42252 90.9505 2.51793C91.4115 2.57462 91.8599 2.71302 92.2857 2.8952C92.4307 2.95721 92.7663 3.20459 92.9208 3.207C93.0741 3.20937 93.405 2.98005 93.5629 2.92177C94.4158 2.60688 95.3351 2.52926 96.2315 2.67476C97.1562 2.8249 98.0645 3.1939 98.848 3.70379C99.2248 3.94908 99.5536 4.22084 99.8177 4.58555C99.9317 4.74302 100.035 4.90959 100.164 5.05559C100.24 5.14109 100.389 5.22881 100.43 5.337C100.406 5.27221 101.441 4.87292 101.539 4.84739C102.06 4.7114 102.59 4.73897 103.1 4.90677C104.058 5.2223 104.883 5.92989 105.56 6.65536C105.908 7.02799 106.213 7.43989 106.471 7.87872C106.595 8.08892 106.708 8.30513 106.812 8.52593C106.862 8.6329 106.896 8.76671 106.962 8.86307C107.047 8.98724 107.104 8.9896 107.259 9.04375C108.043 9.31865 108.759 9.78396 109.303 10.4127C109.854 11.0488 110.212 11.8322 110.361 12.6571C110.37 12.7057 110.376 12.9071 110.404 12.9334C110.443 12.9696 110.601 12.9536 110.66 12.9606C110.867 12.9848 111.072 13.0209 111.275 13.0688C111.648 13.1572 112.011 13.2872 112.355 13.4573C113.695 14.1203 114.653 15.3631 115.122 16.7617C115.614 18.2294 115.605 19.9108 115.017 21.3511C114.922 21.5838 114.809 21.8096 114.676 22.0232C114.595 22.1543 114.568 22.1546 114.621 22.2922C114.68 22.4453 114.788 22.594 114.858 22.7436C115.087 23.2316 115.246 23.7493 115.347 24.2779C115.513 25.1452 115.595 26.0566 115.432 26.9304C115.356 27.3362 115.224 27.7328 115.022 28.0942C114.919 28.2785 114.799 28.4532 114.663 28.6149C114.593 28.6988 114.518 28.779 114.439 28.8558C114.395 28.8997 114.336 28.9381 114.298 28.9871C114.205 29.1065 114.185 29.0083 114.233 29.1838C114.3 29.429 114.452 29.671 114.545 29.9097C114.641 30.1557 114.728 30.405 114.807 30.6568C114.968 31.1667 115.103 31.6857 115.188 32.2138C115.351 33.2275 115.323 34.3077 114.843 35.2381C114.638 35.636 114.344 35.9852 113.988 36.2567C113.813 36.3896 113.624 36.5041 113.426 36.5982C113.324 36.6466 113.193 36.6673 113.147 36.7659C113.097 36.8719 113.171 37.0824 113.188 37.201C113.336 38.232 113.41 39.3146 113.103 40.3251C112.821 41.2557 112.199 42.0774 111.393 42.6214C109.827 43.6768 107.717 43.6173 106.073 42.7724C105.644 42.5522 105.243 42.2787 104.885 41.9562C103.974 43.1828 102.099 43.144 100.768 42.7945C99.1091 42.3591 97.7779 41.2054 97.011 39.6895C95.9623 40.9664 93.7615 40.5521 93.0343 39.1669C92.8563 38.8279 92.7507 38.4543 92.6988 38.0762C92.6714 37.8774 92.6889 37.6768 92.6683 37.4796C92.6421 37.2283 92.4742 36.984 92.3778 36.7409C92.1898 36.2677 92.0732 35.7789 92.0682 35.2685C92.0655 35.002 92.0993 34.7423 92.1246 34.478C92.1474 34.24 92.0814 34.0183 92.0439 33.7834C92.4694 33.8535 92.9877 33.7388 93.3886 33.6154C93.7819 33.4943 94.1503 33.1754 94.428 32.8842C95.0726 32.2079 95.4664 31.3214 95.7358 30.439C96.327 28.5024 96.0846 26.179 94.1371 25.1161C93.2298 24.621 90.5118 24.6226 89.4312 24.8673C88.2951 25.1246 87.007 27.6321 86.9436 27.8678C86.9044 28.0136 86.9241 28.1942 86.7902 28.2913C86.4957 28.5051 86.0101 28.1342 85.7929 27.9512C85.4182 27.6353 85.1509 27.2149 84.9193 26.7889C84.4149 25.8607 84.0082 24.8654 83.7209 23.8493C83.4995 23.0659 83.3579 22.258 83.0684 21.4946C82.7803 20.735 82.3263 20.056 81.6202 19.6257C80.8522 19.1576 79.9719 18.911 79.1287 18.6168C78.293 18.3253 77.4717 17.9689 76.8238 17.3503C76.6814 17.2142 76.543 17.0697 76.4284 16.9095C76.3379 16.7831 76.2484 16.541 76.1105 16.4609C75.8961 16.3362 75.5832 16.6605 75.3978 16.7782C74.4832 17.3592 73.7201 18.1696 73.1046 19.0548C72.4926 19.9352 71.9904 20.7823 71.5823 21.7654C71.2796 22.4945 71.0907 23.4283 70.5583 24.0258C70.3206 24.2926 68.5538 24.454 67.9816 24.2211C67.4093 23.9881 66.768 23.3833 66.5759 23.0043C66.3793 22.6163 66.3323 22.1901 66.4163 21.7654C66.4657 21.5155 66.5666 21.2821 66.6218 21.0367C66.6683 20.8305 66.7105 20.6357 66.8108 20.4468C67.001 20.0889 67.3258 19.8317 67.7176 19.7241C67.3099 19.3482 66.9721 18.8984 66.7383 18.3956C66.4954 17.8733 66.2896 17.2381 66.2312 16.6649C66.1837 16.1992 66.257 15.7168 66.5118 15.3166C66.7792 14.8969 67.2528 14.623 67.6626 14.3612C67.0366 13.8713 66.5009 13.2756 66.0605 12.6161C65.204 11.3335 64.6742 9.71676 65.1092 8.18765Z" fill="#191847"/>
<path fill-rule="evenodd" clip-rule="evenodd" d="M104.43 120.328L71.1242 208.472L47.7793 273.439H34.4681L66.558 120.328L104.43 120.328Z" fill="#1F28CF"/>
<path fill-rule="evenodd" clip-rule="evenodd" d="M112.662 120.328C113.024 150.572 112.762 191.291 113.605 193.176C114.168 194.433 131.659 208.753 166.08 236.136L159.219 247.805C118.354 221.448 96.8763 206.513 94.7871 203.002C91.6532 197.734 75.9088 149.262 67.7173 120.328H112.662Z" fill="#2B44FF"/>
<path fill-rule="evenodd" clip-rule="evenodd" d="M44.8604 92.8219L17.5108 89.0907C12.0398 86.0471 7.00677 83.9866 2.41165 82.9093C1.11853 82.8715 -0.938553 83.3417 2.12595 85.8968C5.19044 88.452 8.29982 91.2786 7.75381 92.6423C7.20781 94.0059 4.35788 93.4986 3.88574 95.596C3.571 96.9943 8.19629 97.2215 17.7616 96.2776L39.9534 105.077L44.8604 92.8219ZM130.775 99.1534L115.607 99.2104C132.239 136.646 140.912 156.246 141.624 158.012C143.227 161.985 139.835 168.036 138.385 171.287C143.109 173.402 142.605 165.571 148.565 168.344C154.004 170.876 158.142 175.462 164.427 171.583C165.199 171.106 166.046 169.311 164 167.908C158.904 164.413 151.559 158.295 150.567 156.282C149.214 153.536 142.616 134.493 130.775 99.1534Z" fill="#D3CDC6"/>
<path fill-rule="evenodd" clip-rule="evenodd" d="M89.2278 51.0378L77.3516 51.8291C74.4268 78.2953 58.4951 95.0125 22.8251 89.3531L18.0862 123.436C51.4252 127.745 80.6636 114.395 86.6558 78.2504C88.207 68.8936 89.4319 59.156 89.2278 51.0378Z" fill="#D53C4D"/>
<path fill-rule="evenodd" clip-rule="evenodd" d="M95.0869 47.5848L77.093 51.7065C77.093 82.6608 67.2343 102.41 62.1777 125.169H110.774C111.459 133.033 111.879 141.116 112.098 149.417H148.486C140.24 105.537 122.837 71.5893 96.2749 47.5737H95.0964L95.0869 47.5848Z" fill="#F64E60"/>
<path fill-rule="evenodd" clip-rule="evenodd" d="M103.107 81.0083C104.36 100.297 103.623 115.017 100.898 125.169H110.775C109.418 109.59 107.026 94.8699 103.107 81.0083L103.107 81.0083Z" fill="black" fill-opacity="0.1"/>
</svg>
