<svg width="131" height="147" viewBox="0 0 131 147" fill="none" xmlns="http://www.w3.org/2000/svg">
<path fill-rule="evenodd" clip-rule="evenodd" d="M90.7246 19.0469C92.7861 16.6265 94.1813 13.6602 93.9481 10.3364C93.2764 0.759727 79.9492 2.86648 77.3568 7.69998C74.7644 12.5335 75.0724 24.7941 78.4229 25.6579C79.759 26.0025 82.6055 25.1585 85.5024 23.4119L83.6841 36.28H94.4209L90.7246 19.0469Z" fill="#CFAF92"/>
<path fill-rule="evenodd" clip-rule="evenodd" d="M91.5497 21.2026C92.8973 15.2056 96.7363 11.1177 96.15 8.43729C95.7591 6.65036 94.7173 5.53914 93.0246 5.10361C92.1491 1.56092 89.3256 0.0540718 84.554 0.583074C77.3966 1.37658 73.0281 4.34985 74.9146 10.8924C76.6488 10.8924 78.7423 10.265 81.6372 11.3399C82.5557 11.6809 83.2127 12.7385 83.6081 14.5127H84.9163C86.1859 12.4072 87.4378 11.6335 88.6719 12.1916C89.9061 12.7496 90.1866 14.1052 89.5136 16.2582L90.158 21.2026H91.5497Z" fill="#191847"/>
<path fill-rule="evenodd" clip-rule="evenodd" d="M124.395 92.2173H72.9475C68.9943 92.2173 65.7896 95.4229 65.7896 99.3773V140.547C65.7896 144.502 68.9943 147.707 72.9475 147.707H124.395C128.348 147.707 131.553 144.502 131.553 140.547V99.3773C131.553 95.4229 128.348 92.2173 124.395 92.2173ZM117.237 104.747C118.225 104.747 119.026 105.549 119.026 106.537V133.387C119.026 134.376 118.225 135.177 117.237 135.177H80.1054C79.1171 135.177 78.3159 134.376 78.3159 133.387V106.537C78.3159 105.549 79.1171 104.747 80.1054 104.747H117.237Z" fill="#E6F2DD"/>
<path fill-rule="evenodd" clip-rule="evenodd" d="M21.4289 145.47C30.2492 134.696 36.2172 126.709 39.3329 121.508C44.6678 112.603 49.0342 104.679 50.4121 101.653C53.6979 94.4347 42.8476 91.055 40.392 94.4216C36.6752 99.5171 28.7376 115.551 16.579 142.524L21.4289 145.47Z" fill="#CFAF92"/>
<path fill-rule="evenodd" clip-rule="evenodd" d="M39.5035 142.338L55.9185 101.005C59.4293 93.4703 42.4748 88.5176 39.8946 92.0241C34.0367 99.9849 20.114 131.389 18.3687 133.761L39.5035 142.338Z" fill="#2F3676"/>
<path fill-rule="evenodd" clip-rule="evenodd" d="M83.2222 134.048C80.0247 129.382 68.3942 113.686 62.0594 107.191C60.239 105.325 58.4627 103.534 56.7828 101.864C51.7892 96.9027 41.8448 105.243 46.8291 109.762C59.2421 121.016 77.3534 136.21 78.8666 137.564C80.9875 139.463 85.2317 136.98 83.2222 134.048Z" fill="#CFAF92"/>
<path fill-rule="evenodd" clip-rule="evenodd" d="M82.475 131.941C83.5764 132.848 84.2929 133.588 84.6245 134.163C85.0278 134.862 85.5 135.949 86.0409 137.424C85.2304 137.892 77.9463 142.099 64.1885 150.044C62.5369 148.495 62.2796 147.292 63.4167 146.435C64.5538 145.579 65.4921 144.857 66.2317 144.269L73.7747 133.874C73.9199 133.674 74.1996 133.629 74.3995 133.775C74.403 133.777 74.4064 133.78 74.4097 133.782L75.9768 134.989C77.4145 134.864 78.4874 134.596 79.1955 134.187C79.7708 133.855 80.4312 133.164 81.1767 132.114L81.1767 132.113C81.4628 131.71 82.0213 131.616 82.4243 131.902C82.4416 131.914 82.4585 131.927 82.475 131.941Z" fill="#226185"/>
<path fill-rule="evenodd" clip-rule="evenodd" d="M25.2229 143.86C25.7234 145.196 25.9736 146.196 25.9736 146.86C25.9736 147.667 25.8392 148.844 25.5704 150.393C24.6346 150.393 16.2238 150.393 0.33806 150.393C-0.31764 148.224 0.0608673 147.054 1.47358 146.881C2.8863 146.708 4.05987 146.552 4.99429 146.412L16.7221 141.182C16.9477 141.082 17.2122 141.183 17.3128 141.409C17.3145 141.413 17.3162 141.417 17.3178 141.421L18.0717 143.25C19.3795 143.86 20.4422 144.165 21.2599 144.165C21.9242 144.165 22.8416 143.897 24.0122 143.36L24.0122 143.36C24.4614 143.154 24.9924 143.352 25.1984 143.801C25.2072 143.82 25.2154 143.84 25.2229 143.86Z" fill="#226185"/>
<path fill-rule="evenodd" clip-rule="evenodd" d="M61.825 103.069C75.4683 100.846 84.6068 99.3257 89.2404 98.5084C102.448 96.1788 106.3 89.0694 104.022 73.5576H79.6875C76.4671 74.4879 63.0113 80.2411 39.3199 90.8175C35.0574 92.9341 35.8512 99.1749 36.6304 101.231C36.6621 101.315 43.8479 113.632 58.1878 138.181L78.0948 125.496L61.7876 104.564C61.357 103.696 61.3694 103.198 61.825 103.069Z" fill="#5C63AB"/>
<path fill-rule="evenodd" clip-rule="evenodd" d="M60.0715 67.6997L45.8013 78.1818C41.9309 79.2264 38.6973 80.5262 36.1005 82.081C35.4871 82.6401 34.7457 83.7724 37.2897 83.5767C39.8336 83.3811 42.5183 83.2897 42.8693 84.1576C43.2203 85.0256 41.6808 86.0635 42.3904 87.2346C42.8634 88.0154 45.0982 86.0577 49.0948 81.3617L63.2261 75.5001L60.0715 67.6997ZM114.862 68.0615L105.513 68.0982C111.286 86.7383 114.402 96.6285 114.862 97.7691C115.897 100.335 113.707 104.244 112.77 106.344C115.821 107.709 115.496 102.652 119.345 104.443C122.858 106.078 125.53 109.04 129.589 106.535C130.088 106.227 130.635 105.067 129.314 104.161C126.022 101.903 121.279 97.9521 120.638 96.6515C119.764 94.8779 117.839 85.3479 114.862 68.0615Z" fill="#CFAF92"/>
<path fill-rule="evenodd" clip-rule="evenodd" d="M88.2945 28.8211L84.4261 28.1573C70.073 40.56 64.1777 64.387 46.5843 77.0091L50.8189 82.2595C81.3401 78.4794 88.9051 49.4163 88.2945 28.8211Z" fill="#E87613"/>
<path fill-rule="evenodd" clip-rule="evenodd" d="M105.158 77.4501C89.6467 77.4501 78.2371 77.4501 70.9289 77.4501C69.3648 77.4501 69.6596 75.1909 69.8857 74.0509C72.4951 60.8942 82.6813 46.712 82.6813 27.9837L92.5545 26.4351C100.721 39.5729 103.545 55.7483 105.158 77.4501Z" fill="#DDE3E9"/>
<path fill-rule="evenodd" clip-rule="evenodd" d="M104.883 39.3489C106.317 38.9366 107.452 37.975 108.29 36.464C111.898 29.9506 110.595 26.3645 106.738 25.1857C102.882 24.0069 99.4427 26.435 93.2982 26.435C92.964 26.435 92.6579 26.4559 92.3799 26.4978L89.2891 26.6743C80.4212 56.7375 77.9754 76.7953 81.9519 86.8475H108.893C110.489 90.5706 112.016 93.7031 113.475 96.245H120.816C121.507 73.9 116.196 54.9346 104.883 39.3489Z" fill="#FF9B21"/>
<path fill-rule="evenodd" clip-rule="evenodd" d="M103.026 71.4077C102.179 78.499 100.802 83.6456 98.8947 86.8475H108.893C107.031 82.5046 105.075 77.358 103.026 71.4077Z" fill="black" fill-opacity="0.1"/>
</svg>
