<svg width="276" height="197" viewBox="0 0 276 197" fill="none" xmlns="http://www.w3.org/2000/svg">
<g opacity="0.504511">
<path opacity="0.504511" fill-rule="evenodd" clip-rule="evenodd" d="M297.212 151.919C301.198 181.74 204.523 201.191 121.312 187.616C38.1014 174.042 -0.0717411 121.032 39.635 92.7857C79.3417 64.5398 293.225 122.098 297.212 151.919Z" fill="#F2F2F2"/>
</g>
<path fill-rule="evenodd" clip-rule="evenodd" d="M179.674 14.113C177.542 13.0555 174.699 14.282 175.885 17.0775C177.155 20.071 181.851 20.108 184.504 20.0486C184.238 20.0347 183.383 17.2896 183.091 16.8748C182.228 15.6511 180.985 14.7643 179.674 14.113ZM204.243 67.7843C204.78 68.2443 204.286 67.8274 204.243 67.7843V67.7843ZM177.62 27.6529C176.372 28.6069 176.312 30.2912 177.332 31.4312C178.545 32.7885 180.762 32.7391 182.416 32.6068C183.165 32.5469 187.161 32.2269 186.213 31.5729C186.286 31.6005 186.438 31.6673 186.601 31.758C186.689 32.0783 186.781 32.3974 186.877 32.7151C186.853 32.7288 186.833 32.7435 186.808 32.7572C186.835 32.7453 186.854 32.7324 186.878 32.7203C187.839 35.8955 189.207 38.9189 190.998 41.7473C190.328 41.4834 189.634 41.2837 188.93 41.1947C186.845 40.9311 182.46 42.5512 184.792 45.3271C187.028 47.9883 190.509 45.1333 193.046 44.7396C195.508 48.1751 198.221 51.4675 201.065 54.6499C200.891 54.7045 200.738 54.8182 200.651 54.9953C199.51 54.4164 198.321 53.5883 197.265 53.3641C195.741 53.041 192.617 52.8451 191.465 54.2091C190.049 55.8863 191.567 57.2486 193.24 57.5703C195.667 58.0368 198.843 56.8511 201.178 56.05C201.445 56.0972 201.737 56.019 201.911 55.8054C201.963 55.7885 202.014 55.7719 202.065 55.7557C204.945 58.9226 207.935 61.9849 210.907 64.9801C210.875 64.9785 210.844 64.9765 210.811 64.9748C210.035 64.4663 209.204 64.0491 208.302 63.8305C206.217 63.3222 203.764 63.3197 202.072 64.8286C200.386 66.331 199.789 68.9586 201.533 70.6456C205.023 74.0226 210.166 66.3229 211.926 66.0015C214.947 69.0134 218.14 71.8274 221.384 74.5846C221.016 74.4725 220.638 74.39 220.247 74.3529C217.067 74.0484 209.601 77.9484 213.504 81.7855C216.906 85.1292 220.843 78.6934 223.585 76.4427C226.642 79.0126 229.715 81.5648 232.702 84.2166C231.073 83.784 229.498 83.7202 227.752 84.248C225.945 84.7949 223.029 86.1596 224.171 88.5997C225.333 91.0812 228.835 89.952 230.659 89.1642C231.653 88.7345 233.648 87.2843 235.399 86.6734C240.165 91.1739 244.294 96.131 247.42 101.97C249.371 105.616 250.852 109.512 251.894 113.515C252.559 116.071 253.87 120.363 253.608 123.689C254.859 117.031 252.597 109.035 250.16 103.085C247.92 97.6128 244.568 92.8091 240.641 88.4852C241.626 85.521 249.921 81.2455 244.962 78.4915C242.329 77.0354 239.632 79.4516 239.056 82.0106C238.661 83.7691 239.263 85.9786 239.903 87.6854C238.667 86.3673 237.383 85.0916 236.06 83.8582C234.231 82.1537 232.358 80.4985 230.468 78.8643C233.583 75.9373 236.531 67.5697 232.354 66.2012C226.186 64.1861 229.156 75.5999 229.586 77.7391C229.709 77.7463 229.804 77.7093 229.874 77.6302C229.839 77.8261 229.799 78.0356 229.75 78.2468C226.132 75.1352 222.46 72.0848 218.909 68.8988C219.229 68.6623 219.737 67.7587 220.137 67.2777C221.039 66.1934 221.902 65.0608 222.533 63.7923C223.529 61.7878 224.491 58.5905 221.849 57.4114C218.976 56.1268 217.611 59.7431 217.591 61.9003C217.578 63.3923 217.984 64.8096 218.196 66.272C218.262 66.7281 218.007 68.784 218.628 67.8996C218.599 68.2257 218.595 68.4619 218.609 68.6293C217.972 68.0545 217.339 67.4734 216.71 66.8881C216.74 66.8142 216.761 66.7336 216.766 66.6402C216.8 65.9971 216.153 65.7494 215.699 65.9377C214.869 65.1494 214.048 64.3512 213.241 63.5371C211.531 61.8123 209.797 60.0383 208.074 58.2266C208.448 57.9054 208.299 57.4608 208.649 57.1199C208.998 56.7798 209.685 56.5917 210.095 56.2758C211.128 55.4807 211.983 54.3223 212.602 53.1824C213.624 51.2987 214.945 47.3474 211.96 46.4496C208.883 45.5228 207.321 49.3264 207.123 51.7045C207.085 52.1652 207.429 56.3163 207.694 57.8237C204.506 54.4566 201.371 50.9632 198.531 47.409C199.392 47.401 201.834 45.6364 202.327 45.1549C203.532 43.9805 205.446 41.3855 203.335 40.0123C201.457 38.7943 199.143 40.5584 198.34 42.2729C198.208 42.5553 197.743 45.1829 197.707 46.3619C196.531 44.8547 195.41 43.3386 194.367 41.8177C193.671 40.8065 193.021 39.7685 192.412 38.7086C192.559 38.6256 192.697 38.4808 192.827 38.3008C195.958 37.7694 199.95 32.8836 196.272 31.1837C194.521 30.3754 192.622 32.0439 191.764 33.41C191.588 33.6894 191.304 35.0945 191.072 36.2028C189.322 32.6913 187.985 28.9737 186.967 25.162C187.239 25.0943 187.47 24.8861 187.501 24.5279C189.021 23.6612 190.221 22.9395 191.282 21.2728C191.942 20.2376 193.129 17.8725 191.192 17.2979C188.671 16.5503 187.087 20.401 186.881 22.2977C186.857 22.5178 186.858 23.1581 186.866 23.7449C186.779 23.733 186.69 23.7343 186.604 23.7497C186.025 21.3894 185.562 18.9988 185.195 16.6042C186.571 16.1613 186.809 8.93467 185.893 7.90567C183.845 5.60164 182.4 8.92992 182.51 10.689C182.639 12.7631 183.578 14.6499 184.698 16.3243C184.818 16.5016 184.783 16.493 184.814 16.246C184.832 16.3681 184.873 16.4582 184.933 16.5235C184.875 17.6153 184.763 18.7331 184.817 19.6992C184.972 22.4658 185.294 25.2486 185.762 27.9797C185.876 28.6439 186.006 29.3027 186.152 29.9558C185.046 29.0136 183.555 28.1764 182.972 27.9146C181.457 27.2358 179.124 26.5029 177.62 27.6529ZM253.785 123.698C253.715 124.663 253.541 125.546 253.216 126.275C253.46 125.445 253.647 124.583 253.785 123.698Z" fill="#E1E9D9"/>
<path opacity="0.2" fill-rule="evenodd" clip-rule="evenodd" d="M100.732 -43.8877C102.255 -44.643 104.285 -43.767 103.438 -41.7702C102.531 -39.632 99.1763 -39.6055 97.2817 -39.6479C97.4714 -39.6579 98.082 -41.6187 98.291 -41.915C98.9075 -42.789 99.7952 -43.4225 100.732 -43.8877ZM83.1942 -4.92721C82.6562 -4.4672 83.1504 -4.88407 83.1942 -4.92721V-4.92721ZM102.502 -33.9601C103.413 -33.2707 103.455 -32.0528 102.711 -31.2281C101.824 -30.2462 100.206 -30.2811 98.9979 -30.3761C98.4515 -30.4192 95.534 -30.6491 96.2258 -31.1223C96.1726 -31.1024 96.0615 -31.054 95.9425 -30.9883C95.8784 -30.7567 95.8111 -30.526 95.741 -30.2962C95.7581 -30.2863 95.7728 -30.2756 95.7911 -30.2658C95.7712 -30.2744 95.7573 -30.2837 95.7398 -30.2924C95.037 -27.9961 94.0372 -25.8094 92.7284 -23.7635C93.2178 -23.9545 93.7246 -24.0993 94.2386 -24.1638C95.7608 -24.3553 98.9622 -23.1853 97.2586 -21.1772C95.6251 -19.2521 93.0846 -21.3153 91.232 -21.599C89.4336 -19.1139 87.4509 -16.7322 85.3732 -14.4299C85.5004 -14.3905 85.6121 -14.3083 85.676 -14.1803C86.5093 -14.5994 87.3776 -15.1986 88.1487 -15.3611C89.2613 -15.5953 91.5427 -15.7381 92.383 -14.7522C93.4166 -13.54 92.3075 -12.5543 91.0855 -12.3211C89.3136 -11.9829 86.9948 -12.8391 85.2903 -13.4175C85.0952 -13.3833 84.8824 -13.4397 84.7553 -13.5941C84.7176 -13.6063 84.68 -13.6183 84.6433 -13.63C82.5393 -11.339 80.3549 -9.12348 78.1838 -6.95655C78.2069 -6.95776 78.2299 -6.95917 78.254 -6.96043C78.8203 -7.32843 79.4276 -7.63044 80.0858 -7.78881C81.6084 -8.1571 83.3997 -8.15981 84.6346 -7.06938C85.8648 -5.98362 86.2997 -4.08385 85.0259 -2.8633C82.4762 -0.420137 78.7243 -5.98589 77.4389 -6.21765C75.2326 -4.03864 72.8998 -2.00265 70.5304 -0.00768712C70.7994 -0.0889368 71.0752 -0.148692 71.3603 -0.175646C73.6829 -0.397025 79.1327 2.42028 76.2811 5.19632C73.7961 7.61541 70.9237 2.96318 68.9228 1.33669C66.6901 3.1961 64.4451 5.04275 62.2632 6.96134C63.4529 6.6479 64.6025 6.60124 65.8774 6.98222C67.1967 7.37703 69.3253 8.36272 68.4903 10.1276C67.641 11.9224 65.0847 11.1072 63.7534 10.5381C63.0272 10.2278 61.5716 9.1799 60.2932 8.73883C56.8113 11.9949 53.795 15.5809 51.5107 19.8045C50.0846 22.4416 49.002 25.2589 48.2395 28.1542C47.7528 30.0023 46.7941 33.1062 46.9844 35.5111C46.0736 30.6976 47.7279 24.915 49.5091 20.6113C51.1468 16.6537 53.5965 13.179 56.4653 10.0509C55.7469 7.90782 49.6922 4.81936 53.3137 2.82612C55.2369 1.7722 57.2051 3.51836 57.6244 5.36854C57.9125 6.63995 57.4718 8.23785 57.0045 9.47225C57.9069 8.5187 58.8451 7.59578 59.8117 6.70346C61.1477 5.4702 62.5156 4.2727 63.8965 3.09026C61.623 0.974917 59.4733 -5.07457 62.5237 -6.06566C67.028 -7.52504 64.8553 0.729289 64.5404 2.27629C64.4511 2.28156 64.3816 2.25488 64.3305 2.19769C64.3558 2.33933 64.3851 2.49081 64.4206 2.64353C67.0637 0.392203 69.746 -1.81491 72.3399 -4.11998C72.1064 -4.29089 71.7354 -4.94413 71.4437 -5.29177C70.7854 -6.07549 70.1556 -6.89418 69.6955 -7.81117C68.9687 -9.26024 68.2682 -11.5719 70.1972 -12.4254C72.2952 -13.3554 73.2906 -10.741 73.3044 -9.18107C73.3138 -8.10222 73.0166 -7.07722 72.8616 -6.01968C72.8131 -5.68985 72.9983 -4.20333 72.545 -4.84262C72.5663 -4.60683 72.5693 -4.43606 72.5586 -4.31498C73.0243 -4.73088 73.4864 -5.1513 73.9456 -5.57473C73.9244 -5.62817 73.9087 -5.68642 73.9051 -5.75398C73.8808 -6.21902 74.3533 -6.39838 74.6846 -6.26233C75.2905 -6.83268 75.8906 -7.4102 76.4799 -7.99917C77.7289 -9.24697 78.996 -10.5304 80.2544 -11.8411C79.9817 -12.0731 80.0904 -12.3947 79.8353 -12.6411C79.5806 -12.8869 79.0789 -13.0227 78.7794 -13.251C78.0262 -13.8255 77.4017 -14.6628 76.9502 -15.4869C76.2048 -16.8485 75.2421 -19.7052 77.422 -20.3555C79.6689 -21.0268 80.8078 -18.277 80.9514 -16.5575C80.9794 -16.2244 80.726 -13.2226 80.5326 -12.1325C82.8611 -14.5684 85.1514 -17.0957 87.2265 -19.6668C86.5977 -19.6722 84.8157 -20.9473 84.4555 -21.2953C83.5766 -22.144 82.1797 -24.0198 83.7218 -25.0135C85.093 -25.8949 86.7819 -24.6202 87.3675 -23.3807C87.4637 -23.1766 87.8025 -21.2767 87.8285 -20.4242C88.6874 -21.5145 89.5067 -22.6112 90.269 -23.7114C90.7774 -24.4428 91.2525 -25.1936 91.6971 -25.9603C91.5902 -26.0202 91.4896 -26.1249 91.3947 -26.255C89.1088 -26.6381 86.1959 -30.1695 88.8818 -31.4C90.1606 -31.9852 91.5465 -30.7794 92.1723 -29.7919C92.3005 -29.5899 92.5078 -28.574 92.6765 -27.7727C93.9557 -30.3125 94.9335 -33.0012 95.6781 -35.7578C95.4792 -35.8066 95.3107 -35.9571 95.2886 -36.2161C94.179 -36.8422 93.3028 -37.3636 92.5286 -38.5684C92.0476 -39.3167 91.1816 -41.0265 92.5962 -41.4427C94.437 -41.9842 95.5918 -39.2004 95.7417 -37.829C95.7591 -37.6698 95.7583 -37.2068 95.752 -36.7825C95.8159 -36.7912 95.8805 -36.7902 95.9438 -36.7791C96.3674 -38.486 96.7057 -40.2148 96.975 -41.9465C95.9705 -42.2663 95.7995 -47.4917 96.4687 -48.2361C97.9647 -49.9029 99.0183 -47.4968 98.9378 -46.2248C98.8428 -44.725 98.1559 -43.3603 97.3382 -42.1491C97.2505 -42.0208 97.2755 -42.0271 97.2529 -42.2057C97.2403 -42.1174 97.2104 -42.0522 97.1662 -42.005C97.2079 -41.2155 97.2897 -40.4073 97.2499 -39.7087C97.1357 -37.7081 96.8994 -35.6957 96.5567 -33.7207C96.4734 -33.2404 96.378 -32.764 96.2711 -32.2917C97.0789 -32.9734 98.1679 -33.5793 98.594 -33.7688C99.6998 -34.2602 101.404 -34.7911 102.502 -33.9601ZM46.8035 35.3212C46.8569 35.9641 47.0154 36.5507 47.3275 37.0314C47.0984 36.482 46.9266 35.9098 46.8035 35.3212Z" fill="#C1DEE2"/>
<g opacity="0.7">
<path opacity="0.7" fill-rule="evenodd" clip-rule="evenodd" d="M221.153 79.4591C227.075 79.1518 234.399 82.6089 235.031 89.0469C235.49 93.7247 235.348 98.389 236.058 103.06C236.626 106.793 237.827 110.376 239.466 113.776C241.041 117.046 244.309 119.83 245.159 123.323C245.7 125.548 245.397 128.679 244.65 130.856C243.742 133.504 244.224 133.294 246.035 135.515C249.582 139.868 252.776 144.332 255.035 149.53C258.288 157.018 260.421 165.77 259.214 173.967C259.06 175.008 258.878 178.743 257.445 179.004C255.844 179.296 256.593 177.159 256.678 176.469C257.223 172.067 257.707 168.218 257.05 163.746C254.515 146.493 242.139 135.125 234.08 120.482C233.637 119.727 232.702 117.928 232.052 116.742C231.025 114.869 229.993 111.305 228.603 109.917C225.986 107.3 228.392 112.56 228.902 113.564C229.547 114.834 230.256 116.184 230.917 117.297C233.941 122.456 237.315 128.087 240.438 133.405C226.933 136.483 217.422 120.245 213.798 109.57C210.812 100.775 207.239 80.2116 221.153 79.4591Z" fill="#69A1AC"/>
<path opacity="0.7" fill-rule="evenodd" clip-rule="evenodd" d="M300.528 63.1261C290.628 63.9116 284.272 70.4449 281.314 79.5829C279.719 84.5074 279.537 89.5663 278.65 94.627C277.317 102.241 274.449 108.011 268.844 113.435C267.108 115.115 265.829 116.84 264.919 118.686C263.114 120.528 261.542 122.613 260.387 125.162C258.912 128.418 258.495 132.324 260.198 135.569C260.656 136.442 261.798 138.194 262.982 138.989C258.55 148.429 256.113 158.768 256.388 169.094C256.554 175.327 256.858 181.562 257.213 187.788C257.308 189.459 257.853 192.22 258.67 189.416C259.418 186.852 258.48 182.827 258.393 180.148C257.971 167.098 257.61 155.233 262.981 143.041C263.544 141.763 264.142 140.495 264.764 139.238C264.8 139.216 264.834 139.191 264.868 139.166C264.892 139.184 264.914 139.204 264.937 139.222C264.977 139.151 265.031 139.067 265.095 138.973C265.273 138.788 265.429 138.556 265.577 138.296C266.054 137.636 266.593 136.86 266.596 136.435C266.596 136.432 266.594 136.427 266.594 136.424C269.919 130.995 273.728 125.866 277.618 120.837C277.589 120.873 281.838 115.088 281.181 118.287C280.864 119.829 277.739 122.766 276.477 124.399C273.684 128.032 270.405 132.636 267.681 137.088C267.314 137.299 266.796 138.333 266.421 139.104C266.214 139.494 266.021 139.888 265.832 140.231C275.486 143.421 282.997 136.995 288.118 129.521C288.124 129.512 288.13 129.503 288.135 129.495C289.694 127.429 291.29 125.379 293.285 123.746C296.612 121.022 300.175 120.541 304.099 119.201C314.797 115.545 319.346 101.678 320.791 91.3891C322.421 79.7812 314.448 61.9815 300.528 63.1261Z" fill="#89C5CC"/>
<path opacity="0.7" fill-rule="evenodd" clip-rule="evenodd" d="M280.972 30.6194C270.811 41.1955 265.902 55.8648 262.015 69.6554C257.674 85.058 254.806 100.698 254.696 116.712C254.624 127.234 254.338 137.821 254.952 148.33C255.17 152.062 255.542 155.801 256.133 159.493C256.182 159.797 257.506 168.041 258.772 166.12C259.492 165.027 257.415 157.568 257.258 156.325C256.376 149.327 256.171 142.278 256.214 135.229C256.284 123.624 255.942 112.079 257.118 100.517C257.294 98.7903 257.432 96.9771 257.842 95.2883C258.278 93.4929 257.723 94.2766 259.141 93.5658C260.519 92.8748 262.222 92.9735 263.651 92.1066C269.322 88.6678 272.223 79.8344 274.481 74.0386C277.063 67.4107 278.632 60.3431 279.886 53.3682C280.806 48.2436 281.464 43.1501 281.837 37.9595C281.954 36.3236 281.961 34.6129 282.283 33.0044C282.369 32.5705 282.804 31.8029 282.788 31.4187C282.755 30.6055 282.264 30.1272 282.224 29.4438C281.798 29.8266 281.381 30.2188 280.972 30.6194Z" fill="#89C5CC"/>
<path opacity="0.7" fill-rule="evenodd" clip-rule="evenodd" d="M225.568 171.529C225.568 189.02 239.745 203.198 257.234 203.198C274.723 203.198 288.9 189.02 288.9 171.529" fill="#89C5CC"/>
<path opacity="0.7" fill-rule="evenodd" clip-rule="evenodd" d="M259.775 171.63H258.102C258.218 169.531 258.371 167.435 258.722 165.359C260.064 157.419 264.261 145.756 273.466 144.468C273.806 144.42 275.055 144.412 276.568 144.5C277.285 144.1 278.089 143.857 278.935 143.801C286.772 143.224 295.525 149.547 299.305 156.127C302.353 161.433 301.839 168.399 299.957 174.036C298.696 177.809 295.945 183.19 291.358 183.242C285.618 183.308 285.341 176.213 285.23 172.066C285.082 166.551 284.386 161.748 280.041 157.989C279.029 157.114 277.922 156.343 276.899 155.48C275.298 154.129 273.528 152.745 273.321 150.509C273.037 147.424 274.778 146.869 277.436 147.442C277.889 147.54 282.454 149.588 281.778 147.969C281.572 147.475 280.818 147.083 279.867 146.789C277.405 146.521 274.47 146.211 273.626 146.396C264.518 148.394 260.972 161.011 260.03 169.027C259.929 169.893 259.846 170.761 259.775 171.63Z" fill="#69A1AC"/>
</g>
<g opacity="0.5">
<path opacity="0.5" fill-rule="evenodd" clip-rule="evenodd" d="M86.8537 21.6193C88.6766 19.0198 92.0594 12.418 94.6251 11.4891C96.2777 10.8908 95.7958 17.0796 95.8162 18.2596C95.8957 22.8251 95.4513 27.3616 94.9025 31.8887C93.9137 40.0533 90.6805 47.3245 86.246 54.2735C83.9641 57.8491 81.2876 61.4682 77.5805 63.6992C75.8741 64.7266 73.8209 64.8987 72.1358 65.7839C70.1732 66.8144 71.242 65.9813 70.3575 68.0266C69.1292 70.8663 68.7364 74.5298 68.168 77.5598C65.5586 91.4692 59.2413 164.998 60.3365 179.146C60.4338 180.401 58.6853 180.7 58.598 179.169C58.1341 171.052 62.1486 114.838 64.174 96.4547C66.1994 78.0713 68.249 61.8304 70.3041 55.4702C72.7973 47.7541 77.3002 38.4748 81.0485 31.2791C82.7895 27.9362 84.6873 24.7084 86.8537 21.6193Z" fill="#69A1AC"/>
<path opacity="0.5" fill-rule="evenodd" clip-rule="evenodd" d="M100.384 111.782C105.127 108.299 110.262 114.872 105.969 118.356C103.596 120.281 101.116 119.596 99.719 117.992C98.8124 119.097 97.9639 120.252 97.1485 121.228C94.6644 124.203 92.3165 127.248 90.0726 130.364C85.4112 136.838 81.4164 143.678 77.2397 150.393C73.1178 157.02 69.0288 163.68 65.2927 170.475C62.1278 176.232 57.9093 183.005 56.8257 189.316C58.4698 175.931 64.7083 163.066 72.1374 151.266C79.506 139.563 87.9623 126.782 99.3716 117.546C98.2104 115.838 98.1782 113.4 100.384 111.782Z" fill="#C1DEE2"/>
<path opacity="0.5" fill-rule="evenodd" clip-rule="evenodd" d="M10.3734 79.1383C13.0278 79.6575 17.3651 85.6628 19.5531 87.9509C22.1535 90.6699 24.5126 93.568 26.7364 96.6045C31.5238 103.14 35.8052 110.089 39.4459 117.336C45.3811 129.15 50.136 141.277 53.5869 154.141C55.6993 162.015 57.067 170.177 57.8775 178.282C58.0306 179.81 59.633 191.595 57.324 191.913C55.2474 192.199 55.8888 182.964 55.7886 181.708C54.6561 167.537 51.2636 153.749 46.5446 140.392C45.5167 137.483 44.5618 133.919 42.918 131.3C41.7342 129.414 42.9095 130.072 40.8292 129.358C39.0429 128.745 37.0077 128.895 35.1785 128.144C31.2047 126.514 28.0229 123.351 25.2338 120.168C19.8136 113.983 15.5184 107.292 13.2795 99.3674C12.0375 94.9733 10.8962 90.5536 10.2628 86.0236C10.0989 84.8527 8.66367 78.804 10.3734 79.1383Z" fill="#69A1AC"/>
<path opacity="0.5" fill-rule="evenodd" clip-rule="evenodd" d="M20.8486 -20.7777C30.8473 -3.43586 39.0638 15.6137 44.3693 34.908C47.5837 46.5982 49.8317 58.5941 52.0653 70.5033C55.5235 88.9432 58.7946 107.382 59.7251 126.149C60.6612 145.025 62.5123 166.797 56.3319 184.978C59.419 166.519 56.4799 146.872 55.9595 128.299C55.7108 119.432 54.9901 110.652 54.0448 101.838C53.1274 93.2871 51.6286 84.7772 50.2329 76.2937C49.5531 72.1621 48.8391 68.0367 48.1121 63.9136C47.8951 62.6834 47.8034 59.0331 47.0232 58.1928C46.2379 57.3469 42.2311 57.002 40.9732 56.3814C38.4401 55.1313 36.0574 53.3556 33.9487 51.4794C29.9062 47.8827 26.3895 43.1831 23.6138 38.5505C17.1915 27.8312 14.6239 14.7499 14.7537 2.33561C14.7786 -0.0746727 18.6546 -26.0296 17.0979 -26.387C17.1916 -26.4968 17.2803 -26.6101 17.3639 -26.728C18.5424 -24.7547 19.6988 -22.7679 20.8486 -20.7777Z" fill="#89C5CC"/>
<path opacity="0.5" fill-rule="evenodd" clip-rule="evenodd" d="M128.767 41.7672C128.922 41.5447 129.926 39.9969 129.42 40.0958C130.45 39.8945 128.004 41.8028 130.569 40.6319C129.351 41.7822 130.054 43.2766 130.07 44.8248C130.097 47.3385 129.676 49.8316 129.203 52.2914C128.455 56.1795 127.341 59.9599 125.723 63.5763C122.198 71.4574 116.212 79.0443 109.105 83.9715C105.596 86.4042 102.158 87.2325 98.1567 88.3524C95.6293 89.0599 95.4289 90.3675 94.0873 92.8203C91.2943 97.9289 88.551 103.019 86.0878 108.3C83.1466 114.606 80.2914 120.919 77.5981 127.336C68.5249 148.952 61.1401 171.346 57.2619 194.522C57.1669 180.865 60.326 166.799 64.311 153.781C67.2137 144.296 70.9926 135.154 75.0232 126.103C75.9999 123.911 77.4799 121.091 77.8947 118.67C78.1851 116.974 77.2972 115.343 76.8907 113.556C75.3058 106.599 75.4193 98.8043 76.811 91.8097C78.3455 84.0968 82.7833 80.517 90.2903 79.4245C93.0358 79.0249 96.5253 79.1714 99.0428 78.0006C101.786 76.7258 102.917 72.5353 104.477 69.8453C108.666 62.6194 113.643 55.6894 119.358 49.601C120.941 47.9151 122.642 46.3596 124.448 44.918C125.586 44.0084 127.991 42.8877 128.767 41.7672Z" fill="#89C5CC"/>
<path opacity="0.5" fill-rule="evenodd" clip-rule="evenodd" d="M44.5896 179.772H71.2313C72.4292 179.772 73.4003 180.743 73.4003 181.941C73.4003 182.047 73.3925 182.153 73.3771 182.258L71.3179 196.222C70.6902 200.479 67.0376 203.632 62.7351 203.632H53.0859C48.7834 203.632 45.1308 200.479 44.5031 196.222L42.4439 182.258C42.2691 181.072 43.0881 179.97 44.2732 179.795C44.3779 179.78 44.4837 179.772 44.5896 179.772Z" fill="#C1DEE2"/>
</g>
<path fill-rule="evenodd" clip-rule="evenodd" d="M20.5693 186.911C20.5693 196.146 21.298 203.632 31.079 203.632C40.8599 203.632 41.5886 196.146 41.5886 186.911" fill="#F2F2F2"/>
<path fill-rule="evenodd" clip-rule="evenodd" d="M33.9887 181.149C33.6302 181.769 33.3105 182.401 33.0281 183.043C33.0182 181.721 33.0913 180.39 33.2908 179.04C33.632 176.728 34.153 174.428 34.6426 172.132C34.9945 170.481 34.9723 167.517 36.3077 166.202C36.6739 165.918 36.7621 166.476 36.7621 166.718C36.7667 166.769 36.7611 165.73 36.4056 165.911C34.2928 167.002 33.6082 170.434 32.9318 172.152C31.9449 174.659 31.1052 177.223 30.7595 179.832C30.6721 180.491 30.6245 181.15 30.6135 181.808C30.5417 181.632 30.4743 181.454 30.3997 181.279C29.1802 178.419 27.5346 175.628 25.4821 173.054C24.9769 172.421 18.6244 166.171 18.1271 167.128C18.1762 167.267 18.2789 167.382 18.4356 167.474C18.4448 167.484 18.445 167.478 18.4397 167.463C18.8127 168.066 19.8735 168.996 20.2039 169.525C21.0354 170.854 21.6817 172.264 22.3384 173.647C23.726 176.571 25.0131 179.524 26.2609 182.483C26.5515 183.173 26.8543 183.858 27.1633 184.542C23.9785 179.947 19.7299 175.777 13.8813 173.389C15.8789 174.406 17.1885 176.318 18.5375 177.782C20.1645 179.548 21.8782 181.266 23.5083 183.03C25.431 185.111 27.6932 187.302 29.5426 189.605C31.3339 193.366 33.0746 197.131 34.1492 201.085C33.7089 199.719 34.1147 197.831 34.0393 196.398C33.9795 195.257 33.8461 194.125 33.6634 192.995C33.8893 193.505 34.084 194.015 34.1722 194.489C34.0917 193.693 33.9989 192.903 33.8993 192.117C34.1551 191.38 34.4063 190.693 34.5759 190.127C35.4455 187.225 36.481 184.372 37.891 181.591C39.1958 179.019 40.6925 176.479 42.3234 174.017C43.0841 172.869 43.8553 171.726 44.6217 170.58C45.1233 169.83 45.6009 168.63 46.2993 167.911C41.785 172.039 36.8528 176.196 33.9887 181.149Z" fill="#F2F2F2"/>
<path fill-rule="evenodd" clip-rule="evenodd" d="M307.828 -7.28089C306.534 -11.598 303.495 -14.9769 300.341 -18.0728C294.201 -24.0998 290.899 -27.8263 288.71 -36.6428C287.423 -41.8279 286.113 -47.3227 282.031 -51.0846C279.059 -53.824 273.944 -56.1257 269.969 -54.164C263.854 -50.5138 262.212 -43.023 262.828 -36.3155C263.593 -28.0019 267.476 -22.8758 274.935 -19.8137C279.139 -18.0892 281.933 -15.8136 284.214 -11.8485C286.039 -8.67787 287.104 -4.70758 289.397 -1.8333C292.826 2.46335 297.117 4.37339 302.406 3.65967C297.452 -5.45559 291.664 -14.6565 284.683 -22.3311C284.029 -23.1027 280.175 -26.0559 280.952 -27.3709C281.809 -28.8188 285.766 -23.38 285.738 -23.4128C287.766 -21.0838 289.644 -18.6089 291.487 -16.1103C291.482 -16.1078 291.477 -16.1065 291.472 -16.1039C293.37 -13.54 295.253 -10.9383 297.1 -8.30388C297.847 -7.18957 298.574 -6.061 299.27 -4.90414C300.291 -3.2066 301.912 1.61137 303.583 2.65519C303.941 2.87837 304.272 3.00311 304.581 3.05457C305.721 4.9219 306.831 6.80421 307.886 8.70875C310.642 13.683 313.007 18.935 314.093 24.551C314.41 26.19 314.186 32.3215 315.304 33.5047C317.35 35.6691 316.751 31.5012 316.628 30.2432C315.612 19.8256 311.873 10.9503 306.443 2.1922C308.111 0.0135124 308.352 -5.5317 307.828 -7.28089Z" fill="#E1E9D9"/>
<path fill-rule="evenodd" clip-rule="evenodd" d="M237.77 -2.24735C239.927 -4.78835 245.11 -5.2195 248.281 -5.0494C252.204 -4.83896 256.233 -3.88388 259.966 -2.72902C266.114 -0.82684 272.088 2.64446 277.503 6.00432C278.155 6.40917 286.195 11.2443 285.483 12.0928C284.778 12.9335 276.886 7.19012 275.127 6.20022C271.374 4.08725 267.932 1.58841 263.794 0.193067C259.511 -1.25199 254.98 -1.82415 250.475 -1.7847C249.897 -1.77955 248.011 -2.18267 247.971 -1.32728C247.931 -0.490676 251.051 -0.927163 251.602 -0.922158C253.874 -0.901277 256.161 -0.687354 258.401 -0.293482C262.599 0.4444 266.545 1.93095 270.14 4.21101C269.137 6.5436 266.732 7.61914 264.21 7.03543C262.029 6.53065 259.904 5.28623 257.769 4.92636C256.299 4.67862 254.827 4.82601 253.401 5.24029C249.64 6.33337 247.471 8.57267 243.336 7.01502C240.094 5.79393 234.673 1.4069 237.77 -2.24735Z" fill="#D9DFD1"/>
<path fill-rule="evenodd" clip-rule="evenodd" d="M168.837 43.1281C171.517 39.9775 173.331 36.1164 173.027 31.7899C172.154 19.3241 154.829 22.0665 151.459 28.3581C148.089 34.6498 148.489 50.6091 152.845 51.7336C154.582 52.182 158.282 51.0835 162.048 48.8099L159.684 65.5601H173.642L168.837 43.1281Z" fill="#CFAF92"/>
<path fill-rule="evenodd" clip-rule="evenodd" d="M159.414 21.1068C161.254 20.8046 166.207 20.5969 167.121 20.597C167.704 20.597 168.337 20.7306 168.683 20.1937C168.966 19.7541 168.862 19.0106 168.947 18.5004C169.045 17.9078 169.184 17.3228 169.325 16.7393C169.726 15.0788 170.333 13.4991 171.182 12.016C172.774 9.23343 175.107 7.05385 178.052 5.78556C181.305 4.38516 184.985 4.0645 188.484 4.34855C192.227 4.65245 195.617 5.8903 199.151 7.05519C202.52 8.16523 206.048 8.60217 209.571 8.06009C213.121 7.51399 215.803 5.58707 218.797 3.75819C221.862 1.88585 225.364 0.661279 228.988 0.94278C232.37 1.20564 235.488 2.60442 238.284 4.473C240.901 6.22128 243.06 8.32469 244.279 11.2851C245.591 14.4696 245.59 17.965 243.433 20.7794C240.307 24.8588 234.504 25.9137 229.677 25.8088C226.884 25.7484 224.142 25.2378 221.505 24.3091C217.989 23.0704 214.951 20.971 211.662 19.2677C210.118 18.4684 208.522 17.8119 206.85 17.339C205.227 16.88 203.628 16.6694 202.159 17.6514C200.604 18.6902 199.212 19.7106 197.433 20.361C195.727 20.9848 193.92 21.3338 192.103 21.3197C188.566 21.2924 185.08 20.1888 181.645 19.4495C178.845 18.8468 175.848 18.2461 172.992 18.8255C171.801 19.0673 170.06 19.5665 169.63 20.8067C176.873 22.1216 179.718 31.0937 177.676 37.68C176.574 41.2349 169.949 45.3906 167.373 43.5217C165.741 42.3377 166.732 40.7834 167.373 39.7573C168.601 37.7923 169.021 35.2681 166.749 33.9001C164.79 32.7202 162.729 35.5221 162.69 35.5191C162.151 35.4765 157.497 32.8402 154.291 28.9931C151.127 29.181 150.647 27.0918 151.403 25.3833C152.158 23.6747 156.873 21.5245 159.414 21.1068Z" fill="#191847"/>
<path d="M179.458 215.263C154.726 215.263 134.676 196.094 134.676 172.449C134.676 148.804 154.726 129.635 179.458 129.635C204.19 129.635 224.239 148.804 224.239 172.449C224.239 196.094 204.19 215.263 179.458 215.263Z" fill="#C5CFD6"/>
<path fill-rule="evenodd" clip-rule="evenodd" d="M94.8326 208.657C102.284 192.139 107.673 177.755 109.836 170.166C113.54 157.172 116.358 145.738 117.07 141.468C118.768 131.285 104.006 130.692 102.055 135.753C99.102 143.412 93.9464 168.577 87.7516 206.588L94.8326 208.657ZM181.267 156.817C174.43 154.11 150.488 145.639 138.941 143.243C135.622 142.555 132.406 141.915 129.382 141.337C120.395 139.618 115.738 155.858 124.395 157.106C145.952 160.213 176.513 163.422 179.129 163.782C182.794 164.287 185.564 158.518 181.267 156.817Z" fill="#CFAF92"/>
<path fill-rule="evenodd" clip-rule="evenodd" d="M123.866 136.868L160.847 118.012V113.908H156.449C120.672 123.039 102.39 128.891 101.603 131.463C101.594 131.491 101.586 131.518 101.579 131.546C101.561 131.57 101.544 131.594 101.526 131.618C94.4358 141.384 90.1894 189.066 88.7957 192.636L102.382 194.666C107.58 175.363 124.208 161.916 123.766 138.797C123.885 138.119 123.915 137.476 123.866 136.868Z" fill="#1F28CF"/>
<path fill-rule="evenodd" clip-rule="evenodd" d="M157.774 148.066C161.158 147.387 164.274 146.782 166.94 146.314C184.163 143.288 189.185 134.054 186.216 113.908L154.484 113.908C149.3 115.399 122.362 126.714 108.385 132.732C99.1342 136.715 102.05 151.074 107.289 154.811C107.317 155.04 107.412 155.196 107.579 155.265C135.76 166.963 158.053 160.825 165.5 162.787L168.944 151.903L157.774 148.066Z" fill="#2B44FF"/>
<path fill-rule="evenodd" clip-rule="evenodd" d="M178.926 155.088C180.773 155.266 182.084 155.544 182.86 155.923C183.803 156.384 185.102 157.213 186.759 158.412C186.226 159.507 181.434 169.349 172.385 187.937C169.477 187.466 168.325 186.354 168.927 184.602C169.53 182.851 170.016 181.388 170.386 180.215L170.954 163.506C170.965 163.184 171.234 162.933 171.555 162.944C171.561 162.944 171.566 162.944 171.572 162.945L174.139 163.107C175.597 161.926 176.559 160.856 177.025 159.9C177.404 159.122 177.613 157.895 177.652 156.219L177.652 156.219C177.667 155.576 178.2 155.067 178.843 155.083C178.87 155.084 178.898 155.085 178.926 155.088Z" fill="#E4E4E4"/>
<path fill-rule="evenodd" clip-rule="evenodd" d="M124.789 97.957L103.716 88.6877C100.025 85.0033 96.4598 82.203 93.0219 80.2868C91.994 79.959 90.2377 79.86 92.1115 82.6012C93.9853 85.3424 95.8332 88.3102 95.0844 89.2709C94.3357 90.2316 92.1668 89.1712 91.31 90.7335C90.7387 91.7751 94.3947 93.021 102.278 94.4712L118.061 106.591L124.789 97.957ZM209.986 100.51L198.068 102.878C210.053 125.249 216.481 137.106 217.351 138.448C219.307 141.469 217.482 147.004 216.807 149.918C221.038 150.905 219.37 144.527 224.724 145.858C229.611 147.074 233.754 150.193 238.311 145.986C238.872 145.469 239.282 143.852 237.371 143.023C232.613 140.957 225.582 137.089 224.442 135.587C222.887 133.539 218.068 121.847 209.986 100.51Z" fill="#CFAF92"/>
<path fill-rule="evenodd" clip-rule="evenodd" d="M165.678 55.8511L160.649 54.9872C149.695 65.6295 145.225 91.1975 137.925 94.5818C131.024 97.7816 121.24 94.6852 109.611 90.5043L106.049 98.4741C116.616 109.924 139.126 119.597 148.25 114.075C162.839 105.246 166.206 73.7115 165.678 55.8511Z" fill="#DB2721"/>
<path fill-rule="evenodd" clip-rule="evenodd" d="M187.6 119.15C167.436 119.15 152.603 119.15 143.103 119.15C141.069 119.15 141.452 116.209 141.746 114.726C145.139 97.5998 158.381 79.1391 158.381 54.761L171.216 52.7451C181.832 69.8464 185.504 90.9015 187.6 119.15Z" fill="#DDE3E9"/>
<path fill-rule="evenodd" clip-rule="evenodd" d="M192.038 101.811C201.109 118.199 208.734 129.998 214.912 137.208L224.239 135.378C218.231 98.0582 200.833 70.5139 172.044 52.7451L171.897 52.7451L166.962 52.7451C155.439 92.0854 152.263 118.298 157.432 131.383H197.487C196.853 121.808 194.821 111.683 192.038 101.811H192.038Z" fill="#FF4133"/>
</svg>
