<svg width="366" height="433" viewBox="0 0 366 433" fill="none" xmlns="http://www.w3.org/2000/svg">
<g opacity="0.2">
<path opacity="0.7" fill-rule="evenodd" clip-rule="evenodd" d="M23.8555 190.961C35.94 190.335 50.885 197.377 52.1743 210.491C53.1108 220.019 52.8208 229.52 54.2701 239.034C55.4291 246.638 57.8802 253.937 61.2232 260.863C64.4377 267.524 71.1058 273.193 72.8401 280.308C73.9455 284.842 73.3267 291.22 71.8024 295.654C69.9485 301.046 70.9338 300.62 74.6277 305.144C81.8659 314.01 88.3836 323.102 92.9926 333.691C99.6316 348.943 103.984 366.772 101.52 383.467C101.207 385.587 100.835 393.195 97.9108 393.727C94.6447 394.322 96.1719 389.971 96.3463 388.565C97.4575 379.596 98.4449 371.757 97.1045 362.648C91.9321 327.504 66.678 304.349 50.2342 274.522C49.3302 272.983 47.4218 269.321 46.095 266.904C44.0001 263.089 41.8941 255.83 39.0583 253.001C33.7174 247.672 38.6276 258.386 39.6683 260.431C40.9841 263.018 42.4316 265.768 43.78 268.035C49.9495 278.543 56.8359 290.014 63.2077 300.846C35.6501 307.114 16.2423 274.04 8.84706 252.295C2.75399 234.38 -4.53614 192.494 23.8555 190.961Z" fill="white"/>
<path opacity="0.7" fill-rule="evenodd" clip-rule="evenodd" d="M185.823 157.692C165.621 159.292 152.652 172.6 146.615 191.213C143.362 201.244 142.989 211.549 141.181 221.857C138.46 237.366 132.608 249.119 121.17 260.169C117.628 263.591 115.017 267.104 113.161 270.863C109.477 274.616 106.27 278.863 103.914 284.056C100.905 290.687 100.053 298.643 103.528 305.254C104.462 307.032 106.793 310.599 109.209 312.22C100.165 331.449 95.1922 352.508 95.7527 373.541C96.0914 386.237 96.7123 398.939 97.4366 411.62C97.6316 415.025 98.7423 420.647 100.41 414.937C101.937 409.714 100.023 401.514 99.8454 396.058C98.9834 369.476 98.2465 345.307 109.207 320.473C110.356 317.87 111.575 315.288 112.844 312.726C112.919 312.683 112.988 312.631 113.058 312.58C113.106 312.618 113.15 312.658 113.199 312.694C113.28 312.55 113.391 312.378 113.52 312.186C113.884 311.811 114.202 311.337 114.504 310.808C115.476 309.463 116.577 307.883 116.583 307.018C116.583 307.011 116.579 307.001 116.579 306.994C123.364 295.937 131.136 285.489 139.074 275.245C139.014 275.319 147.684 263.534 146.344 270.052C145.698 273.192 139.32 279.174 136.745 282.5C131.047 289.901 124.356 299.279 118.796 308.348C118.048 308.777 116.991 310.884 116.227 312.454C115.805 313.249 115.411 314.051 115.024 314.75C134.724 321.248 150.049 308.159 160.499 292.934C160.512 292.917 160.523 292.898 160.535 292.88C163.715 288.673 166.972 284.496 171.042 281.171C177.832 275.622 185.103 274.643 193.108 271.912C214.939 264.466 224.221 236.22 227.169 215.262C230.495 191.617 214.226 155.36 185.823 157.692Z" fill="white"/>
<path opacity="0.7" fill-rule="evenodd" clip-rule="evenodd" d="M145.918 91.4779C125.184 113.021 115.167 142.901 107.236 170.992C98.3772 202.366 92.5259 234.224 92.3013 266.844C92.1541 288.275 91.5701 309.84 92.8231 331.247C93.2676 338.849 94.0268 346.465 95.2337 353.985C95.3332 354.603 98.0336 371.396 100.617 367.483C102.087 365.258 97.8494 350.063 97.5291 347.532C95.7279 333.278 95.3094 318.919 95.3972 304.562C95.5417 280.923 94.8435 257.406 97.2434 233.854C97.6012 230.338 97.8843 226.644 98.721 223.204C99.6092 219.547 98.4779 221.144 101.371 219.696C104.183 218.288 107.657 218.489 110.574 216.723C122.146 209.719 128.065 191.726 132.672 179.92C137.941 166.419 141.144 152.023 143.702 137.816C145.58 127.377 146.923 117.002 147.682 106.429C147.922 103.097 147.936 99.6125 148.592 96.336C148.769 95.4522 149.655 93.8887 149.623 93.106C149.555 91.4495 148.554 90.4753 148.472 89.0833C147.604 89.8631 146.752 90.6619 145.918 91.4779Z" fill="white"/>
<path opacity="0.7" fill-rule="evenodd" clip-rule="evenodd" d="M32.8647 378.502C32.8647 414.129 61.7943 443.01 97.4806 443.01C133.167 443.01 162.097 414.129 162.097 378.502" fill="white"/>
<path opacity="0.7" fill-rule="evenodd" clip-rule="evenodd" d="M102.665 378.708H99.251C99.4879 374.431 99.8008 370.162 100.517 365.933C103.256 349.76 111.82 326.005 130.603 323.379C131.296 323.282 133.845 323.265 136.933 323.446C138.396 322.63 140.035 322.136 141.762 322.022C157.755 320.845 175.614 333.726 183.328 347.129C189.546 357.936 188.499 372.127 184.658 383.608C182.086 391.295 176.472 402.254 167.111 402.361C155.399 402.494 154.834 388.043 154.607 379.595C154.306 368.363 152.885 358.578 144.019 350.922C141.953 349.139 139.695 347.57 137.608 345.811C134.34 343.058 130.728 340.239 130.307 335.685C129.726 329.402 133.279 328.271 138.703 329.439C139.628 329.637 148.942 333.81 147.563 330.512C147.142 329.504 145.604 328.706 143.663 328.108C138.641 327.563 132.651 326.93 130.928 327.308C112.344 331.378 105.108 357.078 103.187 373.406C102.979 375.169 102.811 376.937 102.665 378.708Z" fill="white"/>
</g>
<g opacity="0.2">
<path fill-rule="evenodd" clip-rule="evenodd" d="M311.431 150.502C307.571 148.591 302.426 150.807 304.573 155.858C306.872 161.267 315.372 161.334 320.173 161.226C319.692 161.201 318.145 156.241 317.615 155.492C316.053 153.281 313.804 151.679 311.431 150.502ZM355.899 247.474C356.873 248.305 355.979 247.552 355.899 247.474V247.474ZM307.713 174.966C305.454 176.689 305.347 179.732 307.192 181.792C309.388 184.244 313.4 184.155 316.394 183.916C317.749 183.808 324.982 183.23 323.267 182.048C323.399 182.098 323.674 182.219 323.969 182.383C324.128 182.961 324.294 183.538 324.468 184.112C324.425 184.137 324.389 184.163 324.344 184.188C324.393 184.166 324.427 184.143 324.471 184.121C326.21 189.858 328.686 195.321 331.928 200.431C330.715 199.954 329.458 199.593 328.184 199.433C324.411 198.956 316.474 201.884 320.694 206.899C324.741 211.707 331.042 206.549 335.634 205.837C340.089 212.045 345.001 217.993 350.149 223.743C349.833 223.842 349.557 224.047 349.398 224.367C347.333 223.321 345.181 221.825 343.27 221.42C340.512 220.836 334.857 220.482 332.772 222.947C330.209 225.977 332.957 228.439 335.986 229.02C340.378 229.863 346.127 227.72 350.353 226.273C350.837 226.358 351.364 226.217 351.68 225.831C351.773 225.8 351.866 225.77 351.957 225.741C357.17 231.463 362.582 236.996 367.962 242.408C367.904 242.405 367.847 242.401 367.787 242.398C366.384 241.479 364.879 240.725 363.248 240.331C359.474 239.412 355.033 239.408 351.97 242.134C348.92 244.848 347.839 249.596 350.995 252.644C357.313 258.745 366.62 244.834 369.807 244.253C375.274 249.695 381.054 254.779 386.925 259.761C386.258 259.558 385.575 259.409 384.868 259.342C379.111 258.792 365.597 265.838 372.663 272.771C378.82 278.813 385.946 267.185 390.908 263.118C396.441 267.761 402.004 272.373 407.41 277.164C404.461 276.382 401.612 276.267 398.451 277.22C395.18 278.209 389.902 280.674 391.969 285.083C394.072 289.567 400.41 287.526 403.711 286.103C405.512 285.327 409.122 282.706 412.291 281.603C420.918 289.734 428.391 298.69 434.049 309.241C437.58 315.828 440.261 322.866 442.147 330.1C443.351 334.717 445.724 342.472 445.249 348.481C447.513 336.452 443.419 322.006 439.009 311.254C434.955 301.368 428.886 292.689 421.779 284.876C423.562 279.52 438.575 271.796 429.6 266.82C424.834 264.189 419.953 268.554 418.911 273.178C418.196 276.355 419.286 280.347 420.443 283.431C418.207 281.05 415.883 278.745 413.487 276.516C410.177 273.436 406.788 270.446 403.366 267.493C409.005 262.205 414.341 247.086 406.781 244.614C395.617 240.973 400.992 261.595 401.771 265.46C401.992 265.473 402.165 265.407 402.291 265.264C402.229 265.618 402.156 265.996 402.067 266.378C395.518 260.756 388.872 255.244 382.444 249.488C383.024 249.061 383.944 247.428 384.668 246.559C386.3 244.6 387.863 242.553 389.005 240.262C390.808 236.64 392.548 230.863 387.767 228.733C382.567 226.412 380.096 232.945 380.06 236.843C380.035 239.539 380.771 242.1 381.154 244.742C381.274 245.566 380.812 249.281 381.937 247.683C381.884 248.272 381.876 248.698 381.903 249.001C380.749 247.962 379.604 246.912 378.466 245.855C378.519 245.721 378.558 245.576 378.566 245.407C378.627 244.245 377.456 243.798 376.635 244.138C375.134 242.714 373.647 241.271 372.187 239.8C369.092 236.684 365.953 233.479 362.835 230.205C363.511 229.625 363.242 228.822 363.875 228.206C364.506 227.592 365.75 227.252 366.493 226.681C368.361 225.244 369.91 223.151 371.03 221.092C372.88 217.688 375.27 210.549 369.867 208.927C364.298 207.253 361.471 214.125 361.113 218.422C361.043 219.254 361.668 226.754 362.145 229.478C356.376 223.394 350.702 217.082 345.561 210.66C347.12 210.646 351.539 207.458 352.433 206.588C354.612 204.466 358.078 199.777 354.256 197.296C350.858 195.096 346.67 198.283 345.217 201.381C344.978 201.891 344.136 206.639 344.07 208.769C341.942 206.045 339.913 203.306 338.024 200.558C336.765 198.731 335.588 196.856 334.487 194.941C334.752 194.791 335.001 194.529 335.237 194.204C340.904 193.244 348.129 184.416 341.473 181.345C338.303 179.885 334.866 182.899 333.314 185.367C332.996 185.872 332.481 188.411 332.061 190.413C328.894 184.069 326.473 177.352 324.631 170.465C325.124 170.343 325.542 169.967 325.597 169.319C328.348 167.753 330.521 166.45 332.442 163.438C333.635 161.568 335.784 157.295 332.278 156.256C327.715 154.906 324.849 161.863 324.476 165.29C324.432 165.688 324.434 166.845 324.449 167.905C324.29 167.883 324.13 167.886 323.973 167.913C322.925 163.649 322.089 159.33 321.424 155.003C323.914 154.203 324.345 141.146 322.687 139.287C318.98 135.124 316.366 141.137 316.563 144.316C316.797 148.063 318.498 151.472 320.524 154.497C320.741 154.818 320.679 154.802 320.735 154.356C320.766 154.576 320.84 154.739 320.95 154.857C320.845 156.83 320.642 158.849 320.739 160.595C321.02 165.594 321.603 170.622 322.45 175.556C322.656 176.756 322.892 177.946 323.156 179.127C321.155 177.424 318.456 175.911 317.4 175.438C314.659 174.212 310.435 172.888 307.713 174.966ZM445.57 348.498C445.443 350.241 445.128 351.837 444.54 353.153C444.981 351.655 445.319 350.097 445.57 348.498Z" fill="white"/>
<path fill-rule="evenodd" clip-rule="evenodd" d="M385.517 91.8479C383.174 84.0479 377.675 77.9429 371.966 72.3493C360.853 61.4597 354.875 54.7268 350.914 38.7974C348.585 29.429 346.214 19.5012 338.826 12.7043C333.446 7.75465 324.188 3.59605 316.993 7.1404C305.925 13.7355 302.953 27.2697 304.069 39.3888C305.453 54.4095 312.481 63.6713 325.983 69.2038C333.59 72.3197 338.647 76.4311 342.777 83.5952C346.081 89.3238 348.007 96.4973 352.158 101.69C358.364 109.454 366.13 112.905 375.703 111.615C366.737 95.1458 356.261 78.5218 343.625 64.6554C342.442 63.2613 335.466 57.9255 336.873 55.5496C338.423 52.9337 345.585 62.7604 345.534 62.701C349.206 66.909 352.604 71.3806 355.941 75.8951C355.932 75.8995 355.922 75.9019 355.913 75.9066C359.348 80.5391 362.756 85.2398 366.099 89.9995C367.451 92.0129 368.767 94.0519 370.027 96.1421C371.876 99.2092 374.809 107.914 377.835 109.8C378.482 110.203 379.08 110.429 379.64 110.522C381.704 113.896 383.712 117.297 385.622 120.738C390.61 129.725 394.891 139.214 396.856 149.361C397.43 152.322 397.024 163.401 399.049 165.538C402.751 169.449 401.667 161.919 401.445 159.646C399.606 140.823 392.838 124.788 383.01 108.964C386.029 105.027 386.465 95.0083 385.517 91.8479Z" fill="white"/>
<path fill-rule="evenodd" clip-rule="evenodd" d="M258.715 100.942C262.618 96.3511 272 95.5721 277.739 95.8795C284.839 96.2597 292.132 97.9853 298.888 100.072C310.016 103.509 320.829 109.781 330.63 115.851C331.811 116.583 346.362 125.319 345.074 126.852C343.798 128.371 329.514 117.994 326.33 116.205C319.537 112.387 313.306 107.873 305.818 105.351C298.064 102.741 289.864 101.707 281.711 101.778C280.665 101.787 277.251 101.059 277.178 102.605C277.105 104.116 282.753 103.327 283.749 103.336C287.863 103.374 292.001 103.761 296.056 104.472C303.654 105.806 310.796 108.491 317.303 112.611C315.488 116.825 311.135 118.769 306.569 117.714C302.623 116.802 298.776 114.554 294.912 113.903C292.251 113.456 289.586 113.722 287.006 114.471C280.199 116.446 276.273 120.492 268.789 117.677C262.922 115.471 253.109 107.545 258.715 100.942Z" fill="white"/>
<path fill-rule="evenodd" clip-rule="evenodd" d="M263.13 57.4949H264.976C264.847 55.1555 264.678 52.8199 264.282 50.5067C262.798 41.8359 258.157 29.1008 247.978 27.6935C247.602 27.641 246.221 27.6322 244.548 27.7291C243.755 27.2915 242.866 27.0268 241.931 26.966C233.264 26.3349 223.586 33.24 219.406 40.4258C216.036 46.2194 216.603 53.8271 218.685 59.9823C220.079 64.1031 223.121 69.9783 228.194 70.0356C234.541 70.1073 234.847 62.3598 234.97 57.8306C235.133 51.8092 235.903 46.5637 240.707 42.4593C241.827 41.5032 243.051 40.662 244.182 39.7191C245.953 38.2433 247.91 36.7322 248.138 34.2906C248.453 30.9222 246.528 30.316 243.588 30.9418C243.087 31.0483 238.04 33.2853 238.787 31.5172C239.015 30.977 239.849 30.549 240.9 30.2283C243.622 29.936 246.868 29.5969 247.802 29.7995C257.873 31.9816 261.794 45.7593 262.836 54.513C262.953 55.5042 263.048 56.4988 263.13 57.4949H263.13Z" fill="white"/>
</g>
<path fill-rule="evenodd" clip-rule="evenodd" d="M283.738 149.49C288.346 144.081 291.464 137.453 290.943 130.025C289.442 108.625 259.651 113.333 253.857 124.134C248.062 134.935 248.75 162.333 256.24 164.263C259.226 165.033 265.589 163.147 272.065 159.244L268 188H292L283.738 149.49Z" fill="#EED6BF"/>
<path fill-rule="evenodd" clip-rule="evenodd" d="M243.224 109.16C243.721 107.413 245.058 105.918 246.86 105.474C247.296 105.366 247.748 105.323 248.197 105.341C248.358 105.347 248.404 105.394 248.479 105.281C248.535 105.198 248.536 104.993 248.559 104.895C248.631 104.59 248.72 104.288 248.831 103.994C249.208 102.992 249.841 102.105 250.605 101.357C252.033 99.9593 253.963 98.9944 255.968 98.8199C257.066 98.7244 258.155 98.9027 259.193 99.2597C259.73 99.4445 260.251 99.6746 260.758 99.929C260.911 100.006 261.406 100.381 261.559 100.356C261.729 100.33 262.069 99.9088 262.207 99.8032C263.908 98.4979 266.009 97.9847 268.128 98.0003C270.52 98.018 272.823 98.1375 274.818 99.5957C275.241 99.9044 275.643 100.242 276.026 100.598C276.228 100.786 276.423 100.98 276.609 101.183C276.722 101.305 276.831 101.43 276.936 101.558C277.115 101.776 277.086 101.847 277.337 101.695C278.297 101.112 279.409 100.839 280.53 100.977C281.195 101.059 281.843 101.258 282.458 101.521C282.667 101.611 283.151 101.968 283.374 101.971C283.596 101.975 284.073 101.644 284.301 101.56C285.533 101.105 286.86 100.993 288.154 101.203C289.489 101.42 290.8 101.952 291.931 102.688C292.475 103.043 292.95 103.435 293.331 103.961C293.496 104.188 293.644 104.429 293.831 104.64C293.94 104.763 294.156 104.89 294.215 105.046C294.18 104.952 295.675 104.376 295.816 104.339C296.568 104.143 297.333 104.183 298.069 104.425C299.453 104.88 300.643 105.902 301.621 106.949C302.123 107.487 302.563 108.081 302.936 108.715C303.115 109.018 303.279 109.33 303.428 109.649C303.501 109.803 303.549 109.996 303.644 110.135C303.768 110.315 303.85 110.318 304.073 110.396C305.206 110.793 306.238 111.465 307.025 112.372C307.82 113.29 308.336 114.421 308.552 115.612C308.565 115.682 308.573 115.972 308.614 116.01C308.67 116.063 308.898 116.04 308.984 116.05C309.282 116.085 309.579 116.137 309.871 116.206C310.41 116.333 310.934 116.521 311.43 116.767C313.364 117.724 314.747 119.517 315.424 121.536C316.135 123.655 316.122 126.082 315.273 128.161C315.136 128.496 314.973 128.822 314.781 129.131C314.664 129.32 314.626 129.32 314.702 129.519C314.787 129.74 314.943 129.954 315.044 130.17C315.374 130.875 315.604 131.622 315.75 132.385C315.989 133.637 316.108 134.952 315.872 136.214C315.762 136.799 315.572 137.372 315.281 137.893C315.132 138.159 314.958 138.412 314.762 138.645C314.661 138.766 314.553 138.882 314.439 138.993C314.375 139.056 314.29 139.111 314.235 139.182C314.101 139.355 314.073 139.213 314.142 139.466C314.239 139.82 314.458 140.169 314.592 140.514C314.731 140.869 314.856 141.229 314.97 141.592C315.202 142.328 315.398 143.077 315.521 143.84C315.756 145.303 315.715 146.862 315.023 148.205C314.727 148.779 314.302 149.283 313.787 149.675C313.535 149.867 313.262 150.032 312.976 150.168C312.829 150.238 312.641 150.268 312.574 150.41C312.501 150.563 312.609 150.867 312.633 151.038C312.846 152.526 312.953 154.089 312.51 155.547C312.103 156.891 311.206 158.077 310.041 158.862C307.781 160.385 304.735 160.299 302.361 159.08C301.742 158.762 301.163 158.367 300.647 157.902C299.331 159.672 296.625 159.616 294.703 159.112C292.308 158.483 290.386 156.818 289.279 154.63C287.765 156.473 284.588 155.875 283.538 153.876C283.281 153.386 283.129 152.847 283.054 152.301C283.014 152.014 283.039 151.725 283.01 151.44C282.972 151.077 282.73 150.725 282.59 150.374C282.319 149.691 282.151 148.985 282.143 148.249C282.14 147.864 282.188 147.489 282.225 147.108C282.258 146.764 282.163 146.444 282.108 146.105C282.723 146.206 283.471 146.041 284.05 145.863C284.617 145.688 285.149 145.228 285.55 144.807C286.481 143.831 287.049 142.551 287.438 141.278C288.292 138.483 287.942 135.129 285.13 133.595C283.82 132.88 279.897 132.883 278.337 133.236C276.696 133.607 274.837 137.226 274.745 137.567C274.689 137.777 274.717 138.038 274.524 138.178C274.099 138.486 273.398 137.951 273.084 137.687C272.543 137.231 272.157 136.624 271.823 136.009C271.095 134.67 270.508 133.233 270.093 131.766C269.773 130.636 269.569 129.47 269.151 128.368C268.735 127.271 268.08 126.291 267.06 125.67C265.952 124.994 264.681 124.638 263.464 124.214C262.257 123.793 261.071 123.279 260.136 122.386C259.93 122.189 259.731 121.981 259.565 121.75C259.435 121.567 259.305 121.218 259.106 121.102C258.797 120.922 258.345 121.39 258.077 121.56C256.757 122.399 255.655 123.568 254.767 124.846C253.883 126.117 253.158 127.339 252.569 128.758C252.132 129.811 251.859 131.159 251.091 132.021C250.748 132.406 248.197 132.639 247.371 132.303C246.545 131.967 245.619 131.094 245.342 130.547C245.058 129.987 244.99 129.371 245.111 128.758C245.183 128.398 245.328 128.061 245.408 127.707C245.475 127.409 245.536 127.128 245.681 126.855C245.955 126.339 246.424 125.967 246.99 125.812C246.401 125.269 245.914 124.62 245.576 123.895C245.226 123.141 244.928 122.224 244.844 121.396C244.776 120.724 244.881 120.028 245.249 119.45C245.635 118.844 246.319 118.449 246.911 118.071C246.007 117.364 245.233 116.504 244.598 115.552C243.361 113.701 242.596 111.368 243.224 109.16Z" fill="#663259"/>
<path fill-rule="evenodd" clip-rule="evenodd" d="M359 313H244C235.163 313 228 320.163 228 329V421C228 429.837 235.163 437 244 437H359C367.837 437 375 429.837 375 421V329C375 320.163 367.837 313 359 313ZM343 341C345.209 341 347 342.791 347 345V405C347 407.209 345.209 409 343 409H260C257.791 409 256 407.209 256 405V345C256 342.791 257.791 341 260 341H343Z" fill="#1B283F"/>
<path fill-rule="evenodd" clip-rule="evenodd" d="M156.491 433.66C169.304 405.301 178.57 380.608 182.289 367.58C188.658 345.272 193.502 325.643 194.727 318.313C197.647 300.832 172.265 299.814 168.91 308.502C163.832 321.651 154.967 364.853 144.316 430.107L156.491 433.66ZM305.112 344.663C293.356 340.017 252.188 325.475 232.333 321.361C226.627 320.179 221.097 319.081 215.898 318.088C200.444 315.138 192.438 343.017 207.322 345.159C244.389 350.494 296.937 356.003 301.434 356.621C307.737 357.488 312.5 347.584 305.112 344.663Z" fill="#EED6BF"/>
<path fill-rule="evenodd" clip-rule="evenodd" d="M206.413 310.416L270 278.047V271H262.438C200.92 286.676 169.485 296.722 168.131 301.138C168.117 301.185 168.103 301.233 168.091 301.281C168.06 301.321 168.03 301.362 168 301.403C155.808 318.17 148.507 400.027 146.111 406.156L169.472 409.641C178.409 376.503 207 353.418 206.241 313.729C206.446 312.565 206.497 311.461 206.413 310.416Z" fill="#1F28CF"/>
<path fill-rule="evenodd" clip-rule="evenodd" d="M264.717 329.64C270.535 328.476 275.893 327.436 280.477 326.632C310.091 321.438 318.726 305.586 313.62 271L259.058 271C250.145 273.56 203.826 292.985 179.793 303.316C163.887 310.154 168.901 334.804 177.909 341.219C177.958 341.613 178.12 341.88 178.409 342C226.863 362.083 265.195 351.545 278 354.912L283.923 336.228L264.717 329.64Z" fill="#2B44FF"/>
<path fill-rule="evenodd" clip-rule="evenodd" d="M301.092 341.694C304.267 341.997 306.52 342.474 307.853 343.124C309.474 343.915 311.707 345.338 314.553 347.395C313.636 349.275 305.395 366.173 289.828 398.089C284.831 397.282 282.85 395.375 283.888 392.367C284.925 389.359 285.761 386.849 286.397 384.835L287.385 356.15C287.404 355.598 287.867 355.166 288.418 355.185C288.428 355.185 288.437 355.186 288.447 355.186L292.859 355.464C295.367 353.434 297.021 351.598 297.822 349.955C298.473 348.62 298.833 346.514 298.902 343.637L298.902 343.637C298.929 342.533 299.845 341.659 300.95 341.685C300.997 341.686 301.045 341.689 301.092 341.694Z" fill="#E4E4E4"/>
<path fill-rule="evenodd" clip-rule="evenodd" d="M162.322 428.402C163.441 431.388 164 433.623 164 435.106C164 436.909 163.7 439.54 163.099 443C161.007 443 142.206 443 106.697 443C105.231 438.155 106.077 435.539 109.235 435.152C112.393 434.766 115.016 434.417 117.105 434.106L143.32 422.419C143.824 422.194 144.416 422.421 144.641 422.925C144.644 422.934 144.648 422.942 144.652 422.951L146.337 427.039C149.26 428.403 151.636 429.085 153.463 429.085C154.948 429.085 156.999 428.485 159.616 427.286L159.616 427.285C160.62 426.825 161.807 427.266 162.267 428.27C162.287 428.313 162.305 428.357 162.322 428.402Z" fill="#E4E4E4"/>
<path fill-rule="evenodd" clip-rule="evenodd" d="M211.956 255.123L183.628 282.758C175.385 286.273 168.632 290.156 163.367 294.404C162.184 295.832 160.895 298.568 166.465 297.344C172.035 296.12 177.949 295.082 178.996 296.894C180.043 298.705 176.958 301.481 178.893 303.852C180.183 305.432 184.521 300.405 191.907 288.77L221.364 271.403L211.956 255.123ZM337.692 259.02L316.795 259.102C329.698 300.756 336.664 322.857 337.692 325.406C340.006 331.14 335.11 339.874 333.016 344.567C339.836 347.619 339.109 336.317 347.712 340.32C355.565 343.973 361.538 350.593 370.611 344.994C371.727 344.306 372.949 341.715 369.996 339.69C362.638 334.645 352.035 325.815 350.602 322.908C348.649 318.945 344.345 297.649 337.692 259.02Z" fill="#EED6C0"/>
<path fill-rule="evenodd" clip-rule="evenodd" d="M278.305 171.332L269.658 169.849C254.771 207.039 228.779 240.831 191.682 271.225L219.714 305.281C256.806 262.005 279.67 217.355 278.305 171.332Z" fill="#F8374B"/>
<path fill-rule="evenodd" clip-rule="evenodd" d="M316 280H239C256.839 236.625 265.759 199.779 265.759 169.461L288.986 166C307.24 195.358 312.395 231.505 316 280Z" fill="#DDE3E9"/>
<path fill-rule="evenodd" clip-rule="evenodd" d="M289.478 166.016C289.475 166.011 289.471 166.005 289.468 166L287.952 166C286.138 166.062 283.375 166.175 279.662 166.338L274.05 182.377C273.456 201.932 269.989 241.342 263.649 300.606H314.124C313.992 304.699 313.773 308.83 313.469 313H351C345.386 249.664 324.885 200.664 289.496 166L289.478 166.016V166.016Z" fill="#F64E60"/>
<path fill-rule="evenodd" clip-rule="evenodd" d="M310.79 248.233C309.353 273.748 305.757 291.337 300 301H314.111C314.729 282.643 313.622 265.054 310.79 248.233V248.233Z" fill="black" fill-opacity="0.1"/>
<path fill-rule="evenodd" clip-rule="evenodd" d="M302.889 270L278 258.429V270H302.889Z" fill="white" fill-opacity="0.2"/>
</svg>
