<svg width="600" height="396" viewBox="0 0 600 396" fill="none" xmlns="http://www.w3.org/2000/svg">
<path d="M43.1523 135.44C43.1523 135.44 42.3747 132.934 44.2756 129.995L44.4484 132.156L43.1523 135.44Z" fill="#DD9588"/>
<path d="M539.454 381.208C539.973 380.344 540.491 379.48 541.009 378.529C544.638 368.591 543.342 362.456 541.701 358.74C535.22 344.222 517.508 336.444 478.54 330.136C475.688 329.704 457.889 324.087 450.891 307.063C446.311 296.001 448.903 284.94 450.718 278.286C456.939 254.781 470.85 252.793 478.281 233.436C484.415 217.449 484.156 194.721 472.146 177.784C457.112 156.525 428.598 151.34 407.602 155.575C387.038 159.723 372.868 173.636 365.783 182.105C361.722 173.031 354.723 160.068 342.8 147.452C313.854 116.601 269.529 101.997 229.265 107.527C184.249 113.749 156.341 143.477 142.343 158.427C63.8025 242.337 83.6753 371.011 87.9091 395.38H658C628.104 391.146 581.187 386.393 539.454 381.208Z" fill="#E2B674"/>
<path d="M186.669 375.764C190.211 383.109 196.432 386.998 199.111 388.726C200.493 389.59 206.887 393.479 215.959 394.516C218.119 394.775 219.675 394.775 220.539 394.775C266.765 394.775 289.23 395.467 305.906 395.467C344.787 395.467 406.652 395.294 488.217 395.294C499.45 389.245 547.058 360.468 565.635 297.903C566.931 293.668 590.865 207.252 547.576 157.044C544.898 153.933 517.854 123.341 489.427 130.514C459.445 138.032 455.384 180.981 418.835 189.623C403.282 193.339 390.235 188.845 385.829 187.29C349.799 174.5 349.453 136.045 317.743 125.502C301.326 120.058 279.812 124.638 267.542 140.365C250.348 162.315 253.372 199.906 268.579 222.98C277.738 236.806 287.329 240.522 292.686 258.151C294.587 264.373 298.388 277.681 292.513 291.94C284.218 311.902 263.309 318.47 260.025 318.988C221.316 325.21 191.075 334.543 185.977 352.518C181.916 365.999 186.669 375.764 186.669 375.764Z" fill="#FFD494"/>
<path d="M457.544 361.159C467.135 359.777 470.072 354.765 480.613 355.11C489.167 355.369 490.723 358.826 500.918 361.159C506.448 362.456 523.383 366.344 532.715 358.826C543.688 349.839 543.947 331.173 535.912 317.778C526.148 301.705 511.632 294.187 506.707 278.977C504.634 272.583 505.93 270.163 505.498 260.83C504.029 228.165 488.563 192.302 476.812 192.82C472.492 192.993 469.554 198.005 465.493 205.005C459.877 214.511 459.877 221.338 456.507 240.004C453.742 254.954 452.446 262.472 449.335 270.422C444.842 282.088 441.473 283.99 435.079 295.829C425.488 313.371 414.774 332.988 422.118 346.641C427.994 357.53 445.102 362.888 457.544 361.159Z" fill="#F89C53"/>
<path d="M491.932 395.294C491.932 395.294 477.244 362.542 480.095 331C482.946 299.372 486.316 305.766 481.823 277.767C477.33 249.769 479.75 228.856 479.75 228.856C479.75 228.856 469.813 267.138 476.121 289.261C482.428 311.383 466.53 320.284 467.653 354.678C468.776 389.072 467.567 395.294 467.567 395.294H491.932Z" fill="#465477"/>
<path d="M481.218 321.149L512.842 312.334L480.095 331.259L481.218 321.149Z" fill="#465477"/>
<path d="M478.194 307.581L454.433 293.409L478.194 297.903V304.729V307.581Z" fill="#465477"/>
<path d="M553.624 347.679C576.148 347.679 594.407 329.417 594.407 306.89C594.407 284.363 576.148 266.101 553.624 266.101C531.101 266.101 512.842 284.363 512.842 306.89C512.842 329.417 531.101 347.679 553.624 347.679Z" fill="#F26F6F"/>
<path d="M554.662 318.902L586.458 310.087L553.625 329.012L554.662 318.902Z" fill="#465477"/>
<path d="M553.625 306.89L529.777 292.718L553.625 301.791V304.038V306.89Z" fill="#465477"/>
<path d="M554.402 284.249L546.799 395.294H560.45L554.402 284.249Z" fill="#465477"/>
<path d="M206.023 379.652L205.159 384.578L219.07 389.158L219.934 389.59C220.798 390.109 220.452 391.405 219.416 391.491L206.282 392.356C204.208 392.528 197.728 392.701 196.173 391.664C194.445 390.541 194.79 390.714 194.531 389.158L195.136 385.874L195.914 379.22L206.023 379.652Z" fill="#FAB074"/>
<path d="M195.223 384.405C195.223 384.405 192.803 392.701 197.037 394.343C200.752 395.726 210.689 395.294 218.552 395.035C221.057 394.948 225.55 394.516 225.032 392.442C224.427 390.109 212.935 387.171 212.935 387.171C213.454 387.343 215.268 387.948 215.873 388.121C217.342 388.64 215.614 389.331 213.627 389.417C208.529 389.677 194.186 390.022 195.223 384.405Z" fill="#544A89"/>
<path d="M227.105 209.153C227.105 209.153 229.265 240.695 220.625 295.656L205.418 382.591L195.482 382.159C195.482 382.159 194.531 314.149 200.752 292.545C200.147 277.249 195.222 264.632 192.544 251.065C189.52 247.867 187.878 243.719 186.928 240.176C184.94 233.349 185.632 219.955 189.52 214.338C195.827 204.918 201.098 204.486 227.105 209.153Z" fill="#453C73"/>
<path opacity="0.4" d="M187.36 219.264C187.36 219.264 192.631 227.646 198.16 228.942C204.036 230.411 210.775 293.841 210.775 293.841L215.268 320.371C215.268 320.371 211.294 293.755 205.764 281.57C203.604 276.731 197.815 262.299 193.063 252.102C190.989 249.337 189.174 247.867 187.792 243.287C185.027 233.954 186.582 226.523 187.36 219.264Z" fill="#403A65"/>
<path d="M236.783 380.257L237.819 385.356L251.644 389.85L252.508 390.282C253.372 390.8 253.027 392.096 251.99 392.183L238.856 393.047C236.783 393.22 230.302 393.393 228.747 392.356C227.019 391.232 227.365 391.405 227.105 389.85L227.71 386.566L227.365 379.739L236.783 380.257Z" fill="#FAB074"/>
<path d="M227.624 384.924C227.624 384.924 225.377 393.393 229.611 395.035C233.326 396.417 243.263 395.985 251.126 395.726C253.631 395.64 258.124 395.207 257.606 393.133C257.001 390.8 245.509 387.862 245.509 387.862C246.114 388.035 247.842 388.64 248.447 388.813C249.916 389.331 248.188 390.022 246.201 390.109C241.103 390.368 227.883 390.455 227.624 384.924Z" fill="#544A89"/>
<path d="M441.127 395.38H269.702C261.926 395.38 255.619 389.072 255.619 381.294V62.9364C255.619 55.1589 261.926 48.8505 269.702 48.8505H441.127C448.904 48.8505 455.211 55.1589 455.211 62.9364V381.294C455.125 389.072 448.817 395.38 441.127 395.38Z" fill="#4B4C61"/>
<path d="M433.869 71.8373H276.874V233.782H433.869V71.8373Z" fill="white"/>
<path d="M355.501 220.041C382.033 220.041 403.542 198.53 403.542 171.994C403.542 145.458 382.033 123.946 355.501 123.946C328.969 123.946 307.461 145.458 307.461 171.994C307.461 198.53 328.969 220.041 355.501 220.041Z" fill="#8FDD66"/>
<path d="M335.628 174.759L354.551 187.03L375.288 153.414" stroke="white" stroke-width="12.8466" stroke-miterlimit="10" stroke-linecap="round"/>
<path opacity="0.3" d="M255.446 327.543V62.9364C255.446 55.1589 261.753 48.8505 269.53 48.8505H417.28L255.446 327.543Z" fill="white"/>
<path opacity="0.55" d="M433.696 250.114H276.874V273.965H433.696V250.114Z" fill="white"/>
<path d="M235.141 216.93C235.141 216.93 231.425 211.745 214.318 210.19C209.133 209.758 202.999 208.202 202.999 208.202C202.999 208.202 200.061 209.412 197.21 212.178C195.654 213.733 191.939 217.276 190.989 225.486C189.952 234.732 192.112 240.09 192.63 241.991C193.926 246.485 197.296 249.596 199.975 252.966C208.183 275.866 209.565 287.36 210.775 291.681C212.676 316.569 227.451 383.282 227.451 383.282H237.387C237.387 383.282 234.709 297.903 234.709 291.767C234.709 278.286 232.808 254.262 233.413 237.325C234.968 225.486 235.141 219.264 235.141 216.93Z" fill="#544A89"/>
<path opacity="0.55" d="M433.696 281.483H276.874V305.334H433.696V281.483Z" fill="white"/>
<path opacity="0.55" d="M433.696 312.939H276.874V336.79H433.696V312.939Z" fill="white"/>
<path d="M112.448 258.151H82.0337V288.57H112.448V258.151Z" fill="#819ED2"/>
<path d="M85.4036 288.483L84.9715 283.644H108.214V288.483L110.201 288.57V279.409H82.5522L83.6755 288.483H85.4036Z" fill="#7894C5"/>
<path d="M149.774 275.78H112.362V306.199H149.774V275.78Z" fill="#A0C8EA"/>
<path d="M134.999 279.669L132.58 303.693H111.325V306.631H141.48V302.828H149.774V298.94H137.764L139.492 279.669H134.999Z" fill="#BAD7F0"/>
<path d="M151.934 306.198H107.004V336.617H151.934V306.198Z" fill="#6E82A8"/>
<path d="M116.163 306.198V323.827H131.802L130.506 337.395H134.222L136.036 320.284H118.151V306.198H116.163Z" fill="#65779A"/>
<path d="M108.992 288.483H78.5776V318.902H108.992V288.483Z" fill="#BAD7F0"/>
<path d="M111.325 288.483L90.242 316.05L85.4035 288.483L82.0337 288.57L84.1938 317.087H110.288L111.325 288.483Z" fill="#A0C8EA"/>
<path d="M107.004 318.988H69.1597V335.839H107.004V318.988Z" fill="#7287AF"/>
<path d="M69.1597 335.839C72.5294 335.839 107.004 321.408 107.004 321.408V335.839H69.1597Z" fill="#697CA0"/>
<path d="M433.697 348.456H382.459V370.665H433.697V348.456Z" fill="#3ABD9D"/>
<path d="M377.88 167.587H275.751C269.703 167.587 264.778 162.661 264.778 156.612V102.342C264.778 96.293 269.703 91.3673 275.751 91.3673H377.793C383.842 91.3673 388.767 96.293 388.767 102.342V156.612C388.853 162.661 383.928 167.587 377.88 167.587Z" fill="#02A4D3"/>
<path d="M342.627 125.329H273.504V138.291H342.627V125.329Z" fill="#ECE9E7"/>
<path d="M388.853 107.354H264.604V120.317H388.853V107.354Z" fill="#ECE9E7"/>
<path d="M380.645 348.456H329.407V370.665H380.645V348.456Z" fill="#F6CA65"/>
<path d="M327.42 348.456H276.183V370.665H327.42V348.456Z" fill="#F26F6F"/>
<path d="M319.212 38.999C319.125 19.7281 334.764 4.08677 354.032 4.00036C373.3 3.91394 388.939 19.5553 389.026 38.8262" stroke="#F26F6F" stroke-width="6.1195" stroke-miterlimit="10" stroke-linecap="round"/>
<path d="M334.159 39.7767C334.159 28.3698 343.405 19.0368 354.81 19.0368C366.215 19.0368 375.547 28.2834 375.547 39.6903" stroke="#F28282" stroke-width="6.1195" stroke-miterlimit="10" stroke-linecap="round"/>
<path d="M346.861 40.5545C346.861 36.5794 350.058 33.2955 354.119 33.2955C358.093 33.2955 361.377 36.493 361.377 40.5545H346.861Z" fill="#FF9D9D"/>
<path d="M277.22 107.873C276.183 106.922 273.85 109.947 272.554 110.033C272.208 110.033 272.554 110.033 271.863 110.033C271.69 110.033 271.171 109.515 270.653 109.515C270.307 109.515 269.789 109.774 269.703 109.774C269.271 109.774 268.752 109.256 268.234 109.256C267.888 109.256 267.283 109.774 266.938 109.774C266.506 109.86 265.728 109.428 265.123 109.601C264.259 109.774 264.086 110.12 263.309 110.811C260.285 113.317 260.371 117.206 259.161 118.675C256.31 122.477 246.546 127.576 236.783 134.316C232.203 137.427 217.688 145.637 217.688 145.637L211.639 149.266C211.639 149.266 198.16 123.169 194.963 143.822C194.963 143.822 195.827 157.562 208.788 170.438C214.491 173.29 225.982 163.698 234.882 154.883L234.968 154.97L236.264 153.587C242.399 147.365 246.978 141.921 246.978 141.921L246.892 141.835C247.583 141.057 257.001 129.995 259.507 127.317C261.408 125.329 264 123.687 265.728 123.255C266.765 122.996 269.011 121.7 271.344 120.403C272.986 119.453 273.764 117.897 274.455 116.774C275.146 115.737 273.764 115.737 272.554 116.169C271.603 116.515 269.184 117.811 269.011 117.724C269.271 117.292 269.789 116.86 270.221 116.428C271.258 115.478 271.863 114.7 272.554 113.922C273.677 112.712 274.196 111.848 275.06 111.07C275.751 110.638 278.084 108.651 277.22 107.873Z" fill="#FBAD83"/>
<path d="M242.053 165.945C242.744 170.957 242.572 173.895 238.424 178.562C236.091 181.154 237.042 186.944 236.523 191.092C235.746 197.919 235.227 202.326 235.659 208.462C235.746 209.239 235.832 219.782 234.968 222.115C233.413 226.436 229.784 226.091 224.168 226.35C221.662 226.436 218.897 226.523 215.7 226.436C193.149 226.091 186.841 220.906 186.841 220.906C186.841 220.906 187.619 216.153 190.816 210.276C194.358 203.882 196.951 196.968 197.123 192.302C198.333 163.871 200.407 147.624 205.245 141.402C209.825 134.662 216.564 133.798 216.564 133.798C216.564 133.798 229.611 132.156 238.77 139.501C244.732 144.254 246.46 146.587 246.46 146.587L238.338 161.365L242.658 162.229C242.744 162.229 241.708 163.093 242.053 165.945Z" fill="#F071A9"/>
<path d="M246.46 146.588L269.529 167.587L300.462 167.068C300.462 167.068 304.091 164.821 306.078 164.389C307.374 164.13 309.534 164.13 311.608 165.081C311.694 167.241 308.065 166.982 308.065 166.982L311.262 167.241L318.779 167.587L314.978 170.006C314.978 170.006 310.226 173.204 307.979 173.377C306.424 173.549 300.721 172.426 300.721 172.426L269.875 179.426C268.665 179.685 267.283 179.512 266.246 178.821L238.424 161.365L246.46 146.588Z" fill="#FBAD83"/>
<path d="M171.462 279.064C170.598 277.854 169.215 277.163 167.746 277.163H46.1765L42.8931 262.904C42.2019 259.966 39.6962 257.978 36.6721 257.978H10.2326C9.02295 257.978 8.07251 258.929 8.07251 260.139C8.07251 261.348 9.02295 262.299 10.2326 262.299H36.6721C37.6225 262.299 38.4865 262.99 38.6593 263.941L42.2883 279.842V279.928L51.3607 319.766L56.0265 340.247H56.1129L66.0493 378.097C66.7405 380.776 69.2462 382.677 72.0112 382.677H152.366C153.576 382.677 154.527 381.726 154.527 380.517C154.527 379.307 153.576 378.356 152.366 378.356H72.0112C71.1471 378.356 70.3695 377.751 70.1967 376.974L60.6059 340.16H151.934C154.008 340.16 155.909 338.777 156.514 336.703L172.239 283.212C172.671 281.743 172.412 280.274 171.462 279.064ZM157.81 317.087H138.887L140.27 301.186H162.476L157.81 317.087ZM134.567 317.087H113.226V301.186H135.95L134.567 317.087ZM108.992 301.186V317.087H86.8726L85.4901 301.186H108.992ZM85.0581 296.866L83.6756 281.397H108.992V296.866H85.0581ZM82.5524 317.087H55.3353L51.7063 301.186H81.1699L82.5524 317.087ZM56.2857 321.408H82.9844L84.2805 335.839H59.6555L56.2857 321.408ZM87.2182 321.408H108.992V335.839H88.5142L87.2182 321.408ZM113.226 321.408H134.222L132.926 335.839H113.226V321.408ZM113.226 296.866V281.397H137.764L136.382 296.866H113.226ZM79.3555 281.483L80.7379 296.952H50.6695L47.1269 281.483H79.3555ZM152.453 335.494C152.366 335.666 152.194 335.839 151.934 335.839H137.159L138.455 321.408H156.514L152.453 335.494ZM168.092 282.002L163.685 296.952H140.616L141.998 281.483H167.746C167.919 281.483 168.006 281.57 168.092 281.656C168.092 281.656 168.178 281.829 168.092 282.002Z" fill="url(#paint0_linear)"/>
<path d="M152.453 380.517H72.0974C70.2829 380.517 68.6413 379.307 68.2092 377.492L57.8408 338L40.5601 262.558C40.2145 261.089 38.9185 260.052 37.4496 260.052H11.3557" stroke="#737E9A" stroke-width="7.4249" stroke-miterlimit="10" stroke-linecap="round"/>
<path d="M24.057 264.373H3.40656C0.98726 264.373 -1 262.385 -1 259.966C-1 257.546 0.98726 255.559 3.40656 255.559H24.057V264.373Z" fill="#86ACD5"/>
<path d="M81.6883 395.294C85.3149 395.294 88.2549 392.353 88.2549 388.726C88.2549 385.099 85.3149 382.159 81.6883 382.159C78.0616 382.159 75.1216 385.099 75.1216 388.726C75.1216 392.353 78.0616 395.294 81.6883 395.294Z" fill="#737E9A"/>
<path d="M139.06 395.294C142.687 395.294 145.627 392.353 145.627 388.726C145.627 385.099 142.687 382.159 139.06 382.159C135.433 382.159 132.493 385.099 132.493 388.726C132.493 392.353 135.433 395.294 139.06 395.294Z" fill="#737E9A"/>
<path d="M81.6884 392.788C83.9312 392.788 85.7493 390.969 85.7493 388.726C85.7493 386.483 83.9312 384.665 81.6884 384.665C79.4456 384.665 77.6274 386.483 77.6274 388.726C77.6274 390.969 79.4456 392.788 81.6884 392.788Z" fill="#9ABDE2"/>
<path d="M139.06 392.788C141.303 392.788 143.121 390.969 143.121 388.726C143.121 386.483 141.303 384.665 139.06 384.665C136.817 384.665 134.999 386.483 134.999 388.726C134.999 390.969 136.817 392.788 139.06 392.788Z" fill="#9ABDE2"/>
<path d="M238.943 179.598C236.61 182.105 236.783 188.067 236.523 192.129C236.178 198.869 235.659 205.61 235.659 205.61C235.487 211.486 235.573 219.35 234.795 225.745C230.13 226.177 224.168 226.436 224.168 226.436C224.168 226.436 224.168 226.609 224.168 226.523C224.168 225.054 227.278 214.856 228.315 195.672C229.352 176.055 238.424 161.451 238.424 161.451L242.744 163.957C242.744 163.957 241.276 164.908 242.053 167.587C243.349 171.994 243.09 175.018 238.943 179.598Z" fill="#D36396"/>
<path d="M187.101 222.807C187.101 222.807 196.605 229.634 224.946 228.078L227.451 251.929L233.499 302.223L235.832 382.677" stroke="#9764A7" stroke-width="0.5333" stroke-miterlimit="10" stroke-linecap="round"/>
<path d="M191.767 145.55C191.767 145.55 192.544 168.278 209.825 168.883C239.375 169.92 235.228 136.477 246.028 145.983C246.028 145.983 243.004 142.353 235.66 137.341C235.66 137.341 232.29 147.02 224.686 150.649C219.243 153.242 199.543 155.315 191.767 145.55Z" fill="#D36396"/>
<path d="M237.474 141.403C242.485 144.168 245.337 147.279 245.337 147.279L238.424 160.501" stroke="#F8BBD6" stroke-width="0.5333" stroke-miterlimit="10" stroke-linecap="round"/>
<path d="M194.963 230.325L198.765 241.905L202.913 243.979L208.183 241.905L207.492 231.448L194.963 230.325Z" stroke="#9764A7" stroke-width="0.5333" stroke-miterlimit="10" stroke-linecap="round"/>
<path d="M187.878 229.547L189.606 229.461L189.865 238.535L187.792 239.485L186.841 237.152L186.496 229.374L187.878 229.547Z" stroke="#9764A7" stroke-width="0.5333" stroke-miterlimit="10" stroke-linecap="round"/>
<path d="M208.961 113.922C211.898 129.131 223.736 127.317 233.413 126.452C241.016 124.983 240.412 111.589 241.189 101.132C241.016 98.6264 240.584 95.3425 240.239 93.0093C238.424 82.2937 222.094 84.7133 212.849 89.1206C205.332 92.8365 206.714 102.429 208.961 113.922Z" fill="#FCC197"/>
<path d="M241.103 113.663C241.437 113.663 241.708 110.993 241.708 107.7C241.708 104.407 241.437 101.737 241.103 101.737C240.769 101.737 240.498 104.407 240.498 107.7C240.498 110.993 240.769 113.663 241.103 113.663Z" stroke="white" stroke-width="1.0228" stroke-miterlimit="10" stroke-linecap="round"/>
<path d="M240.066 108.478H228.574" stroke="white" stroke-width="1.5253" stroke-miterlimit="10" stroke-linecap="round"/>
<path d="M197.815 166.809C211.294 173.636 229.006 164.735 233.672 153.501C238.424 142.094 234.45 128.354 230.734 121.613C229.093 118.675 225.637 110.206 230.043 106.749C233.067 104.33 239.634 101.91 240.239 97.3301C240.93 92.4908 239.807 90.5896 237.819 88.2564C231.685 81.0838 215.873 84.1084 208.269 92.6636C202.221 99.4905 195.914 110.725 192.112 119.712C185.891 134.316 186.669 145.637 187.187 150.217C188.051 156.871 189.693 162.747 197.815 166.809Z" fill="url(#paint1_linear)"/>
<path d="M187.965 133.02C188.57 133.02 184.681 150.217 194.272 159.982C200.925 166.809 211.467 167.327 219.588 166.722C217.342 167.759 212.244 169.747 205.591 169.056C204.295 168.883 198.16 168.278 193.495 164.476C181.916 155.229 187.619 134.489 187.965 133.02Z" fill="#633B2C"/>
<defs>
<linearGradient id="paint0_linear" x1="5.50537" y1="263.992" x2="167.989" y2="357.788" gradientUnits="userSpaceOnUse">
<stop offset="1.02703e-07" stop-color="#00659C"/>
<stop offset="0.5667" stop-color="#F1FAFE"/>
<stop offset="1" stop-color="#5F84B2"/>
</linearGradient>
<linearGradient id="paint1_linear" x1="213.645" y1="84.2402" x2="213.645" y2="169.302" gradientUnits="userSpaceOnUse">
<stop offset="2.05407e-07" stop-color="#CF8B4B"/>
<stop offset="1" stop-color="#703952"/>
</linearGradient>
</defs>
</svg>
