<svg width="850" height="773" viewBox="0 0 850 773" fill="none" xmlns="http://www.w3.org/2000/svg">
<path d="M161.688 810C131.778 810 84.2895 793.647 53.6476 753.861C18.4888 707.974 15.803 636.214 44.98 582.638C70.4946 535.775 113.344 515.76 121.89 511.855C219.92 468.164 293.045 552.616 344.074 514.296C398.278 473.534 344.074 356.863 427.21 270.214C431.117 266.187 437.221 259.597 446.987 252.396C524.141 196.013 630.228 222.74 648.662 227.378C674.543 233.846 733.629 249.711 780.386 304.996C791.495 318.176 832.88 367.114 833.734 434.359C834.589 503.19 788.809 535.164 808.098 567.505C824.456 594.72 860.348 578.855 890.013 612.172C923.219 649.395 911.011 706.265 909.912 711.391C899.169 758.255 860.714 795.721 810.661 809.756C594.337 810 378.012 810 161.688 810Z" fill="#A8DDEA"/>
<path fill-rule="evenodd" clip-rule="evenodd" d="M292.664 684.95C292.664 689.451 296.314 693.099 300.817 693.099C305.319 693.099 308.969 689.451 308.969 684.95C308.969 680.449 305.319 676.801 300.817 676.801C296.314 676.801 292.664 680.449 292.664 684.95ZM295.381 684.95C295.381 681.949 297.815 679.517 300.816 679.517C303.818 679.517 306.251 681.949 306.251 684.95C306.251 687.95 303.818 690.383 300.816 690.383C297.815 690.383 295.381 687.95 295.381 684.95Z" fill="white"/>
<path fill-rule="evenodd" clip-rule="evenodd" d="M619.531 721.122C619.531 725.623 623.181 729.272 627.684 729.272C632.186 729.272 635.837 725.623 635.837 721.122C635.837 716.622 632.186 712.973 627.684 712.973C623.181 712.973 619.531 716.622 619.531 721.122ZM622.248 721.122C622.248 718.122 624.682 715.689 627.684 715.689V715.695C630.683 715.695 633.116 718.124 633.119 721.122C633.119 724.123 630.685 726.555 627.684 726.555C624.682 726.555 622.248 724.123 622.248 721.122Z" fill="white"/>
<path fill-rule="evenodd" clip-rule="evenodd" d="M402.263 727.913C402.263 732.414 405.913 736.063 410.415 736.063C412.578 736.063 414.651 735.204 416.18 733.676C417.709 732.148 418.568 730.075 418.568 727.913C418.568 723.413 414.918 719.764 410.415 719.764C405.913 719.764 402.263 723.413 402.263 727.913ZM404.98 727.913C404.98 724.913 407.414 722.48 410.415 722.48C413.417 722.48 415.85 724.913 415.85 727.913C415.85 730.914 413.417 733.346 410.415 733.346C407.414 733.346 404.98 730.914 404.98 727.913Z" fill="white"/>
<path fill-rule="evenodd" clip-rule="evenodd" d="M89.554 481.823C89.554 486.324 93.204 489.973 97.7066 489.973C102.209 489.973 105.859 486.324 105.859 481.823C105.859 477.322 102.209 473.674 97.7066 473.674C93.204 473.674 89.554 477.322 89.554 481.823ZM92.2715 481.823C92.2715 478.823 94.7049 476.39 97.7066 476.39V476.396C100.706 476.396 103.139 478.825 103.142 481.823C103.142 484.824 100.708 487.256 97.7066 487.256C94.7049 487.256 92.2715 484.824 92.2715 481.823Z" fill="white"/>
<path fill-rule="evenodd" clip-rule="evenodd" d="M695.547 502.017C695.547 506.518 699.197 510.167 703.7 510.167C708.202 510.167 711.852 506.518 711.852 502.017C711.852 497.517 708.202 493.868 703.7 493.868C699.197 493.868 695.547 497.517 695.547 502.017ZM698.264 502.017C698.264 499.017 700.697 496.584 703.699 496.584C706.701 496.584 709.134 499.017 709.134 502.017C709.134 505.018 706.701 507.45 703.699 507.45C700.697 507.45 698.264 505.018 698.264 502.017Z" fill="white"/>
<path fill-rule="evenodd" clip-rule="evenodd" d="M323.405 317.46C323.405 321.961 327.055 325.61 331.558 325.61C336.06 325.61 339.71 321.961 339.71 317.46C339.71 312.96 336.06 309.311 331.558 309.311C327.055 309.311 323.405 312.96 323.405 317.46ZM326.123 317.461C326.123 314.46 328.556 312.028 331.558 312.028V312.033C334.558 312.033 336.99 314.462 336.993 317.461C336.993 320.461 334.56 322.893 331.558 322.893C328.556 322.893 326.123 320.461 326.123 317.461Z" fill="white"/>
<path fill-rule="evenodd" clip-rule="evenodd" d="M181.342 687.96C181.342 692.461 184.992 696.109 189.495 696.109C193.998 696.109 197.648 692.461 197.648 687.96C197.648 683.459 193.998 679.81 189.495 679.81C184.992 679.81 181.342 683.459 181.342 687.96ZM184.06 687.959C184.06 684.959 186.493 682.526 189.495 682.526C192.496 682.526 194.93 684.959 194.93 687.959C194.93 690.96 192.496 693.392 189.495 693.392C186.493 693.392 184.06 690.96 184.06 687.959Z" fill="white"/>
<g opacity="0.63">
<path opacity="0.7" d="M567.523 602.885H362.701V656.818H567.523C582.403 656.776 594.456 644.729 594.497 629.854C594.456 614.979 582.404 602.93 567.523 602.885Z" fill="white"/>
<path d="M157.884 602.885C143.002 602.93 130.949 614.978 130.905 629.854C130.949 644.729 143.003 656.776 157.884 656.818H362.701V602.885H157.884Z" fill="white"/>
</g>
<g opacity="0.25">
<path d="M785.433 361.175H670.609C669.288 361.181 668.218 362.252 668.212 363.574V462.356L698.619 431.926H785.433C786.753 431.923 787.822 430.853 787.825 429.532V363.574C787.822 362.252 786.754 361.181 785.433 361.175V361.175Z" fill="white"/>
</g>
<rect x="681.34" y="379.306" width="93.3586" height="5.85872" rx="2.92936" fill="#17E59E"/>
<rect x="681.34" y="393.281" width="82.6503" height="5.85872" rx="2.92936" fill="#17E59E"/>
<rect x="681.34" y="407.25" width="65.9191" height="5.85872" rx="2.92936" fill="#17E59E"/>
<g opacity="0.25">
<path d="M281.09 335.472H222.748C222.077 335.475 221.533 336.019 221.531 336.69V386.884L236.979 371.435H281.09C281.762 371.435 282.307 370.889 282.307 370.216V336.69C282.307 336.017 281.762 335.472 281.09 335.472Z" fill="white"/>
</g>
<rect x="228.2" y="344.687" width="47.4376" height="2.9756" rx="1.4878" fill="white"/>
<rect x="228.2" y="351.786" width="41.9964" height="2.9756" rx="1.4878" fill="white"/>
<rect x="228.2" y="358.885" width="33.495" height="2.9756" rx="1.4878" fill="white"/>
<g opacity="0.25">
<path d="M268.191 262.904H191.368C190.467 262.904 189.737 263.635 189.737 264.536V330.598L210.078 310.242H268.191C269.081 310.242 269.807 309.528 269.822 308.637V264.509C269.807 263.618 269.081 262.904 268.191 262.904Z" fill="white"/>
</g>
<rect x="198.548" y="275.035" width="62.4619" height="3.92213" rx="1.96107" fill="#17E59E"/>
<rect x="198.548" y="284.386" width="55.2977" height="3.92213" rx="1.96107" fill="#17E59E"/>
<rect x="198.548" y="293.732" width="44.1055" height="3.92213" rx="1.96107" fill="#17E59E"/>
<g opacity="0.25">
<path d="M549.974 283.483H647.132C648.25 283.486 649.157 284.393 649.159 285.512V369.09L623.421 343.349H549.974C548.856 343.346 547.952 342.438 547.952 341.32V285.512C547.952 284.394 548.856 283.486 549.974 283.483Z" fill="white"/>
</g>
<rect x="638.054" y="303.779" width="78.992" height="4.96114" rx="2.48057" transform="rotate(180 638.054 303.779)" fill="#4262FF"/>
<rect x="638.048" y="315.605" width="69.9361" height="4.96114" rx="2.48057" transform="rotate(-180 638.048 315.605)" fill="#FF9E01"/>
<rect x="638.054" y="327.426" width="55.776" height="4.96114" rx="2.48057" transform="rotate(-180 638.054 327.426)" fill="#4262FF"/>
<g opacity="0.25">
<rect x="377.411" y="249" width="88.9122" height="150.548" rx="5.54" fill="white"/>
</g>
<path d="M416.157 366.903C416.158 360.704 411.789 355.365 405.716 354.144C399.643 352.922 393.553 356.158 391.161 361.876C388.769 367.594 390.74 374.207 395.871 377.68C396.842 374.467 399.8 372.269 403.154 372.269C406.508 372.269 409.467 374.467 410.438 377.68C414.015 375.261 416.158 371.223 416.157 366.903Z" fill="#17E59E"/>
<path d="M403.154 372.283C399.804 372.281 396.847 374.472 395.871 377.68C400.272 380.653 406.037 380.653 410.438 377.68C409.462 374.472 406.505 372.281 403.154 372.283Z" fill="white"/>
<path d="M403.154 370.771C405.898 370.771 408.123 368.545 408.123 365.799C408.123 363.053 405.898 360.827 403.154 360.827C400.41 360.827 398.186 363.053 398.186 365.799C398.186 368.545 400.41 370.771 403.154 370.771Z" fill="white"/>
<path d="M416.157 331.871C416.158 325.672 411.789 320.333 405.716 319.111C399.643 317.89 393.553 321.125 391.161 326.843C388.769 332.562 390.74 339.174 395.871 342.647C396.842 339.434 399.8 337.237 403.154 337.237C406.508 337.237 409.467 339.434 410.438 342.647C414.016 340.23 416.16 336.191 416.157 331.871Z" fill="#FF9E01"/>
<path d="M403.154 337.256C399.806 337.254 396.849 339.442 395.871 342.647C400.272 345.62 406.037 345.62 410.438 342.647C409.46 339.442 406.503 337.254 403.154 337.256Z" fill="white"/>
<path d="M403.154 335.738C405.898 335.738 408.123 333.512 408.123 330.766C408.123 328.02 405.898 325.794 403.154 325.794C400.41 325.794 398.186 328.02 398.186 330.766C398.186 333.512 400.41 335.738 403.154 335.738Z" fill="white"/>
<rect x="384.504" y="257.361" width="74.725" height="7.43083" rx="3.49" fill="#FF9E01"/>
<rect x="453.82" y="369.378" width="30.8695" height="4.96114" rx="2.48057" transform="rotate(180 453.82 369.378)" fill="#4262FF"/>
<path d="M416.157 296.979C416.158 290.78 411.789 285.441 405.716 284.22C399.643 282.999 393.553 286.234 391.161 291.952C388.769 297.67 390.74 304.283 395.871 307.756C396.842 304.543 399.8 302.346 403.154 302.346C406.508 302.346 409.467 304.543 410.438 307.756C414.016 305.339 416.16 301.3 416.157 296.979Z" fill="#17E59E"/>
<path d="M403.154 302.349C399.806 302.346 396.849 304.534 395.871 307.74C400.272 310.713 406.037 310.713 410.438 307.74C409.46 304.534 406.503 302.346 403.154 302.349Z" fill="white"/>
<path d="M403.154 300.847C405.898 300.847 408.123 298.621 408.123 295.875C408.123 293.129 405.898 290.903 403.154 290.903C400.41 290.903 398.186 293.129 398.186 295.875C398.186 298.621 400.41 300.847 403.154 300.847Z" fill="white"/>
<rect x="453.82" y="299.46" width="30.8695" height="4.96114" rx="2.48057" transform="rotate(-180 453.82 299.46)" fill="#4262FF"/>
<rect x="453.82" y="333.242" width="30.8695" height="4.96114" rx="2.48057" transform="rotate(-180 453.82 333.242)" fill="#4262FF"/>
<g opacity="0.25">
<path d="M73.4833 342.69H188.308C189.63 342.693 190.702 343.766 190.705 345.089V443.866L160.297 413.441H73.4833C72.1627 413.435 71.0945 412.364 71.0916 411.042V345.089C71.0945 343.768 72.1627 342.696 73.4833 342.69Z" fill="white"/>
</g>
<path d="M157.851 386.688C162.99 386.688 167.157 382.518 167.157 377.375C167.157 372.232 162.99 368.062 157.851 368.062C152.711 368.062 148.545 372.232 148.545 377.375C148.545 382.518 152.711 386.688 157.851 386.688Z" fill="#4262FF"/>
<path d="M130.895 386.688C136.035 386.688 140.201 382.518 140.201 377.375C140.201 372.232 136.035 368.062 130.895 368.062C125.756 368.062 121.589 372.232 121.589 377.375C121.589 382.518 125.756 386.688 130.895 386.688Z" fill="#4262FF"/>
<path d="M103.945 386.688C109.084 386.688 113.251 382.518 113.251 377.375C113.251 372.232 109.084 368.062 103.945 368.062C98.8053 368.062 94.6389 372.232 94.6389 377.375C94.6389 382.518 98.8053 386.688 103.945 386.688Z" fill="#4262FF"/>
<path d="M703.747 650.993C703.747 650.993 750.298 685.295 755.816 681.818C761.333 678.34 779.097 634.035 774.993 631.987C770.889 629.938 750.777 641.816 750.777 641.816L720.821 625.907L703.747 650.993Z" fill="#21243D"/>
<path d="M525.803 553.304L584.215 529.222C587.214 527.988 590.648 528.495 593.163 530.543C597.104 533.64 603.311 538.34 609.269 542.078C619.053 548.202 751.178 622.158 751.178 622.158L720.032 669.478C720.032 669.478 592.38 574.739 584.574 579.102C575.334 584.259 494.706 603.961 494.706 603.961C494.706 603.961 457.542 611.839 474.789 545.278" fill="#ED7715"/>
<path d="M457.439 621.679L523.472 657.894L477.497 795.172L523.994 795.259C523.994 795.259 565.658 638.306 563.049 632.416C561.75 629.493 506.377 593.903 477.779 565.584C462.217 550.158 429.826 552.185 428.315 559.063C421.074 591.822 444.654 615.219 457.445 621.712" fill="#FF9E01"/>
<path d="M590.07 493.345C588.632 493.344 587.317 492.532 586.672 491.247C586.027 489.962 586.162 488.423 587.021 487.27L620.619 442.123C621.431 441.033 622.763 440.459 624.113 440.616C625.463 440.774 626.626 441.64 627.165 442.888C627.703 444.135 627.535 445.575 626.723 446.665L593.125 491.813C592.407 492.777 591.274 493.346 590.07 493.345Z" fill="#21243D"/>
<path d="M525.673 404.528C525.673 404.528 522.884 397.579 521.096 401.855C519.307 406.131 519.596 409.978 521.52 410.206C523.444 410.434 525.292 407.489 525.292 407.489L525.673 404.528Z" fill="#FF9494"/>
<path d="M543.649 428.425L523.939 449.659L507.289 462.107L495.668 447.388L505.142 435.934L524.689 405.849L543.649 428.425Z" fill="#FF9494"/>
<path d="M563.076 396.041C563.538 400.388 559.271 403.045 558.103 407.37C556.722 412.516 555.526 421.497 554.787 429.604C554.51 432.658 553.504 440.824 551.047 443.731C549.362 445.742 546.867 438.944 545.698 440.889C542.024 447.013 532.729 453.642 530.897 453.044C527.429 451.903 525.157 444.59 524.048 441.634C521.869 435.81 521.031 429.57 521.596 423.377C522.189 416.21 522.618 408.679 524.95 401.828C526.641 396.872 529.136 389.918 531.663 385.277C534.093 380.822 540.409 386.679 544.752 385C551.895 382.251 557.977 386.516 561.38 392.444C562.935 395.226 563.033 395.759 563.076 396.041Z" fill="#FDB4B1"/>
<path d="M536.349 440.759C537.687 441.4 539.149 441.741 540.632 441.759C540.821 441.736 540.962 441.576 540.962 441.386C540.962 441.197 540.821 441.037 540.632 441.014C540.589 441.014 536.512 441.014 534.593 438.346C532.674 435.679 533.598 433.413 533.609 433.386C533.649 433.296 533.65 433.194 533.614 433.103C533.577 433.011 533.505 432.939 533.414 432.902C533.323 432.862 533.22 432.861 533.128 432.897C533.036 432.934 532.963 433.006 532.924 433.098C532.881 433.201 531.837 435.755 534.012 438.781C534.619 439.62 535.421 440.299 536.349 440.759Z" fill="#94163D"/>
<path d="M570.224 403.577C569.741 405.099 568.94 406.501 567.876 407.69C566.136 409.581 563.761 409.038 562.07 407.441C559.26 404.778 558.146 400.583 555.042 398.269C554.55 397.844 553.939 397.582 553.292 397.519C552.406 397.492 551.628 398.062 550.867 398.513C546.378 401.23 540.67 400.589 535.588 399.317C534.56 399.062 533.479 398.774 532.451 399.046C530.712 399.491 529.733 401.284 528.592 402.664C527.45 404.045 525.222 405.088 523.95 403.816C523.446 403.198 523.146 402.439 523.091 401.643L522.276 396.976C521.634 393.357 521.281 388.939 524.2 386.712C524.907 386.168 525.738 385.826 526.45 385.299C528.826 383.528 529.348 380.11 531.451 378.013C533.843 375.627 537.871 375.328 541.061 375.459C541.936 375.417 542.798 375.678 543.502 376.198C544.263 376.893 544.442 378.105 545.285 378.703C545.921 379.099 546.706 379.174 547.405 378.904C549.313 378.268 550.721 376.502 552.417 375.497C555.982 373.383 557.999 375.442 560.108 378.083C561.782 380.158 563.577 382.132 565.484 383.995C567.789 386.261 570.257 387.57 570.757 391.086C571.295 394.84 571.556 399.633 570.224 403.577Z" fill="#21243D"/>
<path d="M547.562 406.631L547.66 406.669C547.79 406.708 547.928 406.636 547.97 406.506C547.998 406.444 547.998 406.373 547.97 406.311C548.512 406.131 549.071 406.008 549.639 405.941C551.113 405.672 552.573 406.476 553.134 407.865C553.157 407.959 553.232 408.032 553.328 408.051C553.423 408.07 553.521 408.032 553.579 407.954C553.636 407.875 553.643 407.77 553.596 407.685C552.934 406.094 551.263 405.169 549.563 405.452C547.551 405.767 547.388 405.995 547.35 406.272C547.342 406.424 547.425 406.565 547.562 406.631Z" fill="#35393A"/>
<path d="M550.22 410.712C550.414 410.103 550.119 409.445 549.535 409.185C548.508 408.739 547.731 409.598 547.758 410.511C547.785 411.423 548.997 412.315 549.497 412.141C549.998 411.967 550.72 411.239 550.22 410.712Z" fill="#35393A"/>
<path d="M597.197 500.137C597.197 500.137 612.58 492.53 622.016 484.336C631.452 476.142 630.577 470.703 627.805 471.377L625.038 472.045C625.038 472.045 628.099 469.078 625.892 468.323C623.685 467.568 622.668 467.85 622.668 467.85C622.668 467.85 625.12 464.813 622.342 464.286L619.564 463.743C619.564 463.743 621.57 458.51 617.629 460.542C613.688 462.575 596.566 476.3 594.604 474.001C592.641 471.703 593.468 467.378 597.164 464.628C600.86 461.879 600.545 455.457 596.077 458.157C591.609 460.858 587.842 464.074 586.679 468.894C585.515 473.713 586.537 482.45 586.537 482.45L559.87 500.158L568.431 519.176L597.197 500.137Z" fill="#FDB4B1"/>
<path d="M512.59 456.63C519.852 460.945 519.716 475.257 520.091 482.63C521.053 501.816 515.612 520.355 511.209 538.872C507.149 555.977 504.904 563.959 504.882 564.04C502.74 570.849 446.416 558.352 431.261 561.791C430.472 561.962 429.65 561.735 429.061 561.184C428.472 560.633 428.191 559.828 428.309 559.031C431.027 540.312 440.632 478.223 451.335 462.357C463.984 443.612 499.044 438.113 499.044 438.113C499.044 438.113 502.316 450.529 512.59 456.63Z" fill="#274DD8"/>
<path d="M496.348 451.132C496.348 451.132 516.128 522.621 522.586 523.398C529.043 524.175 571.355 490.433 573.893 489.71C576.432 488.987 600.148 517.247 593.674 519.013C587.2 520.779 516.329 572.185 506.197 569.996C496.065 567.806 472.952 498.04 470.669 486.488C468.386 474.936 487.053 433.489 496.348 451.132Z" fill="#4262FF"/>
<path d="M262.955 396.15C262.955 396.15 263.211 372.47 289.9 381.36C308.512 387.559 311.969 402.8 333.962 454.413C355.954 506.027 403.539 484.048 403.539 484.048C403.539 484.048 420.003 493.774 403.539 507.548C385.204 522.892 398.793 531.053 383.111 533.988C367.429 536.922 357.373 529.233 357.373 529.233L296.412 478.413" fill="#21243D"/>
<path d="M290.612 417.417C290.612 417.417 293.167 410.353 295.091 414.591C297.015 418.829 296.868 422.655 294.955 422.948C293.042 423.241 291.09 420.356 291.09 420.356L290.612 417.417Z" fill="#FF9494"/>
<path d="M268.815 431.891L289.112 452.555L305.843 464.721L315.774 450.643L305.924 439.504L285.127 410.315L268.815 431.891Z" fill="#FF9494"/>
<path d="M259.765 422.068C260.738 426.105 263.461 431.093 263.635 437.624C263.7 440.085 262.988 442.427 263.939 446.567C264.396 448.572 268.38 446.535 269.375 447.98C272.468 452.533 280.866 456.804 282.643 456.081C286.008 454.718 288.623 448.475 289.889 445.91C292.266 441.183 293.472 435.954 293.406 430.663C293.308 424.866 293.406 418.759 291.618 413.439C290.335 409.592 288.422 404.202 286.318 400.725C284.301 397.378 277.92 402.963 273.903 402.137C267.304 400.774 264.276 404.142 260.661 409.424C258.998 411.847 258.96 418.672 259.765 422.068Z" fill="#FDB4B1"/>
<path d="M276.533 443.97C275.219 444.657 273.77 445.047 272.288 445.111C272.084 445.111 271.918 444.946 271.918 444.742C271.918 444.538 272.084 444.372 272.288 444.372C272.326 444.372 276.403 444.253 278.229 441.498C280.056 438.743 279.056 436.532 279.045 436.51C278.988 436.39 279.001 436.248 279.077 436.139C279.153 436.03 279.281 435.97 279.414 435.982C279.546 435.993 279.662 436.074 279.719 436.195C279.768 436.298 280.904 438.819 278.849 441.911C278.257 442.776 277.462 443.483 276.533 443.97Z" fill="#94163D"/>
<path d="M268.94 422.578L268.847 422.622C268.752 422.654 268.646 422.626 268.579 422.55C268.512 422.474 268.498 422.365 268.543 422.274C267.995 422.116 267.432 422.013 266.863 421.964C265.382 421.749 263.952 422.598 263.433 424.002C263.414 424.064 263.37 424.116 263.311 424.145C263.253 424.175 263.186 424.18 263.124 424.16C262.993 424.116 262.923 423.975 262.966 423.844C263.571 422.229 265.212 421.244 266.923 421.47C268.945 421.714 269.136 421.964 269.163 422.214C269.172 422.37 269.083 422.515 268.94 422.578Z" fill="#35393A"/>
<path d="M266.418 426.751C266.207 426.149 266.48 425.484 267.054 425.203C268.065 424.725 268.869 425.556 268.875 426.469C268.88 427.382 267.695 428.311 267.195 428.164C266.695 428.017 265.939 427.295 266.418 426.751Z" fill="#35393A"/>
<g opacity="0.42">
<path d="M280.066 432.962C282.708 432.962 284.85 430.821 284.85 428.18C284.85 425.539 282.708 423.399 280.066 423.399C277.425 423.399 275.283 425.539 275.283 428.18C275.283 430.821 277.425 432.962 280.066 432.962Z" fill="#FE5923"/>
</g>
<path fill-rule="evenodd" clip-rule="evenodd" d="M294.607 438.189C295.281 439.721 296.102 440.526 296.912 440.526C296.963 440.527 297.014 440.524 297.064 440.515C298.928 440.254 299.407 435.847 298.863 431.821C298.646 429.889 298.15 427.998 297.39 426.208C296.64 424.573 295.792 423.768 294.933 423.883C293.069 424.143 292.618 428.55 293.134 432.576C293.351 434.508 293.848 436.399 294.607 438.189ZM295.053 424.687H295.097C295.417 424.687 296.015 425.187 296.684 426.545C297.406 428.262 297.878 430.073 298.086 431.924C298.69 436.57 297.858 439.575 296.999 439.689C296.651 439.732 296.032 439.27 295.368 437.83C294.647 436.113 294.174 434.302 293.966 432.451C293.363 427.805 294.194 424.801 295.053 424.687Z" fill="#FCE63D"/>
<path d="M298.053 459.054C290.938 463.613 287.948 484.912 287.828 492.291C287.508 511.498 305.484 526.854 310.512 545.208C315.148 562.166 317.806 560.59 317.834 560.672C320.551 568.404 367.646 533.352 369.337 543.393C369.337 543.366 354.421 496.377 341.147 478.071C327.873 459.766 311.887 445.334 311.887 445.334C311.887 445.334 308.109 452.61 298.053 459.054Z" fill="#17E59E"/>
<path d="M203.777 465.281C203.777 465.281 195.079 452.566 188.524 453.191C182.496 453.846 176.516 454.883 170.619 456.294C165.547 457.435 155.671 461.434 166.439 461.678C170.961 461.776 175.478 461.787 180.001 461.798C180.544 466.308 182.594 470.426 185.23 474.067C190.378 481.179 187.997 477.147 197.031 480.973C206.065 484.798 216.599 489.699 216.599 489.699L219.132 480.88L203.777 465.281Z" fill="#FF9494"/>
<path d="M298.021 465.759C287.03 478.256 260.379 507.95 255.622 507.548C249.643 507.043 217.572 475.909 215.436 474.768C213.3 473.627 186.42 494.785 191.959 497.588C197.498 500.392 244.631 538.628 254.204 538.546C263.776 538.465 311.501 498.751 315.752 488.715C320.003 478.68 314.502 446.073 302.744 460.32C302.744 460.32 300.929 462.428 297.999 465.753" fill="#18C482"/>
<path d="M252.263 415.162C252.316 416.141 252.622 417.09 253.149 417.917C253.816 418.994 255.055 419.579 256.312 419.411C258.345 419.096 259.769 417.058 261.264 415.553C263.308 413.499 265.325 411.369 267.597 409.734C273.032 405.811 278.142 407.826 283.42 413.217C284.964 414.792 286.513 416.504 288.312 417.286C288.682 417.51 289.14 417.532 289.53 417.346C290.133 416.944 290.106 415.803 290.302 414.928C290.796 412.717 292.905 411.994 293.677 409.962C294.406 408.038 293.487 405.072 291.791 404.115C291.283 403.907 290.786 403.673 290.302 403.414C288.127 401.947 288.345 397.981 287.807 395.52C287.745 395.154 287.622 394.801 287.442 394.476C286.942 393.694 286.018 393.824 285.431 394.324C284.844 394.824 284.42 395.606 283.801 395.992C282.268 396.921 280.3 395.264 278.577 395.536C277.49 395.71 276.604 396.655 275.767 397.524C274.718 398.611 273.494 398.296 272.206 397.4C271.201 396.693 270.271 395.769 269.222 395.188C268.367 394.714 267.378 394.538 266.412 394.688C262.797 395.313 259.655 398.888 257.302 401.496C253.953 405.191 251.871 410.141 252.263 415.162Z" fill="#21243D"/>
<path d="M260.226 408.478C260.226 408.478 260.226 414.194 264.575 415.319C268.923 416.444 271.348 412.57 274.419 415.232C277.49 417.895 279.686 419.324 284.051 419.916C288.416 420.508 292.297 414.2 292.297 414.2L294.786 410.82V408.228L272.565 400.236L260.226 408.478Z" fill="#21243D"/>
<path d="M185.235 483.548C184.468 483.547 183.72 483.314 183.088 482.88L146.125 457.511C145.005 456.741 144.38 455.432 144.487 454.077C144.593 452.722 145.415 451.527 146.642 450.942C147.869 450.357 149.315 450.471 150.436 451.24L187.398 476.609C188.776 477.555 189.375 479.288 188.875 480.882C188.376 482.475 186.895 483.557 185.224 483.548H185.235Z" fill="#21243D"/>
<path d="M122.024 679.742C122.024 679.742 92.2631 702.02 87.5123 699.303C82.7615 696.586 60.2196 668.397 63.2854 666.479C66.3511 664.561 83.5877 673.869 83.5877 673.869L105.934 659.002L122.024 679.742Z" fill="#21243D"/>
<path d="M132.368 609.122C132.368 609.122 97.1553 630.509 92.2903 627.493C87.4254 624.478 66.15 594.707 69.7376 592.882C73.3252 591.056 91.0456 601.358 91.0456 601.358L117.235 587.231L132.368 609.122Z" fill="#21243D"/>
<path d="M364.178 534.569C364.178 534.569 330.77 560.791 322.274 555.733C292.378 537.954 249.708 508.906 239.391 514.112C226.139 520.768 101.188 591.425 101.188 591.425L111.913 628.879C111.913 628.879 235.917 544.224 244.441 549.115C252.964 554.005 325.536 601.445 346.985 595.446C393.183 582.525 369.147 537.585 364.178 534.569Z" fill="#FE5923"/>
<path d="M361.319 537.633C361.319 537.633 331.825 572.37 321.372 569.854C284.622 561.008 231.27 544.86 221.432 552.755C208.794 562.91 91.6108 666.272 91.6108 666.272L112.598 699.52C112.598 699.52 225.242 582.862 235.668 585.215C246.093 587.568 336.408 613.181 358.036 601.374C404.68 575.94 367.44 539.166 361.319 537.633Z" fill="#ED7715"/>
<path d="M317.1 558.052C317.1 558.052 314.561 566.8 319.165 569.115C323.769 571.43 369.233 547.533 369.337 544.664C369.44 541.795 366.255 536.628 366.255 536.628C366.255 536.628 334.999 554.472 329.254 555.645C323.508 556.819 317.1 558.052 317.1 558.052Z" fill="#21243D"/>
<path d="M323.714 567.898L320.41 569.631C318.464 570.647 315.914 568.784 314.746 565.486L314.381 564.453C313.207 561.155 313.838 557.623 315.795 556.607L319.094 554.879C321.045 553.858 323.595 555.722 324.764 559.02L325.128 560.052C326.296 563.35 325.66 566.882 323.714 567.898Z" fill="#FCE63D"/>
<path d="M354.106 518.442L353.775 518.04C353.716 517.965 353.67 517.88 353.639 517.79C352.28 515.073 324.83 467.112 316.095 460.195C312.17 457.098 307.153 455.75 302.668 456.598C298.901 457.31 295.667 459.543 294.232 462.428C293.124 464.686 293.181 467.342 294.384 469.551C294.514 469.812 294.494 470.123 294.332 470.365C294.17 470.607 293.892 470.745 293.601 470.726C293.31 470.707 293.051 470.535 292.922 470.274C291.482 467.362 291.427 464.395 292.77 461.7C294.433 458.369 298.108 455.799 302.369 454.995C307.311 454.066 312.817 455.538 317.106 458.912C320.97 461.972 328.521 472.676 339.626 490.731C344.072 497.98 347.997 504.657 350.497 508.982C355.302 517.258 355.291 517.307 355.204 517.676L355.09 518.171L354.106 518.442Z" fill="#FCE63D"/>
<path d="M331.978 530.298C331.737 530.298 331.509 530.193 331.353 530.01C331.2 529.831 316.002 511.792 307.93 499.039C307.751 498.793 307.724 498.468 307.859 498.196C307.994 497.924 308.27 497.75 308.574 497.744C308.878 497.738 309.16 497.903 309.305 498.17C317.323 510.83 332.451 528.777 332.603 528.956C332.809 529.199 332.854 529.539 332.72 529.827C332.586 530.115 332.296 530.299 331.978 530.298Z" fill="#FCE63D"/>
<path d="M317.245 532.242C315.587 529.372 316.571 525.701 319.442 524.045L359.366 501.003C362.236 499.347 365.904 500.33 367.561 503.199L380.076 524.867C381.734 527.737 380.75 531.408 377.879 533.064L337.955 556.106C335.085 557.762 331.417 556.779 329.76 553.91L317.245 532.242Z" fill="#FCE63D"/>
<path d="M604.98 440.746C604.537 440.744 604.139 440.473 603.975 440.062C603.844 439.73 600.807 431.989 603.877 427.225C605.274 425.052 607.648 423.873 610.941 423.716C622.809 423.145 624.526 422.738 628.107 417.039C629.5 414.696 631.917 413.145 634.628 412.856C639.236 412.346 644.817 415.029 649.93 420.179C650.204 420.455 650.31 420.855 650.208 421.23C650.106 421.605 649.812 421.897 649.436 421.996C649.061 422.095 648.661 421.987 648.387 421.711C643.812 417.088 638.753 414.589 634.867 415.018C632.806 415.22 630.968 416.401 629.928 418.191C625.7 424.933 622.766 425.324 611.028 425.883C608.442 426.008 606.681 426.828 605.681 428.398C603.219 432.201 605.942 439.187 605.969 439.263C606.188 439.82 605.916 440.448 605.36 440.67C605.24 440.719 605.111 440.745 604.98 440.746Z" fill="white"/>
<path d="M595.829 424.221C595.265 424.223 594.793 423.794 594.742 423.232C594.715 422.966 594.231 416.572 601.991 411.009C609.751 405.447 619.603 410.711 620.016 410.939C620.541 411.23 620.731 411.891 620.44 412.416C620.149 412.941 619.487 413.131 618.962 412.84C618.875 412.791 609.941 407.984 603.257 412.775C596.573 417.566 596.899 422.982 596.905 423.037C596.932 423.324 596.844 423.611 596.659 423.833C596.475 424.055 596.209 424.195 595.921 424.221H595.829Z" fill="white"/>
<path d="M589.83 418.191C589.496 418.193 589.179 418.041 588.972 417.778C588.847 417.61 585.864 413.688 588.526 406.914C591.189 400.139 599.644 399.444 600.003 399.422C600.603 399.38 601.124 399.833 601.166 400.433C601.208 401.033 600.755 401.553 600.155 401.595C600.036 401.595 592.716 402.204 590.548 407.718C588.336 413.329 590.662 416.409 590.684 416.409C590.862 416.636 590.942 416.925 590.908 417.211C590.873 417.497 590.726 417.758 590.499 417.936C590.311 418.094 590.076 418.184 589.83 418.191Z" fill="white"/>
<path fill-rule="evenodd" clip-rule="evenodd" d="M205.372 787.085C216.697 790.714 228.853 792.518 242.036 792.518C254.784 792.518 268.483 790.85 283.356 787.482L286.073 786.863L286.223 786.829C293.425 785.197 301.229 783.43 309.032 781.197C311.673 782.327 314.232 783.266 316.498 784.021C329.198 788.297 344.076 790.204 361.976 789.926C383.831 789.59 407.54 785.048 434.466 776.041C468.238 764.715 502.342 748.88 538.718 727.693C565.143 712.277 590.786 694.567 615.582 677.439C620.444 674.074 625.305 670.723 630.167 667.384C630.515 667.177 630.719 666.793 630.696 666.388C630.674 665.984 630.427 665.626 630.058 665.459C629.689 665.293 629.257 665.346 628.939 665.596C624.07 668.943 619.206 672.294 614.348 675.652C589.585 692.758 563.975 710.446 537.62 725.814C501.375 746.951 467.407 762.7 433.776 773.955C407.046 782.892 383.571 787.395 361.943 787.726C344.293 788.003 329.649 786.108 317.188 781.935C315.689 781.436 314.058 780.854 312.363 780.186C326.068 776.003 339.528 770.261 349.499 761.173C353.249 757.756 355.281 753.839 355.373 749.847C355.466 746.022 353.743 742.23 350.407 738.884C341.375 729.861 322.112 730.133 308.565 734.962C295.854 739.503 288.019 747.56 287.068 757.066C286.024 767.551 295.974 774.993 305.94 779.757C298.963 781.669 292.029 783.239 285.584 784.695L282.867 785.32C253.061 792.078 227.934 791.991 206.046 785.016C187.065 778.964 171.236 767.181 160.281 750.939C142.941 725.254 136.224 688.271 160.281 663.559C181.756 641.488 214.784 636.245 232.553 635.083C237.524 634.756 242.508 634.688 247.486 634.882C247.874 634.896 248.241 634.703 248.448 634.374C248.654 634.045 248.67 633.631 248.488 633.287C248.307 632.944 247.956 632.723 247.568 632.709C242.516 632.515 237.457 632.584 232.412 632.915C214.328 634.1 180.707 639.456 158.721 662.044C133.806 687.63 140.642 725.738 158.466 752.155C169.703 768.805 185.924 780.882 205.372 787.085ZM309.314 737.037C315.236 734.939 321.47 733.861 327.752 733.848V733.843C336.62 733.843 344.559 736.119 348.858 740.438C351.781 743.349 353.281 746.593 353.205 749.814C353.129 753.209 351.341 756.583 348.043 759.592C337.756 768.968 323.513 774.721 309.173 778.877C299.125 774.488 288.247 767.355 289.246 757.311C290.11 748.668 297.425 741.28 309.314 737.037Z" fill="white"/>
</svg>
