<svg xmlns="http://www.w3.org/2000/svg" width="2500" height="2500" viewBox="0 0 192.756 192.756"><g fill-rule="evenodd" clip-rule="evenodd"><path fill="#fff" d="M0 0h192.756v192.756H0V0z"/><path d="M27.9 75.403c0-5.978 4.847-10.825 10.824-10.825 5.979 0 10.825 4.847 10.825 10.825 0 .71-.078 1.403-.211 2.077l6.222 7.084a19.09 19.09 0 0 0 2.33-9.161c0-10.583-8.582-19.166-19.166-19.166S19.56 64.82 19.56 75.403s8.581 19.165 19.165 19.165c.629 0 1.251-.036 1.863-.094l-3.186-8.379c-5.346-.66-9.502-5.166-9.502-10.692z" fill="#2c5d9c"/><path fill="#2c5d9c" d="M53.253 91.185l-6.749 4.592-15.568-22.889 6.749-4.592 15.568 22.889zM60.213 68.372h5.484v15.971s.71 3.017 5.146 3.017 4.436-2.662 4.436-2.662V68.372h6.389v15.616s-.894 9.76-10.827 9.76c-9.935 0-10.822-8.518-10.822-8.518l.194-16.858zM91.25 93.748h-6.388V68.372h6.388v25.376zM101.188 93.748h-6.034V60.209h6.034v33.539zM91.25 62.871a3.017 3.017 0 1 0-6.033 0 3.017 3.017 0 0 0 6.033 0zM116.914 67.984c-7.35 0-13.309 5.958-13.309 13.308 0 7.351 5.959 13.31 13.309 13.31 7.352 0 13.309-5.959 13.309-13.31 0-7.35-5.957-13.308-13.309-13.308zm0 19.231a5.922 5.922 0 0 1-5.922-5.923c0-3.271 2.65-5.922 5.922-5.922a5.923 5.923 0 1 1 0 11.845zM134.727 85.407c1.396-3.028-.533-5.679.709-9.583s6.211-7.453 9.406-7.453v6.566s-2.486.533-3.373 3.194.178 5.856-.709 8.34c-.889 2.484-3.371 7.275-9.938 7.275v-5.324c0 .002 2.838-.708 3.905-3.015zM172.988 93.7V81.292c0-7.35-5.957-13.308-13.309-13.308-7.35 0-13.309 5.958-13.309 13.308 0 7.351 5.959 13.31 13.309 13.31.639 0 1.246-.1 1.857-.188v-7.525a5.824 5.824 0 0 1-1.857.327 5.922 5.922 0 0 1-5.922-5.923c0-3.271 2.65-5.922 5.922-5.922s5.924 2.651 5.924 5.922c0 .458-.064.899 0 1.326v11.105l7.385-.024zM3.425 119.25v11.246s13.315.592 48.528-10.652c8.135-2.598 27.81-7.395 37.872-9.172 20.449-3.611 40.23-4.709 60.9-4.936 16.312-.18 34.9-.041 38.814 1.383.623.229.297-3.254.297-3.254s-27.717-1.055-47.539-1.492c-11.248-.246-21.682.275-32.834 1.199-9.896.82-24.003 2.281-39.462 5.619-26.038 5.623-59.475 11.241-66.576 10.059z"/><path d="M2.834 142.955v4.111s14.2-.891 49.412-12.133c22.579-7.211 45.882-11.43 69.533-11.541 10.986-.051 56.375 2.072 67.76 4.439.623.229.297-10.062.297-10.062s-52.643-4.051-67.463-3.252c-10.949.59-33.368 4.223-59.771 12.131-27.739 8.309-52.666 17.487-59.768 16.307z" fill="#fff22d"/></g></svg>